<svg width="275" height="174" viewBox="0 0 275 174" fill="none" xmlns="http://www.w3.org/2000/svg">
<g clipPath="url(#clip0_1017_12205)">
<path d="M150.368 7.14015C151.363 6.64626 151.613 8.17662 151.821 8.84093C152.322 12.5208 153.031 16.1623 153.563 19.8387C153.685 21.0386 154.523 22.5133 153.473 23.522C153.111 23.9254 152.659 23.4211 152.531 23.0768C152.093 22.1759 151.915 21.1777 151.717 20.2039C151.171 16.4997 150.535 12.8025 150.243 9.06701C150.274 8.43399 150.111 7.73838 150.368 7.14015Z" fill="#F8FCFF"/>
<path d="M159.765 11.773C160.057 10.9869 160.801 11.7034 160.854 12.2216C161.253 14.6215 161.274 17.084 161.02 19.5048C160.937 20.3952 160.593 21.536 159.543 21.6577C159.383 20.8473 159.261 20.016 159.411 19.1917C159.838 16.7397 159.546 14.2355 159.765 11.773Z" fill="#F8FCFF"/>
<path d="M222.462 101.069C221.61 100.93 222.09 99.5739 222.834 99.793C227.993 100.374 232.815 102.44 237.644 104.224C239.824 105.014 242.094 105.532 244.295 106.248C245.112 106.433 245.094 107.24 244.82 107.866C238.447 106.934 232.672 103.873 226.512 102.155C225.191 101.678 223.776 101.549 222.462 101.069Z" fill="#F8FCFF"/>
<path d="M224.739 116.359C226.867 116.29 228.751 117.625 230.812 118.018C232.544 118.533 234.372 118.592 236.072 119.215C237.606 119.684 239.205 119.903 240.759 120.276C241.44 120.505 241.472 121.806 240.571 121.639C238.238 121.448 235.913 121.048 233.684 120.335C230.548 119.921 227.527 118.853 224.69 117.493C224.12 117.319 224.033 116.373 224.739 116.359Z" fill="#F8FCFF"/>
<path d="M111.247 131.607C111.848 131.673 112.449 131.743 113.051 131.812C116.767 135.506 120.258 139.422 123.752 143.321C126.651 146.243 129.634 149.092 132.398 152.145C135.45 151.634 138.548 151.324 141.566 150.625C141.736 150.131 141.913 149.641 142.091 149.151C140.488 148.845 138.934 149.453 137.338 149.474C137.599 148.956 137.86 148.441 138.117 147.919C138.398 147.822 138.68 147.725 138.965 147.631L138.819 148.017C140.137 147.979 141.489 147.665 142.796 147.954C143.832 148.372 143.207 149.679 142.873 150.403C145.06 150.034 147.264 149.801 149.475 149.624C151.171 149.693 152.864 149.818 154.564 149.815C154.679 150.406 154.773 150.998 154.867 151.596C153.139 151.512 151.415 151.411 149.687 151.335C149.955 155.856 149.718 160.392 149.673 164.917C149.854 169.438 149.788 173.97 149.711 178.492C150.045 181.25 149.805 184.039 150.066 186.808C149.937 194.47 150.306 202.125 150.281 209.788C150.553 212.782 150.33 215.798 150.594 218.796C150.511 222.625 150.918 226.451 150.796 230.288C150.733 232.569 151.06 234.868 150.681 237.136C155.27 237.24 159.863 237.484 164.455 237.247C170.95 236.927 177.451 236.649 183.952 236.538C184.758 236.503 185.558 236.597 186.365 236.666C196.412 235.793 206.518 236.009 216.586 235.435C226.251 234.541 235.937 233.727 245.647 233.64C245.838 231.021 245.863 228.399 245.755 225.776C246.082 214.977 246.339 204.181 246.933 193.389C243.669 193.124 240.394 192.724 237.115 192.891C231.091 192.957 225.069 193.302 219.041 193.138C213.499 193.34 207.968 192.717 202.426 192.968C202.305 193.712 202.736 194.752 202.009 195.267C201.745 195.253 201.213 195.218 200.949 195.201C200.893 194.467 200.872 193.733 200.876 192.999C196.37 193.131 191.847 193.277 187.362 193.823C186.493 193.882 185.422 194.498 184.72 193.691C183.469 192.376 182.367 190.923 181.035 189.681C179.683 187.824 178.111 186.147 176.637 184.391C175.504 182.857 173.929 181.747 172.674 180.321C169.194 177.115 166.625 173.104 163.84 169.32C162.129 167.63 160.572 165.79 159.15 163.856C158.705 163.261 158.281 162.096 159.185 161.71C161.163 160.809 163.409 161.39 165.505 161.32C167.379 161.23 169.222 161.731 171.096 161.54C176.505 161.762 181.911 161.846 187.324 161.936C189.786 161.707 192.254 161.981 194.712 161.724C199.888 162.027 205.1 161.717 210.245 162.545C218.62 162.99 226.929 164.263 235.322 164.559C237.411 165.72 239.167 167.411 240.776 169.167C242.914 170.802 244.82 172.732 247.024 174.287C247.239 167.692 247.163 161.112 246.961 154.517C242.654 154.507 238.353 154.709 234.049 154.514C233.333 153.982 233.291 153.095 233.274 152.281C234.213 150.942 235.516 149.923 236.479 148.601C237.574 147.38 238.485 146.01 239.612 144.813C241.743 142.507 243.547 139.899 245.953 137.857C246.381 137.742 246.808 137.649 247.243 137.555C247.326 138.073 247.396 138.595 247.448 139.12C248.293 144.89 249.03 150.698 248.971 156.542C249.308 162.813 249.11 169.098 248.786 175.369C252.023 177.302 254.811 179.852 257.766 182.175C259.668 183.987 261.653 185.716 263.777 187.267C265.978 189.051 268.252 190.773 270.758 192.109C271.339 192.342 271.516 193.201 270.974 193.583C270.157 194.268 269.016 193.973 268.046 194.008C261.584 193.611 255.093 194.168 248.64 193.545C248.529 197.792 248.425 202.038 248.199 206.282C248.178 211.384 248.035 216.487 247.768 221.582C247.649 225.3 247.893 229.028 247.556 232.74C247.514 233.668 247.107 234.816 246.064 234.99C243.102 235.331 240.109 235.275 237.15 235.679C230.406 236.099 223.661 236.583 216.941 237.292C208.834 237.793 200.712 237.807 192.605 238.252C191.454 250.179 192.442 262.175 192.536 274.125C192.584 280.49 192.688 286.866 192.577 293.241C192.584 298.688 192.914 304.148 192.664 309.592H170.605C170.369 307.498 170.623 305.39 170.303 303.303C170.265 297.992 170.286 292.681 170.226 287.37C170.508 283.885 170.063 280.372 170.48 276.904C170.185 275.75 170.303 274.567 170.428 273.402C170.324 270.529 170.578 267.656 170.435 264.783C170.466 256.185 169.976 247.588 170.279 238.993C166.938 238.778 163.586 239.265 160.242 238.993C156.89 238.958 153.535 238.878 150.188 238.691C147.066 238.312 143.905 238.405 140.794 237.901C137.331 237.741 133.935 237.08 130.489 236.788C125.031 236.019 119.538 235.449 114.122 234.42C113.36 229.957 113.332 225.418 113.287 220.911C112.919 217.666 113.169 214.393 112.898 211.144C112.769 203.152 112.641 195.159 112.644 187.166C112.432 182.878 112.338 178.568 112.578 174.276C112.543 171.157 112.529 168.04 112.557 164.92C112.328 160.861 112.707 156.802 112.707 152.743C113.03 146.827 113.197 140.894 113.84 135.002C113.551 134.692 113.263 134.386 112.981 134.077C112.71 133.064 111.959 132.327 111.247 131.607ZM123.807 155.081C120.793 155.356 117.654 155.491 114.716 155.86C114.445 163.512 114.859 171.177 114.518 178.833C114.445 183.806 114.796 188.787 114.584 193.771C114.866 196.894 114.827 200.035 114.834 203.172C114.932 213.165 115.314 223.126 115.46 233.108C120.56 233.776 125.681 234.214 130.778 234.893C134.119 235.174 137.411 235.842 140.773 235.901C143.506 236.44 146.308 236.339 149.061 236.68C148.936 230.267 148.647 223.86 148.456 217.457C148.248 212.688 148.011 207.92 148.077 203.148C147.834 196.543 148.122 189.924 147.695 183.326C147.771 180.429 147.392 177.535 147.664 174.642C147.493 170.701 147.524 166.757 147.518 162.816C147.733 159.074 147.528 155.314 147.806 151.571C139.803 152.723 131.842 154.152 123.807 155.081Z" fill="#F8FCFF"/>
<path d="M126.884 19.8734C127.016 19.9117 127.284 19.9847 127.416 20.023C128.111 21.9603 128.807 23.8976 129.669 25.7688C129.735 26.607 128.608 26.8957 128.202 26.1966C127.315 24.8332 126.766 23.2368 126.585 21.6229C126.568 21.0386 126.439 20.3395 126.884 19.8734Z" fill="#F8FCFF"/>
<path d="M159.362 26.5722C159.592 26.0262 160.301 26.4783 160.516 26.8122C160.683 27.8 160.464 28.833 160.044 29.7338C159.877 30.3008 159.334 30.3773 158.834 30.2312C158.733 29 159.025 27.7478 159.362 26.5722Z" fill="#F8FCFF"/>
<path d="M119.263 28.2904C120.167 28.4052 120.306 29.5078 120.849 30.0816C121.353 30.9199 122.622 31.0346 122.893 32.0224C122.163 33.0658 120.786 32.1476 120.202 31.3998C119.552 30.5755 118.679 29.3165 119.263 28.2904Z" fill="#F8FCFF"/>
<path d="M159.612 33.9945C167.744 32.9128 175.778 31.2398 183.917 30.2138C184.758 30.2103 185.965 29.9425 186.455 30.8468C187.936 34.318 188.214 38.1299 188.847 41.8132C189.72 47.2217 191.152 52.5153 192.456 57.8333C192.678 58.6924 192.831 59.5759 192.859 60.4697C191.663 60.9949 190.384 61.3253 189.069 61.2836C190.453 68.8624 190.818 76.5733 191.885 84.1868C192.205 90.7917 192.682 97.3932 192.723 104.012C199.412 103.174 206.185 102.885 212.793 101.469C213.916 101.223 215.161 100.736 216.194 101.515C217.254 99.9252 218.293 98.3218 219.402 96.7636C220.564 95.115 220.915 93.0942 221.478 91.1987C222.121 89.1292 221.895 86.9032 222.462 84.8198C223.171 83.0078 224.426 81.4844 225.351 79.7801C227.301 76.6637 229.053 73.4361 230.75 70.1771C231.271 69.2902 231.963 67.8433 233.229 68.2433C236.754 70.0727 240.526 71.3666 244.166 72.9491C247.225 73.9369 250.087 75.4673 253.181 76.3716C256.091 77.4463 259.077 78.3019 261.942 79.5053C270.901 83.0947 280.107 86.0893 288.875 90.1413C289.799 90.6978 290.974 91.0317 291.597 91.9708C291.454 93.0734 290.661 93.9394 290.178 94.9063C288.544 97.9392 286.695 100.854 284.678 103.65C283.319 105.828 282.168 108.21 280.232 109.953C278.198 109.243 276.275 108.273 274.263 107.518C273.494 109.135 272.799 110.794 271.832 112.314C269.388 116.86 265.835 120.655 262.494 124.543C257.613 129.538 252.451 134.247 247.448 139.12C247.396 138.595 247.326 138.073 247.243 137.555C246.808 137.649 246.381 137.742 245.953 137.857C247.43 136 249.363 134.598 250.966 132.866C256.285 127.879 261.688 122.936 266.28 117.246C269.062 114.189 271.102 110.575 273.129 107.003C271.036 105.939 268.77 105.201 266.819 103.869C266.315 103.567 266.061 103.031 265.853 102.513C267.435 102.478 268.811 103.355 270.223 103.942C273.491 105.344 276.682 106.916 279.929 108.356C280.851 106.718 281.956 105.191 282.85 103.539C284.296 101.198 285.975 99.0139 287.425 96.6801C288.357 95.2193 289.177 93.6925 290.116 92.2351C281.595 88.3153 272.691 85.3694 263.937 82.0548C260.499 80.6079 256.953 79.4636 253.431 78.2602C249.746 77.1333 246.255 75.4742 242.622 74.2012C239.466 72.8761 236.205 71.7457 233.232 70.031C230.851 74.4934 228.455 78.9523 225.657 83.1747C225.09 84.0025 224.607 84.8859 224.117 85.7624C224.165 89.4144 223.119 92.9655 221.867 96.3567C220.571 98.7844 218.763 100.896 217.07 103.055C217.188 105.56 217.591 108.05 217.615 110.565C219.062 110.909 221.353 110.787 221.544 112.752C222.441 117.782 222.451 122.933 222.403 128.032C221.627 136.083 222.761 144.167 222.149 152.225C224.812 152.041 227.489 152.695 230.131 152.208C231.178 152.156 232.255 152.681 233.274 152.281C233.291 153.095 233.333 153.982 234.049 154.514C230.437 154.124 226.814 154.58 223.199 154.239C220.421 154.347 217.643 154.069 214.869 154.27C210.231 154.413 205.614 153.843 200.98 153.856C193.665 153.345 186.34 153.223 179.026 152.747C174.993 152.26 170.904 152.417 166.868 151.93C162.867 151.895 158.858 151.937 154.867 151.596C154.773 150.997 154.679 150.406 154.564 149.815C156.397 148.017 158.215 146.208 160.068 144.434C157.805 139.725 155.507 134.957 154.509 129.792C154.053 127.406 153.216 124.957 153.598 122.519C155.176 121.423 156.897 120.54 158.549 119.559C157.704 116.888 156.96 114.147 156.824 111.34C156.762 109.883 155.58 108.853 154.947 107.629C153.88 105.629 152.416 103.894 151.251 101.963C148.199 97.3792 145.15 92.7882 141.774 88.4301C140.203 86.2215 138.541 84.079 136.664 82.1208C135.982 86.1067 134.814 89.9813 133.862 93.9046C132.951 97.8523 131.974 101.783 131.192 105.761C130.827 107.688 129.975 109.469 129.342 111.312C128.876 112.756 127.851 114.091 126.411 114.644C123.373 115.291 120.24 115.375 117.146 115.17C113.948 114.644 110.704 114.544 107.481 114.234C105.496 113.991 103.473 114.196 101.512 113.744C99.753 113.573 97.98 113.486 96.2382 113.135C98.3346 115.458 100.219 117.97 102.308 120.303C105.013 123.162 107.502 126.22 110.301 128.992C111.24 129.91 112.164 130.842 113.051 131.812C112.449 131.743 111.848 131.673 111.247 131.607C111.959 132.327 112.71 133.064 112.981 134.077C106.226 127.552 99.9512 120.529 94.2218 113.079C93.8672 112.54 93.2901 111.865 93.676 111.198C94.5869 109.403 95.7897 107.775 97.1039 106.255C100.341 102.054 104.641 98.8992 108.872 95.7828C111.924 93.8559 114.751 91.5743 117.915 89.8213C121.975 87.5432 126.109 85.3868 130.382 83.526C129.547 79.7592 129.321 75.8846 128.72 72.0761C128.466 70.4345 128.379 67.8885 130.489 67.4955C133.639 67.0712 136.584 65.6764 139.761 65.353C141.364 64.8521 142.988 64.4278 144.674 64.32C147.163 63.6904 149.715 63.3426 152.221 62.7792C155.329 62.0279 158.462 61.3636 161.625 60.9254C165.443 59.6802 169.43 59.0472 173.355 58.2855C174.972 57.7359 176.602 57.1482 178.334 57.1029C180.51 56.6021 182.728 56.3169 184.957 56.1499C186.027 56.1847 187.258 56.3065 188.058 57.1064C188.704 58.0803 188.722 59.315 188.889 60.435C189.737 60.1984 190.592 59.9898 191.461 59.8298C189.396 52.891 187.661 45.827 186.702 38.6412C186.316 36.2553 185.916 33.8519 185.019 31.5946C181.494 32.012 177.993 32.5963 174.482 33.1076C165.745 34.8536 156.842 35.664 148.129 37.5387C139.824 39.396 131.685 41.9211 123.411 43.9001C125.163 50.7937 127.291 57.5864 129.843 64.2261C130.107 65.2243 130.927 66.546 129.905 67.3703C129.773 67.3355 129.509 67.2694 129.38 67.2346C128.494 65.5686 127.948 63.753 127.273 61.9931C125.692 57.6316 124.193 53.2283 123.067 48.7207C122.57 47.0408 122.142 45.3087 122.159 43.5488C122.201 42.6897 123.105 42.4115 123.807 42.2758C127.221 41.6254 130.545 40.589 133.914 39.7473C142.355 37.3369 150.897 35.1944 159.612 33.9945ZM177.107 59.0263C175.525 59.3393 174.012 59.9237 172.438 60.2541C171.231 60.5358 169.962 60.5149 168.811 61.0158C166.812 61.3114 164.834 61.7845 162.926 62.4453C161.914 62.6401 160.881 62.734 159.911 63.0992C155.576 63.7113 151.352 65.0295 147.01 65.5756C145.014 66.3164 142.803 66.0416 140.846 66.9042C139.069 67.1894 137.335 67.6868 135.555 67.9546C133.903 68.6119 132.148 68.9145 130.423 69.3284C130.176 70.5979 130.392 71.8848 130.482 73.1543C130.858 76.4133 131.341 79.6584 131.772 82.9104C133.497 82.3539 134.911 81.1052 136.646 80.6009C136.785 80.6531 137.07 80.7609 137.21 80.8131C139.01 82.26 140.464 84.079 141.976 85.8146C143.958 88.2805 145.918 90.7709 147.664 93.4142C150.379 97.0001 152.625 100.913 155.291 104.541C156.223 106.186 157.276 107.761 158.215 109.403C161.069 108.707 163.993 108.245 166.924 108.078C173.985 107.073 180.959 105.49 188.058 104.721C189.135 104.405 190.314 104.669 191.347 104.186C190.839 101.546 191.159 98.847 190.766 96.1967C190.53 90.0822 190.241 83.9677 189.344 77.9054C188.763 71.3144 187.929 64.786 186.851 58.2542C186.351 58.0838 185.85 57.8646 185.311 57.9064C182.537 57.9412 179.846 58.6785 177.107 59.0263ZM117.153 92.569C112.039 96.1028 106.797 99.4939 102.162 103.661C100.08 105.751 97.9904 107.848 96.2313 110.22C95.9392 110.565 95.7828 110.961 95.7585 111.42C98.1329 111.518 100.494 111.834 102.868 111.893C104.252 112.252 105.681 112.085 107.089 112.14C110.45 112.485 113.826 112.568 117.171 113.083C119.138 113.163 121.116 113.399 123.077 113.027C124.325 112.825 126.071 113.225 126.797 111.886C128.49 108.853 129.245 105.403 129.912 102.022C131.431 95.7063 132.739 89.3274 134.911 83.1956C128.841 86.0267 122.89 89.1153 117.153 92.569ZM201.804 104.815C198.491 105.132 195.153 105.288 191.871 105.904C188.558 106.467 185.186 106.648 181.89 107.337C176.053 108.113 170.331 109.775 164.428 110.005C162.449 110.377 160.429 110.464 158.472 110.947C158.58 113.608 159.411 116.175 160.057 118.745C162.95 116.237 166.315 114.265 169.934 113.006C171.558 112.488 173.119 111.699 174.847 111.566C176.356 111.198 177.767 110.429 179.352 110.391C183.017 109.553 186.761 109.132 190.512 108.926C193.186 108.464 195.908 108.502 198.592 108.102C202.152 107.984 205.74 108.116 209.293 108.554C211.65 108.874 213.826 109.876 216.141 110.359C215.856 107.81 215.655 105.233 215.137 102.722C210.725 103.608 206.278 104.328 201.804 104.815ZM197.076 109.959C193.693 110.067 190.352 110.659 186.973 110.812C185.391 111.055 183.813 111.49 182.207 111.389C180.886 111.98 179.398 111.883 178.056 112.429C172.517 113.726 166.892 115.413 162.324 118.936C160.28 120.651 157.874 121.848 155.503 123.03C157.262 124.174 159.112 125.173 160.808 126.411C163.635 128.581 166.844 130.167 169.872 132.031C171.593 133.148 173.515 133.892 175.236 135.009C179.912 137.555 184.237 140.688 188.927 143.21C190.37 144.034 192.313 143.614 193.436 142.434C194.58 141.356 195.828 140.344 196.61 138.953C199.308 135.767 202.127 132.671 204.964 129.6C207.593 126.849 209.595 123.587 212.102 120.735C213.857 118.77 215.54 116.738 217.163 114.665C217.713 113.925 218.335 113.205 218.624 112.314C217.608 112.161 216.586 112.067 215.564 111.998C213.969 111.918 212.547 111.1 210.996 110.808C209.852 110.613 208.743 110.262 207.599 110.081C204.099 109.928 200.58 109.511 197.076 109.959ZM217.89 116.453C215.147 119.844 212.14 123.03 209.647 126.623C206.963 130.178 203.761 133.287 200.737 136.543C198.161 139.064 196.217 142.254 193.186 144.295C191.614 145.022 189.709 145.655 188.051 144.82C184.324 142.96 180.868 140.629 177.298 138.508C173.908 136.403 170.299 134.671 166.906 132.571C165.533 131.555 163.906 130.971 162.536 129.955C159.981 128.341 157.78 126.244 155.308 124.519C155.833 128.529 156.995 132.449 158.364 136.25C160.395 140.915 162.488 145.554 164.577 150.194C165.453 150.177 166.333 150.18 167.212 150.204C181.456 151.008 195.706 151.627 209.967 152.128C213.534 152.323 217.097 152.013 220.664 152.156C220.48 147.589 220.299 143.026 220.296 138.459C220.032 135.096 220.171 131.715 220.477 128.362C220.518 123.472 220.508 118.571 220.049 113.698C219.215 114.523 218.589 115.517 217.89 116.453ZM156.598 150.149C158.656 150.051 160.711 150.184 162.766 150.253C162.053 148.848 161.469 147.38 160.683 146.017C159.498 147.565 157.996 148.81 156.598 150.149Z" fill="#F8FCFF"/>
<path d="M156.974 46.6269C158.027 46.4113 159.122 46.3278 160.2 46.4009C160.242 46.5609 160.325 46.8808 160.367 47.0408C158.045 48.1712 155.381 48.2895 152.927 49.0338C146.614 50.4911 140.227 51.6458 134.004 53.4683C133.072 53.1797 133.684 52.1328 134.387 52.0528C141.785 49.719 149.468 48.5086 156.974 46.6269Z" fill="#F8FCFF"/>
<path d="M188.829 136.073C189.977 135.353 191.798 137.2 190.634 138.219C190.095 138.96 188.916 138.859 188.471 138.083C187.999 137.457 188.176 136.497 188.829 136.073Z" fill="#F8FCFF"/>
<path d="M150.024 53.4822C151.091 53.284 152.221 53.051 153.303 53.2875C154.046 53.8057 153.028 54.2161 152.618 54.2926C149.537 55.19 146.322 55.4613 143.234 56.3343C140.564 56.6647 138.1 58.1464 135.405 58.1359C134.845 56.9151 136.601 56.8803 137.331 56.5673C141.451 55.1274 145.741 54.2613 150.024 53.4822Z" fill="#F8FCFF"/>
<path d="M154.05 75.9959C155.903 75.7142 157.725 75.0812 159.616 75.1438C159.769 75.2342 160.082 75.4116 160.235 75.502C159.929 75.9716 159.442 76.2394 158.91 76.3681C156.271 77.1263 153.532 77.4289 150.872 78.1106C147.657 78.9001 144.382 79.4358 141.19 80.3331C140.655 80.4514 140.3 80.2392 140.123 79.6931C142.011 78.3158 144.469 78.2671 146.641 77.6098C149.141 77.2098 151.54 76.3333 154.05 75.9959Z" fill="#F8FCFF"/>
<path d="M156.942 80.2775C157.711 80.1488 158.503 79.8079 159.286 80.0479C159.825 80.6009 158.875 80.9244 158.493 81.0844C155.114 82.2391 151.516 82.4547 148.063 83.2964C147.034 83.5399 146.03 83.9955 144.948 83.9051C144.33 83.3451 145.327 82.7852 145.807 82.6356C149.44 81.5191 153.23 81.0531 156.942 80.2775Z" fill="#F8FCFF"/>
<path d="M234.317 80.7957C235.196 80.6705 236.006 81.0983 236.834 81.3313C240.599 82.4513 244.347 83.6547 248.001 85.1051C248.984 85.5363 250.027 85.9328 250.824 86.6806C250.792 87.4076 249.986 87.3867 249.475 87.2441C244.74 85.3937 239.925 83.7312 235.071 82.2148C234.379 82.1417 233.823 81.4252 234.317 80.7957Z" fill="#F8FCFF"/>
<path d="M225 125.52C224.256 125.159 224.878 123.934 225.618 124.248C227.44 124.762 229.14 125.656 230.986 126.115C233.382 126.898 236.006 126.905 238.287 128.056C238.284 128.341 238.284 128.915 238.284 129.2C233.719 128.633 229.057 127.809 225 125.52Z" fill="#F8FCFF"/>
<path d="M162.78 84.9798C165.168 84.3816 167.57 83.6199 170.049 83.5573C170.581 83.4286 170.518 84.0164 170.55 84.3364C164.354 86.3711 157.839 87.105 151.554 88.8023C150.66 89.0318 149.77 89.2823 148.853 89.3762C148.567 88.6666 149.054 88.0823 149.749 87.9641C154.008 86.6493 158.396 85.7276 162.78 84.9798Z" fill="#F8FCFF"/>
<path d="M232.318 85.7068C232.878 85.6163 233.43 85.7555 233.973 85.9155C240.502 87.3032 246.836 89.477 253.062 91.8595C255.663 92.7638 258.302 93.5533 260.895 94.4785C261.497 94.6698 262.512 95.2646 261.712 95.915C261.079 95.9428 260.478 95.7063 259.873 95.5672C253.904 94.0194 248.223 91.5674 242.33 89.7657C239.358 88.7744 236.319 87.9954 233.323 87.0945C232.641 86.9624 232.224 86.385 232.318 85.7068Z" fill="#F8FCFF"/>
<path d="M254.53 105.765C256.73 102.909 258.993 100.057 261.695 97.6505C263.482 98.0679 265.036 99.3618 265.898 100.969C266.253 101.442 265.801 101.869 265.481 102.176C263.075 104.767 260.627 107.337 258.733 110.342C257.944 111.681 256.084 112.85 254.603 111.904C253.365 111.278 252.982 109.786 253.024 108.506C253.285 107.483 253.942 106.624 254.53 105.765ZM255.287 107.671C254.714 108.638 254.55 110.231 255.799 110.746C256.689 111.389 257.238 110.186 257.655 109.594C259.654 106.488 262.352 103.939 264.476 100.927C263.555 100.409 262.821 99.5391 261.764 99.2922C259.96 102.342 257.109 104.628 255.287 107.671Z" fill="#F8FCFF"/>
<path d="M220.32 108.213C220.334 107.681 220.32 106.812 221.106 106.923C226.773 107.942 232.248 109.813 237.633 111.82C238.537 112.116 240.088 112.352 239.796 113.667C239.017 113.973 238.211 113.625 237.46 113.427C234.226 112.405 231.014 111.309 227.791 110.262C225.302 109.577 222.785 108.982 220.32 108.213Z" fill="#F8FCFF"/>
<path d="M123.491 107.546C125.139 106.568 125.445 109.96 123.766 109.82C122.445 109.845 122.542 108.05 123.491 107.546Z" fill="#F8FCFF"/>
<path d="M225.632 132.198C227.687 132.028 229.53 133.158 231.504 133.534C232.481 133.934 234.098 133.308 234.47 134.664C234.265 134.814 233.858 135.106 233.653 135.252C231.084 135.242 228.598 134.442 226.276 133.398C225.664 133.277 225.459 132.755 225.632 132.198Z" fill="#F8FCFF"/>
<path d="M133.142 145.801C135.231 145.697 137.352 144.716 139.421 145.464C139.494 146.222 139.282 146.946 138.965 147.631C138.68 147.725 138.398 147.822 138.117 147.919C137.86 148.441 137.599 148.956 137.338 149.474L136.911 149.185C137.081 148.145 137.915 147.412 138.284 146.455C136.528 146.281 134.849 146.987 133.097 146.866C133.107 146.598 133.132 146.066 133.142 145.801Z" fill="#F8FCFF"/>
<path d="M128.097 168.948C129.78 168.492 131.508 169.098 132.923 169.998C134.015 171.435 134.981 173.108 134.925 174.979C135.023 177.41 134.161 180.227 131.772 181.292C130.096 181.977 127.986 182.579 126.352 181.473C125.017 180.554 124.016 179.104 123.842 177.469C123.494 175.142 123.814 172.53 125.389 170.677C126.147 169.922 126.992 169.118 128.097 168.948ZM127.524 171.727C128.299 174.266 128.546 177.114 127.239 179.525C128.376 181.128 130.952 180.349 132.012 179.003C133.323 177.094 133.455 174.426 132.255 172.423C131.682 171.15 130.34 170.388 128.974 170.343C128.24 170.461 127.833 171.122 127.524 171.727ZM126.251 174.951C126.164 175.949 126.095 176.982 126.39 177.96C126.773 176.659 126.95 175.288 126.735 173.946C126.373 174.155 126.269 174.551 126.251 174.951Z" fill="#F8FCFF"/>
</g>
<defs>
<clipPath id="clip0_1017_12205">
<rect width="356" height="309" fill="white" transform="translate(0 0.591553)"/>
</clipPath>
</defs>
</svg>
