<svg width="383" height="342" viewBox="0 0 383 342" fill="none" xmlns="http://www.w3.org/2000/svg">
<g clipPath="url(#clip0_3527_14714)">
<path d="M383 269.112V273.595C380.92 268.25 379.007 262.931 377.259 257.639C375.83 253.313 374.42 249.771 372.707 245.916C372.699 245.899 372.686 245.884 372.67 245.874C372.654 245.864 372.635 245.858 372.616 245.859C372.597 245.859 372.578 245.865 372.562 245.876C372.547 245.887 372.534 245.902 372.527 245.92C368.458 256.069 364.461 266.143 360.536 276.141C360.349 276.616 360.076 277.029 359.87 277.482C359.813 277.609 359.802 277.739 359.837 277.872L376.604 342H374.895C367.798 314.551 362.992 296.149 360.476 286.793C355.913 269.807 351.305 252.486 346.652 234.83C346.505 234.27 346.715 233.925 347.281 233.796L347.412 233.767C347.828 233.672 348.091 233.831 348.201 234.242L358.962 274.884C359.091 275.375 359.225 275.376 359.362 274.888C359.437 274.628 359.524 274.37 359.624 274.115C363.142 265.106 366.608 256.343 370.021 247.827C370.51 246.608 371.035 245.375 371.596 244.129C371.646 244.02 371.648 243.909 371.604 243.798C371.387 243.27 371.158 242.75 370.919 242.237C368.131 236.246 364.677 230.332 360.555 224.497C351.97 212.341 340.917 202.498 327.398 194.968C327.3 194.914 327.218 194.931 327.151 195.02C322.712 200.791 317.113 205.318 310.353 208.601C302.817 212.258 294.779 212.607 286.562 211.113C279.174 209.768 272.033 207.379 265.141 203.948C259.756 201.268 254.545 197.652 251.269 192.641C251.259 192.626 251.246 192.613 251.23 192.603C251.215 192.593 251.198 192.586 251.18 192.582C251.161 192.579 251.143 192.579 251.125 192.583C251.107 192.586 251.09 192.594 251.074 192.604C243.553 197.86 236.933 204.074 231.861 211.768C231.753 211.932 231.715 212.132 231.756 212.325L239.465 249.18C239.49 249.299 239.548 249.399 239.641 249.481C241.446 251.114 242.691 252.294 243.377 253.023C250.21 260.296 255.697 269.127 260.623 278.318C265.944 288.24 270.971 298.022 275.704 307.665C279.005 314.395 284.482 325.84 292.135 342H290.403C289.426 340.134 288.479 338.233 287.564 336.295C278.849 317.812 269.981 299.165 260.447 281.493C260.43 281.461 260.404 281.435 260.372 281.418C260.34 281.401 260.304 281.393 260.268 281.395C260.232 281.398 260.198 281.41 260.168 281.431C260.139 281.453 260.117 281.481 260.103 281.515C260.021 281.735 259.926 281.947 259.819 282.15C257.036 287.53 253.887 293.322 250.371 299.526C250.341 299.58 250.322 299.64 250.316 299.702C250.31 299.764 250.318 299.827 250.338 299.886L264.42 342H262.714C258.926 331.058 255.226 320.069 251.613 309.033C246.045 292.031 239.991 273.137 233.45 252.354C233.346 252.022 233.181 251.726 232.957 251.465C227.788 245.491 222.328 239.757 216.578 234.261C216.568 234.251 216.556 234.244 216.543 234.239C216.53 234.234 216.517 234.231 216.503 234.232C216.489 234.232 216.475 234.235 216.462 234.241C216.45 234.246 216.438 234.254 216.429 234.265C205.38 246.032 192.14 255.037 175.376 253.45C166.538 252.614 158.047 249.209 150.443 244.426C146.177 241.74 142.512 238.441 139.447 234.529C139.422 234.496 139.389 234.469 139.352 234.45C139.315 234.431 139.274 234.42 139.232 234.419C139.19 234.417 139.148 234.425 139.11 234.442C139.072 234.458 139.037 234.483 139.01 234.514C131.893 242.415 125.193 250.492 118.91 258.743C118.658 259.075 118.486 259.45 118.393 259.869C117.615 263.452 116.768 267.24 115.85 271.234C115.569 272.461 115.338 273.431 114.38 274.256C113.187 275.278 111.246 275.163 109.757 275.063C109.65 275.055 109.575 275.1 109.533 275.196L105.916 283.269C105.809 283.509 105.877 283.58 106.122 283.481C109.578 282.074 113.226 281.261 117.066 281.043C126.51 280.5 134.499 284.053 140.966 290.617C144.265 293.967 147.394 297.892 150.354 302.391C153.815 307.654 156.793 312.946 159.289 318.265C159.504 318.729 159.587 318.706 159.54 318.199C158.293 305.411 156.619 292.784 154.517 280.318C154.439 279.867 154.585 279.507 154.954 279.237C155.236 279.028 155.585 279.151 156.001 279.604C156.094 279.709 156.155 279.836 156.177 279.972C159.578 300.768 161.861 321.444 163.026 342H161.447C161.036 336.021 160.587 330.044 160.101 324.067C160.067 323.662 160.015 323.279 159.835 322.896C157.172 317.2 154.13 311.568 150.709 306C147.859 301.364 144.834 297.255 141.635 293.672C138.86 290.56 135.985 288.134 133.01 286.395C124.587 281.467 114.122 281.388 105.258 285.733C105.048 285.835 104.9 285.992 104.813 286.205C101.728 293.703 99.2085 301.25 97.2536 308.847C96.7175 310.929 96.2225 313.384 95.7687 316.214C94.3998 324.784 93.2104 333.38 92.2005 342H90.566C92.0621 329.126 93.3101 320.078 94.31 314.857C95.4994 308.648 97.1351 302.555 99.2172 296.579C101.718 289.395 104.561 282.238 107.745 275.107C107.757 275.079 107.762 275.049 107.759 275.018C107.756 274.988 107.746 274.959 107.729 274.934C107.712 274.909 107.69 274.888 107.663 274.874C107.636 274.861 107.607 274.854 107.577 274.855C105.928 274.882 104.424 274.807 103.062 274.632C101.559 274.442 100.998 273.338 101.203 271.985C102.854 261.185 104.411 250.651 105.875 240.386C105.887 240.287 105.849 240.215 105.759 240.17L103.541 239.048C103.489 239.022 103.43 239.013 103.372 239.022C103.315 239.032 103.261 239.059 103.219 239.1C93.85 248.54 81.7316 254.138 68.465 254.402C58.3477 254.606 46.6706 252.082 40.4544 243.79C40.4352 243.766 40.4108 243.745 40.3828 243.731C40.3548 243.717 40.3239 243.709 40.2925 243.708C40.261 243.707 40.2297 243.712 40.2008 243.725C40.1718 243.737 40.146 243.756 40.1252 243.779C31.8032 253.32 24.6182 264.232 18.948 275.371C15.1529 282.824 12.0124 290.595 9.52638 298.682C9.48149 298.828 9.5351 298.897 9.68721 298.887C18.8396 298.381 26.6529 302.51 33.5424 308.316C38.7389 312.699 43.4154 317.471 47.572 322.633C48.0209 323.193 48.0919 323.149 47.7852 322.502C44.4839 315.542 41.1812 308.722 37.8774 302.042C37.8246 301.936 37.7938 301.821 37.7867 301.703C37.7796 301.585 37.7965 301.467 37.8362 301.355C37.8759 301.244 37.9378 301.141 38.0181 301.054C38.0984 300.966 38.1955 300.895 38.3037 300.845L38.502 300.752C38.8112 300.611 39.0406 300.692 39.1902 300.994C42.8307 308.289 45.3902 313.558 46.8689 316.801C50.6989 325.211 54.5713 333.61 58.486 342H56.7543C54.9615 338.378 53.2385 334.711 51.5853 330.999C51.2113 330.159 50.6914 329.218 50.1902 328.546C44.3068 320.626 37.5669 313.278 29.8882 307.48C23.7617 302.86 17.0106 299.916 9.31692 300.433C9.23542 300.438 9.15767 300.469 9.09415 300.519C9.03063 300.57 8.98437 300.638 8.9616 300.715C6.40577 309.164 4.41348 317.904 2.98471 326.933C2.19427 331.923 1.68435 336.945 1.45495 342H0V337.637C1.23054 324.647 4.01701 311.538 7.70488 299.269C12.435 283.538 19.5627 268.952 29.0878 255.513C29.0982 255.498 29.1044 255.481 29.1055 255.463C29.1066 255.445 29.1026 255.427 29.0941 255.411C29.0855 255.396 29.0727 255.382 29.0571 255.373C29.0414 255.364 29.0236 255.36 29.0055 255.361C25.7839 255.418 22.6708 254.67 19.6662 253.119C8.13127 247.165 6.23123 232.748 13.0123 222.624C16.5805 217.294 22.5761 213.28 28.0929 209.497C32.0837 206.761 35.9137 203.23 37.7539 198.83C41.165 190.672 36.9984 182.54 33.7968 175.169C29.4057 165.07 30.1214 155.335 35.9437 145.964C36.3675 145.282 36.7865 144.59 37.2004 143.886C37.2677 143.774 37.2851 143.657 37.2527 143.533L34.0212 131.346C33.9922 131.237 33.9373 131.136 33.8611 131.053C33.785 130.969 33.6897 130.905 33.5836 130.866L23.541 127.232C23.5195 127.224 23.4964 127.222 23.4739 127.225C23.4514 127.229 23.4301 127.237 23.4119 127.251C23.3938 127.264 23.3794 127.281 23.3699 127.301C23.3604 127.321 23.3563 127.343 23.3578 127.365L24.8688 163.536C24.8763 163.665 24.9212 163.779 25.0035 163.878C25.3139 164.242 25.744 164.473 25.9797 164.915C26.219 165.371 26.3811 165.883 26.4659 166.45C26.6043 167.39 27.1317 168.137 27.2401 169.093C27.5119 171.546 27.8012 174.054 28.1079 176.619C28.5667 180.44 29.4668 184.342 30.8083 188.326C30.8202 188.362 30.8242 188.4 30.8202 188.437C30.8162 188.474 30.8043 188.51 30.7852 188.543C30.7661 188.575 30.7402 188.603 30.7094 188.625C30.6786 188.646 30.6434 188.661 30.6063 188.668L24.3302 189.88C24.1981 189.907 24.1145 189.856 24.0796 189.728C22.5237 184.011 21.8941 178.319 22.1908 172.649C22.2619 171.293 21.6709 170.234 21.6747 168.944C21.6821 167.036 22.1808 165.476 23.1708 164.265C23.2816 164.128 23.3388 163.956 23.3316 163.781L21.7046 126.733C21.7021 126.681 21.6759 126.647 21.626 126.629C16.7937 124.982 12.0436 123.33 7.37574 121.675C7.25605 121.633 7.18873 121.546 7.17377 121.415C7.1665 121.356 7.18119 121.296 7.21503 121.247C7.24887 121.199 7.29945 121.164 7.35704 121.151L70.1144 106.73C70.2486 106.701 70.3888 106.715 70.5132 106.773C70.6376 106.83 70.7394 106.926 70.8026 107.046C73.3984 111.962 75.9442 116.856 78.4402 121.727C78.5898 122.019 78.7818 122.299 79.0162 122.567C79.0705 122.63 79.1382 122.68 79.2143 122.714C79.2904 122.747 79.373 122.764 79.4563 122.762C79.5396 122.76 79.6215 122.74 79.6961 122.703C79.7706 122.666 79.8361 122.614 79.8877 122.548C83.9683 117.427 89.3579 113.77 96.124 113.547C101.663 113.365 107.434 114.416 111.616 118.059C116.319 122.152 118.972 127.189 119.575 133.171C120.634 143.626 114.111 152.438 103.309 153.252C103.162 153.262 103.098 153.34 103.118 153.486C103.339 155.051 103.799 156.59 104.128 158.143C106.095 167.41 106.897 176.786 106.533 186.271C106.23 194.147 104.42 203.784 96.9656 208.114C96.9411 208.128 96.9209 208.149 96.9073 208.174C96.8937 208.199 96.8871 208.227 96.8883 208.255C96.8894 208.283 96.8983 208.311 96.9139 208.334C96.9295 208.358 96.9512 208.377 96.9768 208.389C98.7347 209.229 100.171 210.641 101.267 212.206C104.651 217.05 105.592 222.531 104.091 228.649C103.492 231.087 102.342 233.276 100.638 235.216C100.607 235.251 100.585 235.292 100.572 235.338C100.559 235.383 100.557 235.43 100.566 235.476C100.575 235.522 100.594 235.566 100.622 235.604C100.65 235.642 100.686 235.673 100.728 235.696L105.923 238.42C106.078 238.499 106.174 238.455 106.211 238.286C106.713 236.03 107.206 233.763 107.794 231.544C116.972 196.721 126.149 161.717 135.325 126.533C136.353 122.598 137.85 118.875 139.817 115.364C139.885 115.245 139.852 115.204 139.72 115.242C137.566 115.851 136.211 115.144 135.655 113.119C133.388 104.861 130.908 95.9878 128.215 86.5004C128.203 86.4549 128.175 86.4149 128.137 86.3866C128.1 86.3583 128.053 86.3434 128.006 86.3443L84.2525 86.9204C83.2626 86.9328 83.1915 86.685 84.0393 86.177L146.935 48.4973C147.13 48.3822 147.348 48.3112 147.575 48.2891C176.202 45.5537 204.896 42.8107 233.656 40.0604C235.105 39.9241 236.567 39.8225 238.043 39.7556C238.176 39.7482 238.259 39.8089 238.294 39.9377C238.331 40.0864 238.283 40.2016 238.148 40.2834C237.822 40.4767 237.514 40.6662 237.224 40.8521C222.874 49.9678 208.624 58.9238 194.473 67.72C194.415 67.7563 194.369 67.811 194.345 67.8756C194.321 67.9401 194.318 68.0109 194.339 68.0768L201.494 90.507C201.512 90.5671 201.549 90.6205 201.599 90.6602C201.649 90.6999 201.71 90.7242 201.774 90.73C207.014 91.1648 212.681 92.3653 217.087 94.7403C222.495 97.6579 226.452 103.006 228.547 108.867C229.893 112.639 230.617 116.814 230.716 121.393C230.718 121.456 230.699 121.518 230.664 121.57C230.628 121.623 230.577 121.663 230.518 121.686L226.793 123.18C226.723 123.208 226.666 123.26 226.632 123.327C226.598 123.394 226.588 123.471 226.606 123.545C227.511 127.281 228.3 130.864 228.973 134.293C228.998 134.417 229.072 134.495 229.194 134.527C238.358 136.936 238.956 149.186 230.653 153.167C230.593 153.196 230.542 153.241 230.507 153.298C230.472 153.354 230.454 153.42 230.455 153.486C230.597 164.436 229.677 175.381 225.618 185.624C225.571 185.746 225.585 185.86 225.66 185.966C226.221 186.774 226.616 187.74 226.845 188.865C228.249 195.815 229.688 202.755 231.161 209.682C231.166 209.702 231.176 209.72 231.19 209.734C231.204 209.748 231.222 209.757 231.241 209.761C231.26 209.765 231.28 209.763 231.298 209.756C231.316 209.749 231.331 209.736 231.341 209.72C240.505 196.202 255.009 186.743 270.082 180.96C270.12 180.946 270.153 180.921 270.177 180.889C270.201 180.856 270.215 180.818 270.217 180.778L271.836 157.017C271.844 156.886 271.782 156.824 271.649 156.831L267.214 157.006C267.051 157.013 266.954 156.938 266.922 156.779C265.272 148.458 262.819 140.273 259.288 132.717C255.768 125.184 250.356 118.282 249.489 109.964C248.83 103.664 250.734 97.472 254.295 92.2018C254.372 92.0878 254.345 92.0097 254.213 91.9676C252.866 91.5315 252.205 90.6123 252.23 89.2098C252.36 82.3687 252.48 75.5609 252.589 68.7866C252.59 68.7125 252.568 68.6399 252.526 68.5787C252.484 68.5175 252.424 68.4707 252.354 68.4447L217.24 55.585C216.674 55.3793 216.68 55.1935 217.259 55.0275C223.49 53.236 229.856 51.5053 236.357 49.8353C260.519 43.6235 284.851 38.3619 309.355 34.0505C309.543 34.0164 309.738 34.0344 309.92 34.1025L371.484 56.7186C372.092 56.9416 372.089 57.1584 371.473 57.369C370.944 57.5474 370.271 57.7481 369.453 57.9711C355.744 61.7101 341.745 65.5011 327.458 69.3442C327.345 69.3739 327.289 69.447 327.289 69.5634L327.304 75.9747C327.304 76.0042 327.31 76.0333 327.322 76.0603C327.334 76.0873 327.352 76.1116 327.374 76.1315C327.396 76.1515 327.422 76.1666 327.451 76.1761C327.479 76.1856 327.51 76.1892 327.54 76.1866C332.208 75.6811 336.662 76.3129 339.333 80.3195C342.392 84.9171 343.514 95.0562 339.34 99.3787C338.476 100.274 337.291 100.605 336.097 100.821C335.905 100.855 335.894 100.921 336.064 101.018C337.033 101.568 338.039 101.85 337.796 103.274C337.698 103.844 337.358 104.158 336.774 104.218C336.607 104.235 336.529 104.327 336.539 104.493L336.808 108.778C336.812 108.849 336.838 108.917 336.881 108.974C336.925 109.03 336.984 109.072 337.051 109.094C341.394 110.536 343.062 115.349 342.908 119.583C342.766 123.537 340.952 127.585 337.208 129.335C337.159 129.358 337.117 129.395 337.088 129.44C337.059 129.486 337.044 129.538 337.044 129.592C336.961 137.032 336.095 143.621 334.444 149.357C332.679 155.482 329.328 160.708 323.889 164.056C318.513 167.367 312.595 168.996 306.134 168.944C306.101 168.944 306.07 168.957 306.046 168.98C306.022 169.002 306.008 169.034 306.007 169.067L305.603 184.041C305.602 184.097 305.621 184.152 305.656 184.195C305.69 184.239 305.74 184.268 305.794 184.279C309.484 184.975 313.004 186.054 316.353 187.516C321.33 189.684 326.55 192.438 332.013 195.778C346.485 204.627 358.043 216.324 366.685 230.871C367.992 233.072 369.204 235.247 370.321 237.398C373.979 244.43 376.664 250.54 378.377 255.728C379.858 260.208 381.399 264.67 383 269.112ZM300.973 100.947C300.918 100.947 300.863 100.932 300.816 100.903C300.768 100.874 300.73 100.833 300.704 100.784L297.203 94.1828C297.081 93.9499 297.002 93.9647 296.967 94.2274L296.069 101.397C296.058 101.482 296.021 101.561 295.964 101.624C295.906 101.686 295.831 101.729 295.748 101.746C288.944 103.166 287.037 109.436 286.393 115.472C286.385 115.558 286.408 115.643 286.46 115.712C286.512 115.781 286.589 115.828 286.674 115.844L304.904 119.047C304.938 119.054 304.974 119.053 305.008 119.044C305.042 119.036 305.073 119.02 305.101 118.998C305.129 118.976 305.151 118.949 305.168 118.918C305.184 118.887 305.193 118.852 305.196 118.817C305.45 114.695 307.178 110.54 311.502 109.336C317.172 107.756 320.602 111.666 321.612 116.832C321.641 116.976 321.711 116.998 321.821 116.899C323.374 115.502 324.877 115.414 326.328 116.635C326.465 116.752 326.545 116.721 326.567 116.542C327.155 111.841 329.829 108.503 334.979 108.808C335.126 108.818 335.195 108.75 335.185 108.604L334.908 104.419C334.906 104.384 334.897 104.351 334.881 104.32C334.866 104.29 334.845 104.262 334.819 104.24C334.794 104.217 334.764 104.2 334.732 104.19C334.699 104.179 334.665 104.174 334.631 104.177C333.739 104.241 332.937 104.161 332.226 103.935C330.678 103.441 330.637 101.683 332.166 101.025C332.311 100.963 332.305 100.932 332.148 100.932L314.741 100.951C314.556 100.951 314.528 101.017 314.655 101.148C315.87 102.389 314.838 103.727 313.424 103.976C311.853 104.251 310.427 104.521 309.145 104.786C308.332 104.955 307.694 104.696 307.23 104.01C306.621 103.103 307.174 102.096 308.113 101.776C308.906 101.506 309.67 101.284 310.406 101.111C310.89 100.999 310.883 100.943 310.387 100.943L300.973 100.947ZM331.643 126.916C332.174 127.975 334.313 128.027 335.319 128.071C335.442 128.076 335.504 128.018 335.507 127.897C335.654 122.072 335.595 116.287 335.331 110.544C335.326 110.457 335.28 110.409 335.192 110.399C332.198 110.086 330.089 111.257 328.868 113.911C327.982 115.839 327.871 117.748 328.535 119.638C329.368 122.01 330.404 124.435 331.643 126.916ZM313.162 128.999C314.957 129.058 316.712 128.134 318.04 126.431C319.368 124.727 320.16 122.382 320.243 119.914C320.325 117.445 319.691 115.053 318.48 113.266C317.268 111.478 315.579 110.441 313.784 110.381C311.988 110.322 310.233 111.246 308.906 112.95C307.578 114.654 306.785 116.998 306.703 119.467C306.621 121.936 307.255 124.327 308.466 126.115C309.677 127.903 311.367 128.94 313.162 128.999ZM337.496 127.469C341.263 124.5 342.149 119.363 340.653 115.041C339.967 113.059 338.835 111.656 337.257 110.834C337.221 110.814 337.181 110.805 337.14 110.806C337.1 110.808 337.06 110.82 337.026 110.841C336.992 110.863 336.964 110.893 336.945 110.929C336.927 110.965 336.918 111.005 336.92 111.045C337.165 115.976 337.249 121.178 337.175 126.652C337.172 126.909 337.205 127.158 337.272 127.399C337.309 127.533 337.384 127.556 337.496 127.469ZM285.705 119.579L278.483 119.438C278.39 119.437 278.299 119.407 278.223 119.352C278.146 119.298 278.089 119.221 278.056 119.133C276.908 115.97 273.112 114.45 270.09 115.985C266.058 118.025 264.715 122.653 266.697 126.681C267.278 127.863 268.109 128.809 269.188 129.517C271.642 131.125 274.038 131.237 276.377 129.852C276.519 129.765 276.663 129.764 276.807 129.848C280.936 132.279 281.55 141.165 281.389 145.562C281.191 150.963 279.309 155.151 273.714 156.452C273.653 156.466 273.597 156.5 273.556 156.548C273.515 156.596 273.491 156.656 273.486 156.72C272.975 164.156 272.446 171.74 271.9 179.473C271.86 180.051 271.84 180.638 271.84 181.235C271.84 181.296 271.854 181.357 271.881 181.412C271.907 181.468 271.946 181.516 271.994 181.555C277.798 186.252 285.593 188.419 293.103 188.765C295.801 188.889 298.39 188.57 300.868 187.81C302.898 187.185 303.946 185.753 304.014 183.513C304.099 180.775 304.172 178.326 304.234 176.165C304.237 176.071 304.211 175.978 304.159 175.898C304.108 175.819 304.034 175.757 303.946 175.719C299.169 173.645 294.81 171.148 290.871 168.227C290.023 167.597 289.242 166.882 288.529 166.082C288.439 165.981 288.388 165.852 288.386 165.717C288.383 165.582 288.428 165.451 288.514 165.346C288.769 165.036 289.085 164.935 289.464 165.041C294.716 166.506 300.094 167.287 305.6 167.387C312.287 167.506 318.298 165.827 323.631 162.35C330.263 158.028 332.989 150.788 334.272 143.221C334.963 139.155 335.356 134.679 335.45 129.792C335.453 129.639 335.378 129.573 335.226 129.595C334.433 129.712 333.655 129.639 332.892 129.376C332.868 129.368 332.843 129.368 332.818 129.374C332.794 129.38 332.772 129.394 332.755 129.412C332.738 129.43 332.727 129.453 332.723 129.478C332.718 129.502 332.721 129.528 332.731 129.551L333.827 131.974C333.919 132.178 333.933 132.408 333.865 132.621C333.798 132.833 333.654 133.013 333.461 133.126L324.907 138.17C324.49 138.415 324.132 138.349 323.833 137.973L323.684 137.787C323.633 137.723 323.596 137.649 323.577 137.569C323.557 137.49 323.555 137.407 323.571 137.327C323.586 137.247 323.619 137.17 323.667 137.104C323.715 137.037 323.777 136.981 323.848 136.939L332.11 132.201C332.173 132.164 332.189 132.113 332.159 132.048C330.488 128.344 328.803 124.605 327.102 120.831C326.566 119.64 326.004 118.676 325.415 117.94C324.525 116.817 322.962 117.709 322.292 118.598C321.973 119.024 321.8 119.583 321.772 120.274C321.567 125.574 318.017 131.703 311.76 130.309C307.477 129.357 305.495 124.868 305.184 120.857C305.172 120.704 305.088 120.615 304.934 120.59C299.515 119.752 294.744 118.932 290.62 118.129C289.066 117.827 287.632 117.566 286.315 117.345C286.286 117.34 286.257 117.341 286.229 117.348C286.201 117.354 286.174 117.367 286.152 117.385C286.129 117.403 286.11 117.426 286.097 117.452C286.084 117.478 286.077 117.506 286.076 117.535L285.982 119.326C285.972 119.5 285.88 119.584 285.705 119.579ZM220.895 129.733C220.845 129.569 220.836 129.402 220.868 129.231C220.995 128.572 221.381 128.141 222.024 127.938C223.647 127.425 224.728 127.208 225.267 127.287C225.641 127.342 225.788 127.186 225.708 126.819L225.155 124.288C225.082 123.956 224.882 123.833 224.552 123.92C215.062 126.432 205.077 127.765 194.597 127.919C190.822 127.974 187.084 127.789 183.384 127.365C183.067 127.331 182.809 127.436 182.609 127.681C179.134 131.97 176.088 136.617 173.472 141.623C172.5 143.486 171.474 145.386 170.394 147.324C170.341 147.418 170.369 147.463 170.476 147.458L192.701 146.603C192.845 146.598 192.924 146.522 192.936 146.376C193.186 143.274 194.401 140.82 196.583 139.013C198.463 137.457 200.511 136.664 202.728 136.635C206.705 136.578 209.813 138.194 212.053 141.485C212.125 141.587 212.216 141.609 212.326 141.552C213.792 140.779 215.247 140.629 216.69 141.102C217.005 141.206 217.318 141.304 217.629 141.396C217.695 141.416 217.766 141.41 217.827 141.38C217.888 141.349 217.935 141.296 217.958 141.232C219.579 136.871 222.625 134.558 227.096 134.293C227.26 134.286 227.326 134.202 227.294 134.04L226.598 130.435C226.581 130.348 226.531 130.27 226.458 130.218C226.385 130.167 226.295 130.144 226.206 130.157C225.074 130.32 223.979 130.542 222.922 130.822C221.882 131.094 221.206 130.731 220.895 129.733ZM222.802 150.141C223.049 150.674 223.339 151.193 223.674 151.698C223.749 151.812 223.861 151.897 223.991 151.94C225.455 152.423 226.982 152.571 228.573 152.382C228.648 152.374 228.718 152.34 228.769 152.285C228.821 152.231 228.851 152.16 228.854 152.085C229.066 146.646 228.663 141.354 227.646 136.207C227.627 136.107 227.57 136.017 227.488 135.955C227.406 135.893 227.303 135.864 227.201 135.873C223.488 136.185 220.986 137.962 219.694 141.203C219.391 141.968 219.398 142.715 219.743 143.466C220.77 145.723 221.79 147.948 222.802 150.141ZM230.885 151.357C232.668 150.038 233.854 148.498 234.445 146.737C235.885 142.436 233.907 137.649 229.538 136.218C229.509 136.21 229.478 136.208 229.448 136.215C229.418 136.221 229.391 136.235 229.368 136.255C229.345 136.274 229.328 136.3 229.319 136.328C229.309 136.356 229.308 136.386 229.314 136.415C230.229 141.354 230.614 146.262 230.469 151.141C230.46 151.495 230.598 151.567 230.885 151.357ZM208.057 154.37C209.016 153.758 209.842 152.961 210.487 152.024C211.133 151.087 211.586 150.028 211.82 148.908C212.054 147.788 212.064 146.629 211.851 145.496C211.638 144.364 211.204 143.281 210.576 142.309C209.948 141.337 209.137 140.494 208.19 139.83C207.243 139.166 206.178 138.693 205.056 138.438C203.933 138.183 202.776 138.152 201.65 138.345C200.524 138.538 199.45 138.952 198.491 139.564C197.533 140.176 196.707 140.973 196.061 141.91C195.416 142.847 194.963 143.906 194.729 145.026C194.495 146.146 194.484 147.306 194.698 148.438C194.911 149.57 195.344 150.653 195.972 151.625C196.6 152.598 197.411 153.44 198.358 154.104C199.306 154.768 200.371 155.241 201.493 155.496C202.615 155.751 203.772 155.783 204.899 155.589C206.025 155.396 207.098 154.982 208.057 154.37ZM168.894 150.186C168.757 150.29 168.607 150.3 168.445 150.215C168.266 150.121 168.14 149.984 168.067 149.803C166.938 146.963 163.976 145.41 161.002 145.681C154.681 146.254 151.487 153.152 155.063 158.322C157.281 161.522 162.061 162.626 165.7 162.161C165.827 162.144 165.948 162.165 166.063 162.224C166.387 162.388 166.639 162.633 166.818 162.96C168.916 166.792 168.542 170.839 168.273 175.05C167.361 189.236 166.363 203.101 165.281 216.648C165.274 216.732 165.294 216.816 165.338 216.889C165.382 216.962 165.449 217.019 165.528 217.053C169.355 218.676 172.961 219.768 176.345 220.331C181.472 221.186 187.023 221.189 192.375 220.42C194.587 220.103 196.664 219.783 198.606 219.461C198.724 219.441 198.786 219.373 198.793 219.257L199.512 208.571C199.514 208.533 199.505 208.495 199.488 208.462C199.47 208.428 199.443 208.401 199.411 208.382C195.236 205.991 191.388 203.468 187.864 200.814C186.902 200.086 187.023 199.672 188.227 199.573C189.11 199.502 190.041 199.699 190.946 199.685C197.432 199.569 203.716 199.187 209.928 197.555C216.907 195.719 221.433 191.311 224.107 184.892C227.167 177.555 228.465 169.505 228.715 161.555C228.8 158.916 228.87 156.388 228.925 153.969C228.926 153.946 228.921 153.924 228.912 153.902C228.903 153.881 228.889 153.862 228.872 153.847C228.854 153.831 228.834 153.82 228.811 153.812C228.789 153.805 228.765 153.803 228.742 153.806C227.245 153.999 225.915 153.978 224.751 153.743C224.581 153.708 224.535 153.767 224.612 153.921L227.058 158.864C227.393 159.538 227.26 160.107 226.662 160.57L219.402 166.16C218.996 166.475 218.615 166.446 218.261 166.075L218.149 165.963C218.098 165.909 218.058 165.844 218.033 165.774C218.008 165.704 217.998 165.629 218.003 165.555C218.009 165.481 218.03 165.408 218.066 165.343C218.101 165.278 218.15 165.22 218.209 165.175L225.461 159.544C225.584 159.45 225.61 159.335 225.54 159.199C223.149 154.493 220.752 149.516 218.351 144.265C217.725 142.895 216.664 142.251 215.168 142.332C214.4 142.377 213.688 142.581 213.033 142.946C212.986 142.971 212.949 143.012 212.928 143.061C212.907 143.11 212.903 143.165 212.917 143.217C213.208 144.321 213.541 145.451 213.59 146.603C213.837 152.334 209.259 157.675 203.17 157.255C198.651 156.943 195.503 154.782 193.725 150.773C193.4 150.037 193.209 149.164 193 148.372C192.962 148.233 192.871 148.166 192.727 148.171L169.444 149.067C169.347 149.072 169.271 149.114 169.216 149.193C169.081 149.387 169.02 149.616 169.032 149.881C169.036 149.939 169.025 149.998 169.001 150.051C168.977 150.104 168.94 150.15 168.894 150.186ZM60.6105 176.362C60.5332 175.064 59.9497 174.047 58.8601 173.311C56.2045 171.52 52.7747 172.029 50.3623 173.987C47.8787 176.009 47.2953 179.663 49.1953 182.287C50.8934 184.636 54.6224 185.595 57.465 185.52C57.6238 185.516 57.7805 185.559 57.9145 185.645C58.0486 185.73 58.1539 185.854 58.2167 186C60.4571 191.255 62.1029 197.269 60.3636 202.628C58.9049 207.114 57.2443 211.437 57.7006 216.09C57.8851 217.976 58.0721 219.761 58.2616 221.446C58.4973 223.523 58.5571 226.486 57.4089 228.154C57.379 228.197 57.3596 228.245 57.352 228.296C57.3445 228.348 57.349 228.4 57.3653 228.449C57.3816 228.498 57.4092 228.543 57.446 228.581C57.4827 228.618 57.5276 228.646 57.5772 228.664C64.0453 230.928 70.5358 231.409 77.0488 230.106C79.1558 229.684 80.9773 228.811 82.5133 227.485C82.8948 227.156 83.0831 226.86 83.0781 226.597C83.0257 223.916 82.997 221.271 82.9921 218.662C82.9923 218.612 82.9757 218.562 82.9447 218.521C82.9137 218.481 82.87 218.45 82.82 218.435C79.9724 217.531 77.2059 216.19 74.5204 214.414C73.9419 214.03 73.4058 213.592 72.9121 213.102C72.2663 212.46 72.3997 212.148 73.3123 212.165C84.8958 212.373 99.2621 210.262 103.242 197.358C104.97 191.761 105.228 185.405 105.153 179.362C105.15 179.235 105.101 179.212 105.003 179.291L100.373 183.064C100.001 183.366 99.6536 183.341 99.3294 182.989L99.2284 182.881C98.9541 182.584 98.9753 182.308 99.292 182.053L103.934 178.317C104.012 178.253 104.064 178.163 104.081 178.064C104.099 177.965 104.079 177.864 104.027 177.778L96.6738 165.502C96.4818 165.185 96.5492 164.936 96.8758 164.755L97.2311 164.558C97.5578 164.38 97.8159 164.45 98.0054 164.77L104.891 176.455C104.996 176.634 105.042 176.62 105.03 176.414C104.703 170.53 103.914 164.569 102.662 158.533C102.617 158.313 102.537 158.097 102.423 157.887C102.36 157.77 102.265 157.693 102.138 157.656C101.405 157.441 100.04 156.995 100.279 155.991C100.293 155.934 100.322 155.882 100.363 155.84C100.405 155.798 100.457 155.768 100.515 155.753C100.951 155.644 101.395 155.675 101.847 155.846C101.867 155.854 101.888 155.856 101.91 155.852C101.931 155.849 101.951 155.84 101.967 155.826C101.984 155.813 101.997 155.795 102.004 155.775C102.012 155.755 102.014 155.734 102.011 155.712L101.547 153.285C101.542 153.261 101.529 153.238 101.51 153.221C101.491 153.205 101.467 153.195 101.443 153.193C94.5082 152.698 89.3729 149.104 84.9145 143.667C84.902 143.651 84.8851 143.639 84.8659 143.633C84.8467 143.627 84.826 143.627 84.8063 143.632C84.7865 143.638 84.7686 143.649 84.7546 143.664C84.7407 143.679 84.7313 143.698 84.7275 143.719C83.5456 150.632 81.6269 157.768 78.0101 163.644C74.0454 170.081 68.3091 174.365 60.8013 176.496C60.6816 176.531 60.618 176.486 60.6105 176.362ZM305.181 186.022C303.797 189.668 298.142 190.315 294.719 190.322C286.311 190.348 276.882 187.866 270.815 182.558C270.688 182.447 270.547 182.423 270.393 182.487C263.88 185.178 257.975 188.172 252.679 191.467C252.567 191.536 252.547 191.626 252.619 191.735C255.709 196.395 260.369 199.744 265.396 202.297C272.811 206.059 280.538 208.567 288.574 209.824C296.152 211.006 303.281 210.333 310.211 206.891C316.203 203.918 321.641 199.61 325.636 194.284C325.664 194.247 325.683 194.204 325.692 194.159C325.702 194.114 325.702 194.067 325.691 194.022C325.681 193.977 325.661 193.935 325.633 193.899C325.604 193.863 325.569 193.833 325.528 193.812C322.807 192.39 320.157 191.058 317.576 189.817C313.726 187.966 309.694 186.645 305.48 185.855C305.418 185.844 305.354 185.854 305.299 185.885C305.244 185.915 305.202 185.964 305.181 186.022ZM215.179 233.287C215.299 233.166 215.297 233.047 215.172 232.93C210.522 228.552 205.424 224.616 199.878 221.122C199.664 220.986 199.408 220.936 199.16 220.981C196.026 221.551 193.02 221.988 190.142 222.293C180.919 223.264 172.217 221.884 164.035 218.153C163.873 218.078 163.691 218.054 163.516 218.086C154.023 219.758 147.021 226.292 140.382 233.046C140.332 233.095 140.33 233.148 140.375 233.205C143.262 236.947 146.621 240.056 150.451 242.534C155.99 246.113 162.083 248.979 168.352 250.607C178.976 253.372 188.988 252.125 198.386 246.864C202.779 244.406 206.776 241.454 210.377 238.007C212.035 236.419 213.636 234.846 215.179 233.287ZM41.468 242.59C45.2718 247.678 50.8186 250.395 56.9825 251.729C65.8132 253.643 75.2273 253.105 83.7999 249.93C90.4501 247.466 96.5916 243.37 101.712 238.346C101.981 238.083 101.948 237.865 101.611 237.691C95.9507 234.807 90.5773 232.084 85.4905 229.522C84.9669 229.258 84.4582 228.909 83.987 228.556C83.8523 228.454 83.7251 228.462 83.6055 228.578C79.682 232.406 72.3436 232.592 67.2494 232.254C63.5591 232.009 59.9098 231.201 56.3017 229.831C56.2384 229.805 56.1696 229.796 56.1012 229.803C56.0328 229.81 55.9669 229.834 55.909 229.871C50.7051 233.234 45.8977 237.348 41.4867 242.215C41.4402 242.265 41.413 242.33 41.4096 242.398C41.4062 242.467 41.4268 242.534 41.468 242.59ZM241.672 261.025C242.049 262.894 241.275 264.492 239.274 264.552C239.119 264.557 239.066 264.632 239.113 264.779L249.496 297.445C249.505 297.473 249.522 297.498 249.545 297.517C249.568 297.536 249.597 297.548 249.626 297.551C249.656 297.555 249.687 297.549 249.713 297.535C249.74 297.522 249.762 297.5 249.777 297.474L259.34 279.816C259.37 279.761 259.386 279.7 259.387 279.637C259.388 279.574 259.373 279.512 259.344 279.456C254.306 269.64 248.161 259.876 240.246 252.131C239.987 251.878 239.891 251.93 239.958 252.287C240.517 255.23 241.088 258.143 241.672 261.025Z" fill="#0C446A"/>
<path d="M329.983 117.216C330.01 118.25 330.681 119.071 331.483 119.05C332.284 119.03 332.911 118.174 332.884 117.14C332.857 116.106 332.185 115.284 331.384 115.305C330.583 115.326 329.955 116.181 329.983 117.216Z" fill="#0C446A"/>
<path d="M310.788 117.998C310.771 119.047 311.437 119.907 312.276 119.921C313.114 119.934 313.808 119.094 313.824 118.045C313.841 116.996 313.174 116.136 312.336 116.123C311.497 116.109 310.804 116.949 310.788 117.998Z" fill="#0C446A"/>
<path d="M201.1 130.194L195.575 131.645C194.748 131.862 194.255 132.704 194.473 133.526L194.504 133.64C194.722 134.462 195.57 134.952 196.397 134.735L201.922 133.284C202.749 133.067 203.242 132.225 203.024 131.404L202.993 131.289C202.775 130.467 201.927 129.977 201.1 130.194Z" fill="#0C446A"/>
<path d="M220.651 142.456C220.725 143.562 221.446 144.415 222.263 144.361C223.079 144.307 223.681 143.367 223.607 142.261C223.533 141.155 222.811 140.302 221.995 140.356C221.179 140.41 220.577 141.35 220.651 142.456Z" fill="#0C446A"/>
<path d="M316.334 141.76C317.01 143.039 318.047 143.968 319.446 144.548C321.772 145.511 323.964 145.311 326.021 143.945C326.448 143.663 326.813 143.726 327.117 144.135L327.196 144.239C327.435 144.559 327.403 144.85 327.098 145.112C326.517 145.615 325.864 145.978 325.139 146.201C321.241 147.406 317.99 146.441 315.384 143.306C314.975 142.816 314.671 142.249 314.471 141.608C314.448 141.537 314.443 141.461 314.456 141.387C314.469 141.313 314.5 141.244 314.546 141.184C314.771 140.894 315.082 140.756 315.481 140.771C315.618 140.776 315.727 140.833 315.807 140.942C316.009 141.205 316.184 141.478 316.334 141.76Z" fill="#0C446A"/>
<path d="M198.34 145.403C198.413 146.558 199.141 147.453 199.966 147.402C200.79 147.35 201.4 146.372 201.326 145.216C201.253 144.061 200.525 143.166 199.701 143.217C198.876 143.269 198.267 144.247 198.34 145.403Z" fill="#0C446A"/>
<path d="M87.8394 156.426C86.1076 157.021 84.6527 157.615 83.108 158.764C83.049 158.808 82.9818 158.84 82.9103 158.859C82.8388 158.877 82.7644 158.881 82.6915 158.87C82.6187 158.859 82.5488 158.834 82.4861 158.796C82.4234 158.758 82.369 158.708 82.3263 158.649L82.2253 158.511C81.946 158.129 81.9946 157.794 82.3711 157.504C83.8373 156.381 85.4868 155.577 87.3195 155.092C87.6661 154.998 87.9204 155.11 88.0825 155.43L88.1722 155.612C88.2099 155.686 88.2311 155.768 88.2345 155.851C88.2378 155.934 88.2233 156.017 88.1917 156.094C88.1602 156.171 88.1125 156.241 88.0517 156.298C87.9909 156.355 87.9185 156.399 87.8394 156.426Z" fill="#0C446A"/>
<path d="M101.027 167.031C101.208 167.908 101.831 168.521 102.418 168.401C103.004 168.282 103.333 167.474 103.152 166.597C102.971 165.721 102.349 165.107 101.762 165.227C101.175 165.346 100.846 166.154 101.027 167.031Z" fill="#0C446A"/>
<path d="M86.9173 169.016C87.0599 169.964 87.6955 170.655 88.337 170.56C88.9785 170.465 89.3829 169.619 89.2404 168.671C89.0978 167.723 88.4621 167.032 87.8206 167.127C87.1791 167.222 86.7747 168.068 86.9173 169.016Z" fill="#0C446A"/>
<path d="M81.6419 171.859C81.3657 172.271 81.3242 172.725 81.5494 172.874C81.7745 173.024 82.1809 172.811 82.4571 172.399C82.7334 171.988 82.7748 171.533 82.5496 171.384C82.3245 171.235 81.9181 171.447 81.6419 171.859Z" fill="#0C446A"/>
<path d="M84.2842 172.558C83.982 172.954 83.9171 173.41 84.1392 173.578C84.3613 173.745 84.7864 173.56 85.0886 173.165C85.3909 172.769 85.4558 172.312 85.2337 172.145C85.0115 171.977 84.5865 172.162 84.2842 172.558Z" fill="#0C446A"/>
<path d="M212.288 173.43C214.375 176.247 217.996 174.735 220.206 173.144C220.528 172.911 220.797 172.96 221.014 173.292L221.111 173.441C221.418 173.907 221.342 174.3 220.883 174.619C219.557 175.546 218.124 176.147 216.586 176.422C214.581 176.779 211.955 176.151 210.945 174.218C210.853 174.041 210.831 173.836 210.885 173.644C210.938 173.452 211.063 173.288 211.233 173.185C211.607 172.951 212.041 173.095 212.288 173.43Z" fill="#0C446A"/>
<path d="M86.6758 174.628C86.5743 174.54 86.5384 174.385 86.5762 174.198C86.6139 174.012 86.7221 173.808 86.8769 173.632C86.9536 173.545 87.0394 173.468 87.1295 173.404C87.2196 173.34 87.3121 173.292 87.4019 173.261C87.4917 173.23 87.5769 173.218 87.6526 173.225C87.7284 173.232 87.7933 173.259 87.8436 173.302C87.9451 173.391 87.9809 173.545 87.9432 173.732C87.9054 173.919 87.7973 174.122 87.6424 174.298C87.5657 174.385 87.4799 174.463 87.3898 174.526C87.2997 174.59 87.2072 174.639 87.1174 174.669C87.0277 174.7 86.9425 174.712 86.8667 174.705C86.7909 174.698 86.726 174.672 86.6758 174.628ZM87.2784 173.894C87.2958 173.981 87.3382 173.996 87.4055 173.939C87.4155 173.929 87.4205 173.918 87.4205 173.906C87.4379 173.814 87.403 173.788 87.3158 173.828C87.2858 173.84 87.2734 173.862 87.2784 173.894Z" fill="#0C446A"/>
<path d="M89.5171 174.989C89.1935 175.329 89.1161 175.779 89.3443 175.993C89.5724 176.208 90.0197 176.106 90.3433 175.766C90.6669 175.426 90.7443 174.976 90.5161 174.762C90.288 174.547 89.8407 174.649 89.5171 174.989Z" fill="#0C446A"/>
<path d="M93.7041 188.122C95.6565 189.962 97.4293 190.006 99.6136 188.49C99.9428 188.262 100.213 188.318 100.425 188.657L100.508 188.795C100.752 189.184 100.692 189.521 100.328 189.806C97.9904 191.63 94.886 191.419 92.7914 189.319C92.654 189.182 92.5754 188.997 92.5719 188.803C92.5684 188.609 92.6404 188.421 92.7727 188.278L92.8962 188.148C93.1555 187.868 93.4248 187.859 93.7041 188.122Z" fill="#0C446A"/>
</g>
<defs>
<clipPath id="clip0_3527_14714">
<rect width="383" height="342" fill="white"/>
</clipPath>
</defs>
</svg>
