<svg width="146" height="39" viewBox="0 0 146 39" fill="none" xmlns="http://www.w3.org/2000/svg">
<g id="Logo" clipPath="url(#clip0_2310_10179)">
<g id="Group">
<g id="Vector">
<path d="M22.9771 32.1101C22.9771 32.1101 21.0381 34.1901 20.4348 36.8334L22.9771 32.1101Z" fill="white"/>
<path d="M22.9771 32.1101C22.9771 32.1101 21.0381 34.1901 20.4348 36.8334" stroke="#1994E6" stroke-width="2" stroke-miterlimit="10"/>
</g>
<g id="Vector_2">
<path d="M23.2144 32.1968C23.2144 32.1968 25.1534 34.2768 25.7567 36.9201L23.2144 32.1968Z" fill="white"/>
<path d="M23.2144 32.1968C23.2144 32.1968 25.1534 34.2768 25.7567 36.9201" stroke="#1994E6" stroke-width="2" stroke-miterlimit="10"/>
</g>
<path id="Vector_3" d="M45.6858 7.25835L23.0203 2.05835L0.354845 7.25835C-0.356145 7.43168 -0.291509 9.36002 0.3333 9.53335L8.39118 11.3534L8.41273 17.4417C8.41273 17.7667 8.52045 18.0917 8.7359 18.3517C8.95135 18.6334 9.18835 18.8717 9.4038 19.0884C12.0969 21.6884 20.2841 21.4284 20.2841 21.4284H23.0419H25.7781C25.7781 21.4284 33.9653 21.6884 36.6584 19.0884C36.8739 18.8717 37.1109 18.6334 37.3263 18.3517C37.5418 18.0917 37.6279 17.7667 37.6495 17.4417L37.671 11.3534L41.5492 10.4867V18.915C40.6227 19.2834 39.9333 20.54 39.9333 22.0567V23.7467L23.2573 25.6534L3.60816 23.4C3.26344 23.3567 2.91872 23.5517 2.7679 23.855C2.27236 24.8084 1.62601 26.4767 1.62601 28.6C1.64755 30.7017 2.29391 32.3267 2.78945 33.2584C2.94026 33.54 3.24189 33.7134 3.56507 33.67L23.2573 32.1967L42.9496 33.67C43.2728 33.6917 43.5744 33.54 43.7252 33.2584C44.2207 32.3267 44.8671 30.7017 44.8886 28.6C44.8886 27.17 44.6086 25.935 44.2638 25.0034V22.035C44.2638 20.4534 43.5098 19.1317 42.4971 18.85V10.2484L45.7289 9.51168C46.3106 9.36002 46.3753 7.43168 45.6858 7.25835Z" fill="#1994E6"/>
</g>
<g id="Group_2">
<path id="Vector_4" d="M63.5899 16.1416H65.9599V17.6366C65.9599 18.1566 65.809 18.655 65.5074 19.0666C65.2058 19.4783 64.7102 19.8466 63.9346 19.8466C62.6634 19.8466 60.1858 19.8466 58.9792 19.8466C58.3113 19.8466 57.665 19.6733 57.1048 19.3266C56.6308 19.0233 56.1784 18.59 56.1784 18.005C56.1784 16.705 56.1784 11.18 56.1784 11.18C56.1784 11.18 55.9845 8.44995 58.2036 8.44995C60.4228 8.44995 63.5683 8.44995 63.5683 8.44995C65.0765 8.44995 65.9599 8.92662 65.9599 10.6166V12.0033L63.5037 11.9816L63.1159 10.8983L58.7422 10.9416L58.7853 17.29L63.3313 17.2466L63.5899 16.1416Z" fill="#1994E6"/>
<path id="Vector_5" d="M78.6069 17.2466C78.6069 17.2466 78.6069 13.2166 78.6069 10.8766C78.6069 8.53662 76.7971 8.44995 76.7971 8.44995H70.1612C67.8989 8.44995 68.0067 10.6166 68.0067 10.6166C68.0067 10.6166 68.0067 14.2566 68.0067 17.2466C68.0067 20.2366 71.0876 19.8466 71.0876 19.8466C71.0876 19.8466 73.0267 19.825 75.6767 19.8466C78.3268 19.89 78.6069 17.2466 78.6069 17.2466ZM75.6767 17.2466H71.0876V10.6166H75.6767V17.2466Z" fill="#1994E6"/>
<path id="Vector_6" d="M80.8044 8.47168H83.3468V17.2683H89.5302V19.8683L82.722 19.89C82.722 19.89 80.8044 19.9767 80.8044 17.2683C80.8044 14.56 80.8044 8.47168 80.8044 8.47168Z" fill="#1994E6"/>
<path id="Vector_7" d="M92.0078 8.44995H94.5501V17.2466H100.734V19.8466L93.9253 19.8683C93.9253 19.8683 92.0078 19.955 92.0078 17.2466C92.0078 14.5383 92.0078 8.44995 92.0078 8.44995Z" fill="#1994E6"/>
<path id="Vector_8" d="M102.35 22.9666H109.395V24.6132H104.246L104.267 26.1299H108.942V28.0582H104.267V29.6182H109.395V31.6549L103.922 31.6766C103.922 31.6766 102.35 31.2432 102.35 29.8999C102.35 28.5566 102.35 22.9666 102.35 22.9666Z" fill="#1994E6"/>
<path id="Vector_9" d="M119.543 12.7401V15.2534H122.43V17.2467H117.388V10.6601H122.236L122.71 11.6351L125.252 11.6567V10.9417C125.252 10.9417 125.058 8.47174 122.516 8.47174C119.973 8.47174 117.388 8.47174 117.388 8.47174C117.388 8.47174 114.415 8.14674 114.415 10.8767C114.415 13.6067 114.415 17.2684 114.415 17.2684C114.415 17.2684 114.415 19.8467 117.388 19.8467C120.361 19.8467 122.171 19.8684 122.171 19.8684C122.171 19.8684 125.274 20.3017 125.274 17.2684C125.274 14.2351 125.274 12.7401 125.274 12.7401H119.543Z" fill="#1994E6"/>
<path id="Vector_10" d="M127.256 8.44995H136.477V10.6166H129.712L129.755 12.61H135.874V15.1233H129.755V17.16H136.477V19.825L129.324 19.8466C129.324 19.8466 127.256 19.2833 127.256 17.5283C127.256 15.7733 127.256 8.44995 127.256 8.44995Z" fill="#1994E6"/>
<path id="Vector_11" d="M87.031 29.6184C87.031 29.6184 87.031 26.5851 87.031 24.8301C87.031 23.0751 85.4367 22.9451 85.4367 22.9451H80.7614C79.0593 22.9451 79.1455 24.5701 79.1455 24.5701C79.1455 24.5701 79.1455 27.3001 79.1455 29.5534C79.1455 31.8067 81.4508 31.5034 81.4508 31.5034C81.4508 31.5034 82.9159 31.4817 84.8981 31.5034C86.9233 31.5467 87.031 29.6184 87.031 29.6184ZM84.9196 29.5751H81.4724V24.5917H84.9196V29.5751Z" fill="#1994E6"/>
<path id="Vector_12" d="M130.337 22.9666H132.297V29.7482H137.059V31.7416L131.823 31.7632C131.823 31.7632 130.358 31.8282 130.358 29.7482C130.358 27.6682 130.337 22.9666 130.337 22.9666Z" fill="#1994E6"/>
<path id="Vector_13" d="M102.781 8.44995H112.002V10.6166H105.237L105.28 12.61H111.399V15.1233H105.28V17.16H112.002V19.825L104.849 19.8683C104.849 19.8683 102.781 19.305 102.781 17.55C102.781 15.795 102.781 8.44995 102.781 8.44995Z" fill="#1994E6"/>
<path id="Vector_14" d="M77.7451 22.9666V24.5916H72.6174V26.4766H77.2281V28.0366H72.6174V31.5466H70.6353V24.2016C70.6353 24.2016 70.6783 22.9666 72.4235 22.9666C74.1687 22.9666 77.7451 22.9666 77.7451 22.9666Z" fill="#1994E6"/>
<path id="Vector_15" d="M93.0205 22.9666V31.5249H95.0888V26.8666L98.1482 31.5249H100.152V22.9666H98.1913V27.6249L94.9811 22.9666H93.0205Z" fill="#1994E6"/>
<path id="Vector_16" d="M59.7548 22.9667V24.5917H58.7638V30.0733H59.7548V31.525H55.7905V30.0733H56.7385V24.5917H55.7905V22.9233L59.7548 22.9667Z" fill="#1994E6"/>
<path id="Vector_17" d="M61.2629 23.0317V31.5901H63.3313V26.9317L66.4122 31.5901H68.3944V23.0317H66.4338V27.6901L63.2235 23.0317H61.2629Z" fill="#1994E6"/>
<path id="Vector_18" d="M116.591 22.9666H111.398V31.6766H113.445L113.467 29.1199C113.467 29.1199 115.729 29.1416 117.28 29.1199C118.508 29.0982 118.508 27.1916 118.508 27.1916C118.508 27.1916 118.508 25.7399 118.508 24.4616C118.508 23.8116 118.121 23.4432 117.711 23.2482C117.366 23.0316 116.979 22.9666 116.591 22.9666ZM116.569 27.0182H113.424V24.5699H116.569V27.0182Z" fill="#1994E6"/>
<path id="Vector_19" d="M126.265 22.9666C124.563 22.9666 122.214 22.9666 122.214 22.9666C122.214 22.9666 120.577 23.0316 120.577 24.3099V31.5466H122.731V29.1199H126.028V31.5466H128.247V24.3099C128.247 24.3099 127.967 22.9666 126.265 22.9666ZM126.028 27.0182H122.774V24.5699H126.028V27.0182Z" fill="#1994E6"/>
</g>
</g>
<defs>
<clipPath id="clip0_2310_10179">
<rect width="146" height="39" fill="white"/>
</clipPath>
</defs>
</svg>
