<svg width="97" height="51" viewBox="0 0 97 51" fill="none" xmlns="http://www.w3.org/2000/svg">
<path opacity="0.8" d="M3.52791 8.15257C3.52791 8.15257 13.5116 1.7485 24.1948 4.47566C35.0534 7.24762 46.6227 19.1326 40.9581 28.7789C37.911 33.968 33.3442 36.3364 27.85 33.8542C22.3743 31.3804 20.4946 26.0874 21.7996 20.2334C24.5937 7.70005 43.2941 5.44414 55.0524 10.6629C66.8343 15.8921 77.9814 31.4939 70.4771 41.9457C66.9672 46.834 61.8144 49.1959 56.3822 46.5808C51.0575 44.0175 48.9544 38.6957 50.3318 32.96C53.2706 20.7229 71.7748 16.8393 82.7623 23.0227C89.9365 27.0601 93.4263 32.8451 93.6443 41.0619" stroke="#67C1FE" stroke-width="6" stroke-linecap="round"/>
</svg>
