<svg width="156" height="251" viewBox="0 0 156 251" fill="none" xmlns="http://www.w3.org/2000/svg">
<path d="M138.619 1.19337C138.93 0.7426 139.223 0.216266 139.757 0C140.04 0.0990134 140.284 0.286618 140.481 0.518518C145.089 6.20918 149.553 12.0223 154.145 17.7312C154.672 18.4113 155.301 19.0314 155.663 19.8261C155.666 20.6443 154.666 20.7068 154.101 20.9439C148.184 22.9737 142.261 24.9879 136.349 27.0254C135.874 27.1635 135.596 26.6085 135.411 26.2646C134.063 23.4167 132.797 20.5296 131.431 17.6921C130.586 19.4561 129.589 21.1394 128.713 22.8877C128.441 23.4141 128.174 23.9795 127.681 24.3312C127.352 24.214 127.09 23.9769 126.82 23.7736C128.117 21.241 129.509 18.7474 130.752 16.1913C130.496 15.5738 130.069 15.0266 129.941 14.3622C130.478 13.2808 131.233 12.3324 131.88 11.3188C134.104 7.92889 136.398 4.58588 138.619 1.19337ZM134.898 9.0936C136.893 11.225 138.971 13.273 140.975 15.3992C142.87 13.7212 144.755 12.0275 146.715 10.4251C144.462 7.47551 142.092 4.61715 139.819 1.68323C138.211 4.1742 136.495 6.59221 134.898 9.0936ZM131.51 14.1355C131.133 14.6436 131.734 15.1464 131.883 15.6233C133.362 18.8542 134.88 22.067 136.375 25.2901C136.485 25.8164 137.001 25.4386 137.309 25.3735C142.86 23.3958 148.448 21.5302 154.035 19.6542C151.805 16.9235 149.704 14.0807 147.429 11.3944C145.287 13.2756 143.206 15.2429 140.941 16.9678C140.279 16.5561 139.775 15.9542 139.238 15.3966C137.541 13.6847 135.894 11.9233 134.197 10.2114C133.277 11.5012 132.363 12.7988 131.51 14.1355Z" fill="#1F2937"/>
<path d="M100.97 29.6858C105.783 29.3106 110.835 29.3314 115.345 31.3013C117.81 32.3748 119.96 34.0241 122.2 35.4911C122.901 35.9731 123.674 36.3848 124.239 37.044C124.147 37.4792 123.653 38.1097 123.212 37.6824C121.262 36.4187 119.316 35.0638 117.066 34.4071C119.716 36.0904 122.539 37.7111 124.406 40.3375C127.627 44.4388 128.472 49.8845 128.377 54.9889C128.295 55.9347 128.397 56.9796 127.889 57.8212C127.226 58.6811 126.032 58.4179 125.097 58.4778C125.456 63.5197 125.734 68.5668 126.104 73.6086C126.278 76.6077 126.635 79.6276 126.232 82.6241C125.726 87.1161 123.833 91.5222 120.587 94.6672C117.148 98.1118 112.491 100.11 107.748 100.796C107.794 101.838 107.781 102.883 107.717 103.925C117.073 105.311 125.921 110.546 131.407 118.412C134.23 122.313 136.151 126.771 137.851 131.263C139.087 131.193 140.322 130.987 141.563 131.052C141.822 131.247 142.012 131.544 142.028 131.881C142.266 136.92 142.51 141.962 142.731 147.004C142.844 149.265 142.806 151.545 143.191 153.783C144.021 158.395 144.812 163.012 145.651 167.622C145.68 168.078 146.026 168.383 146.324 168.685C148.174 170.428 148.731 173.081 149.042 175.517C149.204 177.304 149.971 179.011 149.802 180.83C149.758 182.638 148.854 184.269 148.71 186.059C148.338 189.329 147.668 192.597 146.363 195.624C145.551 197.44 144.465 199.262 142.749 200.325C141.542 201.096 139.934 201.109 138.714 200.364C136.788 199.191 135.72 197.107 134.744 195.14C133.323 195.359 131.903 195.59 130.478 195.752C131.135 209.976 131.89 224.198 132.586 238.419C132.745 241.924 133.033 245.428 133.015 248.938C131.934 249.204 130.824 248.969 129.73 249.016C113.629 249.084 97.523 248.959 81.4219 249.073C81.4528 249.516 81.4887 249.962 81.5247 250.413H80.3124C77.7312 230.782 75.4531 211.104 72.7717 191.492C70.3138 190.338 68.028 188.85 65.9014 187.151C65.7216 187.745 65.4878 188.321 65.213 188.878C65.3183 189.415 65.6419 190.017 65.3209 190.543C64.8637 191.356 63.8441 191.51 63.2457 192.18C62.7705 192.724 61.9974 192.547 61.3656 192.62C61.3451 193.597 61.1807 194.613 61.5197 195.559C61.6379 195.929 61.7432 196.312 61.7637 196.711C61.8844 197.159 61.9332 197.618 62.018 198.079C61.4375 198.47 60.798 198.751 60.1302 198.954C60.31 200.041 60.4924 201.169 60.1636 202.25C51.7574 202.407 43.3512 202.628 34.9449 202.813C34.5057 202.826 33.8611 202.779 33.8636 202.193C33.6967 200.546 33.8046 198.855 34.2438 197.258C30.1832 196.448 26.156 195.408 22.3112 193.832C19.5245 212.691 16.6505 231.543 13.928 250.413H12.6002C13.7739 243.054 14.7345 235.662 15.8826 228.299C17.6239 216.62 19.3755 204.945 21.122 193.269C16.8842 191.307 13.0574 188.256 10.5635 184.225C8.41377 180.814 7.34533 176.775 7.16554 172.752C6.86504 166.15 8.20316 159.591 10.1397 153.322C11.768 148.262 13.9691 143.366 16.8406 138.905C14.3903 138.514 11.9504 138.04 9.57724 137.295C6.7469 136.409 3.83181 135.174 1.89013 132.808C0.0383469 130.528 -0.221059 127.381 0.138511 124.556C0.837105 119.097 2.68119 113.891 3.98078 108.568C5.6759 101.932 6.72378 95.1466 7.57905 88.3538C8.24168 81.2222 10.7869 74.2809 15.0299 68.5433C14.7807 68.1629 14.3749 67.7903 14.5265 67.2874C15.2122 62.2612 15.9622 57.2454 16.6762 52.2243C13.3733 51.5782 10.0755 50.9085 6.78029 50.2337C5.27266 49.8871 3.72908 49.7125 2.24457 49.2618C2.24713 48.9361 2.25484 48.6104 2.26511 48.2873C12.2843 45.4237 22.3471 42.7034 32.3868 39.9206C41.7459 41.4319 51.0716 43.2141 60.4205 44.8062C61.0163 44.8192 61.2372 45.3533 61.3143 45.8745C59.8811 46.4738 58.3606 46.8099 56.8967 47.3102C55.2683 47.8573 53.6272 48.368 51.9731 48.824C53.3678 54.3662 54.7239 59.9161 56.1159 65.4583C55.9798 65.6537 55.8462 65.8517 55.7127 66.0497C59.2056 68.2541 62.1978 71.4512 63.6001 75.4273C65.1026 79.3045 64.9921 83.5282 65.6265 87.5825C66.9056 96.3504 68.3773 105.087 69.9568 113.803C74.2562 108.907 80.0659 105.301 86.402 103.915C86.3994 97.4318 86.4405 90.9464 86.3994 84.4688C85.4697 83.4448 84.4629 82.4443 84.0083 81.0867C80.8107 81.5584 77.2818 80.1096 75.7253 77.1497C74.6338 75.2059 74.8701 72.741 76.0258 70.8832C75.7818 67.6782 75.9488 64.4395 75.3503 61.271C74.8213 57.9332 73.6706 54.7283 73.2751 51.3671C72.9027 47.9147 73.4831 44.2538 75.3889 41.3172C77.2792 38.3547 80.4819 36.1764 84.0109 35.9888C82.9398 34.8605 81.4964 34.2951 80.0402 33.8912C79.2722 33.7141 79.7166 32.6041 80.3946 32.7448C82.0024 32.9584 83.451 33.8053 84.7223 34.7954C85.575 32.2445 87.6913 29.9333 90.4574 29.7144C91.0148 29.7275 91.0584 30.4206 91.3127 30.788C90.311 31.0589 89.2606 31.2465 88.3848 31.8406C87.1879 32.6197 86.4225 33.9147 86.0142 35.2696C86.9824 34.3576 88.0046 33.49 89.1887 32.8724C92.8023 30.9026 96.9169 30.0792 100.97 29.6858ZM30.7996 41.6664C26.4257 42.8441 22.0697 44.0844 17.7061 45.2908C13.589 46.3565 9.53614 47.6828 5.38567 48.6077C5.69901 48.7094 6.01749 48.8058 6.3411 48.8892C14.6035 50.5203 22.8608 52.1931 31.1309 53.7903C31.5624 53.7643 31.9708 53.5845 32.3843 53.4594C36.9662 52.0107 41.6098 50.7339 46.1635 49.1992C45.8399 48.4228 45.1285 47.8964 44.286 47.9147C39.812 47.6906 35.325 47.8365 30.851 47.7349C30.1292 47.7427 30.1395 46.5832 30.8561 46.5754C34.7882 46.5389 38.7255 46.591 42.6603 46.604C43.9059 46.6223 45.2697 46.5728 46.3356 47.3388C46.8929 47.7062 47.1575 48.3446 47.3655 48.9543C50.8842 47.9068 54.372 46.7552 57.8958 45.7233C56.4832 45.3455 55.0244 45.1866 53.5912 44.9156C46.803 43.6519 39.9943 42.521 33.1959 41.3172C32.3766 41.0671 31.5829 41.4736 30.7996 41.6664ZM47.2679 50.2832C47.3116 52.6412 47.4991 55.0124 48.005 57.3209C48.7678 57.3574 49.6051 57.2428 50.2934 57.6544C50.897 58.2303 50.766 59.1631 50.8405 59.9239C50.8302 60.6691 51.0254 61.4717 50.7275 62.1804C50.5451 62.6911 49.9107 62.5738 49.5024 62.725C50.1059 64.0069 50.6042 65.341 50.9895 66.709C52.2634 66.1878 53.5373 65.6745 54.8292 65.2003C54.0484 62.6937 53.491 60.1246 52.8592 57.5789C52.1427 54.7961 51.4389 52.0107 50.7634 49.2175C49.6154 49.6265 48.4134 49.8949 47.2679 50.2832ZM31.8346 54.9472C31.3492 55.14 30.833 55.0514 30.345 54.942C26.2048 54.0352 22.0158 53.3708 17.8833 52.425C17.1744 57.4199 16.4784 62.4201 15.7747 67.4151C21.6999 69.2989 27.7124 70.9014 33.6941 72.595C34.3054 72.7227 34.9501 73.0562 35.5767 72.8139C39.2931 71.4538 42.9916 70.0468 46.69 68.6397C46.4049 66.7038 46.5154 64.6792 47.2294 62.8448C46.6952 62.837 46.0505 62.8448 45.7705 62.2898C45.3904 61.1251 45.4341 59.864 45.4238 58.6498C45.3776 58.2068 45.7038 57.8994 45.9529 57.5867C46.2508 57.5606 46.5488 57.532 46.8467 57.5033C46.2739 55.2573 46.1661 52.9305 45.9812 50.6271C41.2785 52.1097 36.5424 53.4776 31.8346 54.9472ZM87.8891 57.8994C87.8223 61.3857 87.6939 64.9189 86.7436 68.2906C86.4688 69.2286 86.3917 70.2135 86.4482 71.1906C84.6016 70.0181 82.3671 69.3224 80.184 69.7237C78.8818 69.9165 77.6516 70.6695 76.9607 71.816C75.9899 73.3272 76.0515 75.4065 77.0326 76.8969C77.9983 78.4499 79.6678 79.4426 81.4168 79.8074C83.3533 80.206 85.3798 79.8204 87.1494 78.971C87.3317 80.6203 87.6143 82.2619 87.7247 83.9216C87.6862 90.4357 87.6913 96.9523 87.699 103.466C87.6656 104.146 88.2178 104.649 88.3873 105.28C88.8779 106.723 90.0696 107.786 91.3435 108.526C94.1816 110.137 97.5718 110.434 100.759 110.092C102.968 109.702 105.549 109.295 106.823 107.172C106.659 106.903 106.294 106.703 106.361 106.343C106.448 104.558 106.517 102.771 106.497 100.983C105.616 101.054 104.727 101.207 103.849 101.069C103.31 100.856 103.458 99.9019 104.036 99.8837C109.394 99.6622 114.924 98.0988 118.982 94.3962C122.295 91.4936 124.378 87.2855 124.93 82.9029C125.343 80.1201 125.123 77.2956 124.889 74.5076C124.576 69.1374 124.149 63.7776 123.828 58.4101C119.716 58.2303 115.602 58.2329 111.49 58.186C103.623 58.1026 95.756 58.0192 87.8891 57.8994ZM46.6566 59.666C47.6429 59.6451 48.6214 59.5487 49.6 59.4211C49.582 59.2282 49.5435 58.84 49.5255 58.6472C48.5598 58.6029 47.5941 58.6368 46.631 58.6732C46.631 59.0042 46.6387 59.3351 46.6566 59.666ZM46.7645 60.7291C46.7696 60.961 46.7773 61.4196 46.7799 61.6515C47.7174 61.602 48.6497 61.4951 49.5897 61.4769C49.5897 61.2606 49.5897 60.8281 49.5897 60.6118C48.6471 60.6014 47.7071 60.6796 46.7645 60.7291ZM47.7559 67.746C47.8638 69.2468 48.2721 70.8102 49.356 71.8993C49.6154 71.6622 49.8748 71.4251 50.1265 71.175C50.5092 71.1854 51.4132 71.4642 51.4286 70.8806C50.9792 70.1145 50.3653 69.4266 50.147 68.5381C49.6539 66.7819 49.3611 64.9371 48.4288 63.3399C47.7585 64.6974 47.6377 66.253 47.7559 67.746ZM45.5779 76.7588C44.9101 78.6609 43.6414 80.2582 42.3264 81.7434C41.9206 82.301 41.1886 82.3192 40.5876 82.512C36.9868 83.4136 33.5914 84.9509 30.1601 86.3371C31.8321 83.2911 33.6659 80.1331 33.9561 76.5868C33.7121 76.4983 33.4707 76.4123 33.2267 76.3315C32.8594 77.2851 32.6848 78.2987 32.3509 79.2628C31.2799 82.4729 29.5308 85.4095 27.4761 88.0672C27.1936 88.4294 26.8443 88.7316 26.495 89.0287C26.6311 91.6968 26.3666 94.3545 25.7451 96.9497C24.7306 95.9127 23.3077 95.243 21.8489 95.389C19.6503 95.475 17.7189 97.3406 17.4595 99.5449C17.3285 100.73 17.5879 101.96 18.23 102.969C19.3524 104.866 21.8437 105.785 23.9035 105.025C25.0619 104.722 25.8632 103.774 26.5335 102.831C27.6045 107.385 30.0804 111.679 33.8405 114.467C38.4482 117.904 44.4299 119.314 50.07 118.441C53.4345 117.865 56.7811 116.502 59.1928 113.985C62.3211 110.885 63.6746 106.226 63.1121 101.869C62.3313 96.3087 61.6096 90.7405 60.816 85.1828C60.6773 84.4167 60.8468 83.6533 61.0394 82.9159C59.9505 82.6006 58.8127 82.5459 57.7186 82.2619C59.049 81.0164 60.7081 80.0784 61.6867 78.4863C61.548 78.3482 61.2706 78.072 61.1319 77.9339C59.4342 79.4218 57.811 81.0867 55.7358 82.0326C54.128 82.314 52.4842 81.8867 50.8764 81.7303C52.7282 80.6177 54.7136 79.3071 55.407 77.1132C55.687 76.678 55.2016 76.0449 54.7393 76.3549C54.2307 77.0689 53.9405 77.9339 53.3446 78.588C52.1118 79.9611 50.3962 80.8314 48.6137 81.191C47.0136 81.4619 45.3956 81.5922 43.7826 81.7486C45.2492 79.8387 46.6746 77.7542 47.0008 75.2919C46.8595 75.1485 46.5796 74.8593 46.4409 74.7134C45.8707 75.245 45.8348 76.0657 45.5779 76.7588ZM36.3421 117.487C36.4603 119.332 36.4808 121.182 36.6375 123.024C36.7248 124.131 37.354 125.077 37.9396 125.981C38.9772 127.566 40.2794 129.004 41.8872 130.005C43.1508 130.804 44.9564 130.919 46.1199 129.866C47.2602 128.869 47.9639 127.443 48.4057 126.005C49.0401 124.035 48.6445 121.951 48.5726 119.931C44.3836 120.137 40.1022 119.415 36.3421 117.487ZM45.881 131.521C44.3194 132.378 42.4445 131.823 41.014 130.953C38.741 129.546 37.0998 127.323 35.8156 124.999C34.891 125.906 33.8405 126.651 32.7747 127.373C34.2335 129.619 36.039 131.649 38.1682 133.262C39.5037 134.187 40.9703 135.218 42.65 135.216C43.5489 134.723 43.6979 133.507 44.3297 132.74C45.1901 133.319 45.9221 134.202 46.9879 134.385C48.1566 134.583 49.2224 133.85 50.0058 133.048C51.9038 131.154 52.8079 128.517 53.4448 125.958C52.3378 125.416 51.1924 124.965 50.0571 124.491C49.6719 127.232 48.5084 130.273 45.881 131.521ZM54.5749 126.633C53.8532 130.02 52.2351 133.579 49.094 135.281C47.8894 135.987 46.464 135.719 45.244 135.211C45.9144 139.804 46.2585 144.442 46.857 149.046C49.4921 148.861 52.1247 148.606 54.7572 148.374C55.3171 148.27 55.5765 148.872 55.5971 149.338C55.7024 150.584 55.8026 151.863 55.5714 153.101C55.3223 154.041 54.2795 154.331 53.432 154.338C53.432 154.482 53.432 154.768 53.432 154.912C53.7941 155.149 54.39 155.295 54.4259 155.829C54.4978 156.952 54.39 158.101 54.1254 159.198C53.9456 159.948 53.2188 160.337 52.6717 160.795C53.414 161.621 53.6914 162.885 53.2239 163.922C53.4782 164.023 53.735 164.128 53.9944 164.235C54.5081 165.527 54.241 166.965 54.1948 168.318C52.7976 169.816 51.1487 171.111 49.3226 172.033C49.2558 173.286 49.3842 174.555 49.1942 175.801C49.0504 176.689 47.9511 176.567 47.2885 176.619C40.4772 176.661 33.6659 176.77 26.8572 176.786C26.834 177.435 26.8084 178.089 26.7801 178.74C32.8414 178.508 38.9028 178.24 44.9641 178.026C46.6515 178.362 48.398 177.802 49.8157 176.874C51.2103 175.949 51.6213 174.211 52.5587 172.914C53.1674 172.023 54.6083 172.367 55.0603 173.253C55.7358 174.55 55.425 176.072 55.2683 177.458C55.9515 177.911 56.8017 177.964 57.5696 178.201C58.6894 178.461 59.7065 179.011 60.7441 179.49C58.8486 175.822 58.1115 171.671 57.6595 167.593C56.9506 160.686 57.2922 153.713 58.1064 146.834C58.8923 140.417 60.1765 134.038 62.2954 127.928C61.1447 127.68 59.9813 127.48 58.8127 127.347C57.3924 127.151 55.9233 127.185 54.5749 126.633ZM23.1767 133.212C19.8378 136.459 17.1898 140.383 15.112 144.562C12.5386 149.575 10.7484 154.977 9.57724 160.493C8.5653 165.394 7.97458 170.472 8.72197 175.454C9.41543 180.233 11.7449 184.777 15.3458 187.961C19.2266 191.471 24.1835 193.441 29.1558 194.759C34.9167 196.255 40.8496 196.979 46.7825 197.297C46.0274 191.325 45.4341 185.332 44.6507 179.36C38.5946 179.61 32.5332 179.754 26.4822 180.079C25.9968 180.181 25.4548 179.84 25.4779 179.308C25.5165 178.099 25.6243 176.89 25.7579 175.689C26.1046 175.587 26.4539 175.493 26.8058 175.407C26.9779 174.506 27.0292 173.589 27.1448 172.682C25.2648 171.713 24.7537 168.985 25.9685 167.288C26.2998 166.585 27.114 166.499 27.7843 166.387C27.6277 165.8 27.507 165.204 27.3939 164.61C26.495 164.633 25.5113 164.677 24.7408 164.128C23.8291 163.534 23.6185 162.353 23.4952 161.345C22.8711 161.327 22.116 161.178 21.8617 160.514C21.2812 159.047 22.1802 157.413 23.4104 156.616C23.9575 156.329 23.6082 155.553 24.0037 155.154C24.4301 154.68 25.1081 154.675 25.6783 154.521C25.5242 153.481 25.3958 152.431 25.4317 151.381C25.3726 150.964 25.8221 150.73 26.1637 150.704C32.6462 150.253 39.1211 149.667 45.5985 149.138C45.1156 144.758 44.5634 140.383 44.1294 135.995C42.5498 137.019 40.6441 136.25 39.1596 135.427C36.1238 133.684 33.6248 131.07 31.7036 128.139C28.4239 128.895 25.5832 130.896 23.1767 133.212ZM111.477 134.283C111.716 136.138 112.006 137.986 112.322 139.83C113.2 144.979 113.96 150.151 114.883 155.292C114.931 155.378 115.031 155.553 115.08 155.639C123.98 155.362 132.876 154.956 141.773 154.607C141.465 147.217 141.201 139.823 140.748 132.441C130.986 132.946 121.237 133.723 111.477 134.283ZM104.75 134.82C104.743 135.747 104.848 136.672 104.907 137.6C105.446 143.95 105.868 150.308 106.35 156.66C106.903 158.437 106.802 160.347 106.892 162.192C108.004 162.153 109.117 162.223 110.224 162.348C109.867 153.072 109.687 143.791 109.412 134.512C107.858 134.653 106.297 134.661 104.75 134.82ZM110.863 139.247C111.033 147.017 111.197 154.789 111.515 162.554C113.221 163.312 114.936 164.208 116.174 165.665C116.945 166.527 117.638 167.637 117.438 168.857C117.364 169.727 116.626 170.285 115.954 170.709C116.452 172.119 117.186 173.539 117.027 175.082C116.971 175.85 116.39 176.533 115.622 176.616C114.651 176.682 113.773 176.147 112.982 175.645C112.82 176.46 112.124 177.122 112.204 177.984C112.407 183.242 112.635 188.501 112.866 193.759C121.17 192.516 129.453 191.161 137.749 189.879C137.43 188.097 137.176 186.132 135.892 184.762C134.584 183.297 133.033 181.89 132.455 179.941C132.093 178.915 132.607 177.758 133.467 177.174C133.133 176.52 132.717 175.837 132.802 175.071C132.858 174.178 133.485 173.445 134.256 173.065C133.544 172.028 133.454 170.363 134.554 169.56C135.188 168.987 136.072 169.063 136.842 169.229C136.899 168.271 137.517 167.338 138.478 167.137C139.873 166.739 141.17 167.598 142.305 168.304C142.184 164.198 141.981 160.092 141.802 155.988C132.527 156.144 123.268 156.835 113.994 156.939C113.832 156.501 113.668 156.063 113.598 155.602C113.064 151.944 112.389 148.306 111.803 144.656C111.474 142.855 111.274 141.032 110.863 139.247ZM26.7339 151.957C26.7467 152.783 26.7775 153.609 26.8238 154.435C30.72 154.247 34.6187 154.078 38.5175 153.911C43.7441 153.596 48.9938 153.552 54.1896 152.871C54.6006 151.902 54.2872 150.779 54.372 149.75C45.1567 150.44 35.9543 151.311 26.7339 151.957ZM49.8748 154.703C49.8645 155.373 49.8491 156.045 49.8542 156.717C50.7455 156.066 51.7754 155.493 52.2839 154.456C51.4723 154.45 50.6684 154.552 49.8748 154.703ZM29.3074 155.633C27.8948 155.74 26.4565 155.691 25.0721 156.053C25.0259 156.751 25.0542 157.463 25.2571 158.14C25.3264 158.604 25.9043 158.429 26.2228 158.492C29.9032 158.463 33.5785 158.27 37.2564 158.171C41.0114 157.994 44.7817 158.02 48.5238 157.684C48.6086 156.723 48.5983 155.753 48.6394 154.792C42.1928 155.013 35.7539 155.401 29.3074 155.633ZM50.7403 157.778C49.9775 158.288 49.3329 159.169 48.3209 159.091C41.7305 159.354 35.1324 159.524 28.542 159.774C27.4299 159.808 26.3101 159.782 25.2237 160.045C24.7383 160.91 24.6458 162.194 25.4009 162.929C25.9171 163.343 26.6337 163.252 27.2527 163.281C34.1051 163.098 40.9574 162.882 47.8124 162.728C48.6728 162.788 49.3303 162.16 49.9262 161.621C50.9021 160.704 51.9603 159.862 52.8181 158.828C53.2727 158.033 53.1135 157.056 53.17 156.181C52.3353 156.673 51.5494 157.246 50.7403 157.778ZM23.0586 160.071C23.4233 159.86 23.8188 159.688 24.1141 159.378C24.3479 158.875 23.9934 158.377 23.734 157.971C23.1664 158.52 22.6168 159.263 23.0586 160.071ZM100.42 163.422C101.948 163.062 103.492 162.799 105.03 162.486C105.074 162.426 105.164 162.306 105.208 162.249C105.39 160.98 105.387 159.688 105.392 158.408C103.854 160.191 102.28 161.97 100.42 163.422ZM50.8379 162.937C50.8944 163.567 50.9201 164.206 51.0434 164.831C51.8396 164.201 52.2274 163.208 52.3147 162.21C51.7882 162.377 51.3079 162.648 50.8379 162.937ZM46.7851 164.05C40.7777 164.169 34.7728 164.422 28.7654 164.519C28.8091 165.094 28.8785 165.673 28.9555 166.251C35.1478 166.111 41.3427 165.957 47.5324 165.754C48.2619 165.733 48.9913 165.67 49.7078 165.519C49.7181 164.842 49.7721 164.169 49.8671 163.505C48.9605 164.115 47.8175 163.945 46.7851 164.05ZM102.465 164.281C99.082 165.001 95.6892 165.675 92.2964 166.342C92.5121 170.256 92.7433 174.17 92.9565 178.083C95.5479 177.7 98.1291 177.242 100.715 176.822C101.984 176.64 103.253 176.215 104.545 176.371C105.757 176.549 105.855 178.339 107.124 178.406C108.577 178.318 108.837 176.411 108.195 175.374C107.342 174.021 105.572 173.547 104.088 173.875C103.559 173.995 103.073 174.31 102.529 174.318C101.992 174.271 101.704 173.5 102.236 173.216C104.07 172.064 106.671 172.163 108.336 173.599C109.335 174.454 109.723 175.772 110.069 177.002C111.169 176.968 111.826 175.861 111.785 174.834C111.921 173.25 110.84 171.869 109.545 171.126C108.361 170.384 106.926 170.394 105.611 170.076C105.136 169.712 105.464 168.865 106.06 168.886C107.416 168.891 108.783 169.222 109.995 169.844C111.441 170.59 112.476 171.963 113.105 173.451C113.56 174.467 114.621 175.671 115.83 175.147C115.517 172.197 113.894 169.284 111.351 167.755C109.913 166.861 108.2 166.965 106.589 167.056C105.939 167.093 105.865 166.038 106.471 165.889C107.596 165.529 108.831 165.644 109.985 165.819C112.129 166.241 113.801 167.776 115.232 169.349C116.208 169.555 116.344 168.164 115.902 167.544C114.71 165.532 112.527 164.248 110.308 163.737C107.696 163.125 105.035 163.781 102.465 164.281ZM50.3114 166.746C50.3371 167.825 50.3011 168.904 50.2986 169.982C51.1436 169.203 52.1041 168.549 52.8695 167.687C53.152 166.91 53.0108 166.053 53.0185 165.245C52.0913 165.701 51.3079 166.423 50.3114 166.746ZM28.7757 167.627C28.0489 167.718 26.906 167.674 26.7287 168.612C26.4693 169.586 26.626 171.384 28.0078 171.186C35.0143 171.033 42.0233 170.868 49.0324 170.715C49.0144 169.511 49.0272 168.31 49.0426 167.109C42.2879 167.223 35.5305 167.416 28.7757 167.627ZM138.07 169.146C138.178 169.683 138.696 169.975 139.064 170.326C140.831 171.739 142.392 173.404 143.741 175.228C144.439 176.197 145.194 177.151 145.623 178.287C145.266 178.727 144.457 179.139 144.175 178.391C143.06 176.398 141.619 174.607 140.006 173.01C138.966 172.033 137.872 171.048 136.539 170.509C136.056 170.285 135.566 170.574 135.111 170.717C135.049 171.048 134.831 171.426 135.085 171.733C135.709 172.737 136.701 173.417 137.61 174.133C139.69 175.678 141.362 177.719 142.788 179.881C143.486 180.585 142.179 181.512 141.701 180.736C140.058 178.36 138.226 175.988 135.707 174.519C135.191 174.17 134.605 174.508 134.086 174.66C133.909 175.983 135.06 176.885 135.938 177.656C137.425 178.826 138.804 180.131 140.073 181.546C140.302 181.794 140.489 182.086 140.582 182.422C140.417 182.753 140.132 183.024 139.742 182.953C139.246 182.693 138.884 182.25 138.496 181.856C137.245 180.494 135.897 179.183 134.289 178.255C133.77 178.534 133.418 179.089 133.727 179.675C134.569 181.765 136.428 183.18 137.674 185.006C138.897 186.867 138.573 189.334 139.878 191.158C140.358 191.992 141.357 192.563 142.31 192.237C143.707 191.716 144.645 190.431 145.39 189.183C146.599 187.062 147.632 184.811 148.24 182.435C148.893 180.082 148.348 177.531 147.028 175.522C145.354 172.966 143.24 170.681 140.774 168.899C140.001 168.281 138.522 168.028 138.07 169.146ZM28.4187 172.489C28.3519 173.487 28.2055 174.48 28.1542 175.48C30.8484 175.514 33.5452 175.402 36.2419 175.394C40.1715 175.29 44.1037 175.397 48.0333 175.246C48.0384 174.185 48.0358 173.125 48.0487 172.067C41.5045 172.202 34.9603 172.286 28.4187 172.489ZM51.3002 177.369C49.8876 178.784 47.8586 179.196 45.9735 179.524C46.369 182.846 46.7183 186.176 47.1446 189.496C49.1685 189.097 51.2694 188.803 53.3138 189.233C55.2812 189.704 57.0611 190.702 58.9257 191.463C59.8657 191.758 60.852 191.515 61.8074 191.458C61.3887 190.635 60.5438 190.207 59.7784 189.783C58.1603 188.985 56.4652 188.344 54.7264 187.878C54.1896 187.701 53.5681 187.583 53.2085 187.099C53.2779 186.81 53.3601 186.526 53.4576 186.252C56.9326 186.786 60.2998 188.204 63.107 190.356C63.5128 190.726 64.2294 190.254 64.0008 189.723C63.5153 188.477 62.4058 187.568 61.2501 186.984C59.3418 185.931 57.1432 185.733 55.1451 184.949C55.1322 184.532 55.2118 183.907 55.764 183.964C58.8563 184.238 61.8074 185.486 64.3321 187.294C64.2216 186.836 64.0342 186.395 63.7208 186.049C62.3699 184.543 60.5001 183.623 58.5738 183.146C57.3744 182.773 56.1005 182.776 54.9088 182.393C54.9345 181.929 54.8523 181.207 55.5175 181.254C58.0242 181.366 60.5335 182.013 62.7628 183.188C61.0703 180.832 58.281 179.582 55.52 179.092C54.5877 178.998 53.7941 178.141 53.9585 177.161C53.9559 176.007 54.6417 174.639 53.735 173.677C52.8798 174.878 52.3712 176.33 51.3002 177.369ZM108.341 179.498C108.731 185.528 109.183 191.552 109.62 197.576C119.269 196.273 128.885 194.71 138.517 193.285C138.468 192.571 138.362 191.867 138.178 191.182C129.702 192.419 121.247 193.829 112.774 195.088C112.419 195.166 112.078 195.015 111.739 194.944C111.646 194.507 111.554 194.066 111.539 193.621C111.395 188.428 111.11 183.24 110.917 178.049C109.769 177.846 109.104 178.836 108.341 179.498ZM47.273 190.809C47.422 192.651 47.6223 194.494 47.9459 196.315C49.0683 194.533 49.2712 192.37 49.8902 190.392C49.0041 190.45 48.1283 190.577 47.273 190.809ZM50.9201 191.614C52.6897 191.666 54.4619 191.786 56.234 191.742C54.7264 190.96 53.0955 190.348 51.3824 190.335C51.1153 190.708 51.0742 191.187 50.9201 191.614ZM50.5066 192.909C50.3499 193.72 50.1933 194.535 49.9724 195.335C50.8354 195.025 51.7625 195.194 52.6589 195.148C55.1065 195.085 57.5568 195.15 60.0018 195.02C60.0121 194.35 60.0172 193.681 60.0326 193.014C56.8607 192.852 53.6811 192.995 50.5066 192.909ZM49.618 196.041C49.3663 196.807 48.9271 197.482 48.4108 198.092C51.9218 197.967 55.4379 198.055 58.9437 197.818C59.6114 197.769 60.2407 197.454 60.7338 197C60.7955 196.325 60.0301 196.505 59.6063 196.409C56.419 196.31 53.2291 196.549 50.0417 196.482C49.9005 196.33 49.7592 196.185 49.618 196.041ZM35.0245 197.448C35.0322 197.683 35.0399 197.923 35.0502 198.165C37.426 198.282 39.812 198.295 42.1877 198.183C39.7914 198.029 37.4131 197.672 35.0245 197.448ZM35.1658 199.499C35.1273 200.161 35.0939 200.828 35.0682 201.495C43.0763 201.349 51.0819 201.122 59.0901 200.924C59.049 200.351 59.0027 199.783 58.9154 199.217C50.9997 199.374 43.084 199.533 35.1658 199.499Z" fill="#1F2937"/>
<path d="M142.646 45.1631C143.001 44.9286 143.533 44.8895 143.684 45.395C144.026 45.8302 143.414 46.234 143.091 46.4347C141.516 47.3128 139.983 48.2742 138.416 49.168C137.949 49.478 137.466 48.9282 137.494 48.4566C137.885 47.9068 138.517 47.6254 139.069 47.2737C140.271 46.5858 141.437 45.838 142.646 45.1631Z" fill="#1F2937"/>
<path d="M94.7412 62.3315C95.7994 59.6634 99.6468 59.2856 101.594 61.0939C102.148 61.4873 101.612 61.9563 101.278 62.256C100.207 61.5759 98.9225 60.9818 97.6383 61.3779C96.7908 61.5577 96.2489 62.2794 95.7172 62.9074C95.3602 62.7719 95.0314 62.5791 94.7412 62.3315Z" fill="#1F2937"/>
<path d="M116.467 60.062C118.304 59.1892 120.705 60.3851 121.324 62.2872C121.481 62.9751 120.425 63.181 120.171 62.5973C119.567 61.542 118.311 60.6796 117.094 61.2033C116.575 61.4274 116.123 62.4436 115.527 61.8495C114.839 61.1877 115.9 60.3799 116.467 60.062Z" fill="#1F2937"/>
<path d="M139.611 64.4603C141.85 64.8355 144.133 64.9919 146.412 64.8877C146.912 64.9085 147.662 64.7652 147.847 65.4062C147.909 65.9169 147.416 66.2452 146.961 66.2009C144.542 66.24 142.061 66.3155 139.7 65.7188C139.012 65.6198 138.93 64.6453 139.611 64.4603Z" fill="#1F2937"/>
<path d="M108.639 66.2608C108.772 66.193 109.04 66.0549 109.173 65.9872C109.314 66.0523 109.597 66.18 109.738 66.2425C109.892 68.5224 109.697 70.8128 109.707 73.0953C110.935 73.5643 112.312 73.8509 113.283 74.8098C114.017 75.5133 114.166 76.8109 113.501 77.6108C112.766 78.5046 111.521 78.7938 110.426 78.601C109.859 78.4993 109.199 78.2648 109.019 77.6447C109.245 76.7484 110.129 77.2877 110.717 77.392C111.467 77.5822 112.522 77.2278 112.62 76.3445C112.62 75.443 111.611 75.1407 110.935 74.8645C110.126 74.4997 109.065 74.5075 108.472 73.778C108.449 71.274 108.523 68.7622 108.639 66.2608Z" fill="#1F2937"/>
<path d="M99.7448 66.7689C100.456 66.3207 101.209 67.0816 101.376 67.7642C101.648 68.8794 101.704 70.3829 100.682 71.1359C99.9297 71.5841 99.1335 70.8284 99.0179 70.0806C98.7739 68.9811 98.779 67.5193 99.7448 66.7689Z" fill="#1F2937"/>
<path d="M117.446 66.7324C118.193 66.2426 118.972 67.0659 119.144 67.7773C119.323 68.6423 119.37 69.596 119.041 70.4298C118.802 71.0551 118.026 71.5372 117.415 71.1151C116.799 70.6513 116.627 69.807 116.611 69.0749C116.583 68.2385 116.727 67.2561 117.446 66.7324Z" fill="#1F2937"/>
<path d="M139.503 80.1643C139.248 79.6927 139.783 79.4139 140.019 79.0908C141.005 79.7605 141.711 80.7558 142.595 81.5531C143.537 82.5615 144.603 83.4474 145.5 84.5027C145.238 84.7971 144.96 85.0785 144.675 85.3443C143.679 84.5678 142.857 83.5959 141.943 82.7283C141.121 81.8814 140.201 81.1232 139.503 80.1643Z" fill="#1F2937"/>
<path d="M103.068 83.8956C103.212 83.5647 103.507 83.3458 103.756 83.0983C104.935 84.2474 106.181 85.5085 107.881 85.7508C110.683 86.311 113.408 84.904 115.429 83.0331C115.704 83.3172 115.969 83.6116 116.231 83.9112C114.813 85.5945 112.717 86.5794 110.606 87.0015C107.819 87.4783 104.527 86.5012 103.068 83.8956Z" fill="#1F2937"/>
<path d="M48.5984 88.3694C48.9426 87.9291 49.6386 88.0698 49.7722 88.6222C50.178 90.4018 50.291 92.244 50.8047 94.0028C51.5289 94.2399 52.3868 94.2894 52.9287 94.8965C53.2523 95.5349 52.7284 96.1498 52.3174 96.5875C51.5264 97.3145 50.5144 97.9346 49.4075 97.8278C49.315 97.6428 49.1327 97.2728 49.0402 97.0878C49.8569 96.4833 50.892 96.2436 51.6291 95.5088C50.9665 95.3421 50.0753 95.4333 49.6515 94.7766C49.2739 93.7526 49.2405 92.64 49.0042 91.5796C48.8527 90.5165 48.506 89.4534 48.5984 88.3694Z" fill="#1F2937"/>
<path d="M54.5697 88.4137C55.6201 87.8353 56.9454 88.6196 57.1534 89.7661C57.5798 90.9881 56.9634 92.7964 55.4969 92.7912C53.3497 92.8146 52.8669 89.3908 54.5697 88.4137Z" fill="#1F2937"/>
<path d="M39.1572 90.0292C40.9473 89.3413 42.0748 91.7203 41.4687 93.1846C41.1399 94.5343 39.152 94.8444 38.4226 93.6849C37.7369 92.5567 37.8036 90.6129 39.1572 90.0292Z" fill="#1F2937"/>
<path d="M132.625 96.1394C132.358 95.6261 133.077 95.1701 133.511 95.3707C134.13 96.1055 134.51 97.0096 135.049 97.8043C135.766 98.9665 136.647 100.017 137.405 101.147C137.738 101.666 137.017 101.952 136.721 102.239C135.781 101.358 135.157 100.209 134.407 99.1749C133.773 98.19 133.056 97.2363 132.625 96.1394Z" fill="#1F2937"/>
<path d="M43.3896 102.706C47.1215 104.186 51.6315 103.698 54.8753 101.262C55.1502 101.533 55.407 101.822 55.6484 102.124C54.0535 103.735 51.7779 104.42 49.6051 104.733C47.5786 104.962 45.4906 104.834 43.554 104.162C43.1225 103.956 42.4804 103.776 42.4984 103.18C42.6628 102.841 42.9787 102.461 43.3896 102.706Z" fill="#1F2937"/>
<path d="M106.191 138.887C105.999 138.306 106.494 137.975 106.918 137.72C107.144 138.246 107.249 138.817 107.247 139.393C107.445 146.568 108.071 153.723 108.415 160.889C108.213 160.881 107.802 160.86 107.596 160.85C106.931 153.544 106.605 146.209 106.191 138.887Z" fill="#1F2937"/>
<path d="M119.195 160.344C124.082 159.954 128.968 159.484 133.858 159.094C134.425 158.896 135.465 159.234 134.9 159.972C131.225 160.396 127.527 160.657 123.838 160.985C122.128 161.077 120.425 161.467 118.709 161.264C118.753 160.897 118.733 160.412 119.195 160.344Z" fill="#1F2937"/>
<path d="M127.812 162.812C129.052 162.705 130.29 162.497 131.541 162.478C132.026 162.447 132.129 162.94 131.944 163.31C131.23 163.567 130.454 163.544 129.715 163.643C126.458 163.966 123.201 164.3 119.942 164.605C119.593 164.636 118.861 164.722 118.933 164.156C118.809 163.651 119.518 163.646 119.844 163.586C122.5 163.341 125.153 163.065 127.812 162.812Z" fill="#1F2937"/>
<path d="M16.0698 165.199C16.265 164.386 17.1819 164.657 17.7598 164.779C19.9198 165.313 22.1517 165.767 24.1216 166.851C24.6841 167.067 24.2013 167.697 24.1525 168.109C22.0387 167.398 19.9686 166.517 17.7547 166.152C17.1537 165.959 16.1726 166.012 16.0698 165.199Z" fill="#1F2937"/>
<path d="M118.923 168.411C122.844 167.791 126.818 167.583 130.752 167.051C131.302 166.858 131.859 167.729 131.24 168.018C127.406 168.5 123.551 168.859 119.706 169.237C119.146 169.365 118.876 168.912 118.923 168.411Z" fill="#1F2937"/>
<path d="M21.564 169.506C22.5964 169.243 23.6495 168.899 24.7256 169.073C24.7333 169.284 24.7487 169.709 24.759 169.92C24.5638 170.199 24.1786 170.191 23.8909 170.311C22.165 170.712 20.4519 171.163 18.7439 171.634C18.392 171.783 18.0427 171.658 17.7114 171.538C17.7166 171.324 17.7268 170.897 17.732 170.683C18.9519 170.118 20.2746 169.85 21.564 169.506Z" fill="#1F2937"/>
<path d="M125.585 170.918C127.308 170.762 129.019 170.433 130.755 170.384C130.768 170.597 130.796 171.03 130.809 171.246C129.183 171.593 127.514 171.655 125.875 171.903C123.656 172.127 121.45 172.5 119.22 172.554C119.21 172.346 119.189 171.926 119.179 171.718C121.296 171.314 123.456 171.241 125.585 170.918Z" fill="#1F2937"/>
<path d="M128.31 173.729C128.88 173.685 129.664 173.331 129.972 174.05C129.928 174.167 129.843 174.402 129.8 174.519C126.62 175.053 123.399 175.316 120.199 175.691C119.688 175.85 118.966 175.532 119.213 174.899C119.788 174.722 120.387 174.647 120.985 174.592C123.433 174.365 125.865 173.998 128.31 173.729Z" fill="#1F2937"/>
<path d="M127.442 177.106C128.451 176.989 129.461 176.775 130.483 176.872C130.478 177.08 130.467 177.495 130.462 177.7C127.069 178.279 123.63 178.552 120.22 179.008C119.75 179.17 119.141 178.758 119.454 178.242C119.829 177.958 120.32 177.992 120.759 177.93C122.988 177.664 125.218 177.395 127.442 177.106Z" fill="#1F2937"/>
</svg>
