<svg width="202" height="169" viewBox="0 0 202 169" fill="none" xmlns="http://www.w3.org/2000/svg">
<g clipPath="url(#clip0_223_806)">
<path d="M119.239 1.75861C121.381 1.30082 123.474 0.594671 125.65 0.295166C125.864 0.675026 126.176 1.0768 126.039 1.54189C125.801 1.82922 125.448 1.97288 125.124 2.13603C122.576 3.32187 120.076 4.60756 117.557 5.85428C119.181 9.06848 120.524 12.4117 122.021 15.6844C126.604 15.5943 131.267 16.7655 135.052 19.4051C138.788 21.8839 141.572 25.6338 143.196 29.7904C144.695 33.6742 145.416 37.877 145.184 42.0409C144.953 46.5018 143.7 50.8872 141.697 54.8733C143.308 55.1801 144.766 56.1882 145.591 57.6127C146.791 59.5583 146.815 62.1321 145.759 64.1458C144.827 65.9745 142.977 67.304 140.945 67.5938C140.127 67.718 139.302 67.6352 138.486 67.5986C137.856 72.7243 135.437 77.7623 131.297 80.9546C131.452 81.5122 131.608 82.0723 131.764 82.6323C132.63 82.7371 133.499 82.8125 134.373 82.8539C135.709 81.5488 137.659 82.3791 139.26 82.513C140.292 82.6129 141.078 83.3117 141.904 83.8572C146.107 84.2979 150.371 84.8652 154.277 86.5746C158.072 88.1647 161.506 90.6264 164.183 93.7554C167.493 97.5613 170.015 102.054 171.526 106.868C172.622 110.452 173.162 114.178 173.71 117.877C174.617 124.734 175.243 131.622 176.163 138.479C178.125 138.489 180.077 138.706 182.041 138.669C186.242 138.742 190.426 138.131 194.629 138.272C195.595 134.447 196.445 130.592 197.374 126.759C197.564 126.124 197.542 125.272 198.214 124.933C198.565 124.724 198.981 124.87 199.351 124.953C201.011 125.435 202.753 125.476 204.442 125.807C205.002 125.902 205.146 126.531 204.992 127.01C204.167 130.763 203.503 134.547 202.744 138.311C205.431 138.289 208.11 138.019 210.795 137.951C211.367 137.848 211.408 138.499 211.496 138.888C211.097 139.049 210.68 139.168 210.269 139.28C210.929 141.214 211.089 143.317 210.627 145.317C212.705 145.265 214.786 145.183 216.867 145.251C217.371 145.18 217.637 145.76 217.525 146.181C217.308 146.349 217.072 146.481 216.811 146.576C217.41 148.75 217.731 151.012 217.61 153.269C219.557 153.26 221.506 153.211 223.451 153.294C224.091 153.267 224.556 153.966 224.155 154.509C223.514 154.769 222.806 154.645 222.137 154.665C223.2 157.772 223.546 161.171 222.962 164.409C223.514 164.429 224.079 164.412 224.629 164.539C224.933 164.784 224.865 165.24 224.707 165.554C224.084 165.814 223.381 165.637 222.728 165.683C222.149 166.294 221.441 165.625 220.774 165.649C218.179 165.722 215.582 165.834 213 166.114C209.259 166.014 205.513 166.209 201.772 166.007C199.346 165.829 196.917 165.673 194.485 165.649C186.614 165.52 178.743 165.61 170.872 165.578C160.562 165.607 150.249 165.515 139.939 165.646C135.558 165.651 131.177 165.812 126.794 165.768C125.701 165.793 124.599 165.466 123.525 165.795C121.634 166.287 119.699 165.836 117.796 165.717C116.754 165.627 115.705 165.651 114.661 165.681C114.298 165.42 113.889 165.203 113.427 165.274C107.096 165.308 100.766 165.233 94.4353 165.186C90.3804 165.14 86.3255 164.987 82.2707 165.018C81.0805 165.043 80.2554 164.083 79.3402 163.477C79.1893 164.767 79.109 166.133 79.642 167.353C80.9977 167.463 82.3631 167.307 83.7164 167.485C83.6166 167.809 83.7675 168.43 83.2442 168.359C80.326 168.439 77.4029 168.576 74.4846 168.405C71.3692 168.318 68.2514 168.279 65.1336 168.176C57.8636 167.799 50.5814 168.123 43.304 168.047C37.6355 167.989 31.9694 167.694 26.2984 167.767C23.5408 167.789 20.7832 167.799 18.028 167.78C17.5485 167.767 17.0618 167.76 16.5993 167.619C16.575 167.327 16.5628 167.032 16.5652 166.742C17.0374 166.638 17.512 166.552 17.9891 166.479C17.0788 164.015 17.0033 161.105 18.3834 158.802C18.7752 158.161 19.3472 157.387 20.1942 157.492C22.5964 157.66 25.0084 157.591 27.4155 157.662C27.8731 156.323 28.2625 154.701 29.5014 153.881C35.3208 153.859 41.1451 154.107 46.9622 154.277C52.1683 154.489 57.3792 154.567 62.5853 154.777C61.0885 152.49 60.7842 149.653 61.086 146.992C61.31 145.122 61.9671 143.252 63.2498 141.844C64.5081 140.417 66.2362 139.485 68.0494 138.976C65.3746 134.34 62.8165 129.635 60.2123 124.958C59.4407 123.433 58.4672 122.009 57.7784 120.448C59.2971 118.12 60.9887 115.897 62.6364 113.657C63.6927 113.299 64.8075 113.206 65.8978 112.997C67.1878 113.357 68.5411 113.372 69.8578 113.589C72.5643 113.908 75.171 114.748 77.6852 115.778C79.995 111.492 82.2268 107.158 84.797 103.018C87.1944 99.1368 89.8474 95.3358 93.3011 92.3164C97.3535 88.7393 102.482 86.6477 107.69 85.4082C103.942 83.9132 100.625 81.3637 98.2832 78.0716C95.4867 74.1391 93.783 69.5077 92.8873 64.7887C92.1206 60.5396 92.639 56.1809 91.9478 51.9172C87.8418 49.8621 84.1521 46.3995 82.9448 41.8436C81.8666 38.1789 82.7404 34.1734 84.8238 31.0298C83.1444 27.4893 81.6622 23.8587 80.0753 20.2744C77.3201 20.9756 74.5722 21.7037 71.8146 22.4001C71.8219 22.9797 71.8073 23.5567 71.7708 24.1363C73.2141 25.5267 73.6206 27.5867 73.8177 29.503C73.881 30.6426 73.9905 31.7944 73.8445 32.9315C73.567 33.3162 73.2166 33.0703 72.9002 32.8974C72.686 33.0825 72.4694 33.2675 72.2527 33.4502C72.1554 33.2992 71.9582 32.9997 71.8609 32.8487C71.4934 33.4502 71.0431 33.0046 70.6318 32.7538C70.3178 32.9193 69.9819 33.0313 69.6387 33.1166C69.298 31.1686 68.9013 29.1938 69.0181 27.2092C69.1398 26.0891 69.4002 24.8424 70.3616 24.1338C70.3616 23.1452 70.3081 22.1518 70.4054 21.168C70.9628 20.5982 71.7538 20.3596 72.4353 19.9797C79.3621 16.3637 86.2915 12.7502 93.2134 9.12449C94.4012 8.53278 95.5135 7.75114 96.8107 7.40537C104.293 5.54747 111.757 3.62382 119.239 1.75861ZM97.7989 8.62287C96.2071 9.09526 94.7809 9.97187 93.3059 10.7121C88.5233 13.2421 83.7407 15.7647 78.924 18.2265C77.5951 18.9278 76.22 19.5463 74.9398 20.3401C82.0662 18.3337 89.2194 16.4149 96.3824 14.5375C97.3949 14.2429 98.3051 13.695 99.2592 13.2567C106.605 9.77707 113.88 6.15378 121.235 2.70095C113.4 4.58564 105.653 6.81854 97.7989 8.62287ZM98.1056 15.2802C97.1929 15.7623 96.1633 15.923 95.1752 16.1763C90.6676 17.3694 86.1698 18.5918 81.6597 19.7728C83.1955 22.9797 84.1715 26.452 86.014 29.5055C88.258 27.1679 91.1057 25.4195 94.2284 24.5405C98.3684 23.3035 102.776 23.3571 107.014 23.9756C107.474 23.53 107.834 22.9943 108.26 22.5194C111.399 18.94 115.854 16.5732 120.551 15.8719C119.144 12.7405 117.506 9.71132 116.214 6.52634C110.183 9.45564 104.134 12.346 98.1056 15.2802ZM121.089 47.2615C119.229 49.6186 117.38 51.9903 115.418 54.2597C113.67 54.7905 111.828 54.9415 110.017 55.1095C104.353 55.4699 98.5339 54.8246 93.2913 52.5674C93.8097 56.232 93.4544 59.9576 94.0069 63.615C94.3963 62.2051 95.0145 60.7879 96.1974 59.8651C97.9839 58.3262 100.673 57.9098 102.803 58.9666C104.643 59.7701 105.901 61.5404 106.332 63.4713C106.98 63.2108 107.625 62.9064 108.328 62.8358C109.301 62.7725 110.231 63.1596 111.068 63.6223C111.502 61.6231 112.862 59.7774 114.795 59.0153C116.968 58.0632 119.648 58.5136 121.42 60.0842C122.632 61.0801 123.36 62.563 123.598 64.0971C126.689 62.2684 129.79 60.4543 132.866 58.5989C130.946 58.051 129.235 56.9723 127.595 55.8619C126.076 54.7102 124.535 53.5316 123.357 52.0171C121.578 52.8839 119.714 53.5828 117.784 54.0259C118.91 52.6185 120.12 51.2768 121.186 49.8182C121.768 48.9928 122.518 48.2769 122.965 47.3638C123.187 46.962 122.78 46.5115 122.408 46.4044C121.78 46.2364 121.451 46.8841 121.089 47.2615ZM138.62 56.5632C137.712 57.1087 137.333 58.202 136.444 58.7693C135.634 59.305 134.546 58.8619 133.767 59.4609C131.749 60.7076 129.719 61.9324 127.682 63.1499C126.356 63.9461 125.078 64.8325 123.671 65.4899C123.447 67.2285 122.583 68.9087 121.186 69.9922C119.67 71.183 117.586 71.5969 115.727 71.0831C113.571 70.5645 111.801 68.7942 111.224 66.6612C111.103 66.1961 111.034 65.7188 110.896 65.261C109.942 63.9778 108.102 63.8926 106.763 64.5914C106.391 65.6677 106.281 66.856 105.653 67.8421C104.397 70.1822 101.523 71.5214 98.9307 70.8689C97.317 70.5499 95.9467 69.5004 94.9999 68.1855C96.2899 72.0863 97.9522 75.9726 100.744 79.0505C103.015 81.6364 106.006 83.5284 109.236 84.6777C114.111 86.2581 119.463 85.5617 124.141 83.6526C127.699 82.1892 131.085 80.0439 133.453 76.9637C135.697 74.0806 136.972 70.5036 137.284 66.8779C137.688 66.0646 138.737 66.3665 139.457 66.3933C142.378 66.7172 145.148 64.1994 145.245 61.2871C145.323 59.663 144.654 57.9877 143.381 56.9552C142.059 55.9033 140.088 55.6915 138.62 56.5632ZM98.9088 59.9259C97.4509 60.391 96.1682 61.5209 95.6814 62.994C94.905 65.0175 95.6254 67.511 97.3803 68.7894C98.5875 69.7049 100.255 70.0482 101.698 69.5247C103.46 68.9379 104.826 67.2991 105.03 65.4461C105.312 63.7075 104.641 61.8179 103.226 60.7465C102.024 59.8018 100.372 59.495 98.9088 59.9259ZM115.963 60.1865C113.982 60.7173 112.5 62.6191 112.461 64.6693C112.3 66.7707 113.665 68.8673 115.639 69.5905C117.492 70.321 119.692 69.5783 120.943 68.0856C122.42 66.3227 122.452 63.5346 120.994 61.7473C119.809 60.3034 117.757 59.6751 115.963 60.1865ZM127.935 84.3101C125.268 86.4261 122.732 88.7028 120.05 90.7993C119.103 91.5737 117.852 91.6906 116.688 91.8513C117.126 92.8691 117.584 93.8796 118.059 94.8828C118.244 95.2359 118.404 95.645 118.769 95.8568C121.181 97.2667 124.304 97.3909 126.801 96.132C127.565 95.5671 127.921 94.6296 128.451 93.8674C129.644 92.0729 130.795 90.249 132.051 88.4983C131.34 86.3043 130.747 84.0714 129.965 81.9018C129.238 82.664 128.79 83.6648 127.935 84.3101ZM132.088 83.7841C132.387 84.8141 132.718 85.8344 133.134 86.823C133.76 85.9464 134.371 85.0552 135.001 84.181C134.023 84.0836 133.049 83.9667 132.088 83.7841ZM140.562 88.3936C138.077 93.1589 135.724 97.9948 133.246 102.765C133.025 103.15 132.64 103.622 132.146 103.349C130.087 102.633 128.193 101.528 126.314 100.44C125.358 102.775 124.518 105.154 123.652 107.523C123.382 108.117 123.104 109.276 122.218 108.809C121.714 107.959 121.512 106.978 121.172 106.062C120.429 103.985 119.809 101.864 118.966 99.8283C117.406 101.172 115.703 102.344 113.965 103.447C113.395 103.793 112.677 104.133 112.02 103.81C111.721 103.505 111.636 103.069 111.516 102.68C110.153 97.3544 108.91 91.9998 107.712 86.6355C101.956 87.9163 96.431 90.6654 92.3932 95.0314C89.2365 98.3284 86.8756 102.263 84.5682 106.174C82.6576 109.578 80.8249 113.028 79.0847 116.523C80.2359 117.317 81.5064 117.991 82.3948 119.104C87.2577 116.547 92.1985 113.954 97.6115 112.787C102.594 111.728 107.612 110.723 112.704 110.391C113.254 110.284 113.785 110.608 113.945 111.144C115.549 115.079 116.778 119.15 118.19 123.156C119.884 128.206 121.627 133.239 123.267 138.309C127.911 137.644 132.604 137.376 137.257 136.777C141.497 136.307 145.71 135.606 149.957 135.216C149.753 128.508 149.354 121.807 149.244 115.096C149.152 114.499 149.872 113.964 150.383 114.351C150.85 114.884 150.644 115.656 150.7 116.306C150.831 122.418 151.062 128.532 151.315 134.642C154.832 133.412 158.293 132.024 161.827 130.843C162.555 130.617 163.261 130.29 164.025 130.21C164.626 130.351 164.855 131.298 164.183 131.513C160.837 132.616 157.483 133.728 154.204 135.026C156.368 135.555 158.554 136.081 160.574 137.057C161.749 137.641 163.059 138.104 163.962 139.105C163.738 139.4 163.514 139.699 163.288 139.996C160.136 138.287 156.75 137.025 153.238 136.297C154.321 136.896 155.421 137.488 156.38 138.282C158.724 140.181 160.915 142.28 162.906 144.545C162.589 144.839 162.351 145.343 161.847 145.302C161.338 145.015 160.939 144.579 160.52 144.184C158.422 142.146 156.375 140.018 153.937 138.379C152.62 137.476 151.111 136.921 149.646 136.317C149.081 136.972 148.222 136.551 147.497 136.731C139.791 137.722 132.066 138.569 124.37 139.624C124.927 144.145 125.881 148.621 126.185 153.172C126.222 156.992 126.302 160.837 125.742 164.629C137.666 164.444 149.59 164.383 161.511 164.249C162.061 162.352 162.621 160.421 162.611 158.427C162.616 156.98 162.443 155.41 161.489 154.256C161.891 153.934 162.282 153.498 162.84 153.496C164.164 153.401 165.495 153.396 166.824 153.367C167.428 152.885 167.622 152.047 167.842 151.336C168.255 149.836 167.7 148.331 167.126 146.96C166.408 146.785 165.232 147.114 164.904 146.278C165.702 144.606 166.452 142.762 166.062 140.868C165.556 140.736 165.045 140.578 164.67 140.193C164.974 139.814 165.191 139.214 165.748 139.171C168.747 138.908 171.731 138.396 174.751 138.472C174.055 133.629 173.598 128.756 173.14 123.886C172.678 118.96 171.906 114.061 170.755 109.249C169.665 104.942 167.669 100.885 165.043 97.3105C162.183 93.3415 158.335 90.0299 153.837 88.0624C150.225 86.4261 146.285 85.6761 142.366 85.267C141.602 86.1777 141.188 87.3709 140.562 88.3936ZM119.524 97.593C120.862 100.303 121.761 103.213 122.559 106.123C123.476 103.274 124.443 100.418 125.93 97.8073C123.837 98.4526 121.573 98.3357 119.524 97.593ZM104.551 112.551C107.028 112.712 109.496 112.327 111.974 112.412C112.083 112.556 112.302 112.846 112.412 112.99C111.745 113.326 110.986 113.27 110.265 113.323C105.286 113.486 100.289 113.834 95.3991 114.828C91.0156 116.157 86.9462 118.31 82.8572 120.341C82.2317 120.665 81.56 120.879 80.8858 121.076C80.343 120.706 79.6639 120.587 79.1747 120.136C77.084 118.456 74.8254 116.934 72.2795 116.041C70.0257 115.205 67.6186 114.906 65.2431 114.648C64.642 114.645 63.8436 114.414 63.4737 115.045C62.2665 116.591 61.0106 118.108 59.9664 119.776C63.1329 119.486 66.3311 119.508 69.4854 119.915C70.8557 120.1 72.1286 120.679 73.331 121.337C74.5211 121.989 75.7649 122.535 76.9794 123.143C77.6219 121.904 79.0993 121.539 80.2943 121.052C81.4456 121.685 82.6747 122.503 82.8937 123.918C88.589 121.865 94.4036 120.151 100.264 118.641C104.84 117.465 109.516 116.759 114.208 116.262C113.546 114.791 113.028 113.262 112.441 111.76C109.793 111.806 107.191 112.371 104.551 112.551ZM76.366 116.528C77.527 117.338 78.7245 118.101 79.8319 118.987C80.27 119.274 80.7519 119.829 81.3093 119.479C79.771 118.329 78.116 117.319 76.366 116.528ZM77.9797 123.533C78.4178 123.803 78.8632 124.066 79.3159 124.317C79.3378 123.609 79.4595 122.91 79.6713 122.235C79.0555 122.598 78.4908 123.034 77.9797 123.533ZM80.8906 122.766C80.7908 123.346 80.7349 123.932 80.6886 124.522C81.005 124.407 81.319 124.29 81.633 124.171C81.5259 123.635 81.4821 122.99 80.8906 122.766ZM77.8799 125.885C78.1501 126.884 78.6539 127.792 79.036 128.749C80.4209 132.253 81.8252 135.754 83.4608 139.151C85.8996 144.116 87.9635 149.254 90.3025 154.265C91.6022 156.949 92.768 159.693 93.9728 162.42C94.2771 162.281 94.5813 162.145 94.8782 161.989C94.0604 159.228 92.6829 156.678 91.5024 154.061C89.1586 149.001 87.0143 143.848 84.5609 138.837C82.4848 134.559 80.8152 130.103 78.9849 125.717C78.6149 125.764 78.245 125.82 77.8799 125.885ZM198.818 126.233C198.372 128.503 197.71 130.721 197.219 132.981C196.781 134.751 196.452 136.551 195.909 138.297C197.718 138.309 199.528 138.338 201.334 138.438C201.529 137.802 201.697 137.157 201.814 136.502C202.405 133.349 203.038 130.203 203.593 127.042C202.004 126.75 200.405 126.528 198.818 126.233ZM108.598 128.532C105.169 129.47 101.737 130.449 98.422 131.734C97.5798 131.992 97.9863 133.37 98.8114 133.224C99.6949 133.069 100.522 132.698 101.384 132.452C104.093 131.532 106.863 130.811 109.591 129.957C110.11 129.835 110.742 129.202 110.304 128.683C109.937 128.043 109.146 128.435 108.598 128.532ZM89.5821 129.691C90.3439 134.284 90.9061 138.913 91.2493 143.559C91.4172 146.106 91.427 148.667 91.7239 151.204C92.05 151.2 92.3786 151.197 92.7096 151.195C92.5003 144.284 91.977 137.371 90.8745 130.543C90.7893 130.161 90.7674 129.733 90.4485 129.465C90.1492 129.501 89.8668 129.604 89.5821 129.691ZM106.719 132.538C104.714 133.241 102.745 134.052 100.737 134.756C100.274 134.912 99.6292 135.192 99.7509 135.803C99.8896 136.424 100.625 136.663 101.16 136.378C103.144 135.606 105.161 134.919 107.128 134.108C107.508 133.943 108.128 133.612 107.938 133.117C107.856 132.538 107.211 132.275 106.719 132.538ZM112.811 134.495C109.085 135.888 105.283 137.098 101.613 138.628C100.695 139.029 101.489 140.512 102.362 140.03C105.95 138.774 109.53 137.488 113.086 136.144C113.607 135.935 114.425 135.577 114.067 134.873C113.897 134.291 113.276 134.286 112.811 134.495ZM201.85 139.628C202.858 141.007 202.532 142.779 202.554 144.374C202.308 144.369 202.062 144.369 201.821 144.369C201.763 142.809 202.001 141.163 201.293 139.709C200.833 139.67 200.37 139.636 199.913 139.602C200.911 141.343 200.592 143.447 200.534 145.363C203.131 145.334 205.73 145.39 208.324 145.268C208.266 145.404 208.149 145.675 208.091 145.811C208.278 145.295 208.811 145.334 209.259 145.273C209.984 143.344 209.819 141.199 209.128 139.288C208.58 139.322 208.032 139.351 207.487 139.375C207.845 140.413 207.967 141.513 208.01 142.606C208.042 142.879 207.93 143.089 207.675 143.23C207.434 141.956 207.334 140.661 207.064 139.392C205.326 139.504 203.578 139.407 201.85 139.628ZM181.566 139.901C176.784 139.831 171.982 139.607 167.228 140.266C167.639 142.044 167.352 143.885 166.734 145.577C168.513 145.64 170.295 145.672 172.076 145.655C175.574 145.66 179.042 145.034 182.545 145.134C187.349 145.217 192.151 145.482 196.958 145.37C197.844 143.831 198.017 141.757 197.097 140.198C196.766 139.59 195.999 139.723 195.427 139.675C190.803 139.419 186.191 139.991 181.566 139.901ZM198.26 139.543C199.202 141.321 199.36 143.468 198.642 145.356C199.02 145.343 199.397 145.336 199.779 145.336C199.996 143.449 200.203 141.413 199.329 139.653C198.969 139.619 198.613 139.582 198.26 139.543ZM65.1847 141.815C63.5078 143.188 62.5269 145.321 62.4807 147.479C62.3176 149.872 62.5975 152.483 64.16 154.406C64.5251 154.928 65.2529 154.725 65.7932 154.84C64.9219 152.03 64.5519 148.92 65.5376 146.091C66.2094 144.148 67.8717 142.636 69.8432 142.081C69.3905 141.421 69.0132 140.714 68.6433 140.011C67.3582 140.31 66.2094 141.007 65.1847 141.815ZM94.9999 140.22C94.4693 140.522 94.8052 141.177 94.961 141.608C97.8671 148.037 100.746 154.48 103.64 160.913C103.811 161.249 104.151 161.78 104.599 161.519C105.132 161.358 105.217 160.747 104.964 160.316C102.002 153.776 99.1205 147.199 96.1438 140.666C96.0002 140.159 95.4526 139.94 94.9999 140.22ZM108.615 140.483C106.96 141.082 105.332 141.749 103.679 142.351C103.173 142.599 102.443 142.714 102.297 143.356C102.289 143.909 102.839 144.491 103.404 144.199C105.337 143.534 107.233 142.755 109.151 142.044C109.603 141.842 110.377 141.545 110.127 140.904C110.027 140.108 109.146 140.266 108.615 140.483ZM66.6694 146.985C66.0439 149.61 66.224 152.441 67.2219 154.954C69.8091 155.054 72.3915 155.261 74.9787 155.38C77.3518 155.587 79.7759 155.524 82.0905 156.155C82.3266 155.704 82.9741 155.21 82.6333 154.674C82.2536 154.2 81.6184 154.27 81.0878 154.353C79.6907 154.57 78.2912 154.774 76.8918 154.969C76.4804 155.105 75.9693 154.772 76.1178 154.307C76.0886 153.854 76.6824 153.805 77.0086 153.73C78.5809 153.549 80.1726 153.398 81.6938 152.943C82.4605 152.734 83.0081 151.928 82.9448 151.141C82.9108 150.693 82.4702 150.359 82.0321 150.501C79.5131 150.893 76.9502 150.988 74.4603 151.565C73.679 151.889 73.4624 150.498 74.1974 150.372C76.2176 149.967 78.2985 149.782 80.2578 149.113C81.0586 148.855 81.5502 148.017 81.65 147.221C81.4894 146.656 80.8736 146.283 80.3065 146.507C78.1598 147.048 75.9328 147.077 73.7569 147.44C72.8442 147.545 71.9607 147.815 71.048 147.92C70.3981 147.998 70.2618 146.933 70.8581 146.775C72.9099 146.227 75.2075 146.293 77.0573 145.139C77.9335 144.654 77.8677 143.006 76.7068 143.037C74.9008 143.376 73.0754 143.719 71.2305 143.634C71.0285 143.442 70.8119 143.271 70.5807 143.125C68.7114 143.593 67.1148 145.088 66.6694 146.985ZM168.35 146.929C169.623 148.804 169.514 151.246 168.757 153.296C180.683 153.225 192.611 153.282 204.537 153.191C205.219 151.002 204.44 148.752 203.651 146.709C198.158 146.707 192.662 146.746 187.174 146.485C183.679 146.369 180.172 146.266 176.684 146.622C173.914 146.909 171.13 146.839 168.35 146.929ZM206.319 146.632C207.076 148.767 207.509 151.01 207.531 153.279C208.12 153.277 208.709 153.272 209.3 153.269C209.283 152.139 209.264 151.005 209.038 149.894C208.894 149.196 208.456 148.575 208.466 147.844C208.746 148.015 209.291 148.029 209.339 148.46C209.765 150.023 209.639 151.674 209.868 153.272C212.002 153.264 214.137 153.184 216.271 153.172C216.271 150.902 216.025 148.618 215.339 146.449C214.811 146.461 214.28 146.466 213.757 146.471C214.424 148.365 214.395 150.413 214.657 152.385C214.414 152.23 214.012 152.191 214.015 151.825C213.835 150.045 213.65 148.263 213.321 146.502C210.987 146.58 208.651 146.537 206.319 146.632ZM204.944 146.651C205.835 148.711 206.246 151.005 205.883 153.238C206.202 153.23 206.526 153.226 206.852 153.226C206.964 151.017 206.54 148.833 205.837 146.748C205.613 146.724 205.168 146.675 204.944 146.651ZM117.053 150.177C116.367 150.321 115.581 150.493 115.157 151.107C114.931 151.979 115.722 152.816 116.569 152.863C118.224 152.972 119.882 152.765 121.542 152.777C121.627 153.118 121.634 153.467 121.539 153.81C118.811 153.98 116.085 154.195 113.373 154.499C112.602 154.694 112.1 155.475 112.013 156.235C112.003 157.022 112.945 157.158 113.532 157.302C116.048 157.74 118.614 157.397 121.15 157.487C121.196 157.83 121.249 158.178 121.305 158.526C118.687 158.716 116.051 158.702 113.437 158.992C112.957 159.084 112.466 159.608 112.675 160.121C113.003 160.73 113.675 161.071 114.352 161.12C116.477 161.363 118.626 161.329 120.76 161.395C121.349 161.393 121.383 162.291 120.882 162.469C119.205 162.591 117.509 162.33 115.839 162.588C115.26 162.681 114.603 163.17 114.753 163.832C114.943 164.407 115.642 164.161 116.097 164.217C118.139 164.093 120.152 164.694 122.191 164.526C123.367 164.441 124.545 163.638 124.776 162.43C125.287 159.664 125.039 156.837 125.046 154.044C124.959 152.561 124.998 151.005 124.418 149.61C124.124 148.794 123.128 148.857 122.425 148.901C120.587 149.103 118.879 149.897 117.053 150.177ZM163.307 154.579C164.385 157.728 163.787 161.13 162.925 164.254C168.404 164.263 173.88 164.183 179.359 164.215C186.337 164.239 193.327 164.2 200.293 164.726C203.048 164.887 205.808 164.901 208.565 164.826C209.033 162.498 209.78 160.053 209.079 157.691C208.736 156.661 208.4 155.546 207.631 154.75C205.861 154.514 204.053 154.682 202.269 154.643C189.282 154.733 176.292 154.908 163.307 154.579ZM208.96 154.725C211.248 157.567 210.758 161.5 209.977 164.811C211.011 164.787 212.048 164.782 213.083 164.814C213.2 161.327 212.45 157.84 210.97 154.687C210.298 154.713 209.627 154.725 208.96 154.725ZM211.364 154.918C211.734 155.127 212.039 155.449 212.17 155.865C213.275 158.685 213.718 161.729 213.657 164.753C214.195 164.738 214.73 164.707 215.271 164.685C215.288 161.558 214.572 158.497 213.725 155.51C214.477 155.634 214.601 156.449 214.794 157.058C215.397 159.522 215.872 162.038 215.899 164.582C217.744 164.507 219.593 164.475 221.441 164.409C222.259 161.22 221.779 157.806 220.823 154.699C218.282 154.672 215.741 154.616 213.2 154.662C212.581 154.696 211.934 154.635 211.364 154.918ZM29.4113 160.07C36.8883 160.377 44.3725 160.487 51.8518 160.681C61.3124 160.935 70.7754 160.674 80.2359 160.789C80.231 159.566 80.5548 158.39 80.9393 157.241C79.1309 156.89 77.2812 156.946 75.4509 156.795C69.5292 156.503 63.6124 156.121 57.6859 155.997C50.2236 155.809 42.7637 155.478 35.3087 155.11C33.7412 154.993 32.1714 155.217 30.6064 155.042C29.757 156.574 29.4138 158.332 29.4113 160.07ZM20.2818 158.624C19.8656 159.6 19.3228 160.55 19.1744 161.619C18.9042 163.253 19.2085 164.909 19.5735 166.506C24.2466 166.469 28.9221 166.547 33.5855 166.862C39.5582 167.112 45.5383 166.774 51.5135 166.815C50.5594 165.242 50.7639 163.233 51.4989 161.617C44.3968 161.621 37.2947 161.592 30.1951 161.402C29.3578 161.319 28.4353 161.517 27.6589 161.176C27.2038 160.46 27.2963 159.557 27.1868 158.751C24.8867 158.583 22.5843 158.66 20.2818 158.624ZM52.7061 161.936C51.92 163.418 51.9054 165.281 52.6672 166.779C55.067 166.893 57.4693 166.913 59.8715 167.039C65.7981 167.344 71.7368 167.297 77.6682 167.458C76.8309 165.807 76.809 163.677 77.8434 162.106C73.8056 162.177 69.7604 162.206 65.725 162.013C61.7481 161.855 57.7662 161.78 53.7892 161.602C53.4193 161.653 52.8424 161.453 52.7061 161.936Z" fill="#1F2937"/>
<path d="M95.8128 11.0287C96.7425 10.3883 97.7185 9.72595 98.8332 9.46541C99.3638 9.43132 99.4831 10.0206 99.6656 10.3907C98.7578 11.2868 97.5749 11.8688 96.3969 12.3168C95.6035 12.6845 95.1508 11.4207 95.8128 11.0287Z" fill="#1F2937"/>
<path d="M79.6397 58.3578C80.2311 57.8708 80.7544 58.6403 81.0051 59.1175C82.1588 61.3675 83.4463 63.5492 84.5489 65.826C84.8677 66.2764 84.5221 66.9363 83.9672 66.929C83.5485 66.9923 83.3757 66.498 83.1615 66.2326C81.9568 64.0849 80.8493 61.8837 79.647 59.7336C79.4377 59.3245 79.1018 58.65 79.6397 58.3578Z" fill="#1F2937"/>
<path d="M137.603 60.6491C138.333 59.7409 139.238 58.9641 140.202 58.314C140.762 57.9657 141.229 58.5112 141.281 59.042C141.091 59.2636 140.896 59.4828 140.696 59.697C141.565 60.486 141.979 61.7692 141.536 62.8869C141.354 63.3763 140.838 63.912 140.28 63.615C139.66 63.089 140.161 62.3536 140.305 61.7376C140.404 61.2627 140.039 60.9121 139.713 60.6443C139.285 61.0071 138.912 61.4332 138.469 61.779C137.839 62.188 137.026 61.158 137.603 60.6491Z" fill="#1F2937"/>
<path d="M100.136 63.856C101.216 63.4226 102.489 64.5525 102.243 65.6774C102.109 66.8341 100.586 67.472 99.6683 66.744C98.646 66.0135 98.9284 64.2213 100.136 63.856Z" fill="#1F2937"/>
<path d="M116.131 64.2188C117.114 63.6904 118.399 64.5427 118.28 65.6579C118.321 66.8364 116.644 67.4622 115.851 66.6246C115.089 65.9915 115.25 64.6595 116.131 64.2188Z" fill="#1F2937"/>
<path d="M106.833 67.8446C107.376 66.7318 107.739 65.5167 108.525 64.5403C108.973 64.7326 109.598 65.037 109.296 65.6409C108.649 67.6595 107.602 69.5223 106.777 71.4703C107.731 71.7869 108.734 71.9573 109.659 72.3639C110.248 72.6391 109.859 73.7129 109.248 73.6228C108.123 73.3988 107.011 73.0677 105.95 72.6391C105.332 72.4321 105.01 71.6919 105.302 71.1026C105.755 69.9898 106.356 68.9452 106.833 67.8446Z" fill="#1F2937"/>
<path d="M115.153 76.3939C115.871 76.0628 116.611 77.195 115.949 77.6942C114.88 78.6146 112.872 78.7656 111.989 77.5238C111.516 76.8736 112.578 76.0725 113.123 76.596C113.782 77.1658 114.491 76.6569 115.153 76.3939Z" fill="#1F2937"/>
<path d="M69.4998 81.2493C69.6678 80.845 70.1107 80.5066 70.5537 80.7233C72.1065 81.2712 73.6204 81.9311 75.1732 82.4862C76.0811 82.8539 77.1374 83.0633 77.758 83.8937C77.5098 84.1664 77.2591 84.4367 76.9962 84.6948C74.8447 83.8961 72.7028 83.0682 70.5561 82.2598C70.118 82.0406 69.4317 81.8653 69.4998 81.2493Z" fill="#1F2937"/>
<path d="M160.983 94.9121C161.197 94.6808 161.837 94.9145 161.474 95.2457C157.244 99.5118 154.039 104.859 152.476 110.679C152.394 110.893 152.228 111.373 151.919 111.134C151.503 111.098 151.722 110.567 151.756 110.316C153.068 105.714 155.424 101.455 158.381 97.7075C159.201 96.7383 159.965 95.6864 160.983 94.9121Z" fill="#1F2937"/>
<path d="M126.84 107.124C127.178 106.673 127.602 107.408 127.565 107.747C127.977 111.638 128.176 115.549 128.425 119.454C128.644 124.446 128.804 129.477 128.118 134.442C128.21 134.982 127.349 135.153 127.276 134.586C127.268 134.094 127.356 133.614 127.422 133.132C128.062 127.787 127.711 122.398 127.483 117.039C127.234 113.783 127.093 110.518 126.665 107.282L126.84 107.124Z" fill="#1F2937"/>
<path d="M91.7947 117.572C98.135 115.164 105.018 114.46 111.757 114.869C112.176 114.835 112.741 115.176 112.5 115.651C111.349 115.768 110.19 115.595 109.034 115.597C101.852 115.573 94.5206 116.822 88.1098 120.185C87.7325 120.312 87.3163 120.711 86.9147 120.46C86.8879 120.287 86.8368 119.941 86.8101 119.769C88.4383 118.965 90.1104 118.249 91.7947 117.572Z" fill="#1F2937"/>
<path d="M122.213 115.359C123.464 115.108 124.338 116.747 123.695 117.757C123.279 118.748 121.877 119.179 121.094 118.359C120.281 117.365 121.035 115.668 122.213 115.359Z" fill="#1F2937"/>
<path d="M63.6343 116.484C67.8254 116.325 72.1018 117.446 75.5677 119.837C75.9133 120.012 75.9546 120.409 76.0642 120.743C75.4484 120.83 74.9494 120.48 74.4748 120.151C72.1626 118.626 69.4391 117.83 66.7107 117.497C65.7445 117.365 64.7612 117.394 63.7998 117.219C63.7584 117.034 63.6757 116.666 63.6343 116.484Z" fill="#1F2937"/>
<path d="M201.607 122.194C201.95 121.812 202.697 122.079 202.595 122.63C202.554 123.407 202.59 124.266 202.152 124.948C201.765 125.191 201.276 125.087 200.85 125.145C200.943 124.132 201.093 123.085 201.607 122.194Z" fill="#1F2937"/>
<path d="M122.204 122.898C123.647 122.591 124.839 124.49 124.014 125.69C123.472 126.518 122.14 126.453 121.566 125.69C120.799 124.87 121.011 123.185 122.204 122.898Z" fill="#1F2937"/>
<path d="M188.865 140.904C190.72 140.885 192.614 140.79 194.444 141.136C194.551 141.552 194.393 141.764 193.972 141.769C192.263 141.727 190.555 141.62 188.844 141.681C188.848 141.486 188.861 141.099 188.865 140.904Z" fill="#1F2937"/>
<path d="M181.576 141.301C182.895 141.16 184.224 141.004 185.548 141.206C185.558 142.244 184.433 141.947 183.75 142.01C178.94 142.156 174.131 142.061 169.324 141.961C169.253 141.798 169.11 141.472 169.037 141.306C173.216 141.374 177.399 141.518 181.576 141.301Z" fill="#1F2937"/>
<path d="M168.647 143.303C172.945 143.671 177.292 143.695 181.576 143.106C182.075 143.166 182.915 143.033 183.124 143.61C182.851 144.318 181.9 143.902 181.323 144.036C177.083 144.338 172.828 144.284 168.586 144.101C168.601 143.902 168.63 143.502 168.647 143.303Z" fill="#1F2937"/>
<path d="M186.692 143.052C188.695 142.933 190.72 142.879 192.721 143.091C192.711 143.249 192.694 143.563 192.684 143.722C190.654 143.763 188.62 143.673 186.597 143.909C186.622 143.695 186.668 143.266 186.692 143.052Z" fill="#1F2937"/>
<path d="M184.146 157.426C186.802 157.246 189.394 156.476 192.066 156.435C195.383 156.359 198.75 156.26 202.008 156.98C202.481 157.053 202.916 157.27 203.152 157.713C201.712 157.545 200.319 157.083 198.866 156.988C196.756 156.849 194.636 156.859 192.524 156.917C189.742 157.005 187.021 157.667 184.251 157.864C178.485 158.103 172.714 157.85 166.951 157.684C166.963 157.499 166.985 157.126 166.997 156.941C168.835 157.263 170.704 157.17 172.561 157.263C176.416 157.482 180.284 157.533 184.146 157.426Z" fill="#1F2937"/>
<path d="M31.5459 157.901C33.5198 157.869 35.501 157.796 37.4749 157.92C37.4578 158.11 37.4262 158.488 37.4091 158.675C35.4839 158.846 33.5417 158.802 31.614 158.695C31.597 158.497 31.5629 158.1 31.5459 157.901Z" fill="#1F2937"/>
<path d="M41.104 157.862C42.5643 157.63 44.0417 157.847 45.5093 157.864C49.1432 158.022 52.7891 157.913 56.4181 158.161C56.4132 158.344 56.4059 158.709 56.401 158.892C51.3045 158.928 46.2006 158.865 41.1064 158.641C41.1064 158.446 41.104 158.057 41.104 157.862Z" fill="#1F2937"/>
<path d="M62.0135 158.643C61.5291 157.774 62.6949 157.682 63.2742 157.769C67.9035 158.066 72.5084 158.629 77.1401 158.899C77.8094 158.992 78.9534 158.853 78.873 159.854C73.241 159.661 67.6358 158.992 62.0135 158.643Z" fill="#1F2937"/>
<path d="M189.323 158.889C192.271 158.271 195.301 158.699 198.251 159.067C199.434 159.276 200.677 159.357 201.777 159.875C201.938 160.455 201.067 160.124 200.789 160.119C197.908 159.581 194.989 159.013 192.044 159.133C190.204 159.206 188.469 159.844 186.738 160.414C184.21 161.151 181.676 160.065 179.132 160.078C174.637 159.985 170.137 159.963 165.649 159.654C165.673 159.393 165.692 159.13 165.724 158.877C170.246 159.493 174.824 159.379 179.376 159.503C181.177 159.535 182.937 159.987 184.735 160.043C186.337 160.012 187.77 159.191 189.323 158.889Z" fill="#1F2937"/>
<path d="M166.167 161.758C166.284 161.694 166.515 161.568 166.632 161.505C170.791 161.702 174.956 162.157 179.127 161.921C180.585 161.889 182.07 161.836 183.506 162.135C183.601 162.22 183.793 162.393 183.888 162.481C180.026 162.367 176.161 162.69 172.3 162.452C170.597 162.352 168.891 162.332 167.187 162.233C166.79 162.24 166.449 162.011 166.167 161.758Z" fill="#1F2937"/>
<path d="M187.215 161.709C187.899 161.485 188.637 161.563 189.348 161.524C192.955 161.448 196.678 161.315 200.132 162.534C200.383 162.671 200.838 162.722 200.809 163.112C200.446 163.263 200.076 163.043 199.726 162.975C197.944 162.41 196.085 162.099 194.215 162.079C191.811 162.06 189.394 162.072 187.009 162.401L186.931 162.06C187.001 161.972 187.145 161.797 187.215 161.709Z" fill="#1F2937"/>
<path d="M22.5114 163.462C24.7238 163.087 26.9971 163.533 29.2289 163.606C31.0227 163.791 32.8189 163.594 34.6127 163.555C35.2382 163.482 35.0898 164.504 34.5738 164.504C31.3391 165.03 28.0631 164.563 24.8163 164.446C24.0034 164.4 23.1734 164.475 22.3751 164.295C22.1609 164.042 22.1147 163.545 22.5114 163.462Z" fill="#1F2937"/>
<path d="M38.3755 163.845C40.4127 163.545 42.479 163.611 44.5332 163.599C46.069 163.64 47.6146 163.555 49.1455 163.723C49.1406 163.932 49.1309 164.349 49.126 164.558C47.0328 164.699 44.9324 164.543 42.8368 164.602C41.4617 164.58 40.0841 164.726 38.7089 164.655C38.2684 164.675 38.4363 164.105 38.3755 163.845Z" fill="#1F2937"/>
<path d="M55.4297 164.034C55.9238 163.918 56.4251 163.818 56.9363 163.81C60.7623 163.72 64.5836 164.005 68.4072 164.005C70.5004 164.044 72.5911 163.944 74.6818 163.978C74.6696 164.178 74.6453 164.58 74.6331 164.782C73.2896 164.967 71.9339 164.921 70.5831 164.921C65.579 164.923 60.5676 164.85 55.5684 164.733C55.5343 164.558 55.4638 164.207 55.4297 164.034Z" fill="#1F2937"/>
</g>
<defs>
<clipPath id="clip0_223_806">
<rect width="225" height="169" fill="white"/>
</clipPath>
</defs>
</svg>
