<svg width="156" height="208" viewBox="0 0 156 208" fill="none" xmlns="http://www.w3.org/2000/svg">
<g clipPath="url(#clip0_1163_8101)">
<path d="M102.026 125.68C102.022 125.688 102.02 125.698 102.021 125.707C102.022 125.717 102.025 125.726 102.03 125.734C102.036 125.742 102.043 125.748 102.052 125.752C102.06 125.756 102.07 125.757 102.079 125.756C104.763 125.482 107.274 124.986 109.614 124.266C110.379 124.031 111.1 123.562 111.604 122.948C112.644 121.69 113.757 120.883 115.362 120.425C115.509 120.384 115.529 120.309 115.424 120.199C113.136 117.814 113.004 113.788 115.201 111.382C115.293 111.281 115.291 111.182 115.195 111.086C112.433 108.357 112.673 104.922 114.656 101.9C114.992 101.387 115.415 100.941 115.925 100.562C116.913 99.8262 117.875 98.9822 118.811 98.0296C123.09 93.6638 128.396 91.1523 134.73 90.495C136.68 90.2916 138.794 90.1919 141.073 90.1958C145.126 90.2016 149.007 90.3522 152.716 90.6476C160.831 91.2911 169.063 92.3415 177.413 93.7988C177.441 93.8038 177.47 93.8018 177.497 93.793C177.524 93.7841 177.549 93.7687 177.569 93.7481C177.588 93.7275 177.603 93.7023 177.61 93.6748C177.618 93.6473 177.619 93.6183 177.612 93.5904L176.739 89.7175C176.717 89.6199 176.723 89.518 176.757 89.4236C176.79 89.3292 176.849 89.246 176.927 89.1835C178.603 87.8339 179.707 86.8979 180.776 84.8353C180.823 84.7453 180.896 84.6896 180.993 84.6681C181.321 84.5996 181.652 84.5947 181.986 84.6534C185.783 85.3204 189.61 86.3473 193.468 87.7341C193.495 87.7436 193.524 87.7421 193.55 87.7301C193.576 87.718 193.596 87.6963 193.605 87.6696C195.645 82.0568 200.344 78.2396 205.91 76.4176C205.962 76.4008 206.006 76.3652 206.034 76.3176C206.061 76.27 206.07 76.2137 206.06 76.1594L205.761 74.6161C205.735 74.4909 205.659 74.4244 205.532 74.4166C198.067 73.9823 192.516 70.1681 190.998 62.5572C190.98 62.4673 190.938 62.3919 190.872 62.3313C188.988 60.5415 187.761 57.6457 188.927 55.1224C189.495 53.894 190.472 53.0686 191.856 52.6461C191.966 52.6118 192.066 52.5509 192.145 52.4689C192.225 52.3869 192.283 52.2864 192.313 52.1766C192.784 50.5238 193.413 49.0128 194.2 47.6436C194.221 47.6081 194.23 47.5673 194.227 47.5264C194.224 47.4855 194.208 47.4466 194.183 47.4147C193.61 46.7027 193.34 45.8342 193.371 44.8093C193.422 43.0665 194.187 41.9144 195.665 41.353C196.056 41.2043 196.06 41.0449 195.677 40.8748C191.925 39.1887 187.855 37.4723 183.466 35.7255C182.892 35.4967 181.837 35.1123 182.253 34.2937C182.407 33.9866 182.662 33.7998 183.018 33.7333C191.076 32.1979 200.557 30.4414 211.459 28.4638C211.647 28.4292 211.842 28.4433 212.024 28.5049C219.791 31.0898 227.971 33.5397 235.497 36.0923C236.048 36.2781 236.276 36.6683 236.183 37.263C236.167 37.3588 236.119 37.4351 236.039 37.4918C235.748 37.7011 235.438 37.7891 235.107 37.7559C234.955 37.7402 234.887 37.8087 234.902 37.9613L235.582 45.0968C235.631 45.6093 235.399 45.888 234.888 45.933L232.427 46.156C232.257 46.1716 232.088 46.1197 231.957 46.0115C231.825 45.9033 231.741 45.7476 231.724 45.578L231.103 39.5163C231.1 39.4887 231.091 39.4621 231.076 39.4385C231.061 39.4149 231.042 39.3949 231.018 39.3799C230.995 39.365 230.969 39.3555 230.941 39.3522C230.914 39.3489 230.886 39.3518 230.859 39.3608L223.928 41.7168C223.857 41.7403 223.849 41.7784 223.901 41.8313C225.826 43.7765 225.738 46.3526 224.124 48.4269C224.054 48.5169 224.04 48.6157 224.083 48.7233C224.167 48.9287 224.267 49.1262 224.382 49.316C224.851 50.0935 224.877 50.9502 224.745 51.8275C224.593 52.8329 224.014 53.5263 223.008 53.9077C222.797 53.986 222.797 54.0662 223.008 54.1483C224.801 54.8427 225.744 56.0652 225.838 57.8158C225.97 60.2569 224.569 62.3841 222.155 62.7538C222.052 62.7695 221.989 62.8272 221.968 62.9269C221.098 66.7089 218.651 69.9304 215.259 72.0048C215.134 72.083 215.088 72.1945 215.121 72.3393L215.754 75.1178C215.779 75.2293 215.849 75.2929 215.962 75.3085C221.596 76.1359 227.027 79.4572 229.84 84.4627C229.881 84.5358 229.946 84.5931 230.023 84.6256C230.101 84.658 230.187 84.6636 230.268 84.6417C232.393 84.0627 234.554 83.5922 236.751 83.2304C237.583 83.0954 237.732 83.6294 237.923 84.3629C238.349 85.9903 239.247 87.3018 240.618 88.2974C241.093 88.6407 241.901 88.9488 241.925 89.6236C241.929 89.7625 241.938 89.9033 241.951 90.0461C242.418 95.2589 242.897 100.534 243.39 105.872C243.395 105.932 243.414 105.99 243.444 106.042C243.474 106.094 243.516 106.14 243.565 106.174C245.474 107.51 246.284 109.221 245.997 111.306C245.909 111.94 245.454 112.867 244.632 114.088C243.985 115.048 243.116 115.629 242.024 115.83C238.685 116.447 235.6 117.855 232.453 118.823C232.326 118.862 232.238 118.944 232.189 119.07C231.51 120.795 229.881 121.737 228.196 122.229C228.15 122.243 228.111 122.273 228.086 122.314C228.062 122.355 228.054 122.403 228.064 122.45C228.172 122.94 228.277 123.428 228.381 123.911C231.496 138.659 234.6 153.422 237.691 168.2C238.248 170.867 236.646 173.684 234.313 175.112C234.196 175.187 234.15 175.291 234.176 175.426C235.344 181.736 236.306 187.17 237.062 191.728C237.216 192.655 237.354 193.817 237.475 195.213C237.53 195.862 237.99 196.311 238.099 196.959C238.603 199.956 239.073 202.888 239.511 205.755C239.521 205.825 239.557 205.889 239.613 205.934C239.668 205.978 239.738 206.001 239.81 205.996L240.952 205.926C241.073 205.918 241.149 205.856 241.181 205.741C241.717 203.763 243.981 202.478 245.892 202.349C245.936 202.346 245.978 202.326 246.009 202.294C246.04 202.262 246.059 202.22 246.062 202.176C246.233 199.377 246.392 196.431 246.536 193.339C247.462 173.505 248.43 152.338 249.439 129.84C249.445 129.703 249.38 129.637 249.243 129.641L244.453 129.755C244.26 129.759 244.158 129.664 244.148 129.471L243.812 121.971C243.804 121.809 243.881 121.725 244.043 121.719L251.306 121.475C251.442 121.47 251.526 121.401 251.558 121.27C252.683 116.632 255.372 113.434 259.626 111.676C264.636 109.604 270.404 110.661 274.441 114.205C278.358 117.644 279.847 123.18 278.139 128.153C274.175 139.684 258.1 140.423 252.41 129.902C252.237 129.582 252.026 129.544 251.687 129.541C251.519 129.541 251.431 129.625 251.423 129.793L248.13 202.317C248.128 202.368 248.142 202.419 248.172 202.461C248.202 202.504 248.244 202.535 248.294 202.551C250.188 203.152 251.547 204.243 252.369 205.826C252.418 205.922 252.497 205.97 252.606 205.97L291.396 205.961C291.52 205.961 291.643 205.996 291.749 206.062C291.855 206.129 291.941 206.224 291.996 206.336C292.086 206.516 292.106 206.675 292.058 206.812C291.954 207.105 291.747 207.252 291.437 207.252C278.708 207.238 265.156 207.232 250.781 207.234C191.852 207.242 136.093 207.262 83.5049 207.293C83.2881 207.293 82.9912 207.394 82.6143 207.595C81.3281 208.282 79.7227 208.24 78.4922 207.601C78.1426 207.421 77.7656 207.324 77.3613 207.31C76.2578 207.277 75.2022 207.26 74.1944 207.258C51.7705 207.213 29.3555 207.215 6.94923 207.263C6.87932 207.263 6.81021 207.249 6.74623 207.221C6.68225 207.192 6.62479 207.152 6.57746 207.1C6.53014 207.049 6.49397 206.989 6.47123 206.923C6.44849 206.857 6.43967 206.787 6.44533 206.718L6.4629 206.501C6.47325 206.359 6.53728 206.226 6.64214 206.129C6.747 206.033 6.88495 205.979 7.02833 205.978L74.209 205.975C74.6192 205.975 74.6436 205.879 74.2822 205.685C70.8174 203.837 67.4922 201.96 64.3067 200.055C64.0156 199.88 63.7822 199.646 63.6065 199.35C63.5518 199.26 63.5469 199.168 63.5918 199.072C63.7793 198.677 63.9912 198.328 64.2276 198.027C65.4522 196.47 66.7041 194.801 67.9834 193.019C68.5088 192.287 68.8945 191.319 69.1406 190.114C69.4863 188.422 69.7031 186.858 69.791 185.423C69.7922 185.404 69.7896 185.386 69.7835 185.368C69.7773 185.351 69.7676 185.335 69.7551 185.321C69.7425 185.308 69.7273 185.297 69.7103 185.289C69.6934 185.281 69.675 185.277 69.6563 185.276C67.374 185.167 64.7754 184.874 62.707 183.879C62.6172 183.836 62.5423 183.767 62.4922 183.68C62.442 183.594 62.4189 183.495 62.4258 183.395L64.7285 150.376C64.7338 150.313 64.7179 150.25 64.6834 150.197C64.6489 150.145 64.5977 150.105 64.5381 150.085C57.4951 147.679 50.4414 145.253 43.377 142.806C43.1055 142.712 42.8438 142.598 42.5918 142.465C42.5272 142.433 42.4771 142.377 42.4512 142.309C42.4252 142.241 42.4252 142.166 42.4512 142.099C44.6777 136.321 46.8955 130.616 49.1045 124.985C49.4326 124.148 49.2569 123.385 49.3799 122.535C49.7842 119.703 51.1377 117.042 52.7608 114.704C52.7847 114.669 52.795 114.627 52.7895 114.586C52.7841 114.544 52.7634 114.507 52.7315 114.481L46.9424 109.769C46.9225 109.753 46.9062 109.733 46.8944 109.71C46.8827 109.688 46.8758 109.663 46.8741 109.637C46.8725 109.611 46.8761 109.586 46.8849 109.561C46.8936 109.537 46.9072 109.515 46.9248 109.496C51.2608 104.799 55.9639 100.161 61.0342 95.5797C62.4326 94.3161 63.8867 93.1709 65.3965 92.144C65.4203 92.1286 65.439 92.1065 65.4503 92.0805C65.4616 92.0544 65.4649 92.0257 65.4599 91.9978C65.4549 91.9698 65.4417 91.944 65.4221 91.9236C65.4025 91.9031 65.3773 91.889 65.3496 91.8828C63.2422 91.3743 61.2188 90.7415 59.2793 89.9845C59.1621 89.9376 59.1084 89.8515 59.1182 89.7263C59.1504 89.2686 59.3701 88.8285 59.4053 88.3708C59.4951 87.2852 59.6387 86.2397 59.836 85.2343C59.8418 85.2036 59.8385 85.1718 59.8266 85.1428C59.8147 85.1138 59.7946 85.089 59.7689 85.0712C59.7431 85.0535 59.7127 85.0437 59.6814 85.0429C59.6502 85.0422 59.6194 85.0506 59.5928 85.0671C59.2686 85.2705 59.0762 85.56 59.0156 85.9356C58.8731 86.8236 58.711 87.6774 58.5293 88.497C58.3926 89.119 58.0235 89.3244 57.4219 89.1131C56.2813 88.7121 55.1533 88.2349 54.0381 87.6813C53.9365 87.6305 53.8926 87.5483 53.9063 87.4348C54.1406 85.6979 54.4805 83.9903 55.6172 82.5937C57.0918 80.7824 58.7901 79.1462 60.7119 77.6851C60.7239 77.6765 60.7335 77.6651 60.7401 77.6519C60.7467 77.6388 60.7499 77.6242 60.7497 77.6095C60.7494 77.5948 60.7455 77.5803 60.7384 77.5674C60.7313 77.5546 60.7213 77.5436 60.709 77.5354L60.6445 77.4914C60.5332 77.4151 60.419 77.4102 60.3018 77.4768C58.4736 78.5007 56.7774 80.2523 55.4063 81.8103C54.1846 83.1981 53.5576 84.7766 52.9219 86.4637C52.9034 86.5128 52.8746 86.5574 52.8376 86.5945C52.8005 86.6315 52.7561 86.6602 52.7072 86.6786C52.6583 86.6969 52.6062 86.7045 52.5542 86.7009C52.5023 86.6972 52.4519 86.6824 52.4063 86.6573C51.2774 86.0431 50.127 85.3067 48.9551 84.448C48.941 84.4372 48.929 84.4237 48.9201 84.4084C48.9111 84.3931 48.9052 84.3762 48.9027 84.3588C48.9003 84.3413 48.9013 84.3236 48.9058 84.3067C48.9102 84.2898 48.918 84.274 48.9287 84.2602C51.1611 81.3751 53.4746 78.4342 55.8692 75.4376C56.9883 74.0371 57.9151 72.3804 58.6494 70.4674C60.4951 65.6556 62.3887 61.01 64.3301 56.5307C64.5938 55.9205 64.9629 55.3561 65.4375 54.8378C68.5459 51.4402 72.3809 49.1546 76.9102 48.2802C87.2842 46.2822 96.9668 51.2377 100.485 61.3719C100.538 61.5284 100.536 61.678 100.48 61.8208C100.442 61.9213 100.37 62.0053 100.277 62.0584C100.156 62.1269 100.06 62.2179 99.9873 62.3313C99.9287 62.4252 99.9238 62.521 99.9727 62.6188C100.832 64.348 101.444 66.2336 101.81 68.2756C101.941 69.018 102.337 69.4757 102.762 70.0537C104.206 72.0224 103.825 74.3726 102.574 76.309C102.4 76.5731 102.288 76.8743 102.237 77.2127C101.104 84.7737 94.7285 89.4417 87.2051 89.3889C87.1035 89.387 87.043 89.4359 87.0235 89.5356L86.6309 91.5454C86.6188 91.6074 86.6293 91.6717 86.6604 91.7266C86.6916 91.7815 86.7414 91.8234 86.8008 91.8447C91.1836 93.3821 95.7891 96.2428 97.8281 100.438C99.2256 103.308 99.8496 106.532 100.43 109.748C100.544 110.367 100.726 111.051 100.986 111.623C102.19 114.264 103.453 116.804 104.268 119.656C104.293 119.743 104.299 119.834 104.287 119.924C104.275 120.014 104.244 120.101 104.197 120.179C103.838 120.761 103.353 121.21 102.741 121.525C102.646 121.574 102.596 121.652 102.592 121.76C102.539 123.195 102.65 124.395 102.026 125.68ZM224.892 35.4644C227.719 35.796 229.884 36.5764 232.043 37.9935C232.338 38.1872 232.407 38.1256 232.251 37.8087C232.14 37.5818 231.957 37.3921 231.703 37.2395C228.331 35.2092 224.947 34.9392 220.611 34.5343C219.246 34.4052 217.866 34.1646 216.527 34.0062C216.485 34.0011 216.443 34.0094 216.406 34.03C216.369 34.0505 216.34 34.0823 216.322 34.1206C216.293 34.1852 216.296 34.2419 216.331 34.2908C216.44 34.4434 216.581 34.5285 216.753 34.5461C219.23 34.814 221.942 35.1202 224.892 35.4644ZM190.011 36.4313C190.031 36.369 190.025 36.3014 189.995 36.2434C189.965 36.1854 189.913 36.1418 189.85 36.1222L184.346 34.3841C184.284 34.3644 184.216 34.3703 184.158 34.4005C184.101 34.4307 184.057 34.4827 184.037 34.545L184.034 34.5562C184.014 34.6185 184.02 34.6861 184.05 34.7441C184.08 34.8021 184.132 34.8457 184.195 34.8653L189.699 36.6034C189.761 36.6231 189.829 36.6172 189.887 36.587C189.944 36.5568 189.988 36.5048 190.008 36.4425L190.011 36.4313ZM219.111 40.6547C221.771 39.4498 224.391 38.7183 226.969 38.4601C226.984 38.4586 226.998 38.4542 227.011 38.4471C227.024 38.44 227.036 38.4305 227.045 38.419C227.055 38.4075 227.061 38.3942 227.065 38.3801C227.069 38.366 227.07 38.3513 227.068 38.3368L227.06 38.2635C227.046 38.1578 226.986 38.1099 226.881 38.1197C223.544 38.416 220.875 39.3491 217.729 40.8219C215.205 42.0014 212.404 43.2592 209.326 44.5951C209.182 44.6577 209.117 44.7663 209.133 44.9208L209.142 45.0147C209.143 45.0332 209.149 45.0511 209.159 45.0669C209.169 45.0826 209.183 45.0958 209.199 45.1053C209.215 45.1147 209.233 45.1202 209.251 45.1213C209.27 45.1224 209.289 45.119 209.306 45.1115C212.458 43.6738 215.727 42.1882 219.111 40.6547ZM233.042 44.0171C233.051 44.0762 233.082 44.1298 233.128 44.1669C233.175 44.204 233.234 44.2217 233.294 44.2166L234.015 44.1521C234.075 44.1468 234.131 44.1182 234.171 44.0722C234.211 44.0262 234.232 43.9665 234.229 43.9056L234.009 39.5192C234.007 39.4876 234 39.4566 233.986 39.4281C233.972 39.3996 233.953 39.3741 233.929 39.3533C233.905 39.3325 233.877 39.3167 233.847 39.3069C233.817 39.2971 233.785 39.2935 233.754 39.2963L232.617 39.4077C232.586 39.4106 232.555 39.4199 232.527 39.4351C232.499 39.4502 232.474 39.4709 232.454 39.4959C232.435 39.5209 232.42 39.5496 232.412 39.5803C232.404 39.6111 232.402 39.6432 232.406 39.6747L233.042 44.0171ZM207.898 44.6343C207.909 44.6097 207.916 44.5829 207.918 44.5556C207.919 44.5283 207.916 44.5009 207.907 44.4751C207.898 44.4493 207.883 44.4255 207.865 44.4051C207.847 44.3847 207.825 44.3681 207.8 44.3562L198.566 39.9055C198.542 39.8936 198.515 39.8867 198.488 39.8852C198.46 39.8837 198.433 39.8876 198.407 39.8966C198.381 39.9056 198.358 39.9197 198.337 39.9379C198.317 39.9562 198.3 39.9782 198.288 40.0029L198.286 40.0082C198.274 40.0328 198.267 40.0596 198.266 40.0869C198.264 40.1142 198.268 40.1415 198.277 40.1674C198.286 40.1932 198.3 40.217 198.318 40.2374C198.337 40.2578 198.359 40.2744 198.383 40.2862L207.617 44.737C207.642 44.7488 207.669 44.7557 207.696 44.7573C207.723 44.7588 207.751 44.7549 207.776 44.7459C207.802 44.7368 207.826 44.7228 207.846 44.7046C207.867 44.6863 207.883 44.6642 207.895 44.6396L207.898 44.6343ZM201.029 54.0251C200.883 54.9111 200.496 56.1053 200.543 56.9767C200.546 57.0346 200.571 57.0891 200.613 57.1289C200.655 57.1688 200.711 57.191 200.769 57.1909H200.868C200.97 57.1909 201.021 57.1391 201.023 57.0354C201.047 55.9811 201.197 55.1185 201.475 54.4476C202.078 52.9923 203.211 52.1356 204.873 51.8774C205.324 51.8069 205.775 51.8245 206.221 51.8245C206.381 51.8265 206.407 51.7678 206.3 51.6485C205.853 51.1439 205.559 50.5649 205.418 49.9116C205.412 49.8828 205.4 49.8556 205.383 49.8317C205.366 49.8078 205.344 49.7877 205.319 49.7728C205.294 49.7579 205.266 49.7484 205.237 49.745C205.208 49.7416 205.179 49.7444 205.151 49.7531C204.448 49.9624 203.885 49.7962 203.461 49.2543C203.377 49.1468 203.268 49.1037 203.133 49.1252C202.547 49.2191 201.996 49.5155 201.524 48.9551C201.492 48.9167 201.452 48.8856 201.408 48.8636C201.363 48.8416 201.313 48.8293 201.263 48.8273C201.213 48.8254 201.163 48.8339 201.116 48.8524C201.069 48.8708 201.027 48.8988 200.991 48.9345C199.86 50.0759 198.378 50.6979 196.79 50.3106C195.952 50.1081 195.252 49.5301 194.941 48.7027C194.931 48.6749 194.913 48.6508 194.889 48.6335C194.865 48.6162 194.837 48.6065 194.807 48.6055C194.777 48.6046 194.748 48.6125 194.722 48.6282C194.696 48.644 194.676 48.6668 194.663 48.6939L193.222 51.9302C193.142 52.1062 193.192 52.1629 193.374 52.1003C194.883 51.5722 197.247 51.7365 198.302 53.1214C199.078 54.1424 199.283 55.451 199.477 56.7185C199.484 56.7635 199.511 56.7919 199.556 56.8036C199.565 56.8075 199.575 56.8075 199.585 56.8036C199.651 56.7782 199.688 56.7302 199.696 56.6598C199.784 55.8774 199.919 55.05 200.101 54.1776C200.13 54.0427 200.214 53.9674 200.353 53.9517L200.9 53.8872C200.919 53.885 200.937 53.8872 200.954 53.8935C200.972 53.8998 200.987 53.9101 201 53.9235C201.012 53.9369 201.021 53.9531 201.027 53.9708C201.032 53.9884 201.033 54.007 201.029 54.0251ZM222.688 57.7484C221.578 57.7102 221.15 58.5464 220.09 58.6931C217.473 59.053 214.923 59.4286 212.44 59.8198C212.353 59.834 212.272 59.8717 212.206 59.9288C212.139 59.9858 212.091 60.0598 212.065 60.1425C211.119 63.1382 207.688 63.5313 205.031 62.9181C202.482 62.3313 201.604 60.612 200.856 58.3146C200.796 58.1288 200.657 58.0907 200.44 58.2002C200.394 58.2242 200.352 58.2581 200.319 58.2996C200.287 58.3411 200.263 58.3893 200.25 58.4408L199.248 62.5279C199.219 62.6531 199.268 62.7186 199.395 62.7245L200.912 62.8095C200.966 62.8126 201.019 62.8273 201.066 62.8526C201.114 62.8779 201.156 62.9132 201.188 62.9561C201.221 62.999 201.244 63.0485 201.256 63.1011C201.268 63.1538 201.269 63.2085 201.258 63.2614L201.237 63.3523C201.221 63.4283 201.181 63.497 201.123 63.5487C201.065 63.6004 200.992 63.6323 200.915 63.6399C200.215 63.7044 198.656 63.7367 198.337 62.9269C198.176 62.5103 198.516 62.0643 198.621 61.6594C198.688 61.4012 198.63 61.3699 198.448 61.5655C198.12 61.9205 197.868 62.3284 197.426 62.566C195.812 63.4286 194.06 63.4022 192.229 62.9328C192.08 62.8937 192.023 62.9494 192.059 63.1C193.189 67.683 195.788 70.7539 199.855 72.3129C203.956 73.8836 208.098 73.9207 212.279 72.4244C216.732 70.8312 220.4 66.7793 221.227 62.032C221.236 61.975 221.267 61.9234 221.312 61.8868C221.357 61.8501 221.414 61.8309 221.473 61.8325C223.948 61.9029 225.17 59.6643 224.769 57.3933C224.429 55.4627 222.551 54.4564 220.828 55.4363C220.421 55.6652 220.154 56.0642 219.888 56.4339C219.368 57.1537 219.109 57.0725 219.111 56.1904C219.113 55.6779 219.539 55.0999 220.389 54.4564C220.543 54.339 220.527 54.2529 220.342 54.1982C218.912 53.7639 217.535 53.6084 217.289 51.7747C217.266 51.5908 217.161 51.5057 216.976 51.5194C215.493 51.6192 215.124 51.2319 214.682 49.9057C214.668 49.8669 214.646 49.8317 214.617 49.803C214.588 49.7743 214.552 49.753 214.513 49.7407C214.474 49.7284 214.432 49.7255 214.392 49.7323C214.352 49.739 214.313 49.7552 214.28 49.7795C213.298 50.513 212.266 50.6069 211.184 50.0612C211.158 50.0483 211.129 50.0411 211.1 50.0399C211.072 50.0388 211.043 50.0438 211.016 50.0546C210.989 50.0654 210.965 50.0818 210.945 50.1026C210.925 50.1235 210.909 50.1484 210.899 50.1756C210.633 50.9238 210.064 51.3698 209.379 51.7541C209.248 51.8265 209.246 51.9028 209.373 51.983C209.748 52.2206 210.196 52.3908 210.516 52.7048C211.966 54.1278 212.288 56.4046 212.385 58.3968C212.386 58.4215 212.393 58.4457 212.404 58.4677C212.415 58.4896 212.431 58.5089 212.451 58.5242C212.47 58.5395 212.493 58.5505 212.517 58.5563C212.541 58.5622 212.566 58.5628 212.59 58.5581C214.803 58.1669 217.115 57.8647 219.527 57.6515C220.362 57.5782 221.06 57.2408 221.821 56.9239C222.311 56.7214 222.817 56.9855 222.902 57.5019C222.93 57.6701 222.858 57.7523 222.688 57.7484ZM202.415 54.8818C201.853 56.4016 201.935 58.5112 202.72 59.987C203.681 61.7963 205.347 62.5973 207.718 62.39C209.935 62.1944 211.159 61.0707 211.392 59.0188C211.623 56.9708 211.052 53.4177 208.62 52.7986C206.291 52.203 203.417 52.1884 202.415 54.8818ZM198.366 59.6584C198.771 57.2466 198.604 53.0539 195.498 52.6578C194.514 52.5316 193.119 52.6167 192.741 53.7141C191.88 56.2119 191.487 58.7244 191.563 61.2516C191.566 61.3573 191.596 61.4607 191.651 61.5516C191.705 61.6426 191.782 61.7181 191.874 61.7709C194.139 63.0765 197.827 62.8624 198.366 59.6584ZM191.704 53.8813C191.711 53.8598 191.711 53.8366 191.704 53.815C191.697 53.7935 191.684 53.7746 191.666 53.761C191.648 53.7474 191.626 53.7398 191.604 53.7393C191.581 53.7388 191.559 53.7454 191.54 53.7581C191.196 53.9811 190.927 54.2862 190.731 54.6735C189.968 56.1757 189.908 57.7689 190.553 59.453C190.629 59.6525 190.672 59.6447 190.682 59.4296C190.764 57.5488 191.147 55.7033 191.704 53.8813ZM82.7461 67.9676C82.6654 67.924 82.6024 67.8535 82.5681 67.7683C82.5339 67.683 82.5305 67.5885 82.5586 67.5011C83.8379 63.5127 84.2578 59.4882 83.8184 55.4275C83.7988 55.2554 83.7236 55.1126 83.5928 54.9992C83.5518 54.964 83.5029 54.9464 83.4463 54.9464C83.3291 54.9503 83.2754 55.0109 83.2852 55.1283C83.6455 59.2447 83.3262 63.4697 81.9317 67.2722C81.7617 67.7338 81.4248 67.993 80.9209 68.0497C79.794 68.1788 78.7197 68.2365 77.6983 68.2228C77.5811 68.2209 77.5235 68.2786 77.5254 68.3959L77.584 71.1657C77.586 71.2654 77.6377 71.3182 77.7393 71.3241L80.7158 71.4737C80.8037 71.4796 80.8574 71.4385 80.877 71.3505C81.1914 69.8209 81.8486 68.794 82.8486 68.2698C83.001 68.1896 83.001 68.1074 82.8486 68.0233L82.7461 67.9676ZM95.7569 65.0013C95.6768 61.5821 94.5518 58.5014 92.3818 55.7591C92.3623 55.7337 92.3389 55.7307 92.3115 55.7503C92.2803 55.7718 92.2754 55.7982 92.2969 55.8295C94.0899 58.4408 95.2324 61.231 95.3174 64.4702C95.3262 64.8692 95.2822 65.2859 94.8838 65.4913C92.7236 66.5984 90.5088 67.1519 88.2393 67.1519C88.1552 67.1521 88.0722 67.1337 87.996 67.0979C87.9199 67.0621 87.8526 67.0099 87.7989 66.9448C87.7452 66.8798 87.7064 66.8037 87.6853 66.7218C87.6641 66.6399 87.6612 66.5544 87.6768 66.4712C88.2744 63.3318 88.4063 60.3362 87.8643 57.1117C87.8526 57.0428 87.8235 56.9784 87.7798 56.9248C87.7361 56.8713 87.6793 56.8305 87.6152 56.8065L87.5156 56.7684C87.3731 56.7136 87.3154 56.7615 87.3428 56.9122C87.7842 59.2496 87.8389 61.6653 87.5069 64.1592C87.3526 65.3133 87.0156 66.2306 86.4961 66.9113C86.4024 67.0346 86.4326 67.105 86.5869 67.1226C87.1465 67.1871 87.7822 67.2634 88.2861 67.4923C90.3311 68.4233 91.5322 69.9177 91.8897 71.9755C91.917 72.1319 92.0088 72.216 92.1651 72.2278L92.8125 72.2806C92.8761 72.2852 92.939 72.2661 92.9889 72.2269C93.0388 72.1878 93.072 72.1316 93.082 72.0693C93.4102 70.1299 94.5352 68.2874 96.5508 67.8326C98.0586 67.4903 99.46 67.6126 100.755 68.1994C100.821 68.2307 100.847 68.2101 100.831 68.1377C100.489 66.6179 99.9981 65.0472 99.3574 63.4257C99.3484 63.4026 99.3341 63.382 99.3158 63.3653C99.2975 63.3486 99.2756 63.3364 99.2518 63.3296C99.228 63.3228 99.2029 63.3216 99.1786 63.326C99.1542 63.3305 99.1312 63.3405 99.1113 63.3553C98.1465 64.0771 97.0928 64.6687 95.9502 65.1304C95.9293 65.1388 95.9066 65.142 95.8842 65.1396C95.8617 65.1373 95.8401 65.1294 95.8211 65.1168C95.8022 65.1041 95.7864 65.087 95.7752 65.0669C95.7641 65.0468 95.7578 65.0243 95.7569 65.0013ZM87.7061 76.4821C89.1709 76.1388 90.3633 74.6513 90.4541 73.1549C90.5342 71.8835 90.1445 70.7324 89.2852 69.7016C87.8496 67.9822 85.2451 67.9324 83.6602 69.5461C80.4697 72.7911 83.4229 77.4885 87.7061 76.4821ZM101.71 75.0826C101.889 73.4366 101.613 71.7642 101.057 70.127C100.623 68.8448 98.7012 68.4869 97.6026 68.6776C96.0117 68.9534 94.9951 70.8283 94.6963 72.3363C94.1807 74.9359 96.6182 76.9633 99.0176 76.9134C100.093 76.8929 101.572 76.3237 101.71 75.0826ZM92.4961 77.9579L93.9141 77.6733C93.9807 77.6603 94.0435 77.6323 94.0979 77.5916C94.1522 77.5508 94.1967 77.4983 94.2279 77.438C94.2592 77.3776 94.2764 77.311 94.2784 77.243C94.2804 77.175 94.267 77.1075 94.2393 77.0455C93.8877 76.2611 93.4619 75.4053 92.9619 74.4782C92.8389 74.2474 92.6748 74.086 92.4697 73.9941C92.3955 73.961 92.3154 73.9434 92.2342 73.9421C92.1529 73.9408 92.0723 73.956 91.9971 73.9867C91.9218 74.0173 91.8536 74.0629 91.7964 74.1207C91.7391 74.1784 91.6941 74.2471 91.6641 74.3227C90.9219 76.2005 89.6182 77.376 87.7529 77.8494C84.586 78.6562 81.4688 76.9252 80.7539 73.7124C80.7391 73.6454 80.7023 73.5851 80.6493 73.5411C80.5963 73.497 80.5301 73.4716 80.461 73.4689C79.6133 73.4337 78.8164 73.3496 78.0703 73.2165C77.2188 73.064 76.8086 72.6151 76.8399 71.8698C76.8438 71.7779 76.8174 71.6957 76.7608 71.6234C75.8408 70.4908 74.4873 69.6869 73.1045 70.5789C72.3408 71.0718 71.9961 71.8454 72.0703 72.8997C72.1904 74.5721 73.5967 75.8102 75.208 76.1447C75.257 76.1547 75.3029 76.1759 75.3421 76.2064C75.3812 76.237 75.4126 76.2761 75.4336 76.3208C76.3945 78.3335 77.5283 80.9154 77.6865 83.1277C77.8291 85.1502 77.7432 87.3918 77.4287 89.8525C77.4259 89.8758 77.4279 89.8994 77.4346 89.9219C77.4413 89.9444 77.4525 89.9652 77.4677 89.9831C77.4828 90.001 77.5015 90.0156 77.5225 90.0259C77.5435 90.0363 77.5665 90.0422 77.5899 90.0432C80.3672 90.1743 83.0156 90.631 85.5352 91.4134C85.6582 91.4525 85.7334 91.4095 85.7608 91.2843C85.9834 90.2848 86.1983 89.3116 86.4053 88.3649C86.46 88.1185 86.541 87.8818 86.6485 87.6549C86.6717 87.6078 86.7067 87.5678 86.7499 87.5389C86.7932 87.5101 86.8431 87.4934 86.8945 87.4906C87.043 87.4828 87.168 87.5219 87.2695 87.608C87.3496 87.6764 87.3906 87.7635 87.3926 87.8691L87.4014 88.3796C87.4033 88.5009 87.4649 88.5586 87.586 88.5527C94.4356 88.2446 99.8789 84.3688 101.256 77.5706C101.26 77.5504 101.259 77.5293 101.251 77.51C101.244 77.4906 101.231 77.4738 101.214 77.4615C101.197 77.4491 101.177 77.4418 101.156 77.4404C101.135 77.4389 101.113 77.4434 101.095 77.4533C99.3985 78.3951 97.5059 78.5183 95.8477 77.6117C95.625 77.4905 95.3985 77.3721 95.168 77.2567C95.0352 77.1902 94.9658 77.2313 94.96 77.3799C94.8926 78.6504 93.6797 78.6562 92.7451 78.5477C92.5303 78.5242 92.3965 78.4098 92.3438 78.2044C92.3067 78.0675 92.3574 77.9853 92.4961 77.9579ZM214.213 72.6767C214.199 72.6239 214.169 72.6092 214.122 72.6327C211.817 73.7339 209.337 74.3168 206.681 74.3814C206.646 74.3814 206.63 74.399 206.634 74.4342L206.845 75.9921C206.846 76.0025 206.85 76.0125 206.855 76.0214C206.86 76.0304 206.868 76.0381 206.876 76.0442C206.885 76.0502 206.894 76.0545 206.905 76.0566C206.915 76.0588 206.925 76.0588 206.936 76.0567C209.619 75.508 212.089 75.0562 214.693 75.1941C214.807 75.1999 214.849 75.1481 214.819 75.0386L214.213 72.6767ZM207.489 87.2177C207.55 87.2256 207.608 87.2402 207.665 87.2617C207.905 87.3537 208.002 87.5268 207.955 87.7811L206.716 94.676C206.685 94.8462 206.734 94.8746 206.865 94.7611C208.334 93.4878 210.053 92.3308 212.021 91.2902C217.424 88.4324 222.987 86.4989 228.864 84.9673C228.89 84.9606 228.915 84.9477 228.935 84.9297C228.955 84.9117 228.971 84.8891 228.98 84.8639C228.99 84.8386 228.994 84.8114 228.991 84.7845C228.988 84.7576 228.979 84.7318 228.964 84.7091C226.179 80.3844 222.365 77.6704 217.523 76.5672C208.679 74.5574 197.701 79.1169 194.552 87.9248C194.531 87.9806 194.533 88.0421 194.556 88.0967C194.58 88.1513 194.623 88.1948 194.678 88.2182C198.489 89.8613 202.755 91.9973 205.761 94.7142C205.847 94.7924 205.895 94.7728 205.904 94.6555C206.1 92.3161 206.49 89.9346 207.076 87.5111C207.097 87.4205 207.151 87.3406 207.227 87.2865C207.303 87.2325 207.396 87.208 207.489 87.2177ZM200.564 95.2658C195.687 92.7249 190.341 90.6858 184.526 89.1483C183.212 88.8002 181.916 88.4666 180.639 88.1478C180.548 88.125 180.467 88.0734 180.41 88.0011C180.355 87.9307 180.291 87.8769 180.217 87.8397C180.152 87.8084 180.093 87.8163 180.038 87.8632L178.377 89.298C178.37 89.3034 178.365 89.3107 178.363 89.319C178.36 89.3272 178.361 89.3362 178.363 89.3446C178.366 89.353 178.372 89.3606 178.379 89.3664C178.386 89.3722 178.394 89.3759 178.403 89.3772C185.429 90.2427 192.419 92.4022 198.442 96.1929C198.595 96.2888 198.759 96.3689 198.935 96.4335C200.276 96.9294 201.782 97.2228 203.23 97.5484C206.007 98.1705 208.187 97.6922 210.853 96.947C211.235 96.8413 211.541 96.9342 211.77 97.2257C211.849 97.3266 211.96 97.3969 212.085 97.4248C212.21 97.4526 212.341 97.4361 212.455 97.3783C216.494 95.3518 220.536 93.7205 224.581 92.4843C229.575 90.9586 234.585 89.8368 239.61 89.119C239.625 89.1173 239.639 89.1113 239.65 89.1017C239.661 89.092 239.669 89.0793 239.673 89.065C239.677 89.0507 239.676 89.0356 239.671 89.0217C239.666 89.0078 239.657 88.9957 239.646 88.9869C239.026 88.5058 238.435 87.8769 237.87 87.1004C237.812 87.0221 237.734 86.9928 237.639 87.0123C233.713 87.8427 229.711 88.6143 225.932 89.9698C221.711 91.4858 217.468 93.1875 213.202 95.0751C213.169 95.0905 213.132 95.0987 213.095 95.0992C213.058 95.0996 213.021 95.0923 212.987 95.0776C212.953 95.063 212.922 95.0414 212.897 95.0142C212.871 94.987 212.851 94.9548 212.839 94.9195C212.796 94.8022 212.812 94.6956 212.889 94.5997C213.1 94.3357 213.338 94.1401 213.604 94.0129C217.418 92.1958 221.431 90.542 225.642 89.0515C229.28 87.7635 233.303 87.0123 237.047 86.0823C237.172 86.0529 237.215 85.9757 237.176 85.8505L236.725 84.4157C236.707 84.3573 236.668 84.3074 236.616 84.2755C236.564 84.2436 236.501 84.2319 236.44 84.2426C232.14 84.9585 227.666 86.2172 223.693 87.4466C219.633 88.7043 215.704 90.3689 211.907 92.4403C210.821 93.031 209.746 93.7273 208.682 94.5293C207.876 95.1367 207.334 95.9318 206.654 96.6535C206.618 96.6916 206.575 96.7215 206.527 96.7413C206.478 96.7611 206.426 96.7704 206.374 96.7684C206.322 96.7665 206.271 96.7534 206.224 96.73C206.178 96.7067 206.136 96.6736 206.104 96.633C205.1 95.3929 203.944 94.3445 202.638 93.4877C196.336 89.3566 189.316 86.9859 181.948 85.5659C181.868 85.5502 181.805 85.5757 181.758 85.6422L180.612 87.2324C180.577 87.2813 180.589 87.3126 180.647 87.3263C182.983 87.8231 185.633 88.5292 188.596 89.4447C192.803 90.7435 196.52 92.2662 199.746 94.0129C200.217 94.2672 200.557 94.6203 200.766 95.0721C200.889 95.3342 200.821 95.3988 200.564 95.2658ZM71.8623 93.1122C73.5088 91.1845 73.8428 87.0622 73.8252 84.5184C73.8252 84.4226 73.7774 84.3805 73.6817 84.3923L73.5908 84.404C73.4268 84.4236 73.3408 84.5155 73.333 84.6798C73.2598 86.1732 72.7822 93.4848 70.4707 93.1357C69.3223 92.9635 68.2461 92.7239 67.2422 92.4168C67.1663 92.3931 67.0861 92.3868 67.0074 92.3985C66.9288 92.4102 66.8538 92.4395 66.7881 92.4843C64.8682 93.789 63.0137 95.256 61.2246 96.8854C56.9277 100.797 52.7402 104.893 48.6621 109.173C48.4297 109.416 48.4444 109.643 48.7061 109.857C50.8194 111.576 52.9365 113.31 55.0576 115.059C55.7168 115.602 56.6455 116.124 57.4014 116.493C60.2627 117.896 62.9902 119.433 65.584 121.106C65.6692 121.161 65.7718 121.182 65.8712 121.164C65.9707 121.147 66.0596 121.092 66.1201 121.012C68.7529 117.546 71.21 114.155 73.4912 110.84C75.1904 108.365 76.5567 106.186 77.5899 104.303C77.6209 104.246 77.6632 104.196 77.714 104.156C77.7648 104.116 77.8231 104.087 77.8854 104.071C77.9476 104.054 78.0125 104.051 78.0761 104.06C78.1396 104.07 78.2005 104.092 78.2549 104.127L78.3604 104.194C78.6904 104.397 78.7578 104.666 78.5625 105.001C75.1817 110.752 71.2471 116.232 67.21 121.505C67.1997 121.518 67.1928 121.533 67.1899 121.549C67.1871 121.566 67.1883 121.583 67.1935 121.598C67.1988 121.614 67.2078 121.628 67.2199 121.64C67.232 121.651 67.2467 121.659 67.2627 121.663C72.1123 123.068 77.0342 124.055 82.0283 124.627C82.126 124.638 82.2158 124.617 82.2979 124.562C83.1123 124.016 83.958 123.651 84.835 123.465C84.8786 123.456 84.9196 123.436 84.9547 123.408C84.9898 123.379 85.0181 123.342 85.0371 123.3L93.3311 105.218C93.46 104.938 93.6738 104.836 93.9727 104.91C94.0977 104.941 94.2158 105.008 94.3272 105.109C94.409 105.185 94.4649 105.284 94.487 105.393C94.5091 105.502 94.4962 105.615 94.4502 105.717L86.4024 123.4C86.3457 123.523 86.3838 123.597 86.5166 123.62C89.3145 124.128 90.958 126.669 90.5537 129.482C90.5516 129.499 90.5531 129.516 90.558 129.531C90.563 129.547 90.5713 129.562 90.5825 129.574C90.5936 129.586 90.6073 129.596 90.6226 129.603C90.6379 129.609 90.6543 129.612 90.6709 129.611C93.5567 129.521 97.4649 129.054 99.7793 127.209C101.47 125.859 101.827 123.482 101.522 121.431C100.882 117.159 100.027 112.404 98.959 107.166C98.1885 103.402 96.9932 99.6111 94.0694 97.0702C89.5899 93.1826 83.4815 91.2726 77.6279 91.029C77.5482 91.0249 77.4701 91.052 77.4099 91.1046C77.3498 91.1571 77.3124 91.2311 77.3057 91.3107L77.0684 93.7342C77.0631 93.7892 77.0369 93.8399 76.9952 93.8756C76.9536 93.9112 76.8999 93.9289 76.8457 93.9249C75.211 93.8154 73.584 93.6384 71.9649 93.3939C71.9349 93.3894 71.9067 93.377 71.8833 93.3578C71.8598 93.3386 71.842 93.3133 71.8315 93.2846C71.8211 93.2559 71.8184 93.2248 71.8238 93.1945C71.8292 93.1641 71.8425 93.1357 71.8623 93.1122ZM122.18 96.3191C122.119 96.3641 122.062 96.413 122.007 96.4658C121.88 96.5929 121.898 96.6203 122.063 96.5479C127.734 94.0697 133.648 93.0203 139.805 93.3997C148.441 93.9337 157.354 96.2399 165.627 99.1211C165.659 99.1331 165.694 99.138 165.729 99.1354C165.764 99.1329 165.798 99.123 165.829 99.1064C169.62 97.0917 173.64 96.0345 177.888 95.9347C177.912 95.934 177.935 95.9284 177.957 95.9183C177.978 95.9082 177.998 95.8938 178.014 95.876C178.03 95.8581 178.042 95.8372 178.049 95.8145C178.057 95.7918 178.06 95.7678 178.058 95.744C178.031 95.3773 177.835 95.0868 177.457 94.99C176.971 94.8667 176.478 94.7621 175.978 94.676C165.463 92.8921 154.901 91.5806 144.261 91.2256C140.587 91.1043 137.448 91.1728 134.845 91.431C130.198 91.8946 125.977 93.5239 122.18 96.3191ZM122.265 97.5602C121.876 97.7421 121.89 97.7822 122.306 97.6805C125.556 96.8785 128.804 96.4501 132.05 96.3954C140.774 96.2487 149.605 96.9294 158.221 98.3172C159.349 98.4991 160.421 98.7954 161.558 98.9656C161.585 98.9695 161.603 98.9577 161.61 98.9304V98.9274C161.616 98.9 161.605 98.8815 161.578 98.8717C154.055 96.5538 146.537 94.6144 138.595 94.277C132.87 94.0345 127.427 95.1288 122.265 97.5602ZM172.767 98.0061C174.327 97.8321 176.136 97.7255 178.192 97.6863C178.327 97.6844 178.387 97.615 178.371 97.478L178.351 97.3284C178.339 97.2208 178.278 97.166 178.169 97.1641C175.946 97.1211 173.752 97.388 171.586 97.9651C171.297 98.0414 171.302 98.0785 171.601 98.0766C171.987 98.0707 172.376 98.0472 172.767 98.0061ZM161.484 99.6873V99.6844C161.484 99.6551 161.471 99.6394 161.443 99.6375C158.49 99.3382 155.171 98.7485 152.666 98.4785C146.525 97.8213 140.828 97.435 135.574 97.3196C130.239 97.1993 125.074 97.5015 120.111 99.438C119.551 99.657 119.571 99.7763 120.173 99.7959C121.857 99.8487 123.627 99.7519 125.373 99.7636C133.975 99.8184 142.476 99.8174 150.876 99.7607C153.571 99.7431 157.898 99.8722 161.44 99.7314C161.47 99.7314 161.484 99.7167 161.484 99.6873ZM206.382 99.0331C204.246 99.1739 202.351 98.4756 200.306 97.8947C200.278 97.8873 200.249 97.8895 200.224 97.9007C200.198 97.9119 200.177 97.9315 200.165 97.9563L200.112 98.0619C200.046 98.1988 200.082 98.2976 200.221 98.3582C203.879 99.9837 207.513 100.039 211.122 98.5255C211.139 98.5181 211.155 98.5071 211.167 98.4933C211.18 98.4795 211.189 98.4632 211.195 98.4454C211.201 98.4277 211.203 98.4089 211.201 98.3904C211.199 98.3718 211.193 98.3538 211.184 98.3377L211.131 98.2526C211.095 98.1911 211.038 98.144 210.971 98.1189C210.904 98.0939 210.83 98.0924 210.762 98.1147C209.15 98.6409 207.69 98.947 206.382 99.0331ZM178.778 99.5377L178.74 98.681C178.74 98.6679 178.737 98.655 178.732 98.643C178.726 98.6311 178.719 98.6203 178.709 98.6113C178.699 98.6023 178.688 98.5953 178.676 98.5906C178.664 98.586 178.651 98.5838 178.638 98.5841L178.573 98.5871C176.22 98.6899 173.966 98.8432 172.306 99.0132C170.645 99.1833 169.715 99.3561 169.72 99.4937L169.723 99.5113C169.723 99.5796 169.954 99.6373 170.401 99.6809C170.848 99.7245 171.504 99.7533 172.33 99.7655C173.156 99.7778 174.137 99.7733 175.216 99.7523C176.294 99.7314 177.45 99.6943 178.617 99.6433L178.682 99.6404C178.695 99.64 178.708 99.6371 178.72 99.6317C178.731 99.6263 178.742 99.6187 178.751 99.6091C178.76 99.5996 178.767 99.5884 178.772 99.5761C178.777 99.5639 178.779 99.5508 178.778 99.5377ZM216.709 117.482C215.423 111.641 214.005 106.139 212.364 100.535C212.358 100.514 212.348 100.495 212.333 100.479C212.318 100.464 212.3 100.452 212.279 100.444C212.259 100.437 212.237 100.434 212.215 100.437C212.193 100.439 212.172 100.447 212.153 100.459L212.077 100.509C211.948 100.595 211.906 100.712 211.951 100.861C213.582 106.246 215.012 111.876 216.24 117.752C216.245 117.775 216.255 117.796 216.269 117.815C216.284 117.833 216.302 117.848 216.323 117.859C216.343 117.869 216.366 117.875 216.39 117.875C216.413 117.875 216.436 117.87 216.457 117.861L216.536 117.826C216.687 117.759 216.744 117.645 216.709 117.482ZM199.386 101.823C200.622 106.506 201.856 111.874 203.089 117.928C203.12 118.087 203.218 118.169 203.382 118.175L203.47 118.178C203.492 118.178 203.514 118.173 203.535 118.164C203.555 118.155 203.573 118.141 203.587 118.125C203.602 118.108 203.612 118.088 203.617 118.067C203.623 118.045 203.624 118.023 203.619 118.002C202.514 112.691 201.308 107.427 200.001 102.211C199.878 101.72 199.726 101.202 199.544 100.659C199.524 100.599 199.483 100.549 199.429 100.519C199.375 100.488 199.311 100.479 199.251 100.494L199.163 100.518C199.145 100.522 199.127 100.53 199.112 100.542C199.097 100.553 199.084 100.567 199.075 100.584C199.066 100.6 199.06 100.619 199.058 100.638C199.056 100.657 199.058 100.676 199.063 100.694C199.177 101.063 199.284 101.44 199.386 101.823ZM119.203 102.891C139.201 103.006 159.202 102.9 179.165 102.827C179.358 102.827 179.44 102.731 179.411 102.539L179.224 101.366C179.211 101.282 179.168 101.206 179.105 101.151C179.041 101.095 178.959 101.064 178.875 101.063C158.984 100.915 139.912 100.901 121.658 101.022C121.082 101.024 120.471 101.036 119.824 101.058C119.66 101.061 119.553 101.143 119.502 101.301L119.045 102.671C118.996 102.816 119.049 102.889 119.203 102.891ZM118.266 110.402C116.669 107.386 116.669 104.226 118.075 101.204C118.084 101.185 118.088 101.164 118.085 101.143C118.083 101.123 118.075 101.103 118.063 101.086C118.05 101.07 118.033 101.057 118.013 101.049C117.994 101.041 117.973 101.039 117.952 101.043C116.514 101.325 115.471 103.449 115.28 104.658C114.97 106.629 115.417 108.389 116.622 109.936C117.009 110.432 117.53 110.664 118.163 110.593C118.185 110.591 118.205 110.583 118.223 110.571C118.241 110.559 118.256 110.543 118.266 110.524C118.276 110.505 118.281 110.484 118.281 110.463C118.281 110.442 118.276 110.421 118.266 110.402ZM155.713 106.747C163.232 106.741 170.861 106.753 178.6 106.785C178.675 106.785 178.749 106.759 178.807 106.711C178.866 106.663 178.905 106.595 178.919 106.521C179.042 105.846 179.327 105.292 179.774 104.86C179.832 104.805 179.872 104.735 179.889 104.658C179.907 104.581 179.903 104.5 179.876 104.426C179.849 104.351 179.801 104.285 179.738 104.237C179.675 104.189 179.599 104.16 179.52 104.153C179.172 104.126 178.818 104.11 178.459 104.106C158.211 103.92 138.479 103.858 119.262 103.918C118.832 103.918 118.588 104.132 118.529 104.561C118.439 105.21 118.377 105.657 118.342 105.902C118.283 106.328 118.469 106.544 118.898 106.55C131.971 106.689 144.242 106.754 155.713 106.747ZM240.647 115.126C241.695 115.183 242.724 114.797 243.508 114.053C244.291 113.309 244.765 112.268 244.825 111.16C244.885 110.051 244.526 108.965 243.828 108.141C243.129 107.316 242.147 106.821 241.099 106.764C240.051 106.708 239.022 107.094 238.238 107.837C237.455 108.581 236.981 109.622 236.921 110.731C236.861 111.84 237.22 112.926 237.919 113.75C238.617 114.574 239.599 115.069 240.647 115.126ZM176.774 110.628C176.831 110.628 176.886 110.61 176.931 110.578C176.976 110.545 177.01 110.499 177.026 110.446C177.274 109.703 177.656 109.002 178.172 108.343C178.181 108.332 178.186 108.318 178.188 108.304C178.189 108.29 178.187 108.276 178.181 108.263C178.175 108.25 178.165 108.239 178.153 108.232C178.141 108.224 178.127 108.22 178.113 108.219C158.584 107.865 138.819 107.631 118.819 107.515C118.673 107.513 118.622 107.582 118.667 107.721C118.919 108.51 119.074 109.461 119.449 110.212C119.704 110.728 120.196 110.599 120.683 110.599C138.919 110.66 157.616 110.669 176.774 110.628ZM182.04 114.773C182.94 114.627 183.745 114.122 184.276 113.369C184.808 112.616 185.023 111.677 184.875 110.758C184.801 110.303 184.64 109.867 184.402 109.475C184.163 109.082 183.851 108.741 183.484 108.47C183.117 108.2 182.701 108.005 182.261 107.898C181.821 107.791 181.365 107.773 180.919 107.845C180.019 107.991 179.214 108.496 178.683 109.249C178.151 110.002 177.936 110.941 178.084 111.86C178.158 112.315 178.319 112.751 178.557 113.143C178.796 113.536 179.108 113.877 179.475 114.148C179.842 114.418 180.258 114.613 180.698 114.72C181.138 114.827 181.594 114.845 182.04 114.773ZM167.81 117.928C167.817 118.233 167.668 118.384 167.361 118.38C162.762 118.327 158.101 118.213 153.554 118.207C141.487 118.189 128.952 118.16 115.948 118.119C115.943 118.119 115.938 118.121 115.933 118.124C115.929 118.127 115.925 118.131 115.922 118.136C115.92 118.141 115.918 118.146 115.918 118.152C115.918 118.158 115.919 118.164 115.922 118.169C116.264 118.804 116.613 119.432 116.971 120.052C116.994 120.09 117.027 120.108 117.07 120.108C127.139 120.114 137.138 120.158 147.067 120.24C149.13 120.256 151.088 120.251 152.941 120.226C164.383 120.063 175.478 119.893 186.226 119.715C186.386 119.713 186.477 119.633 186.498 119.474L186.686 118.092C186.692 118.04 186.682 117.987 186.656 117.941C186.63 117.896 186.59 117.86 186.542 117.84C185.14 117.236 183.729 116.587 182.309 115.895C182.004 115.746 181.681 115.695 181.339 115.742C180.551 115.848 179.786 115.484 179.077 115.156C177.896 114.608 177.196 113.686 176.98 112.389C176.972 112.341 176.949 112.298 176.914 112.266C176.878 112.234 176.833 112.215 176.786 112.213C175.222 112.131 173.618 112.085 171.976 112.075C153.062 111.954 134.824 111.85 117.264 111.764C117.054 111.763 116.848 111.823 116.672 111.937C116.497 112.052 116.358 112.215 116.273 112.406L115.869 113.325C115.732 113.638 115.834 113.797 116.174 113.803C122.803 113.95 128.973 114.109 134.684 114.281C135.221 114.297 135.765 114.38 136.315 114.531C136.388 114.55 136.454 114.585 136.51 114.634C136.566 114.684 136.611 114.745 136.639 114.814C136.668 114.884 136.68 114.959 136.675 115.034C136.67 115.108 136.649 115.181 136.611 115.246C136.477 115.481 136.279 115.595 136.02 115.587C129.02 115.393 122.271 115.194 115.775 114.988C115.604 114.984 115.522 115.068 115.532 115.238L115.608 116.655C115.616 116.819 115.703 116.902 115.869 116.904C129.771 116.951 143.606 116.989 157.374 117.019C158.016 117.022 158.584 117.274 159.231 117.289C161.69 117.337 164.422 117.398 167.426 117.47C167.658 117.476 167.784 117.595 167.804 117.826C167.808 117.859 167.81 117.893 167.81 117.928ZM61.5059 120.484L62.0244 120.475C62.374 120.471 62.3975 120.382 62.0947 120.208C60.4678 119.265 58.7451 118.316 56.9268 117.362C55.8194 116.781 54.7559 116.053 53.7305 115.361C53.6055 115.277 53.5029 115.297 53.4229 115.423C52.0811 117.523 50.8272 119.829 50.3848 122.256C49.7695 125.627 52.4971 126.777 55.0899 127.69C56.7676 128.28 58.5186 128.764 60.3428 129.139C67.1611 130.544 74.0899 131.082 81.1289 130.756C81.2871 130.75 81.4209 130.804 81.5303 130.917C83.1094 132.54 85.0254 133.347 87.2139 132.39C88.7217 131.731 89.5313 130.498 89.6426 128.69C89.8154 125.915 87.2842 124.125 84.7295 124.544C84.0293 124.659 83.4375 125.037 82.8369 125.398C82.6846 125.488 82.5215 125.526 82.3477 125.513C79.2217 125.246 76.1279 124.803 72.9404 124.049C70.2158 123.405 67.4658 122.758 64.6904 122.106C63.5684 121.842 61.6436 122.329 61.2803 120.771C61.2724 120.737 61.2723 120.702 61.2799 120.667C61.2875 120.633 61.3027 120.601 61.3244 120.573C61.346 120.546 61.3735 120.523 61.4049 120.508C61.4364 120.492 61.4708 120.484 61.5059 120.484ZM101.73 115.678C101.588 115.379 101.533 115.394 101.566 115.725C101.725 117.233 102.105 118.759 102.325 120.202C102.374 120.523 102.51 120.566 102.732 120.331L103.02 120.029C103.248 119.788 103.306 119.512 103.192 119.199C102.726 117.912 102.238 116.738 101.73 115.678ZM217.904 120.718C217.793 121.49 217.705 122.03 217.11 122.617C215.194 124.506 212.268 125.108 209.59 124.932C207.076 124.767 203.88 123.526 203.496 120.692C203.483 120.594 203.435 120.504 203.361 120.438C203.287 120.371 203.191 120.334 203.092 120.331C201.271 120.284 199.463 120.214 197.666 120.12C194.166 119.938 190.847 119.318 187.708 118.26C187.693 118.255 187.678 118.253 187.663 118.255C187.647 118.257 187.632 118.262 187.619 118.27C187.606 118.278 187.595 118.289 187.587 118.302C187.578 118.315 187.573 118.33 187.57 118.345C187.386 119.648 187.081 120.968 187.295 122.282C188.063 126.991 192.34 128.529 196.521 128.992C204.176 129.837 212.265 128.045 219.27 124.785C220.359 124.277 221.241 123.494 222.381 123.204C224.798 122.587 229.802 121.452 231.111 119.102C231.122 119.083 231.127 119.063 231.127 119.042C231.126 119.021 231.121 119 231.11 118.982C231.099 118.964 231.084 118.949 231.066 118.938C231.048 118.928 231.027 118.923 231.006 118.923C229.333 118.943 227.827 118.891 226.037 119.237C223.49 119.728 220.87 120.133 218.177 120.451C218.019 120.469 217.928 120.558 217.904 120.718ZM275.725 130.483C278.08 126.912 278.247 122.502 276.437 118.53C276.386 118.419 276.302 118.327 276.197 118.265C276.091 118.204 275.969 118.176 275.848 118.186C274.57 118.289 273.226 118.53 271.998 118.917C266.828 120.544 262.055 123.03 257.678 126.375C256.371 127.373 255.22 128.564 253.822 129.438C253.754 129.482 253.705 129.55 253.686 129.628C253.667 129.706 253.679 129.789 253.72 129.858C258.489 138.015 270.51 138.393 275.725 130.483ZM98.792 133.646C98.7959 133.726 98.8369 133.758 98.9151 133.743C103.88 132.651 108.6 131.482 113.074 130.236C113.393 130.146 113.702 130.021 114.003 129.861C114.045 129.838 114.081 129.805 114.106 129.765C114.132 129.725 114.147 129.679 114.149 129.632C114.202 128.62 114.454 127.863 115.207 127.153C116.918 125.539 118.101 123.588 118.755 121.299C118.79 121.172 118.742 121.111 118.611 121.115C115.795 121.21 113.605 122.112 112.04 123.82C111.372 124.547 110.66 124.923 109.726 125.216C107.013 126.067 104.414 126.44 101.687 126.833C101.557 126.852 101.44 126.919 101.361 127.021C100.727 127.836 99.8887 128.464 98.8477 128.904C98.7888 128.93 98.7389 128.972 98.7044 129.027C98.6699 129.081 98.6524 129.145 98.6543 129.21L98.792 133.646ZM118.017 125.401C118.011 125.411 118.007 125.422 118.007 125.433C118.006 125.444 118.009 125.455 118.014 125.465C118.019 125.474 118.027 125.482 118.036 125.487C118.045 125.493 118.056 125.495 118.066 125.495C121.74 125.511 125.573 125.509 129.565 125.489C148.628 125.393 167.853 125.293 187.239 125.187C187.249 125.187 187.258 125.184 187.266 125.179C187.275 125.175 187.281 125.168 187.286 125.159C187.29 125.151 187.292 125.141 187.292 125.132C187.292 125.122 187.289 125.113 187.283 125.105C186.629 124.082 186.314 122.884 186.337 121.511C186.339 121.333 186.251 121.243 186.073 121.241C175.649 121.161 165.009 121.201 154.151 121.361C152.977 121.379 151.799 121.531 150.636 121.546C140.333 121.655 130.236 121.678 120.346 121.613C120.129 121.611 119.919 121.651 119.716 121.734C119.624 121.773 119.565 121.84 119.54 121.936C119.222 123.159 118.714 124.314 118.017 125.401ZM54.4512 128.464C52.957 127.951 51.0908 127.068 50.1797 125.832C50.17 125.82 50.1573 125.811 50.1428 125.805C50.1284 125.799 50.1127 125.797 50.0975 125.799C50.0823 125.801 50.068 125.807 50.0562 125.817C50.0444 125.826 50.0354 125.839 50.0303 125.853L44.0625 141.383C43.9668 141.635 44.0469 141.805 44.3027 141.893L70.0986 150.707C70.2022 150.744 70.2822 150.715 70.3389 150.619C73.9717 144.331 77.4688 138.091 80.8301 131.9C80.8393 131.882 80.8438 131.861 80.843 131.841C80.8422 131.82 80.8361 131.801 80.8254 131.783C80.8148 131.766 80.7998 131.752 80.7821 131.743C80.7645 131.733 80.7446 131.729 80.7246 131.73C76.9141 131.882 73.0547 131.774 69.1465 131.404C64.1367 130.932 59.2471 130.116 54.4512 128.464ZM173.769 131.401L115.649 130.923C115.627 130.923 115.606 130.928 115.586 130.937C115.566 130.947 115.548 130.961 115.535 130.978C115.521 130.995 115.511 131.015 115.506 131.037C115.501 131.058 115.501 131.08 115.506 131.102C116.107 133.604 117.727 134.855 120.363 134.855C143.66 134.849 166.702 134.786 189.489 134.667C189.649 134.665 189.74 134.585 189.762 134.426L190.562 128.356C190.577 128.248 190.537 128.169 190.441 128.118C189.811 127.778 189.213 127.398 188.648 126.98C188.344 126.751 188.007 126.774 187.646 126.771C169.184 126.582 145.843 126.517 117.624 126.578C117.187 126.58 116.791 126.795 116.438 127.223C115.809 127.984 115.458 128.853 115.386 129.829C115.383 129.859 115.387 129.89 115.397 129.919C115.407 129.948 115.423 129.975 115.444 129.998C115.465 130.02 115.491 130.038 115.519 130.051C115.547 130.063 115.578 130.069 115.608 130.069L173.61 130.386C173.939 130.388 174.106 130.553 174.114 130.882L174.12 131.043C174.126 131.284 174.009 131.403 173.769 131.401ZM121.515 154.313L121.752 154.137C121.787 154.111 121.816 154.079 121.836 154.041C121.857 154.004 121.869 153.962 121.872 153.92C122.089 151.171 122.651 148.583 121.819 145.898C121.794 145.82 121.754 145.747 121.7 145.684C121.646 145.622 121.58 145.571 121.506 145.534C120.492 145.047 119.528 144.631 119.238 143.41C118.572 140.607 119.179 138.19 121.058 136.157C121.069 136.145 121.077 136.129 121.08 136.112C121.083 136.095 121.082 136.077 121.075 136.061C121.069 136.046 121.058 136.032 121.044 136.022C121.03 136.012 121.013 136.006 120.996 136.005C117.639 135.849 114.823 134.784 114.173 131.049C114.169 131.026 114.16 131.004 114.147 130.985C114.134 130.965 114.117 130.949 114.098 130.936C114.079 130.924 114.057 130.916 114.035 130.912C114.012 130.909 113.989 130.911 113.968 130.917C108.937 132.327 103.922 133.572 98.9238 134.652C98.872 134.663 98.8255 134.692 98.7924 134.734C98.7592 134.777 98.7415 134.83 98.7422 134.884C98.7559 135.846 98.7783 136.822 98.8096 137.812C99.249 152.619 99.7178 167.443 100.216 182.283C100.218 182.339 100.203 182.395 100.172 182.442C100.141 182.489 100.096 182.525 100.043 182.544C98.3477 183.164 96.4873 183.599 94.4619 183.847C94.3428 183.863 94.2832 183.93 94.2832 184.049C94.2461 187.383 94.5127 190.226 95.083 192.579C95.9209 196.044 98.7393 198.092 102.211 198.802C102.803 198.923 103.36 199.038 103.884 199.148C106.957 199.802 108.542 202.971 107.499 205.838C107.462 205.937 107.497 205.987 107.605 205.987H119.326C119.349 205.987 119.371 205.981 119.391 205.969C119.41 205.956 119.425 205.939 119.435 205.918C119.444 205.897 119.447 205.874 119.443 205.851C119.44 205.829 119.43 205.807 119.414 205.791C117.885 204.145 117.686 202.235 117.888 200.008C118.028 198.46 118.481 197.112 119.247 195.962C119.897 194.988 120.155 194.063 120.328 192.893C120.695 190.416 120.55 188.119 119.892 186.001C119.875 185.947 119.846 185.897 119.805 185.857C119.765 185.817 119.715 185.788 119.66 185.772C118.125 185.334 117.215 184.444 116.93 183.102C116.499 181.086 116.798 178.789 118.022 177.09C118.313 176.689 118.59 176.279 118.852 175.861C118.864 175.841 118.871 175.818 118.872 175.794C118.873 175.77 118.867 175.747 118.856 175.726C118.844 175.706 118.827 175.689 118.807 175.677C118.787 175.665 118.764 175.658 118.74 175.658C116.072 175.695 113.449 175.69 110.871 175.643C110.147 175.632 109.43 175.479 108.864 175.007C105.545 172.222 105.832 167.504 107.742 163.904C108.416 162.639 109.409 161.935 110.722 161.792C111.146 161.745 111.598 161.604 112.022 161.607C115.116 161.627 118.351 161.648 121.726 161.672C121.771 161.672 121.815 161.653 121.848 161.621C121.88 161.588 121.898 161.544 121.898 161.498L121.907 155.205C121.907 155.076 121.847 154.989 121.726 154.944C121.567 154.883 121.464 154.777 121.415 154.624C121.397 154.569 121.397 154.509 121.415 154.453C121.433 154.397 121.468 154.348 121.515 154.313ZM122.481 136.09C122.288 136.665 121.84 137.269 121.48 137.797C120.546 139.173 120.149 140.612 120.29 142.116C120.419 143.511 121.167 144.211 122.534 144.217C143.798 144.305 166.38 144.56 188.338 144.563C188.41 144.563 188.479 144.536 188.533 144.488C188.586 144.44 188.62 144.374 188.628 144.302L189.548 136.404C189.55 136.38 189.548 136.356 189.541 136.334C189.534 136.311 189.522 136.291 189.507 136.273C189.491 136.255 189.472 136.241 189.451 136.231C189.43 136.221 189.407 136.216 189.384 136.216C167.146 136.04 144.907 135.953 122.669 135.955C122.575 135.955 122.513 136 122.481 136.09ZM208.413 140.723C208.412 140.67 208.39 140.62 208.351 140.584C208.313 140.547 208.262 140.528 208.209 140.529L208.162 140.53C208.136 140.531 208.11 140.537 208.086 140.548C208.062 140.559 208.041 140.574 208.023 140.593C208.005 140.612 207.991 140.634 207.981 140.659C207.972 140.683 207.968 140.709 207.968 140.736L208.915 174.669C208.916 174.722 208.939 174.772 208.977 174.808C209.015 174.845 209.067 174.864 209.119 174.863L209.166 174.861C209.192 174.861 209.218 174.855 209.242 174.844C209.266 174.833 209.288 174.818 209.305 174.799C209.323 174.78 209.338 174.758 209.347 174.733C209.356 174.709 209.361 174.683 209.36 174.656L208.413 140.723ZM137.766 148.779C137.221 148.903 136.685 148.959 136.157 148.95C132.198 148.891 128.341 148.863 124.585 148.865C124.351 148.865 124.119 148.864 123.891 148.862C123.748 148.86 123.675 148.93 123.671 149.073L123.647 150.502C123.646 150.643 123.714 150.711 123.853 150.707L134.98 150.513C135.353 150.508 135.725 150.521 136.096 150.555C137.855 150.713 138.36 151.058 137.61 151.59C137.353 151.772 137.066 151.865 136.752 151.869L123.864 151.998C123.573 152.002 123.407 152.149 123.366 152.438L123.193 153.723C123.152 154.025 123.283 154.173 123.586 154.169C148.356 153.926 166.049 154.055 187.289 154.319C187.397 154.321 187.457 154.268 187.471 154.16L188.455 146.042C188.457 146.028 188.456 146.014 188.452 146.001C188.448 145.987 188.441 145.975 188.433 145.964C188.424 145.953 188.413 145.944 188.401 145.937C188.389 145.93 188.375 145.926 188.361 145.925C188.076 145.899 187.789 145.886 187.5 145.884C166.158 145.76 144.842 145.654 123.551 145.564C123.438 145.564 123.392 145.621 123.413 145.734L123.706 147.283C123.733 147.424 123.818 147.494 123.961 147.494C127.424 147.514 130.854 147.541 134.25 147.577C135.303 147.588 136.349 147.642 137.388 147.738C137.754 147.773 138.044 147.952 138.079 148.354C138.088 148.45 138.061 148.547 138.004 148.625C137.946 148.703 137.861 148.758 137.766 148.779ZM85.5878 150.327C85.5942 150.265 85.5761 150.204 85.5374 150.157C85.4988 150.109 85.4428 150.078 85.3818 150.072L85.3701 150.071C85.3399 150.067 85.3093 150.07 85.2802 150.079C85.251 150.088 85.2239 150.102 85.2003 150.121C85.1766 150.14 85.157 150.164 85.1425 150.191C85.128 150.217 85.1189 150.247 85.1157 150.277L81.6681 183.127C81.6617 183.188 81.6798 183.25 81.7184 183.297C81.7571 183.345 81.8131 183.376 81.8741 183.382L81.8858 183.383C81.916 183.386 81.9466 183.384 81.9757 183.375C82.0049 183.366 82.032 183.352 82.0556 183.333C82.0793 183.314 82.0989 183.29 82.1134 183.263C82.1279 183.237 82.137 183.207 82.1402 183.177L85.5878 150.327ZM171.938 157.661C171.938 157.43 172.054 157.315 172.286 157.315L186.844 157.364C187.021 157.364 187.117 157.276 187.131 157.1L187.257 155.633C187.267 155.526 187.218 155.469 187.11 155.463C186.216 155.414 185.134 155.378 183.864 155.355C162.933 154.965 142.689 154.874 123.135 155.082C123.004 155.084 122.938 155.15 122.938 155.281L122.88 161.584C122.88 161.597 122.882 161.609 122.886 161.622C122.891 161.634 122.898 161.645 122.907 161.654C122.916 161.663 122.927 161.671 122.939 161.676C122.951 161.681 122.964 161.683 122.977 161.683L186.141 161.639C186.402 161.639 186.549 161.509 186.58 161.249L186.891 158.711C186.894 158.685 186.891 158.659 186.883 158.635C186.876 158.61 186.863 158.587 186.846 158.568C186.829 158.549 186.809 158.533 186.786 158.522C186.762 158.512 186.737 158.506 186.712 158.506L172.254 158.297C172.045 158.294 171.94 158.187 171.94 157.978L171.938 157.661ZM111.926 174.391C110.546 171.011 110.903 166.56 112.573 163.3C112.845 162.77 112.689 162.567 112.107 162.693C111.387 162.847 110.81 162.97 110.376 163.062C110.11 163.12 109.861 163.239 109.649 163.411C109.438 163.583 109.269 163.802 109.157 164.051C107.944 166.759 108.056 169.588 108.785 172.416C109.257 174.253 110.074 174.49 111.823 174.537C111.841 174.538 111.859 174.533 111.875 174.525C111.891 174.517 111.905 174.505 111.915 174.491C111.925 174.476 111.931 174.459 111.933 174.442C111.935 174.424 111.933 174.407 111.926 174.391ZM114.571 162.751C114.53 162.752 114.489 162.765 114.455 162.79C114.422 162.815 114.397 162.849 114.384 162.889L113.687 165.022C113.677 165.052 113.674 165.084 113.679 165.115C113.684 165.147 113.697 165.176 113.715 165.202C113.734 165.227 113.758 165.248 113.786 165.262C113.814 165.276 113.845 165.284 113.877 165.283L185.941 165.084C185.99 165.084 186.038 165.066 186.075 165.034C186.111 165.001 186.135 164.957 186.141 164.908L186.352 162.98C186.354 162.952 186.351 162.924 186.343 162.898C186.334 162.871 186.32 162.846 186.301 162.826C186.282 162.805 186.259 162.788 186.234 162.777C186.208 162.766 186.18 162.76 186.152 162.76L114.571 162.751ZM182.297 170.694C181.781 170.707 181.218 170.709 180.606 170.7C158.353 170.4 135.69 170.194 112.62 170.081C112.593 170.08 112.566 170.086 112.541 170.097C112.516 170.108 112.493 170.124 112.474 170.144C112.455 170.164 112.44 170.187 112.431 170.213C112.421 170.239 112.417 170.267 112.418 170.295C112.488 171.631 112.744 172.963 113.186 174.291C113.202 174.34 113.229 174.386 113.265 174.423C113.301 174.461 113.345 174.49 113.394 174.508C113.605 174.588 113.821 174.628 114.044 174.628C138.163 174.554 162.263 174.494 186.343 174.449C186.356 174.45 186.369 174.446 186.381 174.439C186.392 174.431 186.401 174.421 186.406 174.409C186.411 174.397 186.413 174.383 186.411 174.37C186.408 174.357 186.402 174.344 186.393 174.335C185.64 173.496 185.505 172.046 185.42 170.978C185.412 170.879 185.376 170.791 185.312 170.714C184.829 170.161 184.826 169.563 185.303 168.922C185.813 168.238 185.836 167.39 185.968 166.589C185.972 166.561 185.971 166.531 185.963 166.503C185.955 166.476 185.942 166.45 185.923 166.428C185.904 166.406 185.881 166.388 185.855 166.376C185.829 166.364 185.8 166.357 185.771 166.357C168.186 166.211 150.085 166.134 131.47 166.128C125.511 166.128 119.536 166.157 113.546 166.213C113.48 166.214 113.417 166.236 113.365 166.276C113.313 166.316 113.275 166.371 113.256 166.434L112.518 168.951C112.509 168.979 112.508 169.008 112.513 169.037C112.518 169.065 112.53 169.092 112.547 169.116C112.564 169.139 112.587 169.158 112.613 169.171C112.639 169.184 112.667 169.191 112.696 169.192C134.763 169.35 156.944 169.49 179.241 169.611C180.185 169.615 181.155 169.649 182.153 169.714C182.264 169.72 182.369 169.766 182.449 169.843C182.53 169.919 182.581 170.022 182.593 170.133L182.613 170.33C182.641 170.567 182.535 170.688 182.297 170.694ZM120.173 175.908C119.607 176.843 119.101 177.759 118.664 178.613C117.788 180.344 117.334 183.891 119.93 184.422C120.352 184.508 120.777 184.552 121.207 184.554C146.193 184.697 171.001 184.812 195.63 184.9C195.721 184.9 195.81 184.871 195.882 184.817C195.955 184.763 196.007 184.687 196.031 184.601C196.371 183.429 196.591 182.177 196.69 180.843C196.796 179.428 196.257 178.146 195.249 177.234C195.08 177.08 194.864 176.989 194.637 176.975C193.052 176.887 190.342 176.943 189.138 176.333C188.61 176.067 188.128 175.933 187.69 175.931C165.409 175.884 143.304 175.82 121.374 175.74C121.056 175.738 120.73 175.748 120.398 175.77C120.301 175.777 120.226 175.823 120.173 175.908ZM235.38 188.512C235.424 188.487 235.459 188.449 235.48 188.403C235.502 188.358 235.508 188.307 235.5 188.257L233.312 175.822C233.308 175.802 233.3 175.782 233.288 175.765C233.275 175.749 233.26 175.735 233.241 175.725C233.223 175.715 233.202 175.71 233.181 175.71C233.161 175.709 233.14 175.714 233.121 175.723C231.205 176.612 228.92 176.876 226.816 176.984C226.793 176.986 226.77 176.993 226.749 177.004C226.728 177.015 226.71 177.03 226.696 177.049C226.682 177.068 226.672 177.089 226.667 177.112C226.662 177.135 226.662 177.158 226.667 177.181C227.448 180.78 228.155 184.304 228.788 187.752C228.961 188.7 229.989 189.014 230.839 189.093C232.348 189.234 234.082 189.266 235.38 188.512ZM198.363 194.767C197.988 195.847 196.942 195.859 195.999 195.888C195.845 195.894 195.762 195.973 195.75 196.126L195.665 197.279C195.653 197.434 195.716 197.476 195.853 197.405C196.585 197.024 197.348 196.612 198.141 196.17C199.734 195.278 201.879 193.383 201.621 191.411C201.419 189.862 201.536 188.445 201.451 186.942C201.279 183.828 201.105 180.659 200.927 177.433C200.925 177.403 200.911 177.374 200.89 177.353C200.868 177.332 200.839 177.319 200.81 177.319L197.063 177.184C196.916 177.18 196.879 177.242 196.951 177.369C198.305 179.78 197.886 182.996 196.778 185.37C196.728 185.479 196.753 185.567 196.855 185.634C200.115 187.784 199.462 191.605 198.363 194.767ZM209.892 205.617L209.417 205.87C209.259 205.954 209.27 205.996 209.449 205.996L219.164 205.94C219.314 205.938 219.388 205.862 219.384 205.711C219.339 203.806 219.388 202.209 219.53 200.92C219.773 198.728 221.613 198.541 223.494 198.764C223.613 198.777 223.726 198.756 223.831 198.699C225.087 198.016 226.226 197.15 227.247 196.099C228.416 194.897 228.779 193.365 228.492 191.728C227.64 186.86 226.778 182.054 225.697 177.228C225.69 177.192 225.67 177.161 225.642 177.138C225.613 177.116 225.578 177.104 225.542 177.105C220.36 177.218 215.152 177.259 209.918 177.228C209.902 177.228 209.886 177.231 209.871 177.237C209.857 177.243 209.843 177.253 209.832 177.264C209.821 177.276 209.812 177.289 209.806 177.304C209.8 177.319 209.797 177.335 209.798 177.351C209.927 182.634 210.086 187.927 210.275 193.23C210.426 197.49 210.355 201.531 210.064 205.353C210.055 205.473 209.997 205.561 209.892 205.617ZM209.174 189.234L208.904 177.483C208.903 177.415 208.874 177.35 208.825 177.303C208.775 177.256 208.709 177.23 208.641 177.231L201.996 177.289C201.981 177.29 201.967 177.293 201.953 177.299C201.939 177.305 201.927 177.314 201.917 177.325C201.907 177.336 201.899 177.349 201.894 177.363C201.889 177.377 201.887 177.392 201.888 177.407C202.089 181.041 202.281 184.681 202.465 188.327C202.515 189.301 204.618 189.824 205.33 189.865C206.492 189.929 207.749 189.753 209.101 189.337C209.122 189.33 209.142 189.316 209.155 189.298C209.168 189.279 209.175 189.257 209.174 189.234ZM93.2842 184.179C93.2836 184.16 93.279 184.142 93.2709 184.125C93.2627 184.108 93.2511 184.093 93.2368 184.081C93.2225 184.069 93.2058 184.06 93.1878 184.055C93.1697 184.049 93.1507 184.047 93.1319 184.049C91.128 184.312 89.1768 184.471 87.2783 184.528C87.2424 184.529 87.2084 184.545 87.1838 184.57C87.1591 184.596 87.1457 184.63 87.1465 184.666C87.166 185.606 87.169 186.548 87.1553 187.491C87.1494 188.075 87.583 188.492 88.1074 188.656C89.7832 189.188 91.5039 189.08 93.2695 188.333C93.3204 188.311 93.3636 188.275 93.3934 188.229C93.4232 188.183 93.4382 188.129 93.4365 188.075L93.2842 184.179ZM78.2227 185.167C78.0742 185.177 77.9893 185.256 77.9678 185.405C77.6319 187.866 77.5596 190.102 77.751 192.115C78.0469 195.237 80.1211 196.707 82.4151 198.376C84.8037 200.117 85.544 202.617 84.6358 205.876C84.6104 205.97 84.6455 206.016 84.7412 206.014L86.5459 205.964C86.5947 205.962 86.6192 205.935 86.6192 205.884L86.1709 184.848C86.169 184.74 86.1133 184.689 86.0039 184.695L78.2227 185.167ZM70.7139 187.67C71.4727 188.01 71.9385 188.404 72.7647 188.53C73.9248 188.71 75.0918 188.727 76.2656 188.583C76.3842 188.568 76.4942 188.513 76.5781 188.428C76.6621 188.343 76.715 188.232 76.7285 188.113L77.0186 185.402C77.0322 185.277 76.9766 185.219 76.8516 185.229C74.9121 185.358 72.9209 185.398 70.8779 185.349C70.7373 185.345 70.6631 185.415 70.6553 185.558L70.5469 187.394C70.5436 187.452 70.5578 187.509 70.5876 187.559C70.6174 187.608 70.6615 187.647 70.7139 187.67ZM136.397 192.514C136.06 192.586 135.662 192.615 135.205 192.599C131.002 192.451 126.611 192.29 122.033 192.118C122.006 192.116 121.98 192.125 121.959 192.143C121.938 192.16 121.925 192.185 121.922 192.212L121.696 194.231C121.692 194.275 121.713 194.298 121.758 194.298C145.791 194.396 169.731 194.51 193.579 194.641C194.813 194.647 196.014 194.613 197.18 194.539C197.281 194.533 197.348 194.482 197.379 194.386C197.824 193.044 198.07 191.563 198.117 189.944C198.161 188.374 197.323 187.274 195.99 186.511C195.621 186.3 195.16 186.194 194.607 186.194C170.148 186.188 145.791 186.085 121.535 185.883C121.496 185.883 121.48 185.903 121.488 185.942L121.913 188.213C121.923 188.258 121.95 188.281 121.995 188.283C126.313 188.422 130.626 188.543 134.933 188.647C135.335 188.657 135.771 188.724 136.242 188.85C136.314 188.868 136.379 188.905 136.432 188.957C136.485 189.009 136.524 189.074 136.544 189.146C136.565 189.217 136.566 189.293 136.549 189.366C136.531 189.438 136.495 189.505 136.444 189.56C136.288 189.726 136.097 189.806 135.87 189.8C131.546 189.696 126.977 189.565 122.162 189.407C122.039 189.403 121.978 189.463 121.978 189.586L121.963 190.774C121.963 190.886 122.019 190.942 122.13 190.944C126.374 191.005 130.581 191.125 134.751 191.305C135.3 191.329 135.829 191.434 136.339 191.622C136.388 191.641 136.433 191.669 136.471 191.705C136.509 191.742 136.54 191.785 136.562 191.833C136.634 192 136.644 192.169 136.591 192.341C136.562 192.437 136.497 192.495 136.397 192.514ZM70.7695 189.24C70.7789 189.227 70.784 189.211 70.7842 189.195C70.7845 189.179 70.7799 189.163 70.771 189.15C70.7621 189.136 70.7493 189.126 70.7344 189.12C70.7195 189.114 70.7032 189.113 70.6875 189.117C70.584 189.14 70.499 189.192 70.4326 189.272C70.3779 189.34 70.3623 189.418 70.3858 189.504C70.419 189.629 70.4746 189.639 70.5527 189.533L70.7695 189.24ZM71.9502 189.97C72.0752 189.812 72.2285 189.773 72.4102 189.853C72.9024 190.076 73.2861 190.936 72.7324 191.288C71.9961 191.755 71.1504 191.587 70.1953 190.783C70.1289 190.728 70.0811 190.74 70.0518 190.818L69.2959 192.831C69.2863 192.856 69.2871 192.884 69.2981 192.909C69.3091 192.934 69.3293 192.953 69.3545 192.963C71.7569 193.887 74.2236 194.603 76.711 193.667C76.7882 193.639 76.8526 193.583 76.8925 193.511C76.9323 193.439 76.9448 193.355 76.9277 193.274C76.6621 192.038 76.5606 190.832 76.6231 189.656C76.624 189.634 76.6202 189.612 76.6118 189.591C76.6035 189.571 76.5909 189.552 76.5748 189.537C76.5587 189.522 76.5395 189.51 76.5185 189.503C76.4975 189.496 76.4752 189.493 76.4531 189.495C74.8613 189.648 73.2744 189.642 71.6924 189.477C71.6639 189.474 71.635 189.477 71.6075 189.485C71.5799 189.493 71.5543 189.506 71.5319 189.524C71.5096 189.542 71.491 189.564 71.4773 189.59C71.4636 189.615 71.4551 189.642 71.4522 189.671C71.4033 190.127 71.5303 190.495 71.833 190.774C71.8494 190.789 71.8693 190.799 71.8908 190.804C71.9123 190.81 71.9347 190.809 71.9559 190.803C71.9772 190.798 71.9967 190.786 72.0126 190.771C72.0285 190.756 72.0403 190.737 72.0469 190.716C72.0977 190.547 72.0654 190.392 71.9502 190.249C71.876 190.157 71.876 190.064 71.9502 189.97ZM90.8291 192.004L93.4014 191.833C93.6553 191.818 93.7373 191.691 93.6475 191.452C93.4424 190.91 93.2998 190.327 93.2197 189.703C93.1924 189.502 93.083 189.432 92.8916 189.495C91.1924 190.055 89.2031 190.123 87.709 189.604C87.5801 189.559 87.5186 189.604 87.5244 189.739C87.5772 191.076 87.5947 192.504 87.5772 194.022C87.5537 196.132 89.8887 197.399 91.7344 196.977C92.6699 196.764 93.6826 196.276 94.7725 195.513C94.8779 195.44 94.9199 195.341 94.8985 195.213C94.8311 194.797 94.4795 194.474 94.0313 194.544C92.9082 194.724 91.836 194.805 90.8145 194.785C90.7638 194.785 90.7147 194.78 90.668 194.77C90.0606 194.657 89.7285 194.425 89.6719 194.075C89.625 193.789 89.7451 193.66 90.0322 193.688C91.3174 193.803 92.5762 193.77 93.8086 193.588C93.959 193.564 94.0264 193.477 94.0108 193.327C94.0088 193.299 94.0029 193.273 93.9932 193.248C93.9111 193.048 93.7617 192.948 93.5449 192.948L90.8233 192.954C90.6299 192.956 90.5283 192.86 90.5186 192.667L90.501 192.376C90.4873 192.141 90.5967 192.017 90.8291 192.004ZM235.497 189.463C234.009 190.275 231.65 190.264 230.177 189.976C229.542 189.851 229.364 190.081 229.644 190.666C229.726 190.84 229.794 190.983 229.849 191.094C230.13 191.683 230.594 192.025 231.24 192.121C232.936 192.371 234.482 192.129 235.881 191.393C235.959 191.352 235.989 191.289 235.972 191.203L235.626 189.521C235.61 189.443 235.567 189.424 235.497 189.463ZM208.969 190.405C206.988 190.98 204.955 191.138 203.147 190.343C203.132 190.336 203.115 190.333 203.098 190.334C203.082 190.335 203.065 190.34 203.05 190.348C203.036 190.357 203.023 190.369 203.013 190.383C203.004 190.397 202.997 190.414 202.995 190.431C202.6 193.418 207.357 192.896 208.954 192.335C209.024 192.31 209.085 192.265 209.128 192.204C209.171 192.144 209.194 192.072 209.194 191.998L209.191 190.572C209.192 190.545 209.186 190.518 209.174 190.494C209.162 190.469 209.144 190.448 209.122 190.432C209.101 190.416 209.075 190.405 209.049 190.4C209.022 190.395 208.995 190.397 208.969 190.405ZM236.153 192.394C234.199 193.218 231.867 193.591 229.925 192.552C229.796 192.484 229.75 192.521 229.787 192.664L230.174 194.128C230.199 194.221 230.252 194.304 230.326 194.365C230.4 194.427 230.491 194.464 230.587 194.471C231.806 194.567 232.849 195.004 233.716 195.783C233.804 195.861 233.905 195.906 234.021 195.918C234.815 196.002 235.61 195.833 236.405 195.41C236.424 195.4 236.439 195.385 236.448 195.366C236.458 195.348 236.463 195.326 236.461 195.304L236.241 192.45C236.241 192.439 236.237 192.43 236.232 192.421C236.227 192.412 236.22 192.405 236.211 192.399C236.203 192.394 236.193 192.391 236.183 192.39C236.173 192.389 236.163 192.39 236.153 192.394ZM203.089 193.048C202.962 192.987 202.875 193.024 202.828 193.157C202.568 193.88 202.184 194.557 201.674 195.187C201.621 195.254 201.633 195.303 201.709 195.337C203.326 196.06 204.568 196.423 205.436 196.425C206.988 196.427 208.221 195.76 209.133 194.424C209.324 194.144 209.407 193.844 209.382 193.523C209.38 193.497 209.372 193.472 209.359 193.449C209.346 193.427 209.329 193.407 209.307 193.392C209.286 193.376 209.262 193.366 209.237 193.361C209.211 193.356 209.185 193.356 209.159 193.362C206.804 193.949 204.78 193.844 203.089 193.048ZM125.666 203.165C125.441 203.167 125.318 203.055 125.297 202.83C125.287 202.713 125.295 202.598 125.32 202.487C125.339 202.407 125.385 202.335 125.449 202.284C125.514 202.233 125.593 202.205 125.675 202.205C145.159 202.211 165.829 202.118 187.685 201.926C187.927 201.925 188.156 201.87 188.373 201.762C188.461 201.719 188.525 201.653 188.566 201.563C188.803 201.025 189.186 200.625 189.715 200.363C191.33 199.568 192.896 198.818 194.414 198.112C194.516 198.063 194.57 197.983 194.578 197.872L194.675 196.117C194.676 196.093 194.672 196.069 194.664 196.047C194.656 196.025 194.643 196.004 194.627 195.987C194.61 195.97 194.59 195.956 194.568 195.946C194.546 195.937 194.523 195.932 194.499 195.932C169.72 195.926 145.581 195.803 122.083 195.563C121.794 195.559 121.515 195.61 121.245 195.715C121.151 195.75 121.079 195.811 121.028 195.897C120.292 197.094 119.73 198.336 119.341 199.623C118.667 201.845 119.105 203.743 120.656 205.315C120.993 205.659 121.304 205.999 121.834 205.999C143.84 206.018 165.991 206.01 188.288 205.973C188.345 205.973 188.378 205.945 188.388 205.89C188.606 204.709 188.771 203.819 188.883 203.22C188.885 203.211 188.884 203.201 188.882 203.191C188.879 203.181 188.874 203.172 188.868 203.165C188.861 203.157 188.853 203.151 188.844 203.147C188.835 203.143 188.825 203.141 188.815 203.141C167.688 203.053 146.639 203.061 125.666 203.165ZM231.258 205.911C231.226 205.471 231.27 205.075 231.19 204.629C231.185 204.594 231.161 204.579 231.12 204.585H231.117C231.08 204.591 231.063 204.612 231.067 204.649C231.105 205.119 231.182 205.532 231.252 205.911C231.258 205.936 231.26 205.936 231.258 205.911Z" fill="#0C446A"/>
<path d="M84.9789 71.8468C84.8531 72.6799 85.2283 73.4276 85.8171 73.5168C86.4058 73.6059 86.9851 73.0028 87.1109 72.1697C87.2367 71.3365 86.8614 70.5888 86.2727 70.4997C85.6839 70.4105 85.1047 71.0136 84.9789 71.8468Z" fill="#0C446A"/>
<path d="M97.0834 71.9288C96.9617 72.7543 97.3236 73.4917 97.8919 73.5758C98.4601 73.6598 99.0194 73.0587 99.1412 72.2331C99.2629 71.4075 98.9009 70.6702 98.3327 70.5861C97.7645 70.5021 97.2051 71.1032 97.0834 71.9288Z" fill="#0C446A"/>
<path d="M74.9025 73.2839C75.5722 73.5741 76.2047 73.602 76.3153 73.3462C76.4258 73.0904 75.9725 72.6478 75.3028 72.3576C74.6331 72.0673 74.0005 72.0394 73.89 72.2952C73.7795 72.551 74.2328 72.9936 74.9025 73.2839Z" fill="#0C446A"/>
<path d="M124.772 140.073C124.7 141.296 125.311 142.327 126.138 142.376C126.965 142.426 127.694 141.474 127.767 140.251C127.839 139.028 127.228 137.997 126.401 137.948C125.574 137.899 124.845 138.85 124.772 140.073Z" fill="#0C446A"/>
<path d="M164.334 156.961L146.918 156.595C146.724 156.591 146.563 156.745 146.559 156.94L146.554 157.198C146.55 157.392 146.704 157.553 146.898 157.557L164.314 157.923C164.508 157.927 164.669 157.773 164.673 157.578L164.678 157.32C164.683 157.126 164.528 156.965 164.334 156.961Z" fill="#0C446A"/>
<path d="M119.835 180.181C119.771 181.359 120.316 182.346 121.051 182.386C121.786 182.426 122.433 181.503 122.497 180.325C122.561 179.147 122.016 178.16 121.281 178.12C120.546 178.08 119.899 179.003 119.835 180.181Z" fill="#0C446A"/>
<path d="M124.154 180.413C124.087 181.602 124.674 182.602 125.464 182.646C126.254 182.69 126.948 181.762 127.014 180.573C127.081 179.384 126.494 178.384 125.704 178.34C124.914 178.296 124.22 179.224 124.154 180.413Z" fill="#0C446A"/>
<path d="M148.778 197.748L126.109 197.589C125.905 197.588 125.739 197.752 125.737 197.957L125.736 198.115C125.735 198.319 125.899 198.486 126.103 198.487L148.772 198.646C148.976 198.647 149.142 198.483 149.144 198.279L149.145 198.12C149.146 197.916 148.982 197.749 148.778 197.748Z" fill="#0C446A"/>
<path d="M189.352 198.913H154.629C154.477 198.913 154.354 199.037 154.354 199.189V199.559C154.354 199.711 154.477 199.834 154.629 199.834H189.352C189.504 199.834 189.627 199.711 189.627 199.559V199.189C189.627 199.037 189.504 198.913 189.352 198.913Z" fill="#0C446A"/>
</g>
<defs>
<clipPath id="clip0_1163_8101">
<rect width="300" height="208" fill="white"/>
</clipPath>
</defs>
</svg>
