<svg width="74" height="77" viewBox="0 0 74 77" fill="none" xmlns="http://www.w3.org/2000/svg">
<g id="Frame" clipPath="url(#clip0_2213_10874)">
<g id="Parent-Group">
<g id="Group-000000">
<path id="Vector" d="M35.3753 0.964185C36.4883 0.761577 37.6256 0.756383 38.7526 0.792748C41.8599 0.907039 44.9958 1.99541 47.2965 4.12365C47.5223 4.34098 47.8531 4.3479 48.137 4.43968C49.6476 4.82845 51.0958 5.56009 52.1776 6.69694C53.1743 7.75673 53.9226 9.10658 54.0546 10.5716C54.0885 10.8435 54.0399 11.1145 53.9661 11.376C53.8992 11.3612 53.7655 11.3335 53.6987 11.3188C53.5979 11.2097 53.6283 11.0504 53.6136 10.9162C53.6066 10.1214 53.3757 9.33949 53.0058 8.63989C52.4519 7.58443 51.6419 6.64152 50.6183 6.01725C51.2538 6.76014 51.8529 7.54373 52.2835 8.42603C52.6542 9.10572 52.8626 9.85467 53.1717 10.5621C53.5658 11.4548 53.7881 12.4392 53.7256 13.4176C53.6848 13.7059 53.6804 14.0653 53.4234 14.2558C53.3279 14.2263 53.2342 14.1934 53.1421 14.1588C53.3097 13.4514 53.3062 12.7024 53.1239 11.9985C53.0814 12.8851 52.7983 13.7839 52.1906 14.4497C51.6879 15.0038 51.0558 15.5268 50.2918 15.6342C50.1017 15.6628 50.0131 15.4827 49.928 15.3519C50.1008 15.1848 50.3022 15.0298 50.37 14.7874C50.0218 14.9129 49.6667 15.048 49.3698 15.2723C49.3333 15.3718 49.3229 15.4783 49.316 15.584C49.2639 17.6265 48.8697 19.6491 48.2776 21.6007C48.1543 21.999 48.2854 22.412 48.3306 22.8129C48.4825 24.0104 48.8454 25.1827 49.4193 26.2468C50.1729 27.6885 50.9274 29.1864 51.0888 30.828C51.1244 31.3441 51.3667 31.8107 51.4847 32.3086C51.6948 33.0368 51.7982 33.8602 51.4318 34.5581C51.3684 34.7191 51.1783 34.6351 51.0532 34.6533C51.101 34.184 51.2382 33.7269 51.2521 33.2524C51.0793 33.6905 51.0654 34.1979 50.7589 34.5762C50.5592 34.8308 50.3543 35.0828 50.1338 35.32C50.034 35.3442 49.9367 35.3737 49.8412 35.4075C49.8586 35.7148 50.0209 35.9841 50.1581 36.2517C52.3 40.3125 54.4236 44.388 56.2894 48.5839C57.2704 50.816 58.5623 52.8966 59.5451 55.1279C60.1329 56.5107 60.4784 57.9947 60.5696 59.4944C60.5844 59.8546 60.5765 60.2182 60.6408 60.5749C61.6705 60.7057 62.7097 60.5256 63.7403 60.6087C64.0884 60.9273 64.1744 61.4183 64.2647 61.8599C66.2945 61.8443 68.3252 61.8417 70.3551 61.8486C71.377 61.8798 72.4023 61.8192 73.4225 61.9031C73.3938 62.0651 73.4181 62.3023 73.1889 62.2945C72.536 62.3387 71.8797 62.2988 71.225 62.3006C68.0413 62.3118 64.8576 62.3058 61.6748 62.3802C60.5088 62.3482 59.342 62.3811 58.1768 62.3369C59.0798 62.4755 59.994 62.4486 60.9047 62.4824C60.9186 62.5716 60.9455 62.7499 60.9586 62.84C59.7778 62.8997 58.6023 62.7335 57.4206 62.7577C56.0003 62.7361 54.5799 62.6963 53.1604 62.6383C51.8329 62.588 50.5045 62.659 49.1771 62.6227C47.7888 62.6339 46.4005 62.5924 45.0123 62.6157C45.0166 62.6599 45.0262 62.7473 45.0305 62.7915C45.8588 62.8253 46.6888 62.8417 47.5188 62.8409C48.6197 62.8287 49.7197 62.8928 50.8206 62.8746C53.5979 62.8815 56.3762 62.8218 59.1527 62.9292C59.3289 62.9179 59.803 63.0331 59.5373 63.2539C59.3012 63.3197 59.0502 63.2842 58.8089 63.2911C55.5688 63.2478 52.3286 63.3032 49.0876 63.2807C47.7254 63.2288 46.3624 63.2175 45.0001 63.1872C45.0218 63.24 45.0661 63.3448 45.0887 63.3976C45.4299 63.4721 45.7833 63.4348 46.1305 63.4461C48.3028 63.4963 50.4768 63.4824 52.6499 63.5119C54.6736 63.4868 56.6983 63.4781 58.7229 63.4824C61.0957 63.4902 63.4677 63.4089 65.8413 63.4218C68.2419 63.414 70.6433 63.4123 73.0448 63.4435C73.2722 63.4799 73.6126 63.3907 73.7281 63.6521C73.7159 63.8271 73.5666 63.9292 73.3981 63.9102C70.0122 63.8669 66.6236 63.8712 63.2376 63.8911C60.7346 63.9561 58.2307 63.9076 55.7276 63.9439C53.1361 63.9413 50.5445 63.989 47.9538 63.95C41.8755 63.9154 35.7981 63.9318 29.7207 63.9223C26.1029 63.9361 22.4851 63.9968 18.8664 63.9682C16.8253 63.9691 14.7833 63.8955 12.743 63.9699C12.7022 64.6132 12.8038 65.254 12.8064 65.8964C12.8307 66.0644 12.677 66.1804 12.5259 66.2055C12.4296 66.1302 12.3636 66.0246 12.3627 65.9025C12.2776 65.2592 12.3288 64.6046 12.2195 63.9639C11.5952 63.9682 10.9692 63.9509 10.3467 64.002C10.3181 64.634 10.3928 65.2652 10.365 65.8964C10.378 66.0367 10.2643 66.1891 10.1115 66.1397C9.87965 66.1432 9.92393 65.8722 9.9057 65.7172C9.89441 65.1457 9.89354 64.5743 9.86663 64.0028C6.86612 64.06 3.86736 64.2522 0.865115 64.1855C0.880743 64.9639 0.874665 65.7475 0.975376 66.5216C2.94533 66.583 4.91701 66.4713 6.88696 66.564C7.87324 66.5761 8.85865 66.5692 9.84492 66.5718C13.1128 66.6566 16.3807 66.68 19.6487 66.738C25.3223 66.7458 30.9943 66.7112 36.6671 66.7475C41.7617 66.7389 46.8537 66.7813 51.9475 66.7423C57.0117 66.7146 62.0759 66.7328 67.1393 66.7337C69.1101 66.7432 71.0818 66.706 73.0517 66.7735C73.2879 66.7536 73.3096 67.0939 73.1325 67.1909C70.6173 67.1761 68.1004 67.1571 65.5852 67.1813L65.6364 67.0411C65.6156 67.0766 65.5739 67.1476 65.5531 67.1831C65.2379 67.138 64.8698 67.2688 64.6015 67.0584L64.6988 67.1865C63.0249 67.1493 61.351 67.1874 59.6771 67.1779C55.1729 67.1883 50.6678 67.1614 46.1635 67.1891C46.154 67.1493 46.1349 67.0696 46.1245 67.0298C46.1245 67.0688 46.1227 67.1467 46.1219 67.1857C45.7807 67.1354 45.3691 67.2922 45.0835 67.0515C45.1052 67.087 45.1495 67.158 45.1712 67.1935C44.8638 67.1753 44.5547 67.1666 44.2474 67.1891C44.2049 67.1484 44.1632 67.1095 44.1215 67.0714C43.9878 67.2393 43.8029 67.1095 43.6379 67.0922C43.2707 67.2359 42.8696 67.1675 42.4858 67.1813C36.2044 67.1709 29.9221 67.1822 23.6415 67.1684C23.0416 67.1588 22.4295 67.2307 21.8435 67.0852C21.2132 67.2402 20.5603 67.1536 19.9187 67.1675C17.6032 67.1528 15.2877 67.074 12.9731 67.0705C12.9331 70.2854 12.9887 73.5037 12.8828 76.7177H12.3992C12.4417 73.4977 12.4886 70.2776 12.5268 67.0575C10.7643 66.9874 9.00016 66.9943 7.23685 66.9952C5.15229 66.932 3.06774 67.0541 0.982322 66.9865C0.781768 66.9796 0.502207 66.9051 0.488315 66.6644C0.465742 65.8566 0.478765 65.0479 0.4232 64.2418C0.424068 64.0738 0.372845 63.8279 0.567322 63.7465C0.962354 63.6877 1.36346 63.7413 1.76023 63.7396C3.93247 63.7344 6.10384 63.6643 8.27522 63.5915C10.5612 63.5145 12.848 63.492 15.1357 63.4902C15.6358 63.4859 16.1376 63.5266 16.636 63.4677C16.3755 63.2495 16.0621 63.1101 15.7878 62.9136C15.3615 62.5924 14.9673 62.2287 14.6226 61.8226C14.1903 61.3152 13.7128 60.8165 13.4844 60.1775C13.2561 59.5385 13.1693 58.858 13.1154 58.1861C12.9861 56.7289 13.2439 55.2751 13.5356 53.8534C13.922 52.0498 14.4646 50.2853 15.0107 48.525C16.4528 43.9204 18.237 39.3955 20.6671 35.2152C20.7487 35.0897 20.5828 34.9867 20.5203 34.8966C19.7251 34.0879 19.0357 33.1623 18.6059 32.1086C18.6407 32.5658 18.8273 32.9892 18.9133 33.4351C18.9645 33.6342 18.7032 33.8212 18.5321 33.6957C18.316 33.5459 18.2074 33.2939 18.0989 33.0636C17.7421 32.2194 17.5493 31.306 17.5372 30.389C17.4842 29.0851 17.6909 27.782 18.085 26.5395C17.8515 27.0408 17.6622 27.5612 17.5016 28.0902C17.4078 28.0201 17.2559 27.9551 17.3028 27.8071C17.4382 26.6053 17.9947 25.4883 18.724 24.5359C19.7138 23.2138 20.9301 21.9661 21.359 20.3262C21.715 18.7954 21.761 17.2117 22.117 15.6801C22.4147 14.2869 23.0503 12.9674 23.9784 11.8825C23.3915 11.7154 22.7803 11.5864 22.2559 11.2617C21.5127 10.8184 20.9145 10.0642 20.8242 9.18624C20.6922 8.2061 21.1446 7.258 21.7306 6.50126C22.4113 5.63974 23.2864 4.89079 24.3317 4.51674C25.1843 4.21456 26.1992 4.21803 26.965 4.74186C27.301 4.95313 27.5415 5.27522 27.8445 5.52458C27.9426 5.60164 28.0268 5.58779 28.0963 5.48389C29.086 4.29509 30.3293 3.34006 31.6342 2.51924C32.788 1.81098 34.0348 1.21441 35.3753 0.964185ZM41.5378 11.2279C41.3146 11.8132 41.2044 12.4591 40.785 12.9509C40.0444 13.8367 38.8446 14.2618 37.7055 14.2099C36.5933 14.151 35.4395 13.9648 34.4845 13.3579C34.1311 13.1579 34.0217 12.7509 33.8377 12.4202C33.776 12.2981 33.5876 12.1899 33.5347 12.3812C33.513 12.7864 33.592 13.1916 33.5477 13.5977C33.4869 14.2506 33.3176 14.9025 32.9929 15.4766C32.6309 16.1338 32.2046 16.7546 31.7635 17.3607C31.6142 17.5468 31.4631 17.791 31.1983 17.8048C30.9804 17.7953 30.8024 17.617 30.7642 17.4092C30.6774 17.0342 30.6427 16.623 30.3857 16.3147C29.7372 15.5086 28.3602 15.4454 27.6439 16.1935C27.1551 16.7286 27.1187 17.4992 27.1655 18.1832C27.2376 18.8846 27.4494 19.6127 27.9435 20.1383C28.5243 20.7522 29.4168 21.0275 30.2485 20.8959C30.4855 20.857 30.5593 21.1314 30.6331 21.2985C31.148 22.6934 31.9406 24.0008 33.0198 25.0338C34.013 26.0589 35.2268 26.8789 36.5725 27.3681C37.847 27.8668 39.2127 28.085 40.5732 28.1629C41.9831 28.1049 43.3992 27.6547 44.5226 26.7897C45.4447 26.0806 46.1158 25.1065 46.6732 24.0987C47.6325 22.3211 48.1691 20.3504 48.519 18.372C48.6527 17.4559 48.8133 16.5269 48.7464 15.5995C48.3436 15.5796 47.9399 15.6835 47.5388 15.6402C47.3773 15.6056 47.3747 15.384 47.4988 15.3069C48.1152 14.6999 48.6171 13.9371 48.7655 13.0739C48.8046 12.8895 48.802 12.6089 48.5719 12.5596C48.3036 12.6245 48.2272 12.9449 48.1118 13.1596C47.7793 13.951 47.1776 14.648 46.378 14.9909C45.8666 15.2246 45.2936 15.2359 44.7423 15.2619C43.7404 15.2697 42.7419 15.1112 41.7782 14.8419C41.5577 14.7744 41.2756 14.7095 41.187 14.4679C41.1714 14.1389 41.3902 13.8653 41.5108 13.5743C41.8399 12.9172 42.037 12.1466 41.8052 11.4262C41.7843 11.2885 41.6428 11.2695 41.5378 11.2279ZM32.5232 30.8245C32.4998 31.0072 32.6231 31.1588 32.7342 31.2904C33.4287 32.0298 34.4133 32.4549 35.4135 32.5744C36.8208 32.7467 38.3358 32.5597 39.5227 31.7363C39.1849 31.5068 38.8194 31.3198 38.4886 31.0808C37.6864 30.5102 36.9806 29.821 36.2365 29.1786C34.9689 28.0668 33.8142 26.8321 32.7628 25.5152C32.6413 27.2815 32.5892 29.0539 32.5232 30.8245ZM25.9909 31.8662C24.5132 32.2376 23.1093 32.9744 22.0579 34.0862C21.4875 34.6455 21.1402 35.3754 20.7339 36.0525C18.052 40.7601 16.2097 45.8902 14.7173 51.0818C14.1877 53.0101 13.6303 54.9608 13.5799 56.973C13.5322 57.8978 13.645 58.8285 13.8621 59.7273C14.0227 60.3957 14.4898 60.9239 14.9421 61.4174C15.4492 61.9837 15.9874 62.5499 16.6725 62.9006C17.1231 63.1162 17.6119 63.2357 18.0816 63.4019C18.3064 63.4876 18.5495 63.505 18.7883 63.5041C21.4207 63.5179 24.0522 63.5162 26.6837 63.4816C26.9242 63.3534 27.1334 63.1725 27.3392 62.9967C27.5267 62.8383 27.5667 62.5872 27.6509 62.3707C27.9903 62.3058 28.3246 62.214 28.6042 62.0019C29.1277 61.801 29.5965 61.491 30.0297 61.1403C29.9134 60.7325 29.7354 60.3412 29.6833 59.916C29.4793 58.5367 29.5705 57.0752 30.1495 55.792C29.7484 55.8604 29.3439 55.9141 28.9367 55.9262C28.8021 55.9505 28.618 55.908 28.539 56.0492C27.7516 57.1635 27.7004 58.6112 27.8827 59.9152C27.9738 60.6243 28.3263 61.2564 28.6632 61.8746C28.546 61.9283 28.4375 62.0096 28.3055 62.0192C28.0737 61.9066 27.9478 61.6685 27.8471 61.4451C27.2636 60.1992 27.189 58.7627 27.4347 57.4233C27.5606 56.6353 27.9669 55.8682 28.6094 55.3842C28.3506 55.1807 28.1119 54.9444 27.8141 54.798C26.7445 54.2768 25.5003 54.1365 24.3378 54.3859C22.7959 54.6768 21.2566 55.2197 20.0498 56.2509C19.1269 57.0683 18.4575 58.219 18.3342 59.4537C19.4073 59.142 20.0654 58.1575 20.72 57.3272C20.8659 57.2371 20.9787 57.3973 21.0638 57.4908C20.6089 58.277 20.0428 59.0251 19.3005 59.5619C18.9506 59.7948 18.5243 60.0511 18.0902 59.9178C17.8793 59.8442 17.8167 59.5948 17.8558 59.3974C18.0234 57.903 18.8603 56.496 20.0854 55.6206C19.5679 55.6916 19.0383 55.7816 18.5191 55.676C18.2925 55.6266 18.0494 55.489 17.9921 55.2483C17.9487 54.8941 18.1389 54.5651 18.3637 54.308C19.0331 53.5746 19.9412 53.004 20.9536 52.9365C21.5709 52.9148 22.2211 52.9685 22.7803 53.2499C23.1145 53.4118 23.3064 53.7833 23.2022 54.1469C23.5365 54.0612 23.8803 54.0066 24.2076 53.8958C24.6425 52.0767 25.081 50.2558 25.4291 48.4176C25.7634 46.6565 26.0516 44.8858 26.4493 43.1368C26.4909 42.9931 26.5092 42.8303 26.6186 42.7195C26.7366 42.6399 26.8608 42.7256 26.9728 42.7689C26.6655 44.5811 26.2713 46.3803 25.9822 48.196C26.0568 48.1025 26.1315 48.0089 26.1845 47.9016C26.6021 47.034 26.9719 46.1439 27.3522 45.2599C27.4659 45.0382 27.7655 45.2686 27.6352 45.4651C27.1838 46.8686 26.5977 48.2289 25.9136 49.5354C25.7347 49.9103 25.5064 50.2887 25.5299 50.7208C26.0117 50.3623 26.1688 49.7476 26.458 49.2488C26.563 49.3224 26.7245 49.3657 26.7306 49.5207C26.5239 50.2809 26.1063 51.0827 25.3241 51.378C25.1366 52.191 24.8796 52.9927 24.7719 53.8214C26.0108 53.6975 27.3262 53.8915 28.3749 54.5972C28.6771 54.7911 28.8776 55.095 29.1051 55.3643C29.6616 55.3106 30.2277 55.3738 30.7738 55.2258C31.3399 55.0829 31.9155 54.8959 32.3774 54.5262C33.5173 53.6534 34.5531 52.6222 35.8493 51.9745C34.6052 50.6212 33.348 49.28 32.0622 47.9674C31.9311 47.8133 31.6333 47.6496 31.7618 47.4167C32.0492 46.9067 32.4642 46.4677 32.9521 46.1422C32.9208 45.6019 32.8748 45.0608 32.795 44.5257C32.7759 44.3837 32.7481 44.2373 32.7924 44.0988C32.9347 44.0044 33.1214 44.0564 33.2829 44.0451C34.6711 44.1222 36.062 44.0798 37.452 44.1153C39.3082 44.1196 41.1644 44.0546 43.0198 44.1075C43.2507 44.1023 43.3705 44.3256 43.4356 44.5144C43.7942 45.5119 43.8715 46.5794 43.9349 47.628C43.9366 48.0929 43.9852 48.564 43.894 49.0237C43.6032 49.1094 43.3002 49.0558 43.0033 49.0584C40.8171 49.0419 38.631 49.0739 36.4466 49.022C36.6671 49.3294 36.9354 49.5978 37.2037 49.8645C37.7003 50.3493 38.1613 50.8688 38.6518 51.3606C38.7352 51.4264 38.8029 51.5364 38.9219 51.5425C39.4463 51.5892 39.9863 51.5338 40.4959 51.694C40.8015 51.7823 41.0576 51.9814 41.2929 52.1892C41.8399 52.6854 42.3643 53.2075 42.8435 53.7703C43.5077 54.5798 44.1398 55.4795 44.3438 56.5245C44.5756 56.8276 44.8525 57.1687 44.7041 57.5783C44.9533 58.0597 45.2606 58.5099 45.4907 59.0008C45.5905 59.1679 45.4681 59.3896 45.2623 59.3307C44.7501 59.2173 44.3507 58.8415 43.8706 58.6519C43.6258 58.587 43.3558 58.6406 43.1283 58.5125C42.6925 58.2787 42.3044 57.9662 41.8694 57.7306C42.0057 58.1722 42.2558 58.6787 42.043 59.1325C41.628 59.4684 41.0733 59.5463 40.5992 59.7732C40.2311 59.9611 39.7909 60.013 39.4836 60.3057C39.0998 60.6052 38.6501 60.8953 38.1466 60.8996C37.5952 60.8373 37.1038 60.5498 36.6211 60.2987C36.3893 60.555 36.1844 60.8624 35.858 61.0096C35.4308 61.2053 34.9646 61.2997 34.5036 61.3784C33.7335 61.5066 32.9573 61.3161 32.2367 61.0538C31.6524 61.0512 31.0959 61.2763 30.5411 61.4356C30.1617 61.5334 29.8934 61.8391 29.5479 62.0053C29.1711 62.227 28.7552 62.3646 28.3489 62.5188C28.1041 62.8703 27.8254 63.1959 27.4703 63.4435C33.1813 63.4712 38.8915 63.4175 44.6025 63.4643C44.5374 63.1474 44.4271 62.84 44.3881 62.5196C44.3733 62.3742 44.4983 62.2746 44.5678 62.1638C44.6103 61.904 44.5929 61.5637 44.863 61.4191C45.2198 61.2113 45.6122 61.4555 45.9664 61.5395C46.6046 61.6815 47.2983 61.7551 47.9251 61.5282C48.189 61.3481 48.3366 61.0451 48.5572 60.8174C48.0371 60.3013 47.6073 59.6381 47.6126 58.8814C47.5579 58.3809 47.735 57.8674 48.1213 57.5384C47.9815 57.3124 47.8348 57.0717 47.8557 56.7947C47.8435 55.4431 47.8965 54.0924 47.88 52.7408C47.9069 50.8576 47.8192 48.9752 47.6838 47.0972C47.6082 46.0063 47.649 44.9092 47.5466 43.82C47.4832 42.7152 47.3026 41.6208 47.241 40.5168C47.1298 39.0509 47.1229 37.5773 47.1854 36.1097C47.1915 35.8741 47.5162 35.791 47.6108 36.0213C47.6707 36.4222 47.6221 36.83 47.6325 37.2344C47.603 39.1514 47.6994 41.0744 48.0145 42.9671C48.1213 42.8026 48.1343 42.6018 48.1682 42.4139C48.2568 41.813 48.3271 41.2086 48.4018 40.606C48.4139 40.4969 48.4452 40.3904 48.4999 40.2951C48.6978 40.2034 48.8732 40.419 48.8393 40.6086C48.7777 41.9169 48.5077 43.2035 48.3861 44.5057C48.3227 45.2131 48.1882 45.9136 47.9659 46.5881C48.084 46.4444 48.2038 46.3006 48.3262 46.1604C48.4087 46.195 48.492 46.2296 48.5763 46.2651C48.5893 46.7067 48.3592 47.1085 48.1413 47.4773C48.3036 49.4289 48.3809 51.3883 48.3471 53.3469C48.3436 53.5218 48.4287 53.6811 48.4834 53.8447C48.7881 54.7071 49.1762 55.5375 49.5443 56.3739C49.4115 56.4163 49.2552 56.5375 49.1232 56.4293C48.934 56.2527 48.8506 55.9946 48.6891 55.7955C48.5259 56.1193 48.3688 56.4501 48.2663 56.799C48.2733 56.9765 48.4165 57.1116 48.4999 57.2614C49.0677 56.8154 49.6146 56.3418 50.2224 55.9496C50.7702 55.5834 51.3128 55.1894 51.7079 54.6534C52.1871 54.0785 52.4797 53.372 52.985 52.8178C53.3852 52.3901 53.94 52.0498 54.5477 52.0949C54.9332 52.1338 55.3439 52.2594 55.6148 52.5486C55.7632 52.6793 55.6026 52.9166 55.429 52.8906C55.264 52.836 55.1138 52.746 54.9532 52.6845C54.4861 52.5191 53.9348 52.6239 53.5728 52.9668C53.0909 53.4006 52.7167 53.9582 52.4476 54.5435C53.0709 54.2924 53.7091 54.0577 54.3784 53.9616C54.5929 53.8733 54.7891 54.2015 54.6077 54.3443C54.3741 54.4707 54.1067 54.5088 53.8567 54.5876C52.9798 54.8205 52.1671 55.2457 51.4144 55.7444C50.5488 56.3219 49.6936 56.9142 48.8497 57.522C48.5224 57.7601 48.1656 58.0328 48.064 58.4458C47.9199 59.2519 48.3445 60.0797 49.0034 60.5386C49.2448 60.3316 49.5044 60.1472 49.7813 59.9888C49.9367 59.9091 49.9784 59.7255 50.0557 59.5835C50.2423 59.1125 50.6513 58.7549 51.1105 58.5575C51.7374 58.3186 52.4328 58.3151 53.0874 58.4311C54.3081 58.6761 55.3378 59.5948 55.7997 60.7386C57.2409 60.6711 58.6839 60.6607 60.1251 60.6087C60.2049 59.6658 60.073 58.7142 59.8915 57.7895C59.6328 56.5037 59.1232 55.2864 58.5337 54.1192C58.0032 53.0689 57.4536 52.0291 56.9127 50.9849C56.2677 49.7588 55.7259 48.4834 55.1355 47.2323C53.2524 43.0936 51.0819 39.0968 49.0173 35.049C48.2967 33.8221 47.1498 32.8506 45.8258 32.3277C44.5547 31.8133 43.1543 31.6696 41.7939 31.7735C41.5343 31.7415 41.5108 32.0333 41.4318 32.2064C41.2018 32.9052 40.765 33.532 40.1903 33.9935C39.3308 34.7252 38.2134 35.1035 37.096 35.1858C35.9457 35.2611 34.7701 35.165 33.6788 34.7789C32.3478 34.3174 31.1601 33.3805 30.5038 32.1259C30.4308 31.9943 30.3623 31.8584 30.2642 31.7441C29.9785 31.6809 29.6772 31.7605 29.3864 31.7224C28.9184 31.648 28.4531 31.5441 27.9799 31.5164C27.3183 31.641 26.642 31.6895 25.9909 31.8662ZM30.9205 31.8038C31.2027 32.4948 31.7401 33.0472 32.3235 33.4983C33.4531 34.371 34.909 34.726 36.3199 34.7182C37.2966 34.7338 38.2976 34.5693 39.1623 34.0983C40.0219 33.6403 40.759 32.8679 41.0264 31.919C40.7598 31.861 40.4976 31.7874 40.2398 31.699C39.9368 32.0445 39.5617 32.3216 39.1485 32.5207C37.8245 33.1831 36.2686 33.2524 34.8344 32.9692C33.8029 32.7658 32.8635 32.2134 32.1542 31.4454C31.7618 31.6246 31.339 31.7103 30.9205 31.8038ZM33.2794 44.543C33.3263 45.053 33.3888 45.5629 33.4478 46.0712C33.6649 46.3457 33.9445 46.5647 34.1893 46.815C34.7797 47.3743 35.3284 47.9812 35.9361 48.5198C38.4339 48.6194 40.95 48.5847 43.4547 48.609C43.4929 47.3777 43.4165 46.1292 43.0927 44.9361C43.0406 44.7724 42.9859 44.5161 42.7541 44.5793C40.2624 44.5785 37.7698 44.5897 35.2771 44.5785C34.6112 44.5811 33.9462 44.5118 33.2794 44.543ZM32.2914 47.4358C33.5651 48.8099 34.8665 50.1588 36.1367 51.5355C36.266 51.6403 36.3685 51.8689 36.569 51.7944C37.0873 51.6368 37.6317 51.6784 38.1613 51.5901C37.8852 51.1 37.4242 50.7597 37.0613 50.3407C35.9066 49.1579 34.7449 47.9804 33.5451 46.8435C33.4105 46.7379 33.2968 46.5665 33.111 46.5647C32.8106 46.8271 32.531 47.1171 32.2914 47.4358ZM37.5362 52.1434C36.8434 52.2152 36.1289 52.3408 35.5393 52.7347C34.4263 53.4508 33.4834 54.3963 32.3886 55.1374C31.8729 55.4587 31.2713 55.5989 30.687 55.7427C30.5819 56.0968 30.4083 56.4275 30.3119 56.7851C30.1122 57.5246 30.0619 58.296 30.094 59.0588C30.1469 59.6952 30.2294 60.3585 30.5698 60.9152C31.2765 60.7291 32.0422 60.4226 32.7646 60.7126C33.4331 60.9542 34.1693 61.0234 34.8552 60.8122C35.733 60.6918 36.3624 60.0018 36.8564 59.3264C37.0101 59.1333 37.0821 58.8485 37.3166 58.7376C37.6378 58.7809 37.8479 59.0796 38.0389 59.316C37.9911 59.6632 37.5987 59.5108 37.4355 59.342C37.3027 59.5377 37.1629 59.7281 37.0118 59.9117C37.3348 60.1671 37.7298 60.3533 38.1431 60.3871C38.6718 60.381 39.0781 59.9888 39.4306 59.6416C39.6529 59.355 39.9568 58.9991 39.8691 58.619C39.4567 57.7125 38.6579 57.0553 37.8844 56.4579C37.7576 56.3358 37.5102 56.2388 37.5579 56.0267C37.6786 55.8362 37.9156 55.9306 38.0641 56.0319C38.776 56.4717 39.4046 57.0492 39.9151 57.7107C40.1044 57.9662 40.2849 58.2372 40.3856 58.5419C40.482 58.8528 40.3049 59.1506 40.1868 59.4277C40.6695 59.219 41.1879 59.0969 41.6524 58.8476C41.5725 57.9376 41.0246 57.1696 40.4334 56.5089C39.7084 55.6457 38.8915 54.8638 38.025 54.1443C37.8097 54.03 37.9061 53.7062 38.1457 53.7209C38.3992 53.7737 38.585 53.9867 38.8402 54.0378C39.382 54.1642 39.9429 54.1798 40.489 54.2829C40.8362 54.3409 41.0941 54.5998 41.3676 54.7998C42.1003 55.3946 42.7602 56.0743 43.4799 56.6847C43.5806 56.7661 43.8046 56.8899 43.8454 56.6856C43.7473 55.8699 43.275 55.1556 42.7741 54.5244C42.2132 53.8222 41.5846 53.1772 40.9196 52.5728C40.6756 52.3538 40.3917 52.1503 40.0549 52.1217C39.2179 52.0117 38.3723 52.0784 37.5362 52.1434ZM18.9923 54.4101C18.7805 54.6093 18.5104 54.8266 18.5287 55.1487C19.2502 55.3556 19.9838 55.076 20.7079 55.0301C21.1368 55.0154 21.4918 54.7521 21.8765 54.5954C22.1404 54.4716 22.4252 54.4015 22.69 54.2803C22.8462 54.1002 22.7698 53.8214 22.5702 53.7079C22.1404 53.4447 21.6108 53.4317 21.1211 53.4309C20.3059 53.4309 19.5792 53.8828 18.9923 54.4101ZM39.3386 54.5643C39.8925 55.2223 40.5584 55.7825 41.0724 56.476C41.2174 56.6743 41.3624 56.8873 41.589 57.0016C42.2288 57.3479 42.8071 57.7965 43.4478 58.1419C43.6319 58.1774 43.7907 57.9956 43.96 57.9376C44.1363 58.1757 44.3507 58.3896 44.6338 58.4978C44.6442 58.2077 44.3802 58.0259 44.2439 57.799C44.0989 57.5921 44.2352 57.3341 44.2379 57.1081C43.9704 57.1479 43.6839 57.309 43.42 57.173C42.9677 56.96 42.6464 56.56 42.2705 56.244C41.7288 55.7167 41.1505 55.2301 40.601 54.7114C40.1747 54.7296 39.7553 54.6448 39.3386 54.5643ZM50.2571 59.8035C51.0133 59.6424 51.7982 59.5827 52.5674 59.6762C53.2915 59.7775 54.072 60.1057 54.3863 60.813C54.6788 60.8079 54.9723 60.7923 55.2631 60.7559C55.0965 60.1862 54.6198 59.7758 54.1683 59.4225C53.4486 58.8684 52.4901 58.716 51.6072 58.8528C51.0402 58.9385 50.5523 59.3255 50.2571 59.8035ZM49.9498 60.426C49.4106 60.7585 48.8923 61.1438 48.499 61.6451C48.6813 61.5118 48.8758 61.3932 49.0833 61.3031C49.5417 61.0797 50.067 61.1507 50.5601 61.104C51.7122 60.9966 52.8669 60.9048 54.0242 60.8563C53.914 60.7161 53.7942 60.5819 53.6335 60.5005C52.9702 60.1065 52.1697 60.097 51.4214 60.1039C50.9195 60.1273 50.3856 60.1481 49.9498 60.426ZM61.9292 61.0564C59.2083 61.0728 56.4864 61.13 53.7707 61.3135C52.8131 61.3975 51.8442 61.4018 50.8978 61.5785C51.0142 61.7897 51.1366 61.9975 51.2659 62.2027C53.229 62.1456 55.192 62.0616 57.1541 61.9975C59.3559 61.8547 61.5628 61.7724 63.7698 61.7923C63.722 61.543 63.6508 61.2997 63.551 61.0667C63.0127 60.9949 62.4692 61.0546 61.9292 61.0564ZM48.9609 62.2417C49.533 62.2244 50.1052 62.2452 50.6773 62.233C50.5297 61.9915 50.37 61.7196 50.0939 61.6122C49.6381 61.4849 49.0034 61.7109 48.9609 62.2417ZM44.9897 62.175C45.8076 62.2443 46.6263 62.1447 47.4433 62.2123C47.768 62.2235 48.0918 62.1993 48.4165 62.1794C48.4356 62.0322 48.4582 61.885 48.4834 61.7395C48.0015 61.8832 47.5049 61.9897 47.0005 61.9819C46.4127 62.0062 45.8571 61.743 45.271 61.7681C45.0757 61.801 45.0392 62.0192 44.9897 62.175Z" fill="#0C446A"/>
<path id="Vector_2" d="M28.4286 16.5529C28.8688 16.4126 29.3428 16.5694 29.7249 16.7971C29.8985 16.907 30.1017 17.0326 30.1477 17.2499C30.1303 17.4049 29.9827 17.5547 29.8186 17.4768C29.4939 17.3426 29.2005 17.1304 28.8514 17.0577C28.6492 16.9945 28.4165 17.0057 28.242 16.8741C28.1942 16.7243 28.2958 16.6057 28.4286 16.5529Z" fill="#0C446A"/>
<path id="Vector_3" d="M38.9706 16.8481C39.2033 16.7529 39.442 16.9295 39.5566 17.1235C39.8145 17.5997 39.8318 18.1928 39.6313 18.6924C39.4759 19.0811 38.9654 19.2214 38.6129 19.0127C38.0581 18.6846 37.8784 17.9287 38.0972 17.3486C38.2413 17.0031 38.6641 16.9702 38.9706 16.8481Z" fill="#0C446A"/>
<path id="Vector_4" d="M46.3163 17.165C46.5013 17.107 46.7174 17.146 46.8381 17.307C47.0908 17.5832 47.0161 17.9859 46.944 18.3166C46.8511 18.6673 46.753 19.0621 46.4509 19.2933C46.1722 19.4907 45.7555 19.3409 45.6322 19.0327C45.4473 18.5703 45.5098 18.0326 45.7103 17.5858C45.8136 17.3417 46.0741 17.2256 46.3163 17.165Z" fill="#0C446A"/>
<path id="Vector_5" d="M43.9974 19.2829C43.9097 19.1244 43.8186 18.8491 44.0547 18.7703C44.3195 18.6456 44.4298 19.0032 44.553 19.1651C44.8639 19.7288 45.3553 20.1617 45.6982 20.7011C45.8649 20.9184 45.6687 21.1834 45.4334 21.2232C44.85 21.3635 44.2596 21.4821 43.6935 21.689C43.5381 21.7765 43.3107 21.6657 43.3115 21.4804C43.2959 21.347 43.4339 21.2778 43.5294 21.2215C44.0243 20.9825 44.5661 20.8656 45.1026 20.7634C44.7171 20.2838 44.2856 19.8301 43.9974 19.2829Z" fill="#0C446A"/>
<path id="Vector_6" d="M41.1974 22.9515C41.3094 22.8347 41.4561 22.9524 41.5724 22.9948C41.8754 23.1446 42.2323 23.3403 42.5683 23.1645C42.7645 23.1083 42.9659 22.8745 43.1699 23.0295C43.3184 23.2026 43.1777 23.4442 43.0093 23.5412C42.4919 23.865 41.7956 23.7793 41.3059 23.4425C41.1418 23.3377 40.9899 23.0961 41.1974 22.9515Z" fill="#0C446A"/>
<path id="Vector_7" d="M49.1606 24.8452C49.2909 24.7915 49.4515 24.7906 49.501 24.9508C50.3119 26.4972 51.3798 27.9241 51.905 29.6064C52.2358 30.7 52.3912 31.8793 52.1464 33.0066C52.1177 33.1962 52.0066 33.3599 51.826 33.4361C51.6915 33.1945 51.6949 32.92 51.7453 32.6568C51.9988 31.0316 51.4701 29.4047 50.7312 27.9735C50.2207 26.9249 49.5253 25.9612 49.1606 24.8452Z" fill="#0C446A"/>
<path id="Vector_8" d="M49.3576 43.2044C49.5694 43.084 49.7066 43.3793 49.5885 43.5403C49.4626 43.7611 49.3611 44.2287 49.0155 44.0546C48.9487 43.7334 49.1987 43.4589 49.3576 43.2044Z" fill="#0C446A"/>
<path id="Vector_9" d="M48.7645 44.6313C48.9112 44.4911 49.1369 44.7465 49.0414 44.9032C48.9242 45.1734 48.8183 45.6063 48.4285 45.4764C48.4371 45.1673 48.5639 44.8643 48.7645 44.6313Z" fill="#0C446A"/>
<path id="Vector_10" d="M36.9335 46.1214C38.2063 46.0833 39.4817 46.137 40.7527 46.0374C40.9368 45.9985 41.1338 46.1283 41.1338 46.3258C41.0922 46.4989 40.9125 46.5543 40.7544 46.5474C39.5381 46.5768 38.3217 46.5742 37.1045 46.5742C36.7269 46.5708 36.3448 46.5942 35.9741 46.505C36.0028 46.3994 35.9351 46.2175 36.0714 46.1699C36.3518 46.0989 36.6461 46.1335 36.9335 46.1214Z" fill="#0C446A"/>
<path id="Vector_11" d="M61.49 62.7967C63.5146 62.6816 65.5436 62.6885 67.57 62.6227C68.9591 62.5933 70.3491 62.5707 71.7382 62.6149C72.3268 62.6236 72.9311 62.5231 73.5102 62.6755C73.4798 62.7976 73.5163 62.9673 73.3765 63.034C73.255 63.1206 73.0935 63.0764 72.9554 63.092C71.7425 63.0894 70.5297 63.0885 69.3168 63.0738C68.0405 63.0539 66.7651 63.1145 65.4889 63.1041C64.4175 63.1006 63.3462 63.1283 62.2757 63.1708C61.918 63.1864 61.5594 63.1942 61.2061 63.1413C61.2121 62.969 61.2842 62.7863 61.49 62.7967Z" fill="#0C446A"/>
<path id="Vector_12" d="M10.001 67.2135C10.1009 67.2291 10.2007 67.2464 10.3014 67.2655C10.3657 68.74 10.3145 70.2171 10.3735 71.6925C10.3978 73.3688 10.4829 75.0425 10.5272 76.7179H10.0566C9.91943 74.0078 9.89512 71.2925 9.93853 68.5798C9.93766 68.1235 9.93245 67.6655 10.001 67.2135Z" fill="#0C446A"/>
<path id="Vector_13" d="M0.88663 67.2636C0.964768 67.261 1.12278 67.2541 1.20092 67.2506C1.33896 67.7078 1.28948 68.1892 1.30597 68.6593C1.34591 71.3478 1.55601 74.031 1.66367 76.7178H1.18876C1.04812 73.5687 0.844956 70.417 0.88663 67.2636Z" fill="#0C446A"/>
</g>
</g>
</g>
<defs>
<clipPath id="clip0_2213_10874">
<rect width="73.1532" height="76.0961" fill="white" transform="translate(0.438477 0.621704)"/>
</clipPath>
</defs>
</svg>
