<svg width="214" height="213" viewBox="0 0 214 213" fill="none" xmlns="http://www.w3.org/2000/svg">
<g clipPath="url(#clip0_1089_17223)">
<path d="M117.55 78.1921C117.776 78.2684 117.925 78.4251 117.995 78.6622C118.331 79.791 118.611 80.9413 118.836 82.113C118.866 82.2711 118.953 82.3876 119.096 82.4625C120.279 83.0886 121.525 84.3866 120.941 85.8426C120.465 87.0303 118.983 87.2758 117.852 87.1135C117.794 87.1053 117.738 87.0855 117.688 87.0553C117.364 86.8625 117.229 86.6823 117.282 86.5145C117.405 86.1193 117.651 85.9397 118.018 85.9757C118.873 86.0631 120.14 86.0943 119.909 84.8275C119.757 84.0059 118.711 83.5129 118.025 83.2384C117.97 83.2167 117.922 83.1812 117.885 83.1353C117.848 83.0893 117.824 83.0345 117.814 82.9763C117.573 81.5119 117.22 80.0357 116.756 78.5478C116.739 78.4937 116.747 78.4445 116.781 78.4001C116.876 78.267 117.048 78.2032 117.294 78.2087C117.303 78.2087 117.307 78.2046 117.307 78.1962V78.1442C117.307 78.1415 117.306 78.1401 117.303 78.1401C116.758 78.1734 116.218 78.2025 115.684 78.2274C115.638 78.2299 115.594 78.2496 115.561 78.2826C115.528 78.3156 115.508 78.3597 115.506 78.4063C115.154 85.672 105.921 87.2175 102.99 80.7797C102.767 80.2909 102.642 79.7272 102.516 79.1968C102.495 79.1108 102.441 79.0699 102.353 79.074C98.623 79.2529 95.0189 79.332 91.541 79.3112C91.4536 79.3112 91.3697 79.2771 91.3071 79.216C91.2445 79.155 91.2083 79.072 91.2061 78.9846C91.1936 78.5145 90.7319 78.321 90.4282 78.1172C88.7863 77.0189 87.0834 76.5883 85.3195 76.8255C82.9773 77.1416 81.5566 78.3536 81.0574 80.4614C80.1027 84.503 82.6279 88.5342 86.3055 89.9508C87.7851 90.5193 89.4228 90.5665 91.2186 90.0922C91.4973 90.0173 91.749 90.1296 91.8634 90.398C93.6149 94.5775 96.1858 97.9112 99.5764 100.399C101.489 101.8 103.728 102.989 106.293 103.968C106.412 104.014 106.51 104.101 106.571 104.213C106.632 104.324 106.65 104.454 106.624 104.578C106.586 104.747 106.477 104.882 106.295 104.983C106.235 105.017 106.168 105.038 106.1 105.044C106.031 105.049 105.962 105.04 105.898 105.017C104.175 104.402 102.606 103.672 101.191 102.824C101.18 102.819 101.169 102.816 101.157 102.815C101.145 102.815 101.134 102.818 101.124 102.823C101.113 102.828 101.105 102.836 101.098 102.845C101.092 102.854 101.088 102.865 101.086 102.876C100.878 105.035 100.569 107.216 100.159 109.418C100.147 109.481 100.123 109.541 100.088 109.594C100.052 109.647 100.006 109.692 99.9526 109.726C99.899 109.761 99.8388 109.784 99.7759 109.794C99.713 109.805 99.6486 109.802 99.5868 109.786L99.5036 109.766C99.3614 109.73 99.2381 109.642 99.1585 109.519C99.079 109.396 99.0492 109.248 99.0751 109.104C99.5188 106.611 99.8135 104.325 99.9591 102.246C99.9641 102.178 99.9509 102.109 99.9209 102.048C99.891 101.987 99.8453 101.934 99.7885 101.897C95.9473 99.3423 93.0435 95.8811 91.0772 91.5129C91.0612 91.4769 91.0337 91.4472 90.9991 91.4284C90.9645 91.4096 90.9247 91.4028 90.8858 91.4089C87.1902 91.9788 84.1678 90.8487 81.8187 88.0184C79.9952 85.8218 79.3698 83.2612 79.9425 80.3366C80.3183 78.4174 81.3764 77.073 83.1167 76.3034C83.1314 76.2969 83.1446 76.2873 83.1553 76.2752C83.166 76.2632 83.174 76.249 83.1787 76.2336C83.1834 76.2183 83.1848 76.202 83.1827 76.1861C83.1806 76.1701 83.1752 76.1548 83.1666 76.1411C82.4802 75.0345 81.9706 73.9016 81.6378 72.7423C80.319 68.1474 80.1776 62.7205 80.8182 57.8572C81.3195 54.0445 82.7173 50.3898 85.5941 47.8833C87.9612 45.8226 90.7908 44.777 94.0829 44.7465C94.1494 44.7465 94.1959 44.7153 94.2222 44.6529C96.4188 39.4874 99.9438 35.8341 104.797 33.693C107.054 32.6959 109.604 32.0074 112.448 31.6274C117.132 31.002 121.693 31.9131 126.131 34.3607C131.125 37.1168 135.832 41.3913 138.857 46.213C141.143 49.8545 142.221 53.9176 142.091 58.4022C141.948 63.4506 140.439 69.0335 137.746 73.2332C137.545 73.5452 137.303 73.8322 137.022 74.0943C136.776 74.3231 136.822 74.4327 137.157 74.423C139.61 74.3502 142.089 75.1884 143.183 77.4516C144.531 80.243 143.739 83.8395 141.937 86.2794C140.666 88.0003 138.92 88.8941 136.702 88.9606C136.626 88.9633 136.554 88.9919 136.496 89.0418C136.192 89.3066 135.849 89.3593 135.466 89.1998C135.424 89.1825 135.387 89.1536 135.36 89.1165C135.333 89.0794 135.317 89.0355 135.314 88.9898C135.277 88.5009 135.366 87.5712 135.824 87.2279C135.856 87.2033 135.894 87.1862 135.934 87.178C135.974 87.1697 136.015 87.1704 136.055 87.1801C136.347 87.2536 136.549 87.4249 136.66 87.6939C136.677 87.7349 136.706 87.7696 136.743 87.7934C136.781 87.8172 136.824 87.829 136.868 87.827C138.074 87.7743 139.087 87.4242 139.907 86.7766C142.998 84.3429 144.442 77.2831 139.531 75.8374C138.686 75.5892 137.865 75.4963 137.068 75.5587C137.014 75.5635 136.965 75.5885 136.929 75.6288C136.893 75.669 136.875 75.7213 136.876 75.775C136.947 78.4251 136.908 81.1825 136.758 84.0475C136.738 84.433 136.536 84.6417 136.15 84.6736C136.095 84.6778 136.041 84.6715 135.988 84.6549C135.691 84.5578 135.553 84.3533 135.572 84.0413C135.727 81.6436 135.77 79.2522 135.699 76.8671C135.695 76.7506 135.646 76.7277 135.553 76.7984C135.065 77.1659 134.487 77.351 133.819 77.3538C133.779 77.3542 133.742 77.369 133.713 77.3955C133.684 77.4221 133.666 77.4583 133.663 77.4973C133.005 84.8712 122.761 85.41 121.086 78.2441C121.071 78.1798 121.034 78.1228 120.981 78.083C120.928 78.0432 120.863 78.0229 120.797 78.0257L117.552 78.1692C117.509 78.1706 117.509 78.1782 117.55 78.1921ZM111.551 73.1146L111.649 72.994C111.831 72.7763 112.044 72.7388 112.288 72.8816C113.913 73.8329 114.938 75.212 115.364 77.0189C115.384 77.1035 115.437 77.1444 115.524 77.1416L120.883 76.9461C120.904 76.9456 120.925 76.937 120.94 76.9219C120.956 76.9069 120.965 76.8865 120.966 76.865C121.055 75.5691 121.609 73.6409 122.657 72.8276C122.717 72.7804 122.784 72.7645 122.861 72.7797C123.127 72.8296 123.32 72.978 123.439 73.2249C123.476 73.3039 123.468 73.3774 123.414 73.4453C122.418 74.6788 121.906 75.8208 122.018 77.5244C122.097 78.7086 122.592 79.775 123.504 80.7235C124.781 82.052 126.346 82.5838 128.2 82.319C129.839 82.0839 131.399 80.9523 132.127 79.4776C133.052 77.6069 133.004 75.7972 131.982 74.0486C131.674 73.5216 131.119 72.9399 130.316 72.3034C130.248 72.2499 130.203 72.172 130.191 72.0862C130.18 72.0004 130.202 71.9134 130.253 71.8437L130.318 71.7563C130.512 71.4942 130.746 71.4533 131.019 71.6336C132.741 72.7797 133.326 74.2399 133.771 76.1536C133.777 76.1821 133.79 76.2089 133.807 76.2323C133.825 76.2558 133.847 76.2755 133.872 76.2901C133.898 76.3047 133.926 76.314 133.955 76.3173C133.984 76.3207 134.013 76.3181 134.041 76.3096C134.653 76.1203 135.47 75.6565 135.512 74.943C135.528 74.6254 135.526 74.3107 135.506 73.9986C135.311 71.0422 134.874 68.1148 134.193 65.2166C134.182 65.1686 134.158 65.1246 134.124 65.0891C134.09 65.0536 134.047 65.028 134 65.0148C132.52 64.5988 131.125 63.9692 129.814 63.1261C129.747 63.0817 129.69 63.0935 129.644 63.1614C128.094 65.4558 124.477 65.6866 121.898 65.2686C119.329 64.8525 117.043 63.8562 114.692 62.552C114.61 62.5062 114.554 62.5277 114.524 62.6165C113.203 66.45 107.666 66.552 104.392 65.8863C101.28 65.2561 98.1411 64.0101 95.229 62.3523C95.1208 62.2913 95.0848 62.3204 95.1208 62.4396C96.5498 67.2675 97.4443 71.8437 95.7865 76.6757C95.6117 77.186 95.3899 77.6686 95.1208 78.1234C95.1141 78.1342 95.1105 78.1467 95.1105 78.1594C95.1104 78.1721 95.1138 78.1847 95.1204 78.1957C95.127 78.2068 95.1365 78.216 95.1479 78.2223C95.1594 78.2286 95.1723 78.2318 95.1853 78.2316L102.364 77.9903C102.391 77.9898 102.417 77.9791 102.437 77.9602C102.456 77.9413 102.468 77.9156 102.47 77.8884C102.57 76.4226 103.081 75.1371 104.005 74.0319C104.18 73.8239 104.374 73.8024 104.589 73.9674L104.704 74.0548C104.949 74.242 104.973 74.4542 104.774 74.6913C103.036 76.7714 103.069 79.4589 104.61 81.5743C107.106 84.9981 112.161 84.5654 113.995 80.7215C114.994 78.6331 114.578 75.9331 112.72 74.4022C112.394 74.1345 112.034 73.8801 111.639 73.6388C111.406 73.4987 111.377 73.324 111.551 73.1146Z" fill="#0F5A8B"/>
<path d="M95.6263 36.8881C95.0772 37.7451 94.8754 38.7831 95.1292 39.7711C95.2935 40.4118 94.2867 40.6198 94.0662 40.0831C93.5795 38.9058 94.0038 37.2313 94.6736 36.2828C94.7407 36.1885 94.8376 36.1194 94.9488 36.0866C95.06 36.0538 95.1792 36.0592 95.2873 36.1018L95.385 36.1414C95.7678 36.2925 95.8482 36.5414 95.6263 36.8881Z" fill="#0F5A8B"/>
<path d="M93.1946 40.8317C93.208 40.9042 93.192 40.9791 93.1503 41.0399C93.1086 41.1007 93.0445 41.1425 92.972 41.1562L92.8181 41.1853C92.6063 41.2253 92.381 41.1457 92.1914 40.964C92.0019 40.7823 91.8637 40.5132 91.8072 40.216L91.5784 39.0054C91.5505 38.8579 91.5437 38.7079 91.5582 38.5641C91.5727 38.4202 91.6084 38.2853 91.663 38.1671C91.7177 38.0489 91.7904 37.9496 91.8768 37.875C91.9633 37.8004 92.0619 37.7519 92.167 37.7324L92.3189 37.7032C92.3549 37.6963 92.392 37.6966 92.428 37.704C92.4639 37.7115 92.4981 37.726 92.5284 37.7466C92.5588 37.7673 92.5847 37.7938 92.6048 37.8246C92.6249 37.8553 92.6387 37.8897 92.6454 37.9258L93.1946 40.8317Z" fill="#0F5A8B"/>
<path d="M88.8724 43.0225C88.3232 42.8582 87.7928 42.8957 87.2333 42.9144C87.1011 42.9191 86.9722 42.8726 86.8734 42.7847C86.7746 42.6967 86.7135 42.574 86.7029 42.4422C86.6682 42.0192 86.8651 41.7856 87.2936 41.7412C88.4945 41.615 89.6538 41.9256 90.7715 42.6731C90.8887 42.7516 90.9703 42.8743 90.9982 43.0142C91.0398 43.2222 91.0149 43.3921 90.9233 43.5238C90.7334 43.797 90.49 43.858 90.1932 43.7069C89.7315 43.4718 89.3966 43.1785 88.8724 43.0225Z" fill="#0F5A8B"/>
<path d="M123.576 68.5596C125.792 70.0427 128.498 70.0552 131.135 69.7036C131.446 69.6634 131.656 69.7896 131.766 70.0822C131.818 70.2167 131.803 70.3727 131.72 70.5502C131.684 70.627 131.63 70.6937 131.562 70.7445C131.494 70.7953 131.415 70.8286 131.331 70.8415C129.34 71.1354 127.45 71.0931 125.663 70.7146C124.772 70.5274 123.585 70.0989 122.896 69.4187C122.434 68.9611 123.052 68.2102 123.576 68.5596Z" fill="#0F5A8B"/>
<path d="M111.05 69.6495C111.329 69.4318 111.608 69.1898 111.888 68.9236C112.131 68.692 112.361 68.7045 112.577 68.961L112.631 69.0255C112.827 69.2571 112.827 69.4894 112.633 69.7223C110.509 72.2642 106.59 72.5346 103.537 72.3807C103.44 72.3754 103.348 72.3364 103.277 72.2704C103.104 72.1082 103.041 71.9439 103.09 71.7775C103.195 71.4155 103.436 71.2401 103.814 71.2512C106.293 71.324 109.066 71.2034 111.05 69.6495Z" fill="#0F5A8B"/>
<path d="M124.134 79.9583C124.944 79.9583 125.6 79.3018 125.6 78.4918C125.6 77.6819 124.944 77.0254 124.134 77.0254C123.324 77.0254 122.667 77.6819 122.667 78.4918C122.667 79.3018 123.324 79.9583 124.134 79.9583Z" fill="#0F5A8B"/>
<path d="M112.288 80.2581C113.102 80.2581 113.763 79.5979 113.763 78.7834C113.763 77.9689 113.102 77.3086 112.288 77.3086C111.473 77.3086 110.813 77.9689 110.813 78.7834C110.813 79.5979 111.473 80.2581 112.288 80.2581Z" fill="#0F5A8B"/>
<path d="M91.4536 83.5416C91.1104 84.0991 90.7027 83.9826 90.3699 83.5624C89.1281 82.0003 87.697 81.0019 85.7168 80.2697C85.4228 80.1601 85.3299 79.9583 85.438 79.6644L85.4734 79.5708C85.6065 79.2102 85.8534 79.0965 86.2139 79.2296C88.2462 79.9764 90.2056 81.3159 91.4412 83.0778C91.5479 83.2303 91.5521 83.3849 91.4536 83.5416Z" fill="#0F5A8B"/>
<path d="M170.653 135.137C171.066 136.478 171.562 138.168 172.142 140.208C172.402 141.119 172.675 142.045 172.358 142.983C171.899 144.345 170.778 145.136 169.315 144.903C167.612 144.632 167.075 143.391 166.674 141.914C165.105 136.146 163.673 131.001 162.378 126.478C162.293 126.18 162.255 125.849 162.42 125.573C163.252 124.162 164.685 120.734 163.753 119.112C163.462 118.609 162.736 118.45 162.283 118.875C161.324 119.776 160.835 121.252 160.44 122.473C159.423 125.623 158.989 128.613 159.137 131.445C159.256 133.67 159.851 135.58 160.853 137.568C161.423 138.699 161.98 139.818 162.524 140.926C162.984 141.866 163.239 142.94 163.287 144.148C163.336 145.399 163.195 146.684 162.865 148.004C162.851 148.06 162.826 148.112 162.792 148.158C162.758 148.204 162.715 148.242 162.666 148.271C162.617 148.301 162.563 148.32 162.506 148.328C162.45 148.336 162.392 148.333 162.337 148.318C161.875 148.196 161.365 147.42 161.23 147.06C160.735 145.743 161.426 145.242 162.172 144.372C162.187 144.355 162.197 144.334 162.202 144.312C162.207 144.289 162.206 144.266 162.2 144.244C162.194 144.222 162.183 144.201 162.167 144.185C162.151 144.168 162.132 144.155 162.11 144.148C161.767 144.029 160.691 143.542 161.19 143.002C161.36 142.82 161.565 142.771 161.806 142.854C161.829 142.862 161.853 142.863 161.876 142.858C161.899 142.853 161.92 142.841 161.937 142.824C161.954 142.807 161.966 142.786 161.971 142.762C161.977 142.739 161.976 142.715 161.968 142.692C161.809 142.211 161.622 141.749 161.407 141.308C160.774 140.004 160.147 138.733 159.524 137.498C156.706 131.898 158.102 125.213 160.2 119.624C160.268 119.442 160.273 119.258 160.215 119.072C159.854 117.921 159.513 116.787 159.192 115.669C159.017 115.066 159.248 114.894 159.699 114.598C159.763 114.555 159.785 114.496 159.766 114.421L158.141 108.4C158.133 108.372 158.116 108.348 158.093 108.332C158.069 108.316 158.04 108.309 158.012 108.312C154.014 108.732 150.529 107.736 147.556 105.323C144.481 102.827 142.776 99.2077 142.64 95.1994C142.414 88.4911 146.809 82.5983 153.44 81.2649C158.426 80.2623 163.339 82.1552 166.503 86.097C170.911 91.5884 170.176 99.6383 165.351 104.585C164.14 105.827 162.786 106.765 161.288 107.399C161.271 107.406 161.256 107.42 161.248 107.437C161.239 107.454 161.237 107.474 161.242 107.493L162.896 113.454C162.915 113.52 162.954 113.579 163.009 113.622C163.063 113.664 163.13 113.689 163.2 113.691L163.518 113.7C163.55 113.701 163.582 113.71 163.61 113.726C163.637 113.743 163.661 113.766 163.678 113.793C163.804 114.003 163.902 114.217 163.972 114.436C164.799 117.029 165.5 119.339 166.074 121.367C166.172 121.71 166.619 121.826 166.923 121.881C166.989 121.892 167.048 121.929 167.088 121.982C167.128 122.036 167.146 122.103 167.139 122.17C166.923 124.294 166.718 126.393 166.524 128.466C166.488 128.856 166.608 129.199 166.884 129.496C167.528 130.184 168.34 129.489 168.691 128.892C168.946 128.458 169.164 127.943 169.344 127.345C169.821 125.76 170.255 124.023 171.196 122.646C171.343 122.43 171.412 122.199 171.404 121.955C171.368 120.861 171.085 119.335 169.86 119.035C168.612 118.731 168.03 119.563 167.651 120.558C167.631 120.61 167.6 120.657 167.559 120.696C167.519 120.734 167.471 120.764 167.418 120.782C167.137 120.881 166.876 120.829 166.636 120.628C166.596 120.595 166.566 120.55 166.55 120.5C166.534 120.45 166.532 120.397 166.545 120.345C166.905 118.887 167.799 118.058 169.226 117.86C169.345 117.843 169.415 117.775 169.436 117.656C169.784 115.634 170.039 113.841 170.201 112.277C170.316 111.162 170.418 109.386 169.64 108.495C169.132 107.917 168.194 107.89 167.701 108.514C167.409 108.886 167.19 109.308 167.046 109.781C166.497 111.575 166.125 113.4 165.931 115.256C165.889 115.648 165.672 115.825 165.28 115.786C165.259 115.783 165.238 115.78 165.217 115.778C164.815 115.711 164.65 115.477 164.72 115.077C165.097 112.945 165.413 110.648 166.268 108.701C166.971 107.097 168.514 106.322 170.097 107.422C171.36 108.3 171.499 110.213 171.395 111.64C171.255 113.568 170.97 115.606 170.538 117.754C170.519 117.848 170.547 117.925 170.624 117.985C170.778 118.101 170.936 118.218 171.098 118.336C172.202 119.135 172.46 120.66 172.552 121.999C172.554 122.031 172.567 122.061 172.588 122.085C172.609 122.108 172.637 122.124 172.668 122.13C172.978 122.188 173.288 122.258 173.598 122.338C175.135 122.733 176.862 124.021 176.298 125.814C176.272 125.897 176.297 125.959 176.373 125.999C178.085 126.925 178.877 129.691 179.139 131.553C179.632 135.045 179.515 138.42 178.788 141.679C178.422 143.326 177.459 145.098 176.184 146.338C175.844 146.67 175.524 147.008 175.223 147.353C175.026 147.578 174.818 147.588 174.601 147.382L174.54 147.326C174.479 147.268 174.43 147.197 174.395 147.119C174.361 147.042 174.343 146.958 174.342 146.873C174.34 146.788 174.356 146.704 174.387 146.625C174.419 146.547 174.466 146.475 174.526 146.415C174.979 145.957 175.403 145.503 175.797 145.053C177.269 143.37 177.827 141.392 178.047 139.218C178.276 136.983 178.294 134.695 178.099 132.356C178.098 132.335 178.091 132.315 178.081 132.296C178.071 132.278 178.057 132.262 178.04 132.25C178.023 132.237 178.003 132.229 177.983 132.224C177.962 132.22 177.941 132.22 177.921 132.225C177.263 132.377 176.783 132.194 176.238 131.846C176.152 131.792 176.087 131.811 176.044 131.902C175.36 133.367 174.326 135.663 172.471 135.834C171.757 135.9 171.185 135.65 170.755 135.083C170.62 134.905 170.586 134.923 170.653 135.137ZM154.271 105.405C156.998 105.955 159.835 105.385 162.157 103.82C164.479 102.256 166.097 99.825 166.654 97.0627C166.93 95.6949 166.937 94.2869 166.675 92.9191C166.413 91.5512 165.887 90.2503 165.127 89.0906C164.367 87.9309 163.388 86.9351 162.246 86.1601C161.104 85.3852 159.821 84.8462 158.471 84.5739C155.744 84.024 152.907 84.5939 150.585 86.1584C148.263 87.7228 146.645 90.1536 146.088 92.9159C145.812 94.2837 145.805 95.6917 146.067 97.0595C146.329 98.4274 146.855 99.7283 147.615 100.888C148.375 102.048 149.354 103.043 150.496 103.818C151.638 104.593 152.92 105.132 154.271 105.405ZM175.056 126.001C175.415 125.467 175.424 124.965 175.081 124.495C174.513 123.713 173.592 123.304 172.319 123.268C172.271 123.266 172.224 123.276 172.181 123.296C172.139 123.316 172.102 123.347 172.073 123.384C171.825 123.714 171.622 124.105 171.464 124.556C170.891 126.192 170.339 127.785 169.808 129.336C169.742 129.53 169.664 129.72 169.575 129.908C169.386 130.309 169.059 130.644 169.128 131.11C169.211 131.68 169.85 132.287 170.468 131.979C171.221 131.603 171.77 131.045 172.161 130.303C172.722 129.241 173.331 128.213 173.987 127.22C174.187 126.918 174.454 126.836 174.788 126.975L174.944 127.039C175.273 127.175 175.336 127.389 175.133 127.682C174.723 128.271 174.235 128.784 173.879 129.429C173.168 130.724 172.394 131.99 171.558 133.225C171.341 133.544 171.364 133.905 171.578 134.224C172.918 136.229 174.794 131.917 175.156 131.183C175.3 130.889 175.472 130.627 175.67 130.398C175.712 130.349 175.765 130.31 175.824 130.282C175.882 130.255 175.946 130.24 176.011 130.239C176.076 130.238 176.14 130.25 176.2 130.276C176.259 130.301 176.312 130.339 176.356 130.386L177.041 131.126C177.089 131.179 177.15 131.205 177.222 131.203C177.534 131.193 177.794 130.96 177.744 130.627C177.573 129.514 177.028 127.686 175.934 127.124C175.554 126.929 175.257 126.61 175.044 126.168C175.016 126.109 175.02 126.054 175.056 126.001Z" fill="#0F5A8B"/>
<path d="M149.66 90.4891C149.188 91.0146 148.876 91.5451 148.727 92.0803C147.84 95.2559 148.361 98.0904 150.289 100.584C150.418 100.749 150.4 100.896 150.235 101.027C150.203 101.052 150.167 101.073 150.129 101.089C149.883 101.197 149.674 101.149 149.502 100.944C147.845 98.955 147.264 96.4339 147.468 93.7881C147.587 92.235 148.055 90.9585 148.87 89.9587C148.91 89.912 148.959 89.8738 149.014 89.8463C149.269 89.7201 149.468 89.7167 149.613 89.8359C149.855 90.037 149.871 90.2547 149.66 90.4891Z" fill="#0F5A8B"/>
<path d="M119.84 105.021C125.812 103.374 131.356 99.6773 133.779 93.8614C134.126 93.0293 134.447 92.1522 134.744 91.2301C134.855 90.8862 135.088 90.7461 135.443 90.8099C135.578 90.8335 135.694 90.9014 135.793 91.0137C135.846 91.0745 135.882 91.1481 135.898 91.2273C135.914 91.3064 135.909 91.3884 135.884 91.4651C135.655 92.1571 135.405 92.8553 135.133 93.5598C133.554 97.6561 130.782 100.892 126.817 103.267C124.461 104.678 122.228 105.615 120.117 106.08C119.847 106.139 119.653 106.044 119.537 105.795L119.51 105.737C119.338 105.368 119.448 105.129 119.84 105.021Z" fill="#0F5A8B"/>
<path d="M113.482 94.9549C113.229 95.2559 112.958 95.2753 112.666 95.0132L112.6 94.9529C112.377 94.7518 112.357 94.5327 112.542 94.2956C113.914 92.5483 116.217 90.8156 118.455 91.658C119.406 92.0158 120.085 92.6814 120.49 93.6549C120.617 93.96 120.533 94.1881 120.238 94.3392L120.14 94.3892C119.903 94.5112 119.711 94.4606 119.564 94.2373C119.445 94.0529 119.329 93.8608 119.216 93.6611C118.669 92.6856 117.498 92.3403 116.49 92.6856C115.458 93.0364 114.455 93.7929 113.482 94.9549Z" fill="#0F5A8B"/>
<path d="M156.29 158.733C156.286 158.751 156.285 158.769 156.288 158.787C156.297 158.84 156.329 158.872 156.381 158.885C156.431 158.898 156.478 158.919 156.521 158.945C156.533 158.953 156.543 158.963 156.55 158.976C156.557 158.988 156.562 159.002 156.564 159.016C156.565 159.03 156.564 159.044 156.559 159.057C156.555 159.071 156.547 159.083 156.537 159.093C156.412 159.222 156.318 159.364 156.254 159.521C155.913 160.345 155.613 161.214 155.354 162.127C155.269 162.424 155.073 162.563 154.765 162.543C154.719 162.541 154.675 162.532 154.632 162.516C154.276 162.385 154.15 162.136 154.255 161.77C154.843 159.715 155.529 157.931 156.313 156.42C157.039 155.018 157.213 153.092 157.059 151.648C156.883 149.986 155.736 148.784 154.734 147.546C150.854 142.763 146.968 137.755 143.075 132.52C142.685 131.997 141.958 131.113 140.893 129.87C139.154 127.841 137.256 126.184 135.198 124.898C132.635 123.299 129.638 121.932 126.836 120.476C126.362 120.231 125.884 120.088 125.403 120.047C125.328 120.041 125.255 120.018 125.19 119.979C125.126 119.94 125.071 119.888 125.03 119.825C123.099 116.88 120.874 114.17 118.357 111.696C118.295 111.635 118.231 111.634 118.164 111.692L117.815 112.002C117.776 112.036 117.731 112.062 117.682 112.079C117.632 112.095 117.58 112.101 117.529 112.096C117.477 112.091 117.427 112.076 117.381 112.051C117.336 112.027 117.295 111.993 117.263 111.952C117.141 111.797 117.068 111.625 117.045 111.436C116.856 109.922 116.655 108.429 116.44 106.958C116.43 106.887 116.395 106.823 116.341 106.777C116.287 106.73 116.218 106.705 116.146 106.706C114.239 106.716 112.192 106.652 110.397 106.211C110.217 106.166 110.061 106.078 109.929 105.947C109.896 105.913 109.871 105.873 109.854 105.83C109.838 105.786 109.831 105.739 109.833 105.693C109.858 105.333 110.168 104.994 110.551 105.077C112.304 105.45 114.208 105.599 116.265 105.522C117.1 105.49 117.546 105.896 117.604 106.739C117.711 108.27 117.923 109.477 118.992 110.61C121.078 112.825 122.882 114.872 124.829 117.512C125.053 117.82 125.371 118.182 125.688 118.394C126.607 119.011 127.695 119.635 128.951 120.266C130.55 121.07 132.133 121.882 133.7 122.702C136.573 124.203 139.074 126.123 141.203 128.459C142.333 129.699 143.458 131.071 144.577 132.574C149.095 138.645 153.103 143.688 157.529 149.231C157.539 149.242 157.55 149.251 157.564 149.257C157.577 149.262 157.592 149.265 157.606 149.263C157.621 149.262 157.635 149.257 157.647 149.248C157.659 149.24 157.668 149.229 157.675 149.216C157.79 148.993 157.876 148.766 157.933 148.536C158.32 146.997 158.719 145.331 159.659 144.149C159.897 143.851 160.203 143.731 160.579 143.787C160.632 143.794 160.682 143.808 160.731 143.827C161.051 143.953 161.101 144.149 160.88 144.414C160.205 145.23 159.763 146.111 159.553 147.055C159.017 149.464 158.619 152.124 158.362 155.034C158.271 156.055 158.028 157.019 157.631 157.926C157.358 158.55 156.966 158.788 156.454 158.639C156.368 158.614 156.313 158.645 156.29 158.733Z" fill="#0F5A8B"/>
<path d="M66.4844 213H65.3425L64.8391 207.502C64.8321 207.43 64.7933 207.383 64.7226 207.361C62.2577 206.614 59.2021 205.064 59.096 202.252C59.0627 201.342 59.096 200.279 59.1958 199.063C60.6754 181.065 62.0864 164.567 63.4288 149.568C63.6659 146.916 63.8739 144.168 64.2982 141.686C64.4328 140.896 64.6775 139.95 65.0325 138.849C66.5614 134.121 68.1069 129.747 71.0564 125.817C73.8687 122.069 77.4804 119.482 81.8916 118.055C83.9342 117.395 86.0351 116.682 88.1942 115.916C88.9555 115.646 89.6045 115.217 90.1328 114.606C92.2628 112.145 94.6071 110.207 97.5816 108.561C97.9199 108.374 98.2264 108.416 98.501 108.686C98.5148 108.7 98.5349 108.719 98.5613 108.744C98.8442 109.023 98.8081 109.252 98.4531 109.431C95.4786 110.926 92.9576 113.11 90.6487 115.702C90.5544 115.807 90.4677 115.918 90.3887 116.035C90.3526 116.089 90.3394 116.149 90.3491 116.214C90.5405 117.487 91.6742 119.018 92.4875 119.989C95.0682 123.075 98.1869 125.784 101.844 128.116C101.868 128.132 101.898 128.137 101.926 128.131C101.955 128.126 101.981 128.109 101.998 128.085L107.219 120.79C107.399 120.539 107.617 120.499 107.874 120.671L108.024 120.771C108.287 120.949 108.327 121.167 108.142 121.426L102.543 129.289C102.479 129.378 102.389 129.446 102.286 129.481C102.183 129.517 102.071 129.52 101.966 129.489C101.509 129.354 101.105 128.99 100.704 128.732C97.1787 126.464 94.085 123.724 91.4225 120.509C90.4739 119.365 89.7522 118.137 89.2571 116.825C89.2349 116.767 89.1947 116.749 89.1365 116.771C87.2283 117.494 85.4055 118.127 83.6679 118.672C81.9068 119.224 80.6068 119.706 79.7678 120.118C76.8862 121.538 74.5378 123.355 72.7226 125.568C70.8949 127.798 69.4471 130.238 68.3794 132.888C67.7512 134.446 67.0987 136.248 66.422 138.292C65.9117 139.831 65.5713 141.107 65.4007 142.119C64.966 144.696 64.7288 148.289 64.552 150.279C63.01 167.595 61.5733 184.463 60.2421 200.883C60.1547 201.957 60.1672 202.926 60.862 203.781C60.8883 203.813 60.9216 203.835 60.9618 203.847C61.0187 203.867 61.0519 203.865 61.0616 203.841C61.0755 203.807 61.0734 203.774 61.0554 203.743C60.1402 202.233 61.07 200.746 62.5073 200.028C63.8788 199.343 65.4749 198.927 67.2956 198.78C67.5508 198.76 67.7117 198.873 67.7782 199.119L67.8094 199.234C67.9093 199.61 67.7678 199.829 67.3851 199.891L65.8105 200.145C65.7231 200.159 65.6794 200.21 65.6794 200.299C65.6711 204.669 66.1599 208.775 66.4844 213Z" fill="#0F5A8B"/>
<path d="M122.753 213H119.518C120.16 211.438 120.311 209.884 119.972 208.336C119.915 208.081 119.92 207.648 119.988 207.036C120.121 205.807 119.936 204.588 119.834 203.377C119.302 197.007 118.683 189.976 117.977 182.285C117.461 176.655 116.899 171.03 116.462 165.42C116.275 163.01 115.971 160.241 115.549 157.112C114.268 147.596 112.856 137.988 112.084 128.53C112.013 127.662 111.885 126.986 111.699 126.502C111.079 124.883 110.272 122.901 109.047 121.668C108.986 121.607 108.97 121.536 108.999 121.456L109.093 121.185C109.13 121.081 109.1 121.002 109.003 120.948C108.365 120.596 107.734 120.21 107.075 119.92C103.389 118.292 98.2056 115.463 97.902 110.957C97.877 110.595 98.0455 110.399 98.4074 110.367L98.5114 110.356C98.6312 110.346 98.7505 110.382 98.8448 110.456C98.9391 110.531 99.0014 110.639 99.019 110.758C99.2533 112.362 99.9196 113.7 101.018 114.772C103.148 116.852 105.738 118.061 108.398 119.334C110.22 120.205 111.002 121.612 111.874 123.386C111.942 123.525 111.997 123.52 112.04 123.371C112.77 120.786 114.74 118.737 116.596 116.8C117.131 116.241 117.55 115.642 117.852 115.001C118.152 114.367 117.989 113.63 117.987 112.94C117.987 112.883 117.999 112.826 118.024 112.775C118.049 112.723 118.085 112.678 118.131 112.642C118.26 112.541 118.402 112.533 118.557 112.617C119.716 113.243 119.192 115.078 118.655 115.954C118.161 116.762 117.555 117.539 116.837 118.285C115.341 119.841 112.716 122.573 113.066 124.825C113.156 125.405 113.192 126.004 113.174 126.622C113.145 127.586 113.232 128.565 113.322 129.52C113.953 136.219 114.874 143.782 116.086 152.209C116.937 158.122 117.606 164.275 118.091 170.666C118.195 172.036 118.312 173.415 118.443 174.803C119.508 186.1 120.379 195.698 121.055 203.6C121.143 204.612 121.215 205.763 121.274 207.053C121.328 208.244 121.453 209.219 121.65 209.977C121.921 211.013 122.288 212.021 122.753 213Z" fill="#0F5A8B"/>
<path d="M122.228 127.534C122.238 127.548 122.251 127.558 122.266 127.565C122.281 127.572 122.298 127.575 122.314 127.573C122.331 127.571 122.346 127.564 122.359 127.554C122.372 127.544 122.383 127.531 122.389 127.515L124.947 120.795C125.089 120.422 125.344 120.311 125.713 120.464L125.84 120.516C126.125 120.634 126.211 120.836 126.097 121.123C125.089 123.686 124.094 126.219 123.11 128.722C122.875 129.317 122.22 129.712 121.777 129.028C120.299 126.734 118.954 124.686 117.742 122.883C117.274 122.19 116.763 121.482 116.209 120.761C115.997 120.487 115.976 120.234 116.148 120.004C116.191 119.948 116.244 119.9 116.305 119.864C116.365 119.829 116.433 119.806 116.503 119.796C116.573 119.787 116.644 119.792 116.711 119.811C116.779 119.83 116.842 119.862 116.897 119.906C117.222 120.166 117.529 120.509 117.819 120.936C119.261 123.063 120.731 125.263 122.228 127.534Z" fill="#0F5A8B"/>
<path d="M149.523 213H148.377C148.316 210.834 148.186 208.858 147.988 207.071C145.972 188.9 143.526 170.743 140.65 152.6C139.848 147.549 139.008 142.801 138.131 138.358C137.853 136.956 137.524 135.524 137.143 134.063C137.093 133.873 137.2 133.702 137.465 133.551C137.608 133.469 137.776 133.462 137.968 133.528C138.043 133.554 138.11 133.597 138.164 133.655C138.219 133.712 138.259 133.782 138.28 133.859C138.577 134.886 138.824 135.89 139.021 136.871C140.304 143.233 141.413 149.599 142.349 155.968C142.474 156.821 142.748 157.699 143.063 158.516C144.587 162.481 146.2 166.265 147.903 169.869C149.446 173.131 151.364 176.484 153.802 179.011C155.017 180.27 156.523 181.378 158.193 181.828C161.529 182.724 165.18 181.618 167.892 179.54C168.923 178.749 169.878 177.882 170.759 176.939C172.868 174.68 173.877 171.895 174.572 168.927C175.894 163.286 176.876 157.633 177.517 151.968C177.598 151.236 177.602 150.36 177.215 149.72C176.849 149.111 176.346 148.542 175.705 148.012C175.454 147.802 175.424 147.565 175.614 147.3L175.668 147.225C175.831 146.997 176.033 146.957 176.273 147.107C177.262 147.731 177.99 148.595 178.457 149.699C178.852 150.629 178.698 151.926 178.578 152.939C177.993 157.837 177.133 162.817 176.001 167.879C175.223 171.359 174.232 174.71 171.882 177.405C169.519 180.114 166.517 182.354 162.971 183.015C159.722 183.623 156.936 183.04 154.613 181.268C153.581 180.48 152.222 179.278 150.536 177.661C148.593 175.797 146.693 173.986 144.835 172.228C144.768 172.164 144.741 172.178 144.754 172.27C146.432 183.813 147.9 195.431 149.159 207.123C149.402 209.373 149.523 211.331 149.523 213Z" fill="#0F5A8B"/>
<path d="M112.026 135.754C112.026 136.252 111.828 136.73 111.476 137.082C111.123 137.435 110.646 137.633 110.147 137.633C109.649 137.633 109.171 137.435 108.819 137.082C108.467 136.73 108.269 136.252 108.269 135.754C108.269 135.256 108.467 134.778 108.819 134.426C109.171 134.074 109.649 133.876 110.147 133.876C110.646 133.876 111.123 134.074 111.476 134.426C111.828 134.778 112.026 135.256 112.026 135.754ZM110.938 135.746C110.938 135.547 110.859 135.357 110.718 135.216C110.578 135.076 110.388 134.997 110.189 134.997C110.091 134.997 109.993 135.017 109.902 135.054C109.812 135.092 109.729 135.147 109.659 135.216C109.59 135.286 109.535 135.369 109.497 135.459C109.459 135.55 109.44 135.648 109.44 135.746C109.44 135.844 109.459 135.942 109.497 136.033C109.535 136.123 109.59 136.206 109.659 136.275C109.729 136.345 109.812 136.4 109.902 136.438C109.993 136.475 110.091 136.495 110.189 136.495C110.388 136.495 110.578 136.416 110.718 136.275C110.859 136.135 110.938 135.945 110.938 135.746Z" fill="#0F5A8B"/>
<path d="M84.7454 162.026C84.7468 162.523 84.8085 162.531 84.9305 162.048C85.9123 158.128 86.8525 154.202 87.9924 150.232C88.0992 149.859 88.3433 149.708 88.7246 149.78C88.7759 149.79 88.8238 149.811 88.8681 149.843C89.1358 150.027 89.2377 150.218 89.1739 150.415C88.8785 151.349 88.5943 152.342 88.3211 153.393C87.1992 157.728 86.1502 162.096 85.1739 166.498C84.8598 167.91 84.7454 169.158 84.7641 170.729C84.8168 175.38 84.8765 180.231 84.943 185.283C85.0117 190.446 84.9576 195.752 84.9888 200.436C84.9894 200.488 84.9775 200.538 84.9543 200.584C84.9311 200.629 84.8972 200.668 84.8557 200.696C84.5575 200.903 84.276 200.9 84.0112 200.688C83.9515 200.641 83.9148 200.58 83.9009 200.505C83.8066 199.988 83.7602 199.452 83.7615 198.897C83.7976 191.118 83.7539 183.428 83.6305 175.829C83.6083 174.456 83.5986 173.05 83.6014 171.611C83.6097 163.472 83.5417 156.226 83.3975 149.872C83.3448 147.531 83.2353 145.149 83.0689 142.725C83.0564 142.536 83.1965 142.381 83.4891 142.261C83.5431 142.24 83.5979 142.233 83.6534 142.24C84.0195 142.287 84.2192 142.495 84.2524 142.864C84.3953 144.449 84.4778 145.64 84.5 146.438C84.6497 151.699 84.7316 156.895 84.7454 162.026Z" fill="#0F5A8B"/>
<path d="M130.139 147.912C128.48 147.898 126.797 147.968 125.089 148.122C122.503 148.357 122.755 150.816 122.848 152.742C122.858 152.949 122.717 153.107 122.426 153.216C122.38 153.234 122.334 153.243 122.287 153.241C121.897 153.226 121.688 153.024 121.661 152.636C121.509 150.558 121.559 148.06 123.778 147.238C124.265 147.058 124.929 146.945 125.771 146.899C127.439 146.809 129.173 146.736 130.973 146.681C131.331 146.67 131.732 146.648 131.841 147.093C131.917 147.402 131.834 147.606 131.593 147.704C131.56 147.718 131.532 147.742 131.513 147.773C131.494 147.804 131.486 147.839 131.489 147.875C131.719 150.418 131.995 152.903 132.317 155.33C132.361 155.663 132.227 155.891 131.915 156.014C131.865 156.034 131.813 156.041 131.757 156.037C131.363 156.008 131.145 155.797 131.102 155.405L130.291 148.049C130.281 147.958 130.231 147.912 130.139 147.912Z" fill="#0F5A8B"/>
<path d="M162.553 148.68C165.23 151.21 168.248 153.125 171.857 153.225C172 153.229 172.137 153.28 172.248 153.371C172.481 153.563 172.578 153.738 172.539 153.895C172.455 154.228 172.24 154.386 171.897 154.371C167.755 154.184 164.535 152.162 161.598 149.371C161.39 149.174 161.374 148.962 161.55 148.736C161.59 148.685 161.638 148.642 161.692 148.607C161.998 148.403 162.285 148.428 162.553 148.68Z" fill="#0F5A8B"/>
<path d="M173.65 150.633C173.755 150.058 173.872 149.464 173.999 148.853C174.069 148.516 174.275 148.383 174.619 148.456C175.349 148.612 175.874 149.427 176.152 150.055C176.887 151.711 176.455 152.974 174.854 153.843C174.236 154.179 173.68 154.165 173.188 153.801C173.126 153.756 173.097 153.695 173.101 153.618C173.149 152.607 173.465 151.636 173.65 150.633Z" fill="#0F5A8B"/>
<path d="M114.534 155.673C114.534 156.17 114.337 156.647 113.985 156.998C113.634 157.35 113.157 157.547 112.66 157.547C112.163 157.547 111.686 157.35 111.335 156.998C110.983 156.647 110.786 156.17 110.786 155.673C110.786 155.176 110.983 154.699 111.335 154.348C111.686 153.996 112.163 153.799 112.66 153.799C113.157 153.799 113.634 153.996 113.985 154.348C114.337 154.699 114.534 155.176 114.534 155.673ZM113.45 155.69C113.45 155.589 113.431 155.49 113.392 155.397C113.354 155.305 113.298 155.221 113.227 155.15C113.156 155.079 113.072 155.023 112.979 154.984C112.886 154.946 112.787 154.926 112.687 154.926C112.587 154.926 112.487 154.946 112.395 154.984C112.302 155.023 112.218 155.079 112.147 155.15C112.076 155.221 112.02 155.305 111.982 155.397C111.943 155.49 111.924 155.589 111.924 155.69C111.924 155.892 112.004 156.086 112.147 156.229C112.29 156.373 112.484 156.453 112.687 156.453C112.889 156.453 113.084 156.373 113.227 156.229C113.37 156.086 113.45 155.892 113.45 155.69Z" fill="#0F5A8B"/>
<path d="M123.345 161.545C123.718 164.717 125.28 164.569 127.915 164.341C128.312 164.306 128.558 164.482 128.654 164.869C128.697 165.044 128.585 165.224 128.319 165.41C128.252 165.457 128.173 165.486 128.09 165.493C125.249 165.736 122.746 165.736 122.235 162.215C122.006 160.634 121.866 158.966 121.816 157.212C121.814 157.143 121.827 157.074 121.854 157.01C121.88 156.946 121.92 156.889 121.97 156.842C122.159 156.667 122.343 156.604 122.522 156.653C122.828 156.737 122.988 156.939 123 157.258C123.054 158.606 123.169 160.035 123.345 161.545Z" fill="#0F5A8B"/>
<path d="M132.073 164.07C132.182 164.079 132.227 164.03 132.211 163.923L131.811 161.398C131.752 161.02 131.906 160.778 132.273 160.672C132.417 160.63 132.569 160.656 132.729 160.749C132.789 160.784 132.841 160.832 132.879 160.89C132.918 160.948 132.944 161.014 132.953 161.083C133.107 162.182 133.274 163.275 133.453 164.364C133.525 164.805 133.332 165.063 132.874 165.14C132.383 165.221 131.256 165.4 131.289 164.593C131.31 164.108 131.687 164.041 132.073 164.07Z" fill="#0F5A8B"/>
<path d="M116.55 179.096C116.55 179.587 116.355 180.058 116.007 180.405C115.66 180.753 115.189 180.948 114.698 180.948C114.207 180.948 113.737 180.753 113.389 180.405C113.042 180.058 112.847 179.587 112.847 179.096C112.847 178.605 113.042 178.135 113.389 177.787C113.737 177.44 114.207 177.245 114.698 177.245C115.189 177.245 115.66 177.44 116.007 177.787C116.355 178.135 116.55 178.605 116.55 179.096ZM115.458 179.09C115.458 178.89 115.378 178.698 115.237 178.556C115.095 178.415 114.903 178.335 114.703 178.335C114.502 178.335 114.31 178.415 114.169 178.556C114.027 178.698 113.948 178.89 113.948 179.09C113.948 179.29 114.027 179.482 114.169 179.624C114.31 179.766 114.502 179.845 114.703 179.845C114.903 179.845 115.095 179.766 115.237 179.624C115.378 179.482 115.458 179.29 115.458 179.09Z" fill="#0F5A8B"/>
<path d="M80.5332 213H79.3912C79.3468 208.975 79.1908 204.949 78.9232 200.923C78.9183 200.856 78.8923 200.793 78.8488 200.742C78.8054 200.691 78.7469 200.655 78.6819 200.64C76.2302 200.072 73.6537 199.742 70.9523 199.652C70.8561 199.648 70.7628 199.616 70.684 199.559C70.4386 199.378 70.3408 199.206 70.3907 199.043C70.4989 198.686 70.7395 198.513 71.1125 198.523C74.001 198.594 76.8022 198.985 79.516 199.698C81.5732 200.237 84.3855 201.318 84.4229 203.827C84.4541 206.065 82.6195 207.484 80.5831 207.829C80.5082 207.842 80.4715 207.886 80.4728 207.962L80.5332 213Z" fill="#0F5A8B"/>
</g>
<defs>
<clipPath id="clip0_1089_17223">
<rect width="213" height="213" fill="white" transform="translate(0.5)"/>
</clipPath>
</defs>
</svg>
