<svg width="320" height="269" viewBox="0 0 320 269" fill="none" xmlns="http://www.w3.org/2000/svg">
<g clipPath="url(#clip0_1596_513734)">
<path d="M59.6423 13.5282C64.8053 13.4141 69.7049 13.3218 74.341 13.2513C78.2096 13.1911 85.2001 13.2564 95.3125 13.4473C95.4119 13.4496 95.5066 13.4899 95.5772 13.56C95.6478 13.63 95.6889 13.7244 95.6921 13.8238C95.6942 13.8528 95.6942 13.8818 95.6921 13.9109C95.6734 14.1681 95.5365 14.3112 95.2814 14.3403C92.2985 14.6784 89.3322 14.89 86.3825 14.975C77.8445 15.2177 68.1989 15.336 59.4307 14.5332C59.2336 14.5145 58.8934 14.584 58.4101 14.7417C58.3126 14.7728 58.2162 14.7717 58.1207 14.7385C57.7391 14.6058 57.4704 14.3724 57.3149 14.0385C56.873 13.0739 58.5377 10.7309 59.1569 10.0122C62.1958 6.47959 65.9534 4.30154 70.4298 3.47803C74.0049 2.8184 78.4544 3.39403 80.3866 6.79801C80.4696 6.94321 80.5816 6.97121 80.7227 6.88201C83.8217 4.94044 87.2724 4.69152 90.2003 6.58331C91.1317 7.1828 92.1688 8.07164 93.3118 9.24986C93.6001 9.55064 93.5659 9.80682 93.2091 10.0184C93.1655 10.0433 93.1168 10.063 93.0629 10.0775C92.6625 10.175 92.3213 10.0744 92.0392 9.77571C91.7218 9.43967 91.392 9.0974 91.0497 8.74891C88.5232 6.19956 85.7094 5.90501 82.6082 7.86525C82.0253 8.23241 81.4642 8.70017 80.9249 9.26853C80.4208 9.8006 79.7052 10.0806 79.0673 9.5579C78.4264 9.03517 78.7375 7.93059 78.6162 7.19005C78.1463 4.30881 73.5476 4.40215 71.3228 4.81598C66.836 5.64986 61.9541 9.13474 59.4649 13.2201C59.4459 13.2512 59.4355 13.2867 59.435 13.3231C59.4345 13.3595 59.4438 13.3954 59.462 13.4269C59.4801 13.4584 59.5065 13.4845 59.5382 13.5023C59.5699 13.5201 59.6059 13.5291 59.6423 13.5282Z" fill="#0F5A8B"/>
<path d="M142.019 5.71158C145.695 10.1237 147.778 15.3717 148.27 21.4558C148.522 24.5766 147.897 28.718 146.042 31.3316C145.82 31.6449 145.53 31.732 145.171 31.593C144.677 31.4022 144.543 31.0651 144.77 30.5818C148.491 22.6008 145.302 13.3099 140.787 6.37433C140.6 6.08807 140.645 5.84537 140.921 5.64623L141.005 5.584C141.382 5.31019 141.72 5.35272 142.019 5.71158Z" fill="#0F5A8B"/>
<path d="M195.484 33.9796C196.459 34.0315 197.414 34.0398 198.35 34.0045C207.243 33.656 216.484 33.8054 225.227 34.0201C225.303 34.0216 225.375 34.0516 225.429 34.1041C225.483 34.1567 225.516 34.2278 225.519 34.3032L225.526 34.4526C225.53 34.5251 225.507 34.5966 225.46 34.6526C225.413 34.7086 225.346 34.745 225.274 34.7544C222.65 35.0925 219.862 35.2916 216.91 35.3518C210.027 35.4949 202.572 35.6101 195.836 34.9753C195.235 34.9162 194.423 35.162 193.904 34.8882C192.531 34.1663 194.737 31.142 195.369 30.4201C197.84 27.5969 200.812 25.8908 204.287 25.3017C206.931 24.8567 210.961 25.4915 212.317 28.2109C212.382 28.3375 212.473 28.3613 212.591 28.2825C216.745 25.5164 220.578 27.1966 223.478 30.5414C223.514 30.5815 223.54 30.6287 223.555 30.6799C223.57 30.7311 223.574 30.785 223.567 30.8381C223.56 30.8912 223.541 30.9422 223.512 30.9876C223.484 31.033 223.445 31.0719 223.401 31.1015L223.226 31.2135C223.104 31.2932 222.957 31.3251 222.812 31.3033C222.668 31.2815 222.538 31.2075 222.445 31.0953C221.73 30.2324 220.993 29.5406 220.236 29.0199C217.678 27.265 214.853 28.186 212.781 30.4388C212.137 31.1357 211.045 30.9459 210.846 29.9502C210.631 28.8768 210.864 27.8998 209.778 27.2028C207.299 25.6097 203.723 26.5525 201.231 27.934C198.748 29.3134 196.782 31.2332 195.332 33.6934C195.224 33.8738 195.275 33.9693 195.484 33.9796Z" fill="#0F5A8B"/>
<path d="M109.314 39.0622C110.053 40.0102 110.965 40.7456 112.052 41.2683C117.42 43.8384 123.951 45.4346 129.667 44.5198C131.714 44.1921 133.572 43.4277 135.239 42.2266C135.615 41.957 135.937 42.0099 136.207 42.3853L136.266 42.4662C136.463 42.74 136.443 42.9972 136.207 43.2379C134.346 45.139 131.191 46.1845 128.556 46.4458C123.148 46.981 117.855 45.9864 112.678 43.4619C110.877 42.5845 109.422 41.3741 108.312 39.8308C108.07 39.4906 108.129 39.2157 108.49 39.0062L108.62 38.9284C108.733 38.8631 108.866 38.8406 108.993 38.8652C109.121 38.8898 109.235 38.9598 109.314 39.0622Z" fill="#0F5A8B"/>
<path d="M267.68 161.147C271.18 159.124 274.901 158.096 278.844 158.063C280.07 158.051 281.673 158.262 282.578 159.186C283.316 159.942 282.911 160.966 282.071 161.43C281.135 161.944 280.123 162.303 279.034 162.506C274 163.444 269.63 164.323 265.925 165.145C265.813 165.17 265.708 165.221 265.619 165.295C265.53 165.369 265.46 165.462 265.415 165.568C262.353 172.578 260.499 179.962 258.679 187.386C258.67 187.415 258.681 187.434 258.71 187.442H258.713C258.755 187.456 258.784 187.443 258.8 187.401C262.297 178.863 270.982 172.488 279.498 169.965C284.112 168.599 289.47 168.182 294.016 169.986C294.862 170.322 296.686 171.075 296.499 172.164C296.461 172.382 296.341 172.578 296.164 172.709C295.987 172.841 295.766 172.899 295.547 172.871C295.304 172.84 295.059 172.819 294.813 172.808C294.137 172.78 292.927 173.72 292.32 174.028C286.922 176.754 281.956 179.601 277.936 184.072C276.225 185.974 274.548 187.996 272.908 190.136C272.887 190.162 272.874 190.193 272.869 190.226C272.864 190.258 272.867 190.292 272.878 190.323C272.889 190.354 272.908 190.381 272.933 190.403C272.958 190.425 272.988 190.44 273.02 190.448C278.984 191.739 286.237 194.919 288.664 200.933C288.695 201.009 288.749 201.073 288.819 201.117C288.888 201.16 288.969 201.179 289.05 201.173C295.113 200.685 301.058 201.117 306.885 202.467C307.124 202.523 307.348 202.604 307.557 202.71C307.761 202.812 307.748 202.87 307.52 202.884C303.985 203.085 300.313 203.231 296.502 203.32C294.357 203.37 292.291 203.461 290.304 203.594C281.086 204.216 272.009 205.086 263.075 206.204C261.113 206.449 259.118 206.738 257.089 207.072C257.068 207.076 257.048 207.084 257.031 207.096C257.013 207.107 256.998 207.122 256.987 207.14C256.976 207.158 256.969 207.177 256.966 207.198C256.963 207.218 256.965 207.239 256.971 207.259C257.792 210.157 258.52 212.952 259.155 215.644C259.329 216.388 259.394 217.045 258.981 217.742C258.51 218.528 258.074 219.309 257.674 220.085C257.338 220.738 256.831 221.121 256.152 221.233C229.242 225.651 203.572 229.826 179.143 233.757C176.753 234.14 174.328 234.524 171.868 234.908C170.93 235.055 170.229 235.045 169.765 234.877C168.956 234.586 168.457 233.903 168.268 232.826C167.515 228.499 166.722 223.88 165.888 218.968C165.88 218.92 165.861 218.876 165.833 218.837C165.805 218.799 165.768 218.768 165.726 218.747C164.154 217.954 162.675 217.164 161.289 216.376C157.899 214.451 154.539 213.112 151.208 212.359C148.93 211.842 146.351 211.386 143.469 210.99C132.909 209.533 123.105 208.578 111.863 207.887C110.017 207.773 107.947 207.617 105.655 207.418C101.828 207.084 98.1566 206.85 94.6406 206.718C90.4494 206.559 86.3267 206.543 82.2039 205.909C78.4266 205.327 74.6368 204.664 70.9279 204.574C69.1108 204.53 66.6631 204.727 63.5847 205.165C63.4012 205.191 63.213 205.155 63.0496 205.062C62.5974 204.803 62.3837 204.533 62.4086 204.253C62.448 203.782 62.698 203.497 63.1585 203.398C66.2658 202.721 69.4147 202.398 72.605 202.427C72.6587 202.427 72.7109 202.409 72.7536 202.376C72.7963 202.344 72.8272 202.298 72.8415 202.246L75.0319 193.992C75.0631 193.873 75.0185 193.803 74.8982 193.78C74.1908 193.641 73.3891 193.542 72.493 193.484C68.5476 193.229 64.3346 192.931 60.0439 192.694C59.3614 192.657 58.6862 192.654 58.0183 192.685C53.042 192.913 48.5562 192.915 44.561 192.691C41.8374 192.54 39.7164 192.502 38.198 192.579C33.229 192.831 28.3626 194.11 23.6487 194.813C23.5438 194.827 23.4372 194.822 23.3344 194.797C22.6188 194.627 22.2765 194.386 22.3076 194.072C22.3449 193.722 22.4673 193.519 22.6748 193.463C25.7634 192.647 28.5659 191.937 31.082 191.331C34.7142 190.456 38.4832 190.088 42.3892 190.227C42.5448 190.233 42.6641 190.17 42.747 190.037C43.1661 189.373 43.6815 188.777 44.2935 188.248C48.6993 184.452 54.4058 182.015 60.2399 180.839C62.1732 180.451 63.9125 180.282 65.4579 180.332C65.5927 180.336 65.6176 180.287 65.5325 180.186C62.8504 176.906 60.6682 173.29 58.986 169.336C56.9604 164.575 55.2304 159.666 53.6124 154.78C53.3676 154.04 53.2452 153.272 53.2452 152.478C53.2458 152.32 53.3042 152.168 53.4092 152.051C53.5143 151.934 53.6586 151.86 53.8146 151.843C54.1756 151.804 54.5313 151.829 54.8819 151.918C63.5225 154.115 71.7524 160.092 77.7856 167.124C78.9514 168.482 79.8931 169.839 80.6109 171.194C80.7976 171.544 80.9303 171.524 81.0091 171.134C81.2145 170.145 81.4976 169.156 81.8586 168.166C81.9955 167.791 81.9613 167.431 81.7559 167.086C81.4364 166.553 81.1129 166.041 80.7851 165.549C76.4705 159.069 71.7867 152.501 66.7336 145.844C66.714 145.819 66.6881 145.799 66.6585 145.787C66.6289 145.775 66.5966 145.77 66.5649 145.774C66.5331 145.778 66.5029 145.791 66.4774 145.81C66.4519 145.83 66.4318 145.855 66.4193 145.885C66.1227 146.602 65.6964 147.221 65.1405 147.739C62.9749 149.762 60.4867 150.276 57.676 149.282C56.0062 148.691 54.8238 147.606 54.1289 146.028C54.0646 145.883 53.9629 145.846 53.824 145.919C51.4074 147.172 49.1101 147.167 46.932 145.903C44.2903 144.376 44.0259 141.043 46.4124 139.12C46.653 138.927 46.6198 138.823 46.3128 138.806C45.0081 138.731 43.8661 138.503 42.8871 138.122C40.2734 137.104 39.0817 134.49 40.933 132.076C41.852 130.881 43.1671 129.855 44.8784 128.999C44.9019 128.987 44.9223 128.97 44.9381 128.949C44.954 128.929 44.9647 128.904 44.9695 128.879C44.9744 128.853 44.9732 128.827 44.966 128.802C44.9588 128.776 44.9459 128.753 44.9282 128.734C44.2001 127.917 43.7323 127.003 43.5249 125.993C42.8746 122.822 45.675 120.93 48.5189 120.492C48.5665 120.485 48.6103 120.461 48.6426 120.425C48.6749 120.39 48.6939 120.344 48.6962 120.296C48.8331 117.726 49.4865 115.292 52.4549 115.264C53.5097 115.255 54.5023 115.697 55.3859 116.235C55.4089 116.249 55.4345 116.259 55.4611 116.263C55.4877 116.267 55.5148 116.265 55.5407 116.258C55.5666 116.252 55.5907 116.24 55.6117 116.224C55.6327 116.207 55.6501 116.187 55.6629 116.164C56.6461 114.387 57.9903 113.117 60.1714 113.295C62.6388 113.494 64.4715 114.763 65.9028 116.714C65.9308 116.754 65.9725 116.782 66.02 116.792C66.0676 116.803 66.1177 116.797 66.1611 116.774C68.168 115.66 70.9185 115.258 72.4183 117.43C73.1692 118.517 73.4171 119.738 73.1619 121.092C73.1391 121.21 73.1879 121.269 73.3082 121.267C75.1906 121.26 77.4994 121.799 78.1528 123.725C78.7346 125.439 77.8323 127.474 76.3512 128.398C76.3173 128.419 76.29 128.449 76.2724 128.485C76.2547 128.521 76.2474 128.561 76.2513 128.601C76.2552 128.641 76.2701 128.679 76.2943 128.71C76.3186 128.742 76.3512 128.767 76.3886 128.781C77.6684 129.279 78.6641 129.997 79.3756 130.937C81.1367 133.261 81.0091 136.189 78.3768 137.726C77.1986 138.413 75.6522 138.921 73.7376 139.251C73.6152 139.274 73.5789 139.342 73.6287 139.456C75.1875 143.047 72.9659 146.127 68.9956 145.679C68.8255 145.659 68.7955 145.715 68.9054 145.847C71.8261 149.397 74.7561 153.245 77.6954 157.394C79.527 159.979 81.1087 162.594 82.4404 165.241C82.4985 165.355 82.5431 165.35 82.5742 165.226L90.2161 136.441C90.243 136.333 90.242 136.226 90.2129 136.118C89.9454 135.156 90.661 134.055 91.3766 133.492C92.6171 132.523 93.9094 132.282 95.2536 132.77C95.3677 132.811 95.4278 132.771 95.434 132.648L95.5274 130.651C95.5336 130.537 95.4807 130.47 95.3687 130.452L91.834 129.857C91.8079 129.853 91.7829 129.844 91.7608 129.829C91.7387 129.814 91.72 129.795 91.7059 129.772C91.6917 129.749 91.6825 129.724 91.6789 129.697C91.6752 129.671 91.6772 129.644 91.6847 129.618L97.2107 109.57C97.2365 109.478 97.2922 109.398 97.369 109.341C97.4457 109.285 97.539 109.256 97.6339 109.259L109.753 109.757C109.857 109.761 109.907 109.711 109.903 109.608L108.313 79.6938C108.306 79.5797 108.359 79.5216 108.471 79.5195L114.184 79.3764C114.325 79.3723 114.383 79.3017 114.358 79.1648C114.143 77.8922 113.801 73.6295 115.537 73.2685C117.383 72.8858 119.417 72.7583 121.312 72.6929C121.362 72.6919 121.411 72.6779 121.454 72.6523C121.497 72.6267 121.533 72.5903 121.558 72.5467C122.417 71.0656 124.981 70.9443 125.752 72.5249C125.802 72.6307 125.885 72.6888 126.001 72.6991C126.893 72.7759 127.797 72.8464 128.712 72.9107C130.712 73.0538 132.187 73.5361 132.231 75.708C132.251 76.7347 132.217 77.7605 132.128 78.7852C132.127 78.8025 132.129 78.8198 132.135 78.8361C132.141 78.8523 132.15 78.8671 132.162 78.8795C132.174 78.8919 132.189 78.9015 132.205 78.9078C132.221 78.9141 132.238 78.9168 132.256 78.9159C141.316 78.6711 150.396 78.4181 159.494 78.1567C160.267 78.1339 161.019 78.0665 161.749 77.9545C161.922 77.9275 162.049 77.8383 162.132 77.6869C163.039 76.0191 163.973 74.3099 164.936 72.5591C165.331 71.8373 166.149 72.0582 166.815 72.0613C167.02 72.0634 167.058 71.9845 166.927 71.8248C166.544 71.3612 165.975 71.0718 166.273 70.3406C166.291 70.2978 166.318 70.2593 166.352 70.2281C166.387 70.1969 166.428 70.1737 166.473 70.1602C167.179 69.9424 169.388 69.5347 169.737 70.5491C169.859 70.9017 169.787 71.1984 169.522 71.439C169.188 71.746 169.248 71.8933 169.702 71.8808L178.268 71.6163C178.822 71.5997 178.866 71.4411 178.399 71.1403C178.209 71.0189 178.016 70.9287 177.892 70.7233C177.599 70.2348 177.967 69.7588 178.461 69.6685C179.362 69.5067 180.2 69.5379 180.975 69.7619C181.08 69.7922 181.176 69.8466 181.255 69.9207C181.335 69.9949 181.396 70.0866 181.433 70.1887C181.471 70.2907 181.484 70.4002 181.471 70.5082C181.459 70.6162 181.421 70.7197 181.361 70.8105C181.262 70.9619 181.188 71.1258 181.14 71.3021C181.066 71.5676 181.16 71.662 181.423 71.5852C182.011 71.4172 182.92 71.3114 183.228 72.0053C183.948 73.6212 184.697 75.3128 185.475 77.0801C185.502 77.1436 185.548 77.1973 185.606 77.2345C185.664 77.2717 185.732 77.2905 185.801 77.2886L195.935 77.0335C195.955 77.0331 195.973 77.0288 195.991 77.0209C196.008 77.0131 196.023 77.0017 196.036 76.9877C196.049 76.9736 196.058 76.9571 196.064 76.9393C196.07 76.9214 196.071 76.9026 196.069 76.8841C195.951 75.6208 195.307 72.0208 197.192 71.6786C198.499 71.4421 199.754 71.3498 200.957 71.4016C201.121 71.4079 201.16 71.3415 201.073 71.2025L200.911 70.9349C200.879 70.8838 200.859 70.8268 200.85 70.7674C200.841 70.708 200.845 70.6475 200.861 70.5895C201.01 70.0523 201.365 69.7308 201.925 69.625C202.918 69.4383 204.912 69.5036 204.707 71.0283C204.702 71.0586 204.705 71.0894 204.714 71.1186C204.723 71.1478 204.739 71.1745 204.76 71.1969C204.781 71.2193 204.806 71.2367 204.835 71.2479C204.863 71.2591 204.894 71.2638 204.925 71.2616C206.005 71.1932 207.18 71.1683 208.45 71.1869C210.13 71.2087 210.637 72.2231 210.721 73.7415C210.769 74.6583 210.833 75.5783 210.914 76.5014C210.917 76.5267 210.928 76.5501 210.948 76.5669C210.967 76.5837 210.991 76.5925 211.017 76.5916L223.267 76.2805C223.358 76.2784 223.405 76.323 223.407 76.4143L224.493 110.165C224.497 110.27 224.552 110.324 224.658 110.326L235.71 110.516C235.783 110.517 235.854 110.546 235.907 110.598C235.96 110.649 235.99 110.719 235.993 110.793L236.472 126.295C236.476 126.415 236.538 126.472 236.659 126.466L244.773 125.974C245.049 125.958 245.19 126.087 245.197 126.363C245.321 131.161 245.338 136.077 245.246 141.112C245.244 141.224 245.3 141.281 245.414 141.283C249.686 141.328 253.928 141.494 258.14 141.781C258.298 141.793 258.419 141.732 258.505 141.597C258.575 141.485 258.561 141.382 258.461 141.289C258.399 141.229 258.326 141.184 258.243 141.155C256.571 140.589 255.514 140.206 255.073 140.007C252.841 138.999 250.874 137.662 249.173 135.996C248.374 135.215 247.636 133.65 248.389 132.611C249.089 131.65 250.679 131.808 251.659 132.16C254.7 133.253 257.467 135.057 259.961 137.571C260.048 137.658 260.115 137.644 260.163 137.53L263.919 128.42C264.002 128.223 263.944 128.082 263.747 127.997C261 126.814 254.304 123.14 255.297 119.247C255.548 118.262 256.304 117.72 257.565 117.623C261.047 117.352 264.765 120.906 265.957 123.871C265.963 123.888 265.975 123.904 265.991 123.915C266.006 123.926 266.024 123.932 266.043 123.933C266.062 123.933 266.081 123.928 266.097 123.918C266.113 123.909 266.126 123.894 266.134 123.877C267.312 121.38 268.686 118.841 270.257 116.26C270.36 116.09 270.312 116.012 270.11 116.027C269.841 116.045 269.584 115.989 269.339 115.859C267.096 114.649 265.034 113.155 263.15 111.375C262.574 110.831 260.692 109.048 261.759 108.229C264.367 106.232 268.947 112.38 270.045 114.101C270.304 114.507 270.451 114.932 270.484 115.373C270.502 115.643 270.593 115.669 270.755 115.451C271.916 113.873 273.082 112.258 274.252 110.607C274.51 110.246 274.852 109.962 275.151 109.639C275.257 109.525 275.236 109.443 275.089 109.393C274.004 109.028 272.968 108.498 271.98 107.803C269.553 106.089 266.7 103.609 266.535 100.382C266.488 99.4445 266.913 98.9104 267.811 98.7797C270.073 98.4437 272.136 100.503 273.518 102.103C273.6 102.198 273.678 102.193 273.751 102.087C274.539 100.932 275.374 100.181 276.256 99.8345C278.77 98.8534 281.009 99.1925 282.973 100.852C284.398 102.057 284.96 103.701 284.657 105.784C284.638 105.906 284.692 105.965 284.818 105.961C286.321 105.893 292.678 105.992 292.6 108.441C292.575 109.264 292.073 109.761 291.094 109.931C289.804 110.155 288.415 110.281 286.928 110.308C284.269 110.358 281.892 110.332 279.797 110.23C278.776 110.182 277.798 109.946 276.862 109.521C276.828 109.504 276.789 109.5 276.752 109.507C276.714 109.514 276.68 109.533 276.654 109.561C274.927 111.406 273.623 113.696 272.204 115.756C272.072 115.951 272.113 116.002 272.329 115.909C275.496 114.548 278.751 113.934 282.093 114.067C283.132 114.11 285.052 114.642 285.12 115.946C285.276 119.054 275.107 118.784 273.228 118.687C272.591 118.654 271.886 118.486 271.112 118.183C270.975 118.129 270.874 118.167 270.807 118.298L267.792 124.344C267.736 124.454 267.769 124.495 267.889 124.468C271.84 123.578 276.691 123.202 280.711 123.986C281.313 124.104 281.86 124.309 282.354 124.599C283.459 125.249 283.303 126.584 282.317 127.209C281.616 127.653 280.818 127.928 279.924 128.034C275.468 128.563 270.636 128.457 266.177 128.404C266.043 128.402 265.951 128.464 265.904 128.591L261.834 139.4C261.767 139.577 261.822 139.631 261.999 139.562C262.344 139.425 262.786 139.307 263.15 139.279C266.284 139.038 269.47 139.481 272.709 140.608C273.847 141.004 274.759 141.56 275.444 142.275C276.987 143.89 274.504 144.901 273.262 145.085C272.352 145.22 271.423 145.266 270.478 145.222C267.273 145.082 263.679 144.721 260.49 143.732C260.407 143.707 260.352 143.736 260.325 143.819C259.084 147.687 257.983 151.5 257.02 155.257C257.012 155.291 257.016 155.327 257.032 155.358C257.048 155.39 257.075 155.414 257.107 155.428C258.031 155.77 258.882 156.256 259.662 156.887C261.582 158.436 263.346 160.198 264.874 162.145C264.884 162.158 264.897 162.168 264.912 162.175C264.927 162.181 264.943 162.183 264.959 162.182C264.975 162.18 264.991 162.175 265.004 162.166C265.017 162.157 265.028 162.144 265.036 162.13C266.846 158.649 268.702 155.56 270.602 152.864C271.338 151.818 272.235 150.795 273.29 149.793C273.672 149.432 274.092 149.317 274.551 149.447C274.65 149.476 274.724 149.54 274.771 149.637C274.915 149.919 274.881 150.18 274.672 150.418C271.76 153.723 269.83 157.043 267.603 161.072C267.538 161.188 267.564 161.213 267.68 161.147ZM186.812 79.7685C186.736 79.7705 186.713 79.8068 186.744 79.8774L189.109 85.2634C189.126 85.304 189.155 85.3384 189.193 85.3622C189.23 85.3861 189.273 85.3982 189.317 85.3972C191.779 85.337 194.555 85.2582 197.644 85.1607C200.422 85.0736 202.41 86.3244 202.563 89.271C202.594 89.8476 202.62 90.499 202.641 91.225C202.962 102.474 203.319 114.494 203.711 127.284C203.719 127.537 203.7 127.869 203.652 128.28C203.639 128.386 203.686 128.434 203.792 128.426L222.934 127.25C222.949 127.249 222.963 127.242 222.974 127.231C222.984 127.219 222.99 127.204 222.99 127.188L220.983 79.0217C220.979 78.9097 220.922 78.8558 220.812 78.8599L186.812 79.7685ZM160.321 80.7392C160.33 80.7236 160.334 80.7059 160.334 80.688C160.334 80.6701 160.329 80.6526 160.32 80.6372C160.311 80.6218 160.298 80.609 160.282 80.6002C160.267 80.5913 160.249 80.5867 160.231 80.5868L111.707 81.9527C111.583 81.9548 111.524 82.0181 111.53 82.1425L114.035 131.338C114.035 131.361 114.041 131.382 114.05 131.402C114.059 131.422 114.072 131.44 114.088 131.455C114.104 131.47 114.123 131.482 114.144 131.49C114.165 131.498 114.187 131.501 114.209 131.5L142.511 130.517C142.611 130.513 142.659 130.461 142.657 130.361C142.645 130.003 142.632 129.645 142.62 129.288C142.197 116.375 141.772 103.464 141.344 90.5529C141.321 89.8352 141.578 89.0926 142.113 88.3251C142.947 87.1303 144.449 86.7133 145.847 86.676C149.632 86.5743 153.396 86.4551 157.138 86.3182C157.181 86.3163 157.223 86.3033 157.259 86.2804C157.296 86.2575 157.326 86.2255 157.347 86.1875L160.321 80.7392ZM186.38 106.96C184.578 90.1235 161.13 87.2236 154.198 101.975C151.961 106.736 152.228 112.856 155.312 117.29C160.234 124.375 170.06 125.56 177.562 122.206C183.57 119.518 187.089 113.581 186.38 106.96ZM273.11 105.861C273.232 105.953 273.285 105.923 273.269 105.771C273.185 104.968 273.079 104.107 272.565 103.45C271.576 102.19 270.023 100.152 268.648 99.8563C268.497 99.8231 268.445 99.8812 268.492 100.031C269.249 102.333 271.1 104.371 273.11 105.861ZM283.324 104.05C283.243 103.254 282.768 102.532 282.003 102.041C281.237 101.55 280.245 101.332 279.243 101.434C278.747 101.484 278.264 101.612 277.821 101.809C277.378 102.006 276.984 102.269 276.662 102.584C276.339 102.898 276.095 103.257 275.942 103.64C275.789 104.023 275.731 104.423 275.771 104.817C275.852 105.612 276.327 106.335 277.093 106.826C277.858 107.316 278.851 107.535 279.852 107.433C280.348 107.383 280.831 107.255 281.274 107.058C281.717 106.86 282.111 106.597 282.434 106.283C282.756 105.969 283 105.61 283.153 105.227C283.306 104.844 283.364 104.444 283.324 104.05ZM290.264 107.439C288.708 107.128 286.967 107.013 285.043 107.094C284.044 107.137 283.602 107.769 283.011 108.416C282.884 108.553 282.914 108.62 283.101 108.618C285.941 108.577 288.547 108.508 290.92 108.413C291.621 108.386 291.697 108.16 291.147 107.735C291.014 107.629 290.72 107.53 290.264 107.439ZM110.067 111.823C110.066 111.799 110.055 111.777 110.038 111.76C110.021 111.743 109.998 111.734 109.974 111.733L99.0123 111.223C98.9899 111.221 98.9678 111.227 98.9496 111.241C98.9315 111.254 98.9184 111.273 98.9127 111.294L94.1988 128.224C94.1956 128.237 94.1951 128.25 94.1974 128.263C94.1996 128.276 94.2045 128.289 94.2118 128.3C94.2191 128.311 94.2287 128.32 94.2398 128.328C94.2509 128.335 94.2635 128.34 94.2766 128.342L111.001 131.027C111.015 131.03 111.03 131.029 111.043 131.025C111.057 131.021 111.07 131.014 111.081 131.004C111.091 130.995 111.1 130.983 111.105 130.97C111.111 130.956 111.114 130.942 111.113 130.928L110.067 111.823ZM234.07 112.663C234.068 112.638 234.058 112.615 234.04 112.598C234.022 112.581 233.998 112.571 233.973 112.57L224.664 112.389C224.637 112.389 224.612 112.4 224.593 112.419C224.575 112.437 224.564 112.463 224.564 112.489L224.869 127.02C224.87 127.033 224.873 127.046 224.878 127.058C224.884 127.07 224.892 127.081 224.902 127.09C224.912 127.099 224.923 127.106 224.936 127.111C224.948 127.115 224.962 127.117 224.975 127.116L234.929 126.519C234.942 126.518 234.955 126.515 234.966 126.509C234.978 126.503 234.989 126.495 234.997 126.485C235.006 126.475 235.013 126.464 235.017 126.452C235.021 126.439 235.023 126.426 235.022 126.413L234.07 112.663ZM283.925 115.918C283.95 115.904 283.97 115.884 283.985 115.86C284.001 115.837 284.01 115.81 284.013 115.782C284.015 115.754 284.011 115.726 284.001 115.7C283.991 115.673 283.975 115.65 283.953 115.632C283.428 115.171 282.236 115.059 281.598 115.081C278.34 115.187 275.132 115.821 272.204 116.97C271.431 117.274 271.46 117.427 272.292 117.427C275.443 117.427 278.75 117.133 282.214 116.546C282.756 116.456 283.434 116.201 283.925 115.918ZM51.6179 137.897C51.6593 137.964 51.6868 138.039 51.6986 138.117C51.7103 138.195 51.7062 138.274 51.6865 138.351C51.6667 138.427 51.6317 138.499 51.5836 138.562C51.5354 138.624 51.4752 138.677 51.4063 138.716C50.0902 139.466 48.4566 139.945 47.4423 141.133C46.5586 142.166 46.7702 144.108 48.3944 144.313C50.4604 144.578 52.1158 143.392 53.7742 142.31C54.2824 141.976 54.8093 141.948 55.3548 142.226C56.5621 142.84 56.9324 143.663 56.4656 144.696C55.7687 146.239 57.6107 147.375 58.9144 147.521C61.2729 147.785 62.9583 146.775 63.9706 144.491C64.4964 143.305 62.4771 142.639 63.5847 141.379C64.4031 140.449 65.5294 140.67 66.3882 141.42C67.4554 142.35 70.038 144.587 71.4631 143.143C72.2472 142.35 72.1383 140.67 71.3199 139.942C70.8128 139.491 69.982 139.021 70.0535 138.234C70.1282 137.387 70.6852 136.973 71.4817 136.899C72.9659 136.759 74.4003 136.497 75.7663 135.912C77.3998 135.215 78.3426 133.697 76.9549 132.135C76.3699 131.479 75.6625 130.967 74.8328 130.598C74.7104 130.544 74.587 130.54 74.4625 130.585C73.6473 130.881 72.969 130.981 72.2503 130.333C71.4817 129.64 71.5377 128.694 72.4525 128.193C73.8216 127.443 75.3026 126.503 75.9218 125.094C75.9741 124.975 75.9925 124.844 75.9749 124.715C75.9574 124.586 75.9045 124.464 75.8223 124.362C75.1066 123.491 73.7344 123.585 72.7077 123.753C71.4693 123.958 70.8003 122.296 71.0586 121.326C71.4102 119.991 71.2795 117.67 69.2726 117.978C68.9241 118.032 68.6077 118.137 68.3236 118.295C67.3061 118.868 66.2264 120.336 64.932 119.334C64.5877 119.069 64.3087 118.713 64.095 118.267C63.3918 116.802 61.5374 114.524 59.6923 116.014C58.7868 116.746 58.2516 117.713 57.7662 118.759C57.5588 119.207 57.258 119.499 56.8639 119.636C54.3436 120.51 53.9453 116.369 51.8108 117.097C51.6979 117.135 51.6015 117.21 51.537 117.309C51.0226 118.111 50.8152 119.042 50.9147 120.1C50.9286 120.235 50.9957 120.36 51.1014 120.448C51.5557 120.812 52.1624 121.176 52.1438 121.839C52.1397 122.012 52.0677 122.176 51.9436 122.297C51.8195 122.417 51.6532 122.482 51.481 122.48C49.4336 122.455 47.4578 122.315 45.9083 123.871C45.5889 124.192 45.4603 124.64 45.5225 125.215C45.7175 127.03 46.486 128.047 47.8281 128.267C48.2855 128.342 48.8145 128.619 49.0447 129.039C49.2895 129.481 49.1754 129.792 48.7024 129.972C46.792 130.694 44.9033 131.307 43.2667 132.602C42.1559 133.479 41.2442 135.078 42.9462 135.962C43.527 136.263 44.2188 136.452 45.0215 136.528C46.8096 136.699 48.4234 136.686 49.863 136.491C49.9641 136.477 50.0664 136.494 50.1555 136.541C50.7695 136.862 51.257 137.315 51.6179 137.897ZM264.687 126.31C264.812 126.167 264.904 126.009 264.964 125.837C265.006 125.721 265.001 125.605 264.952 125.489C263.819 122.83 261.981 120.791 259.438 119.375C258.832 119.037 258.19 118.862 257.512 118.852C257.45 118.851 257.389 118.864 257.334 118.89C257.278 118.916 257.229 118.954 257.189 119.001C257.15 119.049 257.122 119.105 257.108 119.164C257.093 119.224 257.092 119.286 257.104 119.347C257.475 121.161 258.579 122.713 260.113 123.896C261.432 124.914 262.761 125.961 264.099 127.035C264.263 127.166 264.374 127.131 264.432 126.929L264.516 126.628C264.549 126.509 264.606 126.404 264.687 126.31ZM266.865 126.556C266.815 126.656 266.845 126.703 266.955 126.699C270.154 126.556 273.371 126.481 276.607 126.475C278.07 126.475 279.563 126.36 280.994 126.12C281.314 126.067 281.62 125.952 281.912 125.778C281.947 125.758 281.975 125.728 281.993 125.692C282.01 125.657 282.017 125.616 282.013 125.576C282.008 125.536 281.992 125.498 281.967 125.467C281.941 125.435 281.907 125.412 281.869 125.399C280.937 125.092 279.921 124.923 278.82 124.891C274.995 124.779 271.299 124.972 267.475 125.704C267.338 125.73 267.239 125.806 267.176 125.931L266.865 126.556ZM194.128 142.845C194.159 142.833 194.187 142.814 194.209 142.789C194.232 142.764 194.247 142.734 194.255 142.702C194.66 141.084 195.917 140.023 197.591 140.125C197.977 140.15 198.359 140.166 198.739 140.172C213.178 140.456 228.191 140.786 243.778 141.161C243.834 141.163 243.861 141.137 243.859 141.081L243.249 128.454C243.241 128.255 243.137 128.161 242.938 128.171C229.957 128.841 216.528 129.603 202.653 130.458C202.423 130.47 202.108 130.509 201.707 130.573C201.353 130.627 201.032 130.662 200.746 130.679C185.18 131.554 169.912 132.406 154.941 133.233C154.236 133.271 153.527 133.306 152.813 133.339C152.712 133.343 152.661 133.396 152.661 133.498L152.692 138.856C152.692 138.968 152.748 139.03 152.86 139.042C158.328 139.679 163.618 140.269 168.732 140.813C170.714 141.025 172.926 141.675 174.068 143.445C174.194 143.64 174.369 143.768 174.591 143.828C176.094 144.239 177.566 144.53 179.006 144.702C180.216 144.845 181.265 144.506 182.444 144.497C183.668 144.485 184.882 144.327 186.088 144.024C186.694 143.872 187.261 144.03 187.833 143.872C188.267 143.751 188.696 143.722 189.121 143.784C190.91 144.04 192.457 143.479 194.128 142.845ZM111.178 134.036L111.163 132.96C111.163 132.852 111.11 132.79 111.004 132.776C106.795 132.135 102.498 131.495 98.113 130.856C97.8932 130.823 97.6619 130.802 97.4192 130.794C97.2843 130.79 97.2149 130.856 97.2107 130.993L97.1454 132.81C97.1412 132.937 97.2024 133.007 97.3289 133.022L150.819 138.828C150.966 138.842 151.038 138.776 151.033 138.629L150.903 133.554C150.902 133.525 150.895 133.497 150.883 133.471C150.871 133.445 150.854 133.421 150.832 133.402C150.81 133.383 150.785 133.369 150.757 133.36C150.73 133.352 150.701 133.349 150.672 133.352C149.393 133.482 148.179 133.478 147.032 133.339C146.032 133.219 145.013 133.174 143.973 133.205C133.259 133.535 123.52 133.874 114.756 134.223C113.611 134.268 112.494 134.283 111.405 134.266C111.256 134.264 111.18 134.188 111.178 134.036ZM250.86 134.556C253.081 136.385 255.962 137.876 258.934 139.291C259.1 139.37 259.169 139.319 259.142 139.139C259.13 139.066 259.099 139.008 259.049 138.965C257.504 137.658 255.92 136.424 254.298 135.262C252.972 134.312 251.691 133.653 250.455 133.286C249.951 133.135 249.839 133.281 250.119 133.725C250.314 134.034 250.561 134.311 250.86 134.556ZM155.284 156.731C155.458 156.563 155.684 156.504 155.962 156.554C156.88 156.725 157.748 156.884 158.597 156.392C159.216 156.035 159.852 155.75 160.508 155.537C160.561 155.52 160.607 155.488 160.64 155.444C160.674 155.4 160.693 155.346 160.695 155.291C160.728 154.417 161.224 153.969 162.182 153.947C164.889 153.884 167.454 153.843 169.877 153.822C169.922 153.822 169.966 153.807 170.002 153.779C170.038 153.751 170.064 153.711 170.076 153.667C170.671 151.397 171.294 149.08 171.946 146.715C172.254 145.605 172.35 144.385 171.255 143.704C170.909 143.488 170.191 143.318 169.102 143.193C144.76 140.43 120.143 137.617 95.2536 134.755C93.7196 134.578 92.4688 134.577 92.0021 136.363C89.544 145.818 87.0444 155.339 84.5033 164.927C84.27 165.808 84.1642 166.707 83.8686 167.562C83.6549 168.179 83.4631 168.812 83.293 169.464C81.312 177.004 79.3528 184.533 77.4154 192.05C77.2847 192.557 77.4963 193.245 77.0638 193.571C76.9913 193.626 76.9387 193.705 76.9144 193.796L74.6368 202.405C74.6313 202.426 74.6303 202.447 74.6339 202.468C74.6376 202.489 74.6458 202.509 74.6579 202.526C74.6701 202.544 74.6859 202.559 74.7043 202.569C74.7227 202.58 74.7432 202.587 74.7644 202.589C76.764 202.771 79.3258 203.092 82.4498 203.55C83.8095 203.746 85.1599 203.899 86.5009 203.917C97.693 204.073 107.224 204.655 118.587 205.417C125.532 205.884 132.305 206.609 139.524 207.489C144.537 208.102 149.359 208.625 153.89 209.885C153.928 209.895 153.968 209.89 154.002 209.87C154.036 209.851 154.06 209.82 154.07 209.782L160.209 186.552C160.238 186.447 160.243 186.338 160.225 186.231L155.184 157.043C155.174 156.987 155.178 156.93 155.196 156.875C155.213 156.821 155.243 156.772 155.284 156.731ZM266.632 141.678C264.877 141.458 263.061 141.376 261.184 141.432C261.167 141.433 261.151 141.436 261.136 141.443C261.121 141.45 261.107 141.46 261.096 141.472C261.085 141.484 261.077 141.499 261.071 141.514C261.066 141.53 261.064 141.546 261.065 141.563L261.068 141.653C261.073 141.715 261.099 141.774 261.141 141.818C261.184 141.863 261.241 141.892 261.302 141.899L273.094 143.171C273.173 143.18 273.22 143.145 273.234 143.066L273.25 142.972C273.252 142.96 273.247 142.953 273.234 142.951C271.011 142.374 268.81 141.95 266.632 141.678ZM241.768 152.528C243.202 152.945 243.348 153.94 243.731 155.456C246.083 164.796 248.427 173.904 250.763 182.778C250.765 182.794 250.773 182.809 250.786 182.82C250.799 182.83 250.815 182.835 250.832 182.834C250.848 182.832 250.863 182.824 250.874 182.811C250.884 182.798 250.889 182.782 250.888 182.765C251.183 176.997 251.743 171.735 252.667 165.431C253.766 157.967 255.496 150.754 258.056 143.623C258.066 143.598 258.068 143.571 258.064 143.545C258.06 143.519 258.049 143.495 258.032 143.474C258.016 143.453 257.994 143.437 257.97 143.426C257.945 143.416 257.918 143.412 257.892 143.414C257.728 143.431 257.561 143.439 257.391 143.439C248.185 143.443 238.98 143.347 229.776 143.15C219.262 142.923 208.733 142.767 198.225 142.378C197.295 142.344 196.424 142.68 196.346 143.688C196.103 146.887 195.818 150.055 195.49 153.194C195.484 153.243 195.506 153.268 195.556 153.268L241.192 152.45C241.386 152.446 241.58 152.472 241.768 152.528ZM194.149 145.051C194.15 145.028 194.145 145.005 194.134 144.985C194.123 144.965 194.107 144.948 194.087 144.936C194.068 144.924 194.045 144.917 194.022 144.917C193.999 144.916 193.977 144.922 193.957 144.933C192.27 145.847 190.565 145.838 188.754 145.384C188.601 145.344 188.521 145.404 188.515 145.564L188.219 153.231C188.215 153.339 188.268 153.392 188.378 153.39L193.72 153.293C193.826 153.291 193.881 153.237 193.885 153.131L194.149 145.051ZM174.519 145.838C174.49 145.828 174.46 145.825 174.43 145.827C174.399 145.83 174.37 145.839 174.343 145.853C174.316 145.867 174.293 145.887 174.274 145.91C174.255 145.934 174.241 145.961 174.233 145.99L172.154 153.558C172.148 153.579 172.148 153.602 172.152 153.624C172.157 153.646 172.166 153.667 172.18 153.685C172.194 153.703 172.212 153.717 172.232 153.727C172.253 153.737 172.275 153.741 172.297 153.741L178.225 153.626C178.27 153.625 178.314 153.609 178.348 153.581C178.383 153.553 178.406 153.514 178.415 153.471L179.809 146.883C179.838 146.749 179.784 146.682 179.647 146.684C177.908 146.695 176.199 146.413 174.519 145.838ZM181.893 146.106C181.885 146.104 181.877 146.104 181.87 146.105C181.862 146.107 181.854 146.11 181.848 146.115C181.841 146.119 181.835 146.125 181.831 146.132C181.826 146.139 181.823 146.147 181.822 146.155L180.151 153.443C180.146 153.46 180.146 153.478 180.15 153.495C180.154 153.513 180.162 153.529 180.173 153.543C180.184 153.557 180.198 153.568 180.214 153.575C180.23 153.583 180.248 153.586 180.266 153.586L186.501 153.489C186.543 153.489 186.582 153.473 186.611 153.444C186.641 153.414 186.657 153.375 186.657 153.334L186.722 146.015C186.724 145.891 186.665 145.847 186.545 145.885C185.068 146.337 183.517 146.411 181.893 146.106ZM60.0687 159.249C60.1058 159.156 60.1643 159.074 60.2393 159.008C60.3144 158.943 60.404 158.897 60.5006 158.872C60.5972 158.848 60.6981 158.848 60.7951 158.87C60.892 158.893 60.9822 158.938 61.0582 159.003C61.1578 159.086 61.2501 159.179 61.3351 159.283C66.1808 165.141 70.93 171.652 75.5827 178.817C76.3709 180.032 77.0938 181.296 77.7514 182.607C77.8344 182.768 77.8987 182.761 77.9443 182.585L80.2904 173.866C80.2953 173.848 80.2961 173.828 80.2929 173.81C80.2897 173.791 80.2825 173.773 80.2717 173.757C76.3388 168.09 71.7483 163.331 66.5002 159.479C64.0172 157.655 61.2677 155.886 58.2516 154.171C57.1025 153.515 55.9118 152.988 54.6796 152.59C54.549 152.548 54.5023 152.594 54.5396 152.727C54.7491 153.496 54.9877 154.244 55.2553 154.97C57.1388 160.032 58.8781 164.49 60.4732 168.347C62.3173 172.802 64.8428 176.914 68.0497 180.681C70.5794 183.652 73.4295 186.197 76.0836 189.209C76.1728 189.311 76.233 189.296 76.2641 189.166C76.5504 187.923 76.8916 186.685 77.2878 185.45C77.3956 185.119 77.3469 184.801 77.1415 184.498C71.8064 176.626 66.4826 168.998 61.1702 161.613C60.8093 161.111 60.4732 160.588 60.1621 160.042C60.0003 159.758 59.9692 159.493 60.0687 159.249ZM162.593 155.568C162.576 155.568 162.559 155.573 162.544 155.58C162.528 155.588 162.515 155.599 162.504 155.612C162.494 155.625 162.486 155.641 162.482 155.657C162.478 155.674 162.477 155.691 162.481 155.708L176.548 226.693C176.553 226.72 176.568 226.743 176.59 226.758C176.611 226.773 176.637 226.779 176.663 226.774L256.697 215.34C256.8 215.325 256.84 215.267 256.815 215.165L241.702 154.765C241.603 154.369 241.348 154.174 240.937 154.18L162.593 155.568ZM256.896 156.915C256.57 156.817 256.508 156.906 256.709 157.179C257.901 158.807 259.783 160.244 261.243 161.492C261.546 161.751 261.582 161.718 261.352 161.392C260.263 159.864 258.984 158.481 257.515 157.245C257.335 157.093 257.128 156.983 256.896 156.915ZM175.272 228.955C175.29 228.935 175.304 228.912 175.313 228.886C175.322 228.86 175.325 228.833 175.323 228.806C175.32 228.779 175.312 228.753 175.299 228.729C175.286 228.706 175.269 228.685 175.247 228.669C174.789 228.321 174.506 227.862 174.398 227.294C170.05 204.437 165.597 181.135 161.04 157.388C161.033 157.352 161.017 157.318 160.994 157.289C160.971 157.261 160.942 157.238 160.908 157.224C160.874 157.209 160.838 157.203 160.801 157.205C160.764 157.208 160.729 157.219 160.698 157.239C159.441 158.018 158.224 158.363 157.048 158.272C156.905 158.259 156.846 158.323 156.871 158.464C160.467 177.826 163.998 196.957 167.462 215.856C167.63 216.78 167.913 217.683 168.007 218.61C168.083 219.352 168.188 220.078 168.321 220.788C169.039 224.64 169.724 228.473 170.378 232.288C170.425 232.566 170.586 232.694 170.86 232.674C171.513 232.624 172.108 232.702 172.559 232.135C173.461 231.009 174.365 229.949 175.272 228.955ZM252.895 187.408C252.842 187.784 252.708 188.223 252.384 188.428C252.278 188.497 252.241 188.591 252.272 188.711L254.705 198.055C254.763 198.281 254.802 198.278 254.821 198.046C255.293 192.398 256.597 187.006 258.016 181.387C259.52 175.434 261.469 169.804 263.863 164.498C263.906 164.402 263.881 164.333 263.788 164.289C263.205 164.009 262.825 163.807 262.649 163.682C260.388 162.091 258.271 160.438 256.298 158.723C256.211 158.648 256.158 158.667 256.14 158.779C254.665 167.765 253.677 176.406 253.175 184.704C253.125 185.538 253.031 186.439 252.895 187.408ZM281.76 159.977C281.775 159.972 281.789 159.963 281.8 159.951C281.811 159.938 281.818 159.923 281.821 159.907C281.824 159.891 281.822 159.874 281.816 159.858C281.81 159.843 281.801 159.829 281.788 159.818C280.904 159.118 279.149 159.161 278.082 159.273C274.276 159.68 270.693 160.864 267.335 162.827C266.787 163.146 266.821 163.226 267.435 163.066C270.982 162.143 274.45 161.417 277.839 160.888C279.144 160.685 280.451 160.381 281.76 159.977ZM269.669 190.395C269.849 189.819 270.275 189.676 270.599 189.243C274.124 184.492 277.958 179.89 282.911 176.704C285.838 174.821 288.956 173.165 292.264 171.738C292.621 171.585 292.609 171.468 292.227 171.39C284.426 169.778 276.212 172.466 269.806 177.152C266.551 179.532 263.701 182.364 261.694 185.777C258.949 190.444 257.257 195.921 256.211 201.325C256.143 201.68 256.032 202.013 255.878 202.324C255.81 202.463 255.795 202.608 255.835 202.76L256.326 204.642C256.366 204.792 256.46 204.849 256.61 204.813C258.518 204.345 260.579 203.983 262.792 203.727C262.921 203.713 263.005 203.643 263.044 203.519C264.463 199.091 266.725 194.993 269.342 191.064C269.485 190.852 269.594 190.629 269.669 190.395ZM67.1007 182.19C67.0803 182.168 67.0541 182.154 67.0254 182.147C66.9967 182.14 66.9666 182.142 66.9389 182.152C64.7578 182.974 62.3433 183.4 60.0656 183.932C56.4065 184.791 52.8864 186.141 49.5052 187.983C48.1859 188.703 46.9445 189.38 45.7808 190.015C45.4883 190.175 45.508 190.26 45.8399 190.27C48.1486 190.349 50.4812 190.367 52.8376 190.323C55.4233 190.273 58.0089 189.981 60.6101 190.121C63.7797 190.291 67.2418 190.535 70.9963 190.852C72.5614 190.986 74.0892 191.285 75.6045 191.621C75.6504 191.63 75.6981 191.628 75.7426 191.613C75.7872 191.598 75.8271 191.572 75.8581 191.537C75.8892 191.503 75.9103 191.46 75.9193 191.415C75.9283 191.369 75.9249 191.322 75.9094 191.278C75.8098 190.992 75.6574 190.752 75.452 190.56C72.4753 187.738 69.6916 184.949 67.1007 182.19ZM161.217 212.639L163.29 204.851C163.366 204.564 163.38 204.275 163.33 203.983L161.115 191.235C161.112 191.222 161.105 191.211 161.096 191.203C161.086 191.195 161.074 191.191 161.061 191.19C161.049 191.19 161.036 191.194 161.026 191.201C161.016 191.209 161.009 191.22 161.006 191.232L156.18 210.265C156.157 210.355 156.17 210.451 156.216 210.531C156.262 210.612 156.337 210.671 156.426 210.697C158.035 211.164 159.622 211.815 161.186 212.651C161.189 212.653 161.192 212.654 161.195 212.654C161.199 212.654 161.202 212.653 161.205 212.652C161.208 212.651 161.21 212.649 161.213 212.647C161.215 212.645 161.216 212.642 161.217 212.639ZM286.272 201.397C286.293 201.395 286.313 201.388 286.331 201.376C286.349 201.365 286.364 201.348 286.373 201.329C286.383 201.31 286.388 201.289 286.387 201.267C286.386 201.246 286.379 201.225 286.368 201.207C283.042 196.042 277.248 194.044 271.741 192.025C271.697 192.009 271.649 192.008 271.605 192.023C271.56 192.038 271.522 192.067 271.495 192.106C269.222 195.516 267.302 199.157 265.736 203.027C265.673 203.181 265.724 203.247 265.888 203.226C272.609 202.368 279.403 201.758 286.272 201.397ZM164.083 209.477C163.794 210.812 163.439 212.085 163.072 213.392C163.054 213.453 163.056 213.519 163.078 213.579C163.099 213.639 163.14 213.691 163.193 213.728L165.128 215.038C165.27 215.133 165.32 215.098 165.281 214.932C164.854 213.107 164.523 211.29 164.288 209.484C164.237 209.085 164.168 209.083 164.083 209.477ZM175.869 231.647C175.856 231.664 175.848 231.684 175.846 231.705C175.844 231.727 175.849 231.748 175.86 231.767C175.871 231.786 175.887 231.8 175.906 231.809C175.926 231.819 175.948 231.822 175.969 231.818L255.455 219.179C255.47 219.177 255.484 219.171 255.496 219.163C255.508 219.155 255.519 219.145 255.527 219.132L256.214 218.028C256.225 218.011 256.231 217.991 256.231 217.971C256.231 217.951 256.225 217.931 256.215 217.914C256.204 217.897 256.188 217.884 256.17 217.875C256.152 217.867 256.132 217.864 256.112 217.866L178.163 228.903C178.137 228.907 178.114 228.92 178.097 228.94L175.869 231.647Z" fill="#0F5A8B"/>
<path d="M161.036 99.0476C167.586 93.6927 178.184 95.821 181.659 103.643C184.385 109.773 181.768 116.525 175.483 119.167C172.067 120.602 168.558 120.789 164.957 119.727C155.314 116.88 153.482 105.227 161.036 99.0476ZM163.806 103.108C164.671 102.072 163.529 100.995 162.377 101.328C162.186 101.383 162.014 101.491 161.88 101.639C160.679 102.974 160.047 104.67 159.434 106.584C159.117 107.57 159.278 108.815 160.573 108.793C161.201 108.78 161.565 108.046 161.702 107.526C162.196 105.67 162.897 104.197 163.806 103.108Z" fill="#0F5A8B"/>
<path d="M65.4208 127.085C68.4265 130.753 68.2958 135.361 62.9627 136.32C60.3179 136.796 57.4118 136.345 55.5387 134.397C54.4476 133.262 53.9134 131.951 53.9362 130.464C53.9736 128.093 55.9058 126.326 57.9314 125.286C60.6478 123.895 63.5446 124.795 65.4208 127.085ZM58.031 128.143C57.1131 128.936 56.2481 129.891 56.469 131.173C56.9793 134.101 59.7828 134.661 62.2657 133.974C65.8284 132.99 64.8669 129.173 62.6733 127.443C61.0242 126.142 59.4032 126.954 58.031 128.143Z" fill="#0F5A8B"/>
<path d="M134.995 197.924L89.6011 192.407C89.5802 192.405 89.5601 192.398 89.5422 192.387C89.5242 192.376 89.5089 192.361 89.4974 192.344C89.4858 192.326 89.4782 192.306 89.4751 192.286C89.4721 192.265 89.4737 192.244 89.4797 192.223L100.376 155.312C100.386 155.279 100.407 155.252 100.436 155.234C100.464 155.215 100.498 155.208 100.532 155.212L145.723 160.847C145.744 160.849 145.764 160.856 145.782 160.867C145.8 160.878 145.815 160.893 145.827 160.91C145.838 160.928 145.846 160.948 145.849 160.969C145.852 160.989 145.851 161.011 145.845 161.031L135.15 197.821C135.141 197.854 135.12 197.882 135.092 197.901C135.063 197.92 135.029 197.928 134.995 197.924ZM100.358 178.769C99.2125 178.884 95.3076 179.659 94.9466 180.851C93.9572 184.114 92.9833 187.375 92.0249 190.633C92.0063 190.696 92.0301 190.731 92.0965 190.739L126.69 194.915C126.833 194.934 126.89 194.872 126.861 194.731C125.9 189.831 122.312 185.804 118.155 183.175C112.521 179.609 106.589 178.141 100.358 178.769Z" fill="#0F5A8B"/>
<path d="M239.547 207.519L191.409 213.512C191.353 213.518 191.297 213.503 191.252 213.469C191.206 213.436 191.176 213.386 191.166 213.331L183.897 174.752C183.892 174.721 183.892 174.69 183.899 174.66C183.906 174.63 183.919 174.602 183.938 174.578C183.956 174.553 183.98 174.533 184.006 174.518C184.033 174.502 184.063 174.493 184.094 174.49L231.858 170.427C231.912 170.422 231.967 170.437 232.01 170.47C232.054 170.503 232.084 170.55 232.095 170.604L239.733 207.254C239.74 207.284 239.74 207.315 239.734 207.345C239.727 207.374 239.715 207.402 239.698 207.427C239.68 207.452 239.658 207.473 239.632 207.489C239.606 207.505 239.577 207.515 239.547 207.519ZM234.848 205.972C231.681 198.608 223.843 194.373 216.014 194.544C210.768 194.656 206.161 196.468 202.193 199.98C199.026 202.783 196.736 206.685 196.141 210.91C196.138 210.932 196.14 210.954 196.147 210.975C196.154 210.996 196.165 211.015 196.181 211.03C196.196 211.046 196.215 211.058 196.235 211.065C196.256 211.072 196.278 211.075 196.3 211.072L234.674 206.274C234.867 206.251 234.925 206.151 234.848 205.972Z" fill="#0F5A8B"/>
<path d="M44.813 227.631C44.6481 225.356 44.7445 223.169 45.4913 221.187C46.2629 219.143 47.9836 217.565 50.171 217.357C55.8152 216.825 55.3081 223.881 55.9646 227.422C56.0227 227.742 56.1419 227.766 56.3224 227.494C56.6149 227.046 56.9281 226.618 57.2621 226.212C57.7724 225.587 58.6529 225.552 59.157 226.193C59.2877 226.359 59.4474 226.487 59.6362 226.576C59.7523 226.63 59.8674 226.628 59.9815 226.57C60.999 226.047 62.116 225.138 62.8348 226.728C62.9074 226.886 63.0215 226.925 63.177 226.847C65.1248 225.867 68.1492 225.409 69.1293 227.852C69.2994 228.275 69.3119 228.691 69.1667 229.099C68.7746 230.198 67.6296 230.26 66.6339 230.089C66.5281 230.07 66.4389 230.022 66.3663 229.946C66.2854 229.857 66.273 229.757 66.329 229.647C66.3746 229.562 66.4451 229.512 66.5406 229.498C67.0363 229.421 67.4533 229.241 67.7914 228.959C67.9117 228.86 67.9802 228.732 67.9967 228.577C68.0735 227.878 67.7489 227.461 67.0228 227.326C65.4546 227.04 64.1136 227.892 62.8379 228.717C61.7302 229.432 60.917 229.286 60.3985 228.278C60.3528 228.189 60.2844 228.166 60.1931 228.21C59.4069 228.583 58.5596 228.662 57.651 228.446C57.5286 228.419 57.4239 228.45 57.3368 228.539C57.0412 228.847 56.8109 229.239 56.4157 229.442C55.1525 230.086 54.2221 229.249 53.995 228.029C53.7731 226.855 53.6133 225.547 53.5158 224.105C53.4225 222.715 53.074 219.659 51.6489 218.956C51.0329 218.651 50.4012 218.678 49.754 219.037C46.4683 220.857 46.6736 225.86 46.9443 229.022C47.0906 230.752 45.3139 230.322 44.6076 229.467C43.0394 227.562 41.6268 225.613 40.3698 223.62C40.2432 223.419 40.1675 223.438 40.1426 223.676C40.1136 223.966 40.1136 224.268 40.1426 224.581C40.2982 226.287 40.4828 227.836 40.6965 229.23C40.8023 229.923 40.6633 229.976 40.2795 229.389C39.4477 228.119 38.9364 226.544 38.7456 224.662C38.6647 223.875 38.6491 222.662 39.399 222.198C40.46 221.545 41.5863 222.895 42.1029 223.71C43.0135 225.139 43.8567 226.466 44.6325 227.69C44.7715 227.91 44.8316 227.89 44.813 227.631Z" fill="#0F5A8B"/>
<path d="M86.4828 236.518C86.601 236.721 86.6715 236.706 86.6944 236.471C86.9526 233.786 88.2626 230.566 91.455 231.123C92.3801 231.287 93.2119 231.782 93.9504 232.61C94.5447 233.276 94.7967 234.216 95.1016 235.056C95.2178 235.371 95.3319 235.371 95.4439 235.056C96.4489 232.265 98.8261 228.886 101.72 227.738C103.207 227.149 105.108 227.719 105.538 229.343C105.704 229.976 105.77 230.686 105.737 231.474C105.654 233.414 105.59 235.349 105.547 237.28C105.546 237.324 105.558 237.367 105.582 237.404C105.605 237.441 105.639 237.47 105.679 237.487C105.718 237.505 105.762 237.511 105.805 237.503C105.847 237.496 105.886 237.475 105.917 237.445C106.973 236.452 108.03 235.638 109.088 235.003C110.546 234.13 112.01 233.972 113.478 234.53C115.697 235.376 115.541 237.663 113.988 239.063C113.403 239.589 111.835 240.8 111.16 240.037C111.013 239.871 110.972 239.673 111.039 239.443C111.362 238.32 112.324 237.336 112.927 236.35C112.944 236.322 112.954 236.291 112.957 236.259C112.96 236.227 112.956 236.194 112.944 236.164C112.933 236.134 112.915 236.107 112.891 236.086C112.868 236.064 112.84 236.048 112.809 236.039C111.381 235.603 109.816 236.776 108.783 237.747C107.903 238.573 107.076 239.23 106.3 239.72C104.816 240.656 103.422 239.614 103.179 238.086C102.775 235.535 103.148 232.554 103.322 230.015C103.327 229.949 103.314 229.883 103.283 229.825C103.252 229.766 103.205 229.718 103.148 229.685C103.09 229.652 103.025 229.635 102.958 229.638C102.891 229.64 102.827 229.661 102.771 229.698C101.11 230.814 99.7761 232.264 98.7701 234.048C98.2266 235.01 97.7651 236.034 97.3855 237.119C96.953 238.348 96.1066 239.375 94.6971 238.799C94.1163 238.564 93.7232 238.058 93.5179 237.28C93.2607 236.312 93.0169 235.363 92.7867 234.433C92.6705 233.965 92.4641 233.547 92.1675 233.18C92.1032 233.101 92.0223 233.052 91.9248 233.033C90.0548 232.657 89.5196 236.251 89.2987 237.48C89.0809 238.687 88.3372 239.667 87.0086 239.144C86.4651 238.931 85.987 238.448 85.5742 237.697C84.7756 236.239 83.9853 234.753 83.2033 233.239C83.0643 232.969 82.8807 232.746 82.6525 232.57C82.6373 232.557 82.6192 232.549 82.5999 232.546C82.5807 232.543 82.561 232.545 82.5427 232.552C82.5245 232.559 82.5084 232.571 82.496 232.586C82.4836 232.601 82.4754 232.619 82.4721 232.638C82.1453 234.402 82.805 236.064 83.1784 237.713C83.2717 238.124 83.1659 238.183 82.861 237.89C81.5065 236.586 80.8852 235.018 80.9972 233.189C81.075 231.904 82.0333 230.914 83.2904 231.898C84.6968 232.999 85.5804 234.956 86.4828 236.518Z" fill="#0F5A8B"/>
<path d="M278.331 240.192C277.737 240.938 277.177 241.582 276.131 241.564C275.092 241.545 274.305 241.008 273.77 239.952C273.752 239.918 273.727 239.888 273.697 239.865C273.666 239.843 273.63 239.827 273.593 239.82C273.555 239.813 273.516 239.815 273.48 239.826C273.443 239.836 273.409 239.855 273.381 239.88C272.939 240.275 272.444 240.603 271.896 240.867C270.695 241.442 269.252 240.77 268.589 239.744C268.515 239.63 268.479 239.496 268.486 239.361C268.493 239.225 268.542 239.095 268.626 238.987C269.161 238.307 269.816 238.093 270.59 238.347C270.697 238.382 270.804 238.376 270.91 238.328C271.254 238.166 271.593 237.96 271.924 237.709C273.611 236.427 274.812 237.233 276.032 238.645C276.098 238.724 276.183 238.767 276.287 238.773C276.953 238.804 277.955 238.175 278.536 237.839C279.342 237.373 280.938 237.438 281.088 238.633C281.123 238.911 281.15 239.188 281.169 239.464C281.171 239.496 281.181 239.527 281.198 239.555C281.215 239.583 281.238 239.606 281.266 239.623C281.294 239.639 281.325 239.649 281.357 239.651C281.39 239.653 281.422 239.648 281.452 239.635C282.426 239.215 284.772 238.434 285.609 239.299C285.789 239.487 285.814 239.707 285.683 239.958C285.653 240.014 285.612 240.064 285.562 240.103C285.512 240.143 285.455 240.172 285.394 240.189C284.162 240.516 283.025 240.904 281.984 241.352C280.584 241.953 279.233 241.632 278.614 240.229C278.542 240.061 278.447 240.049 278.331 240.192Z" fill="#0F5A8B"/>
<path d="M36.159 239.671C35.0358 240.259 34.8366 241.843 33.732 242.388C32.0207 243.231 30.9317 242.036 30.0418 240.748C30.0278 240.728 30.0095 240.711 29.9881 240.698C29.9667 240.685 29.9428 240.678 29.9179 240.675C29.8931 240.673 29.8679 240.676 29.8442 240.684C29.8205 240.693 29.7987 240.706 29.7804 240.723C29.3448 241.148 28.8646 241.512 28.3398 241.815C27.0268 242.565 25.4275 241.831 24.6776 240.692C24.6428 240.639 24.6208 240.578 24.6133 240.515C24.6057 240.452 24.6128 240.388 24.634 240.328C25.0727 239.13 25.9097 239.416 26.8836 239.494C27.0113 239.506 27.1388 239.467 27.2383 239.385C28.5358 238.337 29.7867 237.425 31.358 238.853C31.7355 239.197 32.0861 239.567 32.4097 239.961C32.458 240.019 32.5249 240.06 32.5987 240.074C32.6726 240.089 32.7488 240.078 32.8141 240.042C33.8472 239.477 34.9165 238.938 36.0221 238.424C37.1889 237.885 38.2219 238.589 38.418 239.818C38.476 240.181 38.5362 240.54 38.5984 240.894C38.6032 240.92 38.6137 240.944 38.6292 240.965C38.6447 240.986 38.6647 241.003 38.6878 241.015C38.7109 241.027 38.7365 241.034 38.7625 241.034C38.7885 241.035 38.8143 241.03 38.838 241.019C39.7403 240.616 40.7277 240.304 41.8002 240.082C42.3934 239.96 42.8518 240.111 43.1754 240.536C43.2146 240.588 43.2414 240.647 43.254 240.711C43.2666 240.774 43.2646 240.839 43.2481 240.902C43.2316 240.965 43.2011 241.023 43.1589 241.072C43.1166 241.121 43.0638 241.161 43.0043 241.187C41.9236 241.662 40.8304 242.094 39.7248 242.484C37.2667 243.352 36.5168 241.868 36.4297 239.827C36.4214 239.634 36.3312 239.582 36.159 239.671Z" fill="#0F5A8B"/>
</g>
<defs>
<clipPath id="clip0_1596_513734">
<rect width="318.617" height="268.68" fill="white" transform="translate(0.691406 0.00390625)"/>
</clipPath>
</defs>
</svg>
