<svg width="208" height="207" viewBox="0 0 208 207" fill="none" xmlns="http://www.w3.org/2000/svg">
<g clipPath="url(#clip0_3564_16994)">
<path d="M86.7324 44.4629C87.0619 44.4871 87.3955 44.5154 87.727 44.5458C88.3415 50.8306 89.2714 57.0871 89.8091 63.3799C89.4554 63.4264 89.1036 63.4729 88.7519 63.5194C88.3658 61.4757 88.1677 59.4017 87.9534 57.3357C87.5754 53.0421 86.9851 48.7646 86.7324 44.4629Z" fill="#0F5A8B"/>
<path d="M79.7321 49.4458C79.9969 49.3912 80.2637 49.3386 80.5326 49.2881C81.9314 55.118 83.9125 60.7883 85.2952 66.6243C85.8147 68.7772 86.4737 70.9079 86.688 73.1234C85.748 71.6134 85.5034 69.8163 84.9657 68.1485C83.5547 63.673 82.4408 59.1125 81.1046 54.6147C80.5811 52.9106 80.0555 51.2024 79.7321 49.4458Z" fill="#0F5A8B"/>
<path d="M38.1622 51.4149C38.5301 51.3098 38.8981 51.2047 39.268 51.1016C41.9606 56.5474 45.106 61.7507 48.0877 67.0389C50.8248 71.9249 53.7398 76.7077 56.7255 81.4461C56.4546 81.6785 56.1838 81.911 55.9109 82.1415C50.845 73.728 46.0501 65.1569 41.0226 56.7213C40.0018 54.9909 38.8293 53.3232 38.1622 51.4149Z" fill="#0F5A8B"/>
<path d="M29.2395 54.0834C29.4841 53.8227 29.7792 53.6165 30.0663 53.4062C36.0256 62.2624 42.458 70.789 48.3991 79.6572C48.6377 80.0595 48.7529 80.5184 48.8782 80.9651C48.2253 80.3445 47.5622 79.732 47.0084 79.0225C40.9803 71.2923 35.6193 63.073 29.8075 55.1852C29.5953 54.8354 29.2516 54.5181 29.2395 54.0834Z" fill="#0F5A8B"/>
<path d="M156.005 58.9229C156.332 59.1472 156.66 59.3777 156.983 59.6142C153.316 67.8315 149.285 75.8791 145.396 83.9913C145.046 83.8215 144.703 83.6476 144.361 83.4718C148.507 75.4182 152.283 67.1806 156.005 58.9229Z" fill="#0F5A8B"/>
<path d="M116.758 63.9541C117.243 63.9986 117.728 64.0653 118.209 64.1522C118.158 64.8031 118.102 65.454 118.037 66.107C117.394 65.547 116.915 64.8092 116.758 63.9541Z" fill="#0F5A8B"/>
<path d="M163.179 66.5156C163.484 66.829 164.212 67.0837 163.911 67.6234C163.442 68.6301 162.672 69.4609 162.033 70.3605C157.992 75.6548 154.244 81.1673 150.138 86.4111C149.845 86.1584 149.558 85.9057 149.269 85.655C154.016 79.3561 158.629 72.9581 163.179 66.5156Z" fill="#0F5A8B"/>
<path d="M115.341 68.5423C115.638 68.5363 115.935 68.5342 116.234 68.5322C116.246 69.2579 116.169 69.9816 116.068 70.7013C115.65 70.2363 115.266 69.7391 114.886 69.2478C115.035 69.0113 115.189 68.7768 115.341 68.5423Z" fill="#0F5A8B"/>
<path d="M100.865 79.9436C104.099 79.604 107.329 80.0224 110.56 80.1922C117.188 80.6592 123.807 82.6605 129.252 86.5377C132.289 88.5895 134.771 91.4014 136.542 94.6014C138.503 98.3573 139.214 102.627 139.612 106.801C139.754 107.618 140.419 108.222 140.645 109.011C140.787 110.694 140.684 112.39 140.427 114.058C140.348 114.576 139.988 115.115 139.427 115.162C138.588 115.164 137.757 114.98 136.934 114.867C136.691 117.295 136.578 119.734 136.443 122.172C137.821 122.769 139.024 123.693 140.405 124.289C142.867 125.427 145.295 126.903 146.831 129.203C149.318 132.371 150.189 136.458 150.225 140.408C150.078 145.165 148.072 149.606 145.758 153.675C147.24 155.127 148.705 156.72 150.688 157.484C152.768 158.306 155.014 158.897 157.27 158.779C160.331 158.769 163.608 158.276 166.454 159.719C168.069 160.494 169.256 161.884 170.792 162.774C173.038 163.124 175.324 163.077 177.592 163.097C178.589 163.087 178.955 164.171 179.361 164.892C183.923 165.216 188.498 165.145 193.069 165.262C197.878 165.448 202.689 165.111 207.5 165.143V166.378C203.968 166.378 200.441 166.275 196.911 166.261C191.219 166.368 185.518 166.52 179.834 166.192C178.154 166.035 176.47 166.324 174.798 166.402C174.059 171.741 173.149 177.343 174.819 182.595C176.276 182.849 177.905 182.785 179.24 183.522C179.99 184.481 179.385 186.486 177.998 186.474C163.201 186.33 148.398 186.251 133.603 186.678C119.226 187.272 104.825 187.044 90.4561 186.371C85.8107 186.13 81.1572 186.207 76.5119 186.029C72.7054 185.979 68.8989 185.693 65.0986 186.021C64.0878 186.171 63.1984 185.194 63.5359 184.151C63.5036 182.916 64.9975 183.104 65.8546 182.948C65.9496 180.709 65.7737 178.463 65.8485 176.223C65.9658 172.734 66.0951 169.247 66.2164 165.76C62.8507 165.972 59.4768 165.954 56.109 165.968C57.8192 171.844 59.7113 177.67 61.2375 183.597C60.1237 183.943 58.9836 184.188 57.8576 184.487C59.1938 184.693 60.5482 184.743 61.8844 184.952C61.8783 185.091 61.8682 185.37 61.8622 185.51C57.1076 185.356 52.3551 185.673 47.6006 185.586C41.8636 185.667 36.1549 184.881 30.4159 185C27.6364 185.071 24.8569 185.132 22.0773 185.047C22.0167 184.83 21.9581 184.616 21.8994 184.406C28.0488 184.598 34.1921 183.636 40.3334 184.283C41.524 179.89 42.5449 175.453 43.7456 171.064C37.1151 171.258 30.6019 169.665 24.3576 167.575C22.4715 167.047 20.6785 166.069 18.6853 166.031C12.6289 165.533 6.56041 166.099 0.5 165.948V164.771C3.40083 164.737 6.29762 164.917 9.19643 164.892C11.4787 164.989 13.579 163.756 15.8633 163.975C17.6503 163.981 19.3968 164.373 21.1596 164.603C23.5287 164.838 25.906 164.648 28.2792 164.603C30.7434 164.541 33.2076 164.65 35.6718 164.704C38.9426 164.773 42.2133 164.543 45.4861 164.64C45.8116 163.283 46.1633 161.933 46.414 160.564C46.6 158.8 45.7893 157.172 45.3163 155.523C42.1365 145.298 39.0699 135.035 35.7486 124.853C35.4899 124.17 35.5707 123.296 36.2338 122.872C38.136 121.639 40.3354 120.986 42.4963 120.369C43.3797 122.793 44.0125 125.296 44.7463 127.766C48.4476 140.081 52.1934 152.381 55.7411 164.743C58.2518 164.731 60.7645 164.672 63.2772 164.668C63.6896 163.922 63.7785 162.592 64.8054 162.384C66.6248 162.269 68.4522 162.469 70.2736 162.517C66.2205 160.243 62.9174 156.602 61.3891 152.181C58.8946 146.218 56.8448 139.729 58.1022 133.212C58.7491 130.026 60.0448 126.464 63.1761 124.966C64.8014 124.222 66.4044 123.428 67.9327 122.496C67.1847 118.087 67.8538 113.626 68.3855 109.235C67.7892 108.829 66.1133 108.891 66.2569 107.794C66.5217 103.751 68.6867 100.264 70.6475 96.8351C72.7438 93.2126 75.6568 90.047 79.1984 87.7991C85.649 83.4913 93.1365 80.7198 100.865 79.9436ZM86.0047 84.8942C84.2097 85.7372 82.453 86.6873 80.9066 87.9406C82.9523 86.8793 84.9131 85.6502 87.0256 84.7163C88.3699 84.0613 89.8132 83.6308 91.1333 82.9212C89.3321 83.3073 87.6624 84.122 86.0047 84.8942ZM110.188 83.3862C111.722 83.6267 113.273 83.5054 114.817 83.461C113.277 83.3114 111.728 83.3255 110.188 83.3862ZM116.088 83.5216C115.995 83.8066 116.479 83.9118 116.574 83.655C116.663 83.368 116.179 83.2629 116.088 83.5216ZM94.8346 84.2817C95.437 84.1503 96.0273 83.9583 96.5892 83.7035C95.9848 83.8329 95.3966 84.027 94.8346 84.2817ZM87.4319 91.181C83.0372 94.0515 79.532 98.1268 76.9101 102.643C77.4761 102.746 78.0421 102.853 78.6102 102.956C78.1957 104.503 77.5448 105.97 77.0516 107.49C76.7059 108.287 76.5765 109.215 76.0408 109.92C75.0726 110.278 74.0275 109.831 73.0349 109.756C71.8564 113.492 71.1003 117.485 71.8645 121.384C73.6494 121.404 74.9614 120.001 76.71 119.908C78.4161 119.84 80.1465 120.123 81.8344 119.745C82.9624 119.641 84.1773 119.437 85.2184 120.022C86.6536 120.608 88.006 121.384 89.2816 122.263C91.9904 124.445 93.27 127.78 94.2949 130.992C95.7402 135.791 96.7853 140.738 97.1088 145.747C97.1775 149.491 97.2927 153.619 95.1075 156.869C93.4802 159.616 90.454 161.033 87.5694 162.085C97.3756 162.157 107.182 162.129 116.99 162.099C114.178 161.203 111.467 159.63 109.79 157.14C107.602 153.639 106.81 149.43 106.824 145.347C106.741 138.755 107.926 131.797 111.906 126.369C112.585 125.443 113.22 124.455 114.132 123.733C115.555 122.49 117.273 121.637 119.03 120.974C121.615 120.292 124.377 119.306 127.067 120.054C128.945 120.436 131.013 120.228 132.739 121.184C132.707 118.875 132.701 116.567 132.691 114.26C131.919 114.121 131.144 113.975 130.376 113.836C129.824 111.309 130.318 108.701 130.38 106.158C129.962 103.468 129.046 100.868 127.908 98.4018C126.004 94.3285 123.293 90.5281 119.533 87.979C116.374 85.5835 112.417 84.2595 108.449 84.3444C100.972 84.5263 93.6096 86.9905 87.4319 91.181ZM92.7929 85.4643C93.2316 85.1307 93.6621 84.7871 94.0887 84.4353C93.6237 84.7365 93.1871 85.0761 92.7929 85.4643ZM115.409 84.6294C115.268 84.9326 115.789 85.1206 115.945 84.8659C116.066 84.5748 115.561 84.3868 115.409 84.6294ZM79.3642 88.7653C79.0994 88.9028 79.0973 89.0403 79.3601 89.1757C79.627 89.0362 79.629 88.9008 79.3642 88.7653ZM78.7577 89.1696C78.4929 89.3071 78.4909 89.4446 78.7537 89.58C79.0205 89.4405 79.0225 89.3051 78.7577 89.1696ZM77.7611 90.0834C77.5731 90.2734 77.7288 90.7282 78.028 90.6433C78.3575 90.4917 78.0947 89.7862 77.7611 90.0834ZM83.2919 92.8225C84.6726 92.0503 85.8006 90.9122 87.0256 89.9277C85.6712 90.7343 84.2258 91.5085 83.2919 92.8225ZM75.4405 91.9654C75.8165 92.1149 76.1925 92.2645 76.5725 92.4101C76.4229 92.0381 76.2693 91.6722 76.1096 91.3084C75.8852 91.5247 75.6608 91.745 75.4405 91.9654ZM74.458 93.0388C74.3145 93.3561 74.173 93.6735 74.0315 93.9929C74.8805 93.9686 75.7295 93.9444 76.5806 93.9201C75.869 93.6311 75.1534 93.3622 74.458 93.0388ZM82.0285 93.3339C81.7859 93.7523 81.5453 94.1708 81.3088 94.5913C81.6808 94.3729 82.0527 94.1566 82.4267 93.9403C82.2933 93.7362 82.1599 93.536 82.0285 93.3339ZM72.9015 95.1108C72.382 95.9194 71.8604 96.73 71.3975 97.5729C72.5134 97.6275 73.0005 96.7259 73.3786 95.8911C73.7343 95.8122 74.4419 95.6566 74.7976 95.5777C74.175 95.3897 73.5342 95.2402 72.9015 95.1108ZM78.689 96.5905C78.7436 96.7664 78.8507 97.1161 78.9033 97.292C79.2914 97.1181 79.6714 96.9281 80.0454 96.728C79.5926 96.6774 79.1418 96.633 78.689 96.5905ZM135.871 97.2798C136.142 99.4085 137.132 101.315 138.175 103.154C137.878 101.026 137.352 98.9091 136.38 96.9847C136.253 97.0575 135.998 97.205 135.871 97.2798ZM76.6412 99.7501C76.8555 99.926 77.0718 100.106 77.2881 100.288C77.6338 99.7056 77.9795 99.1254 78.3029 98.5332C77.7227 98.9031 77.185 99.3296 76.6412 99.7501ZM70.6435 99.2467C70.4777 99.6167 70.312 99.9886 70.1502 100.361C70.8537 100.045 71.5592 99.744 72.2768 99.463C71.7371 99.3983 71.1772 99.3013 70.6435 99.2467ZM74.2134 100.27C74.9533 100.87 75.7174 101.497 76.6614 101.737C76.0873 100.914 75.1009 100.613 74.2134 100.27ZM68.4401 101.854C67.963 103.781 67.5789 105.732 67.3545 107.705C70.1806 108.168 73.0187 108.558 75.8569 108.934C76.3784 107.199 77.0455 105.513 77.563 103.779C74.5591 102.97 71.543 102.182 68.4401 101.854ZM138.357 104.383C137.985 104.953 137.642 105.542 137.302 106.13C137.607 106.221 137.914 106.31 138.226 106.403C138.432 105.756 138.858 105.006 138.357 104.383ZM130.88 107.585C130.882 109.294 130.942 111.004 130.94 112.716C133.447 112.918 135.946 113.248 138.464 113.324C138.743 111.604 139.069 109.894 139.416 108.188C136.576 107.917 133.73 107.693 130.88 107.585ZM69.5377 109.217C68.7069 113.343 67.9852 117.632 68.9859 121.8C69.5883 121.693 70.1947 121.606 70.7911 121.455C70.7971 120.759 70.6576 120.064 70.6091 119.379C70.2574 116.057 71.1024 112.791 71.6482 109.542C70.9467 109.421 70.2392 109.318 69.5377 109.217ZM133.712 114.303C133.607 116.698 133.542 119.092 133.504 121.491C134.169 121.651 134.834 121.809 135.503 121.952C135.531 119.542 135.624 117.137 135.921 114.745C135.194 114.566 134.448 114.416 133.712 114.303ZM75.3738 121.061C78.1533 121.562 81.0258 122.346 83.0857 124.41C84.8727 126.555 86.0391 129.126 87.1631 131.659C88.8328 136.018 90.0679 140.641 89.8658 145.347C89.7849 149.394 89.3624 153.516 87.9049 157.324C87.2338 159.244 85.8491 160.795 84.6241 162.38C85.9562 161.361 87.6058 160.645 88.4811 159.147C89.8597 156.335 90.4783 153.251 91.0423 150.196C91.6811 144.324 90.2317 138.49 88.8005 132.842C87.8423 128.952 86.0795 125.134 83.0999 122.383C80.9915 120.549 77.9653 120.505 75.3738 121.061ZM82.453 120.802C82.8047 121.012 83.1646 121.212 83.5264 121.41C83.5446 121.218 83.581 120.83 83.5992 120.636C83.2151 120.689 82.833 120.743 82.453 120.802ZM113.984 125.405C108.35 132.565 106.767 142.327 108.52 151.134C109.135 154.168 110.602 157.17 113.093 159.095C114.433 160.245 116.177 160.754 117.871 161.124C117.388 160.678 116.992 159.986 116.26 159.982C115.516 160.002 114.847 159.705 114.31 159.22C114.932 159.054 115.537 158.876 116.173 158.753C116.034 158.561 115.896 158.373 115.759 158.187C114.969 158.525 114.126 158.719 113.279 158.846C113.129 158.363 112.994 157.878 112.884 157.389C113.578 157.269 114.273 157.158 114.971 157.045C114.696 156.22 114.401 155.406 114.118 154.587C113.297 154.908 112.436 155.104 111.585 155.327C111.475 154.842 111.346 154.282 111.308 153.811C112.076 153.641 112.866 153.635 113.649 153.54C113.305 152.557 112.994 151.559 112.69 150.566C111.465 150.827 110.202 150.831 108.957 150.904C109.171 150.473 109.343 149.986 109.737 149.685C110.58 149.495 111.441 149.487 112.3 149.473C112.177 148.68 112.048 147.894 111.928 147.105C111.154 147.94 109.945 147.675 108.926 147.756C108.975 147.35 109.027 146.946 109.078 146.543C110 146.598 110.932 146.669 111.86 146.746C111.783 146.507 111.708 146.271 111.637 146.036C110.651 145.7 108.645 146.444 108.882 144.669C109.802 144.667 110.721 144.72 111.637 144.805C111.589 144.554 111.54 144.304 111.494 144.057C110.647 144.047 109.8 143.956 108.959 143.869C108.92 143.711 108.839 143.398 108.801 143.242C109.707 142.917 110.663 142.8 111.623 142.751C111.663 141.564 110.523 141.666 109.717 141.508C109.711 141.193 109.709 140.877 109.711 140.566C110.303 140.527 110.861 140.453 111.467 140.439C111.522 139.957 111.631 138.995 111.684 138.514C110.798 138.439 109.919 138.371 109.04 138.294C109.088 137.974 109.187 137.34 109.238 137.02C110.121 137.141 111.004 137.271 111.888 137.41C112.169 136.286 112.444 135.162 112.705 134.034C112.167 133.784 111.585 133.715 111.112 133.357C111.011 132.943 111.095 132.518 111.134 132.104C111.868 132.312 112.589 132.565 113.307 132.826C113.517 132.328 113.721 131.827 113.921 131.326C113.283 131.107 112.666 130.881 112.05 130.624C112.108 130.281 112.227 129.593 112.288 129.25C113.198 129.482 114.079 129.822 114.958 130.153C114.855 129.419 114.283 128.956 113.74 128.53C113.81 128.322 113.883 128.114 113.956 127.909C114.465 128.039 114.971 128.186 115.478 128.336C115.965 127.645 116.466 126.961 116.964 126.276C116.412 126.088 115.868 125.886 115.328 125.672C115.541 125.354 115.749 125.031 116.02 124.762C116.636 124.881 117.162 125.255 117.708 125.548C117.995 124.958 117.934 124.317 117.696 123.723C117.714 123.622 117.748 123.418 117.766 123.315C118.419 123.416 119.086 123.541 119.745 123.642C119.628 123.27 119.503 122.904 119.375 122.536C121.173 122.654 122.565 121.449 124.065 120.685C120.34 121.127 116.564 122.619 113.984 125.405ZM120.9 123.624C117.281 126.626 114.785 130.851 113.39 135.312C111.821 140.441 112.51 145.927 113.867 151.021C114.847 154.567 116.39 158.179 119.325 160.544C120.457 161.365 121.443 162.794 123.065 162.406C120.803 160.746 118.516 158.99 117.059 156.538C114.742 152.717 113.954 148.144 114.037 143.727C113.727 137.069 115.89 130.167 120.574 125.33C122.792 123.05 125.864 121.932 128.913 121.285C126.064 120.852 123.069 121.714 120.9 123.624ZM83.6416 121.867C84.4159 121.938 85.1941 122.013 85.9724 122.09C85.5944 122.409 85.2265 122.738 84.8828 123.096C85.5924 122.965 86.2918 122.785 86.9852 122.587C87.1914 122.736 87.4016 122.884 87.6118 123.036C87.2581 123.302 86.9063 123.573 86.5627 123.852C87.0842 123.907 87.6078 123.963 88.1334 124.022C88.1597 124.139 88.2142 124.374 88.2405 124.491C87.6927 124.663 87.1449 124.841 86.595 125.009C86.7123 125.275 86.8336 125.544 86.9528 125.815C87.6442 125.427 88.4164 125.176 89.2189 125.249C88.7257 125.781 88.1233 126.189 87.4845 126.525C90.1346 132.039 91.3051 138.136 92.053 144.166C92.9566 143.742 93.9532 143.782 94.9276 143.847C94.8932 144.19 94.8609 144.538 94.8265 144.886C93.9108 144.924 92.989 144.94 92.0773 144.973L92.0732 145.878C92.989 145.707 93.9209 145.622 94.8467 145.795C95.1439 146.192 95.251 146.687 95.4046 147.152C94.2524 147.134 92.9445 147.128 92.1218 146.198C92.1137 147.376 92.0834 148.553 92.0753 149.737C92.8859 149.808 93.7066 149.893 94.5213 149.98C94.4849 150.299 94.4505 150.625 94.4161 150.95C93.5651 150.904 92.7161 150.859 91.8671 150.815C91.8731 150.952 91.8873 151.227 91.8933 151.367C92.5867 151.571 93.2801 151.779 93.9694 152.007C93.8036 152.284 93.6419 152.563 93.4863 152.846C92.8192 152.798 92.148 152.739 91.483 152.691C91.3192 155.545 90.0154 158.112 88.6428 160.56C90.5713 159.827 92.4978 158.814 93.6338 157.017C95.4188 154.736 95.9343 151.795 96.092 148.983C96.0637 145.191 95.5805 141.413 94.875 137.689C94.0159 133.557 92.8596 129.393 90.6117 125.779C89.4008 123.83 87.5209 122.346 85.4226 121.453C84.7979 121.188 84.1955 121.627 83.6416 121.867ZM41.6231 121.788C41.8151 122.846 42.084 123.885 42.3589 124.926C46.6424 139.076 50.8754 153.243 55.0012 167.439C56.6993 172.534 57.894 177.8 59.8771 182.795C58.082 175.62 55.9089 168.547 53.6873 161.494C50.9583 152.295 48.1504 143.119 45.4821 133.901C44.2409 129.85 43.2463 125.708 41.6231 121.788ZM67.3586 124.022C69.1698 124.018 71.1226 124.069 72.6811 125.114C77.565 127.774 80.6903 132.906 81.7435 138.271C82.8148 143.107 82.3358 148.114 81.4503 152.935C80.7873 156.655 78.7132 160.057 75.9074 162.554C78.3918 162.388 80.8742 162.169 83.3647 162.079C84.4058 160.823 85.4953 159.588 86.2675 158.141C87.3126 156.026 87.8059 153.693 88.1981 151.383C89.1845 145.236 88.4427 138.878 86.4171 133.012C85.4812 130.465 84.5735 127.818 82.8007 125.714C80.7428 123.862 78.129 122.722 75.4384 122.156C72.6023 121.863 69.9198 122.973 67.3586 124.022ZM120.093 127.685C118.249 130.228 116.323 132.89 115.731 136.048C114.437 140.113 114.692 144.443 115.258 148.611C115.921 152.517 117.121 156.732 120.33 159.337C121.795 160.613 123.38 161.86 125.272 162.43C128.302 162.673 131.347 162.511 134.385 162.477C132.703 162.03 130.908 161.852 129.366 160.999C127.389 159.726 125.116 158.765 123.711 156.778C121.597 153.776 119.776 150.334 119.774 146.562C119.832 142.405 120.004 138.142 121.31 134.16C123.807 128.002 130.031 123.238 136.819 123.345C136.271 123.161 135.723 122.989 135.169 122.837C129.792 121.109 123.483 123.197 120.093 127.685ZM36.9878 124.398C36.9413 125.025 37.2142 125.623 37.38 126.219C41.0813 138.318 44.8999 150.382 48.3768 162.552C50.3538 169.182 52.4057 175.79 54.3786 182.421C54.599 182.93 54.8031 183.753 55.4844 183.745C56.5841 183.725 57.6676 183.49 58.7531 183.32C57.6959 178.748 56.2424 174.286 54.9204 169.786C49.8768 154.009 45.4477 138.043 40.5294 122.225C39.2822 122.777 37.6953 123.125 36.9878 124.398ZM85.5358 123.581C85.7682 123.947 86.027 124.299 86.3059 124.635C86.3322 124.103 86.029 123.741 85.5358 123.581ZM125.032 130.285C126.473 129.276 127.72 128.004 128.953 126.757C127.417 127.643 126.123 128.896 125.032 130.285ZM147.284 132.179C147.529 132.668 147.781 133.159 148.044 133.646C147.793 133.151 147.541 132.662 147.284 132.179ZM64.0191 139.367C64.48 139.205 65.2118 139.24 65.3573 138.656C65.608 137.384 65.5979 136.001 64.9773 134.835C63.5663 135.898 63.8776 137.835 64.0191 139.367ZM71.8988 134.845C71.4177 135.682 71.1671 136.62 71.0619 137.58C71.5309 137.612 72.2 138.065 72.5134 137.513C72.9803 136.638 72.5033 135.551 71.8988 134.845ZM130.93 135.68C130.334 136.396 129.891 137.934 131.092 138.304C132.145 137.825 132.161 136.44 132.467 135.506C131.953 135.429 131.276 135.106 130.93 135.68ZM140.318 135.561C139.582 136.577 139.123 137.756 138.998 139.011C139.479 139.06 140.071 139.381 140.488 138.987C141.094 138.247 141.149 137.226 141.296 136.329C140.969 136.072 140.643 135.815 140.318 135.561ZM120.714 147.067C120.487 147.269 120.734 147.807 121.045 147.665C121.27 147.459 121.023 146.923 120.714 147.067ZM121.005 148.486C120.54 149.177 121.799 148.64 121.005 148.486V148.486ZM145.477 151.348C146.32 150.506 146.835 149.404 147.278 148.312C146.538 149.23 145.877 150.233 145.477 151.348ZM144.862 154.854C142.333 158.393 138.98 161.834 134.472 162.477C145.855 162.501 157.236 162.762 168.617 162.861C166.896 161.128 164.503 159.97 162.019 160.164C157.903 160.322 153.595 160.296 149.76 158.604C147.826 157.799 146.362 156.259 144.862 154.854ZM76.7362 158.709C76.4714 158.846 76.4694 158.982 76.7322 159.119C76.999 158.98 77.0011 158.842 76.7362 158.709ZM76.1298 159.517C75.865 159.655 75.863 159.79 76.1257 159.928C76.3926 159.788 76.3946 159.651 76.1298 159.517ZM133.251 160.914C134.737 160.868 136.317 160.971 137.652 160.201C136.174 160.376 134.716 160.68 133.251 160.914ZM71.818 161.551C71.725 161.836 72.2101 161.939 72.3031 161.684C72.3941 161.395 71.9089 161.292 71.818 161.551ZM47.0184 161.882C46.7819 162.833 46.5353 163.793 46.3311 164.755C46.885 164.678 47.447 164.628 48.0029 164.561C47.6794 163.665 47.3499 162.77 47.0184 161.882ZM65.139 163.306C64.9773 163.716 64.8216 164.128 64.674 164.545C72.7236 164.157 80.7893 164.395 88.8449 164.373C96.3871 164.721 103.935 164.512 111.479 164.337C117.948 164.486 124.417 164.385 130.886 164.537C139.98 164.624 149.081 164.359 158.17 164.828C163.341 165.115 168.526 164.781 173.697 165.066C175.261 165.24 176.818 165.489 178.389 165.614C178.385 165.224 178.376 164.444 178.372 164.054C177.368 164.096 176.365 164.256 175.358 164.149C161.283 163.554 147.195 163.498 133.109 163.536C125.498 163.213 117.882 163.368 110.267 163.332C107.637 163.304 105.013 163.56 102.387 163.374C94.5597 163.368 86.7264 163.178 78.9053 163.483C74.3246 164.019 69.7217 163.54 65.139 163.306ZM67.6396 165.359C67.4051 170.775 67.3768 176.195 67.401 181.616C68.9394 181.311 70.508 181.533 72.0605 181.507C75.2242 181.513 78.3918 181.275 81.5534 181.509C81.5575 181.667 81.5615 181.98 81.5635 182.138C76.8474 182.162 72.1252 182.002 67.4172 182.346C67.4132 182.584 67.4111 182.829 67.4111 183.074C79.6027 182.825 91.8044 182.859 103.994 183.219C109.319 183.52 114.653 183.605 119.988 183.678C119.697 183.284 119.555 182.568 118.965 182.566C115.001 182.423 110.994 182.534 107.083 181.774C108.66 181.469 110.279 181.525 111.878 181.6C114.425 181.786 116.982 181.679 119.535 181.651C119.489 181.262 119.436 180.876 119.386 180.492C116.283 180.373 113.176 180.381 110.073 180.446C103.741 180.177 97.3998 180.442 91.0665 180.209C85.0223 180.021 78.9619 180.235 72.9318 179.69C75.7134 179.211 78.5475 179.306 81.3594 179.3C94.0098 179.366 106.666 179.101 119.311 179.663C119.371 176.548 119.44 173.437 119.6 170.328C108.069 170.096 96.5286 170.348 84.998 170.007C79.7361 169.902 74.4843 170.342 69.2224 170.219C69.2284 170.049 69.2426 169.708 69.2487 169.538C72.6104 169.584 75.9782 169.665 79.3379 169.463C87.5835 169.285 95.8332 169.509 104.081 169.34C109.141 169.283 114.204 169.572 119.264 169.34C119.39 169.067 119.642 168.519 119.77 168.246C115.66 167.993 111.544 167.906 107.432 167.763C104.121 167.601 100.798 167.908 97.4949 167.535C97.7698 167.26 98.0002 166.815 98.4551 166.878C105.55 167.086 112.656 166.827 119.747 167.195C119.802 166.619 119.915 166.121 119.984 165.566C116.097 165.566 112.209 165.491 108.328 165.653C100.485 166.037 92.6453 165.39 84.7999 165.503C79.0791 165.398 73.3604 165.299 67.6396 165.359ZM121.233 165.57C119.824 171.493 119.952 177.654 120.645 183.668C123.317 183.763 125.986 184 128.662 183.957C137.15 183.694 145.643 183.696 154.133 183.541C160.674 183.227 167.232 183.498 173.763 182.975C173.604 182.453 173.446 181.932 173.292 181.408C168.271 181.837 163.238 181.412 158.214 181.41C154.976 181.679 151.719 181.832 148.475 181.584C148.475 181.471 148.473 181.246 148.473 181.133C151.034 181.143 153.595 181.07 156.15 180.874C159.445 180.581 162.754 180.884 166.056 180.894C168.421 180.963 170.812 180.575 173.159 181.042C173.013 180.134 172.874 179.223 172.735 178.319C169.227 178.265 165.726 178.028 162.219 178.091C156.621 178.21 151.036 177.771 145.44 177.887C145.44 177.735 145.442 177.432 145.444 177.282C150.019 177.565 154.606 177.555 159.187 177.484C163.69 177.541 168.198 177.614 172.702 177.521C172.656 173.645 172.904 169.738 173.937 165.988C167.169 165.507 160.381 165.958 153.609 165.661C149.122 165.436 144.632 165.731 140.142 165.614C133.841 165.942 127.536 165.408 121.233 165.57ZM24.7133 166.212C30.9638 168.228 37.4709 169.845 44.0893 169.611C44.3844 168.392 44.7463 167.191 45.0394 165.976C38.2654 166.028 31.4772 165.762 24.7133 166.212ZM46.0238 165.98C45.755 167.207 45.478 168.436 45.197 169.661C46.5636 169.558 47.9362 169.435 49.2784 169.138C48.9853 168.08 48.6881 167.019 48.3991 165.962C47.6067 165.964 46.8142 165.97 46.0238 165.98ZM44.8332 171.009C43.9053 175.495 42.8097 179.95 41.5887 184.367C45.6903 184.77 49.808 184.375 53.9157 184.319C52.9312 180.947 51.9326 177.579 50.8754 174.232C50.5843 172.956 49.8424 171.85 48.767 171.113C47.4914 170.763 46.133 171.08 44.8332 171.009ZM175.158 184.335C171.182 184.072 167.204 184.299 163.227 184.315C160.274 184.161 157.327 184.416 154.377 184.471C143.174 184.778 131.965 185.087 120.764 184.602C120.54 185.057 120.321 185.514 120.109 185.977C135.883 185.334 151.673 184.901 167.46 185.271C170.776 185.38 174.093 185.427 177.41 185.501C178.342 185.605 178.571 184.491 178.914 183.858C177.647 183.923 176.446 184.475 175.158 184.335ZM64.5649 184.525C66.0871 185.083 67.7487 185.156 69.3558 185.061C72.008 185.034 74.6622 185.093 77.3164 185.081C81.699 185.039 86.0735 185.423 90.4581 185.388C100.006 185.837 109.567 186.041 119.129 185.96C119.284 185.497 119.44 185.037 119.598 184.576C113.889 184.493 108.178 184.689 102.474 184.45C90.3489 183.812 78.2038 184.406 66.0749 184.048C65.5251 184.002 65.0238 184.258 64.5649 184.525Z" fill="#0F5A8B"/>
<path d="M55.8948 92.8974C56.2101 92.7902 56.5255 92.6871 56.8408 92.582C56.9985 92.7397 57.1582 92.8974 57.3199 93.0551C57.2128 93.5665 57.0996 94.0779 56.9803 94.5894C56.5376 94.084 56.1697 93.5119 55.8948 92.8974Z" fill="#0F5A8B"/>
<path d="M57.3016 96.933C57.6837 96.8117 58.0637 96.6924 58.4478 96.5752C58.5125 97.3171 58.5489 98.065 58.5287 98.813C57.991 98.2813 57.5644 97.6446 57.3016 96.933Z" fill="#0F5A8B"/>
<path d="M121.815 126.909C122.367 126.897 122.921 126.938 123.469 127.014C123.404 127.233 123.275 127.669 123.21 127.888C122.707 127.617 122.238 127.291 121.815 126.909Z" fill="#0F5A8B"/>
<path d="M88.2789 127.758C89.1259 127.301 90.0497 127.018 90.9998 126.86C91.1656 127.301 91.3354 127.74 91.5032 128.178C90.7168 128.356 89.9406 128.635 89.1381 128.692C88.8086 128.421 88.5518 128.079 88.2789 127.758Z" fill="#0F5A8B"/>
<path d="M119.956 129.921C120.218 129.634 120.412 129.094 120.896 129.221C121.166 129.504 121.36 129.846 121.571 130.177C121.029 130.111 120.491 130.024 119.956 129.921Z" fill="#0F5A8B"/>
<path d="M89.4009 130.15C90.2115 129.897 91.0282 129.677 91.859 129.503C91.9439 129.919 92.0268 130.338 92.1076 130.758C91.4305 131.007 90.7533 131.252 90.0659 131.472C89.8395 131.033 89.6192 130.593 89.4009 130.15Z" fill="#0F5A8B"/>
<path d="M81.2684 130.153C81.6747 130.244 82.079 130.349 82.4772 130.475C82.0386 130.675 81.5938 130.867 81.1511 131.061C81.1875 130.756 81.2279 130.455 81.2684 130.153Z" fill="#0F5A8B"/>
<path d="M90.7148 132.458C91.2363 131.983 91.9863 131.884 92.621 131.651C92.7282 132.05 92.8353 132.452 92.9404 132.854C92.1521 133.212 91.3334 133.501 90.4965 133.729C90.547 133.309 90.4439 132.818 90.7148 132.458Z" fill="#0F5A8B"/>
<path d="M82.1619 133.291C82.8007 132.807 83.6234 132.526 84.3815 132.929C83.6659 133.163 82.9098 133.258 82.1619 133.291Z" fill="#0F5A8B"/>
<path d="M110.602 134.266C111.437 134.593 112.312 135.02 112.225 136.133C111.564 135.968 110.883 135.927 110.271 135.62C110.321 135.155 110.465 134.708 110.602 134.266Z" fill="#0F5A8B"/>
<path d="M83.1787 134.989C83.9489 134.864 84.7191 134.765 85.4994 134.704C84.8384 135.08 84.1531 135.41 83.4617 135.721C83.3667 135.474 83.2717 135.232 83.1787 134.989Z" fill="#0F5A8B"/>
<path d="M91.1292 135.135C91.8387 134.943 92.5563 134.767 93.2719 134.589C93.369 134.973 93.464 135.357 93.559 135.743C92.8353 136.02 92.0691 136.166 91.2929 136.156C91.2383 135.812 91.1837 135.474 91.1292 135.135Z" fill="#0F5A8B"/>
<path d="M84.7999 136.509C85.3174 136.555 85.8349 136.614 86.3484 136.717C85.8551 136.97 85.3477 137.194 84.8323 137.394C84.8242 137.174 84.808 136.731 84.7999 136.509Z" fill="#0F5A8B"/>
<path d="M91.4465 136.845C92.2632 136.772 93.0819 136.704 93.9026 136.659C93.8056 137.961 92.528 138.103 91.5496 137.89C91.5132 137.541 91.4789 137.193 91.4465 136.845Z" fill="#0F5A8B"/>
<path d="M91.7053 138.7C92.3643 138.385 93.1022 138.296 93.8056 138.116C93.8784 138.428 93.9653 138.741 94.0078 139.06C93.365 139.378 92.6615 139.556 91.9984 139.812C91.8792 139.446 91.7538 139.08 91.7053 138.7Z" fill="#0F5A8B"/>
<path d="M92.2673 140.787C93.0193 140.971 93.7713 141.187 94.5091 141.434C94.5091 141.642 94.5132 142.055 94.5152 142.261C93.6844 142.317 92.8515 142.344 92.0227 142.281C92.0833 141.907 92.2067 141.161 92.2673 140.787Z" fill="#0F5A8B"/>
<path d="M45.0757 142.831C44.7968 142.196 45.0313 141.61 45.3749 141.106C46.2098 143.251 46.5393 145.554 47.1902 147.757C48.7528 153.805 50.7541 159.755 51.9326 165.894C50.9623 164.331 50.7177 162.453 50.1901 160.723C49.521 157.982 48.5972 155.313 47.829 152.601C46.893 149.35 45.6013 146.186 45.0757 142.831Z" fill="#0F5A8B"/>
<path d="M84.8666 144.607C85.3781 144.583 85.8834 144.688 86.3828 144.789C85.9138 145.04 85.4266 145.311 84.8788 145.313C84.8505 145.076 84.8464 144.84 84.8666 144.607Z" fill="#0F5A8B"/>
<path d="M85.6005 146.352C85.8794 146.354 86.1584 146.36 86.4394 146.368C86.407 146.493 86.3403 146.744 86.308 146.869C86.0755 146.907 85.8451 146.948 85.6166 146.99C85.6126 146.831 85.6045 146.511 85.6005 146.352Z" fill="#0F5A8B"/>
<path d="M92.3259 147.694C93.1163 147.82 95.0044 147.531 95.0933 148.778C95.3157 149.851 93.7491 149.093 93.3043 149.164C92.5321 149.117 92.4209 148.337 92.3259 147.694Z" fill="#0F5A8B"/>
<path d="M110.064 152.035C110.736 151.847 111.405 151.675 112.09 151.533C112.183 151.853 112.274 152.172 112.365 152.495C111.787 152.718 111.203 153.013 110.566 152.993C110.372 152.687 110.222 152.356 110.064 152.035Z" fill="#0F5A8B"/>
<path d="M91.7316 154.221C92.7242 154.122 93.6642 154.448 94.592 154.743C94.495 155.072 94.398 155.404 94.303 155.735C93.3286 155.655 92.3583 155.511 91.394 155.357C91.485 154.971 91.5659 154.581 91.7316 154.221Z" fill="#0F5A8B"/>
<path d="M111.851 156.014C112.531 155.757 113.218 155.529 113.919 155.337C114.004 155.729 114.091 156.119 114.172 156.515C113.562 156.671 112.931 156.78 112.318 156.914C112.163 156.61 112.007 156.311 111.851 156.014Z" fill="#0F5A8B"/>
<path d="M91.0827 156.423C91.6063 156.516 92.1602 156.667 92.6878 156.797C92.6878 157.009 92.6898 157.43 92.6918 157.642C92.0631 157.682 91.4344 157.628 90.8138 157.545C90.9008 157.169 90.9897 156.795 91.0827 156.423Z" fill="#0F5A8B"/>
<path d="M90.1812 157.895C90.6946 158.022 91.198 158.196 91.6932 158.388C91.3819 158.578 91.0726 158.782 90.7209 158.893C90.4965 158.584 90.3368 158.238 90.1812 157.895Z" fill="#0F5A8B"/>
<path d="M69.4367 167.229C72.758 167.442 76.0894 167.318 79.4147 167.49C76.1177 168.054 72.762 167.975 69.4326 167.992C69.4326 167.735 69.4346 167.482 69.4367 167.229Z" fill="#0F5A8B"/>
<path d="M122.79 167.729C123.897 167.504 125.036 167.411 126.166 167.464C129.558 167.674 132.95 167.318 136.344 167.367C136.344 167.523 136.344 167.832 136.344 167.988C132.636 167.963 128.929 167.988 125.224 168.048C124.399 168.095 123.566 168.006 122.79 167.729Z" fill="#0F5A8B"/>
<path d="M150.494 168.188C156.807 168.222 163.122 168.105 169.435 168.261C170.646 168.364 171.95 168.231 173.088 168.736C172.12 169.308 170.958 169.047 169.902 169.065C163.436 168.801 156.965 168.74 150.494 168.795C150.494 168.643 150.494 168.34 150.494 168.188Z" fill="#0F5A8B"/>
<path d="M122.77 169.393C125.875 169.562 128.986 169.627 132.099 169.585C133.425 169.635 134.812 169.484 136.097 169.9C131.739 170.694 127.288 170.039 122.893 170.165C122.85 169.906 122.808 169.647 122.77 169.393Z" fill="#0F5A8B"/>
<path d="M74.3508 172.834C75.5334 172.704 76.7241 172.508 77.9188 172.581C83.1766 172.724 88.4406 172.498 93.6944 172.761C94.9356 172.803 96.1748 172.704 97.416 172.692C102.779 172.51 108.156 172.846 113.511 172.413C113.594 172.676 113.677 172.939 113.76 173.206C104.58 173.48 95.3904 173.608 86.2109 173.242C82.2609 173.11 78.2604 173.588 74.3508 172.834Z" fill="#0F5A8B"/>
<path d="M155.123 172.938C156.967 172.987 158.804 172.691 160.65 172.746C164.604 172.849 168.578 172.617 172.516 173.033C172.52 173.158 172.53 173.409 172.534 173.536C166.777 173.771 161.022 173.413 155.267 173.357C155.23 173.251 155.16 173.043 155.123 172.938Z" fill="#0F5A8B"/>
<path d="M146.993 172.946C148.527 172.857 150.074 172.894 151.592 173.15C148.915 173.706 146.176 173.609 143.463 173.755C138.939 173.894 134.409 174.321 129.883 173.979C129.408 173.939 128.953 173.783 128.504 173.639C134.662 173.342 140.835 173.32 146.993 172.946Z" fill="#0F5A8B"/>
<path d="M69.4973 175.963C70.979 175.852 72.4688 175.912 73.9526 175.965C78.1674 176.021 82.3802 175.742 86.595 175.916C93.9956 176.193 101.404 175.965 108.807 176.201C109.557 176.234 110.321 176.339 111.033 176.595C106.555 177.166 102.029 176.773 97.5312 176.883C90.1245 177.016 82.7279 176.414 75.3212 176.599C73.3886 176.472 71.452 176.646 69.5235 176.549C69.4973 176.353 69.4872 176.157 69.4973 175.963Z" fill="#0F5A8B"/>
<path d="M122.996 177.887C126.924 178.087 130.952 177.426 134.824 178.328C130.89 178.524 126.954 178.754 123.016 178.771C123.008 178.473 123 178.18 122.996 177.887Z" fill="#0F5A8B"/>
<path d="M122.986 179.813C125.058 179.417 127.168 179.328 129.271 179.508C129.267 179.653 129.261 179.944 129.256 180.09C127.189 180.371 125.104 180.616 123.014 180.616C123.008 180.415 122.992 180.013 122.986 179.813Z" fill="#0F5A8B"/>
<path d="M138.569 181.356C140.759 181.174 142.964 181.091 145.133 181.538C142.946 181.706 140.753 181.728 138.569 181.94C138.569 181.795 138.569 181.504 138.569 181.356Z" fill="#0F5A8B"/>
<path d="M0.5 184.138C4.90684 184.409 9.32378 184.178 13.7306 184.396C13.769 184.538 13.8458 184.821 13.8842 184.962C9.42283 184.975 4.95939 184.904 0.5 185.074V184.138Z" fill="#0F5A8B"/>
<path d="M194.569 185.301C196.58 185.277 198.63 185.364 200.554 186.011C198.559 186.126 196.568 186.272 194.571 186.227C194.567 185.916 194.567 185.609 194.569 185.301Z" fill="#0F5A8B"/>
<path d="M205.681 185.579C206.289 185.575 206.875 185.552 207.5 185.56V186.389C206.906 186.393 206.255 186.347 205.681 186.371C205.679 186.104 205.679 185.841 205.681 185.579Z" fill="#0F5A8B"/>
<path d="M184.214 186.021C187.289 185.687 190.406 185.865 193.465 186.28C190.724 186.68 187.94 186.639 185.179 186.668C184.724 186.728 184.489 186.29 184.214 186.021Z" fill="#0F5A8B"/>
</g>
<defs>
<clipPath id="clip0_3564_16994">
<rect width="207" height="207" fill="white" transform="translate(0.5)"/>
</clipPath>
</defs>
</svg>
