<svg width="208" height="207" viewBox="0 0 208 207" fill="none" xmlns="http://www.w3.org/2000/svg">
<g clipPath="url(#clip0_3564_16159)">
<path d="M176.019 38.1034C180.182 38.1014 184.346 38.1843 188.508 38.0771C188.348 38.3379 188.31 38.8332 187.904 38.7826C183.99 38.7665 180.077 38.7887 176.165 38.7402C175.765 38.8433 175.71 38.247 176.019 38.1034Z" fill="#0F5A8B"/>
<path d="M54.0875 51.7704C54.2614 51.6167 54.4352 51.4045 54.696 51.4348C57.1865 51.4671 59.679 51.3903 62.1674 51.5177C86.965 51.4247 111.763 51.4489 136.56 51.3661C136.819 51.3014 136.995 51.4409 137.106 51.6612L137.013 51.3762C142.388 51.3519 147.761 51.3822 153.134 51.3175C153.702 51.2205 154.076 51.6935 154.44 52.0392C156.326 53.8019 158.269 55.502 160.171 57.2466C160.686 57.7358 161.341 58.1016 161.74 58.704C161.798 60.2586 161.74 61.8171 161.764 63.3737C165.16 63.4161 168.562 63.3939 171.956 63.3676C172.765 63.2766 173.584 63.4525 174.386 63.2463C175.439 63.4525 176.513 63.3393 177.578 63.3535C179.943 63.3696 182.31 63.4101 184.675 63.3252C184.611 63.6203 184.532 63.9134 184.441 64.2025C181.069 64.1984 177.699 64.2328 174.327 64.2247C174.327 64.9322 174.317 65.6398 174.303 66.3473C174.796 66.3594 175.292 66.3938 175.777 66.507C174.993 66.5474 174.21 66.5696 173.428 66.5737L173.66 66.4908C173.681 65.7449 173.664 64.9969 173.654 64.253C169.824 64.2146 165.993 64.2611 162.162 64.2449C162.142 70.5924 162.152 76.9399 162.168 83.2853C162.1 83.9908 161.246 84.1586 160.794 84.577L160.626 84.7408C160.583 84.7711 160.498 84.8317 160.456 84.8641L160.745 84.573C158.303 84.6255 155.861 84.6983 153.419 84.7286C153.411 89.3134 153.415 93.8981 153.385 98.4848C154.727 98.4929 156.067 98.4161 157.41 98.3939C157.361 98.034 157.315 97.6762 157.266 97.3225C157.594 97.9006 157.741 98.5576 157.648 99.2227C157.309 99.0327 156.912 99.0832 156.546 99.0953C155.493 99.1539 154.44 99.1014 153.389 99.1297C153.365 102.071 153.367 105.01 153.385 107.951C153.389 108.833 153.318 109.72 153.472 110.596C153.185 111.293 153.702 112.358 152.776 112.686C152.629 96.5685 152.89 80.4451 152.683 64.3278C148.052 64.4228 143.421 64.3945 138.79 64.4188C138.311 64.4471 137.844 64.3278 137.371 64.3137C131.163 64.2955 124.957 64.3824 118.749 64.437C116.258 64.3622 113.766 64.631 111.275 64.4875C106.365 64.627 101.443 64.5724 96.5286 64.5684C94.5718 64.5886 92.6211 64.3844 90.6663 64.4572C80.8944 64.3905 71.1226 64.2267 61.3487 64.1681C59.5334 64.0751 57.7141 64.1519 55.8947 64.1317C55.5875 64.1782 55.1549 64.0408 54.9649 64.3662C54.7364 65.0535 54.8638 65.7914 54.8456 66.5029C54.8153 72.434 54.8638 78.363 54.8355 84.294C54.6616 87.3444 54.8577 90.407 54.7425 93.4594C54.3362 93.799 54.0997 93.1158 54.1179 92.8024C54.0936 90.0067 54.1219 87.207 54.0896 84.4092C52.434 84.4557 50.7784 84.4214 49.1228 84.4638C49.1046 84.3122 49.0662 84.009 49.048 83.8574C50.7299 83.7341 52.4198 83.7886 54.1078 83.7745C54.134 77.5463 54.134 71.3181 54.1199 65.0899C54.0815 64.7503 54.1927 64.4329 54.413 64.1742C51.8599 64.1762 49.3067 64.1802 46.7556 64.1964C46.7233 65.9955 46.7799 67.7947 46.7496 69.5938C46.4989 69.4927 46.0461 69.4664 46.0663 69.0965C46.04 67.4672 46.0198 65.8379 46.0643 64.2085C42.0435 64.1641 38.0208 64.1661 34 64.2025C33.996 65.7146 34.0021 67.2246 34.0142 68.7346C34.0405 69.1672 33.6483 69.4321 33.3067 69.6039C33.2885 67.8048 33.2703 66.0056 33.3087 64.2085C30.0986 64.2348 26.8885 64.2126 23.6804 64.251C23.6602 73.0202 23.6844 81.7914 23.6319 90.5606C23.6662 91.0417 23.3125 91.3995 23.0214 91.7351C22.9365 90.4009 22.987 89.0627 22.983 87.7265C22.9809 79.774 22.983 71.8215 23.0193 63.871C22.9648 63.3373 23.6339 63.5758 23.9472 63.5677C29.949 63.59 35.9366 63.4828 41.9384 63.5132C43.5273 63.4909 45.1182 63.5657 46.7051 63.4444C46.7314 61.8373 46.693 60.2303 46.7435 58.6252C49.2036 56.3531 51.6597 54.0769 54.0875 51.7704ZM116.131 52.1201C101.712 52.2494 87.2904 52.1767 72.8671 52.2313C66.928 52.2131 60.9828 52.2899 55.0457 52.1241C55.0296 55.9023 55.0538 59.6824 55.1306 63.4606C57.6757 63.4545 60.2248 63.3858 62.7678 63.5051C78.2584 63.5334 93.7491 63.873 109.242 63.7719C118.82 63.6971 128.397 63.6163 137.975 63.5293C139.224 63.8851 140.54 63.6506 141.82 63.7153C145.505 63.6405 149.213 63.9154 152.875 63.402C153.017 59.6218 152.985 55.8376 153.037 52.0534C140.734 52.0453 128.434 52.0796 116.131 52.1201ZM153.704 52.391C153.731 56.0579 153.646 59.7229 153.617 63.3898C156.1 63.3717 158.58 63.3878 161.062 63.3656C160.972 61.8717 161.22 60.3334 161.01 58.8678C158.467 56.8362 156.14 54.5479 153.704 52.391ZM47.4146 59.0133C47.3055 59.7532 47.449 60.5011 47.4268 61.2471C47.453 61.989 47.3176 62.7329 47.4308 63.4727C49.7555 63.5435 52.0903 63.497 54.4191 63.4849C54.3887 59.8401 54.3422 56.1934 54.3342 52.5466C52.062 54.7379 49.7333 56.8726 47.4146 59.0133ZM153.415 64.3157C153.346 70.8552 153.494 77.3967 153.464 83.9382C156.118 83.8068 158.78 83.821 161.438 83.7846C161.402 77.2795 161.523 70.7683 161.392 64.2652C158.734 64.2652 156.071 64.2005 153.415 64.3157Z" fill="#0F5A8B"/>
<path d="M71.63 158.137C71.4946 157.538 71.3632 156.485 72.2264 156.438C72.2648 156.95 72.2971 157.471 72.192 157.979C72.0505 158.019 71.7695 158.096 71.63 158.137Z" fill="#0F5A8B"/>
<path d="M182.124 166.011C182.81 166.142 182.787 167.442 182.09 167.521C181.775 167.076 181.888 166.464 182.124 166.011Z" fill="#0F5A8B"/>
<path d="M82.8573 190.141C83.2414 189.935 83.7468 190.088 83.955 190.47C84.3734 191.178 84.2683 192.051 84.2198 192.837C84.1693 193.218 84.0945 193.788 83.6154 193.846C83.1424 192.874 83.9813 191.582 83.2434 190.664C82.1478 191.265 82.0123 192.619 81.5413 193.644L81.321 193.717C81.2543 193.678 81.1189 193.602 81.0521 193.563C80.8864 192.611 80.7954 191.588 80.1647 190.804C79.9242 190.891 79.6088 190.921 79.5097 191.206C79.251 191.962 79.4147 192.775 79.3743 193.559C79.2065 193.553 78.873 193.545 78.7052 193.539C78.5738 192.599 78.594 191.584 79.0509 190.729C79.3581 190.163 80.2718 189.918 80.7166 190.456C81.0784 190.915 81.2361 191.493 81.4443 192.031C81.7314 191.299 82.1255 190.515 82.8573 190.141Z" fill="#0F5A8B"/>
<path d="M168.372 71.2331C169.484 69.2075 171.067 67.1456 173.428 66.5735C174.21 66.5695 174.992 66.5473 175.777 66.5068C177.657 66.8363 179.169 68.2089 180.262 69.7048C181.841 71.9709 182.543 74.7141 182.981 77.4047C183.384 79.7617 183.465 82.1551 183.754 84.5243C183.938 85.9798 184.354 87.5121 185.472 88.541C186.871 89.7579 188.797 90.235 190.036 91.6602C191.496 93.2632 191.7 95.5616 191.658 97.6337C191.67 100.468 191.092 103.284 191.265 106.12C191.417 108.313 192.767 110.165 194.346 111.596C195.933 113.043 196.877 115.107 196.974 117.25C197.18 120.644 196.562 124.467 193.924 126.862C194.645 126.343 195.68 126.682 196.127 127.404C196.695 128.259 196.61 129.341 196.598 130.319C197.401 129.88 198.508 129.694 199.266 130.319C199.762 130.752 199.776 131.447 200.002 132.019C200.398 132.429 201.094 132.723 201.025 133.404C201.072 134.797 200.014 135.834 199.547 137.057C199.509 138.043 200.255 138.795 200.613 139.66C201.49 141.461 200.265 144.007 198.223 144.255C196.798 144.473 195.733 143.303 194.518 142.786C193.72 142.399 192.788 142.796 192.234 143.412C191.536 144.134 191.722 145.322 190.97 146.006C190.125 146.851 188.864 146.994 187.73 146.934C187.691 148.557 187.257 150.166 187.283 151.781C187.404 152.006 187.536 152.226 187.671 152.448C187.552 152.452 187.315 152.46 187.196 152.466C187 155.121 186.584 157.753 186.333 160.401C186.264 160.987 186.143 161.757 185.476 161.945C184.261 162.004 183.044 161.941 181.831 161.876C180.537 161.792 179.24 161.931 177.954 161.735C177.956 161.622 177.962 161.397 177.966 161.284C179.935 161.015 181.942 161.236 183.927 161.165C184.18 158.992 184.572 156.837 184.904 154.676C184.999 154.073 185.055 153.461 185.266 152.887C185.294 152.802 185.353 152.632 185.383 152.549C185.421 152.167 185.421 151.785 185.44 151.407C185.759 149.776 186.07 148.144 186.525 146.545C185.585 146.147 184.756 145.375 184.621 144.32C184.477 143.974 184.886 143.521 185.219 143.77C185.359 144.166 185.336 144.629 185.599 144.981C186.768 146.473 189.214 146.776 190.604 145.43C191.001 144.694 190.997 143.776 191.554 143.117C192.244 142.296 193.392 141.724 194.469 142.052C195.666 142.373 196.566 143.4 197.807 143.59C199.535 143.598 200.724 141.451 199.974 139.945C199.626 139.187 199.08 138.508 198.911 137.677C198.549 136.014 200.483 134.942 200.338 133.299C199.96 132.878 199.39 132.579 199.279 131.977C199.068 131.5 199.091 130.693 198.432 130.618C197.484 130.402 196.715 131.033 195.975 131.502C195.872 131.469 195.666 131.405 195.563 131.372C195.688 130.772 196.014 130.21 195.945 129.579C195.933 128.775 195.842 127.699 194.995 127.331C194.441 127.186 193.746 127.06 193.285 127.489C192.114 128.393 191.055 129.652 190.936 131.186C190.833 132.539 190.938 133.899 190.807 135.251C190.619 137.392 190.061 139.596 188.682 141.296C187.993 142.169 187.059 142.812 186.064 143.291C185.189 143.746 184.15 143.614 183.256 144.021C182.009 144.469 181.279 145.69 180.095 146.244C178.459 147.057 176.573 147.166 174.778 147.087C170.274 146.736 165.605 144.682 163.193 140.699C162.694 139.858 162.518 138.878 162.118 137.995C162.031 137.794 161.915 137.609 161.798 137.433C161.103 136.282 160.046 135.342 158.77 134.89C156.836 134.158 154.594 133.802 153.158 132.175C151.319 130.428 150.142 128.043 149.744 125.548C149.134 121.889 149.969 118.083 151.751 114.861C152.904 112.779 154.701 111.143 155.833 109.047C157.535 106.083 157.767 102.56 157.648 99.2225C157.741 98.5575 157.594 97.9005 157.266 97.3223C156.599 94.8096 156.122 92.1029 156.92 89.5598C157.45 87.6172 158.72 85.8929 160.456 84.8639C160.498 84.8316 160.583 84.771 160.626 84.7406C162.267 83.8795 163.597 82.4948 164.434 80.8452C166.033 77.7604 166.662 74.2693 168.372 71.2331ZM173.913 82.2441C173.573 82.7879 173.517 83.4428 173.408 84.0594C172.91 86.7318 172.555 89.4466 172.654 92.1716C172.662 93.2652 172.819 94.3851 173.317 95.3736C173.448 95.8446 173.976 95.7517 174.344 95.6951C173.925 94.7753 173.646 93.7888 173.622 92.776C173.472 89.2405 173.852 85.6948 174.558 82.234C174.526 81.8297 174.03 81.9853 173.913 82.2441ZM178.32 91.4823C178.413 91.9189 178.621 92.3596 178.514 92.8185C178.243 94.3285 177.796 95.8042 177.265 97.2415C176.951 98.0946 176.693 98.98 176.234 99.7683C175.932 100.068 175.342 100.074 175.413 100.636C175.86 100.644 176.371 100.547 176.614 100.122C177.155 99.2589 177.479 98.2846 177.847 97.3426C178.385 95.8608 178.916 94.3548 179.092 92.7801C179.161 92.2343 179.062 91.4176 178.32 91.4823ZM165.043 96.0205C165.975 98.7879 166.848 101.648 168.582 104.038C169.526 105.083 170.569 106.142 171.922 106.633C172.253 106.751 172.427 106.431 172.565 106.201C170.537 105.479 169.16 103.639 168.186 101.806C166.937 99.4449 166.104 96.8918 165.281 94.3609C164.812 94.8036 164.861 95.4606 165.043 96.0205ZM173.776 117.234C173.412 117.487 173.288 117.939 173.189 118.346C173.024 119.181 172.854 120.014 172.708 120.852C172.439 122.68 172.211 124.521 172.247 126.373C172.195 128.14 172.251 130.024 173.133 131.607C173.258 131.999 174.129 131.896 173.889 131.425C173.088 129.577 173.175 127.517 173.173 125.548C173.282 122.894 173.537 120.23 174.178 117.646C174.348 117.388 174.02 116.969 173.776 117.234ZM181.477 120.929C181.682 121.495 181.801 122.104 181.583 122.69C180.863 125.083 179.403 127.263 177.463 128.835C176.866 129.361 176.064 129.525 175.405 129.943L175.486 130.236L175.7 130.303C177.655 129.759 179.145 128.233 180.303 126.636C181.277 125.227 182.147 123.638 182.274 121.9C182.328 121.457 182.049 120.63 181.477 120.929ZM165.077 126.745C165.536 128.886 166.367 131 167.796 132.684C169.037 133.82 170.478 134.835 172.124 135.274C172.488 135.407 172.771 135.082 172.834 134.756C171.251 134.558 169.88 133.62 168.803 132.492C166.953 130.467 165.912 127.776 165.623 125.069C164.938 125.302 164.95 126.157 165.077 126.745ZM185.927 154.923C185.755 155.064 185.727 155.565 186.016 155.561C186.181 155.416 186.214 154.91 185.927 154.923Z" fill="#0F5A8B"/>
<path d="M132.095 111.431C136.997 111.251 141.913 111.287 146.821 111.257C147.041 113.246 146.809 115.259 147.07 117.244C147.096 117.986 147.096 118.73 147.084 119.474C147.09 119.763 146.894 120.05 146.657 120.202C145.222 120.283 143.773 120.153 142.348 120.386C141.157 120.224 139.952 120.347 138.755 120.333C135.046 120.351 131.337 120.307 127.631 120.451C125.484 120.347 123.333 120.475 121.185 120.465C119.428 120.602 117.659 120.434 115.907 120.586C115.88 120.709 115.826 120.954 115.799 121.077C115.799 120.948 115.799 120.685 115.799 120.554C113.547 120.651 111.277 120.505 109.04 120.74C108.759 120.649 108.494 120.491 108.342 120.232C108.379 120.129 108.449 119.923 108.486 119.82C108.558 119.838 108.706 119.874 108.779 119.893C108.858 119.911 109.017 119.947 109.096 119.963C109.42 120.03 109.769 120.02 110.079 119.893C110.188 117.376 110.083 114.855 110.127 112.338C109.695 112.336 109.264 112.334 108.833 112.344C108.783 112.136 108.728 111.928 108.67 111.726C116.477 111.572 124.286 111.536 132.095 111.431ZM135.151 112.043C135.276 114.598 135.299 117.156 135.242 119.713C135.509 119.68 135.78 119.65 136.051 119.62C136.15 117.101 136.063 114.58 136.075 112.061C135.766 112.053 135.456 112.047 135.151 112.043ZM136.627 112.037C136.732 114.574 136.663 117.111 136.718 119.648C136.981 119.638 137.247 119.63 137.512 119.622C137.561 117.093 137.516 114.564 137.528 112.037C137.225 112.035 136.924 112.035 136.627 112.037ZM138.187 112.037C138.226 113.25 138.189 114.463 138.214 115.676C138.214 115.862 138.212 116.048 138.214 116.236C138.181 117.372 138.226 118.506 138.222 119.642C139.503 119.618 140.785 119.628 142.067 119.593C142.063 118.472 142.087 117.352 142.077 116.23C142.277 115.965 142.267 115.779 142.042 115.672C142.056 114.451 142.056 113.23 142.034 112.011C140.753 112.035 139.469 112.045 138.187 112.037ZM142.677 112.379C142.689 114.792 142.752 117.204 142.709 119.618C143.348 119.806 143.269 119.088 143.282 118.672C143.294 116.472 143.292 114.275 143.265 112.078C143.081 111.675 142.54 112.037 142.677 112.379ZM143.926 112.035C143.955 114.564 143.926 117.095 143.953 119.626C144.141 119.626 144.333 119.628 144.527 119.632C144.537 117.058 144.549 114.485 144.561 111.912C144.401 111.942 144.084 112.005 143.926 112.035ZM113.418 112.302C113.469 114.841 113.422 117.382 113.434 119.921C114.75 119.935 116.066 119.826 117.382 119.84C117.431 117.313 117.443 114.786 117.463 112.262C116.115 112.296 114.766 112.276 113.418 112.302ZM120.148 112.223C120.18 114.794 120.119 117.368 120.138 119.941C120.471 119.911 120.805 119.883 121.14 119.848C121.063 118.839 121.124 117.833 121.213 116.828C121.219 115.304 121.253 113.774 121.126 112.253C120.799 112.239 120.471 112.229 120.148 112.223ZM123.562 112.158C123.572 114.71 123.72 117.261 123.54 119.81C124.892 119.757 126.248 119.773 127.603 119.751C127.569 118.249 127.75 116.749 127.605 115.253C127.736 114.212 127.518 113.167 127.702 112.128C126.321 112.136 124.941 112.189 123.562 112.158ZM128.351 119.757C129.788 119.715 131.225 119.729 132.665 119.725C132.681 117.178 132.667 114.629 132.752 112.088C131.284 112.092 129.818 112.114 128.351 112.116C128.333 114.663 128.357 117.21 128.351 119.757ZM110.728 112.781C110.671 115.148 110.758 117.519 110.758 119.889C110.831 119.866 110.978 119.818 111.051 119.796C111.031 117.303 111.077 114.813 111.091 112.322C110.823 112.375 110.701 112.526 110.728 112.781ZM111.76 112.399C111.724 114.91 111.7 117.424 111.742 119.937C112.064 119.925 112.389 119.933 112.713 119.899C112.85 117.38 112.707 114.853 112.779 112.33C112.438 112.348 112.1 112.369 111.76 112.399Z" fill="#0F5A8B"/>
<path d="M37.384 67.8614C39.8907 67.3459 42.6379 67.5016 44.8918 68.8014C46.6566 69.7879 47.9058 71.5102 48.5911 73.3861C49.6201 76.1454 49.5816 79.1635 49.1794 82.0421C48.7872 84.6943 48.5184 87.5789 49.7717 90.0553C50.5782 91.6017 52.2096 92.38 53.6509 93.2128C55.258 94.1386 56.4264 95.7862 56.6973 97.6318C57.0814 99.4774 56.0908 101.44 56.9924 103.207C57.6696 104.848 59.4728 105.437 60.6695 106.599C63.4753 109.312 65.0905 113.04 65.8223 116.828C66.4247 120.28 65.982 123.917 64.5427 127.115C62.9922 130.55 60.0105 133.285 56.481 134.589C54.7283 135.308 52.7655 135.393 51.0735 136.281C49.8626 136.891 49.3937 138.251 48.6053 139.268C47.1417 141.201 45.4942 143.069 43.3393 144.249C40.4183 145.872 36.9352 146.101 33.6807 145.652C30.8122 145.203 28.0064 143.778 26.3184 141.361C24.5537 139.175 24.0523 136.258 22.2633 134.089C21.0161 132.539 19.128 131.73 17.6988 130.38C14.992 127.968 13.668 124.277 13.767 120.697C13.7791 117.097 15.2285 113.656 17.2339 110.721C18.8106 108.475 20.0781 105.981 20.7027 103.296C21.1454 101.586 21.2222 99.815 21.3213 98.0603C21.4507 95.956 21.9581 93.797 23.2356 92.0808C24.3333 90.69 25.7059 89.5297 26.6904 88.0459C28.443 85.5878 29.1081 82.5778 29.6397 79.6588C30.1067 77.3421 30.3068 74.9143 31.3984 72.7776C32.5608 70.3882 34.7763 68.4698 37.384 67.8614ZM39.167 91.0458C38.6757 92.2445 38.6212 93.5666 38.3503 94.8239C38.0066 97.7025 37.5457 100.611 37.9056 103.512C38.0046 104.094 38.227 105.012 39.0154 104.824C38.7748 104.268 38.4776 103.714 38.4635 103.094C38.3179 100.63 38.5787 98.1654 38.8799 95.7215C39.1205 94.1205 39.359 92.5134 39.7896 90.9488C39.6723 90.6657 39.2317 90.7688 39.167 91.0458ZM31.641 98.0522C31.453 98.5071 31.5985 98.9922 31.7138 99.445C32.2393 101.212 32.8498 102.971 33.808 104.555C34.4023 105.667 35.3241 106.577 36.3733 107.266C37.0606 107.693 37.9884 108.127 38.7182 107.527C38.1481 107.127 37.3678 107.258 36.8039 106.823C35.7951 106.094 34.9441 105.136 34.3296 104.052C33.242 102.194 32.4678 100.165 31.9503 98.0785C31.8734 98.0725 31.7178 98.0583 31.641 98.0522ZM41.3744 99.9059C41.1096 100.264 41.6696 100.676 41.617 101.093C41.5139 102.685 40.9115 104.194 40.6366 105.758C40.7114 105.861 40.861 106.069 40.9358 106.173C41.5604 104.612 41.9788 102.946 42.1608 101.274C42.1749 100.779 42.0354 99.8372 41.3744 99.9059ZM48.3243 122.708C47.7825 125.053 46.8547 127.319 45.472 129.296C44.7928 130.208 43.9963 131.083 42.9391 131.558C42.3084 131.88 41.5988 131.981 40.9358 132.215C40.6568 132.246 40.8205 132.777 41.0914 132.668C42.7511 132.49 44.342 131.698 45.4235 130.414C47.1458 128.393 48.3 125.894 48.8337 123.299C48.9671 122.941 48.6336 122.716 48.3243 122.708ZM36.5107 123.478C36.252 124.2 36.254 124.98 36.2338 125.736C36.2419 127.73 36.2277 129.741 36.6482 131.7C36.5774 132.015 37.3072 132.288 37.1839 131.819C36.8342 129.013 36.723 126.157 37.0363 123.341C36.9049 123.375 36.6421 123.444 36.5107 123.478ZM28.1094 129.155C28.5906 130.798 29.5346 132.304 30.7232 133.531C31.7239 134.585 33.0924 135.144 34.3841 135.743C34.936 135.929 35.5243 136.088 36.1125 136.006C36.1469 135.864 36.2176 135.581 36.252 135.44C33.9253 135.411 31.9402 133.796 30.5777 132.037C29.6822 130.857 28.9019 129.529 28.7098 128.037C28.1357 127.804 27.9922 128.75 28.1094 129.155Z" fill="#0F5A8B"/>
<path d="M153.055 132.815C153.211 132.858 153.522 132.945 153.678 132.987C153.749 135.449 153.627 137.938 153.739 140.41C156.298 140.418 158.859 140.422 161.42 140.428C161.481 139.377 161.418 138.324 161.509 137.277L161.798 137.432C161.916 137.608 162.031 137.794 162.118 137.994C162.089 138.864 162.112 139.733 162.142 140.604C162.526 140.61 162.888 140.665 162.74 141.136C162.589 141.136 162.287 141.14 162.138 141.142C162.112 144.629 162.112 148.118 162.152 151.607C165.487 151.544 168.823 151.587 172.16 151.569C172.397 150.097 172.302 148.569 172.714 147.132C173.266 147.069 173.986 146.911 174.445 147.271C174.576 148.706 174.473 150.154 174.424 151.591C178.063 151.435 181.692 151.834 185.33 151.728C185.359 151.648 185.413 151.486 185.44 151.407C185.421 151.785 185.421 152.167 185.383 152.549C185.353 152.632 185.294 152.802 185.266 152.887C185.254 152.776 185.229 152.553 185.217 152.442C182.405 152.422 179.595 152.547 176.784 152.533C175.894 152.553 175.001 152.497 174.117 152.604C173.573 155.199 174.022 157.88 173.838 160.51C173.513 166.536 173.076 172.554 172.759 178.582C179.254 178.382 185.753 178.271 192.246 178.056C192.218 176.92 192.341 175.683 193.048 174.749C193.315 174.367 194.029 174.327 194.225 174.802C194.472 175.327 194.54 175.911 194.635 176.479C194.876 175.849 195.258 175.101 195.99 174.973C196.376 174.897 196.56 175.283 196.689 175.576C196.992 176.342 196.92 177.187 196.899 177.996C198.007 177.917 199.119 177.917 200.231 177.915C200.18 178.119 200.132 178.327 200.085 178.535C199.044 178.584 198.003 178.608 196.962 178.636C196.677 178.705 196.291 178.998 196.069 178.677C196.315 177.696 196.317 176.655 196.026 175.683C195.046 176.247 194.945 177.523 194.518 178.473C194.425 178.479 194.241 178.491 194.148 178.495C193.827 177.428 194.055 176.271 193.756 175.192C193.192 175.412 193.135 176.085 193.004 176.595C192.818 177.359 192.943 178.139 193.026 178.911C191.793 178.683 190.54 178.861 189.299 178.839C184.037 178.96 178.775 179.118 173.513 179.251C173.24 179.255 172.973 179.279 172.708 179.322C172.621 180.581 172.542 181.845 172.466 183.106C168.148 183.312 163.82 183.334 159.502 183.514C157.309 183.977 155.433 185.386 153.233 185.805C153.405 186.338 153.49 186.892 153.555 187.45C154.044 187.48 154.545 187.424 155.032 187.519C155.546 187.642 155.623 188.447 155.146 188.673C154.426 188.986 153.587 189.057 152.827 188.93C152.586 188.061 152.374 187.173 151.948 186.371C151.113 186.047 150.997 185.083 150.668 184.365C150.241 183.165 149.574 182.024 149.425 180.745C150.045 180.516 150.684 180.326 151.283 180.037C150.531 180.055 149.781 180.06 149.035 180.134C148.98 180.547 148.93 180.963 148.883 181.38C148.739 181.034 148.572 180.7 148.388 180.379C148.307 180.25 148.218 180.126 148.119 180.013C147.81 182.465 147.624 184.931 147.302 187.379C147.262 187.763 147.3 188.147 147.365 188.532C147.136 188.578 146.91 188.627 146.686 188.679C146.829 185.746 147.26 182.835 147.49 179.908C146.589 179.819 145.715 179.562 144.82 179.453C141.448 179.405 138.082 179.198 134.708 179.208C134.809 179.558 134.896 179.916 134.955 180.28C134.813 180.33 134.533 180.429 134.391 180.478C135.297 182.865 136.045 185.309 136.902 187.713C137.385 187.626 137.884 187.553 138.373 187.654C138.753 187.771 138.931 188.224 138.765 188.584C138.123 189.251 137.181 189.488 136.307 189.684C136.253 189.455 136.204 189.229 136.162 189.007C135.727 188.546 135.578 187.929 135.406 187.343C134.595 185.166 133.991 182.914 133.089 180.771C131.781 180.791 130.425 180.872 129.178 180.397C128.183 182.014 127.403 183.755 126.55 185.449C126.103 186.389 125.591 187.298 125.218 188.271C125.587 188.406 126.032 188.439 126.315 188.746C126.386 188.994 126.43 189.249 126.451 189.514C129.378 189.514 132.307 189.463 135.232 189.565C135.192 189.664 135.113 189.862 135.072 189.963C133.407 190.027 131.739 189.926 130.073 190.005C128.587 189.924 127.097 190.009 125.614 190.052C122.248 190.052 118.884 190.048 115.52 190.054C113.796 190.029 112.07 190.106 110.349 189.979C110.396 189.868 110.493 189.647 110.539 189.538C115.106 189.439 119.681 189.615 124.245 189.417C124.001 189.225 123.734 189.061 123.523 188.837C123.802 187.547 124.546 186.429 125.102 185.249C125.913 183.526 126.823 181.853 127.69 180.159C127.221 180.124 126.75 180.092 126.291 179.987C126.406 179.645 126.562 179.32 126.732 179.002C122.113 178.932 117.467 178.683 112.864 178.729C112.939 177.905 113.103 177.06 112.963 176.221C112.864 176.205 112.666 176.172 112.565 176.156C112.618 175.881 112.664 175.606 112.707 175.333C113.966 175.529 113.64 177.088 113.663 178.002C118.08 178.046 122.495 178.232 126.909 178.349C127.451 177.037 127.498 175.594 127.967 174.258C127.995 174.1 128.054 173.781 128.082 173.623C127.437 173.449 126.693 173.381 126.24 172.831C125.27 171.648 125.405 169.948 125.907 168.596C126.301 167.466 127.229 166.398 128.486 166.293C129.085 166.186 129.636 166.483 130.154 166.744C130.411 166.014 130.795 165.333 131.27 164.725C131.601 164.25 132.232 164.296 132.739 164.211C132.834 163.956 132.915 163.694 133.041 163.455C133.5 163.162 134.357 163.538 134.217 164.154C134.1 164.336 133.979 164.516 133.851 164.696C134.621 165.078 134.638 166.032 134.684 166.776C134.781 167.387 134.031 167.472 133.613 167.621C133.477 167.417 133.534 166.985 133.19 167.025C132.772 167.555 133.318 168.102 133.548 168.58C134.243 169.956 134.884 171.363 135.624 172.72C135.853 173.144 136.109 173.567 136.182 174.054C136.202 174.42 135.897 174.723 135.533 174.717C134.906 174.731 134.306 174.513 133.74 174.264C133.983 175.339 134.326 176.403 134.379 177.512C134.397 177.828 134.494 178.131 134.587 178.434C138.1 178.644 141.628 178.675 145.147 178.748C145.182 177.702 145.479 176.688 145.495 175.641C145.521 175.188 145.683 174.759 145.8 174.325C145.663 174.268 145.388 174.153 145.248 174.096C145.289 173.538 145.374 172.986 145.467 172.439C145.271 172.067 145.022 171.676 145.127 171.24C145.297 170.245 145.713 169.313 146.067 168.373C146.55 167.286 146.944 166.129 147.688 165.183C148.151 165.078 148.624 165.04 149.099 165.05C150.114 165.927 151.602 165.877 152.738 166.546C153.037 166.795 152.962 167.223 153.043 167.569C153.266 168.98 153.452 170.397 153.658 171.812C153.619 171.966 153.543 172.275 153.504 172.43C153.951 174.464 154.394 176.504 154.838 178.539C155.315 178.311 155.689 177.923 156.152 177.676C156.791 177.545 157.464 177.533 158.115 177.575C158.521 177.842 158.608 178.406 158.839 178.818C160.207 178.792 161.578 178.776 162.949 178.849C163.031 177.919 163.189 176.932 163.773 176.17C164.03 175.78 164.738 175.774 164.924 176.239C165.138 176.722 165.202 177.254 165.31 177.771C165.665 177.256 165.983 176.093 166.812 176.572C167.246 177.242 167.095 178.113 167.054 178.869C167.446 178.816 167.843 178.766 168.241 178.721C168.221 178.07 168.225 177.375 168.524 176.783C168.637 176.742 168.863 176.661 168.977 176.621C169.019 177.337 168.948 178.054 168.72 178.737C169.136 178.717 169.557 178.693 169.977 178.663C170.4 173.486 170.749 168.305 171.083 163.124C171.293 159.582 171.873 156.077 172.084 152.535C166.074 152.573 160.062 152.466 154.054 152.62C154.022 152.254 154.003 151.888 153.997 151.524C156.453 151.591 158.912 151.561 161.368 151.587C161.491 148.12 161.451 144.643 161.372 141.174C159.898 141.134 158.42 141.19 156.947 141.148C156.544 141.006 156.148 141.209 155.744 141.176C155.061 141.152 154.377 141.158 153.696 141.192C153.755 143.994 153.704 146.79 153.714 149.592C153.866 150.97 153.688 152.375 153.989 153.738C145.475 153.653 136.956 153.693 128.44 153.661C128.163 153.582 128.06 153.9 127.884 154.035C127.514 153.481 126.821 153.677 126.261 153.61C118.502 153.59 110.744 153.61 102.987 153.604C98.1215 153.483 93.2518 153.57 88.384 153.481C88.5619 153.263 88.7398 153.044 88.9177 152.83C92.6635 152.903 96.4093 152.925 100.157 152.907C104.734 153.071 109.319 152.953 113.901 152.988C118.458 152.982 123.014 152.972 127.571 152.968C127.581 152.313 127.589 151.658 127.589 151.003C124.466 150.875 121.334 150.918 118.211 150.974C118.146 151.138 118.021 151.464 117.956 151.627C117.793 151.401 117.633 151.175 117.477 150.948C116.024 150.926 114.57 150.924 113.119 150.96C112.973 151.189 112.828 151.417 112.68 151.648C112.614 151.468 112.482 151.108 112.417 150.928C110.214 150.93 108.013 150.95 105.811 150.906C105.763 150.74 105.668 150.406 105.619 150.241C105.668 150.239 105.763 150.235 105.809 150.231C105.704 150.18 105.496 150.075 105.391 150.022C105.344 149.309 105.324 148.595 105.292 147.882C105.201 147.865 105.019 147.829 104.928 147.811C104.74 148.397 104.578 148.989 104.457 149.594C104.127 149.59 103.8 149.588 103.474 149.588C103.586 148.508 103.883 147.453 103.909 146.365C103.553 146.254 103.054 146.297 102.838 145.937C102.712 145.452 102.684 144.946 102.589 144.457C102.278 144.382 101.968 144.306 101.661 144.231C101.582 143.778 101.52 143.323 101.481 142.866C101.59 142.852 101.813 142.826 101.922 142.812C101.908 143.283 101.875 143.752 101.845 144.225C102.306 143.94 102.71 143.574 103.011 143.123C103.466 142.464 104.113 141.973 104.821 141.609C104.712 141.53 104.493 141.372 104.384 141.296C104.467 140.693 104.627 140.081 105.077 139.644C105.193 139.533 105.31 139.424 105.429 139.319C105.611 139.416 105.795 139.513 105.979 139.618C106.6 140.087 106.624 140.96 106.294 141.613C106.614 141.831 107.032 142.021 107.075 142.462C107.323 143.881 107.123 145.334 107.263 146.768C107.368 147.17 106.98 147.348 106.668 147.435C106.705 148.26 106.844 149.092 106.733 149.919C106.575 150.043 106.414 150.162 106.248 150.277C107.226 150.263 108.203 150.301 109.181 150.297C109.211 149.155 109.187 148.013 109.221 146.871C109.403 146.23 109.496 145.571 109.575 144.912C109.715 146.442 109.721 147.991 109.583 149.523C109.555 149.78 109.604 150.034 109.66 150.287L109.878 150.293C110.738 150.291 111.599 150.293 112.458 150.299C112.676 150.297 112.897 150.299 113.119 150.303C114.623 150.301 116.125 150.317 117.629 150.311C117.71 147.473 117.675 144.633 117.732 141.795C117.972 142.159 118.177 142.549 118.3 142.971C118.28 145.425 118.274 147.882 118.221 150.336C118.729 150.328 119.236 150.319 119.745 150.311C119.873 150.309 120.125 150.307 120.253 150.307C120.892 150.307 121.532 150.328 122.173 150.34C122.208 148.684 122.22 147.026 122.214 145.371C122.44 145.442 122.666 145.512 122.897 145.587C122.881 147.162 122.925 148.739 122.911 150.315C124.468 150.295 126.022 150.323 127.579 150.283C127.635 145.488 127.611 140.693 127.674 135.9L127.811 135.912C127.849 136.646 127.862 137.384 127.932 138.118C128.009 138.043 128.163 137.895 128.238 137.821C128.165 141.987 128.09 146.153 128.106 150.321C128.165 150.336 128.282 150.364 128.341 150.376C128.832 150.55 129.345 150.631 129.867 150.647C129.843 149.79 129.82 148.927 130 148.084C130.027 148.884 130.037 149.687 130.021 150.489C130.963 150.457 131.907 150.475 132.849 150.501C132.758 149.842 132.651 149.179 132.733 148.514C133.425 148.921 133.287 149.832 133.366 150.518C134.072 150.499 134.779 150.495 135.487 150.499C135.293 149.77 135.187 149.018 135.175 148.266C135.974 148.662 135.802 149.731 135.739 150.465C139.271 150.396 142.806 150.501 146.338 150.386L146.346 150.196C146.556 150.247 146.769 150.295 146.985 150.344C148.966 150.394 150.963 150.382 152.942 150.243C153.106 149.644 152.972 148.987 153.015 148.369C153.086 145.808 152.964 143.246 152.954 140.687C153.043 138.063 152.89 135.435 153.055 132.815ZM102.807 144.14C103.107 144.857 102.933 146.08 103.917 146.244C104.891 146.446 105.894 146.416 106.885 146.464C106.856 145.06 106.976 143.638 106.709 142.25C106.181 142.001 105.605 141.722 105.005 141.823C104.004 142.276 103.309 143.19 102.807 144.14ZM144.031 152.052C139.918 152.032 135.804 152.094 131.69 152.141C130.52 152.161 129.341 152.054 128.181 152.25C128.189 152.484 128.197 152.723 128.205 152.962C129.574 153 130.954 152.856 132.315 153.055C133.316 152.822 134.345 153.018 135.361 152.953C141.292 152.953 147.223 152.929 153.156 152.955C153.185 152.618 153.207 152.278 153.229 151.943C150.161 151.935 147.098 152.06 144.031 152.052ZM148.131 165.61C147.508 166.216 147.302 167.126 146.92 167.888C146.506 169.051 145.93 170.181 145.715 171.4C146.231 172.19 145.918 173.112 145.847 173.977C147.7 173.906 149.597 174.131 151.422 173.769C150.809 171.747 150.708 169.625 150.462 167.538C150.561 167.573 150.761 167.64 150.86 167.672C151.088 169.095 151.23 170.536 151.426 171.968C151.986 171.842 152.544 171.707 153.106 171.587C152.966 170.029 152.71 168.485 152.57 166.926C151.066 166.566 149.659 165.851 148.131 165.61ZM130.485 167.074C130.49 167.439 130.768 167.589 131.086 167.692C131.191 167.201 130.91 167.051 130.485 167.074ZM131.686 167.237C131.682 167.708 132.277 167.751 132.616 167.64C132.602 167.124 132.048 167.239 131.686 167.237ZM130.995 167.884C131.642 169.469 131.789 171.436 130.742 172.885C130.271 173.548 129.406 173.581 128.676 173.67C128.381 174.64 128.153 175.637 127.771 176.581C129.792 176.562 131.814 176.73 133.833 176.682C133.609 175.845 133.469 174.988 133.235 174.155C132.974 173.221 132.519 172.339 132.432 171.363C133.352 171.773 133.081 173.122 133.805 173.742C134.359 174.082 135.028 174.137 135.663 174.179C135.456 173.253 134.89 172.479 134.49 171.638C133.94 170.585 133.514 169.467 132.857 168.474C132.545 167.735 131.613 168.056 130.995 167.884ZM152.611 172.067C152.991 174.226 153.547 176.35 153.959 178.503C153.993 178.82 154.163 179.079 154.369 179.32C154.402 178.645 154.204 177.998 154.046 177.353C153.638 175.723 153.389 174.06 153.015 172.422C153.001 172.2 152.762 172.156 152.611 172.067ZM151.751 172.424C151.751 174.824 152.722 177.124 152.766 179.524C153.013 179.39 153.272 179.273 153.502 179.109C153.28 177.614 152.877 176.15 152.607 174.662C152.427 173.837 152.322 172.992 152.037 172.196C151.966 172.253 151.822 172.368 151.751 172.424ZM163.603 178.835C163.937 178.956 164.087 179.204 164.036 179.56C162.38 179.415 160.715 179.435 159.051 179.407C159.5 180.417 160.262 181.285 160.579 182.352C160.715 182.621 160.347 182.714 160.222 182.886C163.335 182.522 166.484 182.683 169.613 182.556C169.704 181.493 169.811 180.429 169.949 179.372C168.667 179.376 167.386 179.52 166.106 179.449C166.478 178.705 166.587 177.864 166.363 177.058C165.807 177.648 165.708 178.493 165.304 179.174C165.071 179.253 164.835 179.308 164.592 179.34C164.594 178.388 164.75 177.367 164.262 176.5C163.826 177.203 163.717 178.032 163.603 178.835ZM155.144 179.124C154.034 179.477 152.983 179.989 151.905 180.427C152.413 182.03 153.215 183.522 153.771 185.111C155.912 184.343 157.968 183.355 160.036 182.415C159.247 180.965 158.477 179.506 157.856 177.975C156.929 178.301 156.029 178.695 155.144 179.124ZM150.023 181.283C150.518 182.752 151.244 184.135 151.689 185.621C152.227 185.493 152.768 185.382 153.306 185.253C152.726 183.706 151.976 182.223 151.503 180.638C151.022 180.842 150.341 180.848 150.023 181.283ZM152.37 186.005C152.564 186.354 152.629 186.852 153.041 187.026C153.007 186.684 152.962 186.346 152.898 186.013C152.766 186.011 152.501 186.007 152.37 186.005ZM152.892 187.64C152.97 187.929 153.049 188.22 153.128 188.515C153.716 188.457 154.551 188.519 154.786 187.828C154.141 187.846 153.468 188.022 152.892 187.64Z" fill="#0F5A8B"/>
<path d="M131.814 140.669C131.656 139.778 131.411 138.617 132.277 138.003C132.081 139.394 131.947 141.379 133.51 142.03C133.835 141.85 134.252 141.749 134.444 141.401C134.698 141.003 134.664 140.51 134.712 140.061C134.055 139.982 133.376 140.047 132.742 139.847C132.422 139.232 132.547 138.142 133.411 138.134C133.952 138.209 134.494 138.298 135.042 138.359C135.353 138.886 135.541 139.475 135.588 140.091C135.495 140.158 135.311 140.295 135.22 140.362C135.04 140.999 135.026 141.793 134.446 142.222C133.892 142.527 133.182 142.44 132.636 142.161C132.103 141.866 131.953 141.213 131.814 140.669Z" fill="#0F5A8B"/>
<path d="M115.397 142.19C116.115 141.682 117.265 142.2 117.301 143.097C117.461 143.971 116.667 144.947 115.741 144.62C114.623 144.387 114.451 142.75 115.397 142.19Z" fill="#0F5A8B"/>
<path d="M187.837 164.89C187.083 164.862 187.186 163.263 188.001 163.348C187.97 163.837 188.276 164.533 187.837 164.89Z" fill="#0F5A8B"/>
<path d="M141.814 82.3676C141.99 82.2725 142.168 82.1836 142.35 82.0967C142.455 82.1593 142.661 82.2847 142.764 82.3473C144.001 82.3615 145.238 82.317 146.477 82.3231C146.809 82.2766 146.902 82.6647 147.003 82.9012C147.185 83.6229 147.106 84.3769 147.139 85.1148C147.104 86.4671 147.341 87.8054 147.316 89.1577C147.312 89.7197 147.363 90.4151 146.862 90.7972C143.698 90.8598 140.522 90.7325 137.363 90.9205C135.756 90.7345 134.128 90.9023 132.513 90.8174C132.519 90.6516 132.531 90.3181 132.537 90.1503C132.576 87.7831 132.667 85.4119 132.626 83.0448C132.592 82.8285 132.558 82.6142 132.521 82.3999C135.62 82.3999 138.715 82.3069 141.814 82.3676ZM134.981 83.069C134.919 85.4281 134.969 87.7892 134.959 90.1483C135.187 90.1381 135.418 90.126 135.652 90.1159C135.709 87.7811 135.705 85.4443 135.675 83.1094C135.442 83.0953 135.21 83.0832 134.981 83.069ZM136.388 83.0326C136.366 85.4018 136.34 87.773 136.4 90.1402C136.706 90.3363 137.059 90.12 136.987 89.75C137.015 87.5102 137.005 85.2704 136.999 83.0306C136.847 83.0306 136.542 83.0326 136.388 83.0326ZM137.698 83.0367C137.706 85.422 137.71 87.8074 137.684 90.1927C139.044 90.122 140.405 90.0815 141.771 90.1159C141.909 87.7528 141.733 85.3877 141.767 83.0225C140.411 83.0165 139.055 83.0427 137.698 83.0367ZM143.969 82.8992C144.013 85.3068 144.052 87.7164 144.072 90.126C144.151 90.1321 144.306 90.1422 144.385 90.1483C144.464 87.7771 144.456 85.4018 144.44 83.0286C144.323 82.9962 144.086 82.9316 143.969 82.8992Z" fill="#0F5A8B"/>
<path d="M60.1318 82.3393C61.4094 82.2302 62.7072 82.4384 63.9706 82.1816C65.3877 82.4202 66.8351 82.2787 68.2642 82.3009C77.9451 82.3737 87.6341 82.3939 97.315 82.5354C97.9315 82.5051 97.5131 83.2045 97.4605 83.5098C97.3777 85.7677 97.4605 88.0318 97.3999 90.2939C97.5475 90.2999 97.8426 90.31 97.9902 90.3141C97.9659 90.4738 97.9214 90.7891 97.8992 90.9488C93.2073 90.8619 88.5155 90.8518 83.8236 90.8012C83.4577 90.6395 83.1302 90.4071 82.825 90.1544C82.9968 87.7953 82.8048 85.4261 82.8634 83.063C81.4565 83.0387 80.0475 83.063 78.6425 83.0246C78.592 85.3776 78.6607 87.7347 78.59 90.0897C78.3555 90.0816 78.123 90.0836 77.8906 90.0897C77.8623 87.7427 77.9148 85.3958 77.8825 83.0489C76.4573 83.0125 75.0322 83.0266 73.607 83.0044C73.6475 85.3614 73.7768 87.7144 73.7445 90.0735C73.7849 90.0816 73.8678 90.0978 73.9082 90.1059C74.3368 90.8073 75.2808 90.5304 75.9641 90.7305C71.0236 90.7386 66.081 90.7244 61.1405 90.7042C60.6857 90.7123 60.0408 90.7143 59.9297 90.1443C59.7639 88.9475 59.9054 87.7225 59.9984 86.5218C60.0449 85.1269 59.9944 83.7301 60.1318 82.3393ZM64.3001 82.9599C64.3102 85.321 64.197 87.6821 64.2779 90.0432C65.5878 90.0735 66.8997 89.9765 68.2097 90.0614C68.1834 87.6962 68.2562 85.3331 68.2097 82.97C66.9058 83.0003 65.604 82.97 64.3001 82.9599ZM62.6688 82.9013C62.693 85.2866 62.7193 87.672 62.685 90.0573C62.968 90.0553 63.255 90.0533 63.54 90.0513C63.4935 87.6942 63.6027 85.3412 63.627 82.9862C63.3076 82.9579 62.9882 82.9296 62.6688 82.9013ZM70.7709 82.9518C70.8336 85.3372 70.8053 87.7246 70.8396 90.1099C71.066 90.0836 71.2904 90.0573 71.5188 90.0331C71.5633 87.6983 71.5411 85.3594 71.7089 83.0286C71.3955 83.0003 71.0822 82.9761 70.7709 82.9518ZM85.3438 83.1237C85.3094 85.4585 85.2872 87.7933 85.2912 90.1281C85.5116 90.1544 85.7319 90.1786 85.9543 90.2049C85.9664 87.9611 85.9462 85.7172 86.0331 83.4734C86.1584 82.9983 85.6066 83.156 85.3438 83.1237ZM88.6812 83.1257C88.7095 85.4827 88.6833 87.8398 88.5842 90.1948C89.9184 90.1827 91.2546 90.1827 92.5888 90.209C92.6575 87.858 92.5928 85.507 92.613 83.156C91.3031 83.1722 89.9912 83.1701 88.6812 83.1257ZM94.6446 83.1843C94.6871 85.5312 94.6305 87.8802 94.6608 90.2292C94.873 90.2453 95.0873 90.2635 95.3016 90.2817C95.3764 87.9166 95.3016 85.5474 95.3643 83.1803C95.1217 83.1782 94.8832 83.1803 94.6446 83.1843ZM93.3165 86.1175C93.3509 87.4557 93.268 88.8 93.363 90.1362C93.5085 90.1625 93.7996 90.213 93.9452 90.2393C93.9634 87.8741 93.9452 85.509 93.9553 83.1459C93.8158 83.154 93.5328 83.1681 93.3913 83.1762C93.2458 84.1485 93.3367 85.1391 93.3165 86.1175Z" fill="#0F5A8B"/>
<path d="M64.5911 111.756C64.2657 111.779 64.1565 111.037 64.5851 111.204C72.1616 111.17 79.7401 111.445 87.3187 111.491L87.3712 111.518C87.7594 111.71 88.1475 111.906 88.5437 112.088C88.4871 114.673 88.5821 117.257 88.5862 119.842C87.7614 120.578 86.6051 120.164 85.6146 120.23C83.3849 120.303 81.139 120.04 78.9214 120.331C78.1816 120.412 77.4458 120.249 76.7059 120.244C73.2855 120.164 69.8591 120.247 66.4469 120.006C66.4448 119.862 66.4388 119.575 66.4367 119.432C66.9927 119.393 67.5486 119.422 68.1065 119.432C68.1793 116.913 68.157 114.394 68.1813 111.876C66.9866 111.847 65.7757 111.942 64.5911 111.756ZM68.8039 111.914C68.7857 114.447 68.7655 116.982 68.7736 119.517C69.1658 119.507 69.5599 119.492 69.9521 119.456C70.0148 116.943 69.9804 114.431 70.0289 111.918C69.6186 111.914 69.2102 111.912 68.8039 111.914ZM70.7061 112.021C70.6798 114.445 70.6657 116.873 70.6758 119.296C70.5848 119.628 71.0316 119.495 71.2014 119.594C71.3631 117.042 71.256 114.475 71.4258 111.92C71.2459 111.946 70.886 111.997 70.7061 112.021ZM73.5261 111.967C73.6636 114.495 73.5968 117.03 73.5726 119.563C74.9108 119.606 76.249 119.594 77.5873 119.62C77.6277 117.097 77.567 114.572 77.6297 112.049C76.2612 112.031 74.8946 111.964 73.5261 111.967ZM84.8424 112.128C84.7332 113.222 84.7757 114.326 84.7352 115.423C84.6645 116.891 84.9596 118.346 84.81 119.814C85.1254 119.804 85.4427 119.798 85.7601 119.792C85.75 117.243 85.7662 114.691 85.7682 112.142C85.4589 112.138 85.1496 112.132 84.8424 112.128ZM78.2847 112.045C78.4242 113.04 78.2038 114.041 78.3574 115.039C78.2038 116.563 78.4161 118.094 78.3291 119.624C79.6977 119.644 81.0642 119.723 82.4328 119.727C82.2185 117.178 82.4247 114.621 82.457 112.072C81.0662 112.1 79.6755 112.037 78.2847 112.045Z" fill="#0F5A8B"/>
<path d="M10.1971 126.362C9.35814 123.936 10.6377 121.17 12.8007 119.915C12.6714 123.449 13.5406 127.19 15.9563 129.875C17.6563 131.87 20.2924 132.766 21.9298 134.83C22.8657 136.044 23.5874 137.431 24.0927 138.877C23.8198 139.232 23.6015 139.622 23.4075 140.027C23.9957 140.138 24.0766 139.598 24.2545 139.198C24.5435 139.53 24.6588 139.952 24.7012 140.383C24.3252 140.288 23.9472 140.193 23.5651 140.134C24.1312 141.254 23.8744 142.523 23.9169 143.728C24.0099 146.413 23.9795 149.101 23.9735 151.788C27.0522 151.79 30.1289 151.762 33.2056 151.753C33.3754 149.764 33.1874 147.763 33.3532 145.776C33.5108 145.826 33.8242 145.93 33.9818 145.98C34.2123 146.973 33.9677 147.985 34.0324 148.99C34.0708 149.904 34.1112 150.819 34.0364 151.733C34.938 151.723 35.8416 151.733 36.7452 151.693C36.9514 149.979 36.9999 148.236 37.3658 146.548C37.5457 145.845 38.421 146.113 38.9507 146.122C39.2357 147.262 38.8799 148.446 38.7627 149.59C38.8071 150.306 38.609 151.001 38.5039 151.707L38.4776 151.889C38.5403 152.036 38.609 152.182 38.6798 152.33C38.415 152.786 38.6616 153.33 38.4756 153.813C38.421 155.835 38.5403 157.86 38.421 159.882C38.132 165.219 37.6973 170.551 37.4042 175.886C37.5417 175.892 37.8166 175.906 37.9541 175.912C38.0006 175.666 38.0167 175.417 38.039 175.172C38.2431 175.13 38.4493 175.098 38.6535 175.047C38.6737 175.657 38.7101 176.272 38.6515 176.885C38.3523 177.079 38.1138 176.885 37.8995 176.678C37.7519 176.672 37.4568 176.658 37.3112 176.652C37.1556 178.938 37.0626 181.229 36.8746 183.513C33.5755 183.454 30.2744 183.442 26.9754 183.386C22.1238 183.238 17.2642 183.256 12.4126 183.074C11.9315 183.171 11.9274 182.32 12.4146 182.448C19.601 182.531 26.7874 182.704 33.9758 182.816C34.2002 180.695 34.3619 178.568 34.5721 176.448C29.5487 176.234 24.5274 175.973 19.4999 175.815C19.1219 175.775 18.6772 175.876 18.3861 175.571C18.7722 175.047 18.3174 174.416 18.4124 173.838C18.3153 173.499 18.5579 172.866 18.9804 173.157C19.1098 173.8 19.0977 174.461 19.128 175.114C24.2908 175.296 29.4497 175.548 34.6125 175.726C35.0148 171.6 35.2655 167.458 35.5849 163.326C35.7951 159.694 36.2783 156.085 36.6765 152.471C31.6288 152.483 26.5852 152.467 21.5376 152.509C21.5558 152.287 21.572 152.067 21.5841 151.846C22.142 151.846 22.6999 151.842 23.2599 151.824C23.3205 148.066 23.2558 144.308 23.2599 140.548C23.0678 140.552 22.8758 140.558 22.6838 140.569C22.5099 140.908 22.332 141.246 22.1521 141.585C22.0329 141.466 21.7963 141.224 21.6771 141.104C21.6771 141.363 21.6791 141.622 21.6932 141.885C21.4891 141.684 21.2869 141.486 21.0828 141.29C21.0039 141.468 20.9271 141.648 20.8483 141.83C20.7431 141.725 20.636 141.62 20.5309 141.519C20.3247 141.66 20.1205 141.81 19.9083 141.947C19.227 142.127 18.4346 142.052 17.7412 141.876C15.9987 141.751 14.6423 140.201 14.329 138.549C12.4409 138.167 10.6964 136.79 10.3082 134.838C9.73616 132.782 11.3837 131.005 11.3837 128.994C11.1977 128.836 10.9935 128.706 10.7954 128.569C11.2482 127.758 10.2981 127.146 10.1971 126.362ZM35.3302 182.965C35.3908 182.927 35.5121 182.848 35.5728 182.809C35.7607 181.392 35.6577 179.953 35.7446 178.528C35.5525 180 35.4737 181.485 35.3302 182.965Z" fill="#0F5A8B"/>
<path d="M68.1044 160.273C68.1449 159.78 68.4784 159.2 69.0303 159.214C69.4103 159.18 69.5498 159.596 69.7156 159.855C70.4514 159.667 71.7431 160.192 71.1771 161.118C71.9857 160.938 71.8806 161.923 71.6784 162.396C71.4844 163.069 70.7485 163.265 70.1381 163.336C70.51 163.758 70.8698 164.203 71.0841 164.731C71.7269 166.222 72.3678 167.757 72.5194 169.39C72.5558 169.906 72.1818 170.472 71.6441 170.528C71.0255 170.528 70.4878 170.18 69.946 169.932C69.9763 170.292 69.9966 170.666 70.1259 171.011C70.605 172.283 70.9608 173.601 71.1731 174.943C71.0619 174.975 70.8375 175.042 70.7243 175.074C70.7465 175.337 70.7728 175.602 70.8011 175.869C70.6131 175.946 70.4231 176.027 70.2351 176.109C70.1805 175.731 70.1199 175.362 70.0592 174.99C69.8935 174.977 69.5599 174.951 69.3921 174.937C69.2082 175.064 69.0384 175.206 68.8686 175.351C67.8073 175.313 66.7743 175.056 65.7373 174.862C65.3795 175.58 64.9368 176.249 64.5123 176.93C64.302 176.932 64.0878 176.928 63.8775 176.926C64.3425 176.138 64.8256 175.357 65.2056 174.525C65.0722 174.466 64.8054 174.351 64.672 174.292C64.4597 174.201 64.2454 174.118 64.0312 174.042C63.6875 173.849 63.077 173.849 62.98 173.415C63.2448 172.584 63.7421 171.852 64.2192 171.131C63.8068 170.963 63.2994 170.831 63.0912 170.395C62.9739 169.443 63.261 168.497 63.4813 167.579C63.732 166.73 63.918 165.764 64.6255 165.165C65.1187 164.733 65.808 164.842 66.4104 164.844C66.6773 163.641 67.6961 162.691 68.9595 162.699C68.7089 162.444 68.4218 162.22 68.2257 161.919C68.2985 161.575 68.4441 161.252 68.533 160.916C68.4056 160.69 68.2641 160.475 68.1044 160.273ZM70.3261 161.777C69.9561 162.08 69.7034 162.495 69.471 162.907C70.1178 163.037 70.6636 162.622 71.0053 162.115C70.8072 161.945 70.6192 161.704 70.3261 161.777ZM68.3288 163.869C67.8942 164.132 67.4353 164.458 67.2534 164.955C67.5162 165.248 67.9245 165.485 67.9266 165.931C68.0519 167.599 67.971 169.311 67.5263 170.932C68.246 170.953 68.9656 170.959 69.6852 170.9C69.4305 169.728 69.0889 168.559 69.0707 167.35C69.6509 167.635 69.5559 168.371 69.758 168.893C69.8146 169.21 70.136 169.378 70.4231 169.21C70.8456 168.951 70.9143 168.42 70.8294 167.975C70.6616 166.78 70.4655 165.551 69.8995 164.472C69.6367 163.902 68.909 163.542 68.3288 163.869ZM70.51 164.338C70.9648 165.701 71.4379 167.148 71.167 168.598C70.975 168.869 70.6717 169.05 70.5424 169.368C70.4797 169.849 71.2721 170.087 71.6744 169.962C72.1636 169.851 72.0261 169.226 71.9513 168.871C71.5915 167.328 71.2398 165.753 70.51 164.338ZM65.0399 170.643C65.3209 170.265 65.4644 169.825 65.337 169.358C65.0581 169.734 64.9206 170.172 65.0399 170.643Z" fill="#0F5A8B"/>
<path d="M147.436 161.296C148.068 160.368 149.605 160.097 150.353 161.031C150.761 161.634 150.967 162.351 151.355 162.972C151.246 163.117 151.139 163.263 151.032 163.413C150.933 163.825 150.822 164.601 150.221 164.241C150.025 164.597 149.684 164.813 149.304 164.937C149.047 164.162 150.136 163.843 149.831 163.059C149.647 163.202 149.544 163.392 149.524 163.627C149.425 164.108 149.016 164.437 148.82 164.878C148.07 165.02 147.294 165.169 146.536 165.001C146.775 163.758 146.613 162.355 147.436 161.296Z" fill="#0F5A8B"/>
<path d="M108.16 83.2929C108.116 82.8179 108.579 82.4682 109.029 82.5389C112.448 82.5228 115.866 82.4823 119.284 82.5066C119.697 82.6137 120.216 82.6461 120.439 83.0726C120.449 85.4398 120.429 87.811 120.497 90.1761C120.639 90.2064 120.922 90.2691 121.063 90.3014C121.156 87.9282 121.118 85.5469 121.027 83.1757C120.9 83.0221 120.774 82.8725 120.649 82.7269C121.589 82.8361 122.711 82.3732 123.477 83.1029C123.447 85.4721 123.364 87.8413 123.404 90.2105C123.35 90.4227 123.293 90.637 123.234 90.8513C118.431 90.8634 113.622 90.9079 108.821 91.0676C108.613 90.7199 108.253 90.4086 108.288 89.9679C108.191 87.7443 108.213 85.5186 108.16 83.2929ZM111.548 83.0746C111.469 83.3415 111.429 83.6164 111.431 83.8974C111.437 86.0321 111.332 88.1667 111.336 90.3014C111.401 90.3014 111.53 90.3014 111.597 90.3014C111.71 88.0919 111.718 85.8804 111.767 83.671C111.793 83.4345 111.72 83.2363 111.548 83.0746ZM113.75 83.1737C113.746 84.6979 113.717 86.2221 113.616 87.7443C113.533 88.5811 113.733 89.4241 113.549 90.2549C114.975 90.2004 116.402 90.2125 117.829 90.2145C117.813 87.8595 117.661 85.5044 117.724 83.1494C116.4 83.206 115.074 83.1717 113.75 83.1737ZM108.777 83.2262C108.829 85.5813 108.945 87.9343 108.918 90.2913C109.48 90.2549 110.046 90.2529 110.612 90.263C110.827 87.9282 110.78 85.5772 110.841 83.2363C110.151 83.2262 109.464 83.2141 108.777 83.2262Z" fill="#0F5A8B"/>
<path d="M119.284 82.5066C123.691 82.3812 128.11 82.4338 132.521 82.3994C132.557 82.6137 132.592 82.828 132.626 83.0443C131.153 83.0483 129.681 83.1534 128.209 83.109C128.197 85.466 128.246 87.8251 128.211 90.1842C129.653 90.1882 131.094 90.0548 132.537 90.1498C132.531 90.3176 132.519 90.6511 132.513 90.8169C129.42 90.8411 126.327 90.831 123.234 90.8512C123.293 90.637 123.35 90.4227 123.404 90.2104C124.769 90.1639 126.135 90.1801 127.502 90.1821C127.512 87.8291 127.514 85.4741 127.488 83.1211C126.149 83.1211 124.813 83.1757 123.477 83.1029C122.711 82.3731 121.589 82.8361 120.649 82.7269C120.774 82.8724 120.9 83.022 121.027 83.1757C120.879 83.1494 120.586 83.0989 120.439 83.0726C120.216 82.646 119.697 82.6137 119.284 82.5066Z" fill="#0F5A8B"/>
<path d="M77.8905 90.0893C78.123 90.0833 78.3555 90.0812 78.59 90.0893C80.001 90.154 81.416 90.0448 82.825 90.154C83.1302 90.4067 83.4577 90.6392 83.8236 90.8009C81.2058 90.7564 78.5799 90.8615 75.964 90.7301C75.2808 90.53 74.3368 90.8069 73.9082 90.1055C75.2343 90.057 76.5624 90.1116 77.8905 90.0893Z" fill="#0F5A8B"/>
<path d="M15.2386 108.247C16.1321 107.181 17.6442 106.906 18.9582 106.757C18.8248 107.064 18.6853 107.371 18.5478 107.679L18.5195 107.646C18.4528 107.567 18.3174 107.41 18.2507 107.331C18.1981 107.398 18.095 107.529 18.0424 107.596C17.0337 107.286 16.1665 107.98 15.2386 108.247Z" fill="#0F5A8B"/>
<path d="M18.0425 107.596C18.095 107.529 18.1981 107.398 18.2507 107.331C18.3174 107.41 18.4528 107.568 18.5195 107.646C17.7938 109.003 16.8599 110.228 15.9704 111.477C15.3397 112.361 14.8425 113.327 14.2684 114.247C13.9085 113.468 13.951 112.593 13.7893 111.768C13.7023 110.458 14.2785 109.13 15.2387 108.247C16.1665 107.98 17.0337 107.287 18.0425 107.596Z" fill="#0F5A8B"/>
<path d="M87.3713 111.518C90.4217 111.538 93.4742 111.596 96.5246 111.643C96.8844 111.643 97.5374 111.651 97.4868 112.177C97.406 114.54 97.3494 116.905 97.3554 119.268C97.2968 119.84 97.8628 120.184 98.0245 120.691C98.0205 120.942 97.7476 121 97.5818 121.126C97.6364 120.909 97.695 120.693 97.7577 120.481C97.6566 120.392 97.4504 120.216 97.3494 120.129C97.0724 120.39 96.7631 120.693 96.3467 120.647C90.539 120.495 84.7313 120.378 78.9215 120.331C81.1391 120.04 83.3849 120.303 85.6146 120.23C86.6052 120.163 87.7615 120.578 88.5862 119.842C89.9083 119.785 91.2324 119.842 92.5564 119.862C92.5342 117.335 92.5483 114.809 92.5524 112.282C91.2162 112.195 89.8678 112.314 88.5438 112.088C88.1476 111.906 87.7594 111.71 87.3713 111.518ZM93.2437 113.404C93.266 115.552 93.2053 117.699 93.27 119.848C93.555 119.87 93.8401 119.893 94.1271 119.915C94.1736 117.386 94.1372 114.855 94.1574 112.326C93.9593 112.316 93.5672 112.292 93.3711 112.282C93.2882 112.648 93.2336 113.024 93.2437 113.404ZM94.8286 112.312C94.7942 114.821 94.8549 117.329 94.8367 119.838L95.1257 119.81C95.1581 117.35 95.1823 114.887 95.1924 112.427L94.8286 112.312ZM95.9363 112.33C95.8413 114.843 95.7969 117.362 95.8434 119.876C96.1021 119.862 96.3609 119.846 96.6216 119.832C96.66 117.301 96.6115 114.766 96.7672 112.237C96.4882 112.266 96.2133 112.296 95.9363 112.33Z" fill="#0F5A8B"/>
<path d="M127.184 156.481C127.195 155.99 127.401 155.402 128.001 155.509C127.961 156.065 127.918 156.631 127.738 157.162C127.302 157.464 127.071 156.805 127.184 156.481Z" fill="#0F5A8B"/>
<path d="M108.195 112.815C108.132 112.381 108.336 111.988 108.67 111.726C108.728 111.928 108.783 112.136 108.833 112.344C108.993 114.835 108.835 117.333 108.88 119.828C108.932 119.862 109.042 119.931 109.096 119.963C109.017 119.947 108.858 119.911 108.779 119.892C108.706 119.874 108.558 119.838 108.486 119.82C108.449 119.923 108.379 120.129 108.342 120.232L108.257 120.466C108.126 117.921 108.284 115.364 108.195 112.815Z" fill="#0F5A8B"/>
<path d="M138.214 115.676C139.489 115.655 140.767 115.635 142.042 115.671C142.267 115.779 142.277 115.965 142.077 116.229C140.789 116.272 139.499 116.254 138.214 116.235C138.212 116.047 138.214 115.861 138.214 115.676Z" fill="#0F5A8B"/>
<path d="M61.379 131.9C61.7874 131.459 62.416 131.494 62.9679 131.476C78.1937 131.478 93.4196 131.526 108.647 131.569C115.051 131.666 121.46 131.66 127.864 131.728C127.839 131.939 127.817 132.151 127.797 132.367C126.164 132.407 124.528 132.377 122.895 132.351C122.871 133.321 122.86 134.294 122.885 135.266C122.887 135.47 122.887 135.674 122.887 135.882C122.891 139.117 122.881 142.353 122.897 145.588C122.666 145.513 122.44 145.442 122.214 145.371C122.191 142.224 122.246 139.074 122.179 135.927C119.885 135.905 117.586 135.826 115.294 135.925C116.272 136.273 117.305 136.422 118.332 136.545C118.357 137.037 118.371 137.53 118.379 138.025C119.177 138.144 119.99 138.272 120.72 138.642C120.526 142.529 120.396 146.418 120.253 150.308C120.125 150.308 119.873 150.31 119.745 150.312C119.762 146.56 120.016 142.81 120.117 139.062C119.673 138.577 118.908 138.721 118.316 138.605C118.32 140.061 118.316 141.516 118.3 142.972C118.177 142.549 117.973 142.159 117.732 141.795C117.71 140.208 117.78 138.624 117.772 137.039C116.24 136.824 114.772 136.323 113.266 135.99C113.194 140.76 113.141 145.531 113.119 150.304C112.897 150.3 112.676 150.298 112.458 150.3C112.573 145.555 112.541 140.809 112.652 136.064C111.718 136.01 110.78 136.016 109.844 136.004C109.802 140.766 109.909 145.529 109.878 150.294L109.66 150.288C109.604 150.035 109.555 149.78 109.583 149.523C109.721 147.991 109.715 146.443 109.575 144.912C109.496 145.571 109.403 146.23 109.222 146.871C109.149 143.249 109.179 139.624 109.203 136.002C105.472 136.016 101.742 135.836 98.0103 135.913C97.7678 135.917 97.5292 135.933 97.2887 135.945C96.4134 135.965 95.536 135.961 94.6607 135.99C94.7032 140.774 94.6506 145.559 94.6789 150.344C95.0671 150.318 95.4552 150.294 95.8453 150.269C95.8312 149.309 96.0495 148.345 96.6458 147.577C96.5892 147.075 96.5488 146.574 96.5306 146.073C97.8527 146.115 99.1747 146.133 100.497 146.105C100.517 144.846 100.768 143.57 100.481 142.327C100.335 141.672 99.7751 141.132 99.1323 140.975C98.5582 140.952 97.9922 141.059 97.4201 141.057C97.9436 140.704 98.5824 140.639 99.1929 140.57C99.9287 141.013 100.859 141.532 100.933 142.491C101.103 143.924 100.828 145.359 100.782 146.792C100.751 147.413 100.08 147.633 99.6356 147.91C100.202 148.612 100.549 149.453 101.039 150.205C101.825 150.348 102.642 150.197 103.44 150.273C103.446 150.043 103.458 149.814 103.474 149.588C103.8 149.588 104.127 149.59 104.457 149.594C104.422 149.764 104.35 150.108 104.315 150.277C104.75 150.271 105.185 150.259 105.619 150.241C105.668 150.407 105.763 150.74 105.811 150.906C105.267 150.904 104.726 150.906 104.184 150.91C103.907 151.318 103.448 151.428 103.254 150.888C102.492 150.906 101.651 150.664 100.97 151.114C100.513 150.655 99.9186 150.904 99.4072 151.098C98.7057 150.704 97.887 150.92 97.127 150.884C96.1809 150.932 95.2086 150.767 94.2868 151.05C93.9472 150.928 93.5974 150.835 93.2437 150.775C93.2255 150.932 93.1871 151.244 93.1669 151.401L93.4661 151.486C93.0355 151.753 92.5584 151.963 92.047 151.84C92.3886 151.703 92.7302 151.565 93.0759 151.432C92.8738 151.221 92.6676 151.015 92.4371 150.841C92.9728 150.704 93.5206 150.599 94.0442 150.409L94.0563 150.182C94.028 145.46 94.0887 140.738 94.0543 136.016C93.4236 136.014 92.7929 136.036 92.1642 135.977C92.0065 135.933 91.6932 135.844 91.5355 135.8C90.2681 135.775 89.041 136.182 87.7917 136.353C87.3612 135.953 86.7487 136.016 86.2069 136.004C84.8828 136.004 83.5567 136.01 82.2327 136.034C82.2367 139.747 82.2509 143.459 82.2023 147.172C82.2266 148.084 82.1599 149.002 82.2832 149.91C82.2872 149.954 82.2953 150.045 82.2994 150.089C82.2266 150.089 82.0831 150.087 82.0103 150.087C81.8708 150.154 81.7334 150.227 81.5939 150.29C81.5373 148.304 81.5049 146.317 81.5838 144.332C81.606 141.559 81.5999 138.785 81.5757 136.012C80.5427 136.002 79.5097 136.01 78.4788 136.022C78.4869 140.778 78.3575 145.531 78.3676 150.288C78.315 150.281 78.2079 150.273 78.1533 150.267C77.9815 150.116 77.8157 149.956 77.652 149.8C77.6439 143.924 77.6702 138.047 77.6884 132.171C76.4633 132.171 75.2363 132.143 74.0113 132.165C74.0012 132.219 73.9789 132.329 73.9688 132.383C73.3543 132.038 72.6609 131.993 71.9858 132.159C68.8969 132.145 65.8081 132.205 62.7213 132.12C62.6627 138.084 62.4646 144.045 62.4464 150.009C62.222 150.077 61.9976 150.144 61.7712 150.211C61.8642 146.77 61.8056 143.321 61.9936 139.887C62.0057 137.257 62.0562 134.629 62.0643 132.001C61.8925 131.977 61.5509 131.924 61.379 131.9ZM78.4484 132.165C78.4788 132.511 78.5192 132.856 78.5637 133.206C78.4303 133.905 78.503 134.623 78.4889 135.333C79.5259 135.365 80.5649 135.361 81.604 135.322C81.5878 134.273 81.5878 133.222 81.6424 132.173C80.5771 132.171 79.5117 132.189 78.4484 132.165ZM82.261 132.171C82.2529 133.23 82.2852 134.292 82.2327 135.353C84.4381 135.411 86.6476 135.274 88.853 135.409C89.8941 135.458 90.8846 135.076 91.9014 134.916C91.9722 135.035 92.1157 135.274 92.1864 135.393C92.803 135.379 93.4196 135.371 94.0361 135.355C94.0664 134.32 94.0523 133.283 94.0482 132.25C90.1185 132.207 86.1867 132.325 82.261 132.171ZM94.681 132.236C94.6628 133.279 94.6547 134.32 94.6607 135.363C99.5123 135.298 104.364 135.324 109.213 135.286C109.238 134.281 109.224 133.279 109.23 132.276C104.38 132.274 99.5305 132.256 94.681 132.236ZM109.887 132.274C109.887 133.273 109.878 134.271 109.905 135.272C110.901 135.266 111.91 135.373 112.899 135.183C115.998 135.379 119.113 135.159 122.22 135.209C122.232 134.265 122.214 133.321 122.236 132.377C118.118 132.321 114.002 132.339 109.887 132.274ZM96.9713 147.844C96.4012 148.464 96.4376 149.356 96.6721 150.112C96.9915 150.11 97.3129 150.069 97.5636 149.853C97.7577 149.899 97.9537 149.948 98.1478 150.002C98.5198 150.219 98.829 150.061 98.9989 149.681C99.0777 149.788 99.2354 150.005 99.3142 150.112C99.6619 150.158 100.01 150.203 100.361 150.241C100.044 149.724 99.7711 149.18 99.5002 148.638C99.3081 148.315 99.0797 147.91 98.6512 147.916C98.0952 147.874 97.5191 147.674 96.9713 147.844Z" fill="#0F5A8B"/>
<path d="M127.864 131.728C132.847 131.754 137.826 131.867 142.809 131.845C146.037 131.891 149.269 131.819 152.495 131.952C152.502 132.12 152.516 132.459 152.522 132.627C150.668 132.599 148.812 132.57 146.959 132.558C146.902 138.485 147.005 144.414 146.985 150.343C146.769 150.295 146.556 150.246 146.346 150.196C146.37 144.311 146.374 138.427 146.332 132.542C142.542 132.562 138.753 132.508 134.965 132.48C135.032 134.438 134.894 136.403 135.042 138.358C134.494 138.297 133.952 138.208 133.411 138.134C133.736 138.101 134.064 138.077 134.391 138.061C134.403 136.203 134.405 134.345 134.438 132.488C133.012 132.473 131.589 132.482 130.168 132.451C130.136 137.663 130.021 142.872 130 148.083C129.82 148.926 129.843 149.789 129.867 150.647C129.345 150.63 128.832 150.55 128.341 150.376C128.707 150.376 129.075 150.38 129.44 150.386C129.556 144.4 129.574 138.413 129.57 132.425C129.141 132.401 128.713 132.382 128.286 132.366C128.3 134.184 128.302 136.003 128.238 137.82C128.163 137.895 128.009 138.043 127.932 138.117C127.862 137.384 127.85 136.646 127.811 135.912L127.674 135.9C126.077 135.849 124.482 135.912 122.887 135.882C122.887 135.673 122.887 135.469 122.885 135.265C124.488 135.263 126.089 135.241 127.69 135.261C127.686 134.295 127.686 133.327 127.797 132.366C127.817 132.15 127.839 131.938 127.864 131.728Z" fill="#0F5A8B"/>
<path d="M71.9857 132.158C72.6609 131.993 73.3543 132.037 73.9688 132.383C73.8596 136.98 73.8677 141.581 73.8212 146.18C73.6575 146.115 73.33 145.983 73.1663 145.919C73.2047 141.342 73.2835 136.767 73.3442 132.193C72.8913 132.185 72.4385 132.171 71.9857 132.158Z" fill="#0F5A8B"/>
<path d="M99.8499 138.628C100.151 138.282 100.436 138.771 100.377 139.074C100.153 138.981 99.9772 138.832 99.8499 138.628Z" fill="#0F5A8B"/>
<path d="M67.6376 132.442C67.7771 132.442 68.058 132.44 68.1975 132.438C68.2016 135.927 68.1247 139.42 68.0621 142.907C68.2521 143.349 67.3303 143.333 67.4779 142.907C67.5163 139.418 67.5163 135.927 67.6376 132.442Z" fill="#0F5A8B"/>
<path d="M140.882 132.685C140.995 132.695 141.218 132.713 141.329 132.721C141.426 136.194 141.355 139.669 141.416 143.142C141.563 143.564 140.658 143.611 140.833 143.117C140.846 139.64 140.763 136.16 140.882 132.685Z" fill="#0F5A8B"/>
<path d="M196.703 133.736C196.861 133.36 197.433 133.651 197.251 134.031C196.909 134.914 196.481 135.798 195.872 136.531C195.282 137.14 194.7 136.21 194.304 135.836C193.673 136.473 193.529 137.403 192.99 138.1C192.893 137.993 192.701 137.777 192.604 137.669C192.949 136.806 193.281 135.731 194.14 135.254C194.815 134.922 194.977 135.971 195.5 135.998C196.032 135.32 196.331 134.504 196.703 133.736Z" fill="#0F5A8B"/>
<path d="M55.5713 135.395C55.7168 135.342 56.0079 135.237 56.1535 135.185C56.2445 136.549 56.1434 137.918 56.1515 139.286C56.0767 141.908 56.1656 144.53 56.0726 147.152C56.0443 148.175 56.109 149.198 56.1191 150.222C58.0011 150.194 59.8993 150.348 61.7712 150.21C61.9976 150.144 62.222 150.077 62.4464 150.008C62.4464 150.085 62.4443 150.237 62.4443 150.313C66.0042 150.352 69.566 150.366 73.1259 150.36C73.1238 148.878 73.1542 147.398 73.1663 145.919C73.33 145.983 73.6575 146.115 73.8213 146.179C73.799 147.582 73.7788 148.987 73.7889 150.39C75.0746 150.364 76.3623 150.4 77.6439 150.267C77.6459 150.15 77.65 149.915 77.652 149.8C77.8157 149.956 77.9815 150.115 78.1533 150.267C78.2079 150.273 78.315 150.281 78.3676 150.287C79.443 150.301 80.5184 150.293 81.5939 150.289C81.7333 150.226 81.8708 150.154 82.0103 150.087C82.0831 150.087 82.2266 150.089 82.2994 150.089C82.2953 150.044 82.2872 149.954 82.2832 149.909C82.5116 149.28 82.7865 148.646 82.8755 147.987C82.6046 147.789 82.4328 147.499 82.4833 147.16C82.5096 146.24 82.4975 145.322 82.5298 144.407C82.5844 144.376 82.6976 144.318 82.7542 144.287C82.9907 144.572 82.7825 145.197 82.8169 145.611C83.3889 145.717 83.959 145.852 84.5109 146.046C84.5634 146.244 84.618 146.442 84.6746 146.642C84.7534 146.327 84.8323 146.014 84.9131 145.7C85.1476 145.668 85.3862 145.638 85.6227 145.609C86.3767 144.677 86.2918 143.418 86.219 142.298C86.1786 141.585 85.4872 141.049 84.7979 141.087C83.8438 141.348 83.2737 142.278 83.108 143.206C82.9867 143.434 83.0979 143.871 82.7805 143.94C82.4773 142.68 83.3566 141.358 84.428 140.703C84.0722 140.089 84.143 139.26 84.6989 138.787C85.3094 138.427 86.0836 139.007 85.9967 139.686C86.0411 140.21 85.5843 140.517 85.2204 140.794C85.5964 141.027 85.9967 141.259 86.2554 141.635C86.781 142.28 86.5505 143.171 86.589 143.936C86.6496 144.722 86.1786 145.387 85.7157 145.973C85.7723 147.398 85.9805 148.811 86.1968 150.218C86.3383 150.216 86.6213 150.214 86.7628 150.214C86.7972 145.545 86.8235 140.877 86.8457 136.211C87.0135 136.209 87.3531 136.203 87.5229 136.201C87.2075 137.746 87.442 139.337 87.3814 140.901C87.2803 144.037 87.3834 147.174 87.3147 150.309C87.725 150.368 88.1334 150.433 88.5457 150.499C88.9197 149.23 89.0066 147.904 89.0895 146.592C89.4655 146.76 90.1407 146.772 90.0881 147.348C90.0821 148.308 89.9123 149.262 89.89 150.226C90.1569 150.277 90.4257 150.332 90.6946 150.386C90.4459 150.817 90.0255 150.922 89.5605 150.879C89.5545 151.037 89.5423 151.348 89.5363 151.506C89.3685 151.486 89.0329 151.445 88.8651 151.427C88.8045 151.162 88.754 150.9 88.7135 150.635C88.285 150.687 87.7675 150.756 87.8079 151.348C87.6058 151.156 87.3975 150.97 87.1914 150.79C86.9751 150.938 86.7628 151.09 86.5505 151.241C86.9387 151.31 87.3308 151.401 87.6765 151.605C87.2095 151.633 86.7486 151.637 86.2857 151.611C86.2413 151.356 86.1988 151.106 86.1584 150.857C84.992 150.847 83.8236 150.78 82.6592 150.865C82.5743 151.1 82.4934 151.338 82.4126 151.577C82.0891 151.555 81.7657 151.532 81.4443 151.504C81.4362 151.358 81.418 151.065 81.4099 150.92C80.3971 150.914 79.3844 150.908 78.3757 150.976C78.3736 151.573 78.3635 152.169 78.3494 152.769C78.4686 152.769 78.7072 152.774 78.8265 152.774C78.6283 152.964 78.4404 153.162 78.2645 153.372C78.2503 153.428 78.2261 153.546 78.2119 153.602L78.1472 153.948C77.8501 153.809 77.6782 153.396 77.3204 153.414C70.2453 153.406 63.168 153.37 56.0928 153.366C55.0599 153.342 54.0228 153.428 52.9939 153.311C53.4629 152.329 52.8908 151.247 53.1698 150.22C53.3234 147.352 53.281 144.473 53.3133 141.601C51.2736 141.577 49.2339 141.579 47.1963 141.613C47.5339 141.277 47.8512 140.76 48.393 140.786C49.9779 140.721 51.5647 140.756 53.1496 140.736C53.2567 139.122 53.3254 137.507 53.3537 135.89C53.5134 135.852 53.8348 135.773 53.9945 135.734C53.9622 137.386 53.9299 139.046 53.7277 140.687C53.8268 140.78 54.0269 140.962 54.128 141.055C54.1158 144.103 54.0006 147.152 54.0572 150.2C54.51 150.214 54.9628 150.214 55.4156 150.204C55.3853 145.268 55.4359 140.329 55.5713 135.395ZM84.7171 140.139C84.7757 140.216 84.897 140.368 84.9576 140.444C85.275 140.174 85.6328 139.765 85.3134 139.347C84.8363 139.217 84.8505 139.854 84.7171 140.139ZM83.3283 150.176C83.7953 150.194 84.2622 150.206 84.7312 150.212C84.5553 149.272 84.3795 148.326 84.4199 147.366C83.957 148.26 83.6922 149.238 83.3283 150.176ZM53.9319 151.732C53.9016 152.056 53.8733 152.379 53.8429 152.707C61.7773 152.749 69.7136 152.782 77.6459 152.78C77.65 152.553 77.654 152.329 77.658 152.106C69.75 151.975 61.8379 152.007 53.9319 151.732Z" fill="#0F5A8B"/>
<path d="M91.5356 135.799C91.6933 135.843 92.0066 135.932 92.1643 135.977C92.2007 137.79 92.134 139.607 92.2027 141.419C92.5807 142.761 92.795 144.158 92.704 145.557C92.6899 145.846 92.3826 145.983 92.227 146.193C92.1683 147.552 92.227 148.914 92.2391 150.275C92.8415 150.208 93.4479 150.151 94.0564 150.182L94.0443 150.408C93.5207 150.598 92.9729 150.703 92.4372 150.841C92.3381 150.986 92.138 151.273 92.039 151.417C91.8914 151.156 91.7277 150.907 91.6144 150.632C91.6973 149.213 91.5963 147.796 91.5983 146.377C90.8422 146.389 90.0397 146.606 89.3201 146.282C88.8774 146.078 88.754 145.573 88.6449 145.146C88.4872 144.416 88.3113 143.67 88.3781 142.921C88.4933 142.08 89.31 141.615 89.6637 140.893C89.7466 140.497 89.7102 140.08 89.8477 139.698C90.068 139.367 90.5613 139.274 90.9191 139.425C91.2789 139.779 91.1738 140.335 91.2304 140.794C91.0788 140.863 90.7755 140.998 90.6239 141.065C90.9554 141.208 91.293 141.344 91.6306 141.481C91.5983 139.587 91.5781 137.693 91.5356 135.799Z" fill="#0F5A8B"/>
<path d="M33.3532 155.306C34.1618 155.284 34.277 156.456 33.6564 156.82C33.3775 156.361 33.0783 155.84 33.3532 155.306Z" fill="#0F5A8B"/>
<path d="M192.218 163.265C192.818 163.287 192.519 164.847 191.896 164.566C191.694 164.142 191.739 163.441 192.218 163.265Z" fill="#0F5A8B"/>
<path d="M98.259 138.374C98.54 138.215 98.9887 138.286 99.0049 138.678C98.8998 138.7 98.6916 138.742 98.5885 138.765C99.1767 138.67 99.765 139.015 99.8276 139.654C99.5264 140.022 98.8937 139.686 98.4813 139.848C98.8998 139.988 99.387 139.978 99.7266 140.299C99.203 140.641 98.6148 140.374 98.0588 140.323C98.0588 139.676 97.8365 138.94 98.259 138.374Z" fill="#0F5A8B"/>
<path d="M105.083 138.621C105.324 138.627 105.569 138.629 105.809 138.666C105.882 138.979 105.91 139.3 105.979 139.618C105.795 139.513 105.611 139.416 105.429 139.319C105.31 139.424 105.193 139.533 105.077 139.644C105.118 139.304 105.094 138.961 105.083 138.621Z" fill="#0F5A8B"/>
<path d="M20.8483 141.83C20.9271 141.648 21.0039 141.468 21.0828 141.29C21.2869 141.486 21.4891 141.684 21.6932 141.884C21.9277 145.202 21.7822 148.533 21.5841 151.846C21.572 152.067 21.5558 152.287 21.5376 152.509C21.3354 155.107 21.3658 157.717 21.3961 160.32C21.388 160.636 21.4385 161.008 21.1454 161.224C20.8321 161.424 20.45 161.258 20.1064 161.272C18.8915 161.24 17.6745 161.246 16.4596 161.252C16.2413 161.276 15.9765 161.157 15.934 160.927C15.7723 160.395 15.7016 159.819 15.37 159.358C14.9152 159.279 14.9839 159.997 14.8586 160.29C14.7171 160.666 14.8404 161.396 14.2744 161.41C13.864 161.095 13.5022 160.702 13.0292 160.48C12.4854 160.294 12.2327 160.939 11.8547 161.192C11.4059 161.208 11.5899 160.617 11.7051 160.383C11.9093 159.96 12.354 159.641 12.8391 159.708C13.3728 159.704 13.7387 160.148 14.1309 160.444C14.2461 159.819 14.2946 159.075 14.8404 158.659C15.1254 158.426 15.5358 158.556 15.7764 158.79C16.2939 159.247 16.4192 159.962 16.6234 160.589C17.4987 160.526 18.376 160.524 19.2513 160.551C19.2068 159.789 19.1482 159.027 19.2331 158.266C19.4251 156.348 19.4514 154.418 19.599 152.497C17.7453 152.499 15.8896 152.445 14.0359 152.469C11.9558 152.689 9.85948 152.534 7.77331 152.608C7.35688 152.58 6.75448 152.56 6.84343 151.98C6.92631 151.957 7.09207 151.917 7.17495 151.895C11.3149 151.854 15.461 151.899 19.599 151.802C19.9245 148.517 19.7425 145.192 20.2701 141.923L19.9083 141.947C20.1205 141.81 20.3247 141.66 20.5309 141.518C20.636 141.62 20.7432 141.725 20.8483 141.83Z" fill="#0F5A8B"/>
<path d="M135.268 141.637C135.505 141.457 135.772 141.728 135.968 141.851C136.811 142.537 136.724 143.748 136.653 144.722C137.478 144.932 137.838 146.026 137.308 146.685C136.879 147.233 136.091 147.18 135.517 146.913C135.196 147.311 134.898 147.879 134.326 147.924C133.845 147.94 133.54 147.518 133.235 147.218C132.329 148.314 130.502 147.457 130.427 146.145C130.283 145.619 130.663 145.163 131.175 145.092C130.841 144.459 130.69 143.711 130.981 143.032C131.037 142.715 131.383 142.704 131.628 142.615C131.816 143.347 131.775 144.184 132.256 144.809C132.4 145.015 132.535 145.231 132.661 145.454C132.165 145.413 131.652 145.177 131.181 145.45C130.847 146.145 131.345 146.994 132.107 147.073C132.756 147.133 132.972 146.319 133.534 146.179C133.706 146.636 133.857 147.127 134.334 147.364C134.844 146.984 134.979 145.989 135.77 146.139C135.84 146.244 135.978 146.452 136.049 146.555C136.629 146.693 137.221 146.111 136.964 145.534C136.554 145.183 136.016 144.981 135.747 144.479C135.671 144.457 135.515 144.413 135.436 144.39C134.601 144.882 133.69 145.5 132.685 145.421L132.509 145.114C133.447 144.948 134.264 144.445 135.117 144.055C135.133 143.25 134.963 142.401 135.268 141.637Z" fill="#0F5A8B"/>
<path d="M15.17 173.207C15.4671 172.667 15.9401 171.826 16.68 172.19C17.6544 173.09 17.5876 174.571 17.6806 175.79C17.5391 175.79 17.2602 175.792 17.1187 175.792C16.7083 174.939 17.0075 173.935 16.589 173.082C16.4657 172.853 16.0311 172.736 15.9442 173.047C15.5136 173.866 15.8229 174.822 15.7056 175.703C15.5581 175.691 15.2629 175.669 15.1154 175.657C15.0143 174.784 14.891 173.862 14.4483 173.096C14.2704 172.661 13.8641 173.154 13.8802 173.401C13.7165 174.135 13.9187 174.875 13.9753 175.608C13.9005 175.635 13.7509 175.685 13.6761 175.712C11.3797 175.346 9.03475 175.505 6.72217 175.283C6.72823 175.131 6.74238 174.828 6.74845 174.677C8.90941 174.672 11.0684 174.78 13.2233 174.911C13.2415 174.06 12.9948 172.885 13.8459 172.354C14.4705 172.158 14.8809 172.758 15.17 173.207Z" fill="#0F5A8B"/>
<path d="M46.0542 142.959C46.0825 142.561 46.4868 142.377 46.7536 142.146C46.8244 145.326 46.6748 148.506 46.8183 151.686C48.8378 151.595 50.8734 151.775 52.8807 151.502C52.9293 151.712 53.0303 152.133 53.0809 152.343C52.626 152.549 52.1227 152.563 51.6335 152.539C49.4826 152.393 47.3277 152.539 45.1748 152.47C43.0402 152.484 40.9034 152.446 38.7708 152.507L38.6798 152.329C38.6091 152.181 38.5403 152.036 38.4777 151.888L38.5039 151.706C40.9944 151.765 43.4869 151.682 45.9774 151.714C46.0966 148.797 45.9531 145.874 46.0542 142.959Z" fill="#0F5A8B"/>
<path d="M172.007 191.137C172.405 190.745 173.151 190.82 173.432 191.315C173.767 191.887 173.871 192.554 174.004 193.195C174.287 192.597 174.495 191.914 175.011 191.467C175.296 191.196 175.718 191.412 175.896 191.699C176.408 192.443 176.517 193.397 176.454 194.279C176.329 194.341 176.078 194.469 175.953 194.531C175.785 193.703 175.829 192.809 175.366 192.069C174.845 192.686 174.728 193.527 174.247 194.163C174.053 194.36 173.747 194.174 173.65 193.973C173.262 193.175 173.329 192.209 172.783 191.477C172.106 191.681 171.938 192.437 172.021 193.058C172.033 193.523 172.318 193.996 172.084 194.444C171.665 194.483 171.514 194.04 171.437 193.717C171.253 192.839 171.297 191.776 172.007 191.137Z" fill="#0F5A8B"/>
<path d="M90.7612 146.728C90.8947 146.764 91.1635 146.833 91.2969 146.867C91.5294 148.09 91.5739 149.355 91.5031 150.599C91.5415 151.029 91.115 151.183 90.7956 151.318C90.7147 150.868 90.7511 150.419 90.9108 149.992C91.0705 148.903 90.7511 147.819 90.7612 146.728Z" fill="#0F5A8B"/>
<path d="M97.6484 147.961C98.1801 147.932 97.9173 148.739 98.0325 149.075C97.8385 149.093 97.6464 149.111 97.4564 149.131C97.4584 148.731 97.3897 148.302 97.6484 147.961Z" fill="#0F5A8B"/>
<path d="M187.283 151.782C190.962 151.749 194.639 151.782 198.316 151.767C198.235 151.992 198.157 152.218 198.08 152.449C194.611 152.43 191.14 152.441 187.671 152.449C187.536 152.226 187.404 152.006 187.283 151.782Z" fill="#0F5A8B"/>
<path d="M78.8264 152.774C82.1902 152.798 85.556 152.725 88.9177 152.83C88.7398 153.045 88.5619 153.263 88.384 153.481C85.2972 153.429 82.2104 153.475 79.1216 153.417C78.8143 153.439 78.4424 153.336 78.2119 153.603C78.2261 153.546 78.2503 153.429 78.2645 153.372C78.4403 153.162 78.6283 152.964 78.8264 152.774Z" fill="#0F5A8B"/>
<path d="M185.927 154.922C186.214 154.91 186.181 155.415 186.016 155.561C185.727 155.565 185.755 155.064 185.927 154.922Z" fill="#0F5A8B"/>
<path d="M31.641 156.73C31.0649 156.399 31.2953 155.107 32.0696 155.133C31.9867 155.635 32.2272 156.542 31.641 156.73Z" fill="#0F5A8B"/>
<path d="M158.471 155.327C158.855 155.293 158.815 155.792 158.813 156.051C158.827 156.398 158.722 157.088 158.216 156.797C157.927 156.34 157.958 155.598 158.471 155.327Z" fill="#0F5A8B"/>
<path d="M129.289 157.116C129.042 156.585 129.008 155.527 129.845 155.642C129.911 156.14 129.952 156.643 129.95 157.149C129.784 157.14 129.453 157.124 129.289 157.116Z" fill="#0F5A8B"/>
<path d="M153.63 155.577C154.082 155.367 153.983 156.038 153.971 156.289C153.985 156.699 153.856 157.457 153.294 157.101C153.209 156.618 153.12 155.838 153.63 155.577Z" fill="#0F5A8B"/>
<path d="M44.8777 165.23C45.1304 164.67 45.8884 164.334 46.4262 164.702C46.8871 165.139 47.0084 165.796 47.257 166.36C47.5279 165.57 47.9301 164.624 48.8358 164.423C49.4907 164.26 49.7697 165.046 49.8324 165.553C49.8849 166.404 49.9456 167.312 49.6464 168.123C49.5312 168.123 49.2987 168.123 49.1814 168.123C49.1471 167.258 49.2502 166.39 49.1673 165.529C49.1996 165.301 48.856 164.896 48.6599 165.212C47.8452 165.873 47.7927 167.011 47.3803 167.906C47.2772 167.933 47.069 167.985 46.9639 168.012C46.7092 167.076 46.6788 166.045 46.129 165.216C45.8642 164.991 45.6054 165.155 45.4599 165.416C45.094 166.186 45.2982 167.072 45.0637 167.874C44.9343 167.862 44.6715 167.836 44.5421 167.824C44.4815 166.954 44.4956 166.028 44.8777 165.23Z" fill="#0F5A8B"/>
<path d="M155.807 155.521C156.027 155.345 156.231 155.353 156.417 155.543C156.411 156.012 156.445 156.505 156.29 156.958C155.423 157.292 155.673 156.006 155.807 155.521Z" fill="#0F5A8B"/>
<path d="M160.521 156.828C160.294 156.394 160.054 155.715 160.628 155.434C161.236 155.628 161.158 156.683 160.521 156.828Z" fill="#0F5A8B"/>
<path d="M73.7686 156.467C74.4984 156.55 74.5307 157.815 73.8818 157.981C73.3563 157.607 73.5564 156.952 73.7686 156.467Z" fill="#0F5A8B"/>
<path d="M75.5537 156.532C76.0146 156.352 76.0146 157.069 76.2006 157.312C76.0207 157.522 75.8226 157.72 75.6002 157.89C75.4122 157.47 75.2464 156.942 75.5537 156.532Z" fill="#0F5A8B"/>
<path d="M116.966 160.545C117.948 160.29 118.088 161.626 118.11 162.305C118.033 162.932 118.393 164.028 117.522 164.181C117.313 163.177 117.724 162.063 117.18 161.135C116.426 161.806 116.319 162.861 115.935 163.741C115.846 164.003 115.65 164.367 115.31 164.175C114.811 163.397 114.752 162.372 114.107 161.677C114.002 161.681 113.794 161.687 113.689 161.691C113.177 162.364 113.361 163.278 113.311 164.068C113.157 164.044 112.852 163.995 112.7 163.973C112.537 163.189 112.656 162.348 112.987 161.622C113.206 161.127 113.83 160.785 114.342 161.066C115.037 161.495 115.088 162.408 115.575 163.003C115.816 162.105 116.054 160.995 116.966 160.545Z" fill="#0F5A8B"/>
<path d="M89.1785 162.693C89.2998 162.659 89.4211 162.687 89.5424 162.776C89.4898 163.332 89.4352 163.888 89.3362 164.439C88.9764 164.739 88.657 164.294 88.7136 163.946C88.7682 163.52 88.7641 162.935 89.1785 162.693Z" fill="#0F5A8B"/>
<path d="M119.808 162.592C119.935 162.592 120.19 162.594 120.317 162.594C120.402 163.15 120.681 164.154 119.816 164.171C119.753 163.645 119.755 163.115 119.808 162.592Z" fill="#0F5A8B"/>
<path d="M91.3698 163.211C91.4021 162.805 91.8206 162.813 92.1258 162.849C91.9257 163.421 91.9277 164.04 91.7417 164.612C90.9493 164.682 91.1939 163.666 91.3698 163.211Z" fill="#0F5A8B"/>
<path d="M93.7389 164.526C93.5812 163.932 93.5752 163.077 94.3029 162.883C94.3777 163.344 94.3999 163.813 94.3919 164.284C94.3433 164.617 93.9714 164.486 93.7389 164.526Z" fill="#0F5A8B"/>
<path d="M85.2265 193.662C85.2831 193.187 85.2629 192.389 85.8976 192.332C86.1341 192.813 85.9057 193.377 85.9825 193.897C85.7238 193.965 85.1962 194.093 85.2265 193.662Z" fill="#0F5A8B"/>
<path d="M121.662 163.045C122.21 162.77 122.242 163.801 121.882 164.028C121.369 164.115 121.302 163.272 121.662 163.045Z" fill="#0F5A8B"/>
<path d="M193.996 164.505C193.97 164.09 193.833 163.399 194.374 163.268C194.9 163.452 194.534 164.133 194.538 164.535C194.403 164.527 194.132 164.513 193.996 164.505Z" fill="#0F5A8B"/>
<path d="M190.109 164.826C189.507 164.599 189.836 163.877 190.111 163.516C190.558 163.78 190.651 164.634 190.109 164.826Z" fill="#0F5A8B"/>
<path d="M196.77 165.988C196.717 165.458 196.436 164.211 197.32 164.387C197.378 164.935 197.587 165.946 196.77 165.988Z" fill="#0F5A8B"/>
<path d="M178.682 193.67C178.876 193.219 178.959 192.372 179.616 192.463C179.721 193.029 179.45 193.581 179.418 194.145C179.122 194.139 178.475 194.135 178.682 193.67Z" fill="#0F5A8B"/>
<path d="M177.184 165.543C177.222 165.189 177.586 165.127 177.861 165.046C177.841 165.551 177.891 166.115 177.604 166.558C176.939 166.762 177.107 165.929 177.184 165.543Z" fill="#0F5A8B"/>
<path d="M179.28 166.53C179.088 166.09 178.991 164.954 179.757 165.202C179.953 165.697 179.921 166.439 179.28 166.53Z" fill="#0F5A8B"/>
<path d="M53.2931 166.025C53.4912 165.649 53.8531 166.108 53.8571 166.338C53.9339 166.684 53.9845 167.042 53.9683 167.401C54.0208 167.723 53.4387 167.852 53.38 167.515C53.3032 167.058 52.903 166.413 53.2931 166.025Z" fill="#0F5A8B"/>
<path d="M50.8936 166.699C51.0088 166.701 51.2433 166.703 51.3585 166.703C51.3949 167.221 51.9427 168.365 51.0068 168.276C50.6207 167.847 50.8269 167.207 50.8936 166.699Z" fill="#0F5A8B"/>
<path d="M95.0913 170.225C95.1156 169.471 95.4511 168.493 96.3042 168.37C97.3513 168.289 97.889 169.354 98.3904 170.09C98.8412 169.53 99.3566 168.839 100.155 168.849C100.808 168.849 101.176 169.475 101.548 169.916C101.96 169.431 102.486 168.857 103.193 168.968C103.899 169.186 104.186 170.343 103.535 170.775C103.327 170.425 103.24 170.025 103.096 169.653C102.334 169.328 102.049 170.49 101.574 170.905C100.887 170.719 100.99 169.477 100.129 169.471C99.1969 169.485 99.0514 170.696 98.3216 170.985C97.5595 170.427 97.4201 168.992 96.3123 168.954C95.6007 169.293 95.7665 170.223 95.5805 170.866C95.1297 171.169 95.1297 170.47 95.0913 170.225Z" fill="#0F5A8B"/>
<path d="M32.7204 190.924C32.9771 190.843 33.0924 190.936 33.0641 191.203C33.0257 191.647 33.0135 192.096 32.9448 192.543C32.7063 192.731 32.1746 192.632 32.2474 192.248C32.308 191.813 32.209 191.098 32.7204 190.924Z" fill="#0F5A8B"/>
<path d="M65.04 170.644C64.9207 170.173 65.0581 169.734 65.3371 169.358C65.4645 169.825 65.3209 170.266 65.04 170.644Z" fill="#0F5A8B"/>
<path d="M38.0389 175.171C38.142 174.638 38.3361 173.706 39.082 173.88C39.8563 174.302 40.018 175.262 40.2525 176.035C47.6309 176.192 55.0032 176.673 62.3837 176.831C62.9901 175.94 63.4914 174.975 64.0312 174.041C64.2455 174.118 64.4597 174.201 64.672 174.292C63.7664 175.707 62.887 177.138 62.0259 178.582C61.3851 179.663 60.5866 180.65 60.0509 181.794C60.3541 181.822 60.7705 182.152 60.9504 181.751C62.0764 180.239 62.883 178.523 63.8776 176.926C64.0878 176.928 64.3021 176.932 64.5123 176.93C66.0486 176.908 67.585 176.94 69.1233 176.912C69.0566 176.386 69.004 175.861 68.8686 175.351C69.0384 175.206 69.2082 175.064 69.3922 174.937C69.9784 177.528 69.8935 180.221 70.51 182.803C70.7607 182.655 71.1549 182.534 71.0336 182.15C70.7991 180.132 70.4858 178.125 70.2351 176.109C70.4231 176.027 70.6131 175.946 70.8011 175.869C70.8476 176.241 70.8941 176.615 70.9467 176.989C72.8913 177.068 74.8421 176.977 76.7827 177.138C76.7342 176.601 76.7241 175.881 77.3043 175.628C78.036 175.43 78.3413 176.263 78.6243 176.762C78.9073 176.035 79.2995 175.293 79.9625 174.844C80.3203 174.599 80.858 174.727 81.0258 175.139C81.3149 175.804 81.1895 176.554 81.1188 177.254C89.6879 177.371 98.2569 177.615 106.824 177.844C107.796 177.868 108.771 177.848 109.741 177.947C109.761 177.041 109.739 176.059 110.24 175.264C110.451 174.868 111.087 174.854 111.31 175.244C111.538 175.632 111.599 176.091 111.736 176.518C111.914 176.016 112.258 175.614 112.707 175.333C112.664 175.606 112.618 175.881 112.565 176.156C112.268 176.688 112.074 177.266 111.815 177.816C111.678 177.848 111.401 177.909 111.261 177.939C111.067 177.199 111.34 176.206 110.687 175.685C110.42 176.372 110.275 177.12 110.374 177.856C110.41 178.187 110.546 178.527 110.41 178.859C110.129 178.933 109.915 178.778 109.725 178.602C101.423 178.371 93.1183 178.194 84.8201 177.949C83.2959 178.04 81.7293 177.698 80.2435 178.139C80.389 177.239 80.5892 176.342 80.5164 175.426C79.4066 175.788 79.2509 177.165 78.6223 178.008C78.5091 178.036 78.2847 178.094 78.1715 178.123C77.943 177.482 78.0623 176.675 77.5205 176.188C77.3022 176.833 77.6964 177.482 77.5448 178.119C77.1425 177.969 76.7625 177.716 76.3157 177.759C74.5571 177.755 72.8064 177.626 71.0478 177.654C71.2034 179.208 71.4399 180.751 71.6926 182.291C72.0181 182.346 72.4891 182.162 72.6629 182.544C73.0228 183.057 72.4325 183.753 71.8563 183.567C71.3429 183.466 70.7546 183.74 70.2937 183.52C69.7985 182.831 69.7075 181.923 69.5822 181.102C69.5195 179.934 69.3214 178.78 69.2527 177.613C67.5526 177.621 65.8424 177.502 64.1484 177.617C63.257 179.233 62.2442 180.779 61.3547 182.394C61.8561 182.513 62.41 182.687 62.509 183.274C64.6154 183.276 66.7238 183.241 68.8302 183.308C69.1273 183.257 69.3457 183.455 69.4831 183.692C67.1099 183.718 64.7367 183.799 62.3614 183.797C60.5381 183.947 58.7106 183.775 56.8832 183.838C53.4831 183.846 50.0829 183.87 46.6828 183.872C46.6808 183.761 46.6788 183.54 46.6767 183.429C51.0654 183.36 55.456 183.302 59.8467 183.306C59.6506 182.993 59.4182 182.703 59.2726 182.364C59.212 181.943 59.4586 181.573 59.6345 181.218C60.3561 179.934 61.2436 178.756 62.0239 177.508C54.9911 177.338 47.9644 176.973 40.9337 176.718C40.5132 176.667 40.113 176.867 39.7026 176.859C39.4681 176.111 39.5106 175.222 38.9365 174.628C38.8657 174.733 38.7242 174.941 38.6535 175.046C38.4493 175.097 38.2431 175.129 38.0389 175.171Z" fill="#0F5A8B"/>
<path d="M155.439 181.731C155.722 181.147 156.011 180.567 156.174 179.936C156.619 179.868 156.611 180.442 156.579 180.747C156.516 181.153 156.035 181.657 156.522 181.956C156.654 181.307 156.793 180.66 156.977 180.025C157.137 180.086 157.511 179.926 157.448 180.248C157.266 181.052 157.137 181.913 156.738 182.639L156.536 182.629C156.494 182.483 156.407 182.194 156.364 182.049C156.189 182.247 156.057 182.481 155.883 182.684C155.362 182.764 155.214 182.095 155.439 181.731Z" fill="#0F5A8B"/>
<path d="M148.388 180.379C148.572 180.7 148.739 181.034 148.883 181.38C148.744 183.71 148.501 186.041 148.141 188.35C148.361 188.62 148.75 188.521 149.057 188.596C149.081 188.904 149.103 189.217 149.126 189.53C150.148 189.486 151.173 189.53 152.198 189.472C152.164 189.678 152.136 189.888 152.107 190.098C150.427 189.912 148.731 190.102 147.045 190.046C144.426 189.928 141.802 190.06 139.182 189.963C139.226 189.868 139.315 189.68 139.36 189.587C141.773 189.403 144.205 189.601 146.621 189.451C146.613 189.275 146.597 188.924 146.589 188.748C146.791 188.754 146.995 188.762 147.199 188.772L147.171 188.988C147.498 189.003 147.828 189.011 148.161 189.013C147.937 188.815 147.66 188.701 147.391 188.596C148.032 185.912 148.032 183.11 148.388 180.379Z" fill="#0F5A8B"/>
<path d="M152.17 190.02C152.218 189.887 152.313 189.62 152.362 189.486C152.964 189.571 153.573 189.549 154.181 189.517C154.171 189.636 154.155 189.874 154.145 189.994C153.49 190.062 152.827 190.048 152.17 190.02Z" fill="#0F5A8B"/>
<path d="M35.1058 192.265C34.3174 192.031 34.5923 190.579 35.413 190.783C35.3645 191.264 35.7365 192.059 35.1058 192.265Z" fill="#0F5A8B"/>
<path d="M37.4487 190.743C37.6023 190.553 37.8994 190.715 37.9601 190.915C38.1966 191.396 38.1602 191.956 38.142 192.479C37.9116 192.475 37.6225 192.688 37.4244 192.495C37.3658 192.269 37.4406 192.037 37.4608 191.816C37.3921 191.473 37.0727 191.008 37.4487 190.743Z" fill="#0F5A8B"/>
<path d="M42.9734 191.236C42.9755 190.937 43.3757 190.929 43.5536 190.781C43.6991 191.327 43.8649 191.873 43.9539 192.437C43.966 192.742 43.6122 192.78 43.4121 192.898C43.2504 192.35 42.9653 191.814 42.9734 191.236Z" fill="#0F5A8B"/>
<path d="M39.9937 191.133C40.4546 190.927 40.3475 191.584 40.3738 191.847C40.3293 192.13 40.5193 192.587 40.1332 192.702C39.8017 192.88 39.4965 192.589 39.549 192.255C39.6339 191.867 39.6905 191.414 39.9937 191.133Z" fill="#0F5A8B"/>
<path d="M127.287 195.102C127.296 194.451 127.391 193.495 128.177 193.337C128.155 193.929 128.035 194.534 128.246 195.112C127.963 195.35 127.389 195.666 127.287 195.102Z" fill="#0F5A8B"/>
<path d="M132.608 194.679C132.669 194.261 132.733 193.254 133.384 193.535C133.417 194.069 133.346 194.617 133.518 195.138C133.235 195.785 132.422 195.276 132.608 194.679Z" fill="#0F5A8B"/>
<path d="M124.457 195.512C124.425 194.805 124.445 193.535 125.454 193.616C125.367 194.109 125.236 194.594 125.122 195.084C125.201 195.183 125.357 195.377 125.434 195.474C125.244 195.862 124.54 196.06 124.457 195.512Z" fill="#0F5A8B"/>
<path d="M129.837 195.071C129.754 194.533 129.907 193.633 130.607 193.648C130.603 194.135 130.595 194.626 130.714 195.107C130.461 195.368 129.966 195.57 129.837 195.071Z" fill="#0F5A8B"/>
<path d="M135.311 195.552C134.607 195.308 134.959 193.82 135.703 194.044C135.747 194.479 135.753 194.916 135.784 195.354C135.665 195.405 135.428 195.504 135.311 195.552Z" fill="#0F5A8B"/>
</g>
<defs>
<clipPath id="clip0_3564_16159">
<rect width="207" height="207" fill="white" transform="translate(0.5)"/>
</clipPath>
</defs>
</svg>
