<svg width="276" height="207" viewBox="0 0 276 207" fill="none" xmlns="http://www.w3.org/2000/svg">
<g clipPath="url(#clip0_3316_23644)">
<path d="M69.5088 56.8646C68.9105 58.2576 68.1774 59.5301 67.3095 60.6819C67.0328 61.0491 66.7066 61.1013 66.3311 60.8385L66.226 60.7656C66.1166 60.6899 66.0388 60.5765 66.0075 60.447C65.9762 60.3176 65.9935 60.1812 66.0562 60.0637C66.5683 59.0972 67.3014 58.2171 67.8162 57.2722C70.0084 53.2443 71.9535 49.1292 73.6515 44.9267C74.2535 43.4365 74.7503 41.9121 75.1421 40.3535C75.151 40.3229 75.1394 40.3031 75.107 40.2941H75.1043C75.0756 40.2869 75.0576 40.2986 75.0504 40.3292C75.0055 40.538 74.9444 40.744 74.8671 40.9474C73.5949 44.268 71.9894 47.9035 70.0506 51.854C68.552 54.9064 66.9142 57.7753 65.1371 60.4605C64.8513 60.8907 64.4794 61.0158 64.0212 60.8358C64.0032 60.8286 63.9853 60.8196 63.9673 60.8088C63.5468 60.5532 63.4758 60.2167 63.7544 59.7991C65.5926 57.0563 67.3508 53.9913 69.0291 50.6041C71.1188 46.389 72.9175 42.2063 74.4251 38.0561C74.4526 37.9781 74.5038 37.9107 74.5714 37.8632C74.6391 37.8158 74.7199 37.7907 74.8024 37.7915L76.1851 37.7942C76.2965 37.7942 76.3496 37.7375 76.3442 37.6241L75.6407 24.8088C75.638 24.753 75.6559 24.6981 75.6911 24.6544C75.7264 24.6106 75.7765 24.5811 75.8321 24.5713C77.3019 24.3337 78.7205 24.0871 80.0879 23.8316C91.7533 21.6592 103.348 19.4581 114.871 17.2282C114.912 17.22 114.955 17.2223 114.996 17.2351C115.036 17.2478 115.073 17.2705 115.103 17.3011C116.368 18.6041 117.823 18.9308 119.469 18.2811C121.105 17.6358 121.593 15.7731 120.132 14.5582C118.574 13.2651 114.895 13.8266 114.987 16.4102C114.99 16.5056 114.946 16.5623 114.852 16.5803L75.4143 24.0691C75.3244 24.0853 75.2768 24.1393 75.2714 24.2311L75.2418 24.7656C75.2346 24.8754 75.178 24.9168 75.072 24.8898C72.9175 24.3337 70.7451 23.7578 68.5547 23.162C68.3014 23.0936 68.0552 22.9866 67.8162 22.8408C67.7371 22.7904 67.6832 22.7211 67.6545 22.6329C67.4838 22.0966 67.6608 21.7222 68.1855 21.5098C89.4766 12.8709 106.859 5.86352 120.332 0.487596C120.892 0.266223 121.523 0.263526 122.164 0.409307C138.148 4.03945 153.858 7.6219 169.295 11.1567C169.695 11.2484 170.063 11.4014 170.397 11.6156C170.467 11.6609 170.526 11.7212 170.571 11.792C170.615 11.8629 170.643 11.9426 170.653 12.0256C170.663 12.1085 170.655 12.1927 170.629 12.272C170.603 12.3514 170.559 12.4241 170.502 12.4849C170.281 12.7189 169.972 12.8997 169.575 13.0275C164.473 14.6905 159.249 16.3616 154.123 18.1407C140.731 22.7913 127.386 27.4491 114.089 32.1141C112.596 32.6396 111.146 33.1625 109.739 33.6826C108.999 33.958 108.26 33.9949 107.524 33.7933C98.302 31.2556 88.1946 28.5497 77.2013 25.6754C77.1222 25.6556 77.0854 25.6862 77.0908 25.7672L77.7026 37.6457C77.7029 37.6542 77.705 37.6626 77.7085 37.6703C77.7121 37.678 77.7172 37.685 77.7234 37.6908C77.7297 37.6965 77.737 37.701 77.745 37.7039C77.753 37.7068 77.7615 37.7082 77.77 37.7078L79.7106 37.697C79.7655 37.6965 79.8188 37.715 79.8616 37.7495C79.9044 37.7839 79.9339 37.8322 79.9451 37.886C81.3449 44.6675 82.9162 52.7701 84.6592 62.1937C84.749 62.6815 84.5658 63.0117 84.1094 63.1845C83.965 63.2385 83.8052 63.2327 83.6647 63.1684C83.5243 63.1042 83.4147 62.9867 83.3601 62.8416C83.1121 62.1811 82.9198 61.4675 82.7833 60.7008C82.1166 56.9717 81.4446 53.2452 80.7672 49.5215C80.76 49.4873 80.7393 49.4729 80.7052 49.4783H80.7025C80.6755 49.4819 80.6639 49.4972 80.6674 49.5242C81.158 53.8797 81.6503 58.2135 82.1445 62.5258C82.2199 63.198 81.9369 63.8081 81.1283 63.6758C81.0349 63.6596 80.9594 63.6137 80.9019 63.5382C80.7187 63.3006 80.6099 63.0288 80.5758 62.7229C79.6864 54.7715 78.9056 47.0351 78.2336 39.5139C78.2192 39.3627 78.141 39.2601 77.9991 39.2061L77.9155 39.1737C77.8973 39.1663 77.8774 39.1637 77.8579 39.1661C77.8384 39.1686 77.8197 39.1759 77.8038 39.1875C77.7879 39.1991 77.7752 39.2146 77.7669 39.2325C77.7587 39.2504 77.7551 39.2701 77.7565 39.2898C78.3153 47.1134 78.7681 54.9136 79.1149 62.6905C79.1311 63.0738 79.0583 63.6407 78.6001 63.7379C78.1599 63.8333 77.8356 63.719 77.6271 63.3951C77.5894 63.3375 77.5364 63.3132 77.4681 63.3222C76.5212 63.4572 75.9794 62.9928 75.8428 61.9291C75.7494 61.193 75.6937 60.4272 75.6757 59.6317C75.6757 59.5904 75.6551 59.5714 75.6137 59.575C75.5796 59.5768 75.5634 59.5948 75.5652 59.629C75.6335 60.4947 75.6613 61.3919 75.6488 62.3206C75.647 62.4636 75.606 62.6029 75.5302 62.7229C75.2121 63.225 74.9076 63.4419 74.6165 63.3735C74.1816 63.2745 73.9687 63.0018 73.9777 62.5555L74.1313 54.9991C74.1367 54.6878 74.0918 54.6806 73.9965 54.9775C73.8833 55.3249 73.8007 55.7136 73.7486 56.1438C73.479 58.4277 73.0999 60.4704 72.6112 62.272C72.5724 62.4179 72.4847 62.5461 72.3625 62.635C72.2403 62.724 72.0912 62.7683 71.94 62.7607C71.9041 62.7589 71.8681 62.7561 71.8322 62.7526C71.4171 62.7094 71.2392 62.4808 71.2985 62.0668L72.5357 53.5818C72.5393 53.553 72.5402 53.5386 72.5384 53.5386L72.4683 53.5224C72.427 53.5134 72.4 53.5296 72.3874 53.571C71.5501 56.3337 70.5304 58.9892 69.3283 61.5377C69.1126 61.9966 68.7694 62.1307 68.2987 61.9399L68.2232 61.9103C67.8261 61.7483 67.721 61.4747 67.9078 61.0896C68.4074 60.0529 68.8808 58.9712 69.3283 57.8446C69.454 57.5278 69.5394 57.2083 69.5843 56.8862C69.6095 56.6918 69.5843 56.6846 69.5088 56.8646Z" fill="#0F5A8B"/>
<path d="M159.065 17.3443L162.267 39.5436C162.271 39.5655 162.269 39.5879 162.262 39.6089C162.255 39.6299 162.243 39.649 162.227 39.6645C162.211 39.68 162.192 39.6916 162.171 39.6983C162.15 39.7049 162.127 39.7065 162.106 39.7029C161.761 39.6417 161.423 39.6093 161.092 39.6057C154.961 39.5445 149.222 39.6705 143.875 39.9836C137.088 40.3796 130.103 41.2678 122.921 42.6482C114.842 44.1978 105.992 46.5879 96.3697 49.8185C96.278 49.8491 96.225 49.8167 96.2107 49.7213L93.2108 30.6536C93.209 30.6416 93.2102 30.6293 93.2144 30.6178C93.2185 30.6064 93.2255 30.5962 93.2346 30.5881C93.2437 30.5801 93.2547 30.5744 93.2665 30.5717C93.2784 30.569 93.2907 30.5693 93.3024 30.5726C98.0713 31.8576 102.849 33.1607 107.636 34.4817C108.466 34.7112 109.337 34.5357 110.156 34.2387C116.439 31.9521 122.881 29.7519 129.282 27.5031C139.805 23.8046 149.652 20.3688 158.825 17.1958C158.966 17.1472 159.046 17.1967 159.065 17.3443Z" fill="#0F5A8B"/>
<path d="M274.667 163.444V166.56C272.98 162.339 271.384 158.166 269.88 154.041C269.476 152.933 268.999 151.931 268.449 151.037C267.131 148.89 265.117 148.221 262.641 148.04C254.163 147.415 245.781 146.755 237.496 146.058C235.628 145.902 234.059 145.991 232.588 147.389C231.021 148.878 230.644 150.728 231.456 152.94C232.875 156.804 234.357 160.792 235.9 164.905C236.048 165.295 236.271 165.62 236.571 165.879C237.678 166.839 238.734 167.81 239.738 168.792C239.97 169.021 240.18 169.27 240.369 169.54C240.423 169.617 240.443 169.703 240.428 169.797C240.369 170.196 240.128 170.416 239.706 170.455C237.503 170.662 235.478 170.815 233.631 170.914C233.038 170.945 233.022 171.059 233.582 171.257C235.542 171.945 237.569 172.834 239.116 174.21C239.198 174.284 239.295 174.321 239.404 174.321L274.667 174.324V175.863L240.55 175.852C240.424 175.852 240.394 175.905 240.461 176.011C242.207 178.761 242.98 181.396 242.779 183.916C242.723 184.612 242.327 184.952 241.59 184.936C240.388 184.909 239.217 184.896 238.078 184.896C216.158 184.896 194.348 184.889 172.649 184.877C154.269 184.866 135.335 184.878 115.846 184.912C114.805 184.915 114.735 183.894 114.932 183.138C115.631 180.444 116.876 178.06 118.668 175.987C118.674 175.979 118.678 175.971 118.679 175.961C118.68 175.952 118.679 175.942 118.675 175.933C118.671 175.925 118.665 175.917 118.657 175.912C118.649 175.907 118.639 175.904 118.63 175.903L-1.33301 175.863V174.34L30.0323 174.337C30.0696 174.337 30.1054 174.324 30.1325 174.298C30.1596 174.273 30.1758 174.239 30.1779 174.202C30.8284 165.366 31.486 156.269 32.1509 146.912C32.2883 144.973 32.5255 143.137 30.1375 143.056C19.6455 142.693 9.15535 142.316 -1.33301 141.925V140.467C9.08887 140.883 19.5098 141.258 29.9299 141.593C32.6127 141.68 33.8444 143.204 33.6252 146.166C32.9406 155.421 32.2757 164.785 31.6307 174.259C31.6303 174.268 31.6317 174.277 31.6348 174.285C31.6379 174.293 31.6426 174.3 31.6486 174.307C31.6547 174.313 31.6619 174.318 31.67 174.321C31.678 174.325 31.6866 174.327 31.6954 174.327L65.8503 174.329C65.883 174.329 65.9147 174.318 65.9406 174.298C65.9664 174.278 65.9849 174.25 65.9932 174.219C67.1342 169.996 68.2321 165.795 69.2869 161.614C69.33 161.445 69.3641 161.273 69.3893 161.098C69.4198 160.904 69.3372 160.82 69.1413 160.847C68.4873 160.937 67.9536 160.875 67.5403 160.661C67.4298 160.604 67.3428 160.51 67.2945 160.396C67.2462 160.281 67.2397 160.153 67.2762 160.035C69.817 151.813 72.3892 143.544 74.9929 135.227C77.7448 126.445 82.8497 119.043 90.596 114.078C90.6607 114.037 90.6553 114.009 90.5798 113.995C80.3484 111.973 72.4296 104.748 66.7021 96.3658C66.696 96.357 66.6917 96.347 66.6895 96.3365C66.6872 96.326 66.6871 96.3151 66.6891 96.3046C66.6912 96.294 66.6952 96.284 66.7012 96.275C66.7071 96.2661 66.7147 96.2584 66.7236 96.2524C68.6157 94.9404 70.356 93.4376 71.9445 91.744C75.7448 87.6945 78.9747 83.7539 81.6341 79.9222C84.7607 75.4191 87.3212 70.3843 89.4343 65.2063C90.9527 61.4826 92.4953 58.0747 94.0622 54.9827C94.7926 53.5411 95.6174 52.0968 96.8033 51.3436C97.1088 51.1492 97.1241 50.9332 96.8491 50.6957C96.7809 50.6345 96.7782 50.5715 96.841 50.5067C97.0154 50.3231 97.2301 50.1899 97.4852 50.1071C105.663 47.4003 113.619 45.2423 121.355 43.6333C134.522 40.8905 148.028 39.9645 161.698 40.2426C162.144 40.2516 162.587 40.3281 163.027 40.472C167.089 41.7949 170.116 45.1317 172.356 48.814C174.959 53.0957 175.56 57.5312 174.959 62.423C174.776 63.9348 172.658 63.6432 172.781 62.1341C172.839 61.4502 172.888 60.6925 172.93 59.861C173.151 55.5235 171.883 51.7179 169.127 48.4441C168.97 48.2588 168.96 48.2669 169.094 48.4684C171.628 52.2462 172.634 56.4189 172.113 60.9868C171.66 64.9364 169.054 68.4378 164.679 68.0788C164.554 68.068 164.488 68.1256 164.483 68.2515C164.226 74.6407 163.953 80.9084 163.666 87.0547C163.28 95.3138 164.509 103.389 167.353 111.281C167.358 111.295 167.36 111.31 167.359 111.325C167.358 111.34 167.353 111.354 167.346 111.367C167.339 111.38 167.329 111.392 167.317 111.4C167.306 111.409 167.292 111.416 167.278 111.419C165.712 111.767 164.14 112.202 162.65 112.82C159.847 113.981 156.995 115.023 154.011 115.344C153.724 115.375 153.704 115.466 153.952 115.617C156.033 116.882 158.019 118.507 159.911 120.493C166.377 127.28 169.857 135.819 171.86 144.817C173.816 153.614 175.624 161.911 177.283 169.707C177.294 169.758 177.315 169.806 177.347 169.847C177.378 169.889 177.418 169.923 177.463 169.948L179.541 171.068C179.653 171.127 179.767 171.136 179.884 171.092C182.738 170.069 185.703 169.348 188.732 168.865C188.853 168.845 188.913 168.775 188.913 168.655C188.882 159.841 188.863 151.031 188.854 142.225C188.854 141.788 188.789 141.342 189.139 141.002C190.697 139.499 192.127 137.51 193.428 135.036C193.616 134.677 193.913 134.412 194.344 134.418C201.826 134.488 210.262 134.499 219.65 134.453C220.328 134.449 220.667 134.784 220.669 135.457C220.682 145.543 220.686 155.566 220.683 165.526C220.681 165.623 220.728 165.667 220.825 165.658C224.899 165.302 228.85 164.898 232.679 164.449C233.29 164.377 233.801 164.35 234.21 164.368C234.307 164.371 234.34 164.327 234.307 164.235C232.929 160.459 231.573 156.759 230.237 153.134C229.51 151.15 229.793 148.766 231.124 147.106C232.52 145.367 234.475 144.597 236.987 144.795C245.335 145.45 253.901 146.104 262.686 146.758C263.959 146.851 265.02 147.07 265.869 147.414C267.993 148.272 269.511 149.883 270.422 152.246C272.42 157.424 273.835 161.157 274.667 163.444ZM124.921 60.0527C124.161 60.2309 123.487 59.9204 123.306 59.0943C123.295 59.0413 123.266 58.9937 123.225 58.9586C123.184 58.9235 123.133 58.9029 123.08 58.8999L114.056 58.387C113.689 58.3672 113.439 58.5283 113.304 58.8702C112.539 60.8266 111.806 62.6443 111.107 64.3235C110.531 65.7076 109.594 66.7199 108.299 67.3606C108.216 67.402 108.221 67.4263 108.312 67.4335L120.643 68.5512C120.796 68.5656 120.905 68.5035 120.969 68.3649C121.517 67.196 122.169 66.1188 123.099 65.2252C126.021 62.423 130.492 62.0423 133.885 64.1805C135.53 65.2135 136.723 66.701 137.465 68.643C137.476 68.6721 137.493 68.6983 137.516 68.7197C137.538 68.7411 137.565 68.757 137.595 68.7664C137.624 68.7758 137.656 68.7783 137.686 68.7737C137.717 68.7692 137.746 68.7577 137.772 68.7402C139.171 67.7845 140.532 67.7521 141.963 68.4675C142.076 68.5233 142.157 68.4927 142.206 68.3757C144.114 63.6108 149.472 61.4997 154.073 63.5865C156.391 64.6394 157.986 66.4671 158.857 69.0695C158.888 69.1631 158.953 69.2117 159.052 69.2153L160.383 69.2531C160.478 69.2567 160.532 69.2108 160.545 69.1154C161.089 65.0047 160.707 61.0506 159.399 57.2531C158.67 55.1348 157.822 52.8545 156.855 50.4122C156.138 48.6016 155.119 47.0232 153.798 45.677C153.68 45.5564 153.618 45.5807 153.612 45.7499C153.53 48.2642 152.948 50.6939 151.866 53.039C149.734 57.6581 145.483 58.657 140.842 58.6354C138.075 58.6228 135.501 58.6444 133.12 58.7001C132.325 58.719 131.573 59.151 130.743 59.1969C128.829 59.3049 126.888 59.5901 124.921 60.0527ZM149.46 79.4904C151.406 79.7228 153.367 79.1452 154.912 77.8848C156.458 76.6244 157.461 74.7844 157.7 72.7696C157.94 70.7547 157.397 68.7301 156.191 67.141C154.985 65.552 153.215 64.5288 151.269 64.2964C149.323 64.064 147.362 64.6415 145.817 65.9019C144.271 67.1623 143.269 69.0024 143.029 71.0172C142.789 73.0321 143.332 75.0567 144.538 76.6457C145.744 78.2348 147.515 79.258 149.46 79.4904ZM129.209 79.5388C131.165 79.5319 133.039 78.7199 134.417 77.2812C135.796 75.8426 136.566 73.8953 136.559 71.8676C136.556 70.8636 136.361 69.8701 135.987 68.9438C135.613 68.0175 135.067 67.1766 134.38 66.469C133.692 65.7615 132.877 65.2012 131.981 64.8201C131.084 64.439 130.124 64.2446 129.155 64.248C127.199 64.2548 125.325 65.0669 123.947 66.5055C122.568 67.9441 121.798 69.8915 121.805 71.9192C121.809 72.9232 122.003 73.9167 122.377 74.843C122.751 75.7693 123.297 76.6102 123.985 77.3177C124.672 78.0253 125.487 78.5856 126.384 78.9667C127.28 79.3478 128.24 79.5421 129.209 79.5388ZM106.493 80.3892C106.878 81.7633 107.253 83.1267 107.806 84.409C109.859 89.173 113.088 92.8823 117.49 95.537C117.519 95.5546 117.542 95.5799 117.558 95.61C117.573 95.6401 117.579 95.6737 117.576 95.7071C117.26 99.1212 117.004 102.346 116.808 105.383C116.409 111.541 119.816 116.932 125.94 118.411C127.756 118.85 129.487 118.867 131.131 118.46C134.477 117.632 136.474 115.358 137.122 111.638C137.135 111.566 137.122 111.492 137.087 111.428C137.052 111.364 136.996 111.315 136.928 111.287L136.026 110.914C135.982 110.896 135.942 110.87 135.909 110.837C135.876 110.803 135.849 110.764 135.831 110.72C135.767 110.565 135.734 110.403 135.734 110.234C135.731 108.539 135.728 106.889 135.726 105.285C135.726 105.176 135.672 105.113 135.565 105.096C129.775 104.262 124.641 101.484 119.633 98.261C119.354 98.0828 119.298 97.8497 119.463 97.5617L119.522 97.4565C119.723 97.1037 120.008 97.0137 120.377 97.1865C124.595 99.1761 129.152 100.226 133.799 100.647C134.789 100.739 135.793 100.859 136.81 101.007C141.791 101.741 147.459 99.924 151.521 96.9489C156.529 93.2801 159.488 87.4704 159.782 81.1775C159.958 77.4268 160.181 73.9703 160.45 70.8081C160.458 70.7091 160.412 70.6587 160.313 70.6569L159.332 70.6353C159.229 70.6335 159.182 70.6839 159.189 70.7865C159.324 72.8707 159.003 74.6452 158.227 76.1102C155.817 80.6646 150.634 82.2547 146.049 79.8979C145.965 79.8547 145.903 79.8763 145.863 79.9627C145.489 80.7537 144.524 81.82 143.548 81.8848C143.194 81.91 142.936 81.7534 142.775 81.4151C142.616 81.0839 142.704 80.8392 143.036 80.6808C143.368 80.5224 143.677 80.3298 143.961 80.103C144.456 79.7053 144.39 79.4677 143.761 79.3903C142.02 79.1771 140.451 79.0097 139.799 77.0929C139.49 76.1876 139.376 75.232 139.457 74.2259C139.466 74.1179 139.512 74.0297 139.597 73.9613C139.865 73.7453 140.184 73.6761 140.556 73.7534C140.664 73.7768 140.73 73.8425 140.753 73.9505C141.136 75.762 140.667 77.9055 143.473 77.7948C143.615 77.7894 143.64 77.7327 143.548 77.6248C141.879 75.6432 141.234 73.3602 141.613 70.7757C141.663 70.4248 141.56 70.1485 141.303 69.9469C140.217 69.0992 138.724 69.4232 137.969 70.5705C137.901 70.6749 137.875 70.7883 137.893 70.9107C138.457 74.7982 136.136 79.0286 132.384 80.4108C125.56 82.9215 119.35 77.0443 120.487 70.0954C120.49 70.0788 120.489 70.0619 120.485 70.0456C120.48 70.0293 120.473 70.0141 120.463 70.0009C120.452 69.9877 120.439 69.9769 120.424 69.969C120.41 69.961 120.393 69.9563 120.377 69.955C116.193 69.5483 112.175 69.164 108.32 68.8023C108.019 68.7735 107.72 68.7051 107.426 68.5971C107.348 68.5683 107.297 68.5152 107.272 68.4378C107.162 68.1121 107.207 67.8439 107.407 67.6333C107.5 67.5343 107.479 67.4803 107.342 67.4713C103.733 67.2041 100.596 67.798 98.6739 71.1915C97.302 73.6104 97.6065 76.8392 99.3073 79.0016C101.043 81.2045 103.833 81.8713 106.25 80.3001C106.373 80.2209 106.453 80.2506 106.493 80.3892ZM91.5151 168.179L90.3427 167.685C90.2582 167.649 90.2151 167.677 90.2133 167.769L90.1594 174.186C90.159 174.206 90.1626 174.226 90.1699 174.244C90.1772 174.262 90.188 174.279 90.2018 174.293C90.2156 174.307 90.2321 174.318 90.2503 174.326C90.2684 174.333 90.2879 174.337 90.3076 174.337L119.74 174.316C119.818 174.316 119.896 174.299 119.967 174.267C120.038 174.235 120.101 174.188 120.153 174.129C121.533 172.539 123.15 171.368 124.859 170.147C125.062 170.004 125.039 169.922 124.791 169.902L116.269 169.216C116.244 169.214 116.221 169.206 116.2 169.192C116.179 169.179 116.162 169.161 116.15 169.139C116.138 169.117 116.132 169.093 116.131 169.069C116.131 169.044 116.136 169.019 116.148 168.997C116.981 167.367 117.884 165.84 118.856 164.416C118.935 164.303 119.043 164.24 119.18 164.227C122.484 163.909 125.878 163.63 129.36 163.39C138.578 162.757 147.764 163.045 156.917 164.254C157.012 164.267 157.056 164.224 157.049 164.127L155.699 146.596C155.668 146.207 155.832 145.938 156.189 145.788C156.243 145.767 156.298 145.756 156.354 145.756C156.837 145.765 157.097 146.012 157.135 146.496L158.515 164.324C158.519 164.374 158.539 164.422 158.574 164.459C158.608 164.496 158.654 164.521 158.704 164.53C164.643 165.501 170.268 167.028 175.579 169.108C175.591 169.113 175.605 169.114 175.618 169.112C175.631 169.11 175.643 169.104 175.653 169.095C175.663 169.087 175.67 169.076 175.674 169.063C175.678 169.051 175.679 169.037 175.676 169.024C174.126 161.739 172.411 153.924 170.534 145.581C169.854 142.562 169.148 139.957 168.415 137.765C165.402 128.764 159.507 119.707 150.685 115.528C149.927 115.17 149.059 114.89 148.082 114.688C146.314 114.327 144.629 113.941 143.028 113.533C142.917 113.504 142.857 113.547 142.85 113.663C142.3 122.706 134.554 129.102 125.627 128.656C120.439 128.4 115.619 125.873 112.579 121.645C110.035 118.106 109.067 113.919 109.541 109.478C109.558 109.334 109.494 109.275 109.35 109.3C107.729 109.577 106.084 109.882 104.415 110.215C93.7226 112.353 84.5747 118.624 79.432 128.33C78.2137 130.632 77.2219 132.985 76.4564 135.389C74.0414 142.981 71.6552 150.66 69.2977 158.426C69.2168 158.694 69.1189 158.964 69.0039 159.235C68.9971 159.251 68.9942 159.268 68.9954 159.286C68.9966 159.303 69.0019 159.319 69.0108 159.334C69.0196 159.349 69.0319 159.362 69.0466 159.372C69.0614 159.381 69.0781 159.387 69.0955 159.389C76.6073 160.126 84.0221 162.348 90.5798 166.103C90.5872 166.108 90.5954 166.11 90.6038 166.111C90.6122 166.111 90.6205 166.11 90.6281 166.107C90.6357 166.103 90.6424 166.099 90.6476 166.092C90.6528 166.086 90.6563 166.079 90.658 166.071L94.4503 149.787C94.5545 149.339 94.8357 149.142 95.2939 149.198C95.3389 149.204 95.382 149.215 95.4233 149.233C95.7593 149.386 95.886 149.643 95.8034 150.003L91.6714 168.098C91.6517 168.188 91.5996 168.215 91.5151 168.179ZM190.479 142.052C190.389 142.151 190.339 142.28 190.339 142.414L190.395 168.482C190.395 168.501 190.399 168.519 190.407 168.537C190.414 168.554 190.425 168.57 190.439 168.582C190.452 168.595 190.469 168.605 190.486 168.611C190.504 168.617 190.522 168.619 190.541 168.617L219.001 165.928C219.065 165.922 219.125 165.892 219.168 165.845C219.211 165.797 219.235 165.735 219.235 165.671L219.243 136.118C219.243 136.073 219.225 136.03 219.194 135.998C219.162 135.966 219.119 135.948 219.073 135.948L195.077 135.946C194.987 135.946 194.899 135.971 194.823 136.02C194.747 136.068 194.686 136.137 194.649 136.218C193.651 138.362 192.118 140.27 190.479 142.052ZM71.0227 161.109C70.9148 161.095 70.8466 161.141 70.8178 161.247L67.4891 174.262C67.4871 174.27 67.4868 174.278 67.4884 174.286C67.4901 174.294 67.4934 174.301 67.4984 174.308C67.5033 174.314 67.5096 174.32 67.5169 174.323C67.5242 174.327 67.5322 174.329 67.5403 174.329L85.0652 174.318C85.0968 174.318 85.1275 174.308 85.1524 174.288C85.1772 174.268 85.1949 174.241 85.2027 174.21C85.9412 171.318 86.5971 168.586 87.1703 166.014C87.1773 165.982 87.1734 165.949 87.1592 165.919C87.145 165.89 87.1213 165.866 87.0921 165.852C81.8578 163.403 76.5013 161.822 71.0227 161.109ZM176.94 173.006C176.977 173.01 177.011 173.024 177.041 173.045C177.071 173.066 177.095 173.094 177.111 173.127C177.127 173.16 177.135 173.197 177.133 173.234C177.132 173.271 177.121 173.307 177.102 173.338C176.876 173.709 176.704 174.091 176.587 174.483C176.582 174.5 176.581 174.518 176.584 174.536C176.587 174.554 176.594 174.57 176.605 174.585C176.615 174.599 176.629 174.61 176.645 174.618C176.66 174.626 176.678 174.629 176.695 174.629L181.948 174.586C181.979 174.585 182.009 174.578 182.037 174.564C182.064 174.549 182.088 174.529 182.107 174.505C182.125 174.48 182.138 174.451 182.143 174.421C182.149 174.39 182.148 174.359 182.14 174.329L182.064 174.057C182.032 173.938 182.078 173.877 182.202 173.873C182.412 173.866 182.616 173.855 182.813 173.841C195.744 172.872 210.886 171.622 228.24 170.088C231.509 169.8 234.681 169.497 237.757 169.178C237.975 169.157 238.004 169.069 237.846 168.916C236.842 167.943 235.809 167.047 234.747 166.23C234.364 165.935 233.88 165.821 233.294 165.887C228.504 166.435 222.699 166.878 217.413 167.472C211.164 168.174 204.891 168.792 198.594 169.327C194.165 169.703 191.377 169.968 190.231 170.12C186.714 170.588 183.283 171.398 179.938 172.55C179.601 172.666 179.299 172.647 179 172.453C178.283 171.981 177.604 171.6 176.965 171.308C173.161 169.572 169.101 168.207 164.787 167.216C153.831 164.697 142.481 164.181 131.204 164.727C127.43 164.91 123.63 165.337 119.98 165.59C119.91 165.596 119.856 165.627 119.819 165.685L118.468 167.772C118.465 167.778 118.462 167.784 118.462 167.791C118.462 167.798 118.463 167.805 118.466 167.811C118.469 167.817 118.473 167.823 118.479 167.827C118.485 167.831 118.491 167.833 118.498 167.834C135.983 169.347 154.681 170.989 174.59 172.758C175.39 172.83 176.173 172.913 176.94 173.006ZM88.491 166.994L86.7229 174.151C86.7174 174.173 86.7162 174.196 86.7194 174.217C86.7226 174.239 86.7301 174.26 86.7412 174.278C86.7524 174.295 86.767 174.31 86.7839 174.32C86.8008 174.329 86.8195 174.335 86.8388 174.335L88.4991 174.345C88.6266 174.345 88.6913 174.282 88.6931 174.156C88.7291 171.889 88.7677 169.571 88.809 167.202C88.8126 167.049 88.7551 166.953 88.6365 166.913C88.5593 166.886 88.5107 166.913 88.491 166.994ZM172.49 183.308C171.698 182.061 171.499 180.7 171.895 179.224C172.371 177.442 173.496 176.323 175.269 175.868C175.303 175.86 175.334 175.844 175.361 175.821C175.387 175.798 175.409 175.769 175.423 175.736C175.484 175.594 175.453 175.521 175.331 175.517C158.329 174.934 140.915 174.255 123.088 173.479C122.946 173.473 122.824 173.52 122.721 173.619C119.886 176.357 117.571 179.391 116.379 183.217C116.373 183.236 116.371 183.257 116.374 183.277C116.378 183.298 116.386 183.317 116.398 183.333C116.41 183.35 116.426 183.364 116.444 183.373C116.463 183.382 116.483 183.387 116.503 183.387L172.436 183.403C172.512 183.403 172.53 183.371 172.49 183.308ZM184.611 177.558C186.207 179.124 186.611 181.289 185.611 183.308C185.582 183.366 185.6 183.395 185.665 183.395L241.277 183.392C241.294 183.392 241.309 183.389 241.324 183.383C241.339 183.376 241.352 183.367 241.363 183.355C241.374 183.344 241.383 183.33 241.389 183.315C241.394 183.3 241.397 183.284 241.396 183.268C241.279 180.259 240.141 177.526 237.981 175.069C237.949 175.033 237.909 175.004 237.865 174.986C237.821 174.967 237.773 174.958 237.725 174.961L184.649 177.455C184.637 177.456 184.626 177.46 184.617 177.467C184.607 177.474 184.6 177.483 184.596 177.494C184.592 177.505 184.591 177.517 184.594 177.528C184.597 177.54 184.603 177.55 184.611 177.558Z" fill="#0F5A8B"/>
<path d="M156.83 58.3384L152.803 57.5252C152.212 57.4058 151.637 57.7889 151.518 58.3809L151.503 58.455C151.384 59.0469 151.766 59.6235 152.357 59.7429L156.384 60.5561C156.975 60.6754 157.55 60.2923 157.669 59.7004L157.684 59.6263C157.804 59.0344 157.421 58.4578 156.83 58.3384Z" fill="#0F5A8B"/>
<path d="M129.134 71.745C129.29 73.4031 130.259 74.6674 131.298 74.5691C132.337 74.4707 133.052 73.0469 132.896 71.3889C132.739 69.7308 131.77 68.4665 130.731 68.5648C129.692 68.6632 128.977 70.087 129.134 71.745Z" fill="#0F5A8B"/>
<path d="M150.258 72.0205C150.414 73.6815 151.385 74.9481 152.425 74.8496C153.466 74.7511 154.182 73.3248 154.025 71.6638C153.868 70.0028 152.898 68.7361 151.857 68.8346C150.817 68.9331 150.101 70.3595 150.258 72.0205Z" fill="#0F5A8B"/>
<path d="M135.185 85.4889C136.699 87.5811 138.68 88.1859 141.055 87.5946C141.174 87.5658 141.288 87.5784 141.397 87.6324C141.721 87.7944 141.866 88.0725 141.834 88.4666C141.83 88.5179 141.815 88.5679 141.791 88.6138C141.767 88.6597 141.734 88.7005 141.694 88.7339C141.381 89.0003 141.028 89.1577 140.635 89.2063C137.957 89.5357 135.788 88.6529 134.128 86.558C133.871 86.2358 133.825 85.8858 133.991 85.5078C134.054 85.3674 134.156 85.2711 134.298 85.2189C134.661 85.084 134.956 85.174 135.185 85.4889Z" fill="#0F5A8B"/>
<path d="M204.468 142.893L196.375 144.512C195.994 144.589 195.747 144.96 195.823 145.341L195.829 145.368C195.905 145.749 196.275 145.997 196.656 145.921L204.749 144.301C205.13 144.225 205.378 143.854 205.301 143.472L205.296 143.445C205.22 143.064 204.849 142.816 204.468 142.893Z" fill="#0F5A8B"/>
<path d="M204.554 152.004L196.987 153.712C196.608 153.797 196.37 154.174 196.455 154.554L196.461 154.58C196.547 154.96 196.923 155.198 197.302 155.113L204.87 153.405C205.249 153.319 205.487 152.942 205.401 152.562L205.395 152.536C205.31 152.157 204.933 151.918 204.554 152.004Z" fill="#0F5A8B"/>
<path d="M252.285 163.571C251.455 163.531 250.673 163.687 250.406 164.594C249.821 166.589 252.452 167.78 253.708 166.149C253.909 165.888 254.14 165.859 254.401 166.06L254.535 166.166C254.803 166.373 254.846 166.619 254.665 166.905C253.005 169.524 248.805 167.88 249.04 164.878C249.117 163.888 249.582 163.112 250.436 162.551C251.153 162.078 252.285 161.978 252.757 162.805C252.802 162.885 252.825 162.975 252.824 163.067C252.822 163.16 252.796 163.25 252.748 163.328C252.7 163.407 252.631 163.471 252.55 163.513C252.468 163.556 252.377 163.576 252.285 163.571Z" fill="#0F5A8B"/>
<path d="M268.167 205.465H28.6395C28.2167 205.465 27.874 205.808 27.874 206.232V206.242C27.874 206.666 28.2167 207.009 28.6395 207.009H268.167C268.589 207.009 268.932 206.666 268.932 206.242V206.232C268.932 205.808 268.589 205.465 268.167 205.465Z" fill="#0F5A8B"/>
</g>
<defs>
<clipPath id="clip0_3316_23644">
<rect width="276" height="207" fill="white"/>
</clipPath>
</defs>
</svg>
