<svg width="342" height="207" viewBox="0 0 342 207" fill="none" xmlns="http://www.w3.org/2000/svg">
<path d="M241.17 38.6746C242.49 39.7233 243.443 41.0266 243.988 42.6675C244.026 42.7777 244.007 42.8759 243.932 42.9619C243.63 43.3103 243.361 43.4779 243.125 43.4647C242.26 43.4184 241.408 43.2254 240.568 42.8858C238.627 42.1029 236.929 41.4214 235.473 40.8414C234.574 40.4808 234.031 40.6727 233.267 41.2681C229.332 44.3358 224.997 47.0121 220.259 49.2969C216.387 51.1648 212.417 52.2455 208.35 52.5388C206.405 52.6777 204.788 52.5057 202.915 52.1716C202.648 52.1253 202.424 51.9665 202.244 51.6952C200.834 49.5913 199.749 47.5248 198.988 45.4959C195.994 37.5212 194.205 29.3182 193.623 20.887C193.512 19.2859 193.586 17.6892 193.844 16.0969C193.873 15.9249 193.975 15.8323 194.149 15.819C203.109 15.1684 211.463 12.8914 219.211 8.98781C219.974 8.60407 221.686 7.6348 224.348 6.08C228.027 3.93305 231.722 2.39479 235.708 0.916076C235.897 0.845678 236.105 0.849958 236.291 0.928035C236.477 1.00611 236.626 1.1521 236.707 1.33621C238.509 5.40074 240.157 9.43661 241.65 13.4438C243.579 18.6221 245.094 24.0165 246.195 29.627C246.53 31.3273 246.724 33.0508 246.777 34.7975C246.781 34.9214 246.745 35.0433 246.676 35.146C246.606 35.2486 246.506 35.3269 246.39 35.3698C244.513 36.0667 242.775 37.0106 241.177 38.2015C241.14 38.2288 241.11 38.2642 241.089 38.3049C241.068 38.3457 241.057 38.3907 241.056 38.4364C241.056 38.4822 241.066 38.5275 241.085 38.5688C241.105 38.6101 241.134 38.6463 241.17 38.6746ZM232.483 37.1231C232.467 37.0915 232.459 37.0567 232.458 37.0213C232.457 36.9859 232.464 36.9507 232.479 36.9182C232.493 36.8857 232.515 36.8567 232.542 36.8333C232.569 36.8098 232.601 36.7924 232.635 36.7824C233.012 36.6765 233.447 36.6699 233.938 36.7625C235.789 37.1176 237.663 37.5013 239.562 37.9137C239.754 37.9534 239.938 37.9578 240.115 37.927C240.401 37.874 240.583 37.8233 240.66 37.7748C242.37 36.6831 244.082 35.7624 245.798 35.0125C245.875 34.9791 245.941 34.9254 245.989 34.8572C246.037 34.789 246.066 34.7089 246.072 34.6255C246.141 33.7014 246.107 32.8391 245.97 32.0386C245.07 26.7919 243.808 21.7372 242.182 16.8743C240.53 11.932 238.523 6.88938 236.161 1.74641C236.078 1.56336 235.942 1.50712 235.755 1.57769C233.523 2.42236 231.421 3.24938 229.449 4.05876C227.292 4.94533 225.361 6.14286 222.615 7.67781C220.359 8.9415 218.651 9.84461 217.491 10.3871C210.793 13.5232 203.782 15.4254 196.458 16.0936C195.924 16.1421 195.416 16.1531 194.933 16.1267C194.81 16.1195 194.69 16.1582 194.594 16.2353C194.499 16.3124 194.435 16.4223 194.417 16.5435C194.227 17.7609 194.158 18.8228 194.208 19.7292C194.665 28.1229 196.38 36.3689 199.352 44.4671C200.265 46.9481 201.403 49.1249 202.895 51.1858C203.034 51.3792 203.237 51.5174 203.468 51.5761C204.908 51.94 206.368 52.079 207.848 51.993C217.583 51.4207 225.926 45.9755 233.697 40.2492C233.765 40.1996 233.812 40.127 233.832 40.0441C233.851 39.9613 233.841 39.8734 233.803 39.796L232.483 37.1231ZM233.747 37.3282C233.724 37.3218 233.7 37.3214 233.677 37.3272C233.654 37.3329 233.633 37.3446 233.616 37.3609C233.599 37.3773 233.586 37.3979 233.58 37.4206C233.573 37.4433 233.572 37.4673 233.578 37.4903C233.9 38.8268 234.704 39.742 235.989 40.236C238.629 41.2461 240.89 42.126 242.771 42.8759C242.817 42.8942 242.867 42.899 242.915 42.8895C242.964 42.88 243.008 42.8567 243.043 42.8223C243.079 42.788 243.103 42.7442 243.114 42.6962C243.125 42.6481 243.122 42.5979 243.105 42.5517C242.679 41.3828 241.909 40.2768 240.793 39.2337C240.471 38.9315 240.001 38.7286 239.384 38.625C237.661 38.3339 235.782 37.9016 233.747 37.3282Z" fill="#0F5A8B"/>
<path d="M219.353 30.7783C221.586 30.7783 223.396 28.9684 223.396 26.7358C223.396 24.5032 221.586 22.6934 219.353 22.6934C217.12 22.6934 215.311 24.5032 215.311 26.7358C215.311 28.9684 217.12 30.7783 219.353 30.7783Z" fill="#0F5A8B"/>
<path d="M88.2442 27.6873C88.5279 27.9537 88.8674 28.0531 89.0025 27.9092C89.1375 27.7654 89.0171 27.4328 88.7334 27.1664C88.4497 26.9 88.1102 26.8007 87.9752 26.9445C87.8401 27.0884 87.9606 27.4209 88.2442 27.6873Z" fill="#0F5A8B"/>
<path d="M91.7689 28.7029L90.3251 27.8558C90.1423 27.7486 89.9072 27.8098 89.8 27.9926L89.7832 28.0211C89.676 28.2039 89.7372 28.4391 89.92 28.5463L91.3638 29.3933C91.5466 29.5006 91.7817 29.4393 91.8889 29.2565L91.9057 29.228C92.0129 29.0452 91.9517 28.8101 91.7689 28.7029Z" fill="#0F5A8B"/>
<path d="M92.7693 30.2667C92.9892 30.4703 93.3022 30.4897 93.4686 30.31C93.6349 30.1304 93.5915 29.8198 93.3717 29.6162C93.1519 29.4126 92.8388 29.3932 92.6724 29.5728C92.5061 29.7524 92.5495 30.0631 92.7693 30.2667Z" fill="#0F5A8B"/>
<path d="M95.1876 32.1477C95.8451 32.7417 96.5171 33.0695 96.6886 32.8797C96.86 32.6899 96.4661 32.0545 95.8086 31.4604C95.1511 30.8663 94.4792 30.5386 94.3077 30.7284C94.1362 30.9182 94.5302 31.5536 95.1876 32.1477Z" fill="#0F5A8B"/>
<path d="M97.7619 34.2912C97.9851 34.6233 98.2914 34.8083 98.446 34.7043C98.6007 34.6004 98.5452 34.2469 98.322 33.9148C98.0989 33.5827 97.7926 33.3977 97.6379 33.5017C97.4832 33.6056 97.5387 33.9591 97.7619 34.2912Z" fill="#0F5A8B"/>
<path d="M210.481 43.6631C213.047 43.6631 215.126 41.5837 215.126 39.0186C215.126 36.4535 213.047 34.374 210.481 34.374C207.916 34.374 205.837 36.4535 205.837 39.0186C205.837 41.5837 207.916 43.6631 210.481 43.6631Z" fill="#0F5A8B"/>
<path d="M99.151 35.0157C99.5943 35.0113 99.9284 35.1436 100.153 35.4127C100.332 35.6288 100.689 36.1427 101.225 36.9543C101.248 36.988 101.262 37.0262 101.269 37.0661C101.275 37.1061 101.272 37.147 101.261 37.1859C101.25 37.2249 101.231 37.261 101.205 37.2918C101.179 37.3226 101.146 37.3474 101.109 37.3645C100.286 37.7548 99.2106 35.8924 98.9658 35.3002C98.8886 35.115 98.9503 35.0201 99.151 35.0157Z" fill="#0F5A8B"/>
<path d="M73.5244 37.7285C73.8167 37.7285 74.0537 37.4915 74.0537 37.1992C74.0537 36.9069 73.8167 36.6699 73.5244 36.6699C73.2321 36.6699 72.9951 36.9069 72.9951 37.1992C72.9951 37.4915 73.2321 37.7285 73.5244 37.7285Z" fill="#0F5A8B"/>
<path d="M71.8534 36.7272L69.8037 36.7988C69.5718 36.8069 69.3904 37.0015 69.3985 37.2333L69.3998 37.273C69.4079 37.5049 69.6025 37.6863 69.8344 37.6782L71.8841 37.6067C72.116 37.5986 72.2974 37.404 72.2893 37.1721L72.288 37.1324C72.2799 36.9006 72.0853 36.7191 71.8534 36.7272Z" fill="#0F5A8B"/>
<path d="M78.2816 37.149L76.0752 37.0256C75.8508 37.0131 75.6588 37.1848 75.6462 37.4092L75.6392 37.5347C75.6267 37.7591 75.7984 37.9511 76.0228 37.9637L78.2291 38.087C78.4535 38.0996 78.6455 37.9279 78.6581 37.7035L78.6651 37.578C78.6777 37.3536 78.5059 37.1615 78.2816 37.149Z" fill="#0F5A8B"/>
<path d="M81.9493 39.012C80.9701 38.8179 80.3371 38.5764 80.0504 38.2875C80.0079 38.2438 79.9782 38.1892 79.9646 38.1297C79.9509 38.0703 79.9537 38.0082 79.9728 37.9503C79.9919 37.8923 80.0265 37.8407 80.0728 37.801C80.1192 37.7614 80.1755 37.7351 80.2357 37.7252C80.8411 37.6259 82.6671 37.7351 82.2933 38.8168C82.236 38.98 82.1213 39.0451 81.9493 39.012Z" fill="#0F5A8B"/>
<path d="M84.9362 38.7735L85.8162 39.3458C85.8708 39.3812 85.9162 39.429 85.9486 39.4853C85.9811 39.5416 85.9997 39.6049 86.003 39.6698C86.0062 39.7348 85.994 39.7996 85.9672 39.8588C85.9405 39.9181 85.9001 39.9702 85.8492 40.0107L85.6111 40.2026C85.5511 40.2502 85.4791 40.28 85.4031 40.2888C85.3271 40.2975 85.2502 40.2849 85.181 40.2522L83.6626 39.5476C83.5802 39.5089 83.5129 39.4438 83.4715 39.3627C83.4302 39.2816 83.417 39.189 83.434 39.0995C83.4511 39.01 83.4974 38.9288 83.5658 38.8685C83.6341 38.8083 83.7206 38.7726 83.8115 38.7669L84.6848 38.7107C84.7732 38.7039 84.8614 38.726 84.9362 38.7735Z" fill="#0F5A8B"/>
<path d="M103.737 39.7201L104.888 41.566C104.917 41.612 104.932 41.6648 104.933 41.719C104.934 41.7731 104.921 41.8265 104.894 41.8736C104.867 41.9206 104.828 41.9596 104.781 41.9864C104.734 42.0132 104.681 42.0268 104.627 42.0258L104.183 42.0192C104.133 42.0181 104.083 42.0042 104.039 41.9787C103.995 41.9533 103.958 41.9171 103.932 41.8736L102.556 39.5778C102.521 39.5191 102.507 39.4502 102.517 39.3825C102.526 39.3148 102.558 39.2523 102.608 39.2054C102.658 39.1584 102.722 39.1297 102.79 39.1241C102.858 39.1184 102.926 39.1361 102.983 39.1742L103.651 39.6308C103.685 39.6542 103.715 39.6847 103.737 39.7201Z" fill="#0F5A8B"/>
<path d="M178.3 46.9844L178.648 47.0902C178.767 47.1255 178.802 47.2071 178.754 47.335C178.658 47.5997 178.618 47.8015 178.707 48.1356C179.962 52.7669 181.236 56.8369 182.528 60.3457C182.816 61.1297 183.451 62.0097 183.755 63.0153C184.106 64.1754 184.591 65.2417 185.211 66.2143C185.232 66.2468 185.246 66.2832 185.252 66.3213C185.258 66.3593 185.257 66.3983 185.247 66.4357C185.238 66.4731 185.221 66.5083 185.198 66.5391C185.175 66.5698 185.145 66.5955 185.112 66.6145C183.719 67.4019 181.949 68.5994 180.365 69.3933C176.695 71.2326 172.923 72.8249 169.048 74.1702C167.748 74.6234 167.397 73.7501 166.954 72.6882C165.095 68.2201 163.062 63.13 160.857 57.4181C160.134 55.5457 158.911 52.5254 157.188 48.3572C156.994 47.8897 157.137 47.5831 157.618 47.4376L175.714 41.9759C175.773 41.9575 175.836 41.9545 175.896 41.9672C175.956 41.98 176.012 42.008 176.058 42.0487C176.307 42.2736 176.506 42.5901 176.656 42.9981C177.135 44.2861 177.612 45.5497 178.089 46.7892C178.107 46.8356 178.135 46.8774 178.172 46.9112C178.208 46.945 178.252 46.9701 178.3 46.9844ZM162.422 50.3553C162.724 50.3972 162.785 50.5428 162.607 50.792L162.081 51.5297C162.052 51.5698 162.031 51.6108 162.019 51.6492C162.007 51.6877 162.005 51.7227 162.011 51.7513L162.336 53.3326C162.342 53.3669 162.356 53.3995 162.377 53.4279C162.397 53.4564 162.423 53.4801 162.453 53.4974C162.483 53.5147 162.516 53.5252 162.55 53.5282C162.584 53.5311 162.618 53.5265 162.65 53.5145C167.431 51.7921 172.322 49.7676 177.321 47.4409C177.566 47.3284 177.639 47.1476 177.54 46.8983L176.018 43.061C175.953 42.8979 175.826 42.7671 175.666 42.6971C175.505 42.627 175.324 42.6235 175.161 42.6872C173.101 43.4789 171.011 44.1846 168.889 44.8043C164.994 45.9445 161.76 46.8631 159.186 47.56C158.884 47.6416 158.47 47.6912 157.942 47.7088C157.908 47.7102 157.874 47.7199 157.844 47.7373C157.814 47.7547 157.789 47.7792 157.771 47.8085C157.753 47.8379 157.742 47.8713 157.739 47.9059C157.737 47.9404 157.743 47.9749 157.757 48.0066C158.946 50.6574 160.28 53.7505 161.76 57.2857C161.956 57.7555 162.192 58.3631 162.468 59.1085C162.994 60.5376 163.487 61.3878 163.847 62.7143C163.938 63.0539 164.169 63.6395 164.542 64.4709C164.553 64.4974 164.582 64.5051 164.628 64.4941C164.677 64.4852 164.695 64.4577 164.684 64.4114C164.616 64.0761 164.395 63.3263 164.023 62.1619C162.625 57.7687 161.707 54.8885 161.27 53.5211C160.959 52.5508 161.039 51.6113 161.509 50.7026C161.661 50.4093 161.892 50.2836 162.203 50.3255L162.422 50.3553ZM167.258 68.7317C167.263 68.7446 167.271 68.7562 167.281 68.766C167.291 68.7757 167.303 68.7834 167.316 68.7887C167.329 68.7939 167.343 68.7965 167.356 68.7964C167.37 68.7963 167.384 68.7934 167.397 68.788C173.226 66.2981 178.105 64.0629 182.035 62.0825C182.187 62.0053 182.235 61.8873 182.177 61.7285C180.638 57.4148 179.24 53.0359 177.983 48.5921C177.965 48.5294 177.933 48.4715 177.89 48.4223C177.848 48.3731 177.795 48.3339 177.735 48.3074C177.675 48.2809 177.611 48.2678 177.546 48.269C177.48 48.2701 177.416 48.2856 177.358 48.3142C174.206 49.8734 171.152 51.2 168.194 52.2938C166.015 53.0988 164.221 53.7736 162.812 54.3184C162.78 54.331 162.753 54.3556 162.739 54.3869C162.724 54.4183 162.722 54.4542 162.733 54.4871C164.069 58.6663 165.411 62.9878 166.759 67.4515C166.816 67.6456 166.982 68.0723 167.258 68.7317ZM168.356 72.9132C168.368 72.9569 168.388 72.9978 168.416 73.0333C168.445 73.0689 168.48 73.0984 168.52 73.12C168.56 73.1417 168.605 73.155 168.65 73.1593C168.696 73.1635 168.742 73.1586 168.786 73.1447C171.228 72.3706 173.563 71.3418 176.299 70.1509C179.012 68.9732 181.47 67.672 183.673 66.2474C183.787 66.1739 183.87 66.0622 183.909 65.9324C183.948 65.8027 183.939 65.6633 183.884 65.5394L182.819 63.1179C182.808 63.0933 182.792 63.0713 182.773 63.0529C182.753 63.0346 182.73 63.0204 182.705 63.0111C182.679 63.0019 182.652 62.9978 182.626 62.9991C182.599 63.0004 182.572 63.007 182.548 63.0187C178.325 65.0697 173.456 67.264 167.943 69.6018C167.83 69.6492 167.738 69.736 167.684 69.8466C167.63 69.9571 167.618 70.0839 167.648 70.2038L168.356 72.9132Z" fill="#0F5A8B"/>
<path d="M86.3257 103.315L86.2462 104.161C86.2352 104.287 86.1691 104.33 86.0478 104.291C85.8118 104.211 85.6508 104.067 85.5648 103.857C84.987 102.43 84.214 100.637 83.2458 98.4782C79.8076 90.8189 78.8957 82.8596 80.51 74.6004C80.6589 73.8296 81.1518 73.5815 81.906 73.307C93.3223 69.152 102.386 65.1922 111.48 58.8539C115.113 56.3243 118.38 53.3901 121.282 50.0511C121.845 49.4071 122.91 47.9957 124.478 45.8167C125.34 44.6214 126.026 43.8628 126.535 43.5408C127.508 42.9255 128.542 42.6564 129.638 42.7336C133.132 42.9784 134.994 46.26 135.887 49.2671C136.461 51.199 136.868 52.8652 137.108 54.2656C138.16 60.3657 138.986 67.0503 139.586 74.3192C140.217 81.9433 140.316 89.8507 139.884 98.0415C139.681 101.846 139.031 105.627 137.935 109.385C137.389 111.254 135.633 114.526 133.281 114.294C132.884 114.254 132.305 114.002 131.544 113.537C128.024 111.378 123.761 109.486 118.755 107.863C114.445 106.465 110.025 105.406 105.493 104.687C99.0794 103.673 92.7665 103.149 86.5539 103.116C86.4964 103.116 86.4411 103.137 86.3989 103.174C86.3567 103.21 86.3306 103.261 86.3257 103.315ZM132.609 112.151C131.764 111.268 131.162 110.262 130.803 109.13C130.044 106.733 129.432 104.253 128.967 101.69C127.635 94.3574 126.688 86.2736 126.125 77.4388C125.953 74.7394 125.762 69.6769 125.553 62.2513C125.444 58.3445 125.781 54.3053 125.937 50.2297C125.943 50.0555 126.039 49.3035 126.224 47.9736C126.483 46.1079 127.333 44.9169 128.934 44.2421C129.379 44.0546 129.377 43.8793 128.927 43.7161C128.762 43.6566 128.52 43.6952 128.203 43.8319C125.748 44.8839 125.44 47.4212 125.272 49.7335C125.146 51.4273 125.007 53.7705 124.855 56.7632C124.633 61.0902 124.855 64.6365 124.868 69.281C124.873 70.6881 124.934 72.6542 125.053 75.1793C125.523 85.312 126.565 95.2991 128.788 104.932C129.367 107.436 130.072 110.258 131.63 112.329C132.183 113.064 132.867 113.426 133.681 113.418C134.171 113.411 134.219 113.27 133.826 112.994C133.509 112.772 132.966 112.524 132.609 112.151Z" fill="#0F5A8B"/>
<path d="M93.4899 44.6326C93.0532 44.0735 92.6827 43.8585 92.0045 43.4714C91.8568 43.3854 91.8469 43.2862 91.9748 43.1737L92.0409 43.1142C92.1358 43.0303 92.2372 43.0248 92.3453 43.0976L94.5716 44.5896C94.5954 44.6061 94.614 44.6289 94.6255 44.6555C94.637 44.6821 94.6409 44.7114 94.6368 44.7404C94.6327 44.7693 94.6208 44.7968 94.6023 44.8197C94.5838 44.8427 94.5595 44.8603 94.5319 44.8707C94.135 45.0229 93.7711 44.9898 93.4899 44.6326Z" fill="#0F5A8B"/>
<path d="M106.059 45.8233C105.92 45.4792 105.905 45.2146 106.016 45.0293C106.031 45.0035 106.052 44.9814 106.077 44.9645C106.102 44.9477 106.13 44.9365 106.159 44.9318C106.189 44.927 106.219 44.9289 106.248 44.9372C106.277 44.9454 106.304 44.96 106.327 44.9797C106.862 45.4594 107.971 47.1696 107.379 47.9437C107.339 47.9963 107.286 48.0379 107.226 48.0646C107.166 48.0912 107.1 48.1021 107.034 48.0961C106.969 48.0902 106.906 48.0676 106.851 48.0305C106.797 47.9934 106.753 47.9431 106.724 47.8842C106.529 47.496 106.345 46.9491 106.171 46.2434C106.109 45.9942 106.072 45.8541 106.059 45.8233Z" fill="#0F5A8B"/>
<path d="M235.913 198.105C239.457 198.094 242.255 198.159 244.306 198.3C244.782 198.333 246.474 198.391 249.381 198.472C251.656 198.538 253.984 198.713 256.364 198.995C256.388 198.998 256.412 198.992 256.432 198.978C256.451 198.964 256.465 198.943 256.47 198.919C257.678 193.381 261.043 189.896 266.563 188.462C267.776 188.147 269.344 187.931 271.267 187.814C271.348 187.809 271.425 187.775 271.484 187.719C271.542 187.662 271.579 187.587 271.588 187.506C271.658 186.838 271.666 186.132 271.611 185.389C271.417 182.716 271.319 180.836 271.316 179.749C271.283 170.612 271.276 160.853 271.293 150.472C271.3 147.161 271.581 142.453 271.604 138.222C271.631 133.723 271.745 129.589 271.948 125.82C272.048 123.984 271.862 120.233 272.127 117.55C272.244 116.374 272.292 115.332 272.272 114.424C272.27 114.347 272.24 114.273 272.186 114.218C272.133 114.162 272.061 114.128 271.985 114.123C270.825 114.041 269.74 113.896 268.73 113.686C267.148 113.357 266.102 113.039 265.59 112.73C264.333 111.971 263.8 110.654 263.992 108.777C264.131 107.44 264.36 105.967 264.677 104.357C264.711 104.186 264.678 104.009 264.584 103.862C264.49 103.716 264.343 103.611 264.174 103.57C259.918 102.533 255.463 101.372 250.81 100.086C250.574 100.02 250.29 100.053 249.959 100.186C249.796 100.25 249.609 100.436 249.397 100.745C248.76 101.673 247.89 102.012 246.787 101.76C245.336 101.43 243.659 100.895 241.755 100.156C241.645 100.113 241.525 100.104 241.41 100.13C241.295 100.155 241.189 100.214 241.107 100.298C239.536 101.913 238.239 102.839 235.857 102.309C234.499 102.005 233.105 101.5 231.676 100.794C231.093 100.508 230.678 100.163 230.428 99.7589C230.146 99.3046 229.955 98.7632 229.856 98.1347C229.81 97.848 229.769 97.6065 229.734 97.4102C229.714 97.2933 229.648 97.2183 229.535 97.1853C225.614 96.0054 222.292 94.7935 219.568 93.5497C218.552 93.0865 218.41 91.5549 218.529 90.5856C218.794 88.3924 219.396 85.8154 221.1 84.3763C221.419 84.1095 221.862 84.0786 222.426 84.2837C223.668 84.738 226.5 85.6974 230.921 87.1618C231.408 87.3239 231.798 87.5521 232.178 87.7175C232.271 87.7594 232.352 87.7429 232.42 87.6679C233.282 86.7196 234.204 86.3424 235.186 86.5365C236.222 86.7394 237.573 87.1199 239.238 87.6778C241.669 88.4949 242.116 90.3706 242.711 92.5573C242.751 92.7028 242.883 92.8517 243.108 93.0038C243.197 93.0634 243.369 93.1251 243.624 93.1891C245.96 93.7801 247.831 94.4704 249.238 95.26C250.198 95.7992 250.052 97.6054 250.122 98.3001C250.127 98.3524 250.143 98.403 250.17 98.4481C250.197 98.4933 250.233 98.532 250.277 98.5614C250.729 98.8636 251.054 99.04 251.253 99.0907C255.69 100.196 260.031 101.318 264.277 102.458C264.484 102.516 264.8 102.47 265.223 102.323C265.32 102.29 265.396 102.22 265.451 102.114C265.736 101.552 266.083 100.649 266.864 100.192C268.008 99.5263 269.205 99.0433 270.453 98.7434C270.486 98.7357 270.518 98.7206 270.544 98.6994C270.571 98.6781 270.593 98.6512 270.608 98.6205C270.624 98.5898 270.632 98.5561 270.632 98.5219C270.633 98.4876 270.626 98.4537 270.612 98.4225C270.42 98.0013 270.256 97.6285 270.119 97.3044C265.79 86.9919 263.209 80.8973 262.378 79.0205C261.368 76.7402 259.792 73.4674 257.651 69.2021C256.983 67.8756 256.334 66.162 255.676 64.9082C255.624 64.8096 255.548 64.7264 255.453 64.6671C255.359 64.6078 255.251 64.5746 255.14 64.5708C254.787 64.5598 254.364 64.5752 253.87 64.6171C252.182 64.7649 250.782 64.2885 249.668 63.188C249.589 63.1109 249.494 63.0601 249.384 63.0359C247.151 62.533 245.331 62.1261 243.532 61.147C242.98 60.847 242.393 60.3729 241.769 59.7245C240.789 58.7122 239.965 57.5654 239.294 56.2841C238.861 55.4603 238.623 54.5605 238.742 53.5979C238.931 52.074 239.454 50.8577 240.31 49.9491C243.408 46.6564 247.243 45.0244 251.815 45.0531C253.866 45.0663 255.716 45.5218 257.363 46.4193C257.934 46.7303 258.483 47.2872 259.01 48.0899C260.177 49.8697 260.909 51.4157 261.207 52.7279C261.749 55.1196 260.34 57.8587 258.584 59.5293C258.492 59.6163 258.431 59.7309 258.41 59.8556C258.389 59.9804 258.409 60.1085 258.468 60.2207C259.46 62.1328 258.147 63.3898 256.493 63.9754C256.459 63.9876 256.428 64.007 256.403 64.0323C256.377 64.0576 256.358 64.0881 256.345 64.1218C256.332 64.1554 256.327 64.1914 256.33 64.2273C256.333 64.2631 256.343 64.2979 256.361 64.3293C256.941 65.3923 257.474 66.4917 257.962 67.6275C258.361 68.5604 258.885 69.6631 259.533 70.9356C262.069 75.9087 264.482 81.1377 266.771 86.6225C268.992 91.9375 270.604 95.808 271.608 98.2339C271.764 98.6177 272.087 98.7235 272.577 98.5515C272.68 98.5162 272.785 98.5052 272.891 98.5184C274.093 98.6596 274.952 98.7919 275.468 98.9154C278.273 99.5946 280.138 101.179 281.062 103.669C281.846 105.783 281.545 107.784 280.553 109.825C280.085 110.785 279.4 111.513 278.498 112.009C278.429 112.046 278.378 112.109 278.354 112.183C278.33 112.258 278.335 112.339 278.369 112.409C280.656 117.188 282.339 120.798 283.417 123.24C284.103 124.79 285.053 127.076 286.266 130.097C286.303 130.19 286.37 130.266 286.457 130.315C286.543 130.364 286.644 130.382 286.742 130.365C289.134 129.975 289.537 131.46 290.282 133.495C291.223 136.069 292.102 138.697 292.918 141.381C292.957 141.508 293.029 141.622 293.126 141.711C293.224 141.8 293.344 141.861 293.474 141.887C293.915 141.978 294.315 142.213 294.675 142.592C294.767 142.689 294.82 142.816 294.824 142.95C294.828 143.083 294.783 143.214 294.698 143.317C293.09 145.272 290.411 146.393 288.026 146.654C286.769 146.791 285.908 146.304 285.445 145.192C284.662 143.304 283.853 140.963 283.017 138.169C282.461 136.312 282.109 134.665 281.959 133.227C281.862 132.307 282.275 131.617 283.199 131.156C283.797 130.858 284.4 130.672 285.009 130.597C285.139 130.582 285.18 130.513 285.131 130.392C282.754 124.539 280.234 118.841 277.572 113.299C277.547 113.246 277.504 113.204 277.451 113.18C277.397 113.155 277.337 113.151 277.281 113.167L273.751 114.176C273.704 114.189 273.663 114.218 273.634 114.257C273.605 114.296 273.591 114.343 273.592 114.391C273.641 116.592 273.564 119.797 273.361 124.007C273.292 125.436 273.258 127.53 273.258 130.289C273.258 131.361 273.19 133.455 273.053 136.571C272.828 141.679 273.053 148.196 272.716 152.616C272.654 153.414 272.623 154.187 272.623 154.935C272.619 158.534 272.615 162.134 272.613 165.735C272.613 168.673 272.726 170.751 272.855 173.268C272.901 174.155 272.923 175.162 272.921 176.292C272.914 179.666 272.921 183.384 272.941 187.446C272.941 187.533 272.975 187.617 273.036 187.68C273.096 187.742 273.178 187.78 273.265 187.784C278.727 188.039 283.421 189.871 286.421 194.513C286.964 195.349 287.212 196.329 287.652 197.189C287.859 197.595 288.033 197.581 288.174 197.149C290.173 191.056 292.407 183.888 294.877 175.646C295.73 172.792 296.554 170.625 297.728 168.058C297.738 168.037 297.742 168.014 297.741 167.991C297.739 167.968 297.731 167.946 297.718 167.926C297.705 167.907 297.687 167.892 297.666 167.882C297.645 167.872 297.622 167.868 297.599 167.869C296.858 167.911 296.354 167.919 296.087 167.892C294.495 167.736 293.645 166.893 293.537 165.365C293.325 162.355 295.26 160.793 298.125 160.826C301.169 160.863 303.593 163.287 303.537 166.341C303.531 166.751 303.238 167.001 302.661 167.092C301.794 167.224 300.739 167.34 299.24 167.555C299.123 167.573 299.04 167.634 298.992 167.74C297.735 170.47 296.92 172.438 296.547 173.642C294.728 179.526 292.474 186.908 289.786 195.789C289.557 196.544 289.005 198.036 288.677 198.495C288.667 198.51 288.662 198.528 288.663 198.546C288.664 198.564 288.671 198.581 288.683 198.594C288.694 198.607 288.711 198.616 288.728 198.62C288.746 198.623 288.764 198.62 288.78 198.611C289.122 198.43 289.381 198.219 289.557 197.976C292.179 194.401 293.819 192.184 294.476 191.324C297.288 187.635 301.04 184.995 305.327 182.895C305.452 182.833 305.596 182.823 305.728 182.866C305.86 182.909 305.971 183.003 306.035 183.126C306.23 183.5 305.998 183.738 305.79 184.042C304.445 186.038 302.555 188.664 300.12 191.919C297.198 195.831 293.65 198.74 289.478 200.646C288.896 200.913 288.412 201.2 288.026 201.509C287.291 202.102 286.844 202.443 286.683 202.531C286.484 202.642 286.313 202.663 286.17 202.594C286.051 202.537 286 202.448 286.018 202.326L286.071 201.956C286.088 201.828 286.022 201.765 285.872 201.767C280.767 201.818 276.356 201.767 272.64 201.615C270.551 201.529 268.346 201.469 266.024 201.436C261.33 201.372 258.749 201.33 258.279 201.311C257.576 201.28 257.077 200.979 256.784 200.408C256.301 199.475 254.862 199.693 253.846 199.911C253.518 199.982 252.62 199.976 251.154 199.895C248.52 199.753 247.128 199.759 243.353 199.719C242.943 199.715 241.239 199.659 238.242 199.551C234.698 199.423 231.057 199.521 227.319 199.845C225.418 200.011 222.22 200.179 217.725 200.351C215.882 200.422 213.677 200.454 211.113 200.447C197.829 200.419 189.227 200.417 185.306 200.444C183.523 200.457 182.15 200.487 180.45 200.672C177.845 200.952 176.211 201.092 175.547 201.092C160.024 201.081 145.82 201.087 132.936 201.109C132.665 201.111 131.872 201.195 130.557 201.36C129.796 201.456 129.112 200.404 128.685 199.825C128.159 199.104 127.223 198.998 126.343 199.058C117.171 199.675 109.427 200.145 103.113 200.467C103.069 200.469 103.026 200.484 102.99 200.509C102.953 200.534 102.925 200.569 102.908 200.61C102.89 200.651 102.885 200.696 102.892 200.74C102.899 200.783 102.919 200.824 102.948 200.857C103.246 201.19 103.471 201.547 103.623 201.926C103.642 201.974 103.649 202.025 103.643 202.076C103.638 202.127 103.62 202.176 103.591 202.218C103.562 202.26 103.524 202.295 103.478 202.319C103.433 202.343 103.383 202.356 103.332 202.356C84.1647 202.455 65.3825 202.462 46.9851 202.376C44.9175 202.366 42.7772 202.167 40.8684 202.002C40.8342 201.999 40.8015 201.987 40.7739 201.966C40.7464 201.946 40.725 201.918 40.7123 201.886C40.6996 201.854 40.6961 201.819 40.702 201.785C40.708 201.752 40.7232 201.72 40.746 201.694C45.4656 196.523 51.0783 192.962 57.5842 191.013C57.5968 191.009 57.608 191.001 57.6162 190.991C57.6245 190.98 57.6295 190.968 57.6305 190.955C57.6316 190.942 57.6287 190.928 57.6222 190.917C57.6157 190.905 57.6059 190.896 57.5941 190.89C55.918 190.01 54.2111 188.837 52.4732 187.37C50.1752 185.43 47.8937 183.368 45.6288 181.184C44.8436 180.426 44.2129 179.853 43.7365 179.467C42.9228 178.806 42.3295 178.183 41.9568 177.598C41.9251 177.549 41.9039 177.493 41.8945 177.435C41.8852 177.377 41.8879 177.317 41.9024 177.26C41.917 177.203 41.9432 177.15 41.9793 177.103C42.0154 177.057 42.0606 177.018 42.1123 176.99C42.346 176.862 42.6096 176.846 42.9029 176.943C47.3821 178.408 51.4455 180.765 55.0932 184.016C55.4328 184.32 56.2356 185.065 57.5015 186.249C57.9646 186.681 58.0881 186.6 57.872 186.004C55.8254 180.323 54.4051 174.265 53.6112 167.829C53.3046 165.335 53.1425 164.031 53.1249 163.916C53.1145 163.851 53.1215 163.784 53.1451 163.723C53.1688 163.661 53.2084 163.607 53.2598 163.566C53.3112 163.524 53.3726 163.497 53.4378 163.487C53.503 163.477 53.5697 163.485 53.631 163.509C54.0975 163.691 54.4514 163.979 54.769 164.422C56.5973 166.989 58.0804 169.658 59.2184 172.428C60.0388 174.419 60.7986 176.6 61.4977 178.971C61.5043 178.993 61.5186 179.01 61.5407 179.021C61.5737 179.034 61.6013 179.041 61.6234 179.041C61.6565 179.036 61.6741 179.017 61.6763 178.984C61.7469 174.99 62.3842 171.116 63.5884 167.36C63.9192 166.33 64.3239 165.333 64.8024 164.369C64.8192 164.336 64.845 164.308 64.8768 164.288C64.9087 164.268 64.9453 164.258 64.9827 164.258C65.0201 164.258 65.0568 164.268 65.0886 164.288C65.1205 164.308 65.1462 164.336 65.163 164.369C65.6824 165.411 65.7453 166.285 65.9272 167.389C66.7233 172.277 66.9582 177.062 66.6318 181.747C66.4444 184.433 65.8103 187.155 64.7297 189.914C64.7037 189.981 64.6968 190.053 64.7096 190.123C64.7224 190.193 64.7545 190.258 64.8022 190.311C64.85 190.364 64.9115 190.402 64.9799 190.422C65.0483 190.442 65.1208 190.443 65.1895 190.424C66.1532 190.168 67.1082 190.07 68.0543 190.129C68.1208 190.133 68.1862 190.111 68.2362 190.068C68.2863 190.024 68.3172 189.963 68.3222 189.898C68.4766 187.975 68.5715 186.555 68.6067 185.64C68.7655 181.51 68.8063 176.447 68.7291 170.453C68.7093 168.962 68.7291 167.492 68.7887 166.043C68.8482 164.617 68.9839 162.116 68.9905 160.161C69.007 155.457 69.0136 149.661 69.2022 144.183C69.3389 140.176 69.4029 137.06 69.3941 134.835C69.3742 129.861 69.4172 126.241 69.5231 123.974C69.7282 119.445 69.6918 115.37 69.748 110.96C69.7679 109.442 70.016 108.023 70.0689 106.564C70.0799 106.242 69.9256 106.086 69.6058 106.097C68.8251 106.127 67.1578 106.256 66.2249 105.972C64.8818 105.568 63.8685 104.713 63.1848 103.408C63.1508 103.341 63.0957 103.287 63.0282 103.255C62.9606 103.223 62.8843 103.214 62.811 103.229C59.9495 103.835 57.0781 103.646 54.8583 101.721C51.4146 98.7335 50.6339 93.6952 51.3319 89.269C51.6495 87.2511 52.3695 85.5507 53.4921 84.1679C55.2961 81.9493 57.6779 80.9723 60.6376 81.237C60.6931 81.2417 60.749 81.2346 60.8016 81.2161C60.8542 81.1976 60.9022 81.1681 60.9426 81.1296C60.9829 81.0912 61.0146 81.0446 61.0356 80.9929C61.0566 80.9413 61.0664 80.8858 61.0643 80.8301C61.0224 79.5686 61.2286 78.3633 61.6829 77.2143C62.2023 75.9043 63.7902 75.4776 65.2027 75.1666C68.6123 74.419 71.5995 73.8257 74.1643 73.3869C76.4403 72.9987 78.3998 72.83 80.0428 72.8807C80.2303 72.8874 80.367 72.9028 80.453 72.927C80.4955 72.9394 80.5347 72.9613 80.5673 72.9912C80.6 73.0212 80.6253 73.0582 80.6413 73.0995C80.6573 73.1408 80.6636 73.1852 80.6596 73.2293C80.6556 73.2734 80.6415 73.316 80.6184 73.3538C80.2148 74.0198 79.9788 74.6263 79.9105 75.1732C79.3327 79.7759 79.0658 82.741 79.1099 84.0687C79.1165 84.3135 79.1739 85.4923 79.2819 87.605C79.5598 93.0667 81.6108 98.6408 84.4988 103.285C84.5495 103.365 84.5286 103.411 84.4359 103.424C82.8547 103.671 81.2492 103.794 79.6194 103.792C79.5069 103.792 79.4308 103.843 79.3911 103.947C79.2478 104.302 79.1662 104.653 79.1463 104.999C78.6005 115.125 78.2234 121.659 78.0282 129.045C77.8892 134.354 77.6963 140.805 77.4493 148.398C77.3699 150.799 77.3313 153.005 77.3335 155.014C77.3401 158.193 76.9927 161.074 77.0192 164.28C77.0369 166.598 76.9553 170.745 76.7744 176.722C76.6443 180.978 76.6244 185.447 76.7149 190.129C76.7157 190.177 76.7259 190.223 76.7449 190.266C76.7639 190.31 76.7912 190.349 76.8253 190.381C76.8595 190.414 76.8998 190.439 76.9438 190.456C76.9879 190.473 77.0349 190.481 77.0821 190.48C79.5433 190.414 82.0993 190.46 84.7502 190.619C87.4276 190.78 89.6032 191.113 91.2771 191.618C94.7329 192.661 97.7521 194.47 100.335 197.043C100.831 197.539 101.284 198.343 101.707 198.757C101.928 198.973 102.252 199.064 102.68 199.031C103.606 198.959 104.241 198.907 104.586 198.876C108.857 198.505 115.922 198.121 125.78 197.721C126.083 197.708 126.111 197.612 125.866 197.434C120.565 193.534 115.261 190.114 109.955 187.172C108.744 186.499 108.838 186.163 110.236 186.163L117.977 186.16C118.001 186.16 118.025 186.153 118.046 186.141C118.067 186.128 118.083 186.11 118.095 186.089C118.106 186.067 118.111 186.043 118.11 186.019C118.108 185.994 118.1 185.971 118.086 185.951C117.254 184.765 116.252 183.499 115.079 182.153C114.982 182.043 114.846 181.784 114.672 181.376C114.57 181.142 114.586 180.944 114.718 180.781C114.828 180.644 114.974 180.561 115.155 180.533C115.307 180.508 115.431 180.557 115.525 180.678C116.63 182.092 118.064 183.859 119.826 185.981C120.068 186.272 120.409 186.451 120.848 186.517C120.902 186.525 120.956 186.52 121.008 186.502C121.059 186.485 121.105 186.455 121.142 186.416C121.18 186.376 121.207 186.329 121.222 186.277C121.237 186.225 121.239 186.17 121.228 186.117L119.889 179.497C119.801 179.067 119.952 178.772 120.342 178.611C120.357 178.604 120.367 178.6 120.372 178.597C120.76 178.463 120.996 178.585 121.08 178.965L122.658 186.15C122.715 186.41 122.852 186.463 123.068 186.308C123.222 186.198 123.334 186.011 123.402 185.746C124.081 183.181 124.681 181.139 125.202 179.62C125.338 179.22 125.549 179.123 125.833 179.328C125.86 179.348 125.895 179.366 125.939 179.381C126.023 179.411 126.094 179.469 126.141 179.544C126.187 179.62 126.206 179.71 126.194 179.798C125.96 181.538 125.411 183.649 124.547 186.13C124.536 186.159 124.532 186.19 124.535 186.22C124.538 186.251 124.547 186.28 124.562 186.306C124.577 186.333 124.598 186.356 124.623 186.373C124.647 186.391 124.676 186.402 124.705 186.408L126.207 186.686C126.308 186.704 126.411 186.697 126.503 186.664C126.596 186.631 126.676 186.575 126.733 186.5C127.801 185.133 128.796 183.564 129.72 181.793C129.908 181.436 130.201 181.231 130.6 181.178C130.678 181.169 130.752 181.168 130.825 181.174C131.202 181.216 131.308 181.408 131.143 181.75C130.367 183.353 129.381 184.908 128.185 186.414C128.161 186.445 128.146 186.482 128.142 186.521C128.137 186.56 128.143 186.6 128.159 186.636C128.175 186.672 128.2 186.703 128.232 186.725C128.264 186.748 128.302 186.762 128.341 186.765C131.479 186.972 135.938 187.221 141.719 187.513C142.794 187.569 143.432 186.748 144.061 185.72C144.674 184.716 145.229 183.504 145.725 182.084C147.13 178.046 148.232 173.772 149.033 169.262C150.546 160.742 151.233 152.007 151.094 143.055C151.084 142.476 151.279 141.682 151.375 141.292C151.39 141.23 151.415 141.175 151.448 141.133C151.481 141.09 151.52 141.063 151.56 141.054C153.992 140.541 157.237 140.654 159.979 140.458C164.381 140.143 168.635 139.789 172.739 139.396C183.241 138.391 195.28 137.161 208.856 135.708C213.887 135.17 220.155 134.569 227.66 133.905C229.797 133.718 231.995 133.563 234.256 133.442C238.484 133.217 242.236 132.963 245.513 132.681C246.021 132.637 246.591 132.651 247.224 132.724C247.361 132.739 247.487 132.805 247.579 132.907C247.671 133.009 247.722 133.142 247.723 133.28C247.73 134.334 247.715 135.083 247.68 135.526C246.904 145.115 246.462 151.225 246.354 153.856C246.056 161.017 245.793 166.531 245.566 170.397C245.37 173.724 244.934 177.112 244.26 180.559C243.541 184.224 242.297 188.056 240.528 192.055C239.401 194.604 237.852 196.584 235.88 197.996C235.777 198.069 235.788 198.105 235.913 198.105ZM260.436 53.4788C260.407 53.4699 260.377 53.4686 260.351 53.4751C260.325 53.4817 260.304 53.4958 260.291 53.5152C259.554 54.6885 258.574 55.6379 257.35 56.3635C253.951 58.3726 250.281 59.5017 246.34 59.7509C245.034 59.8336 243.856 59.6054 242.619 59.6285C242.564 59.6307 242.523 59.6594 242.496 59.7146C242.454 59.805 242.481 59.8634 242.576 59.8899C243.416 60.1259 243.899 60.2483 244.025 60.2571C244.404 60.2813 245.387 60.2957 246.972 60.3001C248.194 60.3001 249.174 60.2383 249.913 60.1148C253.252 59.5569 256.172 58.3097 258.673 56.3734C259.284 55.8992 259.918 54.9862 260.575 53.6343C260.582 53.6222 260.585 53.6087 260.585 53.5949C260.585 53.581 260.582 53.5671 260.576 53.5541C260.569 53.5411 260.56 53.5294 260.549 53.5198C260.537 53.5102 260.523 53.503 260.509 53.4987L260.436 53.4788ZM230.018 93.639C230.4 91.7644 231.088 89.9692 232.083 88.2534C232.092 88.237 232.097 88.2188 232.098 88.2C232.1 88.1813 232.097 88.1625 232.09 88.145C232.083 88.1276 232.072 88.1119 232.058 88.0992C232.044 88.0864 232.028 88.077 232.01 88.0715C229.641 87.3239 226.565 86.2542 222.78 84.8626C222.317 84.6928 221.899 84.6366 221.526 84.6939C221.414 84.7094 221.326 84.7656 221.262 84.8626C220.316 86.3182 219.801 87.2411 219.717 87.6315C219.419 88.9988 219.232 90.0971 219.155 90.9264C219.069 91.8592 219.062 92.5374 219.932 92.8881C223.723 94.4098 226.933 95.5533 229.562 96.3185C229.672 96.3494 229.732 96.3086 229.74 96.1961C229.835 94.9435 229.928 94.0911 230.018 93.639ZM62.285 87.1651C62.2949 87.5356 62.1593 87.8995 62.1361 88.3295C61.888 93.0468 61.9046 97.6848 64.0879 101.893C64.1188 101.952 64.1541 101.984 64.1938 101.989C64.2731 102 64.3029 101.965 64.2831 101.886C63.2929 98.0994 62.6345 94.4826 62.3081 91.0355C62.2111 90.0166 62.2155 88.7309 62.3214 87.1783C62.3214 87.1651 62.3148 87.1584 62.3015 87.1584C62.3015 87.1584 62.2982 87.1573 62.2916 87.1551C62.2872 87.1551 62.285 87.1584 62.285 87.1651ZM249.364 98.2472L248.878 96.7618C248.854 96.6902 248.814 96.625 248.76 96.5723C248.706 96.5197 248.641 96.4813 248.57 96.4608C248.499 96.4403 248.425 96.4384 248.355 96.4551C248.285 96.4719 248.222 96.5069 248.17 96.5567L247.154 97.526C247.133 97.5465 247.116 97.5714 247.105 97.5988C247.095 97.6261 247.09 97.6554 247.091 97.6844C247.093 97.7134 247.101 97.7416 247.115 97.7668C247.128 97.792 247.147 97.8137 247.171 97.8303C247.83 98.3111 248.513 98.5228 249.218 98.4655C249.36 98.4545 249.408 98.3817 249.364 98.2472ZM246.724 99.0973C246.856 99.4348 246.957 99.7303 247.025 99.9839C247.133 100.379 247.293 100.632 247.505 100.745C247.9 100.952 248.278 100.825 248.64 100.364C248.694 100.295 248.733 100.213 248.752 100.127C248.771 100.041 248.77 99.9522 248.749 99.8686C248.728 99.785 248.687 99.7089 248.631 99.6467C248.574 99.5844 248.504 99.5379 248.424 99.5108L246.86 98.9816C246.719 98.933 246.673 98.9716 246.724 99.0973ZM278.862 102.253C276.639 99.6233 272.666 99.2892 269.576 100.275C266.487 101.264 265.852 103.636 265.491 106.474C265.427 106.979 265.349 108.002 265.256 109.541C265.201 110.472 265.473 111.139 266.073 111.542C266.197 111.626 266.805 111.828 267.899 112.148C269.886 112.726 271.848 112.906 273.784 112.69C275.33 112.518 276.738 111.9 278.009 110.834C280.599 108.664 281.019 104.81 278.862 102.253ZM71.4021 104.169C73.7905 104.204 75.7291 103.989 77.2177 103.524C77.4449 103.453 77.6081 103.326 77.7073 103.143C77.7713 103.024 77.736 102.95 77.6014 102.921C77.1692 102.833 76.8329 102.816 76.5925 102.869C74.5304 103.325 72.2964 103.675 69.8903 103.917C69.8374 103.924 69.7877 103.938 69.7414 103.96C69.662 104 69.6168 104.023 69.6058 104.03C69.3389 104.206 69.3632 104.314 69.6786 104.354C70.3236 104.44 70.8893 104.162 71.4021 104.169ZM283.851 133.981C285.27 133.789 287.569 133.081 288.462 131.871C288.481 131.845 288.494 131.816 288.501 131.786C288.507 131.755 288.506 131.723 288.499 131.692C288.492 131.662 288.478 131.633 288.459 131.608C288.439 131.584 288.414 131.564 288.386 131.55C287.252 130.991 285.267 131.49 284.175 131.89C283.437 132.165 282.392 132.962 283.113 133.769C283.276 133.955 283.522 134.025 283.851 133.981ZM282.882 134.692C282.646 134.675 282.616 134.744 282.792 134.901C283.46 135.483 284.208 135.212 284.989 135.007C286.191 134.691 287.456 134.143 288.783 133.363C288.826 133.338 288.868 133.296 288.904 133.24C288.941 133.184 288.972 133.115 288.995 133.038L289.084 132.734C289.088 132.719 289.088 132.703 289.083 132.689C289.077 132.675 289.068 132.662 289.055 132.653C289.042 132.644 289.026 132.639 289.01 132.639C288.994 132.639 288.979 132.643 288.965 132.651C287.331 133.743 284.946 134.848 282.882 134.692ZM160.261 186.834C160.763 186.863 161.189 187.02 161.538 187.304C164.691 189.865 166.807 191.546 167.886 192.349C170.751 194.477 173.877 196.843 177.264 199.445C177.555 199.669 177.92 199.775 178.286 199.743C180.644 199.538 182.93 199.359 185.144 199.207C186.705 199.101 188.91 199.062 191.757 199.091C194.234 199.115 197.018 199.109 200.11 199.071C200.968 199.06 201.646 198.949 202.144 198.737C205.347 197.374 209.152 195.667 213.561 193.616C215.774 192.587 218.857 192.28 220.987 193.543C221.417 193.797 222.446 194.501 224.074 195.657C225.348 196.561 226.956 197.185 228.897 197.529C232.75 198.215 235.842 197.065 238.173 194.079C238.892 193.155 239.442 192.242 239.823 191.34C242.93 184.019 244.041 176.245 244.349 167.929C244.77 156.602 245.546 145.374 246.678 134.246C246.681 134.214 246.677 134.182 246.666 134.152C246.655 134.121 246.638 134.094 246.616 134.071C246.594 134.048 246.567 134.03 246.537 134.019C246.507 134.007 246.475 134.002 246.443 134.004C238.307 134.529 231.281 135.025 225.364 135.493C223.906 135.61 221.709 135.812 218.774 136.098C203.652 137.583 188.716 139.051 173.966 140.505C166.943 141.196 159.943 141.653 152.821 142.02C152.64 142.03 152.471 142.108 152.345 142.238C152.22 142.368 152.149 142.541 152.146 142.721C152.066 147.538 152.023 150.064 152.017 150.3C151.776 159.505 150.544 168.422 148.318 177.049C147.5 180.218 146.445 183.003 145.153 185.402C144.786 186.081 144.375 186.699 143.919 187.255C143.903 187.272 143.893 187.294 143.89 187.317C143.887 187.34 143.89 187.364 143.9 187.386C143.909 187.408 143.925 187.426 143.944 187.44C143.964 187.453 143.987 187.461 144.011 187.463C147.216 187.551 150.589 187.516 154.131 187.357C156.281 187.262 158.157 187.096 159.758 186.858C159.923 186.831 160.091 186.823 160.261 186.834ZM292.958 143.661C293.212 143.493 293.401 143.318 293.527 143.135C293.549 143.103 293.563 143.067 293.569 143.029C293.574 142.992 293.572 142.953 293.56 142.917C293.549 142.88 293.53 142.846 293.504 142.818C293.478 142.79 293.447 142.768 293.411 142.754C292.591 142.433 291.668 142.274 290.761 142.506C289.218 142.896 287.893 143.479 286.788 144.253C286.226 144.647 286.129 145.041 286.497 145.434C286.576 145.518 286.681 145.572 286.795 145.586C288.985 145.864 291.079 144.898 292.958 143.661ZM301.059 164.333C301.282 164.644 301.398 164.804 301.407 164.812C301.601 165.066 301.692 165.033 301.681 164.713C301.673 164.515 301.587 164.301 301.423 164.071C301.258 163.844 301.083 163.694 300.897 163.622C300.597 163.511 300.537 163.589 300.715 163.853C300.72 163.864 300.835 164.024 301.059 164.333ZM54.7558 168.881C55.2961 172.765 56.1198 176.678 57.2269 180.619C58.1003 183.725 59.1688 185.915 60.7302 189.454C60.9132 189.871 61.1272 190.252 61.372 190.596C61.391 190.622 61.4167 190.642 61.4463 190.654C61.476 190.667 61.5084 190.671 61.5402 190.667C61.5721 190.662 61.6021 190.649 61.6272 190.629C61.6524 190.609 61.6716 190.583 61.6829 190.553C62.0303 189.59 62.1196 188.69 62.017 187.708C61.2429 180.154 58.8799 173.096 54.9278 166.533C54.6455 166.065 54.4856 166.104 54.4481 166.648C54.4018 167.34 54.6499 168.117 54.7558 168.881ZM62.9499 177.459C62.8374 178.78 62.8154 179.891 62.8838 180.791C63.0095 182.412 63.0668 183.808 63.0558 184.979C63.0447 185.971 63.0613 187.603 63.1054 189.875C63.1164 190.474 63.2487 190.503 63.5024 189.961C64.4992 187.83 65.1266 185.617 65.3847 183.321C65.9382 178.359 65.7794 173.225 64.9083 167.919C64.9042 167.895 64.8934 167.873 64.8771 167.856C64.8608 167.839 64.8397 167.826 64.8165 167.821C64.7933 167.815 64.769 167.816 64.7465 167.824C64.724 167.832 64.7043 167.847 64.69 167.866C64.5621 168.036 64.4584 168.241 64.379 168.481C63.7306 170.481 63.3392 172.36 63.2046 174.118C63.0503 176.16 62.9654 177.274 62.9499 177.459ZM46.297 180.225C49.3426 183.246 52.3431 185.884 55.2983 188.138C56.5201 189.069 57.765 189.837 59.0331 190.444C59.3066 190.574 59.3893 190.498 59.2812 190.215C59.2063 190.017 59.1225 189.864 59.0298 189.755C56.2819 186.529 53.1128 183.701 49.5224 181.27C48.1374 180.331 46.8969 179.655 45.8008 179.242C45.1392 178.993 45.0278 179.114 45.4667 179.606C45.5196 179.664 45.6486 179.761 45.8537 179.897C46.0809 180.047 46.2286 180.157 46.297 180.225ZM302.79 185.644C299.623 187.207 296.919 189.502 294.678 192.528C294.217 193.152 293.215 194.603 291.671 196.881C291.073 197.765 290.394 198.591 289.633 199.359C289.417 199.577 289.457 199.648 289.752 199.571C290.619 199.349 291.354 198.836 292.124 198.366C294.195 197.101 296.021 195.519 297.603 193.623C299.605 191.219 301.391 188.62 302.962 185.825C303.098 185.581 303.041 185.52 302.79 185.644ZM131.097 200.202C132.852 200.149 135.403 200.045 138.748 199.888C140.991 199.782 143.195 199.735 145.361 199.746C155.391 199.794 165.205 199.775 174.803 199.686C174.966 199.684 175.075 199.672 175.13 199.65C175.148 199.642 175.163 199.629 175.174 199.612C175.185 199.596 175.191 199.577 175.192 199.558C175.192 199.538 175.188 199.519 175.178 199.502C175.168 199.485 175.154 199.471 175.137 199.461C173.827 198.78 172.514 197.546 171.644 196.884C168.578 194.547 165.76 192.339 163.188 190.262C162.265 189.514 161.028 187.972 159.738 188.174C157.385 188.54 155.018 188.744 152.639 188.786C143.764 188.938 135.251 188.667 127.1 187.972C126.196 187.895 125.336 187.853 124.52 187.847C123.622 187.84 122.759 187.798 121.93 187.721C119.308 187.478 116.271 187.405 112.819 187.499C112.506 187.508 112.485 187.591 112.756 187.747C115.231 189.188 117.209 190.366 118.691 191.284C122.903 193.897 126.816 196.85 130.428 200.143C130.508 200.216 130.603 200.245 130.713 200.232C130.876 200.215 131.004 200.205 131.097 200.202ZM227.196 198.055C225.073 197.754 223.736 196.689 221.755 195.306C219.472 193.708 217.126 193.502 214.715 194.691C211.835 196.114 208.854 197.453 205.773 198.71C205.207 198.942 205.229 199.066 205.839 199.081C212.976 199.251 220.148 198.996 227.355 198.317C227.627 198.29 227.654 198.22 227.438 198.105C227.414 198.092 227.333 198.075 227.196 198.055Z" fill="#0F5A8B"/>
<path d="M96.1815 45.7969C96.294 46.0593 96.3271 46.2799 96.2808 46.4585C96.2752 46.4804 96.2651 46.5008 96.2511 46.5186C96.2372 46.5363 96.2197 46.5509 96.1998 46.5615C96.1798 46.5721 96.1579 46.5784 96.1354 46.58C96.1129 46.5817 96.0903 46.5786 96.069 46.571C95.7051 46.4342 95.3788 46.2192 95.0898 45.9259C95.04 45.8747 95.0005 45.8109 94.9762 45.7422C94.9518 45.6735 94.9437 45.6028 94.9529 45.5387C94.962 45.4746 94.9879 45.4199 95.0275 45.3812C95.067 45.3424 95.1186 45.3214 95.1759 45.3205C95.7074 45.3139 96.0426 45.4727 96.1815 45.7969Z" fill="#0F5A8B"/>
<path d="M98.3368 48.7774C98.3479 48.859 98.3137 48.8921 98.2343 48.8767C97.5131 48.7377 96.9838 48.3683 96.6464 47.7685C96.6198 47.722 96.6063 47.6692 96.6075 47.6158C96.6086 47.5623 96.6243 47.5101 96.6529 47.4648C96.6815 47.4196 96.7218 47.383 96.7697 47.359C96.8175 47.3349 96.8709 47.3244 96.9243 47.3285C97.7337 47.3836 98.2045 47.8666 98.3368 48.7774Z" fill="#0F5A8B"/>
<path d="M98.8013 49.3961L99.7508 50.2794C99.7983 50.3239 99.8308 50.3809 99.8449 50.4443C99.8589 50.5076 99.8539 50.5749 99.8304 50.6389C99.8069 50.7029 99.7658 50.7612 99.7116 50.8074C99.6573 50.8537 99.5919 50.8861 99.5225 50.9013C99.0682 51.0006 98.7859 50.8285 98.6756 50.3853C98.583 50.0081 98.5599 49.6817 98.6062 49.4061C98.6238 49.2958 98.6889 49.2925 98.8013 49.3961Z" fill="#0F5A8B"/>
<path d="M82.6051 51.2231L80.9072 50.9084C80.6359 50.8581 80.3753 51.0373 80.325 51.3085L80.3165 51.3541C80.2663 51.6253 80.4454 51.886 80.7167 51.9363L82.4146 52.251C82.6858 52.3012 82.9465 52.1221 82.9968 51.8508L83.0052 51.8053C83.0555 51.534 82.8763 51.2734 82.6051 51.2231Z" fill="#0F5A8B"/>
<path d="M84.5456 51.7679L86.1599 52.3733C86.1884 52.3841 86.2144 52.4007 86.2364 52.4219C86.2583 52.4432 86.2756 52.4686 86.2874 52.4968C86.2992 52.525 86.3051 52.5552 86.3048 52.5857C86.3044 52.6163 86.2979 52.6464 86.2856 52.6743L86.1169 53.058C86.0949 53.1086 86.0552 53.1493 86.0052 53.1725C85.9552 53.1957 85.8984 53.1997 85.8456 53.1838L84.5456 52.7769C84.5093 52.7652 84.4767 52.7444 84.4506 52.7167C84.4246 52.6889 84.4061 52.655 84.3967 52.6181L84.2478 52.0325C84.238 51.9927 84.2391 51.951 84.2513 51.9118C84.2634 51.8726 84.2861 51.8375 84.3167 51.8102C84.3474 51.783 84.3849 51.7646 84.4252 51.7572C84.4656 51.7497 84.5072 51.7534 84.5456 51.7679Z" fill="#0F5A8B"/>
<path d="M89.6697 54.8645L87.4566 53.9118C87.4102 53.8919 87.3704 53.8593 87.3417 53.8177C87.313 53.7762 87.2966 53.7274 87.2945 53.6769L87.2746 53.2733C87.2728 53.2289 87.282 53.1848 87.3014 53.1448C87.3209 53.1049 87.35 53.0704 87.3861 53.0445C87.4222 53.0185 87.4641 53.002 87.5082 52.9963C87.5523 52.9907 87.5971 52.996 87.6385 53.012L89.6399 53.7762C89.6754 53.7896 89.7076 53.8104 89.7344 53.8372C89.7612 53.864 89.782 53.8962 89.7954 53.9316L90.0237 54.5205C90.0428 54.5696 90.047 54.6232 90.0358 54.6746C90.0246 54.7261 89.9985 54.7731 89.9607 54.8098C89.923 54.8465 89.8752 54.8713 89.8235 54.881C89.7717 54.8908 89.7182 54.885 89.6697 54.8645Z" fill="#0F5A8B"/>
<path d="M165.114 55.8461C165.56 55.916 165.963 55.7077 166.014 55.381C166.065 55.0543 165.745 54.7329 165.299 54.663C164.854 54.5932 164.451 54.8015 164.4 55.1282C164.348 55.4549 164.668 55.7763 165.114 55.8461Z" fill="#0F5A8B"/>
<path d="M91.0865 55.8415C91.423 56.022 91.7875 55.9973 91.9006 55.7863C92.0137 55.5754 91.8326 55.2581 91.496 55.0777C91.1595 54.8973 90.795 54.922 90.6819 55.1329C90.5688 55.3438 90.75 55.6611 91.0865 55.8415Z" fill="#0F5A8B"/>
<path d="M166.72 56.598C166.739 56.5878 166.761 56.5816 166.783 56.5797C166.805 56.5778 166.827 56.5804 166.848 56.5871C166.869 56.5939 166.888 56.6048 166.905 56.6192C166.921 56.6335 166.935 56.6511 166.945 56.6708L166.971 56.7271C167.052 56.887 167.066 57.0728 167.01 57.2439C166.953 57.415 166.831 57.5574 166.67 57.6401L166.333 57.8121C166.171 57.894 165.984 57.9089 165.812 57.8537C165.64 57.7985 165.498 57.6777 165.417 57.5177L165.387 57.4615C165.367 57.4224 165.364 57.3772 165.377 57.3356C165.391 57.2941 165.421 57.2596 165.46 57.2398L166.72 56.598Z" fill="#0F5A8B"/>
<path d="M166.389 59.9988C166.534 59.4927 167.269 59.1751 167.735 59.4431C167.779 59.468 167.816 59.5014 167.847 59.5411C167.877 59.5808 167.899 59.6261 167.912 59.6744C167.924 59.7227 167.927 59.7731 167.92 59.8225C167.913 59.872 167.896 59.9195 167.871 59.9625C167.591 60.43 167.302 60.709 167.004 60.7994C166.913 60.8269 166.818 60.8248 166.728 60.7933C166.639 60.7618 166.559 60.702 166.496 60.6202C166.433 60.5384 166.39 60.4376 166.371 60.3283C166.352 60.219 166.358 60.1052 166.389 59.9988Z" fill="#0F5A8B"/>
<path d="M168.984 62.45C169.11 62.7058 168.955 62.9881 168.518 63.2968C168.002 63.6585 167.641 63.6298 167.436 63.2108C167.229 62.7896 167.426 62.4863 168.028 62.3011C168.54 62.1445 168.859 62.1941 168.984 62.45Z" fill="#0F5A8B"/>
<path d="M216.6 69.9462C216.582 69.9628 216.569 69.9844 216.563 70.0083C216.557 70.0321 216.558 70.0572 216.566 70.0805C216.575 70.1038 216.589 70.1241 216.609 70.1391C216.628 70.154 216.652 70.1629 216.677 70.1646C218.668 70.3476 220.505 70.6828 222.188 71.1702C222.622 71.2959 223.004 71.5242 223.332 71.855C223.381 71.9039 223.42 71.9625 223.445 72.027C223.471 72.0916 223.482 72.1607 223.48 72.2302C223.477 72.2997 223.461 72.368 223.431 72.4309C223.401 72.4938 223.358 72.55 223.306 72.596L216.961 78.1635C216.87 78.2429 216.752 78.2832 216.632 78.2758C216.512 78.2684 216.399 78.2138 216.319 78.1238C216.297 78.0996 216.275 78.0753 216.253 78.051C216.052 77.8305 216.048 77.6067 216.24 77.3795C217.475 75.9129 218.908 74.5566 220.54 73.3105C220.792 73.1165 221.06 72.8198 221.344 72.4207C221.421 72.3104 221.396 72.2365 221.268 72.199C219.115 71.5705 217.719 71.6003 215.148 71.5308C215.007 71.5272 214.87 71.4822 214.754 71.4016C214.637 71.3209 214.547 71.208 214.495 71.0769C214.442 70.9457 214.429 70.8019 214.457 70.6633C214.485 70.5247 214.553 70.3974 214.652 70.2969C216.422 68.5039 217.686 67.217 219.353 65.3414C220.12 64.4791 220.868 63.684 221.596 62.9562C221.926 62.6254 222.314 62.5251 222.757 62.6552C222.816 62.6728 222.87 62.7048 222.913 62.7482C222.957 62.7917 222.989 62.8452 223.007 62.9042C223.025 62.9631 223.029 63.0256 223.017 63.086C223.005 63.1465 222.978 63.203 222.939 63.2506C221.247 65.3039 219.134 67.5357 216.6 69.9462Z" fill="#0F5A8B"/>
<path d="M174.736 63.7125C174.873 63.5962 174.921 63.4299 174.845 63.341C174.769 63.2521 174.598 63.2742 174.461 63.3905C174.325 63.5068 174.276 63.6732 174.352 63.7621C174.428 63.851 174.6 63.8288 174.736 63.7125Z" fill="#0F5A8B"/>
<path d="M171.708 65.3674C171.669 65.3854 171.624 65.3871 171.584 65.3722C171.543 65.3573 171.511 65.327 171.493 65.288L171.46 65.2152C171.372 65.027 171.329 64.8277 171.341 64.6609C171.352 64.4941 171.416 64.3734 171.519 64.3253L171.589 64.2889C171.64 64.2651 171.699 64.2599 171.763 64.2736C171.827 64.2873 171.894 64.3196 171.961 64.3688C172.028 64.4179 172.094 64.4829 172.153 64.56C172.213 64.6371 172.266 64.7249 172.31 64.8182L172.343 64.891C172.361 64.9296 172.363 64.9739 172.349 65.0142C172.335 65.0544 172.305 65.0874 172.267 65.106L171.708 65.3674Z" fill="#0F5A8B"/>
<path d="M169.067 66.2369C169.501 66.3033 169.894 66.0847 169.945 65.7488C169.997 65.4129 169.687 65.0868 169.254 65.0205C168.82 64.9542 168.427 65.1727 168.376 65.5086C168.324 65.8445 168.634 66.1706 169.067 66.2369Z" fill="#0F5A8B"/>
<path d="M288.456 83.2712C289.736 83.9041 290.957 84.6253 292.122 85.4347C292.823 85.9209 293.412 86.7083 292.469 87.3368C291.415 88.0425 290.11 88.6292 288.556 89.0967C288.207 89.2004 287.858 89.2059 287.507 89.1132C287.337 89.0669 287.216 89.0129 287.143 88.9511C286.845 88.7041 286.873 88.5024 287.226 88.3458L291.374 86.4965C291.398 86.4871 291.418 86.471 291.433 86.4501C291.448 86.4293 291.456 86.4046 291.457 86.379C291.458 86.3535 291.452 86.3282 291.439 86.3062C291.426 86.2842 291.407 86.2664 291.384 86.2551C288.521 84.6936 286.961 83.8523 286.703 83.731C286.452 83.6141 286.297 83.4553 286.24 83.2546C286.203 83.122 286.213 82.9801 286.269 82.8529C286.325 82.7258 286.423 82.6211 286.548 82.5566C286.843 82.4022 288.261 81.6756 290.802 80.3766C291.949 79.79 293.039 79.3842 294.074 79.1592C294.135 79.1463 294.199 79.1476 294.261 79.1631C294.322 79.1785 294.379 79.2078 294.427 79.2485C294.595 79.3875 294.633 79.5518 294.54 79.7414C294.498 79.8252 294.408 79.9057 294.269 79.9829C292.352 81.0503 290.418 82.0174 288.466 82.8841C288.43 82.9008 288.398 82.9275 288.376 82.9612C288.353 82.9948 288.341 83.0341 288.34 83.0745C288.339 83.1149 288.349 83.1548 288.37 83.1896C288.39 83.2244 288.42 83.2526 288.456 83.2712Z" fill="#0F5A8B"/>
<path d="M205.688 117C205.807 117.205 206.029 117.384 206.128 117.599C206.507 118.404 207.113 119.547 207.944 121.029C208.573 122.15 209.097 123.441 209.519 124.903C209.539 124.972 209.545 125.044 209.537 125.116C209.53 125.188 209.508 125.257 209.473 125.32C209.438 125.383 209.391 125.438 209.335 125.483C209.279 125.528 209.214 125.561 209.145 125.581C208.344 125.808 207.558 125.675 206.786 125.181C205.778 124.535 205.114 124.055 204.795 123.742C201.809 120.806 200.158 119.177 199.843 118.852C199.662 118.667 199.444 118.557 199.191 118.522C198.792 118.464 198.516 118.447 198.364 118.469C190.784 119.62 185.576 120.237 182.74 120.321C178.329 120.449 174.671 120.452 171.767 120.331C171.085 120.305 170.341 119.756 169.815 119.16C168.015 117.127 166.426 114.92 165.048 112.541C163.555 109.967 162.104 107.429 160.695 104.925C160.123 103.911 159.49 102.862 158.796 101.779C157.75 100.152 157.019 98.8849 156.159 97.6476C154.146 94.752 152.59 92.4639 151.491 90.7834C151.455 90.7287 151.434 90.6656 151.43 90.6002C151.426 90.5349 151.44 90.4697 151.469 90.4111C151.498 90.3525 151.542 90.3025 151.596 90.2663C151.651 90.23 151.714 90.2087 151.779 90.2044C156.51 89.9199 161.727 89.4998 166.636 88.6265C171.609 87.7421 176.532 86.624 181.403 85.2721C185.7 84.0779 190.375 82.662 194.523 81.7655C197.165 81.1921 199.654 80.7202 201.989 80.3496C202.088 80.3339 202.189 80.3419 202.284 80.373C202.379 80.404 202.465 80.4573 202.535 80.5283C203.68 81.6927 204.65 82.9928 205.446 84.4285C206.545 86.4068 207.626 89.7744 208.291 91.5707C208.922 93.2799 209.601 94.9339 210.329 96.5328C211.749 99.6556 212.481 101.263 212.522 101.356C213.122 102.666 213.893 104.816 214.835 107.807C215.119 108.707 215.63 109.814 216.366 111.128C216.558 111.468 216.551 111.785 216.343 112.081C216.229 112.242 216.004 112.418 215.668 112.61C212.303 114.54 209.006 115.934 205.777 116.792C205.658 116.825 205.628 116.894 205.688 117ZM199.707 114.231C200.294 114.346 200.63 114.422 200.716 114.459C203.001 115.43 204.421 116.032 204.977 116.266C205.088 116.312 205.211 116.321 205.327 116.292C208.964 115.401 212.359 113.96 215.513 111.968C215.602 111.913 215.666 111.827 215.694 111.726C215.721 111.626 215.71 111.518 215.662 111.426C215.056 110.261 214.6 109.266 214.19 108.002C213.111 104.698 212.29 102.421 211.725 101.171C210.927 99.402 210.255 97.931 209.711 96.7578C208.394 93.9294 207.315 90.4261 206.164 87.4521C205.304 85.2225 204.118 83.2983 202.605 81.6795C202.422 81.4854 202.189 81.2958 201.907 81.1105C201.803 81.0421 201.691 81.0201 201.569 81.0443C195.337 82.3147 191.388 83.188 189.723 83.6644C185.952 84.7472 182.675 85.6624 179.891 86.4101C173.69 88.0729 167.676 89.2616 161.849 89.9762C158.459 90.3908 155.269 90.565 152.279 90.4989C152.234 90.4979 152.191 90.5091 152.152 90.5314C152.114 90.5536 152.083 90.586 152.061 90.6249C152.04 90.6639 152.03 90.7079 152.032 90.7522C152.034 90.7965 152.049 90.8393 152.074 90.876C153.137 92.4264 154.684 94.7189 156.715 97.7535C159.13 101.357 161.652 105.45 164.281 110.033C165.73 112.557 167.334 115.012 168.879 116.904C170.045 118.331 170.85 119.183 171.294 119.461C171.563 119.629 171.907 119.715 172.326 119.719C177.103 119.779 180.747 119.751 183.259 119.636C188.283 119.412 193.551 118.751 199.062 117.655C199.111 117.645 199.155 117.62 199.187 117.582C199.22 117.544 199.238 117.496 199.24 117.447C199.258 116.988 199.185 116.487 199.022 115.945C198.824 115.283 198.87 114.731 199.396 114.307C199.439 114.272 199.489 114.248 199.543 114.234C199.597 114.221 199.653 114.22 199.707 114.231ZM200.18 117.222C200.147 118.024 200.52 118.71 201.298 119.279C201.916 119.729 203.344 121.014 205.582 123.133C206.182 123.702 207.012 124.282 208.073 124.873C208.135 124.908 208.194 124.931 208.252 124.939C208.303 124.947 208.355 124.94 208.403 124.92C208.451 124.9 208.493 124.867 208.523 124.826C208.554 124.784 208.573 124.735 208.578 124.683C208.584 124.631 208.575 124.579 208.553 124.532C206.895 121.003 205.999 118.882 204.778 116.98C204.719 116.887 204.636 116.824 204.53 116.788C203.063 116.301 201.629 115.735 200.226 115.091C200.193 115.077 200.157 115.07 200.121 115.071C200.084 115.073 200.049 115.083 200.017 115.101C199.986 115.118 199.958 115.143 199.938 115.173C199.917 115.203 199.904 115.237 199.899 115.273C199.813 115.978 200.21 116.524 200.18 117.222Z" fill="#0F5A8B"/>
<path d="M199.787 99.1397C200.438 99.7153 201.239 98.6435 201.977 99.6425C203.062 101.111 203.52 102.473 203.353 103.728C203.131 105.405 201.47 106.398 199.919 105.524C197.868 104.373 197.339 100.999 197.643 98.9247C197.661 98.8122 197.717 98.7251 197.812 98.6633C198.523 98.2068 199.171 98.6005 199.787 99.1397Z" fill="#0F5A8B"/>
<path d="M174.857 104.281C174.903 104.135 174.955 103.779 175.013 103.212C175.079 102.574 175.754 102.044 176.448 102.117C177.411 102.22 177.504 103.126 177.616 103.966C177.785 105.247 177.858 107.046 176.951 108.005C176.339 108.657 174.831 108.598 174.053 108.131C173.714 107.926 173.434 107.572 173.213 107.069C172.687 105.859 172.194 103.559 173.365 102.587C173.428 102.535 173.502 102.5 173.581 102.484C173.661 102.468 173.743 102.472 173.821 102.495C173.899 102.518 173.971 102.56 174.03 102.617C174.089 102.674 174.133 102.744 174.159 102.822L174.652 104.277C174.723 104.487 174.791 104.488 174.857 104.281Z" fill="#0F5A8B"/>
<path d="M108.311 116.054C113.763 115.906 118.534 115.673 122.625 115.353C122.912 115.331 123.288 115.354 123.753 115.422C124.444 115.522 124.57 115.975 124.699 116.633C127.524 130.73 129.596 141.355 130.915 148.51C131.738 152.978 132.453 157.289 133.062 161.444C133.07 161.497 133.066 161.551 133.051 161.602C133.036 161.653 133.011 161.7 132.977 161.741C132.942 161.782 132.9 161.815 132.852 161.838C132.804 161.861 132.751 161.873 132.698 161.874C132.037 161.892 131.277 161.89 130.419 161.868C129.29 161.839 123.933 161.589 114.348 161.117C108.996 160.852 104.024 160.846 99.0218 160.915C98.9214 160.916 98.8246 160.878 98.7517 160.809C98.6789 160.74 98.6358 160.645 98.6315 160.545C98.5521 158.518 98.3492 156.165 98.0228 153.485C96.5783 141.64 94.6496 129.539 92.2369 117.182C92.2279 117.135 92.2283 117.086 92.2383 117.039C92.2482 116.992 92.2674 116.947 92.2948 116.907C92.3222 116.867 92.3572 116.834 92.3979 116.808C92.4385 116.782 92.4838 116.764 92.5314 116.755C93.5602 116.567 94.1523 116.428 95.0025 116.421C98.3073 116.388 100.61 116.491 103.379 116.289C104.843 116.183 106.487 116.105 108.311 116.054ZM123.766 116.961C123.751 116.817 123.685 116.683 123.579 116.585C123.473 116.486 123.335 116.429 123.191 116.425C122.573 116.403 121.725 116.449 120.647 116.564C120.19 116.612 119.356 116.666 118.143 116.726C113.798 116.937 109.347 117.133 104.791 117.311C101.271 117.45 98.7837 117.407 94.0696 117.387C93.6859 117.385 93.5271 117.571 93.5933 117.946L94.3442 122.24C94.3663 122.37 94.4357 122.486 94.5387 122.567C94.6417 122.647 94.7707 122.685 94.9 122.674C95.4689 122.624 95.9784 122.445 96.6863 122.396C100.87 122.113 104.056 121.931 106.243 121.85C113.314 121.587 116.921 121.452 117.064 121.443C118.041 121.386 119.208 121.361 120.564 121.37C122.454 121.383 123.625 121.389 124.077 121.387C124.152 121.386 124.225 121.369 124.291 121.335C124.357 121.301 124.414 121.253 124.458 121.193C124.502 121.133 124.532 121.064 124.544 120.991C124.557 120.918 124.552 120.842 124.53 120.771C124.164 119.596 123.91 118.326 123.766 116.961ZM124.789 122.339C124.742 122.117 124.609 122.034 124.388 122.091C123.861 122.228 123.39 122.314 122.976 122.349C113.581 123.174 104.25 123.509 94.9827 123.355C94.9246 123.354 94.8671 123.366 94.8143 123.39C94.7615 123.414 94.7147 123.449 94.6773 123.494C94.6399 123.538 94.6129 123.59 94.5982 123.646C94.5835 123.703 94.5815 123.761 94.5923 123.818C96.533 134.111 98.047 144.075 99.1343 153.71C99.2732 154.945 99.4519 156.899 99.6702 159.572C99.6879 159.799 99.8103 159.913 100.037 159.913C105.301 159.916 109.565 159.837 114.097 160.035C122.665 160.408 128.462 160.703 131.487 160.922C131.538 160.926 131.59 160.918 131.637 160.9C131.685 160.881 131.728 160.852 131.763 160.814C131.798 160.777 131.823 160.732 131.838 160.683C131.853 160.634 131.856 160.582 131.848 160.531C131.098 155.664 130.262 150.818 129.34 145.992C126.681 132.056 125.163 124.172 124.789 122.339Z" fill="#0F5A8B"/>
<path d="M118.327 133.22L104.54 132.738C104.226 132.727 103.963 132.973 103.952 133.287L103.951 133.3C103.94 133.614 104.186 133.878 104.5 133.889L118.286 134.37C118.601 134.381 118.864 134.135 118.875 133.821L118.875 133.808C118.886 133.494 118.641 133.231 118.327 133.22Z" fill="#0F5A8B"/>
<path d="M115.757 139.217C110.012 139.06 107.085 138.98 106.977 138.976C106.245 138.942 105.395 138.829 104.427 138.635C104.376 138.624 104.329 138.602 104.288 138.57C104.248 138.537 104.216 138.496 104.194 138.449C104.173 138.402 104.162 138.351 104.164 138.299C104.166 138.248 104.18 138.197 104.205 138.152C104.337 137.914 104.545 137.798 104.827 137.804C105.039 137.809 109.276 137.894 117.54 138.059C118.469 138.079 119.624 138.261 120.636 138.466C120.69 138.477 120.74 138.5 120.782 138.534C120.825 138.569 120.859 138.613 120.881 138.663C120.903 138.712 120.913 138.767 120.909 138.821C120.906 138.876 120.889 138.929 120.861 138.976C120.738 139.181 120.527 139.296 120.229 139.323C120.121 139.332 118.63 139.296 115.757 139.217Z" fill="#0F5A8B"/>
<path d="M115.841 144.186C112.135 144.138 108.982 144.003 106.379 143.783C106.214 143.769 106.06 143.636 105.916 143.382C105.894 143.345 105.881 143.306 105.877 143.267C105.841 142.962 105.977 142.813 106.283 142.82C109.907 142.91 112.237 142.964 113.273 142.982C116.235 143.035 118.592 143.164 120.343 143.369C120.439 143.38 120.533 143.423 120.611 143.494C120.69 143.565 120.751 143.661 120.786 143.769L120.816 143.862C120.833 143.914 120.835 143.969 120.821 144.023C120.808 144.076 120.78 144.127 120.739 144.17C120.699 144.213 120.647 144.248 120.588 144.271C120.53 144.294 120.466 144.304 120.402 144.302C118.197 144.236 116.676 144.197 115.841 144.186Z" fill="#0F5A8B"/>
<path d="M85.2772 160.039C84.3377 159.549 83.2151 159.046 81.9095 158.53C81.3714 158.318 80.927 158.042 80.5764 157.7C80.5081 157.632 80.4554 157.551 80.4218 157.461C80.3882 157.371 80.3745 157.275 80.3818 157.179C80.389 157.084 80.417 156.991 80.4637 156.907C80.5104 156.823 80.5748 156.751 80.6524 156.694C82.8424 155.1 85.1195 153.24 87.4837 151.117C87.8078 150.823 88.099 150.896 88.357 151.335C88.3636 151.348 88.3669 151.361 88.3669 151.375C88.3671 151.554 88.344 151.721 88.2993 151.862C88.2545 152.004 88.1894 152.117 88.1089 152.192C86.2762 153.916 84.3079 155.538 82.2039 157.058C82.1791 157.076 82.1593 157.1 82.1465 157.127C82.1338 157.155 82.1284 157.186 82.1311 157.216C82.1338 157.247 82.1444 157.276 82.1618 157.301C82.1792 157.326 82.2028 157.346 82.2304 157.359L86.2927 159.4C86.3896 159.449 86.474 159.519 86.5395 159.605C86.605 159.692 86.6499 159.792 86.6707 159.898C86.6915 160.004 86.6876 160.113 86.6593 160.217C86.6311 160.321 86.5792 160.418 86.5078 160.498C84.9927 162.205 83.4015 163.793 81.3538 164.696C81.2467 164.744 81.1291 164.756 81.0231 164.73C80.917 164.705 80.8299 164.643 80.7782 164.557L80.7219 164.465C80.6642 164.368 80.6402 164.257 80.655 164.154C80.6698 164.051 80.7222 163.964 80.8013 163.912C81.9547 163.145 82.6913 162.608 83.0111 162.301C83.9021 161.446 84.6641 160.785 85.297 160.32C85.32 160.303 85.3384 160.281 85.3504 160.256C85.3624 160.23 85.3677 160.202 85.3657 160.174C85.3637 160.145 85.3545 160.118 85.339 160.095C85.3235 160.071 85.3022 160.052 85.2772 160.039Z" fill="#0F5A8B"/>
<path d="M192.253 156.688C201.602 155.845 211.657 155.012 222.42 154.187C226.161 153.899 229.195 153.846 232.794 153.998C233.306 154.018 233.777 154.124 234.21 154.316C234.257 154.336 234.298 154.367 234.33 154.407C234.363 154.447 234.385 154.494 234.395 154.544C234.426 154.698 234.38 154.83 234.256 154.938C234.174 155.011 234.058 155.044 233.905 155.037C231.169 154.9 227.87 154.974 224.011 155.259C212.521 156.103 201.111 157.037 189.782 158.061C184.813 158.508 179.659 158.873 174.32 159.156C172.58 159.248 170.803 159.246 168.987 159.149C168.967 159.148 168.947 159.142 168.93 159.132C168.912 159.122 168.898 159.107 168.887 159.091C168.877 159.074 168.872 159.056 168.871 159.037C168.871 159.018 168.875 159 168.885 158.984L168.941 158.881C168.981 158.809 169.029 158.747 169.081 158.703C169.132 158.658 169.186 158.632 169.236 158.626C170.702 158.465 171.649 158.369 172.077 158.338C178.411 157.878 185.136 157.327 192.253 156.688Z" fill="#0F5A8B"/>
<path d="M215.993 160.637C221.657 160.253 227.555 160.138 233.43 160.31C233.706 160.318 233.84 160.461 233.834 160.736C233.834 160.798 233.834 160.829 233.834 160.829C233.838 160.87 233.832 160.911 233.818 160.951C233.804 160.99 233.781 161.026 233.751 161.057C233.721 161.088 233.684 161.112 233.643 161.129C233.602 161.147 233.558 161.156 233.513 161.156C228.392 161.223 223.543 161.402 218.967 161.696C211.167 162.192 202.835 162.737 193.971 163.33C191.995 163.462 189.796 163.632 187.375 163.839C182.027 164.298 175.54 164.877 167.913 165.576C167.86 165.583 167.766 165.494 167.629 165.311C167.594 165.263 167.591 165.211 167.622 165.156C167.692 165.04 167.778 164.942 167.874 164.87C167.97 164.798 168.073 164.755 168.175 164.742C174.087 163.999 179.743 163.402 185.142 162.949C194.49 162.169 204.774 161.398 215.993 160.637Z" fill="#0F5A8B"/>
<path d="M233.631 168.186C225.715 168.411 217.99 168.864 209.618 169.625C207.425 169.824 205.224 169.997 203.015 170.144C190.728 170.963 178.675 171.867 166.854 172.857C166.708 172.868 166.629 172.759 166.616 172.53C166.611 172.459 166.64 172.399 166.702 172.351C166.982 172.135 167.199 172.018 167.353 172C172.798 171.361 176.992 170.933 179.934 170.717C193.138 169.742 207.638 168.604 223.435 167.303C224.858 167.186 228.309 167.169 233.79 167.253C233.837 167.254 233.884 167.264 233.928 167.284C233.971 167.303 234.01 167.331 234.041 167.366C234.073 167.4 234.096 167.441 234.111 167.485C234.125 167.529 234.129 167.575 234.124 167.62L234.111 167.72C234.071 168.022 233.911 168.177 233.631 168.186Z" fill="#0F5A8B"/>
<path d="M212.85 177.006C202.712 177.354 194.633 177.656 188.615 177.912C185.461 178.047 182.344 178.235 179.263 178.478C171.023 179.124 166.211 179.475 164.826 179.53C164.778 179.532 164.73 179.519 164.689 179.492C164.649 179.466 164.617 179.428 164.599 179.383C164.581 179.338 164.577 179.289 164.588 179.241C164.599 179.194 164.625 179.152 164.661 179.12C164.709 179.075 164.764 179.025 164.826 178.967C165.034 178.769 165.281 178.655 165.567 178.627C174.792 177.663 183.166 177.011 190.689 176.672C195.704 176.447 205.785 176.079 220.931 175.57C224.901 175.438 229.436 175.517 232.616 175.669C232.834 175.678 232.99 175.86 233.085 176.215C233.116 176.332 233.081 176.424 232.979 176.49C232.649 176.706 232.226 176.812 231.712 176.807C224.552 176.754 218.264 176.82 212.85 177.006Z" fill="#0F5A8B"/>
<path d="M204.906 184.975C190.642 185.524 181.676 185.891 178.008 186.076C174.246 186.268 169.927 186.535 165.051 186.877C164.685 186.903 164.258 186.824 163.77 186.639C163.479 186.526 163.482 186.407 163.777 186.281C164.227 186.093 165.057 185.934 165.712 185.881C179.656 184.743 191.816 184.303 205.823 183.655C214.09 183.274 222.29 182.504 230.799 181.541C231.543 181.458 233.118 181.518 233.138 182.384C233.141 182.488 233.105 182.589 233.038 182.667C232.971 182.745 232.876 182.796 232.774 182.808C223.871 183.88 214.582 184.602 204.906 184.975Z" fill="#0F5A8B"/>
<path d="M58.3624 204.453C50.3259 204.382 41.554 204.12 32.0465 203.666C31.7554 203.652 31.686 203.522 31.8381 203.275C31.8756 203.216 31.9043 203.173 31.9241 203.146C32.1138 202.904 32.3542 202.782 32.6453 202.782C37.7596 202.776 40.7766 202.62 44.561 202.944C47.3729 203.183 49.3578 203.11 53.0066 203.113C54.0784 203.116 54.9782 203.447 55.9772 203.421C59.2368 203.339 62.4898 203.388 65.7361 203.566C68.1312 203.696 70.3343 203.76 72.3457 203.758C79.0258 203.754 83.4851 203.748 85.7236 203.742C88.8166 203.735 91.6483 204.106 94.6223 204.102C110.525 204.08 121.842 204.072 128.573 204.079C131.528 204.081 134.316 204.136 136.936 204.244C139.433 204.348 141.637 204.4 143.549 204.4C160.235 204.415 183.968 204.421 214.749 204.416C216.929 204.416 219.506 204.125 221.696 204.115C235.122 204.047 251.101 204.048 269.633 204.119C269.761 204.119 269.891 204.163 270.011 204.247C270.131 204.33 270.236 204.449 270.315 204.592C270.355 204.662 270.296 204.745 270.14 204.84C270.054 204.893 269.959 204.923 269.855 204.929C269.213 204.982 268.57 205.012 267.926 205.019C262.75 205.071 260.159 205.098 260.152 205.098C255.263 205.277 251.647 205.415 246.586 205.412C200.868 205.386 156.541 205.381 113.604 205.399C108.182 205.402 101.98 205.078 97.4904 205.038C94.7337 205.014 89.4937 205.027 81.7704 205.078C78.7137 205.098 75.8522 204.761 72.8849 204.754C67.1023 204.738 63.1426 204.708 61.0055 204.661C60.2215 204.645 59.2589 204.459 58.3624 204.453Z" fill="#0F5A8B"/>
</svg>
