<svg width="286" height="180" viewBox="0 0 286 180" fill="none" xmlns="http://www.w3.org/2000/svg">
<path d="M95.5827 97.2346C95.5784 97.2431 95.5765 97.2525 95.5772 97.262C95.5779 97.2715 95.581 97.2806 95.5864 97.2884C95.5918 97.2962 95.5992 97.3024 95.6079 97.3064C95.6165 97.3103 95.626 97.3119 95.6355 97.3109C98.319 97.037 100.831 96.5402 103.171 95.8204C103.935 95.5857 104.656 95.1162 105.16 94.503C106.2 93.2443 107.313 92.4374 108.919 91.9797C109.065 91.9387 109.086 91.8633 108.98 91.7538C106.692 89.3684 106.56 85.343 108.758 82.9371C108.849 82.8353 108.847 82.7366 108.752 82.6407C105.989 79.9121 106.229 76.4763 108.213 73.4543C108.549 72.9418 108.971 72.4958 109.481 72.1164C110.469 71.3809 111.431 70.5369 112.367 69.5843C116.646 65.2185 121.953 62.707 128.287 62.0497C130.236 61.8463 132.35 61.7465 134.63 61.7505C138.682 61.7563 142.563 61.9069 146.272 62.2023C154.387 62.8458 162.62 63.8962 170.969 65.3534C170.997 65.3585 171.026 65.3565 171.053 65.3477C171.081 65.3388 171.105 65.3234 171.125 65.3028C171.145 65.2822 171.159 65.257 171.167 65.2295C171.174 65.202 171.175 65.173 171.169 65.1451L170.296 61.2722C170.274 61.1745 170.28 61.0727 170.313 60.9783C170.346 60.8839 170.405 60.8007 170.483 60.7382C172.159 59.3886 173.263 58.4526 174.333 56.39C174.38 56.3 174.452 56.2443 174.55 56.2227C174.878 56.1543 175.209 56.1494 175.543 56.2081C179.34 56.8751 183.167 57.902 187.024 59.2888C187.051 59.2983 187.08 59.2968 187.106 59.2848C187.132 59.2727 187.152 59.251 187.162 59.2243C189.201 53.6115 193.9 49.7943 199.467 47.9723C199.518 47.9555 199.562 47.9199 199.59 47.8723C199.617 47.8247 199.627 47.7684 199.616 47.7141L199.317 46.1708C199.292 46.0456 199.216 45.9791 199.089 45.9713C191.624 45.537 186.072 41.7228 184.554 34.1119C184.537 34.0219 184.495 33.9466 184.428 33.886C182.545 32.0962 181.317 29.2004 182.483 26.6771C183.051 25.4487 184.028 24.6233 185.413 24.2008C185.523 24.1665 185.622 24.1056 185.702 24.0236C185.782 23.9416 185.839 23.8411 185.87 23.7313C186.341 22.0785 186.969 20.5675 187.757 19.1982C187.777 19.1628 187.786 19.1219 187.783 19.0811C187.78 19.0402 187.765 19.0013 187.739 18.9694C187.167 18.2574 186.896 17.3889 186.927 16.364C186.978 14.6212 187.743 13.4691 189.221 12.9077C189.612 12.759 189.616 12.5996 189.233 12.4294C185.481 10.7434 181.411 9.02695 177.022 7.28023C176.448 7.05137 175.393 6.66702 175.809 5.84842C175.964 5.54133 176.218 5.35453 176.574 5.28802C184.633 3.75255 194.113 1.99605 205.015 0.0185106C205.204 -0.0161312 205.398 -0.00199063 205.581 0.0595913C213.347 2.64447 221.527 5.09438 229.053 7.64698C229.604 7.8328 229.833 8.22303 229.739 8.81766C229.723 8.9135 229.675 8.98979 229.595 9.04651C229.304 9.2558 228.994 9.34383 228.664 9.31058C228.511 9.29493 228.443 9.36339 228.459 9.51596L229.138 16.6515C229.187 17.164 228.956 17.4427 228.444 17.4877L225.983 17.7107C225.814 17.7263 225.645 17.6744 225.513 17.5662C225.382 17.458 225.298 17.3023 225.28 17.1327L224.659 11.071C224.656 11.0434 224.647 11.0168 224.632 10.9932C224.618 10.9696 224.598 10.9496 224.575 10.9346C224.551 10.9197 224.525 10.9102 224.497 10.9069C224.47 10.9036 224.442 10.9065 224.416 10.9155L217.484 13.2715C217.414 13.295 217.405 13.3331 217.458 13.3859C219.383 15.3312 219.295 17.9073 217.68 19.9816C217.61 20.0716 217.596 20.1704 217.639 20.278C217.723 20.4833 217.823 20.6809 217.938 20.8706C218.407 21.6482 218.433 22.5049 218.301 23.3822C218.149 24.3876 217.57 25.081 216.564 25.4624C216.353 25.5406 216.353 25.6208 216.564 25.703C218.357 26.3974 219.3 27.6199 219.394 29.3705C219.526 31.8116 218.126 33.9388 215.712 34.3085C215.608 34.3241 215.546 34.3818 215.524 34.4816C214.654 38.2636 212.208 41.4851 208.815 43.5595C208.69 43.6377 208.644 43.7492 208.677 43.894L209.31 46.6725C209.336 46.784 209.405 46.8475 209.518 46.8632C215.152 47.6906 220.584 51.0119 223.396 56.0174C223.438 56.0905 223.502 56.1478 223.579 56.1802C223.657 56.2126 223.743 56.2183 223.824 56.1963C225.949 55.6174 228.11 55.1469 230.307 54.7851C231.139 54.6501 231.289 55.1841 231.479 55.9176C231.905 57.545 232.803 58.8565 234.175 59.8521C234.649 60.1954 235.458 60.5035 235.481 61.1783C235.485 61.3172 235.494 61.458 235.508 61.6008C235.974 66.8136 236.454 72.089 236.946 77.427C236.952 77.4868 236.97 77.5448 237 77.597C237.031 77.6491 237.072 77.6942 237.122 77.7292C239.03 79.0651 239.841 80.7757 239.553 82.8608C239.466 83.4945 239.01 84.4217 238.188 85.6422C237.542 86.6026 236.673 87.1836 235.581 87.3851C232.241 88.0012 229.156 89.4095 226.009 90.3778C225.883 90.4169 225.795 90.499 225.746 90.6242C225.066 92.3494 223.437 93.2913 221.753 93.7842C221.706 93.7974 221.667 93.8276 221.642 93.8685C221.618 93.9095 221.61 93.9581 221.621 94.0042C221.728 94.4952 221.834 94.9822 221.937 95.4654C225.052 110.214 228.156 124.977 231.248 139.755C231.804 142.422 230.202 145.238 227.87 146.667C227.753 146.741 227.707 146.846 227.732 146.981C228.9 153.291 229.862 158.725 230.618 163.282C230.772 164.21 230.91 165.372 231.031 166.768C231.087 167.417 231.547 167.865 231.655 168.514C232.159 171.51 232.63 174.443 233.067 177.31C233.077 177.38 233.114 177.444 233.169 177.488C233.224 177.533 233.295 177.555 233.366 177.551L234.508 177.48C234.63 177.472 234.706 177.411 234.737 177.295C235.273 175.318 237.538 174.033 239.448 173.904C239.492 173.9 239.534 173.881 239.565 173.849C239.596 173.817 239.615 173.775 239.618 173.731C239.79 170.931 239.948 167.986 240.092 164.893C241.018 145.059 241.986 123.893 242.996 101.395C243.002 101.258 242.936 101.192 242.8 101.196L238.009 101.31C237.816 101.314 237.715 101.219 237.705 101.025L237.368 93.526C237.36 93.3636 237.437 93.2795 237.599 93.2737L244.862 93.0301C244.999 93.0243 245.083 92.9558 245.114 92.8247C246.239 88.187 248.928 84.9889 253.182 83.2305C258.192 81.159 263.961 82.2153 267.998 85.7596C271.915 89.1983 273.403 94.7348 271.695 99.708C267.731 111.239 251.656 111.978 245.967 101.457C245.794 101.137 245.583 101.099 245.243 101.096C245.075 101.096 244.987 101.18 244.979 101.348L241.686 173.871C241.684 173.923 241.699 173.974 241.728 174.016C241.758 174.058 241.801 174.09 241.85 174.106C243.745 174.707 245.103 175.798 245.925 177.38C245.974 177.476 246.053 177.524 246.163 177.524L284.952 177.515C285.077 177.515 285.199 177.551 285.305 177.617C285.412 177.683 285.497 177.778 285.552 177.891C285.642 178.071 285.663 178.229 285.614 178.366C285.51 178.66 285.303 178.806 284.993 178.806C272.264 178.793 258.713 178.787 244.338 178.789C185.408 178.797 129.649 178.816 77.0612 178.848C76.8444 178.848 76.5476 178.948 76.1706 179.15C74.8845 179.836 73.279 179.795 72.0485 179.156C71.6989 178.976 71.322 178.879 70.9177 178.865C69.8142 178.832 68.7585 178.814 67.7507 178.812C45.3269 178.767 22.9118 178.769 0.505568 178.818C0.43566 178.818 0.366544 178.803 0.302565 178.775C0.238586 178.747 0.181127 178.706 0.1338 178.655C0.0864741 178.604 0.0503044 178.543 0.0275641 178.477C0.00482385 178.412 -0.00399504 178.342 0.00166237 178.272L0.0192403 178.055C0.0295888 177.914 0.0936105 177.781 0.198472 177.684C0.303333 177.587 0.441283 177.533 0.58467 177.533L67.7653 177.53C68.1755 177.53 68.1999 177.433 67.8386 177.24C64.3737 175.391 61.0485 173.514 57.863 171.609C57.572 171.435 57.3386 171.2 57.1628 170.905C57.1081 170.815 57.1032 170.722 57.1481 170.626C57.3356 170.231 57.5476 169.883 57.7839 169.582C59.0085 168.025 60.2605 166.355 61.5397 164.573C62.0651 163.842 62.4509 162.874 62.697 161.669C63.0427 159.977 63.2595 158.413 63.3474 156.977C63.3485 156.959 63.346 156.941 63.3398 156.923C63.3336 156.906 63.324 156.89 63.3114 156.876C63.2989 156.862 63.2836 156.851 63.2667 156.844C63.2497 156.836 63.2313 156.831 63.2126 156.831C60.9304 156.722 58.3317 156.429 56.2634 155.434C56.1735 155.391 56.0986 155.321 56.0485 155.235C55.9984 155.149 55.9752 155.049 55.9821 154.95L58.2849 121.93C58.2901 121.868 58.2742 121.805 58.2397 121.752C58.2052 121.699 58.154 121.66 58.0944 121.64C51.0515 119.234 43.9978 116.807 36.9333 114.361C36.6618 114.267 36.4001 114.153 36.1481 114.02C36.0836 113.987 36.0335 113.932 36.0075 113.864C35.9815 113.796 35.9815 113.721 36.0075 113.653C38.2341 107.875 40.4519 102.171 42.6608 96.5392C42.989 95.703 42.8132 94.9402 42.9362 94.0893C43.3405 91.258 44.694 88.5968 46.3171 86.2584C46.341 86.2238 46.3513 86.1817 46.3459 86.1404C46.3404 86.0991 46.3197 86.0616 46.2878 86.0354L40.4987 81.3233C40.4789 81.3074 40.4625 81.2875 40.4508 81.2649C40.439 81.2422 40.4321 81.2173 40.4305 81.1917C40.4288 81.1661 40.4325 81.1403 40.4412 81.116C40.4499 81.0917 40.4635 81.0694 40.4812 81.0505C44.8171 76.3541 49.5202 71.7154 54.5905 67.1344C55.989 65.8708 57.4431 64.7256 58.9528 63.6987C58.9766 63.6833 58.9953 63.6612 59.0066 63.6351C59.0179 63.6091 59.0212 63.5804 59.0162 63.5524C59.0112 63.5245 58.9981 63.4987 58.9785 63.4783C58.9588 63.4578 58.9336 63.4436 58.906 63.4375C56.7985 62.929 54.7751 62.2962 52.8356 61.5392C52.7185 61.4923 52.6647 61.4062 52.6745 61.281C52.7067 60.8233 52.9265 60.3832 52.9616 59.9255C53.0515 58.8399 53.195 57.7944 53.3923 56.789C53.3981 56.7582 53.3949 56.7264 53.383 56.6975C53.371 56.6685 53.351 56.6437 53.3252 56.6259C53.2994 56.6082 53.269 56.5984 53.2378 56.5976C53.2065 56.5969 53.1757 56.6053 53.1491 56.6218C52.8249 56.8252 52.6325 57.1147 52.572 57.4902C52.4294 58.3783 52.2673 59.2321 52.0856 60.0517C51.9489 60.6737 51.5798 60.879 50.9782 60.6678C49.8376 60.2668 48.7097 59.7896 47.5944 59.236C47.4929 59.1851 47.4489 59.103 47.4626 58.9895C47.697 57.2526 48.0368 55.545 49.1735 54.1484C50.6481 52.3371 52.3464 50.7009 54.2683 49.2398C54.2802 49.2312 54.2899 49.2198 54.2964 49.2066C54.303 49.1935 54.3063 49.1789 54.306 49.1642C54.3057 49.1495 54.3018 49.135 54.2948 49.1221C54.2877 49.1092 54.2776 49.0983 54.2653 49.0901L54.2009 49.0461C54.0896 48.9698 53.9753 48.9649 53.8581 49.0314C52.03 50.0554 50.3337 51.807 48.9626 53.365C47.7409 54.7528 47.114 56.3313 46.4782 58.0184C46.4597 58.0675 46.431 58.1121 46.3939 58.1491C46.3569 58.1862 46.3124 58.2149 46.2635 58.2333C46.2147 58.2516 46.1625 58.2592 46.1106 58.2556C46.0587 58.2519 46.0082 58.237 45.9626 58.212C44.8337 57.5978 43.6833 56.8614 42.5114 56.0027C42.4973 55.9919 42.4854 55.9784 42.4764 55.9631C42.4674 55.9478 42.4615 55.9309 42.4591 55.9134C42.4566 55.896 42.4576 55.8783 42.4621 55.8614C42.4666 55.8445 42.4744 55.8287 42.4851 55.8149C44.7175 52.9298 47.031 49.9889 49.4255 46.9923C50.5446 45.5918 51.4714 43.935 52.2058 42.0221C54.0515 37.2102 55.945 32.5647 57.8864 28.0854C58.1501 27.4751 58.5192 26.9108 58.9939 26.3925C62.1022 22.9949 65.9372 20.7093 70.4665 19.8349C80.8405 17.8369 90.5231 22.7924 94.0417 32.9266C94.0944 33.083 94.0925 33.2327 94.0358 33.3755C93.9979 33.476 93.9264 33.56 93.8337 33.6131C93.7126 33.6816 93.6159 33.7725 93.5437 33.886C93.4851 33.9799 93.4802 34.0757 93.529 34.1735C94.3884 35.9026 95.0007 37.7882 95.3659 39.8303C95.4978 40.5726 95.8933 41.0303 96.3181 41.6084C97.7624 43.5771 97.3815 45.9272 96.1306 47.8637C95.9567 48.1278 95.8444 48.429 95.7937 48.7674C94.6599 56.3284 88.2849 60.9964 80.7614 60.9436C80.6599 60.9416 80.5993 60.9905 80.5798 61.0903L80.1872 63.1001C80.1751 63.1621 80.1856 63.2264 80.2168 63.2813C80.248 63.3362 80.2978 63.3781 80.3571 63.3994C84.7399 64.9368 89.3454 67.7975 91.3845 71.9931C92.7819 74.8626 93.406 78.0871 93.986 81.3028C94.1003 81.9219 94.2819 82.6055 94.5427 83.1777C95.7468 85.8183 97.0095 88.3591 97.8239 91.211C97.8489 91.2979 97.8555 91.3891 97.8434 91.479C97.8313 91.5689 97.8007 91.6555 97.7536 91.7333C97.3942 92.3162 96.9089 92.7651 96.2976 93.08C96.2019 93.1289 96.1521 93.2071 96.1481 93.3147C96.0954 94.7495 96.2067 95.9495 95.5827 97.2346ZM218.448 7.0191C221.275 7.35065 223.44 8.1311 225.599 9.54824C225.894 9.74188 225.964 9.68027 225.807 9.36339C225.696 9.13649 225.513 8.94676 225.259 8.79419C221.887 6.76384 218.504 6.49391 214.168 6.08901C212.802 5.95992 211.423 5.71933 210.084 5.56089C210.042 5.55576 209.999 5.56407 209.963 5.58464C209.926 5.6052 209.896 5.63695 209.879 5.67532C209.849 5.73986 209.852 5.79659 209.887 5.84549C209.997 5.99806 210.137 6.08315 210.309 6.10075C212.786 6.36873 215.499 6.67485 218.448 7.0191ZM183.567 7.98601C183.587 7.92368 183.581 7.85608 183.551 7.7981C183.521 7.74012 183.469 7.69651 183.407 7.67685L177.902 5.93877C177.84 5.91911 177.773 5.92502 177.715 5.9552C177.657 5.98538 177.613 6.03736 177.594 6.0997L177.59 6.11087C177.571 6.17321 177.576 6.2408 177.607 6.29878C177.637 6.35676 177.689 6.40038 177.751 6.42003L183.255 8.15812C183.317 8.17777 183.385 8.17186 183.443 8.14168C183.501 8.1115 183.544 8.05953 183.564 7.99719L183.567 7.98601ZM212.668 12.2094C215.328 11.0045 217.947 10.2729 220.525 10.0147C220.54 10.0133 220.554 10.0088 220.568 10.0018C220.581 9.99472 220.592 9.98515 220.602 9.97365C220.611 9.96214 220.618 9.94893 220.622 9.93482C220.626 9.92071 220.627 9.90598 220.625 9.89151L220.616 9.81816C220.602 9.71254 220.543 9.66462 220.437 9.6744C217.1 9.97073 214.431 10.9038 211.285 12.3766C208.761 13.5561 205.961 14.8138 202.883 16.1498C202.738 16.2124 202.674 16.3209 202.689 16.4755L202.698 16.5694C202.7 16.5879 202.706 16.6058 202.716 16.6216C202.726 16.6373 202.739 16.6505 202.755 16.6599C202.771 16.6694 202.789 16.6749 202.808 16.676C202.826 16.6771 202.845 16.6737 202.862 16.6662C206.014 15.2285 209.283 13.7429 212.668 12.2094ZM226.598 15.5718C226.607 15.6309 226.638 15.6845 226.685 15.7216C226.732 15.7586 226.791 15.7764 226.85 15.7713L227.571 15.7068C227.632 15.7015 227.688 15.6729 227.728 15.6269C227.768 15.5809 227.788 15.5211 227.785 15.4603L227.565 11.0739C227.564 11.0423 227.556 11.0113 227.542 10.9828C227.528 10.9542 227.509 10.9288 227.485 10.908C227.461 10.8871 227.434 10.8713 227.404 10.8615C227.373 10.8517 227.342 10.8481 227.31 10.8509L226.174 10.9624C226.142 10.9653 226.111 10.9746 226.083 10.9897C226.055 11.0049 226.031 11.0256 226.011 11.0506C225.991 11.0755 225.977 11.1043 225.968 11.135C225.96 11.1658 225.958 11.1979 225.963 11.2294L226.598 15.5718ZM201.454 16.189C201.466 16.1643 201.473 16.1376 201.474 16.1103C201.476 16.083 201.472 16.0556 201.463 16.0298C201.454 16.004 201.44 15.9802 201.422 15.9598C201.403 15.9394 201.381 15.9228 201.357 15.9109L192.122 11.4602C192.098 11.4483 192.071 11.4414 192.044 11.4399C192.017 11.4384 191.989 11.4422 191.964 11.4513C191.938 11.4603 191.914 11.4744 191.894 11.4926C191.873 11.5108 191.857 11.5329 191.845 11.5576L191.842 11.5629C191.83 11.5875 191.824 11.6142 191.822 11.6416C191.821 11.6689 191.824 11.6962 191.833 11.722C191.842 11.7479 191.856 11.7717 191.875 11.792C191.893 11.8124 191.915 11.829 191.94 11.8409L201.174 16.2917C201.198 16.3035 201.225 16.3104 201.252 16.3119C201.28 16.3135 201.307 16.3096 201.333 16.3006C201.359 16.2915 201.382 16.2775 201.403 16.2592C201.423 16.241 201.44 16.2189 201.451 16.1943L201.454 16.189ZM194.586 25.5798C194.439 26.4658 194.052 27.66 194.099 28.5314C194.102 28.5892 194.127 28.6437 194.169 28.6836C194.211 28.7235 194.267 28.7457 194.325 28.7456H194.425C194.526 28.7456 194.578 28.6937 194.58 28.5901C194.603 27.5358 194.754 26.6732 195.031 26.0023C195.634 24.547 196.767 23.6902 198.429 23.432C198.881 23.3616 199.332 23.3792 199.777 23.3792C199.937 23.3812 199.964 23.3225 199.856 23.2032C199.409 22.6985 199.115 22.1196 198.974 21.4663C198.968 21.4375 198.956 21.4102 198.939 21.3863C198.922 21.3624 198.9 21.3424 198.875 21.3275C198.85 21.3126 198.822 21.3031 198.793 21.2997C198.765 21.2963 198.735 21.2991 198.708 21.3078C198.005 21.5171 197.441 21.3509 197.017 20.809C196.933 20.7015 196.824 20.6584 196.689 20.6799C196.103 20.7738 195.552 21.0702 195.081 20.5098C195.049 20.4714 195.009 20.4403 194.964 20.4183C194.919 20.3963 194.87 20.384 194.82 20.382C194.769 20.3801 194.719 20.3886 194.673 20.4071C194.626 20.4255 194.583 20.4535 194.548 20.4892C193.417 21.6306 191.934 22.2526 190.346 21.8653C189.508 21.6628 188.808 21.0848 188.498 20.2574C188.488 20.2296 188.47 20.2055 188.446 20.1882C188.422 20.1709 188.393 20.1612 188.363 20.1602C188.334 20.1593 188.304 20.1672 188.278 20.1829C188.253 20.1986 188.232 20.2215 188.219 20.2486L186.778 23.4849C186.698 23.6609 186.749 23.7176 186.93 23.655C188.439 23.1269 190.803 23.2912 191.858 24.6761C192.634 25.6971 192.84 27.0057 193.033 28.2732C193.041 28.3182 193.067 28.3465 193.112 28.3583C193.122 28.3622 193.132 28.3622 193.141 28.3583C193.208 28.3329 193.245 28.2849 193.253 28.2145C193.341 27.4321 193.475 26.6047 193.657 25.7323C193.686 25.5974 193.77 25.5221 193.909 25.5064L194.457 25.4419C194.475 25.4397 194.493 25.4419 194.511 25.4482C194.528 25.4545 194.543 25.4648 194.556 25.4782C194.568 25.4916 194.578 25.5078 194.583 25.5254C194.588 25.5431 194.589 25.5617 194.586 25.5798ZM216.245 29.303C215.134 29.2649 214.707 30.1011 213.646 30.2478C211.029 30.6077 208.479 30.9833 205.997 31.3745C205.91 31.3887 205.828 31.4264 205.762 31.4835C205.696 31.5405 205.647 31.6145 205.622 31.6972C204.675 34.6928 201.245 35.086 198.588 34.4728C196.039 33.886 195.16 32.1666 194.413 29.8693C194.352 29.6835 194.214 29.6453 193.997 29.7549C193.95 29.7789 193.909 29.8128 193.876 29.8543C193.843 29.8958 193.819 29.944 193.806 29.9955L192.804 34.0826C192.775 34.2078 192.824 34.2733 192.951 34.2791L194.468 34.3642C194.522 34.3673 194.575 34.382 194.623 34.4073C194.67 34.4326 194.712 34.4679 194.745 34.5108C194.778 34.5537 194.801 34.6031 194.813 34.6558C194.825 34.7085 194.825 34.7632 194.814 34.8161L194.794 34.907C194.777 34.983 194.737 35.0517 194.679 35.1034C194.621 35.1551 194.549 35.187 194.471 35.1946C193.771 35.2591 192.213 35.2914 191.893 34.4816C191.732 34.065 192.072 33.619 192.177 33.2141C192.244 32.9559 192.186 32.9246 192.005 33.1202C191.676 33.4752 191.425 33.8831 190.982 34.1207C189.368 34.9833 187.616 34.9569 185.785 34.4875C185.636 34.4483 185.58 34.5041 185.615 34.6547C186.746 39.2377 189.344 42.3086 193.411 43.8676C197.512 45.4382 201.654 45.4754 205.836 43.9791C210.289 42.3859 213.957 38.334 214.783 33.5867C214.793 33.5297 214.823 33.4781 214.868 33.4414C214.913 33.4048 214.971 33.3855 215.029 33.3872C217.505 33.4576 218.726 31.219 218.325 28.948C217.985 27.0174 216.107 26.0111 214.384 26.991C213.977 27.2199 213.711 27.6189 213.444 27.9886C212.925 28.7084 212.666 28.6272 212.668 27.7451C212.67 27.2326 213.095 26.6546 213.945 26.0111C214.099 25.8937 214.084 25.8076 213.898 25.7529C212.468 25.3186 211.092 25.1631 210.845 23.3294C210.822 23.1455 210.717 23.0604 210.532 23.0741C209.05 23.1739 208.68 22.7866 208.238 21.4604C208.225 21.4215 208.203 21.3864 208.173 21.3577C208.144 21.329 208.108 21.3077 208.069 21.2954C208.03 21.2831 207.989 21.2802 207.948 21.287C207.908 21.2937 207.87 21.3099 207.837 21.3342C206.854 22.0677 205.822 22.1616 204.74 21.6159C204.714 21.603 204.686 21.5958 204.657 21.5946C204.628 21.5935 204.599 21.5985 204.572 21.6093C204.545 21.6201 204.521 21.6365 204.501 21.6573C204.481 21.6782 204.466 21.7031 204.456 21.7303C204.189 22.4785 203.621 22.9245 202.935 23.3088C202.804 23.3812 202.802 23.4575 202.929 23.5377C203.304 23.7753 203.753 23.9455 204.072 24.2594C205.522 25.6824 205.844 27.9593 205.941 29.9515C205.942 29.9762 205.949 30.0004 205.96 30.0223C205.972 30.0443 205.988 30.0636 206.007 30.0789C206.026 30.0942 206.049 30.1052 206.073 30.111C206.097 30.1169 206.122 30.1175 206.146 30.1128C208.359 29.7216 210.672 29.4194 213.084 29.2062C213.919 29.1329 214.616 28.7955 215.378 28.4786C215.867 28.2761 216.374 28.5402 216.459 29.0566C216.486 29.2248 216.415 29.307 216.245 29.303ZM195.971 26.4365C195.409 27.9563 195.491 30.0659 196.276 31.5417C197.237 33.351 198.903 34.152 201.274 33.9447C203.491 33.7491 204.716 32.6253 204.948 30.5735C205.179 28.5255 204.608 24.9724 202.176 24.3533C199.847 23.7577 196.973 23.7431 195.971 26.4365ZM191.923 31.2131C192.327 28.8013 192.16 24.6086 189.054 24.2125C188.07 24.0863 186.675 24.1714 186.298 25.2688C185.436 27.7666 185.044 30.2791 185.12 32.8063C185.123 32.912 185.153 33.0154 185.207 33.1063C185.261 33.1973 185.338 33.2728 185.43 33.3256C187.695 34.6312 191.383 34.4171 191.923 31.2131ZM185.26 25.436C185.267 25.4145 185.267 25.3913 185.261 25.3697C185.254 25.3482 185.24 25.3293 185.222 25.3157C185.204 25.3021 185.182 25.2945 185.16 25.294C185.137 25.2935 185.115 25.3 185.096 25.3128C184.753 25.5357 184.483 25.8409 184.288 26.2282C183.524 27.7304 183.465 29.3236 184.109 31.0077C184.185 31.2072 184.228 31.1994 184.238 30.9842C184.32 29.1035 184.704 27.258 185.26 25.436ZM76.3024 39.5223C76.2217 39.4787 76.1587 39.4082 76.1245 39.3229C76.0902 39.2377 76.0869 39.1432 76.1149 39.0557C77.3942 35.0674 77.8142 31.0429 77.3747 26.9822C77.3552 26.8101 77.28 26.6673 77.1491 26.5539C77.1081 26.5186 77.0593 26.501 77.0026 26.501C76.8854 26.505 76.8317 26.5656 76.8415 26.683C77.2019 30.7994 76.8825 35.0244 75.488 38.8269C75.3181 39.2885 74.9812 39.5477 74.4772 39.6044C73.3503 39.7335 72.2761 39.7912 71.2546 39.7775C71.1374 39.7756 71.0798 39.8333 71.0817 39.9506L71.1403 42.7204C71.1423 42.8201 71.194 42.8729 71.2956 42.8788L74.2722 43.0284C74.3601 43.0343 74.4138 42.9932 74.4333 42.9052C74.7478 41.3756 75.405 40.3487 76.405 39.8245C76.5573 39.7443 76.5573 39.6621 76.405 39.578L76.3024 39.5223ZM89.3132 36.556C89.2331 33.1368 88.1081 30.0561 85.9382 27.3138C85.9186 27.2883 85.8952 27.2854 85.8679 27.305C85.8366 27.3265 85.8317 27.3529 85.8532 27.3842C87.6462 29.9955 88.7888 32.7857 88.8737 36.0249C88.8825 36.4239 88.8386 36.8406 88.4401 37.0459C86.28 38.153 84.0651 38.7066 81.7956 38.7066C81.7116 38.7068 81.6285 38.6884 81.5524 38.6526C81.4763 38.6168 81.4089 38.5645 81.3552 38.4995C81.3015 38.4345 81.2627 38.3584 81.2416 38.2765C81.2205 38.1946 81.2176 38.1091 81.2331 38.0259C81.8308 34.8865 81.9626 31.8909 81.4206 28.6664C81.409 28.5975 81.3798 28.5331 81.3361 28.4795C81.2924 28.426 81.2357 28.3852 81.1716 28.3612L81.072 28.3231C80.9294 28.2683 80.8718 28.3162 80.8991 28.4668C81.3405 30.8043 81.3952 33.22 81.0632 35.7139C80.9089 36.8679 80.572 37.7853 80.0524 38.466C79.9587 38.5892 79.989 38.6597 80.1433 38.6773C80.7028 38.7418 81.3386 38.8181 81.8425 39.0469C83.8874 39.978 85.0886 41.4724 85.446 43.5301C85.4733 43.6866 85.5651 43.7707 85.7214 43.7825L86.3689 43.8353C86.4324 43.8399 86.4953 43.8207 86.5452 43.7816C86.5951 43.7425 86.6283 43.6863 86.6384 43.624C86.9665 41.6846 88.0915 39.8421 90.1071 39.3873C91.6149 39.045 93.0163 39.1672 94.3112 39.754C94.3776 39.7853 94.403 39.7648 94.3874 39.6924C94.0456 38.1726 93.5544 36.6019 92.9138 34.9804C92.9047 34.9573 92.8905 34.9366 92.8721 34.92C92.8538 34.9033 92.8319 34.8911 92.8081 34.8843C92.7843 34.8775 92.7592 34.8763 92.7349 34.8807C92.7105 34.8852 92.6875 34.8952 92.6677 34.91C91.7028 35.6317 90.6491 36.2234 89.5065 36.6851C89.4856 36.6935 89.463 36.6967 89.4405 36.6943C89.418 36.6919 89.3964 36.6841 89.3774 36.6714C89.3585 36.6588 89.3428 36.6417 89.3316 36.6216C89.3204 36.6015 89.3141 36.579 89.3132 36.556ZM81.2624 48.0368C82.7272 47.6935 83.9196 46.206 84.0105 44.7096C84.0905 43.4382 83.7009 42.2871 82.8415 41.2563C81.406 39.5369 78.8015 39.487 77.2165 41.1008C74.0261 44.3458 76.9792 49.0432 81.2624 48.0368ZM95.2663 46.6373C95.445 44.9913 95.1696 43.3189 94.613 41.6817C94.1794 40.3995 92.2575 40.0416 91.1589 40.2323C89.5681 40.5081 88.5515 42.3829 88.2526 43.891C87.737 46.4906 90.1745 48.518 92.5739 48.4681C93.6491 48.4476 95.1286 47.8784 95.2663 46.6373ZM86.0524 49.5126L87.4704 49.228C87.537 49.215 87.5999 49.187 87.6542 49.1463C87.7085 49.1055 87.753 49.053 87.7842 48.9926C87.8155 48.9323 87.8328 48.8657 87.8347 48.7977C87.8367 48.7297 87.8233 48.6622 87.7956 48.6001C87.444 47.8158 87.0183 46.96 86.5183 46.0329C86.3952 45.8021 86.2312 45.6407 86.0261 45.5488C85.9518 45.5157 85.8717 45.498 85.7905 45.4968C85.7093 45.4955 85.6286 45.5107 85.5534 45.5413C85.4782 45.572 85.4099 45.6176 85.3527 45.6753C85.2955 45.7331 85.2505 45.8018 85.2204 45.8774C84.4782 47.7551 83.1745 48.9307 81.3093 49.4041C78.1423 50.2109 75.0251 48.4798 74.3103 45.2671C74.2954 45.2001 74.2586 45.1398 74.2056 45.0958C74.1526 45.0517 74.0864 45.0263 74.0173 45.0236C73.1696 44.9884 72.3728 44.9042 71.6267 44.7712C70.7751 44.6187 70.3649 44.1698 70.3962 43.4245C70.4001 43.3326 70.3737 43.2504 70.3171 43.1781C69.3972 42.0455 68.0437 41.2416 66.6608 42.1335C65.8972 42.6265 65.5524 43.4001 65.6267 44.4544C65.7468 46.1268 67.153 47.3649 68.7644 47.6994C68.8133 47.7094 68.8593 47.7305 68.8984 47.7611C68.9376 47.7917 68.9689 47.8308 68.9899 47.8754C69.9509 49.8882 71.0847 52.4701 71.2429 54.6824C71.3855 56.7049 71.2995 58.9465 70.9851 61.4072C70.9822 61.4305 70.9842 61.4541 70.9909 61.4766C70.9976 61.499 71.0089 61.5199 71.024 61.5378C71.0391 61.5557 71.0578 61.5703 71.0788 61.5806C71.0999 61.591 71.1228 61.5968 71.1462 61.5979C73.9235 61.7289 76.572 62.1857 79.0915 62.9681C79.2146 63.0072 79.2897 62.9642 79.3171 62.839C79.5397 61.8395 79.7546 60.8663 79.9616 59.9196C80.0163 59.6732 80.0974 59.4365 80.2048 59.2096C80.228 59.1625 80.263 59.1225 80.3063 59.0936C80.3495 59.0647 80.3994 59.0481 80.4509 59.0453C80.5993 59.0375 80.7243 59.0766 80.8259 59.1626C80.906 59.2311 80.947 59.3181 80.9489 59.4238L80.9577 59.9343C80.9597 60.0556 81.0212 60.1133 81.1423 60.1074C87.9919 59.7993 93.4353 55.9235 94.8122 49.1253C94.8167 49.1051 94.8151 49.084 94.8077 49.0647C94.8003 49.0453 94.7873 49.0285 94.7704 49.0162C94.7535 49.0038 94.7332 48.9965 94.7121 48.9951C94.691 48.9936 94.6698 48.9981 94.6511 49.008C92.9548 49.9498 91.0622 50.073 89.404 49.1664C89.1814 49.0451 88.9548 48.9268 88.7243 48.8114C88.5915 48.7449 88.5222 48.786 88.5163 48.9346C88.4489 50.2051 87.236 50.2109 86.3015 50.1024C86.0866 50.0789 85.9528 49.9645 85.9001 49.7591C85.863 49.6222 85.9138 49.54 86.0524 49.5126ZM207.769 44.2314C207.756 44.1786 207.725 44.1639 207.678 44.1874C205.374 45.2886 202.893 45.8715 200.237 45.936C200.202 45.936 200.186 45.9536 200.19 45.9889L200.401 47.5468C200.402 47.5572 200.406 47.5672 200.411 47.5761C200.417 47.5851 200.424 47.5928 200.432 47.5989C200.441 47.6049 200.451 47.6091 200.461 47.6113C200.471 47.6135 200.482 47.6135 200.492 47.6114C203.175 47.0627 205.645 46.6109 208.25 46.7488C208.363 46.7546 208.405 46.7028 208.376 46.5933L207.769 44.2314ZM201.046 58.7724C201.106 58.7802 201.165 58.7949 201.221 58.8164C201.462 58.9084 201.558 59.0815 201.511 59.3358L200.272 66.2307C200.241 66.4009 200.291 66.4293 200.422 66.3158C201.89 65.0424 203.609 63.8854 205.578 62.8448C210.98 59.9871 216.544 58.0536 222.421 56.522C222.447 56.5153 222.471 56.5024 222.491 56.4844C222.511 56.4664 222.527 56.4438 222.537 56.4186C222.546 56.3933 222.55 56.3661 222.547 56.3392C222.544 56.3123 222.535 56.2864 222.52 56.2638C219.735 51.9391 215.922 49.2251 211.08 48.1219C202.235 46.1121 191.258 50.6716 188.108 59.4795C188.088 59.5353 188.089 59.5968 188.113 59.6514C188.136 59.706 188.18 59.7495 188.234 59.7729C192.046 61.416 196.311 63.5519 199.317 66.2689C199.403 66.3471 199.451 66.3275 199.461 66.2102C199.656 63.8708 200.047 61.4893 200.633 59.0658C200.653 58.9751 200.707 58.8953 200.783 58.8412C200.859 58.7872 200.952 58.7627 201.046 58.7724ZM194.12 66.8204C189.243 64.2796 183.897 62.2404 178.083 60.703C176.768 60.3548 175.472 60.0213 174.195 59.7025C174.104 59.6797 174.024 59.6281 173.967 59.5558C173.912 59.4854 173.847 59.4316 173.773 59.3944C173.709 59.3631 173.649 59.371 173.594 59.4179L171.933 60.8526C171.926 60.8581 171.922 60.8654 171.919 60.8736C171.917 60.8819 171.917 60.8908 171.92 60.8993C171.923 60.9077 171.928 60.9153 171.935 60.9211C171.942 60.9269 171.951 60.9306 171.96 60.9319C178.985 61.7974 185.975 63.9568 191.999 67.7476C192.151 67.8435 192.315 67.9236 192.491 67.9882C193.833 68.484 195.339 68.7775 196.786 69.1031C199.563 69.7251 201.743 69.2469 204.409 68.5016C204.792 68.396 205.097 68.4889 205.326 68.7804C205.405 68.8813 205.516 68.9516 205.641 68.9794C205.766 69.0073 205.897 68.9908 206.011 68.933C210.05 66.9065 214.092 65.2752 218.137 64.039C223.132 62.5133 228.141 61.3915 233.167 60.6737C233.181 60.672 233.195 60.666 233.206 60.6564C233.217 60.6467 233.226 60.6339 233.229 60.6197C233.233 60.6054 233.232 60.5903 233.228 60.5764C233.223 60.5625 233.214 60.5504 233.202 60.5416C232.583 60.0605 231.991 59.4316 231.426 58.6551C231.368 58.5768 231.291 58.5475 231.195 58.567C227.269 59.3974 223.267 60.169 219.488 61.5245C215.267 63.0404 211.024 64.7422 206.758 66.6298C206.725 66.6452 206.688 66.6534 206.651 66.6538C206.615 66.6543 206.578 66.6469 206.544 66.6323C206.509 66.6177 206.479 66.5961 206.453 66.5689C206.428 66.5417 206.408 66.5094 206.395 66.4742C206.352 66.3569 206.369 66.2503 206.445 66.1544C206.656 65.8904 206.894 65.6948 207.16 65.5676C210.974 63.7505 214.987 62.0967 219.198 60.6062C222.837 59.3181 226.859 58.567 230.603 57.6369C230.728 57.6076 230.771 57.5303 230.732 57.4052L230.281 55.9704C230.263 55.912 230.225 55.8621 230.172 55.8302C230.12 55.7983 230.057 55.7866 229.997 55.7973C225.696 56.5132 221.222 57.7719 217.25 59.0013C213.189 60.259 209.26 61.9236 205.464 63.995C204.378 64.5857 203.302 65.282 202.238 66.084C201.432 66.6914 200.89 67.4865 200.211 68.2082C200.175 68.2463 200.131 68.2762 200.083 68.296C200.035 68.3158 199.983 68.3251 199.931 68.3231C199.878 68.3212 199.827 68.3081 199.781 68.2847C199.734 68.2614 199.693 68.2283 199.66 68.1877C198.656 66.9476 197.501 65.8992 196.194 65.0424C189.892 60.9113 182.873 58.5406 175.505 57.1206C175.425 57.1049 175.361 57.1303 175.314 57.1968L174.169 58.7871C174.133 58.836 174.145 58.8673 174.204 58.881C176.54 59.3778 179.189 60.0839 182.152 60.9993C186.359 62.2981 190.076 63.8209 193.302 65.5676C193.773 65.8219 194.113 66.175 194.322 66.6268C194.445 66.8889 194.378 66.9535 194.12 66.8204ZM65.4187 64.6669C67.0651 62.7392 67.3991 58.6169 67.3815 56.0731C67.3815 55.9773 67.3337 55.9352 67.238 55.9469L67.1472 55.9587C66.9831 55.9782 66.8972 56.0702 66.8894 56.2345C66.8161 57.7279 66.3386 65.0395 64.0271 64.6904C62.8786 64.5182 61.8024 64.2786 60.7985 63.9715C60.7227 63.9478 60.6424 63.9415 60.5638 63.9532C60.4851 63.9649 60.4102 63.9942 60.3444 64.039C58.4245 65.3437 56.57 66.8107 54.781 68.44C50.4841 72.3521 46.2966 76.448 42.2185 80.7277C41.986 80.9703 42.0007 81.1982 42.2624 81.4114C44.3757 83.1307 46.4929 84.8647 48.614 86.6134C49.2731 87.1562 50.2019 87.6785 50.9577 88.0481C53.819 89.4506 56.5466 90.988 59.1403 92.6604C59.2255 92.7153 59.3281 92.7362 59.4276 92.7188C59.527 92.7014 59.6159 92.647 59.6765 92.5665C62.3093 89.1005 64.7663 85.7097 67.0476 82.3943C68.7468 79.9199 70.113 77.7409 71.1462 75.8572C71.1773 75.8005 71.2195 75.7507 71.2703 75.7109C71.3211 75.671 71.3795 75.642 71.4417 75.6255C71.504 75.609 71.5689 75.6054 71.6324 75.615C71.6959 75.6246 71.7568 75.6471 71.8112 75.6812L71.9167 75.7487C72.2468 75.9521 72.3142 76.2211 72.1189 76.5555C68.738 82.3062 64.8034 87.787 60.7663 93.0595C60.756 93.0724 60.7491 93.0878 60.7463 93.1041C60.7434 93.1205 60.7446 93.1372 60.7499 93.153C60.7551 93.1687 60.7642 93.1829 60.7763 93.1942C60.7883 93.2055 60.803 93.2137 60.819 93.2179C65.6687 94.6223 70.5905 95.6101 75.5847 96.1813C75.6823 96.193 75.7722 96.1715 75.8542 96.1167C76.6687 95.571 77.5144 95.2052 78.3913 95.0194C78.4349 95.0104 78.4759 94.9908 78.511 94.9623C78.5462 94.9337 78.5744 94.897 78.5935 94.8551L86.8874 76.7727C87.0163 76.493 87.2302 76.3903 87.529 76.4646C87.654 76.4959 87.7722 76.5624 87.8835 76.6641C87.9653 76.7394 88.0212 76.8387 88.0433 76.9478C88.0654 77.0569 88.0526 77.1701 88.0066 77.2715L79.9587 94.9548C79.9021 95.0781 79.9401 95.1514 80.073 95.1749C82.8708 95.6825 84.5144 98.2233 84.1101 101.037C84.1079 101.054 84.1094 101.07 84.1144 101.086C84.1193 101.102 84.1277 101.117 84.1388 101.129C84.15 101.141 84.1637 101.151 84.1789 101.157C84.1942 101.164 84.2107 101.167 84.2272 101.166C87.113 101.075 91.0212 100.609 93.3356 98.7632C95.0261 97.4136 95.3835 95.037 95.0788 92.9861C94.4382 88.7142 93.5837 83.9591 92.5153 78.7209C91.7448 74.9565 90.5495 71.1658 87.6257 68.6249C83.1462 64.7373 77.0378 62.8272 71.1843 62.5837C71.1046 62.5796 71.0264 62.6067 70.9663 62.6593C70.9061 62.7118 70.8688 62.7857 70.862 62.8654L70.6247 65.2889C70.6194 65.3439 70.5932 65.3946 70.5516 65.4303C70.51 65.4659 70.4563 65.4836 70.4021 65.4796C68.7673 65.3701 67.1403 65.193 65.5212 64.9485C65.4912 64.9441 65.4631 64.9317 65.4396 64.9125C65.4162 64.8933 65.3983 64.868 65.3878 64.8393C65.3774 64.8106 65.3747 64.7795 65.3801 64.7491C65.3856 64.7188 65.3989 64.6904 65.4187 64.6669ZM115.736 67.8738C115.675 67.9188 115.618 67.9677 115.563 68.0205C115.436 68.1476 115.455 68.175 115.619 68.1026C121.291 65.6243 127.205 64.5749 133.361 64.9544C141.998 65.4884 150.91 67.7946 159.183 70.6758C159.216 70.6878 159.25 70.6927 159.285 70.6901C159.32 70.6876 159.354 70.6777 159.385 70.6611C163.176 68.6464 167.196 67.5892 171.444 67.4894C171.468 67.4887 171.491 67.4831 171.513 67.473C171.535 67.4629 171.554 67.4485 171.57 67.4307C171.586 67.4128 171.598 67.3919 171.606 67.3692C171.613 67.3465 171.616 67.3225 171.614 67.2987C171.588 66.9319 171.391 66.6415 171.013 66.5447C170.527 66.4214 170.034 66.3168 169.534 66.2307C159.019 64.4468 148.458 63.1353 137.817 62.7803C134.143 62.659 131.005 62.7275 128.401 62.9857C123.755 63.4493 119.533 65.0786 115.736 67.8738ZM115.821 69.1149C115.432 69.2968 115.446 69.3369 115.862 69.2352C119.112 68.4332 122.36 68.0048 125.606 67.9501C134.331 67.8034 143.161 68.4841 151.777 69.8718C152.905 70.0538 153.977 70.3501 155.114 70.5203C155.141 70.5242 155.159 70.5124 155.167 70.485V70.4821C155.173 70.4547 155.162 70.4362 155.134 70.4264C147.611 68.1085 140.093 66.1691 132.151 65.8317C126.426 65.5891 120.983 66.6835 115.821 69.1149ZM166.323 69.5608C167.883 69.3868 169.692 69.2801 171.749 69.241C171.883 69.2391 171.943 69.1696 171.927 69.0327L171.907 68.8831C171.895 68.7755 171.835 68.7207 171.725 68.7188C169.503 68.6757 167.308 68.9427 165.142 69.5198C164.853 69.596 164.858 69.6332 165.157 69.6313C165.544 69.6254 165.932 69.6019 166.323 69.5608ZM155.041 71.242V71.2391C155.041 71.2098 155.027 71.1941 155 71.1922C152.047 70.8929 148.727 70.3031 146.222 70.0332C140.082 69.376 134.384 68.9897 129.131 68.8743C123.796 68.754 118.631 69.0562 113.668 70.9926C113.107 71.2117 113.128 71.331 113.729 71.3506C115.414 71.4034 117.183 71.3066 118.929 71.3183C127.531 71.3731 136.032 71.3721 144.432 71.3154C147.128 71.2978 151.455 71.4269 154.997 71.286C155.026 71.286 155.041 71.2714 155.041 71.242ZM199.938 70.5878C197.802 70.7286 195.907 70.0303 193.862 69.4493C193.835 69.442 193.806 69.4442 193.78 69.4554C193.755 69.4666 193.734 69.4862 193.721 69.5109L193.669 69.6166C193.602 69.7535 193.638 69.8523 193.777 69.9129C197.435 71.5384 201.069 71.5941 204.678 70.0802C204.696 70.0727 204.711 70.0618 204.723 70.048C204.736 70.0342 204.746 70.0179 204.751 70.0001C204.757 69.9824 204.759 69.9636 204.757 69.945C204.755 69.9265 204.749 69.9085 204.74 69.8924L204.687 69.8073C204.651 69.7458 204.595 69.6987 204.527 69.6736C204.46 69.6486 204.386 69.6471 204.318 69.6694C202.707 70.1956 201.247 70.5017 199.938 70.5878ZM172.335 71.0924L172.297 70.2357C172.296 70.2226 172.293 70.2097 172.288 70.1977C172.283 70.1857 172.275 70.175 172.265 70.166C172.256 70.157 172.245 70.15 172.232 70.1453C172.22 70.1406 172.207 70.1384 172.194 70.1388L172.13 70.1418C169.777 70.2446 167.522 70.3979 165.862 70.5679C164.202 70.7379 163.272 70.9108 163.276 71.0484L163.279 71.066C163.279 71.1343 163.51 71.1919 163.957 71.2356C164.405 71.2792 165.06 71.308 165.887 71.3202C166.713 71.3325 167.693 71.328 168.772 71.307C169.851 71.2861 171.007 71.249 172.174 71.198L172.238 71.1951C172.251 71.1947 172.264 71.1918 172.276 71.1864C172.288 71.181 172.299 71.1733 172.308 71.1638C172.317 71.1543 172.324 71.1431 172.328 71.1308C172.333 71.1186 172.335 71.1055 172.335 71.0924ZM210.265 89.0369C208.979 83.1953 207.561 77.694 205.921 72.09C205.915 72.0691 205.904 72.05 205.889 72.0341C205.874 72.0183 205.856 72.0062 205.836 71.9988C205.815 71.9913 205.793 71.9888 205.771 71.9914C205.749 71.994 205.728 72.0016 205.71 72.0137L205.633 72.0636C205.505 72.1496 205.463 72.267 205.508 72.4156C207.138 77.8006 208.568 83.431 209.797 89.3068C209.801 89.3296 209.811 89.351 209.826 89.3694C209.84 89.3879 209.858 89.4028 209.879 89.4132C209.9 89.4237 209.923 89.4293 209.946 89.4296C209.969 89.43 209.992 89.4251 210.013 89.4154L210.092 89.3802C210.243 89.3137 210.3 89.1993 210.265 89.0369ZM192.942 73.378C194.178 78.0607 195.413 83.429 196.645 89.4829C196.676 89.6413 196.774 89.7235 196.938 89.7293L197.026 89.7323C197.048 89.7326 197.071 89.7281 197.091 89.7189C197.111 89.7097 197.129 89.6962 197.144 89.6793C197.158 89.6624 197.168 89.6426 197.174 89.6213C197.179 89.6 197.18 89.5777 197.175 89.5562C196.07 84.2456 194.864 78.982 193.557 73.7653C193.434 73.2743 193.282 72.757 193.1 72.2132C193.081 72.1537 193.039 72.1038 192.985 72.0733C192.931 72.0429 192.867 72.0341 192.807 72.0489L192.719 72.0724C192.701 72.0767 192.684 72.0849 192.668 72.0963C192.653 72.1077 192.641 72.1221 192.631 72.1386C192.622 72.1551 192.616 72.1734 192.614 72.1923C192.612 72.2112 192.614 72.2303 192.62 72.2484C192.733 72.6181 192.841 72.9946 192.942 73.378ZM112.759 74.446C132.758 74.5604 152.758 74.4548 172.721 74.3814C172.915 74.3814 172.997 74.2856 172.967 74.0939L172.78 72.9203C172.767 72.8368 172.725 72.7607 172.661 72.7054C172.597 72.65 172.516 72.6191 172.431 72.6181C152.541 72.4694 133.468 72.4557 115.215 72.577C114.638 72.579 114.027 72.5907 113.381 72.6122C113.217 72.6161 113.109 72.6973 113.058 72.8558L112.601 74.2259C112.552 74.3707 112.605 74.444 112.759 74.446ZM111.822 81.9571C110.225 78.9409 110.225 75.781 111.632 72.7589C111.64 72.74 111.644 72.7189 111.642 72.6981C111.64 72.6773 111.632 72.6575 111.619 72.6408C111.606 72.6242 111.589 72.6113 111.57 72.6037C111.55 72.5961 111.529 72.594 111.508 72.5975C110.07 72.8792 109.027 75.0034 108.837 76.2123C108.526 78.1839 108.973 79.9434 110.178 81.4906C110.565 81.9864 111.087 82.2182 111.719 82.1478C111.741 82.1453 111.761 82.1378 111.779 82.1257C111.797 82.1136 111.812 82.0975 111.822 82.0786C111.832 82.0598 111.837 82.0389 111.837 82.0177C111.837 81.9965 111.832 81.9757 111.822 81.9571ZM149.269 78.3013C156.789 78.2954 164.418 78.3081 172.156 78.3394C172.232 78.34 172.305 78.3139 172.364 78.2656C172.422 78.2173 172.462 78.1499 172.475 78.0754C172.598 77.4005 172.883 76.847 173.331 76.4147C173.388 76.36 173.428 76.2898 173.446 76.2128C173.464 76.1357 173.459 76.055 173.432 75.9803C173.405 75.9056 173.357 75.8401 173.294 75.7918C173.231 75.7434 173.155 75.7142 173.076 75.7076C172.728 75.6802 172.375 75.6646 172.015 75.6607C151.767 75.4749 132.035 75.4123 112.818 75.4729C112.388 75.4729 112.144 75.6871 112.086 76.1154C111.996 76.7648 111.933 77.2118 111.898 77.4563C111.84 77.8827 112.025 78.0989 112.455 78.1047C125.527 78.2436 137.799 78.3091 149.269 78.3013ZM234.203 86.6806C235.252 86.7375 236.281 86.3515 237.064 85.6077C237.848 84.8638 238.322 83.823 238.382 82.7142C238.442 81.6055 238.083 80.5195 237.384 79.6952C236.685 78.871 235.704 78.376 234.655 78.3192C233.607 78.2623 232.578 78.6483 231.795 79.3921C231.011 80.1359 230.537 81.1767 230.477 82.2855C230.417 83.3943 230.776 84.4803 231.475 85.3045C232.174 86.1288 233.155 86.6238 234.203 86.6806ZM170.331 82.183C170.387 82.1829 170.442 82.1652 170.487 82.1325C170.533 82.0998 170.566 82.0538 170.583 82.0011C170.831 81.2578 171.213 80.5566 171.728 79.8974C171.737 79.8862 171.742 79.8729 171.744 79.8588C171.745 79.8447 171.743 79.8304 171.737 79.8176C171.731 79.8049 171.721 79.794 171.709 79.7863C171.698 79.7787 171.684 79.7745 171.67 79.7742C152.14 79.4201 132.376 79.1854 112.376 79.07C112.229 79.0681 112.178 79.1365 112.223 79.2754C112.475 80.0647 112.631 81.0153 113.006 81.7664C113.26 82.2828 113.753 82.1537 114.239 82.1537C132.475 82.2143 151.173 82.2241 170.331 82.183ZM175.596 86.3276C176.497 86.1816 177.301 85.6766 177.833 84.9237C178.364 84.1708 178.58 83.2317 178.431 82.313C178.357 81.8581 178.197 81.4219 177.958 81.0293C177.72 80.6367 177.408 80.2954 177.04 80.0249C176.673 79.7544 176.258 79.5599 175.818 79.4527C175.377 79.3454 174.921 79.3274 174.476 79.3998C173.575 79.5458 172.771 80.0508 172.239 80.8037C171.707 81.5566 171.492 82.4957 171.641 83.4144C171.714 83.8693 171.875 84.3055 172.113 84.6981C172.352 85.0907 172.664 85.432 173.031 85.7025C173.398 85.973 173.814 86.1675 174.254 86.2747C174.694 86.382 175.15 86.4 175.596 86.3276ZM161.366 89.4829C161.374 89.788 161.224 89.9386 160.918 89.9347C156.318 89.8819 151.657 89.7675 147.11 89.7616C135.044 89.744 122.508 89.7147 109.505 89.6736C109.499 89.6738 109.494 89.6754 109.49 89.6783C109.485 89.6812 109.481 89.6853 109.479 89.6902C109.476 89.6952 109.475 89.7008 109.475 89.7066C109.474 89.7124 109.476 89.7182 109.478 89.7235C109.82 90.3592 110.17 90.987 110.527 91.6071C110.55 91.6443 110.584 91.6628 110.627 91.6628C120.695 91.6687 130.694 91.7127 140.624 91.7949C142.686 91.8105 144.644 91.8056 146.498 91.7802C157.939 91.6179 169.034 91.4477 179.782 91.2697C179.942 91.2677 180.033 91.1875 180.054 91.0291L180.242 89.6472C180.249 89.5948 180.238 89.5418 180.212 89.4962C180.186 89.4506 180.146 89.415 180.098 89.3949C178.696 88.7904 177.285 88.142 175.865 87.4496C175.56 87.3009 175.237 87.2501 174.895 87.297C174.107 87.4027 173.342 87.0388 172.633 86.7102C171.452 86.1625 170.753 85.2403 170.536 83.9434C170.529 83.896 170.505 83.8525 170.47 83.8205C170.435 83.7884 170.39 83.7696 170.342 83.7674C168.778 83.6852 167.175 83.6393 165.532 83.6295C146.618 83.5082 128.381 83.4045 110.82 83.3185C110.61 83.3176 110.405 83.3779 110.229 83.4921C110.053 83.6062 109.914 83.7692 109.83 83.961L109.425 84.8794C109.289 85.1923 109.39 85.3518 109.73 85.3576C116.359 85.5043 122.529 85.6637 128.24 85.8359C128.777 85.8515 129.321 85.9347 129.872 86.0853C129.944 86.1044 130.011 86.1399 130.067 86.1891C130.123 86.2384 130.167 86.2999 130.195 86.3691C130.224 86.4383 130.236 86.5133 130.232 86.5882C130.227 86.6631 130.205 86.736 130.168 86.8012C130.033 87.0359 129.836 87.1493 129.576 87.1415C122.576 86.9479 115.828 86.7484 109.332 86.543C109.16 86.5391 109.079 86.6222 109.089 86.7924L109.165 88.2095C109.173 88.3738 109.259 88.4569 109.425 88.4589C123.328 88.5058 137.163 88.544 150.93 88.5733C151.572 88.5763 152.14 88.8286 152.788 88.8433C155.247 88.8922 157.978 88.9528 160.982 89.0252C161.215 89.031 161.341 89.1494 161.36 89.3802C161.364 89.4134 161.366 89.4477 161.366 89.4829ZM55.0622 92.0384L55.5808 92.0296C55.9304 92.0257 55.9538 91.9367 55.6511 91.7626C54.0241 90.8198 52.3015 89.8711 50.4831 88.9166C49.3757 88.3357 48.3122 87.608 47.2868 86.9156C47.1618 86.8315 47.0593 86.852 46.9792 86.9772C45.6374 89.078 44.3835 91.3841 43.9411 93.8106C43.3259 97.1818 46.0534 98.3319 48.6462 99.2444C50.3239 99.8351 52.0749 100.318 53.8991 100.694C60.7175 102.098 67.6462 102.637 74.6853 102.31C74.8435 102.305 74.9772 102.358 75.0866 102.472C76.6657 104.094 78.5817 104.901 80.7702 103.945C82.278 103.286 83.0876 102.052 83.1989 100.245C83.3718 97.4693 80.8405 95.6796 78.2858 96.0991C77.5856 96.2135 76.9939 96.592 76.3933 96.9529C76.2409 97.0429 76.0778 97.081 75.904 97.0673C72.778 96.8003 69.6843 96.3573 66.4968 95.6033C63.7722 94.9597 61.0222 94.3123 58.2468 93.6609C57.1247 93.3969 55.1999 93.8839 54.8366 92.3259C54.8287 92.2918 54.8286 92.2563 54.8362 92.222C54.8439 92.1878 54.8591 92.1557 54.8807 92.1281C54.9023 92.1005 54.9299 92.0781 54.9613 92.0626C54.9927 92.0471 55.0272 92.0388 55.0622 92.0384ZM95.2868 87.2325C95.1442 86.9332 95.0896 86.9488 95.1228 87.2794C95.281 88.7875 95.6618 90.3132 95.8815 91.7567C95.9304 92.0775 96.0661 92.1206 96.2888 91.8858L96.5759 91.5836C96.8044 91.3431 96.862 91.0663 96.7487 90.7533C96.2819 89.4663 95.7946 88.2926 95.2868 87.2325ZM211.461 92.2731C211.349 93.0448 211.261 93.5847 210.667 94.1715C208.751 96.061 205.824 96.6624 203.146 96.4864C200.633 96.3221 197.436 95.081 197.052 92.2467C197.039 92.1486 196.991 92.0583 196.917 91.9922C196.843 91.9261 196.748 91.8884 196.648 91.8858C194.828 91.8389 193.019 91.7685 191.222 91.6746C187.722 91.4927 184.403 90.8726 181.264 89.8144C181.25 89.8095 181.234 89.8079 181.219 89.8097C181.204 89.8115 181.189 89.8166 181.176 89.8248C181.163 89.8329 181.151 89.8438 181.143 89.8567C181.134 89.8696 181.129 89.8842 181.127 89.8995C180.942 91.2022 180.637 92.5225 180.851 93.837C181.619 98.5461 185.896 100.084 190.077 100.547C197.732 101.392 205.821 99.5994 212.826 96.3397C213.916 95.8321 214.798 95.0487 215.937 94.7583C218.354 94.1421 223.358 93.0066 224.668 90.6565C224.678 90.6381 224.683 90.6174 224.683 90.5964C224.683 90.5754 224.677 90.5548 224.666 90.5367C224.656 90.5186 224.64 90.5036 224.622 90.4932C224.604 90.4828 224.583 90.4774 224.562 90.4775C222.889 90.498 221.383 90.4452 219.593 90.7915C217.047 91.2824 214.426 91.6873 211.733 92.0061C211.575 92.0238 211.484 92.1127 211.461 92.2731ZM269.281 102.038C271.636 98.4669 271.803 94.057 269.993 90.0844C269.942 89.9737 269.858 89.8813 269.753 89.8199C269.648 89.7585 269.526 89.7309 269.404 89.7411C268.127 89.8438 266.782 90.0844 265.554 90.4716C260.384 92.099 255.611 94.5852 251.234 97.9299C249.927 98.9275 248.776 100.119 247.379 100.993C247.31 101.036 247.261 101.104 247.242 101.183C247.223 101.261 247.235 101.344 247.276 101.413C252.046 109.569 264.066 109.948 269.281 102.038ZM92.3483 105.2C92.3522 105.281 92.3933 105.313 92.4714 105.297C97.4362 104.206 102.156 103.037 106.631 101.791C106.949 101.701 107.258 101.576 107.559 101.416C107.601 101.393 107.637 101.36 107.663 101.32C107.688 101.28 107.703 101.234 107.706 101.187C107.758 100.174 108.01 99.4175 108.763 98.7075C110.474 97.0937 111.657 95.1426 112.311 92.8541C112.346 92.7269 112.299 92.6653 112.168 92.6692C109.351 92.7651 107.161 93.6668 105.596 95.3744C104.928 96.102 104.217 96.4776 103.282 96.771C100.569 97.6219 97.9704 97.9945 95.2429 98.3877C95.1131 98.4066 94.9966 98.4738 94.9177 98.5754C94.2829 99.3911 93.445 100.019 92.404 100.459C92.3451 100.484 92.2952 100.527 92.2607 100.581C92.2262 100.636 92.2088 100.7 92.2106 100.764L92.3483 105.2ZM111.573 96.9558C111.567 96.9653 111.564 96.9762 111.563 96.9874C111.563 96.9986 111.565 97.0096 111.57 97.0192C111.575 97.0289 111.583 97.0368 111.592 97.0422C111.602 97.0476 111.612 97.0502 111.623 97.0497C115.297 97.0654 119.13 97.0634 123.122 97.0439C142.184 96.948 161.409 96.8473 180.796 96.7417C180.805 96.7417 180.815 96.7391 180.823 96.7342C180.831 96.7293 180.838 96.7222 180.842 96.7138C180.847 96.7054 180.849 96.6958 180.848 96.6863C180.848 96.6767 180.845 96.6675 180.84 96.6595C180.185 95.6365 179.87 94.4385 179.893 93.0653C179.895 92.8873 179.807 92.7974 179.63 92.7954C169.206 92.7152 158.565 92.7553 147.708 92.9157C146.533 92.9333 145.355 93.0859 144.192 93.1005C133.889 93.2101 123.793 93.2326 113.902 93.168C113.685 93.1661 113.475 93.2062 113.272 93.2883C113.18 93.3274 113.122 93.3949 113.096 93.4908C112.778 94.7133 112.27 95.8683 111.573 96.9558ZM48.0075 100.019C46.5134 99.5055 44.6472 98.6224 43.736 97.3871C43.7263 97.3749 43.7136 97.3654 43.6992 97.3595C43.6847 97.3536 43.6691 97.3516 43.6538 97.3537C43.6386 97.3558 43.6244 97.3619 43.6125 97.3714C43.6007 97.3809 43.5918 97.3934 43.5866 97.4077L37.6188 112.937C37.5231 113.19 37.6032 113.36 37.8591 113.448L63.655 122.262C63.7585 122.299 63.8386 122.27 63.8952 122.174C67.528 115.885 71.0251 109.646 74.3864 103.455C74.3957 103.436 74.4001 103.416 74.3993 103.396C74.3985 103.375 74.3924 103.355 74.3818 103.338C74.3711 103.321 74.3562 103.307 74.3385 103.297C74.3208 103.288 74.301 103.284 74.281 103.285C70.4704 103.437 66.611 103.329 62.7028 102.959C57.6931 102.486 52.8034 101.671 48.0075 100.019ZM167.325 102.956L109.206 102.478C109.184 102.478 109.162 102.482 109.142 102.492C109.122 102.501 109.105 102.515 109.091 102.533C109.077 102.55 109.067 102.57 109.062 102.591C109.057 102.613 109.057 102.635 109.062 102.657C109.664 105.158 111.283 106.409 113.92 106.409C137.217 106.403 160.258 106.341 183.046 106.222C183.206 106.22 183.297 106.139 183.318 105.981L184.118 99.9104C184.133 99.8028 184.093 99.7236 183.998 99.6728C183.367 99.3324 182.769 98.9529 182.205 98.5344C181.9 98.3055 181.563 98.329 181.203 98.326C162.74 98.1363 139.399 98.0718 111.18 98.1324C110.743 98.1344 110.347 98.3495 109.994 98.7779C109.365 99.5388 109.014 100.407 108.942 101.383C108.94 101.414 108.944 101.445 108.954 101.474C108.964 101.503 108.98 101.53 109.001 101.552C109.022 101.575 109.047 101.593 109.075 101.605C109.104 101.618 109.134 101.624 109.165 101.624L167.167 101.941C167.495 101.943 167.663 102.108 167.671 102.437L167.676 102.598C167.682 102.839 167.565 102.958 167.325 102.956ZM115.071 125.868L115.308 125.692C115.343 125.666 115.372 125.633 115.393 125.596C115.413 125.558 115.426 125.517 115.428 125.475C115.645 122.725 116.208 120.138 115.376 117.453C115.351 117.374 115.31 117.301 115.256 117.239C115.202 117.176 115.136 117.125 115.062 117.089C114.049 116.602 113.085 116.185 112.795 114.965C112.129 112.162 112.735 109.744 114.614 107.712C114.626 107.699 114.634 107.684 114.637 107.667C114.64 107.65 114.638 107.632 114.632 107.616C114.625 107.6 114.614 107.586 114.6 107.576C114.586 107.566 114.57 107.56 114.552 107.559C111.195 107.404 108.38 106.339 107.729 102.604C107.725 102.581 107.716 102.559 107.703 102.539C107.69 102.52 107.674 102.504 107.654 102.491C107.635 102.479 107.613 102.47 107.591 102.467C107.569 102.464 107.546 102.465 107.524 102.472C102.493 103.882 97.4782 105.127 92.4802 106.207C92.4283 106.218 92.3818 106.247 92.3487 106.289C92.3156 106.331 92.2978 106.384 92.2985 106.439C92.3122 107.401 92.3347 108.377 92.3659 109.367C92.8054 124.174 93.2741 138.998 93.7722 153.838C93.7745 153.894 93.759 153.95 93.728 153.996C93.697 154.043 93.6519 154.079 93.5993 154.099C91.904 154.719 90.0437 155.153 88.0183 155.402C87.8991 155.417 87.8396 155.485 87.8396 155.604C87.8024 158.937 88.069 161.78 88.6394 164.133C89.4772 167.598 92.2956 169.646 95.7673 170.356C96.3591 170.478 96.9167 170.593 97.4401 170.703C100.513 171.357 102.098 174.526 101.055 177.392C101.018 177.492 101.053 177.542 101.161 177.542H112.883C112.905 177.542 112.928 177.536 112.947 177.523C112.966 177.511 112.982 177.493 112.991 177.472C113 177.452 113.003 177.428 113 177.406C112.996 177.383 112.986 177.362 112.97 177.345C111.441 175.699 111.242 173.789 111.444 171.562C111.585 170.015 112.038 168.666 112.803 167.516C113.454 166.542 113.712 165.618 113.884 164.447C114.252 161.971 114.106 159.674 113.448 157.555C113.432 157.501 113.402 157.452 113.362 157.412C113.321 157.372 113.271 157.343 113.217 157.326C111.681 156.888 110.771 155.998 110.486 154.656C110.055 152.641 110.354 150.343 111.579 148.645C111.87 148.244 112.146 147.834 112.408 147.415C112.42 147.395 112.427 147.372 112.428 147.349C112.429 147.325 112.423 147.302 112.412 147.281C112.401 147.26 112.384 147.243 112.364 147.231C112.343 147.219 112.32 147.213 112.297 147.213C109.629 147.25 107.006 147.245 104.427 147.198C103.704 147.186 102.986 147.034 102.421 146.561C99.1013 143.777 99.3884 139.059 101.299 135.459C101.972 134.194 102.966 133.489 104.278 133.347C104.703 133.3 105.154 133.159 105.579 133.162C108.673 133.181 111.907 133.203 115.282 133.226C115.328 133.226 115.372 133.208 115.404 133.176C115.437 133.143 115.455 133.099 115.455 133.053L115.464 126.76C115.464 126.631 115.403 126.544 115.282 126.499C115.124 126.438 115.02 126.331 114.971 126.179C114.953 126.123 114.953 126.064 114.971 126.008C114.989 125.952 115.024 125.903 115.071 125.868ZM116.038 107.645C115.844 108.22 115.396 108.824 115.036 109.352C114.102 110.727 113.706 112.167 113.846 113.671C113.975 115.066 114.723 115.766 116.091 115.772C137.354 115.86 159.936 116.115 181.894 116.118C181.966 116.118 182.035 116.091 182.089 116.043C182.142 115.995 182.176 115.928 182.184 115.857L183.104 107.958C183.107 107.935 183.104 107.911 183.097 107.889C183.09 107.866 183.078 107.845 183.063 107.828C183.048 107.81 183.029 107.796 183.007 107.786C182.986 107.776 182.963 107.771 182.94 107.771C160.702 107.595 138.464 107.508 116.225 107.51C116.132 107.51 116.069 107.555 116.038 107.645ZM201.97 112.278C201.968 112.225 201.946 112.175 201.907 112.138C201.869 112.102 201.818 112.082 201.765 112.084L201.718 112.085C201.692 112.086 201.666 112.092 201.642 112.103C201.619 112.113 201.597 112.129 201.579 112.148C201.561 112.167 201.547 112.189 201.538 112.213C201.528 112.238 201.524 112.264 201.525 112.29L202.471 146.224C202.473 146.277 202.495 146.327 202.533 146.363C202.572 146.399 202.623 146.419 202.676 146.418L202.723 146.416C202.749 146.415 202.775 146.41 202.798 146.399C202.822 146.388 202.844 146.373 202.862 146.354C202.88 146.335 202.894 146.312 202.903 146.288C202.913 146.263 202.917 146.237 202.916 146.211L201.97 112.278ZM131.322 120.334C130.777 120.457 130.241 120.514 129.714 120.504C125.755 120.446 121.897 120.417 118.141 120.419C117.907 120.419 117.675 120.418 117.447 120.416C117.304 120.414 117.231 120.485 117.227 120.628L117.204 122.056C117.202 122.197 117.27 122.266 117.409 122.262L128.536 122.068C128.909 122.062 129.281 122.076 129.652 122.109C131.412 122.268 131.917 122.613 131.167 123.145C130.909 123.327 130.623 123.42 130.308 123.424L117.421 123.553C117.13 123.557 116.964 123.703 116.923 123.993L116.75 125.278C116.709 125.579 116.84 125.728 117.142 125.724C141.913 125.48 159.605 125.61 180.845 125.874C180.953 125.876 181.013 125.823 181.027 125.715L182.011 117.597C182.013 117.583 182.012 117.569 182.008 117.555C182.004 117.542 181.998 117.529 181.989 117.518C181.98 117.508 181.97 117.498 181.957 117.492C181.945 117.485 181.932 117.481 181.918 117.479C181.633 117.454 181.345 117.44 181.056 117.438C159.715 117.315 138.398 117.208 117.107 117.118C116.994 117.118 116.948 117.175 116.969 117.289L117.262 118.838C117.29 118.979 117.375 119.049 117.517 119.049C120.98 119.069 124.41 119.096 127.806 119.131C128.859 119.143 129.905 119.197 130.944 119.293C131.31 119.328 131.6 119.507 131.635 119.909C131.645 120.005 131.618 120.101 131.56 120.18C131.502 120.258 131.418 120.313 131.322 120.334ZM79.1441 121.881C79.1505 121.82 79.1324 121.759 79.0938 121.711C79.0551 121.663 78.9992 121.633 78.9381 121.627L78.9265 121.625C78.8962 121.622 78.8657 121.625 78.8365 121.634C78.8074 121.642 78.7802 121.657 78.7566 121.676C78.733 121.695 78.7133 121.718 78.6988 121.745C78.6843 121.772 78.6752 121.801 78.6721 121.832L75.2245 154.682C75.2181 154.743 75.2362 154.804 75.2748 154.852C75.3134 154.9 75.3694 154.93 75.4305 154.937L75.4421 154.938C75.4723 154.941 75.5029 154.938 75.532 154.93C75.5612 154.921 75.5883 154.907 75.612 154.888C75.6356 154.868 75.6552 154.845 75.6697 154.818C75.6842 154.791 75.6933 154.762 75.6965 154.732L79.1441 121.881ZM165.494 129.215C165.494 128.985 165.61 128.869 165.842 128.869L180.4 128.919C180.578 128.919 180.674 128.831 180.687 128.655L180.813 127.188C180.823 127.08 180.774 127.024 180.667 127.018C179.772 126.969 178.69 126.933 177.421 126.909C156.489 126.52 136.246 126.429 116.691 126.636C116.56 126.638 116.495 126.705 116.495 126.836L116.436 133.138C116.436 133.151 116.438 133.164 116.443 133.176C116.447 133.188 116.454 133.199 116.463 133.209C116.473 133.218 116.483 133.225 116.495 133.23C116.507 133.235 116.52 133.238 116.533 133.238L179.697 133.194C179.959 133.194 180.105 133.064 180.136 132.804L180.447 130.266C180.45 130.24 180.447 130.214 180.44 130.189C180.432 130.165 180.419 130.142 180.403 130.123C180.386 130.103 180.365 130.088 180.342 130.077C180.319 130.066 180.294 130.061 180.268 130.06L165.81 129.852C165.601 129.848 165.497 129.742 165.497 129.532L165.494 129.215ZM105.482 145.945C104.102 142.565 104.46 138.114 106.13 134.855C106.401 134.325 106.246 134.122 105.664 134.247C104.943 134.402 104.366 134.525 103.932 134.617C103.666 134.674 103.417 134.794 103.206 134.965C102.994 135.137 102.825 135.357 102.714 135.606C101.501 138.314 101.612 141.142 102.342 143.971C102.813 145.807 103.631 146.045 105.38 146.092C105.398 146.092 105.415 146.088 105.431 146.08C105.447 146.072 105.461 146.06 105.471 146.045C105.481 146.031 105.488 146.014 105.49 145.997C105.491 145.979 105.489 145.961 105.482 145.945ZM108.128 134.306C108.086 134.306 108.045 134.32 108.012 134.345C107.978 134.369 107.953 134.404 107.94 134.444L107.243 136.577C107.233 136.607 107.231 136.639 107.236 136.67C107.241 136.701 107.253 136.731 107.271 136.756C107.29 136.782 107.314 136.802 107.343 136.817C107.371 136.831 107.402 136.838 107.433 136.838L179.498 136.639C179.547 136.639 179.594 136.621 179.631 136.589C179.668 136.556 179.691 136.511 179.697 136.463L179.908 134.535C179.911 134.507 179.908 134.479 179.899 134.452C179.89 134.426 179.876 134.401 179.857 134.38C179.839 134.36 179.816 134.343 179.79 134.332C179.764 134.32 179.737 134.315 179.709 134.315L108.128 134.306ZM175.853 142.248C175.338 142.262 174.774 142.264 174.163 142.254C151.909 141.955 129.247 141.749 106.176 141.635C106.149 141.635 106.122 141.641 106.097 141.652C106.072 141.662 106.049 141.678 106.03 141.698C106.011 141.718 105.997 141.742 105.987 141.768C105.977 141.794 105.973 141.822 105.974 141.849C106.045 143.185 106.3 144.517 106.742 145.846C106.758 145.895 106.786 145.94 106.822 145.978C106.858 146.015 106.901 146.044 106.95 146.063C107.161 146.143 107.378 146.183 107.6 146.183C131.719 146.109 155.819 146.049 179.899 146.004C179.912 146.004 179.926 146.001 179.937 145.993C179.948 145.986 179.957 145.976 179.962 145.963C179.968 145.951 179.969 145.938 179.967 145.924C179.964 145.911 179.958 145.899 179.949 145.89C179.196 145.05 179.061 143.601 178.976 142.533C178.968 142.433 178.932 142.345 178.868 142.269C178.385 141.715 178.383 141.118 178.859 140.476C179.369 139.793 179.392 138.945 179.524 138.144C179.529 138.115 179.527 138.086 179.52 138.058C179.512 138.03 179.498 138.004 179.479 137.982C179.461 137.96 179.438 137.943 179.411 137.93C179.385 137.918 179.357 137.912 179.328 137.912C161.742 137.765 143.641 137.689 125.026 137.683C119.067 137.683 113.092 137.711 107.102 137.768C107.037 137.769 106.973 137.791 106.921 137.831C106.869 137.87 106.831 137.925 106.812 137.988L106.074 140.506C106.066 140.534 106.064 140.563 106.069 140.592C106.074 140.62 106.086 140.647 106.103 140.671C106.121 140.694 106.143 140.713 106.169 140.726C106.195 140.739 106.224 140.746 106.253 140.746C128.319 140.905 150.501 141.045 172.798 141.166C173.741 141.17 174.712 141.204 175.71 141.268C175.82 141.275 175.925 141.32 176.006 141.397C176.086 141.474 176.137 141.577 176.149 141.688L176.17 141.885C176.197 142.121 176.092 142.243 175.853 142.248ZM113.729 147.462C113.164 148.398 112.657 149.314 112.22 150.167C111.344 151.898 110.89 155.446 113.486 155.977C113.908 156.063 114.334 156.107 114.763 156.109C139.75 156.252 164.557 156.367 189.186 156.455C189.277 156.455 189.366 156.426 189.439 156.372C189.511 156.318 189.563 156.242 189.588 156.156C189.927 154.984 190.147 153.731 190.247 152.397C190.352 150.983 189.813 149.701 188.805 148.788C188.637 148.635 188.421 148.544 188.193 148.53C186.608 148.442 183.898 148.498 182.694 147.888C182.167 147.622 181.684 147.488 181.247 147.486C158.966 147.439 136.86 147.375 114.93 147.295C114.612 147.293 114.287 147.303 113.955 147.324C113.857 147.332 113.782 147.378 113.729 147.462ZM228.936 160.067C228.98 160.042 229.015 160.004 229.036 159.958C229.058 159.912 229.065 159.861 229.056 159.812L226.868 147.377C226.864 147.357 226.856 147.337 226.844 147.32C226.832 147.303 226.816 147.289 226.797 147.28C226.779 147.27 226.759 147.265 226.738 147.264C226.717 147.264 226.696 147.268 226.677 147.277C224.761 148.166 222.476 148.43 220.373 148.539C220.349 148.541 220.326 148.547 220.305 148.558C220.285 148.57 220.267 148.585 220.252 148.604C220.238 148.622 220.228 148.644 220.223 148.667C220.218 148.689 220.218 148.713 220.223 148.736C221.005 152.335 221.712 155.858 222.344 159.307C222.517 160.255 223.546 160.569 224.395 160.648C225.904 160.789 227.638 160.821 228.936 160.067ZM191.92 166.322C191.545 167.402 190.499 167.414 189.555 167.443C189.401 167.449 189.318 167.528 189.306 167.681L189.221 168.834C189.21 168.988 189.272 169.03 189.409 168.96C190.141 168.578 190.904 168.167 191.697 167.725C193.291 166.833 195.435 164.937 195.177 162.966C194.975 161.416 195.092 159.999 195.008 158.497C194.836 155.383 194.661 152.213 194.483 148.988C194.481 148.957 194.468 148.929 194.446 148.907C194.424 148.886 194.396 148.874 194.366 148.873L190.619 148.738C190.472 148.735 190.435 148.796 190.508 148.923C191.861 151.335 191.442 154.551 190.335 156.924C190.284 157.034 190.309 157.122 190.411 157.189C193.672 159.339 193.018 163.159 191.92 166.322ZM203.448 177.172L202.973 177.424C202.815 177.509 202.826 177.551 203.006 177.551L212.72 177.495C212.871 177.493 212.944 177.417 212.94 177.266C212.895 175.361 212.944 173.764 213.087 172.475C213.33 170.283 215.17 170.095 217.05 170.318C217.17 170.332 217.282 170.31 217.387 170.254C218.643 169.571 219.782 168.705 220.803 167.654C221.972 166.451 222.336 164.92 222.049 163.282C221.196 158.415 220.335 153.609 219.254 148.783C219.246 148.747 219.227 148.715 219.198 148.693C219.17 148.67 219.134 148.658 219.098 148.659C213.917 148.773 208.709 148.814 203.474 148.783C203.458 148.783 203.442 148.786 203.428 148.792C203.413 148.798 203.4 148.807 203.388 148.819C203.377 148.83 203.368 148.844 203.362 148.859C203.357 148.874 203.354 148.89 203.354 148.906C203.483 154.189 203.642 159.482 203.832 164.785C203.982 169.045 203.912 173.086 203.621 176.908C203.611 177.027 203.553 177.115 203.448 177.172ZM202.73 160.789L202.461 149.038C202.459 148.97 202.431 148.905 202.381 148.858C202.332 148.811 202.266 148.785 202.197 148.785L195.552 148.844C195.538 148.844 195.523 148.848 195.509 148.854C195.496 148.86 195.484 148.869 195.473 148.88C195.463 148.891 195.456 148.904 195.451 148.918C195.445 148.932 195.443 148.947 195.444 148.961C195.645 152.596 195.838 156.236 196.021 159.882C196.071 160.856 198.175 161.378 198.886 161.419C200.049 161.484 201.305 161.308 202.657 160.891C202.679 160.885 202.698 160.871 202.711 160.852C202.724 160.834 202.731 160.811 202.73 160.789ZM86.8405 155.733C86.8399 155.715 86.8354 155.696 86.8272 155.68C86.8191 155.663 86.8075 155.648 86.7932 155.636C86.7789 155.624 86.7622 155.615 86.7441 155.609C86.726 155.604 86.707 155.602 86.6882 155.604C84.6843 155.866 82.7331 156.026 80.8347 156.082C80.7987 156.084 80.7647 156.099 80.7401 156.125C80.7154 156.151 80.7021 156.185 80.7028 156.22C80.7224 157.161 80.7253 158.103 80.7116 159.046C80.7058 159.63 81.1394 160.046 81.6638 160.211C83.3396 160.743 85.0602 160.635 86.8259 159.888C86.8768 159.866 86.9199 159.83 86.9497 159.784C86.9795 159.738 86.9945 159.684 86.9929 159.63L86.8405 155.733ZM71.779 156.722C71.6306 156.732 71.5456 156.811 71.5241 156.96C71.1882 159.42 71.1159 161.657 71.3073 163.67C71.6032 166.792 73.6774 168.262 75.9714 169.931C78.3601 171.672 79.1003 174.172 78.1921 177.43C78.1667 177.524 78.2019 177.57 78.2976 177.568L80.1022 177.518C80.1511 177.516 80.1755 177.49 80.1755 177.439L79.7272 156.402C79.7253 156.295 79.6696 156.244 79.5603 156.25L71.779 156.722ZM64.2702 159.225C65.029 159.565 65.4948 159.958 66.321 160.084C67.4812 160.264 68.6481 160.282 69.822 160.137C69.9405 160.122 70.0505 160.068 70.1345 159.983C70.2184 159.898 70.2714 159.787 70.2849 159.668L70.5749 156.957C70.5886 156.832 70.5329 156.774 70.4079 156.784C68.4685 156.913 66.4772 156.953 64.4343 156.904C64.2937 156.9 64.2194 156.969 64.2116 157.112L64.1032 158.949C64.0999 159.007 64.1141 159.064 64.1439 159.113C64.1738 159.163 64.2178 159.202 64.2702 159.225ZM129.954 164.069C129.616 164.141 129.218 164.17 128.761 164.154C124.558 164.005 120.168 163.845 115.59 163.673C115.563 163.671 115.536 163.68 115.515 163.697C115.494 163.715 115.481 163.74 115.478 163.767L115.253 165.785C115.249 165.83 115.269 165.853 115.314 165.853C139.347 165.951 163.288 166.065 187.135 166.196C188.37 166.202 189.57 166.168 190.736 166.093C190.838 166.087 190.904 166.037 190.935 165.941C191.381 164.599 191.627 163.118 191.674 161.499C191.717 159.929 190.88 158.829 189.547 158.066C189.177 157.855 188.717 157.749 188.164 157.749C163.705 157.743 139.347 157.639 115.092 157.438C115.052 157.438 115.037 157.457 115.045 157.497L115.469 159.768C115.479 159.813 115.507 159.836 115.551 159.838C119.87 159.977 124.182 160.098 128.489 160.202C128.891 160.212 129.328 160.279 129.799 160.404C129.87 160.423 129.936 160.46 129.989 160.512C130.042 160.564 130.08 160.629 130.101 160.7C130.121 160.772 130.122 160.848 130.105 160.92C130.087 160.993 130.052 161.06 130.001 161.114C129.844 161.281 129.653 161.361 129.426 161.355C125.102 161.251 120.533 161.12 115.718 160.962C115.595 160.958 115.534 161.017 115.534 161.141L115.519 162.329C115.519 162.44 115.575 162.497 115.686 162.499C119.93 162.56 124.137 162.68 128.307 162.86C128.856 162.883 129.385 162.989 129.895 163.177C129.944 163.195 129.989 163.224 130.028 163.26C130.066 163.296 130.096 163.34 130.118 163.388C130.19 163.554 130.2 163.724 130.147 163.896C130.118 163.992 130.053 164.049 129.954 164.069ZM64.3259 160.794C64.3352 160.781 64.3403 160.766 64.3406 160.75C64.3408 160.734 64.3362 160.718 64.3273 160.704C64.3184 160.691 64.3057 160.681 64.2908 160.675C64.2758 160.669 64.2595 160.668 64.2439 160.671C64.1403 160.695 64.0554 160.747 63.989 160.827C63.9343 160.895 63.9187 160.972 63.9421 161.058C63.9753 161.184 64.031 161.193 64.1091 161.088L64.3259 160.794ZM65.5065 161.525C65.6315 161.367 65.7849 161.327 65.9665 161.408C66.4587 161.631 66.8425 162.49 66.2888 162.842C65.5524 163.31 64.7067 163.142 63.7517 162.338C63.6853 162.283 63.6374 162.295 63.6081 162.373L62.8522 164.386C62.8427 164.411 62.8435 164.439 62.8544 164.464C62.8654 164.488 62.8857 164.508 62.9108 164.518C65.3132 165.442 67.78 166.158 70.2673 165.222C70.3446 165.193 70.409 165.138 70.4488 165.066C70.4886 164.994 70.5011 164.909 70.4841 164.829C70.2185 163.593 70.1169 162.387 70.1794 161.211C70.1803 161.189 70.1765 161.167 70.1682 161.146C70.1599 161.126 70.1472 161.107 70.1311 161.092C70.115 161.076 70.0958 161.065 70.0748 161.057C70.0538 161.05 70.0316 161.048 70.0095 161.05C68.4177 161.202 66.8308 161.196 65.2487 161.032C65.2202 161.029 65.1914 161.031 65.1638 161.039C65.1363 161.047 65.1106 161.061 65.0882 161.079C65.0659 161.097 65.0473 161.119 65.0337 161.144C65.02 161.169 65.0114 161.197 65.0085 161.226C64.9597 161.681 65.0866 162.049 65.3894 162.329C65.4058 162.344 65.4256 162.354 65.4471 162.359C65.4686 162.364 65.491 162.364 65.5123 162.358C65.5336 162.352 65.553 162.341 65.5689 162.326C65.5848 162.31 65.5966 162.291 65.6032 162.27C65.654 162.102 65.6218 161.947 65.5065 161.804C65.4323 161.712 65.4323 161.619 65.5065 161.525ZM84.3855 163.558L86.9577 163.388C87.2116 163.372 87.2937 163.245 87.2038 163.007C86.9987 162.465 86.8562 161.882 86.7761 161.258C86.7487 161.057 86.6394 160.987 86.448 161.05C84.7487 161.61 82.7595 161.678 81.2653 161.158C81.1364 161.113 81.0749 161.158 81.0808 161.293C81.1335 162.631 81.1511 164.059 81.1335 165.577C81.1101 167.686 83.445 168.954 85.2907 168.531C86.2263 168.318 87.239 167.83 88.3288 167.067C88.4343 166.995 88.4763 166.895 88.4548 166.768C88.3874 166.351 88.0358 166.029 87.5876 166.099C86.4646 166.279 85.3923 166.359 84.3708 166.34C84.3202 166.34 84.2711 166.335 84.2243 166.325C83.6169 166.212 83.2849 165.98 83.2282 165.63C83.1813 165.344 83.3015 165.215 83.5886 165.242C84.8737 165.358 86.1325 165.325 87.3649 165.143C87.5153 165.119 87.5827 165.032 87.5671 164.882C87.5651 164.854 87.5593 164.828 87.5495 164.802C87.4675 164.603 87.3181 164.503 87.1013 164.503L84.3796 164.509C84.1862 164.511 84.0847 164.415 84.0749 164.221L84.0573 163.931C84.0437 163.696 84.153 163.572 84.3855 163.558ZM229.053 161.017C227.565 161.83 225.207 161.818 223.733 161.531C223.098 161.406 222.921 161.636 223.2 162.22C223.282 162.394 223.35 162.537 223.405 162.649C223.686 163.237 224.15 163.58 224.797 163.676C226.492 163.926 228.039 163.683 229.437 162.948C229.515 162.907 229.546 162.843 229.528 162.757L229.182 161.076C229.167 160.998 229.124 160.978 229.053 161.017ZM202.525 161.959C200.545 162.534 198.511 162.693 196.704 161.898C196.688 161.891 196.672 161.888 196.655 161.888C196.638 161.889 196.621 161.894 196.607 161.903C196.592 161.911 196.579 161.923 196.57 161.938C196.56 161.952 196.554 161.968 196.551 161.986C196.156 164.972 200.914 164.45 202.51 163.89C202.581 163.865 202.641 163.819 202.684 163.759C202.727 163.698 202.751 163.626 202.751 163.552L202.748 162.126C202.748 162.099 202.742 162.073 202.73 162.048C202.718 162.024 202.7 162.003 202.679 161.987C202.657 161.97 202.632 161.959 202.605 161.955C202.578 161.95 202.551 161.951 202.525 161.959ZM229.71 163.949C227.756 164.773 225.424 165.146 223.481 164.107C223.352 164.038 223.306 164.076 223.343 164.218L223.73 165.683C223.755 165.775 223.808 165.858 223.882 165.92C223.956 165.981 224.047 166.018 224.143 166.026C225.362 166.122 226.405 166.559 227.272 167.337C227.36 167.416 227.462 167.461 227.577 167.472C228.372 167.556 229.167 167.387 229.962 166.965C229.98 166.955 229.995 166.94 230.005 166.921C230.015 166.902 230.019 166.881 230.017 166.859L229.798 164.004C229.797 163.994 229.794 163.984 229.789 163.976C229.783 163.967 229.776 163.959 229.768 163.954C229.759 163.949 229.749 163.945 229.739 163.944C229.729 163.943 229.719 163.945 229.71 163.949ZM196.645 164.603C196.518 164.542 196.431 164.578 196.384 164.711C196.125 165.435 195.74 166.112 195.23 166.742C195.177 166.808 195.189 166.858 195.265 166.891C196.883 167.615 198.125 167.978 198.992 167.98C200.545 167.982 201.777 167.315 202.689 165.979C202.881 165.699 202.964 165.399 202.938 165.078C202.936 165.052 202.928 165.027 202.915 165.004C202.902 164.981 202.885 164.962 202.864 164.946C202.843 164.931 202.818 164.921 202.793 164.915C202.767 164.91 202.741 164.911 202.716 164.917C200.36 165.504 198.337 165.399 196.645 164.603ZM119.222 174.719C118.998 174.721 118.875 174.61 118.853 174.385C118.843 174.267 118.851 174.153 118.877 174.042C118.896 173.961 118.941 173.89 119.006 173.839C119.07 173.788 119.149 173.76 119.231 173.76C138.716 173.766 159.385 173.673 181.241 173.481C181.483 173.479 181.713 173.424 181.929 173.317C182.017 173.274 182.082 173.207 182.123 173.117C182.359 172.579 182.742 172.179 183.271 171.917C184.886 171.123 186.453 170.373 187.97 169.667C188.072 169.618 188.127 169.538 188.134 169.426L188.231 167.672C188.232 167.648 188.229 167.624 188.22 167.602C188.212 167.579 188.199 167.559 188.183 167.542C188.166 167.524 188.147 167.511 188.125 167.501C188.103 167.492 188.079 167.487 188.055 167.487C163.276 167.481 139.137 167.358 115.639 167.117C115.35 167.113 115.071 167.164 114.801 167.27C114.708 167.305 114.635 167.366 114.585 167.452C113.848 168.649 113.286 169.891 112.897 171.178C112.223 173.4 112.662 175.297 114.213 176.87C114.55 177.213 114.86 177.554 115.39 177.554C137.396 177.573 159.548 177.564 181.844 177.527C181.901 177.527 181.934 177.5 181.944 177.445C182.163 176.264 182.328 175.374 182.439 174.775C182.441 174.765 182.44 174.755 182.438 174.746C182.435 174.736 182.431 174.727 182.424 174.72C182.418 174.712 182.41 174.706 182.401 174.702C182.392 174.698 182.382 174.696 182.372 174.696C161.245 174.608 140.195 174.616 119.222 174.719ZM224.814 177.466C224.782 177.025 224.826 176.629 224.747 176.183C224.741 176.148 224.717 176.134 224.676 176.139H224.674C224.636 176.145 224.62 176.167 224.624 176.204C224.662 176.673 224.738 177.087 224.808 177.466C224.814 177.491 224.816 177.491 224.814 177.466Z" fill="#0C446A"/>
</svg>
