<svg width="87" height="83" viewBox="0 0 87 83" fill="none" xmlns="http://www.w3.org/2000/svg">
<g id="Frame" clipPath="url(#clip0_2231_9561)">
<g id="Parent-Group">
<g id="Group-000000">
<path id="Vector" d="M13.244 57.7978C13.2828 57.832 13.299 57.8233 13.2927 57.7718C13.0064 55.5601 12.7057 53.2638 12.3905 50.883C12.3198 50.3481 12.4739 49.9828 12.8529 49.787C13.0267 49.6966 13.3138 49.652 13.7142 49.6531C22.8436 49.6746 29.7217 49.674 34.3485 49.6514C35.0055 49.6479 35.2028 50.1459 35.2828 50.7187C36.2209 57.4331 37.1196 63.881 37.9789 70.0623C37.9858 70.1127 38.0142 70.1431 38.064 70.1535C38.3109 70.2051 38.5632 70.261 38.821 70.3213C38.9937 70.3618 39.1725 70.365 39.3573 70.3308C39.8568 70.237 40.3713 70.1845 40.9009 70.1735C42.0282 70.1492 43.0442 69.8372 43.8786 69.0958C43.9516 69.0315 44.0005 68.955 44.0255 68.8663C44.9178 65.7027 46.1013 62.2261 47.5759 58.4367C47.861 57.7031 48.1895 57.0304 48.6441 56.4654C48.7753 56.302 48.9031 56.1439 48.983 55.9448C49.6859 54.1979 50.3905 52.4804 51.0968 50.7926C51.2347 50.4629 51.3964 50.152 51.5818 49.86C51.5968 49.8356 51.6009 49.8099 51.5939 49.7826C51.357 48.8677 51.1058 47.8691 50.8404 46.7867C50.7071 46.2449 50.6049 45.7602 50.5336 45.3326C50.3771 44.3896 51.3019 43.6795 51.9407 43.1085C51.9709 43.0813 51.9816 43.0479 51.9729 43.0085L51.0916 39.0965C51.0884 39.0837 51.0805 39.0725 51.0695 39.0654C51.0585 39.0583 51.0452 39.0557 51.0325 39.0583C50.4756 39.1753 49.9075 39.2759 49.3281 39.3599C48.2816 39.512 47.3143 39.6319 46.3035 39.5224C44.2167 39.2956 43.0729 37.7476 42.5844 35.7955C42.3063 34.6825 42.1652 33.5442 42.1612 32.3807C42.1612 32.3628 42.1558 32.3454 42.1457 32.3308C42.1356 32.3162 42.1213 32.3051 42.1047 32.299C41.4693 32.0608 40.9617 31.6567 40.8818 30.9657C40.8166 30.4069 41.1025 29.901 41.6049 29.6351C41.8726 29.4931 42.213 29.4103 42.6261 29.3865C42.6457 29.3854 42.664 29.3768 42.6774 29.3626C42.6909 29.3484 42.6983 29.3296 42.6983 29.31L42.7122 23.9422C42.7122 23.9063 42.696 23.8817 42.6635 23.8683C42.0424 23.6105 41.456 23.1495 40.9044 22.4855C39.6485 20.975 39.3634 18.8334 40.5454 17.1812C40.7164 16.9413 40.9571 16.7063 41.2677 16.4763C41.6107 16.2219 41.9363 15.9971 42.2446 15.8018C43.3837 15.0816 44.6145 14.6215 45.9367 14.4216C45.9692 14.4164 45.9978 14.4034 46.0228 14.3825C46.3044 14.1487 46.6007 13.9158 46.8415 13.6368C47.1497 13.2793 47.4328 12.9748 47.6906 12.7233C48.47 11.9649 49.3805 11.3356 50.4223 10.8356C50.551 10.7736 50.5437 10.7405 50.4006 10.7365C48.1765 10.6765 46.2435 12.075 45.3752 14.0696C45.3589 14.1074 45.3287 14.1374 45.2908 14.1534C45.2529 14.1694 45.2103 14.1702 45.1719 14.1557C45.1388 14.1435 45.1107 14.1218 45.0876 14.0905C45.076 14.0746 45.0685 14.0562 45.0656 14.0367C45.0627 14.0171 45.0646 13.9971 45.071 13.9784C45.1551 13.7321 45.2649 13.4948 45.4004 13.2665C46.6068 11.2362 48.678 10.2246 51.0203 10.4801C51.0904 10.4876 51.1579 10.4783 51.2228 10.4523C53.2751 9.62775 55.4156 9.30819 57.644 9.49361C60.7634 9.75261 63.675 11.2545 65.8287 13.4977C65.8681 13.5383 65.9107 13.5421 65.9565 13.509L66.2955 13.2613C66.3354 13.2318 66.3389 13.1982 66.3059 13.1605C65.6253 12.3826 65.6314 11.264 66.4206 10.5731C66.5301 10.4769 66.655 10.4114 66.7952 10.3767C66.8312 10.3677 66.8692 10.3699 66.9039 10.3831C66.9387 10.3963 66.9687 10.4198 66.9899 10.4505C67.1281 10.6496 66.8421 10.7791 66.7222 10.8877C66.0825 11.4613 66.1677 12.3114 66.7439 12.9015C66.7677 12.9258 66.7935 12.9285 66.8213 12.9093L67.1385 12.692C67.152 12.6831 67.1629 12.6707 67.1703 12.6563C67.1776 12.6418 67.181 12.6257 67.1802 12.6095C67.1397 11.833 67.1591 11.2191 67.2385 10.7678C67.3683 10.0249 67.4462 9.47188 67.4723 9.10858C67.4966 8.77019 67.6226 8.37589 67.8503 7.92568C68.5005 6.63848 69.699 5.85191 71.1313 5.74414C72.2647 5.65896 73.3059 6.00314 74.2794 6.63674C74.3605 6.68947 74.4492 6.72655 74.5453 6.74799C75.9852 7.06378 77.158 7.74374 78.0636 8.78787C78.6798 9.49882 79.263 10.4601 79.5403 11.371C80.0974 13.2005 79.6341 15.0031 78.2548 16.359C78.0332 16.5771 78.0132 16.8465 77.8846 17.1073C77.2153 18.4605 75.8734 19.2367 74.3906 19.3766C72.8916 19.5186 71.5401 19.188 70.3361 18.3849C70.3002 18.3612 70.2642 18.3615 70.2283 18.3858L69.8772 18.6309C69.861 18.6421 69.8499 18.6593 69.8463 18.6787C69.8428 18.698 69.847 18.718 69.8581 18.7343C70.051 19.0171 70.1921 19.3305 70.2813 19.6747C70.2937 19.7234 70.2878 19.775 70.2645 19.8196C70.2412 19.8642 70.2024 19.8986 70.1553 19.9163L70.1145 19.9311C70.0102 19.9694 69.9345 19.9381 69.8876 19.8373L69.4991 18.9968C69.4753 18.9452 69.44 18.9354 69.3931 18.9672L69.0836 19.1758C69.0414 19.2048 69.028 19.2433 69.0437 19.2914C70.4039 23.3851 69.7538 28.0828 67.0368 31.4968C65.6488 33.2411 63.6333 34.577 61.4526 34.9759C61.4459 34.9771 61.4395 34.9797 61.4338 34.9835C61.4282 34.9874 61.4235 34.9925 61.42 34.9983C61.4166 35.0042 61.4144 35.0108 61.4137 35.0176C61.413 35.0243 61.4139 35.0312 61.4161 35.0377C61.6377 35.6591 62.1262 36.2944 62.7754 36.5143C63.243 36.6734 63.668 36.6204 64.133 36.4969C64.2379 36.4691 64.3066 36.5071 64.339 36.6108L64.3564 36.6664C64.3894 36.7719 64.3529 36.8408 64.2469 36.8733C63.2109 37.1844 62.3472 36.9634 61.656 36.2101C61.609 36.1586 61.5934 36.167 61.609 36.2353L62.0454 38.1379C62.0489 38.1537 62.0583 38.1676 62.0717 38.1768C62.0851 38.186 62.1014 38.1898 62.1175 38.1874C62.5254 38.1301 62.942 38.0898 63.3673 38.0666C64.618 37.9988 65.1925 39.3521 65.535 40.375C65.7604 41.0483 65.944 41.75 66.086 42.4801C66.0938 42.5208 66.1107 42.5592 66.1354 42.5925C66.1601 42.6257 66.1919 42.653 66.2285 42.6722C67.0965 43.1328 67.8735 43.8082 68.5596 44.6982C69.3337 45.7023 70.0333 46.8594 70.6585 48.1695C72.3586 51.7304 73.5363 55.7136 74.3828 59.6126C74.5856 60.5466 74.7699 61.4601 74.9356 62.353C74.9408 62.3808 74.9576 62.3947 74.986 62.3947C76.7272 62.3912 78.4292 62.3904 80.0922 62.3921C81.1204 62.3939 82.1503 62.4078 83.1159 62.7763C85.2366 63.5854 85.9902 66.059 85.7225 68.1145C85.0376 73.3688 84.3747 78.3765 83.7339 83.1376C83.7333 83.1424 83.7337 83.1473 83.735 83.152C83.7364 83.1566 83.7387 83.1609 83.7419 83.1645C83.745 83.1681 83.7489 83.171 83.7532 83.173C83.7575 83.1749 83.7622 83.1759 83.7669 83.1759L85.9728 83.1733C86.0446 83.1733 86.0835 83.2089 86.0893 83.2802L86.0936 83.3367C86.0994 83.4155 86.0629 83.4549 85.9841 83.4549C81.4031 83.4763 76.7952 83.4746 72.1604 83.4497C71.6111 83.4468 71.0317 83.4462 70.4221 83.4479C65.6969 83.4589 60.9172 83.4636 56.0831 83.4618C55.871 83.4618 55.6983 83.4862 55.565 83.5348C54.3126 83.9955 53.0584 84.138 51.5948 84.191C50.8236 84.2188 49.6546 84.1887 48.0878 84.1006C47.4157 84.063 45.9619 83.9523 43.7265 83.7686C43.2945 83.733 42.9008 83.7165 42.4906 83.5713C42.2194 83.4766 41.9899 83.4149 41.7023 83.4149C29.3448 83.4085 16.8938 83.4082 4.3492 83.414C4.29241 83.414 4.25185 83.3885 4.22752 83.3375C4.20086 83.2813 4.20782 83.2271 4.24838 83.175C4.25896 83.1615 4.27253 83.1505 4.28804 83.143C4.30355 83.1354 4.3206 83.1315 4.3379 83.1315C15.865 83.1472 27.311 83.1457 38.6759 83.1272C39.4448 83.126 40.2128 83.1339 40.98 83.1507C41.1503 83.1542 41.1553 83.1278 40.9948 83.0716C39.5213 82.5565 38.0634 82.0419 36.6213 81.528C36.4416 81.4637 36.2006 81.4315 35.8981 81.4315C20.7067 81.4327 10.7974 81.4338 6.17005 81.435C5.97478 81.435 5.7827 81.4338 5.59381 81.4315C4.56474 81.4202 3.87986 80.4668 4.23882 79.5029C4.51086 78.7728 5.13838 78.5329 5.86932 78.5538C6.09994 78.5607 6.32128 78.5651 6.53335 78.5668C6.57623 78.5674 6.59766 78.5462 6.59766 78.5034L6.59853 69.6173C6.59853 69.4492 6.68255 69.3652 6.85058 69.3652L9.478 69.3609C9.52319 69.3609 9.53014 69.3444 9.49886 69.3113C8.65985 68.441 8.33363 67.3674 8.5202 66.0903C8.6245 65.3811 8.90378 64.7434 9.35805 64.1773C9.36484 64.1687 9.36807 64.1577 9.3671 64.1468C9.36613 64.1358 9.36104 64.1256 9.35284 64.1182C8.81223 63.6558 8.50108 62.6946 8.3681 62.0358C8.16646 61.0389 8.06043 59.9185 8.2247 58.9199C8.37419 58.0099 9.11383 57.425 9.93169 58.1412C10.335 58.494 10.5549 58.9355 10.7939 59.4127C10.8124 59.4492 10.8301 59.4486 10.8469 59.411C11.092 58.8721 11.3606 58.2481 11.7717 57.8526C12.2572 57.3873 12.748 57.3691 13.244 57.7978ZM72.4542 6.3169C72.7601 6.31806 72.7636 6.2859 72.4646 6.22043C70.3821 5.76586 68.5561 6.72627 67.9121 8.78265C67.8802 8.88405 67.8929 8.89014 67.9503 8.8009C68.9281 7.28599 70.7055 6.31342 72.4542 6.3169ZM79.0788 11.1398C79.4195 12.6712 79.0901 14.3903 78.3678 15.7375C78.3632 15.7462 78.3649 15.7535 78.373 15.7592H78.3739C78.3797 15.7633 78.3849 15.7624 78.3895 15.7566C79.4847 14.3614 79.7263 12.8178 79.1144 11.1259C79.1109 11.116 79.1043 11.1125 79.0944 11.1154H79.0936C79.0808 11.1189 79.0759 11.127 79.0788 11.1398ZM46.9458 23.6163C45.2935 22.2074 44.1332 20.4743 43.7326 18.3632C43.732 18.3602 43.7306 18.3574 43.7286 18.3551C43.7265 18.3528 43.7239 18.351 43.721 18.3501C43.7181 18.3491 43.715 18.3489 43.712 18.3495C43.709 18.3502 43.7062 18.3516 43.7039 18.3536C43.6935 18.3623 43.6859 18.3739 43.6813 18.3884C43.1285 20.2362 43.0668 22.0744 43.0616 24.0517C43.0575 25.8097 43.0558 27.6207 43.0564 29.4847C43.0564 29.5244 43.0419 29.5628 43.0155 29.5926C42.989 29.6224 42.9526 29.6415 42.913 29.6464C42.2681 29.7255 41.4076 29.8037 41.2347 30.5998C41.1052 31.1969 41.5658 31.6767 42.089 31.9131C42.1893 31.9583 42.2875 32.002 42.3837 32.0443C42.4607 32.0779 42.4998 32.1368 42.501 32.2208C42.5178 33.2661 42.6256 34.2679 42.8243 35.2263C43.2571 37.3218 44.3366 39.1026 46.6998 39.2043C47.1373 39.2234 47.5678 39.2139 47.9913 39.1756C49.0361 39.0812 50.0573 38.9294 51.0551 38.7202C51.208 38.688 51.3619 38.702 51.4001 38.8723C51.6777 40.1192 51.9682 41.3966 52.2719 42.7043C52.2738 42.7129 52.2779 42.7208 52.2837 42.7273C52.2896 42.7338 52.2971 42.7387 52.3055 42.7414C52.3138 42.7441 52.3227 42.7446 52.3313 42.7428C52.3399 42.7411 52.3479 42.7371 52.3544 42.7313C53.0263 42.1429 53.7285 41.5962 54.4578 41.073C56.6034 39.5323 58.9981 38.5921 61.6421 38.2526C61.65 38.2516 61.6576 38.2489 61.6645 38.2448C61.6713 38.2407 61.6772 38.2351 61.6818 38.2286C61.6864 38.2221 61.6895 38.2146 61.6911 38.2068C61.6926 38.1989 61.6925 38.1909 61.6907 38.1831L60.9928 35.1115C60.9859 35.0802 60.9665 35.0623 60.9346 35.0576C60.786 35.0359 60.6382 35.0785 60.5791 35.2323C60.4806 35.4908 60.4447 35.7451 60.4713 35.9954C60.4974 36.2336 60.6634 36.4552 60.7851 36.6577C60.8015 36.6852 60.8087 36.7172 60.8057 36.7491C60.8027 36.7809 60.7897 36.811 60.7686 36.835C60.5713 37.0584 60.3444 36.7672 60.2445 36.616C59.9577 36.1791 59.9223 35.6866 60.1385 35.1385C60.1605 35.0828 60.1414 35.0518 60.0811 35.0455C57.6249 34.7978 55.5807 33.2177 54.8376 30.8267C54.826 30.789 54.8016 30.7774 54.7646 30.7919C54.4945 30.8979 54.2138 30.982 53.9224 31.044C53.8995 31.0489 53.8789 31.0612 53.8638 31.079C53.8487 31.0968 53.84 31.119 53.8389 31.1422C53.7494 33.2594 52.5935 35.3271 50.2146 35.3175C48.5832 35.3114 47.3821 34.0825 46.8241 32.6084C46.3643 31.396 46.5373 30.0801 47.2865 29.0023C47.8697 28.1636 48.6232 27.5196 49.3828 26.8347C50.2555 26.049 50.7517 24.9634 50.0634 23.8544C50.0472 23.8283 50.024 23.8113 49.9939 23.8031C49.6905 23.7232 49.3985 24.0343 49.1073 23.8318C47.3265 22.5881 45.742 21.0601 44.8312 19.0933C44.5102 18.4003 44.3679 17.6748 44.4044 16.9169C44.4048 16.9122 44.4035 16.9075 44.4007 16.9037C44.3979 16.8999 44.3939 16.8971 44.3893 16.896C44.3847 16.8949 44.3799 16.8954 44.3757 16.8975C44.3714 16.8995 44.3681 16.9031 44.3662 16.9074C44.2297 17.1872 44.0142 17.4923 44.0402 17.8226C44.208 19.9859 45.496 21.9388 47.1457 23.3399C47.2268 23.4088 47.2335 23.4845 47.1657 23.5667L47.1396 23.5998C47.0805 23.671 47.0159 23.6765 46.9458 23.6163ZM77.3188 17.3237C77.1258 17.5161 76.9221 17.7061 76.7078 17.8939C76.1315 18.3988 75.4588 18.7108 74.7365 18.9664C74.7267 18.9698 74.7232 18.9768 74.7261 18.9872C74.7284 18.9953 74.7337 18.9985 74.7418 18.9968C75.8398 18.7853 76.7046 18.2325 77.3361 17.3385C77.3877 17.266 77.3819 17.2611 77.3188 17.3237ZM42.7235 23.4372L42.7078 23.1365C42.7049 23.0878 42.6809 23.0542 42.6357 23.0357C41.8604 22.7158 41.2338 21.8172 40.9174 21.0749C40.5014 20.0992 40.3861 19.0915 40.5715 18.052C40.6028 17.877 40.5831 17.871 40.5124 18.0338C40.0147 19.1857 40.0541 20.3228 40.6306 21.4452C41.0417 22.2456 41.7909 23.1261 42.627 23.5033C42.6954 23.5346 42.7275 23.5126 42.7235 23.4372ZM51.4384 31.1552C51.3914 31.2485 51.3178 31.3053 51.2176 31.3256C51.184 31.3319 51.1524 31.3267 51.1229 31.3099C51.0151 31.2479 50.9186 31.1714 50.8334 31.0805C49.8096 29.9836 50.2859 28.0689 50.969 26.9121C51.1785 26.5557 51.4471 26.0777 51.5105 25.6692C51.4723 25.6709 51.4723 25.6721 51.5105 25.6727C51.5134 25.6727 51.5143 25.6738 51.5131 25.6761C51.3827 26.0157 51.2063 26.3709 50.9838 26.7417C50.6648 27.2736 50.451 27.6604 50.2563 28.1515C49.6427 29.7011 50.2059 31.2447 51.4975 32.2338C51.509 32.2426 51.5186 32.2537 51.5256 32.2664C51.5326 32.2791 51.5369 32.2931 51.5382 32.3075C51.5396 32.3219 51.5378 32.3364 51.5332 32.35C51.5286 32.3637 51.5211 32.3762 51.5114 32.3868L51.474 32.4276C51.4056 32.5018 51.3309 32.5087 51.2498 32.4485C49.8696 31.4212 49.2533 29.7915 49.953 28.1402C50.3067 27.3058 50.8378 26.607 51.0785 25.717C51.268 25.0165 51.1281 24.1856 50.5336 23.7493C50.5087 23.7307 50.4826 23.7272 50.4554 23.7388C50.4459 23.7429 50.4373 23.7488 50.4303 23.7564C50.4232 23.764 50.4178 23.7729 50.4144 23.7827C50.4109 23.7925 50.4096 23.8029 50.4103 23.8133C50.4111 23.8237 50.414 23.8339 50.4189 23.8431C51.1394 25.172 50.5501 26.2167 49.561 27.1172C48.5971 27.995 47.6498 28.8155 47.1483 30.0192C46.5494 31.4585 47.2109 33.1829 48.2886 34.1911C49.6262 35.4435 51.5887 35.1758 52.6725 33.7513C53.2749 32.9595 53.4278 31.9313 53.5399 30.9353C53.5448 30.8934 53.5625 30.854 53.5907 30.8225C53.6189 30.7911 53.6561 30.7692 53.6973 30.7597C53.9325 30.7059 54.1712 30.6404 54.4134 30.5633C55.0253 30.3686 55.5572 29.9375 55.9023 29.41C56.491 28.5107 56.6715 27.5477 56.4437 26.5209C56.2369 25.5892 55.6459 24.7514 54.7454 24.3785C53.8856 24.0222 53.1306 24.1963 52.4805 24.9009C52.4283 24.9576 52.382 25.0191 52.3414 25.0851C51.5175 26.4358 50.6422 27.9785 50.7552 29.5794C50.7969 30.1826 51.0707 30.6259 51.4305 31.0857C51.4383 31.0953 51.4432 31.107 51.4446 31.1193C51.446 31.1316 51.4438 31.1441 51.4384 31.1552ZM57.2981 33.6253C57.3004 33.623 57.3004 33.6207 57.2981 33.6183C56.393 32.784 55.7783 31.7616 55.4538 30.5511C55.4329 30.4741 55.3872 30.4547 55.3165 30.4929L55.2252 30.5425C55.1586 30.579 55.1363 30.6334 55.1583 30.7059C55.5291 31.907 56.2262 32.8874 57.2494 33.647C57.2616 33.6563 57.2726 33.6551 57.2825 33.6436L57.2981 33.6253ZM64.7014 39.4929C64.7067 39.4848 64.713 39.4778 64.7206 39.472C64.7474 39.4519 64.766 39.4226 64.7732 39.3893C64.7803 39.3561 64.7755 39.321 64.7597 39.2904C64.5876 38.9589 64.368 38.7092 64.1009 38.5412C63.8453 38.3804 63.4742 38.3812 63.177 38.4117C61.1267 38.6237 59.1129 38.9853 57.2651 39.8449C55.6711 40.5862 54.2718 41.6005 52.895 42.7435C52.2745 43.2591 51.7437 43.7453 51.3028 44.2019C51.0919 44.4203 50.9571 44.6338 50.8986 44.8424C50.81 45.1562 50.9177 45.5716 50.9908 45.895C51.2312 46.964 51.5122 48.1078 51.8338 49.3263C51.8466 49.3762 51.8677 49.3799 51.8973 49.3376C53.4252 47.1465 55.4607 45.3517 57.7813 44.028C59.7757 42.8906 61.844 42.2785 63.9861 42.1916C64.3489 42.1771 64.7997 42.2257 65.3385 42.3376C65.4602 42.3628 65.5662 42.4167 65.6853 42.4497C65.7282 42.4619 65.7456 42.4462 65.7375 42.4028C65.588 41.5493 65.3695 40.7441 65.0821 39.9874C65.0358 39.8646 64.9802 39.7443 64.9153 39.6267C64.9079 39.6136 64.8978 39.6023 64.8858 39.5936C64.8738 39.5849 64.8601 39.579 64.8457 39.5763L64.7293 39.5537C64.7229 39.5523 64.717 39.5495 64.7119 39.5454C64.7068 39.5414 64.7028 39.5362 64.7001 39.5303C64.6974 39.5244 64.6961 39.5179 64.6963 39.5114C64.6966 39.5049 64.6983 39.4986 64.7014 39.4929ZM53.1462 48.5615C53.0912 48.5991 53.03 48.6026 52.9628 48.5719C52.9234 48.5539 52.8904 48.5621 52.8638 48.5962C52.1864 49.4486 51.6707 50.2992 51.3167 51.148C50.8931 52.1632 50.4478 53.2502 49.9808 54.4091C49.8617 54.7054 49.7062 54.9896 49.5923 55.2886C49.5668 55.3547 49.5807 55.3645 49.634 55.3182C51.2958 53.8658 53.1245 52.9645 55.3625 53.1027C57.08 53.2088 58.7 54.0371 59.7569 55.4112C60.2929 56.1082 60.6704 56.9435 60.8894 57.9169C61.5105 60.6756 62.05 63.2575 62.5077 65.6627C62.5107 65.6785 62.5105 65.6947 62.507 65.7104C62.5036 65.7261 62.497 65.7409 62.4876 65.754C62.4783 65.7671 62.4664 65.7781 62.4527 65.7865C62.439 65.7948 62.4237 65.8003 62.4078 65.8026L62.3765 65.8061C62.3393 65.8113 62.3016 65.8021 62.2709 65.7805C62.2402 65.7589 62.2189 65.7264 62.2114 65.6896C61.8394 63.8899 61.4824 62.1612 61.1406 60.5035C60.8288 58.997 60.5948 57.9809 60.4383 57.4554C59.5422 54.4482 56.5785 52.8898 53.5591 53.5078C51.1003 54.0119 48.8944 56.0074 47.9748 58.3037C46.86 61.0901 45.8721 63.8456 45.0111 66.5701C44.5096 68.1563 44.0776 69.7624 43.6126 71.3634C42.9503 73.6469 43.4295 75.6349 45.0502 77.3274C45.1006 77.3802 45.1046 77.4364 45.0623 77.496C45.0305 77.5395 44.9757 77.5583 44.8981 77.5525C44.8628 77.5497 44.8298 77.5343 44.8051 77.5091C43.1468 75.8125 42.6302 73.806 43.2554 71.4894C43.4234 70.8677 43.5973 70.266 43.7769 69.6842C43.7789 69.6778 43.7788 69.6708 43.7767 69.6644C43.7746 69.658 43.7705 69.6525 43.765 69.6485C43.7595 69.6446 43.7529 69.6425 43.7462 69.6425C43.7394 69.6425 43.7328 69.6446 43.7273 69.6486C42.9416 70.2231 42.0386 70.463 41.0295 70.5099C40.6112 70.5296 40.1891 70.5612 39.7632 70.6046C38.1113 70.7738 36.7296 71.4546 35.6183 72.6471C34.6674 73.6666 33.86 75.1085 33.5784 76.5061C33.2238 78.2644 33.9634 79.8349 35.5592 80.7049C35.8732 80.8758 36.2872 81.0526 36.8012 81.2351C38.8935 81.9785 40.8627 82.6628 42.7087 83.288C42.8119 83.3228 42.9164 83.3451 43.0225 83.3549C44.806 83.5137 46.4359 83.6478 47.9123 83.7573C49.5645 83.8799 51.2367 83.9164 52.8742 83.7895C54.343 83.6748 55.6676 83.3332 56.728 82.3424C57.013 82.0758 57.3618 81.6169 57.7744 80.9657C58.6041 79.6561 59.229 78.6054 59.6491 77.8133C60.1619 76.8468 60.6582 75.8954 61.138 74.959C61.2724 74.6977 61.4471 74.5349 61.6621 74.4706C61.9889 74.3732 62.289 74.2637 62.5625 74.142C65.395 72.8879 65.4072 69.845 65.3785 67.2054C65.3472 64.3711 65.143 61.6699 64.9083 58.886C64.9067 58.8665 64.9091 58.847 64.9153 58.8286C64.9216 58.8102 64.9317 58.7933 64.9448 58.7791C64.9871 58.7322 65.0311 58.711 65.0769 58.7157C65.1546 58.7232 65.1969 58.7658 65.2038 58.8434C65.4622 61.6131 65.6242 64.233 65.6897 66.7031C65.7123 67.556 65.7039 68.4118 65.6645 69.2705C65.568 71.3782 64.9335 73.2903 62.9545 74.3019C62.9481 74.3053 62.9427 74.3104 62.9388 74.3166C62.935 74.3227 62.9329 74.3298 62.9327 74.3371C62.9325 74.3443 62.9343 74.3515 62.9378 74.3579C62.9413 74.3642 62.9465 74.3695 62.9527 74.3732C63.8297 74.8886 64.273 75.9559 64.2199 76.9554C64.1939 77.4543 64.0667 78.0019 63.8384 78.5981C63.2555 80.1249 62.6607 81.6447 62.054 83.1576C62.053 83.1599 62.0526 83.1624 62.0528 83.1649C62.053 83.1674 62.0538 83.1698 62.0552 83.1719C62.0566 83.174 62.0585 83.1757 62.0607 83.1768C62.063 83.178 62.0654 83.1786 62.068 83.1785L74.8304 83.1733C74.8437 83.1732 74.8567 83.1689 74.8673 83.1609C74.878 83.1529 74.8858 83.1417 74.8895 83.1289C75.0506 82.582 75.1769 82.017 75.2685 81.4341C75.7969 78.0749 75.8682 74.6392 75.6761 71.2234C75.5376 68.762 75.2893 66.4136 74.9312 64.1782C74.4857 61.3975 73.8396 58.481 72.993 55.4286C72.3986 53.2847 71.6572 51.1935 70.7689 49.1551C70.2561 47.9783 69.5941 46.7705 68.7829 45.5317C68.5494 45.1747 68.3214 44.914 68.0989 44.7494C68.0723 44.7297 68.0601 44.7031 68.0624 44.6695C68.0653 44.6289 68.0534 44.5924 68.0268 44.56C67.0803 43.4144 65.8365 42.5557 64.3512 42.4801C63.9659 42.4604 63.3914 42.5085 62.6277 42.6244C60.5209 42.9442 58.5728 43.7273 56.7836 44.9737C55.4208 45.9228 54.2796 46.9362 53.1254 48.2547C53.0582 48.3306 53.0651 48.3952 53.1462 48.4485C53.1555 48.4546 53.163 48.4629 53.1682 48.4727C53.1735 48.4825 53.1762 48.4935 53.1762 48.5046C53.1762 48.5158 53.1735 48.5268 53.1682 48.5367C53.163 48.5466 53.1555 48.5551 53.1462 48.5615ZM33.5384 50.4353C33.6236 50.3461 33.7212 50.3467 33.8313 50.4371C33.8649 50.4651 33.8866 50.5042 33.8922 50.5466L36.55 69.7702C36.5532 69.7935 36.5637 69.8152 36.5799 69.8322C36.5961 69.8492 36.6173 69.8607 36.6404 69.865C36.9457 69.9212 37.256 69.9817 37.5712 70.0466C37.6263 70.0576 37.6358 70.0417 37.5999 69.9988C37.5958 69.9942 37.5927 69.9832 37.5903 69.9658C36.7148 63.7451 35.8228 57.3624 34.9143 50.8178C34.8543 50.3858 34.836 49.9877 34.3606 49.9851C27.2713 49.9538 20.3518 49.955 13.6021 49.9886C13.1632 49.9903 12.7355 50.1051 12.7981 50.6718C12.8566 51.2002 12.9131 51.6817 12.9676 52.1163C12.9717 52.1493 12.9902 52.1658 13.0232 52.1658L33.6557 52.1693C33.6637 52.1692 33.6715 52.1675 33.6787 52.1642C33.6859 52.1608 33.6924 52.156 33.6975 52.15C33.7027 52.144 33.7066 52.1369 33.7088 52.1293C33.711 52.1217 33.7116 52.1137 33.7105 52.1058L33.4897 50.5866C33.486 50.5594 33.4884 50.5318 33.4968 50.5056C33.5052 50.4794 33.5194 50.4554 33.5384 50.4353ZM16.286 61.1866C16.3491 61.08 16.4902 61.0264 16.7092 61.0258C21.6489 61.0206 26.6928 61.0195 31.841 61.0223C31.9997 61.0223 32.0904 61.1012 32.113 61.2588C32.2689 62.3342 32.4094 63.3044 32.5346 64.1695C32.5479 64.264 32.5925 64.3413 32.6684 64.4016C32.9552 64.6293 33.0161 64.9822 32.7883 65.2855C32.7588 65.3243 32.7478 65.3683 32.7553 65.4176C32.9882 66.9745 33.2168 68.4915 33.4411 69.9684C33.443 69.9806 33.4496 69.9915 33.4596 69.9988C33.4695 70.0062 33.4819 70.0093 33.4941 70.0075C34.3708 69.8754 35.2503 69.8163 36.1328 69.8302C36.167 69.8308 36.1818 69.8143 36.1771 69.7807L33.7618 52.5387C33.7593 52.5222 33.7512 52.5071 33.7387 52.4961C33.7263 52.4851 33.7105 52.479 33.694 52.4787C32.662 52.4677 31.5866 52.4622 30.4677 52.4622C24.8774 52.461 19.0762 52.4662 13.0641 52.4778C13.0583 52.4779 13.0526 52.4792 13.0474 52.4817C13.0422 52.4841 13.0375 52.4877 13.0338 52.4921C13.03 52.4965 13.0272 52.5017 13.0255 52.5074C13.0238 52.513 13.0234 52.5189 13.0241 52.5248C13.9523 59.6766 14.922 66.9108 15.9331 74.2272C16.0131 74.8061 16.1075 75.2554 16.2164 75.5752C16.3607 76 16.5496 76.4169 16.7831 76.8259C17.2154 77.5832 17.8432 78.1323 18.6666 78.473C18.8102 78.5326 18.9519 78.5628 19.0916 78.5633C21.393 78.5639 23.7105 78.5648 26.0438 78.566C26.0879 78.566 26.0931 78.5518 26.0595 78.5234C25.5632 78.101 25.3285 77.2857 25.9804 76.852C26.0386 76.8138 26.1064 76.8077 26.1716 76.7886C26.2156 76.7752 26.222 76.7518 26.1907 76.7182C25.89 76.3954 25.8581 76.0301 26.0951 75.6222C26.2168 75.4136 26.5132 75.3892 26.3132 75.0564C26.3045 75.0415 26.2921 75.0293 26.2774 75.0207C26.2626 75.0122 26.2459 75.0077 26.2289 75.0077L18.9143 75.0164C18.858 75.0166 18.8035 74.9969 18.7604 74.9608C18.7173 74.9247 18.6884 74.8745 18.6787 74.8191L16.2764 61.2422C16.273 61.2232 16.2764 61.2035 16.286 61.1866ZM11.6187 63.9653C11.5994 63.9449 11.5886 63.9179 11.5882 63.8898C11.5879 63.8616 11.5982 63.8343 11.617 63.8132C12.414 62.911 12.832 61.8246 13.0893 60.6547C13.2081 60.1129 13.2695 59.5541 13.2735 58.9781C13.2759 58.66 13.2081 58.3787 13.0702 58.1342C12.8946 57.8222 12.5365 57.6909 12.2184 57.8987C11.6717 58.255 11.3162 59.0955 11.0711 59.7378C11.0126 59.8925 10.9833 60.0701 10.9833 60.2705C10.9903 63.2726 10.9912 66.2702 10.986 69.2635C10.986 69.3244 11.0164 69.3548 11.0772 69.3548H12.2306C12.2569 69.3548 12.2822 69.3452 12.3018 69.3279C12.3557 69.2798 12.4009 69.2256 12.4374 69.1653C13.3587 67.6461 13.3448 65.5653 12.0254 64.2642C11.9029 64.1434 11.7334 64.0878 11.6187 63.9653ZM9.74917 64.2234C9.01474 64.9952 8.65231 66.1094 8.78181 67.1637C8.88495 68.012 9.27607 68.7316 9.95515 69.3226C9.97833 69.3429 10.005 69.3531 10.0351 69.3531L10.6209 69.3539C10.6412 69.3539 10.6607 69.346 10.675 69.3318C10.6893 69.3176 10.6974 69.2984 10.6974 69.2783C10.691 66.2189 10.6864 63.1442 10.6835 60.0541C10.6835 59.9411 10.6589 59.8316 10.6096 59.7256C10.3767 59.2215 9.97688 58.4106 9.47973 58.1872C8.69664 57.8343 8.47414 59.0085 8.45676 59.4909C8.40808 60.8155 8.58597 61.981 8.99041 62.9875C9.16366 63.418 9.41252 63.7651 9.737 64.0287C9.75118 64.0403 9.76282 64.0547 9.77118 64.071C9.77954 64.0873 9.78445 64.1051 9.78559 64.1234C9.78673 64.1417 9.78409 64.16 9.77782 64.1772C9.77155 64.1944 9.7618 64.2101 9.74917 64.2234ZM14.5912 69.4591L14.592 69.5199C14.5943 69.5953 14.5578 69.6329 14.4825 69.6329L6.93228 69.6364C6.92635 69.6364 6.92047 69.6376 6.91499 69.6398C6.9095 69.6421 6.90452 69.6454 6.90033 69.6496C6.89613 69.6538 6.8928 69.6588 6.89053 69.6643C6.88826 69.6698 6.88709 69.6757 6.88709 69.6816L6.88796 78.506C6.88796 78.5205 6.89373 78.5344 6.904 78.5447C6.91426 78.555 6.92819 78.5607 6.94271 78.5607L15.0188 78.5633C15.0547 78.5633 15.0727 78.5454 15.0727 78.5095C15.0657 76.3511 15.0585 73.9673 15.0509 71.3582C15.0498 71.0899 15.0353 70.85 15.0075 70.6385C14.5439 67.1417 14.0662 63.6031 13.5743 60.0228C13.5563 59.8954 13.5409 59.8957 13.5282 60.0237C13.4193 61.1194 13.0826 62.1809 12.5182 63.2082C12.4064 63.4116 12.2607 63.6112 12.0811 63.8071C12.0739 63.8149 12.0684 63.8241 12.065 63.8341C12.0615 63.8441 12.06 63.8547 12.0608 63.8652C12.0615 63.8758 12.0644 63.8861 12.0692 63.8955C12.074 63.905 12.0807 63.9133 12.0889 63.9201C12.6764 64.4085 13.0597 65.0647 13.2353 65.7991C13.5331 67.0467 13.3567 68.2185 12.706 69.3148C12.7032 69.3194 12.7017 69.3247 12.7017 69.3301C12.7016 69.3355 12.7029 69.3408 12.7056 69.3455C12.7083 69.3501 12.7121 69.354 12.7167 69.3567C12.7214 69.3595 12.7267 69.3609 12.7321 69.3609L14.4877 69.3583C14.5549 69.3583 14.5894 69.3919 14.5912 69.4591ZM32.3433 65.4732C31.6289 65.4411 31.5072 64.5658 32.1626 64.3147C32.1962 64.3019 32.2104 64.2776 32.2052 64.2416L31.7993 61.377C31.7974 61.3624 31.7903 61.3489 31.7792 61.3392C31.7682 61.3295 31.754 61.324 31.7393 61.3239L16.7084 61.3265C16.6869 61.3265 16.678 61.337 16.6814 61.3578C17.4973 65.8206 18.2801 70.2477 19.0299 74.6392C19.0345 74.6682 19.0513 74.6826 19.0803 74.6826C21.3829 74.6861 23.618 74.6873 25.7857 74.6861C25.9497 74.6861 26.1133 74.6792 26.2767 74.6653C26.3086 74.6629 26.3277 74.6461 26.3341 74.6148C26.4123 74.2272 26.5757 74.1133 26.8825 73.9126C26.9127 73.8929 26.9306 73.8656 26.9364 73.8309C26.959 73.7005 26.9486 73.558 26.9842 73.4337C27.0758 73.1179 27.2818 72.9061 27.6022 72.7983C27.9377 72.6848 28.3395 72.5842 28.8077 72.4967C30.043 72.265 31.2558 72.0628 32.4459 71.8901C32.4836 71.8849 32.4989 71.8634 32.492 71.8258C32.3851 71.2382 32.4737 70.3804 33.0656 70.1101C33.1004 70.0939 33.1149 70.0666 33.1091 70.0284L32.4433 65.5636C32.4397 65.5392 32.4277 65.5168 32.4095 65.5003C32.3912 65.4838 32.3678 65.4742 32.3433 65.4732ZM32.5089 65.0459C32.5276 65.0229 32.5411 64.996 32.5487 64.9668C32.5563 64.9377 32.5578 64.9069 32.5531 64.8761C32.5484 64.8453 32.5377 64.8152 32.5215 64.7874C32.5052 64.7597 32.4839 64.7349 32.4586 64.7144C32.4076 64.6731 32.3436 64.6519 32.2808 64.6556C32.2181 64.6593 32.1616 64.6876 32.1239 64.7341C32.1052 64.7572 32.0917 64.7841 32.0841 64.8132C32.0765 64.8424 32.0751 64.8732 32.0797 64.904C32.0844 64.9348 32.0951 64.9649 32.1113 64.9926C32.1276 65.0204 32.1489 65.0452 32.1742 65.0656C32.2252 65.107 32.2892 65.1281 32.352 65.1244C32.4147 65.1207 32.4712 65.0925 32.5089 65.0459ZM35.7895 72.0187C36.3753 71.5016 36.9976 71.0983 37.7424 70.7698C37.9241 70.6898 38.117 70.6437 38.3022 70.5681C38.3549 70.5467 38.3532 70.5302 38.297 70.5186C37.1364 70.2781 36.4451 70.1553 36.2232 70.1501C35.3054 70.1286 34.371 70.1924 33.4202 70.3413C32.7127 70.4517 32.7084 71.2799 32.8127 71.8014C32.8149 71.8121 32.8207 71.8217 32.8291 71.8285C32.8375 71.8354 32.848 71.839 32.8587 71.8388C33.8235 71.8342 34.7685 71.9034 35.6939 72.0465C35.7298 72.0523 35.7617 72.0431 35.7895 72.0187ZM30.1948 75.1024C29.1229 75.2566 28.0029 75.4263 26.8347 75.6117C26.6418 75.6422 26.3498 75.6743 26.2767 75.8907C26.1568 76.2471 26.3645 76.7043 26.7869 76.7051C27.5263 76.7057 28.2422 76.7066 28.9346 76.7077C28.9557 76.7077 28.9767 76.712 28.9961 76.7204C29.0155 76.7288 29.033 76.7411 29.0475 76.7566C29.062 76.7721 29.0732 76.7904 29.0804 76.8104C29.0876 76.8304 29.0906 76.8516 29.0893 76.8729C29.0887 76.8804 29.0881 76.8879 29.0875 76.8955C29.0783 76.9777 29.0322 77.0192 28.9494 77.0198C28.1074 77.0261 27.2989 77.0334 26.5236 77.0415C26.1359 77.045 25.7961 77.2492 25.9056 77.6899C25.9815 77.9923 26.1942 78.2571 26.5436 78.4843C26.6258 78.5376 26.7232 78.5639 26.8356 78.5633C29.0241 78.557 31.1741 78.5581 33.2855 78.5668C33.2892 78.5669 33.2928 78.5662 33.2961 78.5647C33.2995 78.5631 33.3024 78.5608 33.3047 78.558C33.307 78.5551 33.3085 78.5517 33.3093 78.5481C33.31 78.5445 33.3099 78.5408 33.309 78.5373C32.8926 76.9363 33.4054 75.4223 34.1955 74.0429C34.5605 73.4044 34.9716 72.8467 35.4288 72.3699C35.4323 72.366 35.4347 72.3612 35.4358 72.3561C35.4368 72.3509 35.4364 72.3456 35.4346 72.3407C35.4328 72.3357 35.4297 72.3314 35.4256 72.3281C35.4215 72.3248 35.4166 72.3227 35.4114 72.322C34.4015 72.1891 33.3055 72.0987 32.2729 72.2412C31.1471 72.3965 30.0274 72.5828 28.9137 72.8001C28.4826 72.8841 28.088 72.9771 27.7299 73.0791C27.482 73.1492 27.3316 73.3106 27.2789 73.5632C27.276 73.5782 27.2719 73.5924 27.2667 73.6058C27.1902 73.7993 27.2508 73.8752 27.4483 73.8335C28.3256 73.6486 29.2205 73.4763 30.1331 73.3163C30.1525 73.3128 30.1723 73.3139 30.1911 73.3195C30.2098 73.3251 30.2269 73.335 30.2409 73.3485C30.2809 73.3873 30.2983 73.427 30.293 73.4676C30.2826 73.547 30.238 73.5933 30.1592 73.6066C29.1597 73.7758 28.1602 73.9676 27.1607 74.182C26.9978 74.2168 26.8588 74.2805 26.7435 74.3732C26.5479 74.5305 26.5975 75.006 26.6235 75.2311C26.6257 75.2495 26.6348 75.2664 26.6488 75.2783C26.6628 75.2903 26.6808 75.2964 26.6991 75.2954C26.8747 75.2867 27.0416 75.0755 27.2059 75.2137C27.2313 75.2345 27.2603 75.2426 27.2928 75.238L30.1453 74.8061C30.2177 74.795 30.2644 74.8246 30.2852 74.8947L30.2983 74.9408C30.3036 74.9581 30.305 74.9765 30.3025 74.9945C30.3 75.0125 30.2937 75.0298 30.2838 75.0451C30.274 75.0605 30.261 75.0735 30.2456 75.0834C30.2303 75.0933 30.2129 75.0998 30.1948 75.1024ZM15.3386 73.0061C15.3311 73.0066 15.3273 73.0107 15.3273 73.0182C15.3435 74.8544 15.3522 76.6875 15.3534 78.5173C15.3534 78.528 15.3576 78.5382 15.365 78.5459C15.3725 78.5535 15.3827 78.5579 15.3934 78.5581L17.8626 78.5694C17.8668 78.5694 17.8709 78.568 17.8742 78.5655C17.8775 78.5629 17.8799 78.5593 17.881 78.5553C17.8821 78.5512 17.8818 78.5469 17.8802 78.543C17.8786 78.5392 17.8758 78.5359 17.8722 78.5338C17.0821 78.1097 16.518 77.2814 16.166 76.4496C15.9322 75.9003 15.6654 75.2771 15.5863 74.6992C15.5064 74.1116 15.4278 73.5507 15.3508 73.0165C15.3496 73.009 15.3456 73.0055 15.3386 73.0061ZM33.3385 78.8432C24.0735 78.8571 14.5833 78.8397 5.67116 78.8449C5.2841 78.8449 4.9773 78.9675 4.75074 79.2126C4.16929 79.8419 4.40569 80.8031 5.18705 81.0986C5.44345 81.196 5.76242 81.1742 6.04055 81.1742C16.2159 81.1708 26.0583 81.1711 35.5679 81.1751C35.642 81.1751 35.6458 81.1592 35.5792 81.1273C34.5912 80.6487 33.878 79.9091 33.4393 78.9084C33.4308 78.8888 33.4167 78.8722 33.3987 78.8606C33.3808 78.849 33.3599 78.843 33.3385 78.8432ZM58.4419 83.1081C58.1186 82.9638 57.8474 82.803 57.5988 82.531C57.5218 82.4458 57.4447 82.3621 57.3676 82.2798C57.3387 82.2491 57.31 82.2491 57.2816 82.2798C56.993 82.5892 56.6636 82.9056 56.3099 83.1194C56.2496 83.1559 56.2546 83.1741 56.3247 83.1741L58.4271 83.1759C58.5384 83.1759 58.5433 83.1533 58.4419 83.1081Z" fill="black"/>
<path id="Vector_2" d="M45.3848 23.9344C45.2284 23.5676 44.7495 23.6293 44.5661 23.9179C44.5006 24.0216 44.4557 24.1624 44.4314 24.3403C44.4215 24.4127 44.3801 24.446 44.3071 24.4402L44.1915 24.4315C44.1739 24.4303 44.1568 24.4257 44.141 24.4178C44.1253 24.4099 44.1113 24.399 44.0998 24.3856C44.0883 24.3723 44.0796 24.3568 44.0742 24.3401C44.0687 24.3233 44.0666 24.3057 44.0681 24.2881C44.0976 23.9144 44.2457 23.6398 44.5122 23.4642C44.8764 23.2243 45.3535 23.2869 45.6264 23.6276C45.8136 23.8611 45.9037 24.1317 45.8967 24.4394C45.8962 24.4764 45.8799 24.5048 45.8481 24.5245C45.7484 24.586 45.6592 24.5776 45.5804 24.4993C45.5641 24.4831 45.5537 24.464 45.5491 24.442C45.5108 24.2687 45.4561 24.0995 45.3848 23.9344Z" fill="black"/>
<path id="Vector_3" d="M53.6035 26.2959C53.5949 26.304 53.5897 26.315 53.5889 26.3268C53.5881 26.3385 53.5917 26.3502 53.5991 26.3593C53.9589 26.8125 54.1093 27.3496 54.0502 27.9707C54.0076 28.4175 53.8268 28.8642 53.4409 29.105C53.2037 29.2527 52.9777 29.4109 52.8343 29.6638C52.7862 29.749 52.7149 29.7791 52.6205 29.7542C52.5787 29.7432 52.5564 29.7003 52.5535 29.6256C52.5529 29.6084 52.5565 29.5912 52.564 29.5752C52.7042 29.2623 52.8835 29.0479 53.102 28.932C53.3618 28.7947 53.6174 28.5913 53.6921 28.3001C53.8433 27.7068 53.7567 27.1453 53.4322 26.6157C53.4247 26.6033 53.4144 26.5927 53.4022 26.5848C53.39 26.5769 53.3762 26.5718 53.3618 26.5699C53.3474 26.5681 53.3328 26.5695 53.3191 26.5742C53.3054 26.5788 53.293 26.5865 53.2827 26.5966L52.4518 27.4032C52.3672 27.4855 52.2699 27.5057 52.1598 27.464C52.1349 27.4547 52.1161 27.4391 52.1033 27.4171C52.0836 27.3833 52.0756 27.3441 52.0805 27.3054C52.0854 27.2668 52.1029 27.2309 52.1303 27.2033C52.829 26.4935 53.5449 25.8115 54.2779 25.1573C54.366 25.0785 54.4622 25.0675 54.5665 25.1243C54.585 25.1347 54.5995 25.1498 54.6099 25.1695C54.6511 25.2506 54.6386 25.3225 54.5725 25.385L53.6035 26.2959Z" fill="black"/>
<path id="Vector_4" d="M43.8317 27.975C43.8204 28.5149 44.0159 28.9569 44.2683 28.9622C44.5208 28.9675 44.7346 28.5341 44.7459 27.9942C44.7572 27.4543 44.5617 27.0123 44.3093 27.007C44.0569 27.0017 43.8431 27.4351 43.8317 27.975Z" fill="black"/>
<path id="Vector_5" d="M43.6752 33.9534L42.9075 34.4002C42.8316 34.4444 42.8058 34.5418 42.85 34.6177L42.8544 34.6252C42.8986 34.7011 42.996 34.7268 43.0719 34.6827L43.8396 34.2358C43.9155 34.1917 43.9412 34.0943 43.897 34.0184L43.8927 34.0109C43.8485 33.9349 43.7511 33.9092 43.6752 33.9534Z" fill="black"/>
<path id="Vector_6" d="M62.2183 39.5815C62.2182 39.5768 62.219 39.5722 62.2206 39.5678C62.2223 39.5634 62.2249 39.5594 62.2281 39.556C62.2313 39.5527 62.2352 39.5499 62.2395 39.548C62.2437 39.5461 62.2484 39.5451 62.253 39.545L62.2687 39.5441C62.2875 39.5437 62.3062 39.5459 62.3237 39.5508C62.3413 39.5557 62.3573 39.563 62.3708 39.5725C62.3844 39.5819 62.3952 39.5933 62.4028 39.6058C62.4103 39.6184 62.4144 39.632 62.4147 39.6458V39.6667C62.4151 39.6805 62.4117 39.6943 62.4048 39.7072C62.3979 39.7201 62.3877 39.732 62.3746 39.7421C62.3615 39.7522 62.3459 39.7603 62.3286 39.766C62.3113 39.7717 62.2927 39.7749 62.2739 39.7753L62.2583 39.7762C62.2536 39.7763 62.2489 39.7755 62.2445 39.7738C62.2402 39.7721 62.2362 39.7696 62.2328 39.7664C62.2294 39.7631 62.2267 39.7593 62.2248 39.755C62.2229 39.7507 62.2219 39.7461 62.2218 39.7414L62.2183 39.5815Z" fill="black"/>
<path id="Vector_7" d="M61.124 39.9092C61.1807 39.9092 61.2266 39.8633 61.2266 39.8067C61.2266 39.75 61.1807 39.7041 61.124 39.7041C61.0674 39.7041 61.0215 39.75 61.0215 39.8067C61.0215 39.8633 61.0674 39.9092 61.124 39.9092Z" fill="black"/>
<path id="Vector_8" d="M59.8272 40.1627C59.8901 40.1782 59.9517 40.1476 59.9648 40.0945C59.9778 40.0413 59.9374 39.9857 59.8744 39.9702C59.8115 39.9548 59.7499 39.9853 59.7369 40.0385C59.7238 40.0916 59.7642 40.1472 59.8272 40.1627Z" fill="black"/>
<path id="Vector_9" d="M62.9318 40.4106C62.942 40.3987 62.956 40.3908 62.9714 40.3882C62.9869 40.3857 63.0027 40.3887 63.0161 40.3967C63.0666 40.4274 63.0932 40.4683 63.0961 40.5193C63.0967 40.5319 63.0939 40.5445 63.0881 40.5558C63.0823 40.5671 63.0737 40.5766 63.0631 40.5836C63.0525 40.5905 63.0402 40.5945 63.0276 40.5953C63.0149 40.5961 63.0023 40.5935 62.9909 40.5879C62.8919 40.5393 62.8722 40.4802 62.9318 40.4106Z" fill="black"/>
<path id="Vector_10" d="M58.6688 40.611C58.7347 40.6174 58.7921 40.5818 58.7969 40.5317C58.8018 40.4815 58.7522 40.4357 58.6863 40.4293C58.6203 40.423 58.563 40.4585 58.5581 40.5087C58.5533 40.5589 58.6029 40.6047 58.6688 40.611Z" fill="black"/>
<path id="Vector_11" d="M64.3947 40.9765C64.4472 41.0229 64.5187 41.0278 64.5542 40.9874C64.5898 40.9471 64.576 40.8768 64.5234 40.8305C64.4708 40.7842 64.3994 40.7793 64.3638 40.8196C64.3283 40.8599 64.3421 40.9302 64.3947 40.9765Z" fill="black"/>
<path id="Vector_12" d="M57.7587 41.0208C57.8223 41.006 57.8633 40.9489 57.8504 40.8932C57.8374 40.8376 57.7754 40.8045 57.7118 40.8193C57.6482 40.8341 57.6072 40.8912 57.6201 40.9468C57.6331 41.0024 57.6951 41.0355 57.7587 41.0208Z" fill="black"/>
<path id="Vector_13" d="M62.3948 41.2445C62.395 41.3108 62.4392 41.3643 62.4934 41.3641C62.5477 41.3639 62.5915 41.3101 62.5912 41.2438C62.591 41.1776 62.5468 41.1241 62.4926 41.1242C62.4384 41.1244 62.3946 41.1783 62.3948 41.2445Z" fill="black"/>
<path id="Vector_14" d="M60.1733 41.4745C60.2249 41.4479 60.2825 41.4403 60.3463 41.4519C60.3607 41.4545 60.3735 41.4625 60.3821 41.4744C60.3907 41.4862 60.3944 41.5009 60.3923 41.5154C60.3723 41.644 60.2298 41.6709 60.1525 41.5623C60.1475 41.5553 60.1441 41.5474 60.1425 41.539C60.1408 41.5306 60.141 41.522 60.143 41.5137C60.145 41.5054 60.1487 41.4976 60.1539 41.4908C60.1591 41.4841 60.1658 41.4785 60.1733 41.4745Z" fill="black"/>
<path id="Vector_15" d="M56.5012 41.6987C56.5612 41.6987 56.6099 41.6501 56.6099 41.5901C56.6099 41.5301 56.5612 41.4814 56.5012 41.4814C56.4412 41.4814 56.3926 41.5301 56.3926 41.5901C56.3926 41.6501 56.4412 41.6987 56.5012 41.6987Z" fill="black"/>
<path id="Vector_16" d="M55.1262 41.9839C55.1862 41.9839 55.2349 41.9352 55.2349 41.8752C55.2349 41.8152 55.1862 41.7666 55.1262 41.7666C55.0662 41.7666 55.0176 41.8152 55.0176 41.8752C55.0176 41.9352 55.0662 41.9839 55.1262 41.9839Z" fill="black"/>
<path id="Vector_17" d="M64.3518 42.1085C64.4008 42.0968 64.4321 42.0521 64.4217 42.0086C64.4113 41.9652 64.3631 41.9396 64.3141 41.9514C64.2651 41.9631 64.2338 42.0078 64.2442 42.0513C64.2546 42.0947 64.3028 42.1203 64.3518 42.1085Z" fill="black"/>
<path id="Vector_18" d="M59.3839 42.195C59.4299 42.2554 59.5065 42.2743 59.5549 42.2374C59.6034 42.2004 59.6055 42.1216 59.5595 42.0613C59.5136 42.0009 59.437 41.982 59.3885 42.0189C59.34 42.0559 59.338 42.1347 59.3839 42.195Z" fill="black"/>
<path id="Vector_19" d="M65.1526 42.2222C65.212 42.2557 65.2819 42.2442 65.3087 42.1965C65.3356 42.1488 65.3092 42.0831 65.2499 42.0496C65.1905 42.0161 65.1206 42.0277 65.0937 42.0753C65.0668 42.123 65.0932 42.1888 65.1526 42.2222Z" fill="black"/>
<path id="Vector_20" d="M61.3621 42.3289C61.4214 42.2984 61.4486 42.2328 61.4227 42.1824C61.3968 42.1321 61.3277 42.1159 61.2683 42.1464C61.209 42.1769 61.1819 42.2425 61.2078 42.2929C61.2337 42.3433 61.3028 42.3594 61.3621 42.3289Z" fill="black"/>
<path id="Vector_21" d="M56.1222 42.8878C56.1817 42.8878 56.23 42.8395 56.23 42.78C56.23 42.7205 56.1817 42.6722 56.1222 42.6722C56.0627 42.6722 56.0144 42.7205 56.0144 42.78C56.0144 42.8395 56.0627 42.8878 56.1222 42.8878Z" fill="black"/>
<path id="Vector_22" d="M58.2411 43.2109C58.3101 43.228 58.3761 43.201 58.3886 43.1507C58.401 43.1004 58.3552 43.0458 58.2862 43.0287C58.2173 43.0116 58.1513 43.0386 58.1388 43.0889C58.1264 43.1392 58.1722 43.1939 58.2411 43.2109Z" fill="black"/>
<path id="Vector_23" d="M57.8175 43.6211C57.7662 43.6622 57.7477 43.7244 57.7762 43.76C57.8047 43.7956 57.8694 43.7911 57.9207 43.75C57.9721 43.7089 57.9906 43.6467 57.962 43.6111C57.9335 43.5755 57.8688 43.58 57.8175 43.6211Z" fill="black"/>
<path id="Vector_24" d="M52.5838 44.4331C52.6434 44.4331 52.6916 44.3848 52.6916 44.3253C52.6916 44.2658 52.6434 44.2175 52.5838 44.2175C52.5243 44.2175 52.4761 44.2658 52.4761 44.3253C52.4761 44.3848 52.5243 44.4331 52.5838 44.4331Z" fill="black"/>
<path id="Vector_25" d="M55.0888 44.8134C55.1515 44.8087 55.1992 44.763 55.1953 44.7113C55.1914 44.6596 55.1374 44.6215 55.0747 44.6262C55.012 44.6309 54.9643 44.6767 54.9682 44.7284C54.9721 44.7801 55.0261 44.8181 55.0888 44.8134Z" fill="black"/>
<path id="Vector_26" d="M54.4684 45.9392C54.4279 45.9903 54.4279 46.0579 54.4686 46.0901C54.5092 46.1223 54.575 46.1069 54.6155 46.0558C54.6561 46.0046 54.656 45.937 54.6154 45.9048C54.5748 45.8726 54.509 45.888 54.4684 45.9392Z" fill="black"/>
<path id="Vector_27" d="M61.0029 46.7402C61.0099 46.806 61.0613 46.8546 61.1176 46.8485C61.1739 46.8425 61.2139 46.7843 61.2068 46.7184C61.1998 46.6525 61.1484 46.604 61.0921 46.61C61.0358 46.616 60.9958 46.6743 61.0029 46.7402Z" fill="black"/>
<path id="Vector_28" d="M52.0337 46.8692C52.0947 46.8692 52.1441 46.8198 52.1441 46.7588C52.1441 46.6979 52.0947 46.6484 52.0337 46.6484C51.9728 46.6484 51.9233 46.6979 51.9233 46.7588C51.9233 46.8198 51.9728 46.8692 52.0337 46.8692Z" fill="black"/>
<path id="Vector_29" d="M65.2203 47.2917C65.2789 47.2917 65.3263 47.2442 65.3263 47.1856C65.3263 47.1271 65.2789 47.0796 65.2203 47.0796C65.1617 47.0796 65.1143 47.1271 65.1143 47.1856C65.1143 47.2442 65.1617 47.2917 65.2203 47.2917Z" fill="black"/>
<path id="Vector_30" d="M69.314 48.6301C69.3783 48.6301 69.4304 48.578 69.4304 48.5137C69.4304 48.4494 69.3783 48.3972 69.314 48.3972C69.2497 48.3972 69.1975 48.4494 69.1975 48.5137C69.1975 48.578 69.2497 48.6301 69.314 48.6301Z" fill="black"/>
<path id="Vector_31" d="M56.6228 50.1251C56.6861 50.1251 56.7375 50.0737 56.7375 50.0104C56.7375 49.947 56.6861 49.8956 56.6228 49.8956C56.5594 49.8956 56.5081 49.947 56.5081 50.0104C56.5081 50.0737 56.5594 50.1251 56.6228 50.1251Z" fill="black"/>
<path id="Vector_32" d="M62.2175 50.025C62.2191 50.0869 62.264 50.136 62.3177 50.1345C62.3715 50.1331 62.4137 50.0818 62.4121 50.0199C62.4105 49.958 62.3656 49.909 62.3119 49.9104C62.2581 49.9118 62.2159 49.9631 62.2175 50.025Z" fill="black"/>
<path id="Vector_33" d="M58.8984 50.3408C58.8892 50.403 58.926 50.4599 58.9806 50.468C59.0353 50.4761 59.087 50.4322 59.0962 50.37C59.1053 50.3078 59.0685 50.2508 59.0139 50.2427C58.9593 50.2347 58.9076 50.2786 58.8984 50.3408Z" fill="black"/>
<path id="Vector_34" d="M14.4382 51.0359C14.4356 51.0294 14.4312 51.0239 14.4257 51.0197C14.4201 51.0155 14.4135 51.0129 14.4066 51.0121C14.3997 51.0113 14.3927 51.0123 14.3864 51.0152C14.38 51.018 14.3745 51.0224 14.3704 51.028C14.2296 51.2253 14.0871 51.4922 13.7933 51.3609C13.7769 51.3536 13.7629 51.3418 13.7529 51.3269C13.7429 51.3119 13.7373 51.2945 13.7367 51.2765C13.7362 51.2585 13.7407 51.2408 13.7498 51.2253C13.7589 51.2098 13.7722 51.1971 13.7881 51.1888C13.9463 51.108 14.1262 51.048 14.0993 50.8247C14.0952 50.7899 14.0793 50.7621 14.0515 50.7412C13.9176 50.6421 13.6386 50.5013 13.6482 50.3153C13.6499 50.2812 13.6679 50.2658 13.7021 50.2693C14.0089 50.3023 14.181 50.4813 14.3357 50.723C14.3413 50.7317 14.349 50.7389 14.3582 50.7438C14.3674 50.7486 14.3777 50.751 14.388 50.7506C14.3983 50.7503 14.4083 50.7472 14.417 50.7418C14.4256 50.7363 14.4327 50.7286 14.4374 50.7195C14.5278 50.5474 14.6677 50.3797 14.8754 50.3649C15.1599 50.344 15.3491 50.4631 15.443 50.7221C15.6637 51.3331 14.7311 51.7286 14.4382 51.0359ZM15.1532 51.0369C15.1927 50.9859 15.2085 50.9197 15.1969 50.853C15.1853 50.7863 15.1474 50.7244 15.0915 50.681C15.0356 50.6377 14.9662 50.6163 14.8987 50.6217C14.8312 50.6271 14.7711 50.6588 14.7315 50.7098C14.6919 50.7608 14.6762 50.8269 14.6878 50.8937C14.6994 50.9604 14.7373 51.0223 14.7932 51.0656C14.8491 51.109 14.9184 51.1303 14.986 51.1249C15.0535 51.1195 15.1136 51.0879 15.1532 51.0369Z" fill="black"/>
<path id="Vector_35" d="M65.8504 50.531C65.908 50.531 65.9547 50.4843 65.9547 50.4267C65.9547 50.3691 65.908 50.3224 65.8504 50.3224C65.7928 50.3224 65.7461 50.3691 65.7461 50.4267C65.7461 50.4843 65.7928 50.531 65.8504 50.531Z" fill="black"/>
<path id="Vector_36" d="M53.3271 51.0699C53.3938 51.0699 53.4479 51.0158 53.4479 50.9491C53.4479 50.8823 53.3938 50.8282 53.3271 50.8282C53.2604 50.8282 53.2063 50.8823 53.2063 50.9491C53.2063 51.0158 53.2604 51.0699 53.3271 51.0699Z" fill="black"/>
<path id="Vector_37" d="M56.9452 52.3344C57.008 52.3344 57.059 52.2834 57.059 52.2205C57.059 52.1577 57.008 52.1067 56.9452 52.1067C56.8823 52.1067 56.8313 52.1577 56.8313 52.2205C56.8313 52.2834 56.8823 52.3344 56.9452 52.3344Z" fill="black"/>
<path id="Vector_38" d="M63.5081 53.4878C63.5092 53.5511 63.5557 53.6017 63.6118 53.6007C63.668 53.5997 63.7126 53.5476 63.7115 53.4842C63.7104 53.4209 63.664 53.3703 63.6078 53.3713C63.5516 53.3723 63.507 53.4244 63.5081 53.4878Z" fill="black"/>
<path id="Vector_39" d="M65.637 55.6833C65.6321 55.7369 65.6657 55.7837 65.7121 55.7879C65.7585 55.7921 65.8 55.7522 65.8049 55.6986C65.8098 55.6451 65.7761 55.5983 65.7298 55.594C65.6834 55.5898 65.6419 55.6298 65.637 55.6833Z" fill="black"/>
<path id="Vector_40" d="M28.62 55.725H18.9934C18.907 55.725 18.8369 55.795 18.8369 55.8814V55.8866C18.8369 55.973 18.907 56.0431 18.9934 56.0431H28.62C28.7064 56.0431 28.7764 55.973 28.7764 55.8866V55.8814C28.7764 55.795 28.7064 55.725 28.62 55.725Z" fill="black"/>
<path id="Vector_41" d="M67.4548 57.1199C67.5138 57.1199 67.5617 57.0721 67.5617 57.013C67.5617 56.954 67.5138 56.9061 67.4548 56.9061C67.3958 56.9061 67.3479 56.954 67.3479 57.013C67.3479 57.0721 67.3958 57.1199 67.4548 57.1199Z" fill="black"/>
<path id="Vector_42" d="M62.3287 57.4485C62.3906 57.4485 62.4408 57.3983 62.4408 57.3364C62.4408 57.2744 62.3906 57.2242 62.3287 57.2242C62.2667 57.2242 62.2166 57.2744 62.2166 57.3364C62.2166 57.3983 62.2667 57.4485 62.3287 57.4485Z" fill="black"/>
<path id="Vector_43" d="M28.7789 58.1299H19.0463C18.9609 58.1299 18.8916 58.1991 18.8916 58.2846V58.2881C18.8916 58.3735 18.9609 58.4428 19.0463 58.4428H28.7789C28.8644 58.4428 28.9337 58.3735 28.9337 58.2881V58.2846C28.9337 58.1991 28.8644 58.1299 28.7789 58.1299Z" fill="black"/>
<path id="Vector_44" d="M26.0048 62.9832H19.9225C19.8285 62.9832 19.7522 63.0594 19.7522 63.1535V63.1587C19.7522 63.2528 19.8285 63.3291 19.9225 63.3291H26.0048C26.0989 63.3291 26.1751 63.2528 26.1751 63.1587V63.1535C26.1751 63.0594 26.0989 62.9832 26.0048 62.9832Z" fill="black"/>
<path id="Vector_45" d="M65.0777 63.6811C65.0691 63.6884 65.058 63.6921 65.0468 63.6913C65.0356 63.6905 65.0251 63.6852 65.0177 63.6767L64.9821 63.6368C64.9585 63.6099 64.944 63.577 64.9419 63.5452C64.9398 63.5134 64.9502 63.4854 64.9708 63.4673L64.9882 63.4525C64.9983 63.4434 65.0107 63.437 65.0246 63.4337C65.0385 63.4305 65.0536 63.4303 65.0691 63.4333C65.0846 63.4363 65.1002 63.4423 65.1149 63.4512C65.1297 63.46 65.1433 63.4714 65.155 63.4847L65.1907 63.5255C65.198 63.534 65.2017 63.5451 65.2009 63.5564C65.2001 63.5676 65.1948 63.5781 65.1863 63.5855L65.0777 63.6811Z" fill="black"/>
<path id="Vector_46" d="M63.0162 64.1171L62.963 64.1082C62.9124 64.0996 62.8644 64.1337 62.8558 64.1843L62.8529 64.2015C62.8444 64.2521 62.8785 64.3001 62.9291 64.3087L62.9822 64.3177C63.0329 64.3262 63.0809 64.2921 63.0895 64.2415L63.0924 64.2244C63.1009 64.1737 63.0668 64.1257 63.0162 64.1171Z" fill="black"/>
<path id="Vector_47" d="M27.2111 64.7535H20.1901C20.0994 64.7535 20.0259 64.8271 20.0259 64.9178V64.9213C20.0259 65.012 20.0994 65.0855 20.1901 65.0855H27.2111C27.3018 65.0855 27.3753 65.012 27.3753 64.9213V64.9178C27.3753 64.8271 27.3018 64.7535 27.2111 64.7535Z" fill="black"/>
<path id="Vector_48" d="M29.7412 66.9951H20.5439C20.4643 66.9951 20.3997 67.0597 20.3997 67.1394V67.1724C20.3997 67.2521 20.4643 67.3167 20.5439 67.3167H29.7412C29.8209 67.3167 29.8855 67.2521 29.8855 67.1724V67.1394C29.8855 67.0597 29.8209 66.9951 29.7412 66.9951Z" fill="black"/>
<path id="Vector_49" d="M63.635 68.5331C63.6359 68.6031 63.6867 68.6593 63.7487 68.6586C63.8106 68.6578 63.8601 68.6004 63.8592 68.5303C63.8584 68.4603 63.8075 68.4041 63.7456 68.4048C63.6836 68.4056 63.6341 68.463 63.635 68.5331Z" fill="black"/>
<path id="Vector_50" d="M14.1105 71.3405L13.4986 71.348C13.4348 71.3487 13.3837 71.4011 13.3845 71.465L13.385 71.5084C13.3858 71.5722 13.4382 71.6234 13.502 71.6226L14.1138 71.6151C14.1777 71.6143 14.2288 71.5619 14.228 71.4981L14.2275 71.4547C14.2267 71.3908 14.1743 71.3397 14.1105 71.3405Z" fill="black"/>
<path id="Vector_51" d="M14.1672 72.0426L13.4841 72.0366C13.4207 72.0361 13.3689 72.087 13.3684 72.1504L13.368 72.1956C13.3674 72.2589 13.4184 72.3107 13.4817 72.3113L14.1648 72.3172C14.2282 72.3178 14.28 72.2669 14.2806 72.2035L14.2809 72.1583C14.2815 72.095 14.2306 72.0432 14.1672 72.0426Z" fill="black"/>
<path id="Vector_52" d="M7.96512 74.4494L7.95665 74.4514C7.88418 74.4683 7.83911 74.5407 7.85597 74.6131L8.0636 75.5054C8.08047 75.5778 8.15288 75.6229 8.22535 75.6061L8.23381 75.6041C8.30628 75.5872 8.35135 75.5148 8.33449 75.4423L8.12686 74.5501C8.11 74.4776 8.03758 74.4326 7.96512 74.4494Z" fill="black"/>
<path id="Vector_53" d="M8.74714 74.4675L8.73527 74.4702C8.66035 74.487 8.6133 74.5615 8.63018 74.6364L8.77196 75.2655C8.78885 75.3404 8.86327 75.3875 8.93819 75.3706L8.95006 75.3679C9.02499 75.351 9.07204 75.2766 9.05515 75.2017L8.91337 74.5726C8.89649 74.4976 8.82206 74.4506 8.74714 74.4675Z" fill="black"/>
</g>
</g>
</g>
<defs>
<clipPath id="clip0_2231_9561">
<rect width="89" height="89" fill="white"/>
</clipPath>
</defs>
</svg>
